{
	"asset":{
		"generator":"Khronos glTF Blender I/O v3.6.27",
		"version":"2.0"
	},
	"scene":0,
	"scenes":[
		{
			"name":"Scene",
			"nodes":[
				0,
				1,
				2,
				3
			]
		}
	],
	"nodes":[
		{
			"mesh":0,
			"name":"Cube",
			"translation":[
				1,
				1,
				-1.5
			]
		},
		{
			"mesh":1,
			"name":"Plane.001",
			"translation":[
				0,
				0,
				-0.5
			]
		},
		{
			"name":"__connector1",
			"rotation":[
				0,
				0.7071068286895752,
				0,
				0.7071068286895752
			],
			"translation":[
				-9.40654182434082,
				0,
				-6.466998100280762
			]
		},
		{
			"name":"__connector0",
			"rotation":[
				0,
				-0.7071068286895752,
				0,
				0.7071068286895752
			],
			"translation":[
				12.487184524536133,
				0,
				-6.5375471115112305
			]
		}
	],
	"materials":[
		{
			"name":"Material",
			"pbrMetallicRoughness":{
				"baseColorTexture":{
					"index":0
				},
				"metallicFactor":0
			}
		},
		{
			"name":"Floor",
			"pbrMetallicRoughness":{
				"baseColorTexture":{
					"index":1
				},
				"metallicFactor":0
			}
		}
	],
	"meshes":[
		{
			"name":"Cube",
			"primitives":[
				{
					"attributes":{
						"POSITION":0,
						"NORMAL":1,
						"TEXCOORD_0":2
					},
					"indices":3,
					"material":0
				},
				{
					"attributes":{
						"POSITION":4,
						"NORMAL":5,
						"TEXCOORD_0":6
					},
					"indices":7,
					"material":1
				}
			]
		},
		{
			"name":"Plane.001",
			"primitives":[
				{
					"attributes":{
						"POSITION":8,
						"NORMAL":9,
						"TEXCOORD_0":10
					},
					"indices":11,
					"material":0
				}
			]
		}
	],
	"textures":[
		{
			"sampler":0,
			"source":0
		},
		{
			"sampler":0,
			"source":1
		}
	],
	"images":[
		{
			"mimeType":"image/png",
			"name":"dungeon_wall_diffuse.png",
			"uri":"../../../../texture/dungeon_wall_diffuse.png"
		},
		{
			"mimeType":"image/png",
			"name":"dungeon_floor_diffuse.png",
			"uri":"../../../../texture/dungeon_floor_diffuse.png"
		}
	],
	"accessors":[
		{
			"bufferView":0,
			"componentType":5126,
			"count":446,
			"max":[
				10,
				3,
				1
			],
			"min":[
				-9,
				-1,
				-11.000000953674316
			],
			"type":"VEC3"
		},
		{
			"bufferView":1,
			"componentType":5126,
			"count":446,
			"type":"VEC3"
		},
		{
			"bufferView":2,
			"componentType":5126,
			"count":446,
			"type":"VEC2"
		},
		{
			"bufferView":3,
			"componentType":5123,
			"count":756,
			"type":"SCALAR"
		},
		{
			"bufferView":4,
			"componentType":5126,
			"count":36,
			"max":[
				10,
				-1,
				1
			],
			"min":[
				-9,
				-1,
				-11.000000953674316
			],
			"type":"VEC3"
		},
		{
			"bufferView":5,
			"componentType":5126,
			"count":36,
			"type":"VEC3"
		},
		{
			"bufferView":6,
			"componentType":5126,
			"count":36,
			"type":"VEC2"
		},
		{
			"bufferView":7,
			"componentType":5123,
			"count":54,
			"type":"SCALAR"
		},
		{
			"bufferView":8,
			"componentType":5126,
			"count":202,
			"max":[
				12,
				5,
				-4.5
			],
			"min":[
				-9,
				0,
				-7.5
			],
			"type":"VEC3"
		},
		{
			"bufferView":9,
			"componentType":5126,
			"count":202,
			"type":"VEC3"
		},
		{
			"bufferView":10,
			"componentType":5126,
			"count":202,
			"type":"VEC2"
		},
		{
			"bufferView":11,
			"componentType":5123,
			"count":516,
			"type":"SCALAR"
		}
	],
	"bufferViews":[
		{
			"buffer":0,
			"byteLength":5352,
			"byteOffset":0,
			"target":34962
		},
		{
			"buffer":0,
			"byteLength":5352,
			"byteOffset":5352,
			"target":34962
		},
		{
			"buffer":0,
			"byteLength":3568,
			"byteOffset":10704,
			"target":34962
		},
		{
			"buffer":0,
			"byteLength":1512,
			"byteOffset":14272,
			"target":34963
		},
		{
			"buffer":0,
			"byteLength":432,
			"byteOffset":15784,
			"target":34962
		},
		{
			"buffer":0,
			"byteLength":432,
			"byteOffset":16216,
			"target":34962
		},
		{
			"buffer":0,
			"byteLength":288,
			"byteOffset":16648,
			"target":34962
		},
		{
			"buffer":0,
			"byteLength":108,
			"byteOffset":16936,
			"target":34963
		},
		{
			"buffer":0,
			"byteLength":2424,
			"byteOffset":17044,
			"target":34962
		},
		{
			"buffer":0,
			"byteLength":2424,
			"byteOffset":19468,
			"target":34962
		},
		{
			"buffer":0,
			"byteLength":1616,
			"byteOffset":21892,
			"target":34962
		},
		{
			"buffer":0,
			"byteLength":1032,
			"byteOffset":23508,
			"target":34963
		}
	],
	"samplers":[
		{
			"magFilter":9729,
			"minFilter":9987
		}
	],
	"buffers":[
		{
			"byteLength":24540,
			"uri":"room7.bin"
		}
	]
}
