{
	"asset":{
		"generator":"Khronos glTF Blender I/O v3.5.30",
		"version":"2.0"
	},
	"scene":0,
	"scenes":[
		{
			"name":"Scene",
			"nodes":[
				0
			]
		}
	],
	"nodes":[
		{
			"mesh":0,
			"name":"Cylinder.002",
			"rotation":[
				0,
				0.7071068286895752,
				0,
				0.7071068286895752
			]
		}
	],
	"materials":[
		{
			"doubleSided":true,
			"name":"Material.001",
			"pbrMetallicRoughness":{
				"baseColorTexture":{
					"index":0
				},
				"metallicRoughnessTexture":{
					"index":1
				}
			}
		}
	],
	"meshes":[
		{
			"name":"Cylinder.002",
			"primitives":[
				{
					"attributes":{
						"POSITION":0,
						"TEXCOORD_0":1,
						"NORMAL":2
					},
					"indices":3,
					"material":0
				}
			]
		}
	],
	"textures":[
		{
			"sampler":0,
			"source":0
		},
		{
			"sampler":0,
			"source":1
		}
	],
	"images":[
		{
			"mimeType":"image/png",
			"name":"torch.png.001",
			"uri":"textures/torch.png"
		},
		{
			"mimeType":"image/png",
			"name":"torch_roughness.png.001",
			"uri":"textures/torch_roughness.png"
		}
	],
	"accessors":[
		{
			"bufferView":0,
			"componentType":5126,
			"count":1124,
			"max":[
				0.03304821997880936,
				0.3281319737434387,
				0.03420882299542427
			],
			"min":[
				-0.03453490138053894,
				-0.2449701577425003,
				-0.034671325236558914
			],
			"type":"VEC3"
		},
		{
			"bufferView":1,
			"componentType":5126,
			"count":1124,
			"type":"VEC2"
		},
		{
			"bufferView":2,
			"componentType":5126,
			"count":1124,
			"type":"VEC3"
		},
		{
			"bufferView":3,
			"componentType":5123,
			"count":5850,
			"type":"SCALAR"
		}
	],
	"bufferViews":[
		{
			"buffer":0,
			"byteLength":13488,
			"byteOffset":0,
			"target":34962
		},
		{
			"buffer":0,
			"byteLength":8992,
			"byteOffset":13488,
			"target":34962
		},
		{
			"buffer":0,
			"byteLength":13488,
			"byteOffset":22480,
			"target":34962
		},
		{
			"buffer":0,
			"byteLength":11700,
			"byteOffset":35968,
			"target":34963
		}
	],
	"samplers":[
		{
			"magFilter":9729,
			"minFilter":9987
		}
	],
	"buffers":[
		{
			"byteLength":47668,
			"uri":"torch.bin"
		}
	]
}
