{
	"asset":{
		"generator":"Khronos glTF Blender I/O v3.6.27",
		"version":"2.0"
	},
	"scene":0,
	"scenes":[
		{
			"name":"Scene",
			"nodes":[
				0
			]
		}
	],
	"nodes":[
		{
			"mesh":0,
			"name":"Cylinder.002",
			"rotation":[
				0,
				0.7071068286895752,
				0,
				0.7071068286895752
			]
		}
	],
	"materials":[
		{
			"doubleSided":true,
			"name":"Cloth",
			"pbrMetallicRoughness":{
				"baseColorFactor":[
					0.006370144430547953,
					0.005041367840021849,
					0.004237205721437931,
					1
				],
				"metallicRoughnessTexture":{
					"index":0
				}
			}
		},
		{
			"doubleSided":true,
			"name":"Stick",
			"pbrMetallicRoughness":{
				"baseColorFactor":[
					0.06220439076423645,
					0.033286429941654205,
					0.01732414960861206,
					1
				],
				"metallicRoughnessTexture":{
					"index":1
				}
			}
		}
	],
	"meshes":[
		{
			"name":"Cylinder.002",
			"primitives":[
				{
					"attributes":{
						"POSITION":0,
						"NORMAL":1,
						"TEXCOORD_0":2
					},
					"indices":3,
					"material":0
				},
				{
					"attributes":{
						"POSITION":4,
						"NORMAL":5,
						"TEXCOORD_0":6
					},
					"indices":7,
					"material":1
				}
			]
		}
	],
	"textures":[
		{
			"sampler":0,
			"source":0
		},
		{
			"sampler":0,
			"source":0
		}
	],
	"images":[
		{
			"mimeType":"image/png",
			"name":"torch_roughness.png.001",
			"uri":"textures/torch_roughness.png"
		}
	],
	"accessors":[
		{
			"bufferView":0,
			"componentType":5126,
			"count":46,
			"max":[
				0.032564740628004074,
				0.32799503207206726,
				0.03569316491484642
			],
			"min":[
				-0.03283662721514702,
				0.15808197855949402,
				-0.03620242327451706
			],
			"type":"VEC3"
		},
		{
			"bufferView":1,
			"componentType":5126,
			"count":46,
			"type":"VEC3"
		},
		{
			"bufferView":2,
			"componentType":5126,
			"count":46,
			"type":"VEC2"
		},
		{
			"bufferView":3,
			"componentType":5123,
			"count":132,
			"type":"SCALAR"
		},
		{
			"bufferView":4,
			"componentType":5126,
			"count":89,
			"max":[
				0.022969495505094528,
				0.24353612959384918,
				0.02325584553182125
			],
			"min":[
				-0.024192359298467636,
				-0.24490171670913696,
				-0.023669490590691566
			],
			"type":"VEC3"
		},
		{
			"bufferView":5,
			"componentType":5126,
			"count":89,
			"type":"VEC3"
		},
		{
			"bufferView":6,
			"componentType":5126,
			"count":89,
			"type":"VEC2"
		},
		{
			"bufferView":7,
			"componentType":5123,
			"count":399,
			"type":"SCALAR"
		}
	],
	"bufferViews":[
		{
			"buffer":0,
			"byteLength":552,
			"byteOffset":0,
			"target":34962
		},
		{
			"buffer":0,
			"byteLength":552,
			"byteOffset":552,
			"target":34962
		},
		{
			"buffer":0,
			"byteLength":368,
			"byteOffset":1104,
			"target":34962
		},
		{
			"buffer":0,
			"byteLength":264,
			"byteOffset":1472,
			"target":34963
		},
		{
			"buffer":0,
			"byteLength":1068,
			"byteOffset":1736,
			"target":34962
		},
		{
			"buffer":0,
			"byteLength":1068,
			"byteOffset":2804,
			"target":34962
		},
		{
			"buffer":0,
			"byteLength":712,
			"byteOffset":3872,
			"target":34962
		},
		{
			"buffer":0,
			"byteLength":798,
			"byteOffset":4584,
			"target":34963
		}
	],
	"samplers":[
		{
			"magFilter":9729,
			"minFilter":9987
		}
	],
	"buffers":[
		{
			"byteLength":5384,
			"uri":"torch.bin"
		}
	]
}
