{
	"asset":{
		"generator":"Khronos glTF Blender I/O v3.6.27",
		"version":"2.0"
	},
	"scene":0,
	"scenes":[
		{
			"name":"Scene",
			"nodes":[
				0
			]
		}
	],
	"nodes":[
		{
			"mesh":0,
			"name":"Plane"
		}
	],
	"meshes":[
		{
			"name":"Plane",
			"primitives":[
				{
					"attributes":{
						"COLOR_0":0,
						"POSITION":1,
						"NORMAL":2,
						"TEXCOORD_0":3
					},
					"indices":4
				}
			]
		}
	],
	"accessors":[
		{
			"bufferView":0,
			"componentType":5123,
			"count":289,
			"normalized":true,
			"type":"VEC4"
		},
		{
			"bufferView":1,
			"componentType":5126,
			"count":289,
			"max":[
				0.9999999403953552,
				1,
				0
			],
			"min":[
				-0.9999999403953552,
				-1,
				0
			],
			"type":"VEC3"
		},
		{
			"bufferView":2,
			"componentType":5126,
			"count":289,
			"type":"VEC3"
		},
		{
			"bufferView":3,
			"componentType":5126,
			"count":289,
			"type":"VEC2"
		},
		{
			"bufferView":4,
			"componentType":5123,
			"count":1536,
			"type":"SCALAR"
		}
	],
	"bufferViews":[
		{
			"buffer":0,
			"byteLength":2312,
			"byteOffset":0,
			"target":34962
		},
		{
			"buffer":0,
			"byteLength":3468,
			"byteOffset":2312,
			"target":34962
		},
		{
			"buffer":0,
			"byteLength":3468,
			"byteOffset":5780,
			"target":34962
		},
		{
			"buffer":0,
			"byteLength":2312,
			"byteOffset":9248,
			"target":34962
		},
		{
			"buffer":0,
			"byteLength":3072,
			"byteOffset":11560,
			"target":34963
		}
	],
	"buffers":[
		{
			"byteLength":14632,
			"uri":"cloth.bin"
		}
	]
}
