{
	"asset":{
		"generator":"Khronos glTF Blender I/O v3.5.30",
		"version":"2.0"
	},
	"scene":0,
	"scenes":[
		{
			"name":"Scene",
			"nodes":[
				0
			]
		}
	],
	"nodes":[
		{
			"mesh":0,
			"name":"Cube",
			"translation":[
				-4,
				0,
				0
			]
		}
	],
	"materials":[
		{
			"doubleSided":true,
			"name":"Material",
			"pbrMetallicRoughness":{
				"baseColorFactor":[
					0.20190100371837616,
					0.20190100371837616,
					0.20190100371837616,
					1
				],
				"roughnessFactor":0.5955055952072144
			}
		}
	],
	"meshes":[
		{
			"name":"Cube",
			"primitives":[
				{
					"attributes":{
						"POSITION":0,
						"TEXCOORD_0":1,
						"NORMAL":2
					},
					"indices":3,
					"material":0
				}
			]
		}
	],
	"accessors":[
		{
			"bufferView":0,
			"componentType":5126,
			"count":1848,
			"max":[
				8.039107322692871,
				2.085986375808716,
				0.03910716995596886
			],
			"min":[
				-0.03910716995596886,
				0,
				-0.03910716995596886
			],
			"type":"VEC3"
		},
		{
			"bufferView":1,
			"componentType":5126,
			"count":1848,
			"type":"VEC2"
		},
		{
			"bufferView":2,
			"componentType":5126,
			"count":1848,
			"type":"VEC3"
		},
		{
			"bufferView":3,
			"componentType":5123,
			"count":2772,
			"type":"SCALAR"
		}
	],
	"bufferViews":[
		{
			"buffer":0,
			"byteLength":22176,
			"byteOffset":0,
			"target":34962
		},
		{
			"buffer":0,
			"byteLength":14784,
			"byteOffset":22176,
			"target":34962
		},
		{
			"buffer":0,
			"byteLength":22176,
			"byteOffset":36960,
			"target":34962
		},
		{
			"buffer":0,
			"byteLength":5544,
			"byteOffset":59136,
			"target":34963
		}
	],
	"buffers":[
		{
			"byteLength":64680,
			"uri":"iron_bars.bin"
		}
	]
}
