{
	"asset":{
		"generator":"Khronos glTF Blender I/O v3.6.27",
		"version":"2.0"
	},
	"scene":0,
	"scenes":[
		{
			"name":"Scene",
			"nodes":[
				0,
				1,
				2
			]
		}
	],
	"nodes":[
		{
			"mesh":0,
			"name":"Torch"
		},
		{
			"mesh":1,
			"name":"Hold"
		},
		{
			"mesh":2,
			"name":"Sphere"
		}
	],
	"materials":[
		{
			"doubleSided":true,
			"name":"Material",
			"pbrMetallicRoughness":{
				"baseColorFactor":[
					0.26106318831443787,
					0.26106318831443787,
					0.26106318831443787,
					1
				],
				"roughnessFactor":0.6290909051895142
			}
		},
		{
			"doubleSided":true,
			"name":"Material.001",
			"pbrMetallicRoughness":{
				"baseColorFactor":[
					0.007221051026135683,
					0.007221051026135683,
					0.007221051026135683,
					1
				],
				"metallicFactor":0
			}
		}
	],
	"meshes":[
		{
			"name":"Cylinder.001",
			"primitives":[
				{
					"attributes":{
						"POSITION":0,
						"NORMAL":1,
						"TEXCOORD_0":2
					},
					"indices":3,
					"material":0
				}
			]
		},
		{
			"name":"Cylinder.002",
			"primitives":[
				{
					"attributes":{
						"POSITION":4,
						"NORMAL":5,
						"TEXCOORD_0":6
					},
					"indices":7,
					"material":0
				}
			]
		},
		{
			"name":"Sphere",
			"primitives":[
				{
					"attributes":{
						"POSITION":8,
						"NORMAL":9,
						"TEXCOORD_0":10
					},
					"indices":11,
					"material":1
				}
			]
		}
	],
	"accessors":[
		{
			"bufferView":0,
			"componentType":5126,
			"count":2106,
			"max":[
				0.07039973884820938,
				0.4363732933998108,
				0.36493992805480957
			],
			"min":[
				-0.07054313272237778,
				-0.20308370888233185,
				0.06458327919244766
			],
			"type":"VEC3"
		},
		{
			"bufferView":1,
			"componentType":5126,
			"count":2106,
			"type":"VEC3"
		},
		{
			"bufferView":2,
			"componentType":5126,
			"count":2106,
			"type":"VEC2"
		},
		{
			"bufferView":3,
			"componentType":5123,
			"count":7128,
			"type":"SCALAR"
		},
		{
			"bufferView":4,
			"componentType":5126,
			"count":206,
			"max":[
				0.033759020268917084,
				0.18850719928741455,
				0.25145405530929565
			],
			"min":[
				-0.03303595259785652,
				0.17605794966220856,
				-0.00015171989798545837
			],
			"type":"VEC3"
		},
		{
			"bufferView":5,
			"componentType":5126,
			"count":206,
			"type":"VEC3"
		},
		{
			"bufferView":6,
			"componentType":5126,
			"count":206,
			"type":"VEC2"
		},
		{
			"bufferView":7,
			"componentType":5123,
			"count":690,
			"type":"SCALAR"
		},
		{
			"bufferView":8,
			"componentType":5126,
			"count":43,
			"max":[
				0.05012522265315056,
				0.332454115152359,
				0.3002258241176605
			],
			"min":[
				-0.05012529715895653,
				0.21266421675682068,
				0.19669033586978912
			],
			"type":"VEC3"
		},
		{
			"bufferView":9,
			"componentType":5126,
			"count":43,
			"type":"VEC3"
		},
		{
			"bufferView":10,
			"componentType":5126,
			"count":43,
			"type":"VEC2"
		},
		{
			"bufferView":11,
			"componentType":5123,
			"count":144,
			"type":"SCALAR"
		}
	],
	"bufferViews":[
		{
			"buffer":0,
			"byteLength":25272,
			"byteOffset":0,
			"target":34962
		},
		{
			"buffer":0,
			"byteLength":25272,
			"byteOffset":25272,
			"target":34962
		},
		{
			"buffer":0,
			"byteLength":16848,
			"byteOffset":50544,
			"target":34962
		},
		{
			"buffer":0,
			"byteLength":14256,
			"byteOffset":67392,
			"target":34963
		},
		{
			"buffer":0,
			"byteLength":2472,
			"byteOffset":81648,
			"target":34962
		},
		{
			"buffer":0,
			"byteLength":2472,
			"byteOffset":84120,
			"target":34962
		},
		{
			"buffer":0,
			"byteLength":1648,
			"byteOffset":86592,
			"target":34962
		},
		{
			"buffer":0,
			"byteLength":1380,
			"byteOffset":88240,
			"target":34963
		},
		{
			"buffer":0,
			"byteLength":516,
			"byteOffset":89620,
			"target":34962
		},
		{
			"buffer":0,
			"byteLength":516,
			"byteOffset":90136,
			"target":34962
		},
		{
			"buffer":0,
			"byteLength":344,
			"byteOffset":90652,
			"target":34962
		},
		{
			"buffer":0,
			"byteLength":288,
			"byteOffset":90996,
			"target":34963
		}
	],
	"buffers":[
		{
			"byteLength":91284,
			"uri":"torch.bin"
		}
	]
}
