{
	"asset":{
		"generator":"Khronos glTF Blender I/O v3.6.27",
		"version":"2.0"
	},
	"scene":0,
	"scenes":[
		{
			"name":"Scene",
			"nodes":[
				0,
				1,
				2,
				3,
				4
			]
		}
	],
	"nodes":[
		{
			"mesh":0,
			"name":"Circle"
		},
		{
			"mesh":1,
			"name":"Cube.014",
			"rotation":[
				0,
				-0.9617326855659485,
				0,
				0.2739894986152649
			],
			"translation":[
				-9.79218864440918,
				3.978060245513916,
				-28.111469268798828
			]
		},
		{
			"mesh":2,
			"name":"__water",
			"translation":[
				0,
				-0.17735221982002258,
				0
			]
		},
		{
			"name":"Spawn: default",
			"translation":[
				0,
				0.5541337132453918,
				0
			]
		},
		{
			"name":"Cubemap:0",
			"scale":[
				37.09133529663086,
				37.09133529663086,
				37.09133529663086
			],
			"translation":[
				0,
				14.409463882446289,
				0
			]
		}
	],
	"materials":[
		{
			"doubleSided":true,
			"name":"Material",
			"pbrMetallicRoughness":{
				"baseColorFactor":[
					0.22153617441654205,
					0.22153617441654205,
					0.22153617441654205,
					1
				],
				"metallicFactor":0
			}
		},
		{
			"doubleSided":true,
			"name":"Material.001",
			"pbrMetallicRoughness":{
				"metallicFactor":0
			}
		},
		{
			"doubleSided":true,
			"name":"Material",
			"pbrMetallicRoughness":{
				"baseColorFactor":[
					0.22153617441654205,
					0.22153617441654205,
					0.22153617441654205,
					1
				],
				"metallicFactor":0
			}
		}
	],
	"meshes":[
		{
			"name":"Circle",
			"primitives":[
				{
					"attributes":{
						"POSITION":0,
						"NORMAL":1,
						"TEXCOORD_0":2
					},
					"indices":3,
					"material":0
				}
			]
		},
		{
			"name":"Cube.015",
			"primitives":[
				{
					"attributes":{
						"POSITION":4,
						"NORMAL":5,
						"TEXCOORD_0":6
					},
					"indices":7,
					"material":1
				},
				{
					"attributes":{
						"POSITION":8,
						"NORMAL":9,
						"TEXCOORD_0":10
					},
					"indices":11,
					"material":2
				}
			]
		},
		{
			"name":"Plane.001",
			"primitives":[
				{
					"attributes":{
						"POSITION":12,
						"NORMAL":13,
						"TEXCOORD_0":14
					},
					"indices":15
				}
			]
		}
	],
	"accessors":[
		{
			"bufferView":0,
			"componentType":5126,
			"count":820,
			"max":[
				38.40562438964844,
				0.4621998965740204,
				38.40562438964844
			],
			"min":[
				-26.3668155670166,
				-0.5981881022453308,
				-38.40562438964844
			],
			"type":"VEC3"
		},
		{
			"bufferView":1,
			"componentType":5126,
			"count":820,
			"type":"VEC3"
		},
		{
			"bufferView":2,
			"componentType":5126,
			"count":820,
			"type":"VEC2"
		},
		{
			"bufferView":3,
			"componentType":5123,
			"count":1434,
			"type":"SCALAR"
		},
		{
			"bufferView":4,
			"componentType":5126,
			"count":78,
			"max":[
				4.2688398361206055,
				5.851080894470215,
				0.3569300174713135
			],
			"min":[
				-0.3316510319709778,
				-1.4627525806427002,
				-1.976993203163147
			],
			"type":"VEC3"
		},
		{
			"bufferView":5,
			"componentType":5126,
			"count":78,
			"type":"VEC3"
		},
		{
			"bufferView":6,
			"componentType":5126,
			"count":78,
			"type":"VEC2"
		},
		{
			"bufferView":7,
			"componentType":5123,
			"count":120,
			"type":"SCALAR"
		},
		{
			"bufferView":8,
			"componentType":5126,
			"count":2852,
			"max":[
				38.30351257324219,
				12.438135147094727,
				7.564452648162842
			],
			"min":[
				-26.11981964111328,
				-6.665891647338867,
				-62.409339904785156
			],
			"type":"VEC3"
		},
		{
			"bufferView":9,
			"componentType":5126,
			"count":2852,
			"type":"VEC3"
		},
		{
			"bufferView":10,
			"componentType":5126,
			"count":2852,
			"type":"VEC2"
		},
		{
			"bufferView":11,
			"componentType":5123,
			"count":5370,
			"type":"SCALAR"
		},
		{
			"bufferView":12,
			"componentType":5126,
			"count":4,
			"max":[
				20.409069061279297,
				0,
				20.409069061279297
			],
			"min":[
				-20.409069061279297,
				0,
				-20.409069061279297
			],
			"type":"VEC3"
		},
		{
			"bufferView":13,
			"componentType":5126,
			"count":4,
			"type":"VEC3"
		},
		{
			"bufferView":14,
			"componentType":5126,
			"count":4,
			"type":"VEC2"
		},
		{
			"bufferView":15,
			"componentType":5123,
			"count":6,
			"type":"SCALAR"
		}
	],
	"bufferViews":[
		{
			"buffer":0,
			"byteLength":9840,
			"byteOffset":0,
			"target":34962
		},
		{
			"buffer":0,
			"byteLength":9840,
			"byteOffset":9840,
			"target":34962
		},
		{
			"buffer":0,
			"byteLength":6560,
			"byteOffset":19680,
			"target":34962
		},
		{
			"buffer":0,
			"byteLength":2868,
			"byteOffset":26240,
			"target":34963
		},
		{
			"buffer":0,
			"byteLength":936,
			"byteOffset":29108,
			"target":34962
		},
		{
			"buffer":0,
			"byteLength":936,
			"byteOffset":30044,
			"target":34962
		},
		{
			"buffer":0,
			"byteLength":624,
			"byteOffset":30980,
			"target":34962
		},
		{
			"buffer":0,
			"byteLength":240,
			"byteOffset":31604,
			"target":34963
		},
		{
			"buffer":0,
			"byteLength":34224,
			"byteOffset":31844,
			"target":34962
		},
		{
			"buffer":0,
			"byteLength":34224,
			"byteOffset":66068,
			"target":34962
		},
		{
			"buffer":0,
			"byteLength":22816,
			"byteOffset":100292,
			"target":34962
		},
		{
			"buffer":0,
			"byteLength":10740,
			"byteOffset":123108,
			"target":34963
		},
		{
			"buffer":0,
			"byteLength":48,
			"byteOffset":133848,
			"target":34962
		},
		{
			"buffer":0,
			"byteLength":48,
			"byteOffset":133896,
			"target":34962
		},
		{
			"buffer":0,
			"byteLength":32,
			"byteOffset":133944,
			"target":34962
		},
		{
			"buffer":0,
			"byteLength":12,
			"byteOffset":133976,
			"target":34963
		}
	],
	"buffers":[
		{
			"byteLength":133988,
			"uri":"cemetery_level.bin"
		}
	]
}
