{
	"asset":{
		"generator":"Khronos glTF Blender I/O v3.6.27",
		"version":"2.0"
	},
	"scene":0,
	"scenes":[
		{
			"name":"Scene",
			"nodes":[
				0,
				1,
				2,
				3,
				4,
				5,
				6,
				7,
				8,
				9,
				10,
				11,
				12,
				13,
				14,
				15
			]
		}
	],
	"nodes":[
		{
			"mesh":0,
			"name":"ADD[0]0",
			"translation":[
				11,
				0,
				0
			]
		},
		{
			"mesh":1,
			"name":"ADD[0]1",
			"translation":[
				11,
				0,
				4
			]
		},
		{
			"mesh":2,
			"name":"ADD[0]2",
			"translation":[
				11,
				0,
				8
			]
		},
		{
			"mesh":3,
			"name":"ADD[0]3",
			"translation":[
				11,
				0,
				12
			]
		},
		{
			"mesh":4,
			"name":"ADD[0]4",
			"rotation":[
				0,
				-1,
				0,
				1.9470718370939721e-07
			],
			"translation":[
				6,
				0,
				-7
			]
		},
		{
			"mesh":5,
			"name":"ADD[0]5",
			"translation":[
				11,
				0,
				20
			]
		},
		{
			"mesh":6,
			"name":"ADD[0]6",
			"translation":[
				11,
				0,
				16
			]
		},
		{
			"mesh":7,
			"name":"ADD[0]7",
			"translation":[
				-7,
				0,
				-17
			]
		},
		{
			"mesh":8,
			"name":"ADD[0]8",
			"translation":[
				10.47599983215332,
				1.816999912261963,
				-14.705999374389648
			]
		},
		{
			"mesh":9,
			"name":"ADD[0]10"
		},
		{
			"mesh":10,
			"name":"ADD[0]24",
			"translation":[
				-6,
				0,
				-23
			]
		},
		{
			"mesh":11,
			"name":"ADD[0]25",
			"translation":[
				-10,
				1,
				-33
			]
		},
		{
			"mesh":12,
			"name":"ADD[0]26",
			"translation":[
				4,
				0,
				-69
			]
		},
		{
			"mesh":13,
			"name":"Bridge",
			"translation":[
				1,
				0,
				0
			]
		},
		{
			"mesh":14,
			"name":"Sign",
			"translation":[
				-8,
				0,
				-5
			]
		},
		{
			"mesh":15,
			"name":"Ropebridge",
			"scale":[
				0.512451171875,
				0.512451171875,
				0.512451171875
			],
			"translation":[
				0,
				0,
				28.08989143371582
			]
		}
	],
	"materials":[
		{
			"name":"Material.007",
			"pbrMetallicRoughness":{
				"baseColorTexture":{
					"index":0
				},
				"metallicFactor":0,
				"roughnessFactor":0.5
			}
		},
		{
			"doubleSided":true,
			"name":"Material.008",
			"pbrMetallicRoughness":{
				"metallicFactor":0,
				"roughnessFactor":0.5
			}
		},
		{
			"doubleSided":true,
			"name":"Wood",
			"pbrMetallicRoughness":{
				"baseColorFactor":[
					0.4571429193019867,
					0.32847797870635986,
					0.19863523542881012,
					1
				],
				"metallicFactor":0,
				"roughnessFactor":0.5
			}
		}
	],
	"meshes":[
		{
			"name":"BRUSH.005",
			"primitives":[
				{
					"attributes":{
						"POSITION":0,
						"NORMAL":1,
						"TEXCOORD_0":2
					},
					"indices":3,
					"material":0
				}
			]
		},
		{
			"name":"BRUSH.011",
			"primitives":[
				{
					"attributes":{
						"POSITION":4,
						"NORMAL":5,
						"TEXCOORD_0":6
					},
					"indices":3,
					"material":0
				}
			]
		},
		{
			"name":"BRUSH.020",
			"primitives":[
				{
					"attributes":{
						"POSITION":7,
						"NORMAL":8,
						"TEXCOORD_0":9
					},
					"indices":3,
					"material":0
				}
			]
		},
		{
			"name":"BRUSH.030",
			"primitives":[
				{
					"attributes":{
						"POSITION":10,
						"NORMAL":11,
						"TEXCOORD_0":12
					},
					"indices":13,
					"material":0
				}
			]
		},
		{
			"name":"BRUSH.031",
			"primitives":[
				{
					"attributes":{
						"POSITION":14,
						"NORMAL":15,
						"TEXCOORD_0":16
					},
					"indices":17,
					"material":0
				}
			]
		},
		{
			"name":"BRUSH.032",
			"primitives":[
				{
					"attributes":{
						"POSITION":18,
						"NORMAL":19,
						"TEXCOORD_0":20
					},
					"indices":21,
					"material":0
				}
			]
		},
		{
			"name":"BRUSH.033",
			"primitives":[
				{
					"attributes":{
						"POSITION":22,
						"NORMAL":23,
						"TEXCOORD_0":24
					},
					"indices":21,
					"material":0
				}
			]
		},
		{
			"name":"BRUSH.034",
			"primitives":[
				{
					"attributes":{
						"POSITION":25,
						"NORMAL":26,
						"TEXCOORD_0":27
					},
					"indices":28,
					"material":0
				}
			]
		},
		{
			"name":"BRUSH.035",
			"primitives":[
				{
					"attributes":{
						"POSITION":29,
						"NORMAL":30,
						"TEXCOORD_0":31
					},
					"indices":32,
					"material":0
				}
			]
		},
		{
			"name":"BRUSH.037",
			"primitives":[
				{
					"attributes":{
						"POSITION":33,
						"NORMAL":34,
						"TEXCOORD_0":35
					},
					"indices":36,
					"material":0
				}
			]
		},
		{
			"name":"BRUSH.052",
			"primitives":[
				{
					"attributes":{
						"POSITION":37,
						"NORMAL":38,
						"TEXCOORD_0":39
					},
					"indices":40,
					"material":0
				}
			]
		},
		{
			"name":"BRUSH.053",
			"primitives":[
				{
					"attributes":{
						"POSITION":41,
						"NORMAL":42,
						"TEXCOORD_0":43
					},
					"indices":44,
					"material":0
				}
			]
		},
		{
			"name":"BRUSH.054",
			"primitives":[
				{
					"attributes":{
						"POSITION":45,
						"NORMAL":46,
						"TEXCOORD_0":47
					},
					"indices":48,
					"material":0
				}
			]
		},
		{
			"name":"Cube.006",
			"primitives":[
				{
					"attributes":{
						"POSITION":49,
						"NORMAL":50,
						"TEXCOORD_0":51
					},
					"indices":52,
					"material":1
				}
			]
		},
		{
			"name":"Cube.018",
			"primitives":[
				{
					"attributes":{
						"POSITION":53,
						"NORMAL":54,
						"TEXCOORD_0":55
					},
					"indices":56,
					"material":2
				}
			]
		},
		{
			"name":"Cylinder.002",
			"primitives":[
				{
					"attributes":{
						"POSITION":57,
						"NORMAL":58,
						"TEXCOORD_0":59
					},
					"indices":60,
					"material":2
				}
			]
		}
	],
	"textures":[
		{
			"sampler":0,
			"source":0
		}
	],
	"images":[
		{
			"mimeType":"image/png",
			"name":"floor_diffuse.png",
			"uri":"../../../../DungeonGame/res/texture/materials/floor_diffuse.png"
		}
	],
	"accessors":[
		{
			"bufferView":0,
			"componentType":5126,
			"count":24,
			"max":[
				5,
				0.15000000596046448,
				-9
			],
			"min":[
				3,
				-1,
				-11
			],
			"type":"VEC3"
		},
		{
			"bufferView":1,
			"componentType":5126,
			"count":24,
			"type":"VEC3"
		},
		{
			"bufferView":2,
			"componentType":5126,
			"count":24,
			"type":"VEC2"
		},
		{
			"bufferView":3,
			"componentType":5123,
			"count":36,
			"type":"SCALAR"
		},
		{
			"bufferView":4,
			"componentType":5126,
			"count":24,
			"max":[
				5,
				0.699999988079071,
				-9
			],
			"min":[
				3,
				-1,
				-11
			],
			"type":"VEC3"
		},
		{
			"bufferView":5,
			"componentType":5126,
			"count":24,
			"type":"VEC3"
		},
		{
			"bufferView":6,
			"componentType":5126,
			"count":24,
			"type":"VEC2"
		},
		{
			"bufferView":7,
			"componentType":5126,
			"count":24,
			"max":[
				5,
				1.059999942779541,
				-9
			],
			"min":[
				3,
				-1,
				-11
			],
			"type":"VEC3"
		},
		{
			"bufferView":8,
			"componentType":5126,
			"count":24,
			"type":"VEC3"
		},
		{
			"bufferView":9,
			"componentType":5126,
			"count":24,
			"type":"VEC2"
		},
		{
			"bufferView":10,
			"componentType":5126,
			"count":48,
			"max":[
				5,
				4.039999961853027,
				-8
			],
			"min":[
				3,
				-1,
				-11
			],
			"type":"VEC3"
		},
		{
			"bufferView":11,
			"componentType":5126,
			"count":48,
			"type":"VEC3"
		},
		{
			"bufferView":12,
			"componentType":5126,
			"count":48,
			"type":"VEC2"
		},
		{
			"bufferView":13,
			"componentType":5123,
			"count":72,
			"type":"SCALAR"
		},
		{
			"bufferView":14,
			"componentType":5126,
			"count":72,
			"max":[
				13,
				2,
				5
			],
			"min":[
				1,
				-1,
				-1
			],
			"type":"VEC3"
		},
		{
			"bufferView":15,
			"componentType":5126,
			"count":72,
			"type":"VEC3"
		},
		{
			"bufferView":16,
			"componentType":5126,
			"count":72,
			"type":"VEC2"
		},
		{
			"bufferView":17,
			"componentType":5123,
			"count":120,
			"type":"SCALAR"
		},
		{
			"bufferView":18,
			"componentType":5126,
			"count":34,
			"max":[
				5,
				2,
				-9
			],
			"min":[
				1,
				-1,
				-11
			],
			"type":"VEC3"
		},
		{
			"bufferView":19,
			"componentType":5126,
			"count":34,
			"type":"VEC3"
		},
		{
			"bufferView":20,
			"componentType":5126,
			"count":34,
			"type":"VEC2"
		},
		{
			"bufferView":21,
			"componentType":5123,
			"count":60,
			"type":"SCALAR"
		},
		{
			"bufferView":22,
			"componentType":5126,
			"count":34,
			"max":[
				5,
				2,
				-9
			],
			"min":[
				2,
				-1,
				-11
			],
			"type":"VEC3"
		},
		{
			"bufferView":23,
			"componentType":5126,
			"count":34,
			"type":"VEC3"
		},
		{
			"bufferView":24,
			"componentType":5126,
			"count":34,
			"type":"VEC2"
		},
		{
			"bufferView":25,
			"componentType":5126,
			"count":24,
			"max":[
				11,
				3,
				5
			],
			"min":[
				9,
				-1,
				3
			],
			"type":"VEC3"
		},
		{
			"bufferView":26,
			"componentType":5126,
			"count":24,
			"type":"VEC3"
		},
		{
			"bufferView":27,
			"componentType":5126,
			"count":24,
			"type":"VEC2"
		},
		{
			"bufferView":28,
			"componentType":5123,
			"count":36,
			"type":"SCALAR"
		},
		{
			"bufferView":29,
			"componentType":5126,
			"count":408,
			"max":[
				13.52400016784668,
				9.182999610900879,
				4.705999851226807
			],
			"min":[
				-5.47599983215332,
				-2.816999912261963,
				-22.29400062561035
			],
			"type":"VEC3"
		},
		{
			"bufferView":30,
			"componentType":5126,
			"count":408,
			"type":"VEC3"
		},
		{
			"bufferView":31,
			"componentType":5126,
			"count":408,
			"type":"VEC2"
		},
		{
			"bufferView":32,
			"componentType":5123,
			"count":948,
			"type":"SCALAR"
		},
		{
			"bufferView":33,
			"componentType":5126,
			"count":24,
			"max":[
				20,
				0,
				20
			],
			"min":[
				-20,
				-4,
				-20
			],
			"type":"VEC3"
		},
		{
			"bufferView":34,
			"componentType":5126,
			"count":24,
			"type":"VEC3"
		},
		{
			"bufferView":35,
			"componentType":5126,
			"count":24,
			"type":"VEC2"
		},
		{
			"bufferView":36,
			"componentType":5123,
			"count":36,
			"type":"SCALAR"
		},
		{
			"bufferView":37,
			"componentType":5126,
			"count":48,
			"max":[
				13,
				2,
				5
			],
			"min":[
				-1,
				0,
				3
			],
			"type":"VEC3"
		},
		{
			"bufferView":38,
			"componentType":5126,
			"count":48,
			"type":"VEC3"
		},
		{
			"bufferView":39,
			"componentType":5126,
			"count":48,
			"type":"VEC2"
		},
		{
			"bufferView":40,
			"componentType":5123,
			"count":72,
			"type":"SCALAR"
		},
		{
			"bufferView":41,
			"componentType":5126,
			"count":60,
			"max":[
				15,
				-1.5,
				13
			],
			"min":[
				5,
				-2.5,
				-5.959000110626221
			],
			"type":"VEC3"
		},
		{
			"bufferView":42,
			"componentType":5126,
			"count":60,
			"type":"VEC3"
		},
		{
			"bufferView":43,
			"componentType":5126,
			"count":60,
			"type":"VEC2"
		},
		{
			"bufferView":44,
			"componentType":5123,
			"count":108,
			"type":"SCALAR"
		},
		{
			"bufferView":45,
			"componentType":5126,
			"count":264,
			"max":[
				15,
				16,
				34
			],
			"min":[
				7,
				-1,
				1
			],
			"type":"VEC3"
		},
		{
			"bufferView":46,
			"componentType":5126,
			"count":264,
			"type":"VEC3"
		},
		{
			"bufferView":47,
			"componentType":5126,
			"count":264,
			"type":"VEC2"
		},
		{
			"bufferView":48,
			"componentType":5123,
			"count":396,
			"type":"SCALAR"
		},
		{
			"bufferView":49,
			"componentType":5126,
			"count":24,
			"max":[
				2.000000238418579,
				2.200000047683716,
				-10.499999046325684
			],
			"min":[
				-4,
				2,
				-11.500000953674316
			],
			"type":"VEC3"
		},
		{
			"bufferView":50,
			"componentType":5126,
			"count":24,
			"type":"VEC3"
		},
		{
			"bufferView":51,
			"componentType":5126,
			"count":24,
			"type":"VEC2"
		},
		{
			"bufferView":52,
			"componentType":5123,
			"count":36,
			"type":"SCALAR"
		},
		{
			"bufferView":53,
			"componentType":5126,
			"count":56,
			"max":[
				0.2805524468421936,
				4.086946964263916,
				0.7625879049301147
			],
			"min":[
				-0.10000002384185791,
				0,
				-1.0441703796386719
			],
			"type":"VEC3"
		},
		{
			"bufferView":54,
			"componentType":5126,
			"count":56,
			"type":"VEC3"
		},
		{
			"bufferView":55,
			"componentType":5126,
			"count":56,
			"type":"VEC2"
		},
		{
			"bufferView":56,
			"componentType":5123,
			"count":84,
			"type":"SCALAR"
		},
		{
			"bufferView":57,
			"componentType":5126,
			"count":5600,
			"max":[
				1.75,
				4.479799270629883,
				18.311336517333984
			],
			"min":[
				-1.75,
				-1.95430588722229,
				-17.109233856201172
			],
			"type":"VEC3"
		},
		{
			"bufferView":58,
			"componentType":5126,
			"count":5600,
			"type":"VEC3"
		},
		{
			"bufferView":59,
			"componentType":5126,
			"count":5600,
			"type":"VEC2"
		},
		{
			"bufferView":60,
			"componentType":5123,
			"count":16344,
			"type":"SCALAR"
		}
	],
	"bufferViews":[
		{
			"buffer":0,
			"byteLength":288,
			"byteOffset":0,
			"target":34962
		},
		{
			"buffer":0,
			"byteLength":288,
			"byteOffset":288,
			"target":34962
		},
		{
			"buffer":0,
			"byteLength":192,
			"byteOffset":576,
			"target":34962
		},
		{
			"buffer":0,
			"byteLength":72,
			"byteOffset":768,
			"target":34963
		},
		{
			"buffer":0,
			"byteLength":288,
			"byteOffset":840,
			"target":34962
		},
		{
			"buffer":0,
			"byteLength":288,
			"byteOffset":1128,
			"target":34962
		},
		{
			"buffer":0,
			"byteLength":192,
			"byteOffset":1416,
			"target":34962
		},
		{
			"buffer":0,
			"byteLength":288,
			"byteOffset":1608,
			"target":34962
		},
		{
			"buffer":0,
			"byteLength":288,
			"byteOffset":1896,
			"target":34962
		},
		{
			"buffer":0,
			"byteLength":192,
			"byteOffset":2184,
			"target":34962
		},
		{
			"buffer":0,
			"byteLength":576,
			"byteOffset":2376,
			"target":34962
		},
		{
			"buffer":0,
			"byteLength":576,
			"byteOffset":2952,
			"target":34962
		},
		{
			"buffer":0,
			"byteLength":384,
			"byteOffset":3528,
			"target":34962
		},
		{
			"buffer":0,
			"byteLength":144,
			"byteOffset":3912,
			"target":34963
		},
		{
			"buffer":0,
			"byteLength":864,
			"byteOffset":4056,
			"target":34962
		},
		{
			"buffer":0,
			"byteLength":864,
			"byteOffset":4920,
			"target":34962
		},
		{
			"buffer":0,
			"byteLength":576,
			"byteOffset":5784,
			"target":34962
		},
		{
			"buffer":0,
			"byteLength":240,
			"byteOffset":6360,
			"target":34963
		},
		{
			"buffer":0,
			"byteLength":408,
			"byteOffset":6600,
			"target":34962
		},
		{
			"buffer":0,
			"byteLength":408,
			"byteOffset":7008,
			"target":34962
		},
		{
			"buffer":0,
			"byteLength":272,
			"byteOffset":7416,
			"target":34962
		},
		{
			"buffer":0,
			"byteLength":120,
			"byteOffset":7688,
			"target":34963
		},
		{
			"buffer":0,
			"byteLength":408,
			"byteOffset":7808,
			"target":34962
		},
		{
			"buffer":0,
			"byteLength":408,
			"byteOffset":8216,
			"target":34962
		},
		{
			"buffer":0,
			"byteLength":272,
			"byteOffset":8624,
			"target":34962
		},
		{
			"buffer":0,
			"byteLength":288,
			"byteOffset":8896,
			"target":34962
		},
		{
			"buffer":0,
			"byteLength":288,
			"byteOffset":9184,
			"target":34962
		},
		{
			"buffer":0,
			"byteLength":192,
			"byteOffset":9472,
			"target":34962
		},
		{
			"buffer":0,
			"byteLength":72,
			"byteOffset":9664,
			"target":34963
		},
		{
			"buffer":0,
			"byteLength":4896,
			"byteOffset":9736,
			"target":34962
		},
		{
			"buffer":0,
			"byteLength":4896,
			"byteOffset":14632,
			"target":34962
		},
		{
			"buffer":0,
			"byteLength":3264,
			"byteOffset":19528,
			"target":34962
		},
		{
			"buffer":0,
			"byteLength":1896,
			"byteOffset":22792,
			"target":34963
		},
		{
			"buffer":0,
			"byteLength":288,
			"byteOffset":24688,
			"target":34962
		},
		{
			"buffer":0,
			"byteLength":288,
			"byteOffset":24976,
			"target":34962
		},
		{
			"buffer":0,
			"byteLength":192,
			"byteOffset":25264,
			"target":34962
		},
		{
			"buffer":0,
			"byteLength":72,
			"byteOffset":25456,
			"target":34963
		},
		{
			"buffer":0,
			"byteLength":576,
			"byteOffset":25528,
			"target":34962
		},
		{
			"buffer":0,
			"byteLength":576,
			"byteOffset":26104,
			"target":34962
		},
		{
			"buffer":0,
			"byteLength":384,
			"byteOffset":26680,
			"target":34962
		},
		{
			"buffer":0,
			"byteLength":144,
			"byteOffset":27064,
			"target":34963
		},
		{
			"buffer":0,
			"byteLength":720,
			"byteOffset":27208,
			"target":34962
		},
		{
			"buffer":0,
			"byteLength":720,
			"byteOffset":27928,
			"target":34962
		},
		{
			"buffer":0,
			"byteLength":480,
			"byteOffset":28648,
			"target":34962
		},
		{
			"buffer":0,
			"byteLength":216,
			"byteOffset":29128,
			"target":34963
		},
		{
			"buffer":0,
			"byteLength":3168,
			"byteOffset":29344,
			"target":34962
		},
		{
			"buffer":0,
			"byteLength":3168,
			"byteOffset":32512,
			"target":34962
		},
		{
			"buffer":0,
			"byteLength":2112,
			"byteOffset":35680,
			"target":34962
		},
		{
			"buffer":0,
			"byteLength":792,
			"byteOffset":37792,
			"target":34963
		},
		{
			"buffer":0,
			"byteLength":288,
			"byteOffset":38584,
			"target":34962
		},
		{
			"buffer":0,
			"byteLength":288,
			"byteOffset":38872,
			"target":34962
		},
		{
			"buffer":0,
			"byteLength":192,
			"byteOffset":39160,
			"target":34962
		},
		{
			"buffer":0,
			"byteLength":72,
			"byteOffset":39352,
			"target":34963
		},
		{
			"buffer":0,
			"byteLength":672,
			"byteOffset":39424,
			"target":34962
		},
		{
			"buffer":0,
			"byteLength":672,
			"byteOffset":40096,
			"target":34962
		},
		{
			"buffer":0,
			"byteLength":448,
			"byteOffset":40768,
			"target":34962
		},
		{
			"buffer":0,
			"byteLength":168,
			"byteOffset":41216,
			"target":34963
		},
		{
			"buffer":0,
			"byteLength":67200,
			"byteOffset":41384,
			"target":34962
		},
		{
			"buffer":0,
			"byteLength":67200,
			"byteOffset":108584,
			"target":34962
		},
		{
			"buffer":0,
			"byteLength":44800,
			"byteOffset":175784,
			"target":34962
		},
		{
			"buffer":0,
			"byteLength":32688,
			"byteOffset":220584,
			"target":34963
		}
	],
	"samplers":[
		{
			"magFilter":9729,
			"minFilter":9987
		}
	],
	"buffers":[
		{
			"byteLength":253272,
			"uri":"testmap2.bin"
		}
	]
}
