{
	"asset":{
		"generator":"Khronos glTF Blender I/O v3.6.27",
		"version":"2.0"
	},
	"scene":0,
	"scenes":[
		{
			"name":"Scene",
			"nodes":[
				0
			]
		}
	],
	"nodes":[
		{
			"mesh":0,
			"name":"Cylinder"
		}
	],
	"materials":[
		{
			"doubleSided":true,
			"name":"Material",
			"pbrMetallicRoughness":{
				"baseColorFactor":[
					0.09083806723356247,
					0.06778466701507568,
					0.0634995624423027,
					1
				],
				"roughnessFactor":0.7640449404716492
			}
		}
	],
	"meshes":[
		{
			"name":"Cylinder",
			"primitives":[
				{
					"attributes":{
						"POSITION":0,
						"NORMAL":1,
						"TEXCOORD_0":2
					},
					"indices":3,
					"material":0
				}
			]
		}
	],
	"accessors":[
		{
			"bufferView":0,
			"componentType":5126,
			"count":264,
			"max":[
				0.33000001311302185,
				1,
				0.1300000250339508
			],
			"min":[
				-0.32999998331069946,
				-4.470348358154297e-08,
				0.06999999284744263
			],
			"type":"VEC3"
		},
		{
			"bufferView":1,
			"componentType":5126,
			"count":264,
			"type":"VEC3"
		},
		{
			"bufferView":2,
			"componentType":5126,
			"count":264,
			"type":"VEC2"
		},
		{
			"bufferView":3,
			"componentType":5123,
			"count":768,
			"type":"SCALAR"
		}
	],
	"bufferViews":[
		{
			"buffer":0,
			"byteLength":3168,
			"byteOffset":0,
			"target":34962
		},
		{
			"buffer":0,
			"byteLength":3168,
			"byteOffset":3168,
			"target":34962
		},
		{
			"buffer":0,
			"byteLength":2112,
			"byteOffset":6336,
			"target":34962
		},
		{
			"buffer":0,
			"byteLength":1536,
			"byteOffset":8448,
			"target":34963
		}
	],
	"buffers":[
		{
			"byteLength":9984,
			"uri":"ladder.bin"
		}
	]
}
