{
	"asset":{
		"generator":"Khronos glTF Blender I/O v3.6.27",
		"version":"2.0"
	},
	"scene":0,
	"scenes":[
		{
			"name":"Scene",
			"nodes":[
				0,
				1,
				2
			]
		}
	],
	"nodes":[
		{
			"mesh":0,
			"name":"Room"
		},
		{
			"mesh":1,
			"name":"ShadowOccluder"
		},
		{
			"mesh":2,
			"name":"Stairs"
		}
	],
	"materials":[
		{
			"name":"Material.001",
			"pbrMetallicRoughness":{
				"baseColorFactor":[
					0.3219267427921295,
					0.26776567101478577,
					0.21631206572055817,
					1
				],
				"metallicFactor":0,
				"roughnessFactor":0.75
			}
		}
	],
	"meshes":[
		{
			"name":"Cube",
			"primitives":[
				{
					"attributes":{
						"POSITION":0,
						"NORMAL":1,
						"TEXCOORD_0":2
					},
					"indices":3,
					"material":0
				}
			]
		},
		{
			"name":"Cube.002",
			"primitives":[
				{
					"attributes":{
						"POSITION":4,
						"NORMAL":5,
						"TEXCOORD_0":6
					},
					"indices":7,
					"material":0
				}
			]
		},
		{
			"name":"Plane.001",
			"primitives":[
				{
					"attributes":{
						"POSITION":8,
						"NORMAL":9,
						"TEXCOORD_0":10
					},
					"indices":11,
					"material":0
				}
			]
		}
	],
	"accessors":[
		{
			"bufferView":0,
			"componentType":5126,
			"count":36,
			"max":[
				20,
				44.42107009887695,
				20
			],
			"min":[
				0,
				0,
				0
			],
			"type":"VEC3"
		},
		{
			"bufferView":1,
			"componentType":5126,
			"count":36,
			"type":"VEC3"
		},
		{
			"bufferView":2,
			"componentType":5126,
			"count":36,
			"type":"VEC2"
		},
		{
			"bufferView":3,
			"componentType":5123,
			"count":102,
			"type":"SCALAR"
		},
		{
			"bufferView":4,
			"componentType":5126,
			"count":16,
			"max":[
				2170.30224609375,
				52.07429504394531,
				2170.30224609375
			],
			"min":[
				-2150.30224609375,
				25.510635375976562,
				-2150.30224609375
			],
			"type":"VEC3"
		},
		{
			"bufferView":5,
			"componentType":5126,
			"count":16,
			"type":"VEC3"
		},
		{
			"bufferView":6,
			"componentType":5126,
			"count":16,
			"type":"VEC2"
		},
		{
			"bufferView":7,
			"componentType":5123,
			"count":24,
			"type":"SCALAR"
		},
		{
			"bufferView":8,
			"componentType":5126,
			"count":660,
			"max":[
				20.00116539001465,
				38.443538665771484,
				20
			],
			"min":[
				-0.10521793365478516,
				0,
				-9.5367431640625e-07
			],
			"type":"VEC3"
		},
		{
			"bufferView":9,
			"componentType":5126,
			"count":660,
			"type":"VEC3"
		},
		{
			"bufferView":10,
			"componentType":5126,
			"count":660,
			"type":"VEC2"
		},
		{
			"bufferView":11,
			"componentType":5123,
			"count":1224,
			"type":"SCALAR"
		}
	],
	"bufferViews":[
		{
			"buffer":0,
			"byteLength":432,
			"byteOffset":0,
			"target":34962
		},
		{
			"buffer":0,
			"byteLength":432,
			"byteOffset":432,
			"target":34962
		},
		{
			"buffer":0,
			"byteLength":288,
			"byteOffset":864,
			"target":34962
		},
		{
			"buffer":0,
			"byteLength":204,
			"byteOffset":1152,
			"target":34963
		},
		{
			"buffer":0,
			"byteLength":192,
			"byteOffset":1356,
			"target":34962
		},
		{
			"buffer":0,
			"byteLength":192,
			"byteOffset":1548,
			"target":34962
		},
		{
			"buffer":0,
			"byteLength":128,
			"byteOffset":1740,
			"target":34962
		},
		{
			"buffer":0,
			"byteLength":48,
			"byteOffset":1868,
			"target":34963
		},
		{
			"buffer":0,
			"byteLength":7920,
			"byteOffset":1916,
			"target":34962
		},
		{
			"buffer":0,
			"byteLength":7920,
			"byteOffset":9836,
			"target":34962
		},
		{
			"buffer":0,
			"byteLength":5280,
			"byteOffset":17756,
			"target":34962
		},
		{
			"buffer":0,
			"byteLength":2448,
			"byteOffset":23036,
			"target":34963
		}
	],
	"buffers":[
		{
			"byteLength":25484,
			"uri":"pillar_foundation.bin"
		}
	]
}
