{
	"asset":{
		"generator":"Khronos glTF Blender I/O v3.6.27",
		"version":"2.0"
	},
	"scene":0,
	"scenes":[
		{
			"name":"Scene",
			"nodes":[
				0,
				1
			]
		}
	],
	"nodes":[
		{
			"mesh":0,
			"name":"Room"
		},
		{
			"mesh":1,
			"name":"Plane"
		}
	],
	"materials":[
		{
			"name":"Material.001",
			"pbrMetallicRoughness":{
				"baseColorFactor":[
					0.800000011920929,
					0.800000011920929,
					0.800000011920929,
					1
				],
				"metallicFactor":0,
				"roughnessFactor":0.5
			}
		}
	],
	"meshes":[
		{
			"name":"Cube",
			"primitives":[
				{
					"attributes":{
						"POSITION":0,
						"NORMAL":1,
						"TEXCOORD_0":2
					},
					"indices":3,
					"material":0
				}
			]
		},
		{
			"name":"Plane",
			"primitives":[
				{
					"attributes":{
						"POSITION":4,
						"NORMAL":5,
						"TEXCOORD_0":6
					},
					"indices":7
				}
			]
		}
	],
	"accessors":[
		{
			"bufferView":0,
			"componentType":5126,
			"count":60,
			"max":[
				20.584745407104492,
				69.08027648925781,
				20.584745407104492
			],
			"min":[
				-20.584745407104492,
				0,
				-20.584745407104492
			],
			"type":"VEC3"
		},
		{
			"bufferView":1,
			"componentType":5126,
			"count":60,
			"type":"VEC3"
		},
		{
			"bufferView":2,
			"componentType":5126,
			"count":60,
			"type":"VEC2"
		},
		{
			"bufferView":3,
			"componentType":5123,
			"count":114,
			"type":"SCALAR"
		},
		{
			"bufferView":4,
			"componentType":5126,
			"count":18,
			"max":[
				20,
				18,
				20
			],
			"min":[
				-20,
				0,
				-20
			],
			"type":"VEC3"
		},
		{
			"bufferView":5,
			"componentType":5126,
			"count":18,
			"type":"VEC3"
		},
		{
			"bufferView":6,
			"componentType":5126,
			"count":18,
			"type":"VEC2"
		},
		{
			"bufferView":7,
			"componentType":5123,
			"count":30,
			"type":"SCALAR"
		}
	],
	"bufferViews":[
		{
			"buffer":0,
			"byteLength":720,
			"byteOffset":0,
			"target":34962
		},
		{
			"buffer":0,
			"byteLength":720,
			"byteOffset":720,
			"target":34962
		},
		{
			"buffer":0,
			"byteLength":480,
			"byteOffset":1440,
			"target":34962
		},
		{
			"buffer":0,
			"byteLength":228,
			"byteOffset":1920,
			"target":34963
		},
		{
			"buffer":0,
			"byteLength":216,
			"byteOffset":2148,
			"target":34962
		},
		{
			"buffer":0,
			"byteLength":216,
			"byteOffset":2364,
			"target":34962
		},
		{
			"buffer":0,
			"byteLength":144,
			"byteOffset":2580,
			"target":34962
		},
		{
			"buffer":0,
			"byteLength":60,
			"byteOffset":2724,
			"target":34963
		}
	],
	"buffers":[
		{
			"byteLength":2784,
			"uri":"pillar_foundation.bin"
		}
	]
}
