{
	"asset":{
		"generator":"Khronos glTF Blender I/O v3.6.27",
		"version":"2.0"
	},
	"scene":0,
	"scenes":[
		{
			"name":"Scene",
			"nodes":[
				0,
				1,
				2
			]
		}
	],
	"nodes":[
		{
			"mesh":0,
			"name":"Room"
		},
		{
			"mesh":1,
			"name":"ShadowOccluder"
		},
		{
			"mesh":2,
			"name":"Stairs"
		}
	],
	"materials":[
		{
			"name":"Material.001",
			"normalTexture":{
				"index":0
			},
			"pbrMetallicRoughness":{
				"baseColorTexture":{
					"index":1
				},
				"metallicFactor":0,
				"metallicRoughnessTexture":{
					"index":2
				}
			}
		}
	],
	"meshes":[
		{
			"name":"Cube",
			"primitives":[
				{
					"attributes":{
						"POSITION":0,
						"NORMAL":1,
						"TEXCOORD_0":2
					},
					"indices":3,
					"material":0
				}
			]
		},
		{
			"name":"Cube.002",
			"primitives":[
				{
					"attributes":{
						"POSITION":4,
						"NORMAL":5,
						"TEXCOORD_0":6
					},
					"indices":7,
					"material":0
				}
			]
		},
		{
			"name":"Plane.001",
			"primitives":[
				{
					"attributes":{
						"POSITION":8,
						"NORMAL":9,
						"TEXCOORD_0":10
					},
					"indices":11,
					"material":0
				}
			]
		}
	],
	"textures":[
		{
			"sampler":0,
			"source":0
		},
		{
			"sampler":0,
			"source":1
		},
		{
			"sampler":0,
			"source":2
		}
	],
	"images":[
		{
			"mimeType":"image/png",
			"name":"bricks_normal.png",
			"uri":"../../../texture/materials/bricks/bricks_normal.png"
		},
		{
			"mimeType":"image/png",
			"name":"bricks_diffuse.png",
			"uri":"../../../texture/materials/bricks/bricks_diffuse.png"
		},
		{
			"mimeType":"image/png",
			"name":"bricks_roughness.png",
			"uri":"../../../texture/materials/bricks/bricks_roughness.png"
		}
	],
	"accessors":[
		{
			"bufferView":0,
			"componentType":5126,
			"count":36,
			"max":[
				10,
				44.42107009887695,
				10
			],
			"min":[
				-10,
				0,
				-10
			],
			"type":"VEC3"
		},
		{
			"bufferView":1,
			"componentType":5126,
			"count":36,
			"type":"VEC3"
		},
		{
			"bufferView":2,
			"componentType":5126,
			"count":36,
			"type":"VEC2"
		},
		{
			"bufferView":3,
			"componentType":5123,
			"count":102,
			"type":"SCALAR"
		},
		{
			"bufferView":4,
			"componentType":5126,
			"count":16,
			"max":[
				1080.151123046875,
				44.42107009887695,
				1080.151123046875
			],
			"min":[
				-1080.151123046875,
				31.139240264892578,
				-1080.151123046875
			],
			"type":"VEC3"
		},
		{
			"bufferView":5,
			"componentType":5126,
			"count":16,
			"type":"VEC3"
		},
		{
			"bufferView":6,
			"componentType":5126,
			"count":16,
			"type":"VEC2"
		},
		{
			"bufferView":7,
			"componentType":5123,
			"count":24,
			"type":"SCALAR"
		},
		{
			"bufferView":8,
			"componentType":5126,
			"count":606,
			"max":[
				10.001165390014648,
				38.443538665771484,
				10
			],
			"min":[
				-10.105217933654785,
				0,
				-10.000000953674316
			],
			"type":"VEC3"
		},
		{
			"bufferView":9,
			"componentType":5126,
			"count":606,
			"type":"VEC3"
		},
		{
			"bufferView":10,
			"componentType":5126,
			"count":606,
			"type":"VEC2"
		},
		{
			"bufferView":11,
			"componentType":5123,
			"count":1128,
			"type":"SCALAR"
		}
	],
	"bufferViews":[
		{
			"buffer":0,
			"byteLength":432,
			"byteOffset":0,
			"target":34962
		},
		{
			"buffer":0,
			"byteLength":432,
			"byteOffset":432,
			"target":34962
		},
		{
			"buffer":0,
			"byteLength":288,
			"byteOffset":864,
			"target":34962
		},
		{
			"buffer":0,
			"byteLength":204,
			"byteOffset":1152,
			"target":34963
		},
		{
			"buffer":0,
			"byteLength":192,
			"byteOffset":1356,
			"target":34962
		},
		{
			"buffer":0,
			"byteLength":192,
			"byteOffset":1548,
			"target":34962
		},
		{
			"buffer":0,
			"byteLength":128,
			"byteOffset":1740,
			"target":34962
		},
		{
			"buffer":0,
			"byteLength":48,
			"byteOffset":1868,
			"target":34963
		},
		{
			"buffer":0,
			"byteLength":7272,
			"byteOffset":1916,
			"target":34962
		},
		{
			"buffer":0,
			"byteLength":7272,
			"byteOffset":9188,
			"target":34962
		},
		{
			"buffer":0,
			"byteLength":4848,
			"byteOffset":16460,
			"target":34962
		},
		{
			"buffer":0,
			"byteLength":2256,
			"byteOffset":21308,
			"target":34963
		}
	],
	"samplers":[
		{
			"magFilter":9729,
			"minFilter":9987
		}
	],
	"buffers":[
		{
			"byteLength":23564,
			"uri":"pillar_foundation.bin"
		}
	]
}
