{
	"asset":{
		"generator":"Khronos glTF Blender I/O v3.5.30",
		"version":"2.0"
	},
	"scene":0,
	"scenes":[
		{
			"name":"Scene",
			"nodes":[
				0,
				1,
				2,
				3,
				4
			]
		}
	],
	"nodes":[
		{
			"mesh":0,
			"name":"LevelGeometry"
		},
		{
			"mesh":1,
			"name":"Stairs"
		},
		{
			"name":"_tag_node_01",
			"rotation":[
				-0.7071068286895752,
				0,
				0,
				0.7071068286895752
			],
			"translation":[
				-8,
				0,
				-10
			]
		},
		{
			"name":"_tag_node_00",
			"rotation":[
				0,
				-0.7071068286895752,
				-0.7071068286895752,
				1.1520233300643667e-07
			],
			"translation":[
				0,
				0,
				13
			]
		},
		{
			"name":"_tag_node_02",
			"rotation":[
				-0.7071068286895752,
				0,
				0,
				0.7071068286895752
			],
			"translation":[
				12,
				3,
				0
			]
		}
	],
	"materials":[
		{
			"name":"Wall",
			"pbrMetallicRoughness":{
				"baseColorTexture":{
					"index":0
				},
				"metallicFactor":0,
				"roughnessFactor":0.5
			}
		},
		{
			"doubleSided":true,
			"name":"Material",
			"pbrMetallicRoughness":{
				"baseColorTexture":{
					"index":1
				},
				"metallicFactor":0,
				"roughnessFactor":0.5
			}
		}
	],
	"meshes":[
		{
			"name":"LevelGeometryMesh.001",
			"primitives":[
				{
					"attributes":{
						"POSITION":0,
						"TEXCOORD_0":1,
						"NORMAL":2
					},
					"indices":3,
					"material":0
				}
			]
		},
		{
			"name":"Cube.001",
			"primitives":[
				{
					"attributes":{
						"POSITION":4,
						"TEXCOORD_0":5,
						"NORMAL":6
					},
					"indices":7,
					"material":1
				}
			]
		}
	],
	"textures":[
		{
			"sampler":0,
			"source":0
		},
		{
			"sampler":0,
			"source":1
		}
	],
	"images":[
		{
			"mimeType":"image/png",
			"name":"floor_diffuse.png",
			"uri":"../../materials/floor_diffuse.png"
		},
		{
			"mimeType":"image/png",
			"name":"stairs.png",
			"uri":"../../../entity/object/stairs/stairs.png"
		}
	],
	"accessors":[
		{
			"bufferView":0,
			"componentType":5126,
			"count":131,
			"max":[
				14,
				6,
				13
			],
			"min":[
				-10,
				0,
				-10
			],
			"type":"VEC3"
		},
		{
			"bufferView":1,
			"componentType":5126,
			"count":131,
			"type":"VEC2"
		},
		{
			"bufferView":2,
			"componentType":5126,
			"count":131,
			"type":"VEC3"
		},
		{
			"bufferView":3,
			"componentType":5123,
			"count":318,
			"type":"SCALAR"
		},
		{
			"bufferView":4,
			"componentType":5126,
			"count":243,
			"max":[
				14,
				3,
				5.997436046600342
			],
			"min":[
				10,
				0,
				-0.002563953399658203
			],
			"type":"VEC3"
		},
		{
			"bufferView":5,
			"componentType":5126,
			"count":243,
			"type":"VEC2"
		},
		{
			"bufferView":6,
			"componentType":5126,
			"count":243,
			"type":"VEC3"
		},
		{
			"bufferView":7,
			"componentType":5123,
			"count":405,
			"type":"SCALAR"
		}
	],
	"bufferViews":[
		{
			"buffer":0,
			"byteLength":1572,
			"byteOffset":0,
			"target":34962
		},
		{
			"buffer":0,
			"byteLength":1048,
			"byteOffset":1572,
			"target":34962
		},
		{
			"buffer":0,
			"byteLength":1572,
			"byteOffset":2620,
			"target":34962
		},
		{
			"buffer":0,
			"byteLength":636,
			"byteOffset":4192,
			"target":34963
		},
		{
			"buffer":0,
			"byteLength":2916,
			"byteOffset":4828,
			"target":34962
		},
		{
			"buffer":0,
			"byteLength":1944,
			"byteOffset":7744,
			"target":34962
		},
		{
			"buffer":0,
			"byteLength":2916,
			"byteOffset":9688,
			"target":34962
		},
		{
			"buffer":0,
			"byteLength":810,
			"byteOffset":12604,
			"target":34963
		}
	],
	"samplers":[
		{
			"magFilter":9729,
			"minFilter":9987
		}
	],
	"buffers":[
		{
			"byteLength":13416,
			"uri":"room2.bin"
		}
	]
}
