{
	"asset":{
		"generator":"Khronos glTF Blender I/O v3.6.27",
		"version":"2.0"
	},
	"scene":0,
	"scenes":[
		{
			"name":"Scene",
			"nodes":[
				0
			]
		}
	],
	"nodes":[
		{
			"mesh":0,
			"name":"Cylinder"
		}
	],
	"materials":[
		{
			"doubleSided":true,
			"name":"Material",
			"pbrMetallicRoughness":{
				"baseColorTexture":{
					"index":0
				},
				"metallicRoughnessTexture":{
					"index":1
				}
			}
		}
	],
	"meshes":[
		{
			"name":"Cylinder",
			"primitives":[
				{
					"attributes":{
						"POSITION":0,
						"NORMAL":1,
						"TEXCOORD_0":2
					},
					"indices":3,
					"material":0
				}
			]
		}
	],
	"textures":[
		{
			"sampler":0,
			"source":0
		},
		{
			"sampler":0,
			"source":1
		}
	],
	"images":[
		{
			"mimeType":"image/png",
			"name":"broken_sword_diffuse",
			"uri":"textures/broken_sword_diffuse.png"
		},
		{
			"mimeType":"image/png",
			"name":"broken_sword_occlusionRoughnessMetallic",
			"uri":"textures/broken_sword_occlusionRoughnessMetallic.png"
		}
	],
	"accessors":[
		{
			"bufferView":0,
			"componentType":5126,
			"count":525,
			"max":[
				0.09755958616733551,
				0.4822354316711426,
				0.016321292147040367
			],
			"min":[
				-0.09875714033842087,
				-0.1673317551612854,
				-0.017116328701376915
			],
			"type":"VEC3"
		},
		{
			"bufferView":1,
			"componentType":5126,
			"count":525,
			"type":"VEC3"
		},
		{
			"bufferView":2,
			"componentType":5126,
			"count":525,
			"type":"VEC2"
		},
		{
			"bufferView":3,
			"componentType":5123,
			"count":1968,
			"type":"SCALAR"
		}
	],
	"bufferViews":[
		{
			"buffer":0,
			"byteLength":6300,
			"byteOffset":0,
			"target":34962
		},
		{
			"buffer":0,
			"byteLength":6300,
			"byteOffset":6300,
			"target":34962
		},
		{
			"buffer":0,
			"byteLength":4200,
			"byteOffset":12600,
			"target":34962
		},
		{
			"buffer":0,
			"byteLength":3936,
			"byteOffset":16800,
			"target":34963
		}
	],
	"samplers":[
		{
			"magFilter":9729,
			"minFilter":9987
		}
	],
	"buffers":[
		{
			"byteLength":20736,
			"uri":"broken_sword.bin"
		}
	]
}
