{
	"asset":{
		"generator":"Khronos glTF Blender I/O v3.6.27",
		"version":"2.0"
	},
	"scene":0,
	"scenes":[
		{
			"name":"Scene",
			"nodes":[
				0,
				4
			]
		}
	],
	"nodes":[
		{
			"mesh":0,
			"name":"Cube.002"
		},
		{
			"name":"Chest_Lid",
			"rotation":[
				0.8839179873466492,
				-3.530598391421336e-08,
				-6.673395347434052e-08,
				0.4676419496536255
			],
			"scale":[
				1,
				1,
				1.0000001192092896
			],
			"translation":[
				0,
				0.6102343201637268,
				2.9802322387695312e-08
			]
		},
		{
			"children":[
				1
			],
			"name":"Chest_Body",
			"rotation":[
				-0.2943514883518219,
				0,
				0,
				0.955697238445282
			]
		},
		{
			"mesh":1,
			"name":"Cube.001",
			"skin":0
		},
		{
			"children":[
				3,
				2
			],
			"name":"Armature"
		}
	],
	"animations":[
		{
			"channels":[
				{
					"sampler":0,
					"target":{
						"node":2,
						"path":"translation"
					}
				},
				{
					"sampler":1,
					"target":{
						"node":2,
						"path":"rotation"
					}
				},
				{
					"sampler":2,
					"target":{
						"node":2,
						"path":"scale"
					}
				},
				{
					"sampler":3,
					"target":{
						"node":1,
						"path":"translation"
					}
				},
				{
					"sampler":4,
					"target":{
						"node":1,
						"path":"rotation"
					}
				},
				{
					"sampler":5,
					"target":{
						"node":1,
						"path":"scale"
					}
				}
			],
			"name":"close",
			"samplers":[
				{
					"input":11,
					"interpolation":"STEP",
					"output":12
				},
				{
					"input":11,
					"interpolation":"STEP",
					"output":13
				},
				{
					"input":11,
					"interpolation":"STEP",
					"output":14
				},
				{
					"input":11,
					"interpolation":"STEP",
					"output":15
				},
				{
					"input":16,
					"interpolation":"LINEAR",
					"output":17
				},
				{
					"input":11,
					"interpolation":"STEP",
					"output":18
				}
			]
		},
		{
			"channels":[
				{
					"sampler":0,
					"target":{
						"node":2,
						"path":"translation"
					}
				},
				{
					"sampler":1,
					"target":{
						"node":2,
						"path":"rotation"
					}
				},
				{
					"sampler":2,
					"target":{
						"node":2,
						"path":"scale"
					}
				},
				{
					"sampler":3,
					"target":{
						"node":1,
						"path":"translation"
					}
				},
				{
					"sampler":4,
					"target":{
						"node":1,
						"path":"rotation"
					}
				},
				{
					"sampler":5,
					"target":{
						"node":1,
						"path":"scale"
					}
				}
			],
			"name":"default",
			"samplers":[
				{
					"input":19,
					"interpolation":"LINEAR",
					"output":20
				},
				{
					"input":19,
					"interpolation":"LINEAR",
					"output":21
				},
				{
					"input":19,
					"interpolation":"STEP",
					"output":22
				},
				{
					"input":19,
					"interpolation":"LINEAR",
					"output":23
				},
				{
					"input":19,
					"interpolation":"LINEAR",
					"output":24
				},
				{
					"input":19,
					"interpolation":"STEP",
					"output":25
				}
			]
		},
		{
			"channels":[
				{
					"sampler":0,
					"target":{
						"node":2,
						"path":"translation"
					}
				},
				{
					"sampler":1,
					"target":{
						"node":2,
						"path":"rotation"
					}
				},
				{
					"sampler":2,
					"target":{
						"node":2,
						"path":"scale"
					}
				},
				{
					"sampler":3,
					"target":{
						"node":1,
						"path":"translation"
					}
				},
				{
					"sampler":4,
					"target":{
						"node":1,
						"path":"rotation"
					}
				},
				{
					"sampler":5,
					"target":{
						"node":1,
						"path":"scale"
					}
				}
			],
			"name":"open",
			"samplers":[
				{
					"input":26,
					"interpolation":"STEP",
					"output":27
				},
				{
					"input":26,
					"interpolation":"STEP",
					"output":28
				},
				{
					"input":26,
					"interpolation":"STEP",
					"output":29
				},
				{
					"input":26,
					"interpolation":"STEP",
					"output":30
				},
				{
					"input":31,
					"interpolation":"LINEAR",
					"output":32
				},
				{
					"input":26,
					"interpolation":"STEP",
					"output":33
				}
			]
		},
		{
			"channels":[
				{
					"sampler":0,
					"target":{
						"node":2,
						"path":"translation"
					}
				},
				{
					"sampler":1,
					"target":{
						"node":2,
						"path":"rotation"
					}
				},
				{
					"sampler":2,
					"target":{
						"node":2,
						"path":"scale"
					}
				},
				{
					"sampler":3,
					"target":{
						"node":1,
						"path":"translation"
					}
				},
				{
					"sampler":4,
					"target":{
						"node":1,
						"path":"rotation"
					}
				},
				{
					"sampler":5,
					"target":{
						"node":1,
						"path":"scale"
					}
				}
			],
			"name":"open.001",
			"samplers":[
				{
					"input":34,
					"interpolation":"STEP",
					"output":35
				},
				{
					"input":34,
					"interpolation":"STEP",
					"output":36
				},
				{
					"input":34,
					"interpolation":"STEP",
					"output":37
				},
				{
					"input":34,
					"interpolation":"STEP",
					"output":38
				},
				{
					"input":39,
					"interpolation":"LINEAR",
					"output":40
				},
				{
					"input":34,
					"interpolation":"STEP",
					"output":41
				}
			]
		}
	],
	"materials":[
		{
			"doubleSided":true,
			"name":"Material.002",
			"normalTexture":{
				"index":0
			},
			"pbrMetallicRoughness":{
				"baseColorTexture":{
					"index":1
				},
				"metallicRoughnessTexture":{
					"index":2
				}
			}
		}
	],
	"meshes":[
		{
			"name":"Cube.002",
			"primitives":[
				{
					"attributes":{
						"POSITION":0,
						"NORMAL":1,
						"TEXCOORD_0":2
					},
					"indices":3,
					"material":0
				}
			]
		},
		{
			"name":"Cube.001",
			"primitives":[
				{
					"attributes":{
						"POSITION":4,
						"NORMAL":5,
						"TEXCOORD_0":6,
						"JOINTS_0":7,
						"WEIGHTS_0":8
					},
					"indices":9,
					"material":0
				}
			]
		}
	],
	"textures":[
		{
			"sampler":0,
			"source":0
		},
		{
			"sampler":0,
			"source":1
		},
		{
			"sampler":0,
			"source":2
		}
	],
	"images":[
		{
			"mimeType":"image/png",
			"name":"Material.002_normal.png",
			"uri":"textures/Material.002_normal.png"
		},
		{
			"mimeType":"image/png",
			"name":"Material.002_baseColor.png",
			"uri":"textures/Material.002_baseColor.png"
		},
		{
			"mimeType":"image/png",
			"name":"Material.002_occlusionRoughnessMetallic.png",
			"uri":"textures/Material.002_occlusionRoughnessMetallic.png"
		}
	],
	"skins":[
		{
			"inverseBindMatrices":10,
			"joints":[
				2,
				1
			],
			"name":"Armature"
		}
	],
	"accessors":[
		{
			"bufferView":0,
			"componentType":5126,
			"count":48,
			"max":[
				0.007983336225152016,
				0.304410845041275,
				0.38170063495635986
			],
			"min":[
				-0.007983336225152016,
				0.2762995958328247,
				0.3656327724456787
			],
			"type":"VEC3"
		},
		{
			"bufferView":1,
			"componentType":5126,
			"count":48,
			"type":"VEC3"
		},
		{
			"bufferView":2,
			"componentType":5126,
			"count":48,
			"type":"VEC2"
		},
		{
			"bufferView":3,
			"componentType":5123,
			"count":84,
			"type":"SCALAR"
		},
		{
			"bufferView":4,
			"componentType":5126,
			"count":2528,
			"max":[
				0.5509904623031616,
				0.7947756052017212,
				0.3898920714855194
			],
			"min":[
				-0.5509951114654541,
				-0.0023318252060562372,
				-0.3601740896701813
			],
			"type":"VEC3"
		},
		{
			"bufferView":5,
			"componentType":5126,
			"count":2528,
			"type":"VEC3"
		},
		{
			"bufferView":6,
			"componentType":5126,
			"count":2528,
			"type":"VEC2"
		},
		{
			"bufferView":7,
			"componentType":5121,
			"count":2528,
			"type":"VEC4"
		},
		{
			"bufferView":8,
			"componentType":5126,
			"count":2528,
			"type":"VEC4"
		},
		{
			"bufferView":9,
			"componentType":5123,
			"count":6579,
			"type":"SCALAR"
		},
		{
			"bufferView":10,
			"componentType":5126,
			"count":2,
			"type":"MAT4"
		},
		{
			"bufferView":11,
			"componentType":5126,
			"count":2,
			"max":[
				0.4583333333333333
			],
			"min":[
				0
			],
			"type":"SCALAR"
		},
		{
			"bufferView":12,
			"componentType":5126,
			"count":2,
			"type":"VEC3"
		},
		{
			"bufferView":13,
			"componentType":5126,
			"count":2,
			"type":"VEC4"
		},
		{
			"bufferView":14,
			"componentType":5126,
			"count":2,
			"type":"VEC3"
		},
		{
			"bufferView":15,
			"componentType":5126,
			"count":2,
			"type":"VEC3"
		},
		{
			"bufferView":16,
			"componentType":5126,
			"count":12,
			"max":[
				0.4583333333333333
			],
			"min":[
				0
			],
			"type":"SCALAR"
		},
		{
			"bufferView":17,
			"componentType":5126,
			"count":12,
			"type":"VEC4"
		},
		{
			"bufferView":18,
			"componentType":5126,
			"count":2,
			"type":"VEC3"
		},
		{
			"bufferView":19,
			"componentType":5126,
			"count":1,
			"max":[
				0.041666666666666664
			],
			"min":[
				0.041666666666666664
			],
			"type":"SCALAR"
		},
		{
			"bufferView":20,
			"componentType":5126,
			"count":1,
			"type":"VEC3"
		},
		{
			"bufferView":21,
			"componentType":5126,
			"count":1,
			"type":"VEC4"
		},
		{
			"bufferView":22,
			"componentType":5126,
			"count":1,
			"type":"VEC3"
		},
		{
			"bufferView":23,
			"componentType":5126,
			"count":1,
			"type":"VEC3"
		},
		{
			"bufferView":24,
			"componentType":5126,
			"count":1,
			"type":"VEC4"
		},
		{
			"bufferView":25,
			"componentType":5126,
			"count":1,
			"type":"VEC3"
		},
		{
			"bufferView":26,
			"componentType":5126,
			"count":2,
			"max":[
				1.3333333333333333
			],
			"min":[
				0
			],
			"type":"SCALAR"
		},
		{
			"bufferView":27,
			"componentType":5126,
			"count":2,
			"type":"VEC3"
		},
		{
			"bufferView":28,
			"componentType":5126,
			"count":2,
			"type":"VEC4"
		},
		{
			"bufferView":29,
			"componentType":5126,
			"count":2,
			"type":"VEC3"
		},
		{
			"bufferView":30,
			"componentType":5126,
			"count":2,
			"type":"VEC3"
		},
		{
			"bufferView":31,
			"componentType":5126,
			"count":33,
			"max":[
				1.3333333333333333
			],
			"min":[
				0
			],
			"type":"SCALAR"
		},
		{
			"bufferView":32,
			"componentType":5126,
			"count":33,
			"type":"VEC4"
		},
		{
			"bufferView":33,
			"componentType":5126,
			"count":2,
			"type":"VEC3"
		},
		{
			"bufferView":34,
			"componentType":5126,
			"count":2,
			"max":[
				2.125
			],
			"min":[
				0
			],
			"type":"SCALAR"
		},
		{
			"bufferView":35,
			"componentType":5126,
			"count":2,
			"type":"VEC3"
		},
		{
			"bufferView":36,
			"componentType":5126,
			"count":2,
			"type":"VEC4"
		},
		{
			"bufferView":37,
			"componentType":5126,
			"count":2,
			"type":"VEC3"
		},
		{
			"bufferView":38,
			"componentType":5126,
			"count":2,
			"type":"VEC3"
		},
		{
			"bufferView":39,
			"componentType":5126,
			"count":52,
			"max":[
				2.125
			],
			"min":[
				0
			],
			"type":"SCALAR"
		},
		{
			"bufferView":40,
			"componentType":5126,
			"count":52,
			"type":"VEC4"
		},
		{
			"bufferView":41,
			"componentType":5126,
			"count":2,
			"type":"VEC3"
		}
	],
	"bufferViews":[
		{
			"buffer":0,
			"byteLength":576,
			"byteOffset":0,
			"target":34962
		},
		{
			"buffer":0,
			"byteLength":576,
			"byteOffset":576,
			"target":34962
		},
		{
			"buffer":0,
			"byteLength":384,
			"byteOffset":1152,
			"target":34962
		},
		{
			"buffer":0,
			"byteLength":168,
			"byteOffset":1536,
			"target":34963
		},
		{
			"buffer":0,
			"byteLength":30336,
			"byteOffset":1704,
			"target":34962
		},
		{
			"buffer":0,
			"byteLength":30336,
			"byteOffset":32040,
			"target":34962
		},
		{
			"buffer":0,
			"byteLength":20224,
			"byteOffset":62376,
			"target":34962
		},
		{
			"buffer":0,
			"byteLength":10112,
			"byteOffset":82600,
			"target":34962
		},
		{
			"buffer":0,
			"byteLength":40448,
			"byteOffset":92712,
			"target":34962
		},
		{
			"buffer":0,
			"byteLength":13158,
			"byteOffset":133160,
			"target":34963
		},
		{
			"buffer":0,
			"byteLength":128,
			"byteOffset":146320
		},
		{
			"buffer":0,
			"byteLength":8,
			"byteOffset":146448
		},
		{
			"buffer":0,
			"byteLength":24,
			"byteOffset":146456
		},
		{
			"buffer":0,
			"byteLength":32,
			"byteOffset":146480
		},
		{
			"buffer":0,
			"byteLength":24,
			"byteOffset":146512
		},
		{
			"buffer":0,
			"byteLength":24,
			"byteOffset":146536
		},
		{
			"buffer":0,
			"byteLength":48,
			"byteOffset":146560
		},
		{
			"buffer":0,
			"byteLength":192,
			"byteOffset":146608
		},
		{
			"buffer":0,
			"byteLength":24,
			"byteOffset":146800
		},
		{
			"buffer":0,
			"byteLength":4,
			"byteOffset":146824
		},
		{
			"buffer":0,
			"byteLength":12,
			"byteOffset":146828
		},
		{
			"buffer":0,
			"byteLength":16,
			"byteOffset":146840
		},
		{
			"buffer":0,
			"byteLength":12,
			"byteOffset":146856
		},
		{
			"buffer":0,
			"byteLength":12,
			"byteOffset":146868
		},
		{
			"buffer":0,
			"byteLength":16,
			"byteOffset":146880
		},
		{
			"buffer":0,
			"byteLength":12,
			"byteOffset":146896
		},
		{
			"buffer":0,
			"byteLength":8,
			"byteOffset":146908
		},
		{
			"buffer":0,
			"byteLength":24,
			"byteOffset":146916
		},
		{
			"buffer":0,
			"byteLength":32,
			"byteOffset":146940
		},
		{
			"buffer":0,
			"byteLength":24,
			"byteOffset":146972
		},
		{
			"buffer":0,
			"byteLength":24,
			"byteOffset":146996
		},
		{
			"buffer":0,
			"byteLength":132,
			"byteOffset":147020
		},
		{
			"buffer":0,
			"byteLength":528,
			"byteOffset":147152
		},
		{
			"buffer":0,
			"byteLength":24,
			"byteOffset":147680
		},
		{
			"buffer":0,
			"byteLength":8,
			"byteOffset":147704
		},
		{
			"buffer":0,
			"byteLength":24,
			"byteOffset":147712
		},
		{
			"buffer":0,
			"byteLength":32,
			"byteOffset":147736
		},
		{
			"buffer":0,
			"byteLength":24,
			"byteOffset":147768
		},
		{
			"buffer":0,
			"byteLength":24,
			"byteOffset":147792
		},
		{
			"buffer":0,
			"byteLength":208,
			"byteOffset":147816
		},
		{
			"buffer":0,
			"byteLength":832,
			"byteOffset":148024
		},
		{
			"buffer":0,
			"byteLength":24,
			"byteOffset":148856
		}
	],
	"samplers":[
		{
			"magFilter":9729,
			"minFilter":9987
		}
	],
	"buffers":[
		{
			"byteLength":148880,
			"uri":"chest.bin"
		}
	]
}
