{
	"asset":{
		"generator":"Khronos glTF Blender I/O v3.6.27",
		"version":"2.0"
	},
	"scene":0,
	"scenes":[
		{
			"name":"Scene",
			"nodes":[
				0,
				1,
				2,
				3,
				4,
				5,
				6,
				7,
				8,
				9
			]
		}
	],
	"nodes":[
		{
			"mesh":0,
			"name":"Walls"
		},
		{
			"mesh":1,
			"name":"___DoorwayCover1"
		},
		{
			"mesh":2,
			"name":"___DoorwayCover0"
		},
		{
			"mesh":3,
			"name":"___DoorwayCover2"
		},
		{
			"mesh":4,
			"name":"Bars1"
		},
		{
			"mesh":5,
			"name":"Bars3"
		},
		{
			"mesh":6,
			"name":"Bars5"
		},
		{
			"mesh":7,
			"name":"Bars5.001",
			"rotation":[
				0,
				-1,
				0,
				1.6292068494294654e-07
			]
		},
		{
			"mesh":8,
			"name":"Bars5.002",
			"rotation":[
				0,
				-1,
				0,
				1.6292068494294654e-07
			]
		},
		{
			"mesh":9,
			"name":"Bars5.003",
			"rotation":[
				0,
				-1,
				0,
				1.6292068494294654e-07
			]
		}
	],
	"materials":[
		{
			"name":"Material",
			"pbrMetallicRoughness":{
				"baseColorTexture":{
					"index":0
				},
				"metallicRoughnessTexture":{
					"index":1
				}
			}
		}
	],
	"meshes":[
		{
			"name":"Plane.001",
			"primitives":[
				{
					"attributes":{
						"POSITION":0,
						"NORMAL":1,
						"TEXCOORD_0":2
					},
					"indices":3,
					"material":0
				}
			]
		},
		{
			"name":"Plane.003",
			"primitives":[
				{
					"attributes":{
						"POSITION":4,
						"NORMAL":5,
						"TEXCOORD_0":6
					},
					"indices":7,
					"material":0
				}
			]
		},
		{
			"name":"Plane.004",
			"primitives":[
				{
					"attributes":{
						"POSITION":8,
						"NORMAL":9,
						"TEXCOORD_0":10
					},
					"indices":7,
					"material":0
				}
			]
		},
		{
			"name":"Plane.005",
			"primitives":[
				{
					"attributes":{
						"POSITION":11,
						"NORMAL":12,
						"TEXCOORD_0":13
					},
					"indices":7,
					"material":0
				}
			]
		},
		{
			"name":"Cube.003",
			"primitives":[
				{
					"attributes":{
						"POSITION":14,
						"NORMAL":15,
						"TEXCOORD_0":16
					},
					"indices":17,
					"material":0
				}
			]
		},
		{
			"name":"Cube.005",
			"primitives":[
				{
					"attributes":{
						"POSITION":18,
						"NORMAL":19,
						"TEXCOORD_0":20
					},
					"indices":21,
					"material":0
				}
			]
		},
		{
			"name":"Cube.001",
			"primitives":[
				{
					"attributes":{
						"POSITION":22,
						"NORMAL":23,
						"TEXCOORD_0":24
					},
					"indices":21,
					"material":0
				}
			]
		},
		{
			"name":"Cube.013",
			"primitives":[
				{
					"attributes":{
						"POSITION":25,
						"NORMAL":26,
						"TEXCOORD_0":27
					},
					"indices":21,
					"material":0
				}
			]
		},
		{
			"name":"Cube.018",
			"primitives":[
				{
					"attributes":{
						"POSITION":28,
						"NORMAL":29,
						"TEXCOORD_0":30
					},
					"indices":21,
					"material":0
				}
			]
		},
		{
			"name":"Cube.019",
			"primitives":[
				{
					"attributes":{
						"POSITION":31,
						"NORMAL":32,
						"TEXCOORD_0":33
					},
					"indices":21,
					"material":0
				}
			]
		}
	],
	"textures":[
		{
			"sampler":0,
			"source":0
		},
		{
			"sampler":0,
			"source":1
		}
	],
	"images":[
		{
			"mimeType":"image/png",
			"name":"dungeon_cell_diffuse",
			"uri":"textures/dungeon_cell_diffuse.png"
		},
		{
			"mimeType":"image/png",
			"name":"dungeon_cell_occlusionRoughnessMetallic.png",
			"uri":"textures/dungeon_cell_occlusionRoughnessMetallic.png"
		}
	],
	"accessors":[
		{
			"bufferView":0,
			"componentType":5126,
			"count":653,
			"max":[
				17,
				4.000000476837158,
				17
			],
			"min":[
				0,
				0,
				0
			],
			"type":"VEC3"
		},
		{
			"bufferView":1,
			"componentType":5126,
			"count":653,
			"type":"VEC3"
		},
		{
			"bufferView":2,
			"componentType":5126,
			"count":653,
			"type":"VEC2"
		},
		{
			"bufferView":3,
			"componentType":5123,
			"count":1218,
			"type":"SCALAR"
		},
		{
			"bufferView":4,
			"componentType":5126,
			"count":4,
			"max":[
				9,
				3,
				17
			],
			"min":[
				6,
				0,
				17
			],
			"type":"VEC3"
		},
		{
			"bufferView":5,
			"componentType":5126,
			"count":4,
			"type":"VEC3"
		},
		{
			"bufferView":6,
			"componentType":5126,
			"count":4,
			"type":"VEC2"
		},
		{
			"bufferView":7,
			"componentType":5123,
			"count":6,
			"type":"SCALAR"
		},
		{
			"bufferView":8,
			"componentType":5126,
			"count":4,
			"max":[
				9,
				3,
				0
			],
			"min":[
				6,
				0,
				0
			],
			"type":"VEC3"
		},
		{
			"bufferView":9,
			"componentType":5126,
			"count":4,
			"type":"VEC3"
		},
		{
			"bufferView":10,
			"componentType":5126,
			"count":4,
			"type":"VEC2"
		},
		{
			"bufferView":11,
			"componentType":5126,
			"count":4,
			"max":[
				15,
				3,
				4
			],
			"min":[
				15,
				1.1920928955078125e-07,
				1
			],
			"type":"VEC3"
		},
		{
			"bufferView":12,
			"componentType":5126,
			"count":4,
			"type":"VEC3"
		},
		{
			"bufferView":13,
			"componentType":5126,
			"count":4,
			"type":"VEC2"
		},
		{
			"bufferView":14,
			"componentType":5126,
			"count":264,
			"max":[
				5.893802642822266,
				2.200000047683716,
				9.200002670288086
			],
			"min":[
				5.75,
				0,
				7.7999982833862305
			],
			"type":"VEC3"
		},
		{
			"bufferView":15,
			"componentType":5126,
			"count":264,
			"type":"VEC3"
		},
		{
			"bufferView":16,
			"componentType":5126,
			"count":264,
			"type":"VEC2"
		},
		{
			"bufferView":17,
			"componentType":5123,
			"count":432,
			"type":"SCALAR"
		},
		{
			"bufferView":18,
			"componentType":5126,
			"count":66,
			"max":[
				5.943802833557129,
				2.200000047683716,
				3.1947717666625977
			],
			"min":[
				5.743802547454834,
				0,
				1.794769287109375
			],
			"type":"VEC3"
		},
		{
			"bufferView":19,
			"componentType":5126,
			"count":66,
			"type":"VEC3"
		},
		{
			"bufferView":20,
			"componentType":5126,
			"count":66,
			"type":"VEC2"
		},
		{
			"bufferView":21,
			"componentType":5123,
			"count":138,
			"type":"SCALAR"
		},
		{
			"bufferView":22,
			"componentType":5126,
			"count":66,
			"max":[
				5.933969974517822,
				2.200000047683716,
				15.194771766662598
			],
			"min":[
				5.733969688415527,
				0,
				13.794769287109375
			],
			"type":"VEC3"
		},
		{
			"bufferView":23,
			"componentType":5126,
			"count":66,
			"type":"VEC3"
		},
		{
			"bufferView":24,
			"componentType":5126,
			"count":66,
			"type":"VEC2"
		},
		{
			"bufferView":25,
			"componentType":5126,
			"count":66,
			"max":[
				-9.099994659423828,
				2.200000047683716,
				-13.805231094360352
			],
			"min":[
				-9.299995422363281,
				0,
				-15.205233573913574
			],
			"type":"VEC3"
		},
		{
			"bufferView":26,
			"componentType":5126,
			"count":66,
			"type":"VEC3"
		},
		{
			"bufferView":27,
			"componentType":5126,
			"count":66,
			"type":"VEC2"
		},
		{
			"bufferView":28,
			"componentType":5126,
			"count":66,
			"max":[
				-9.099996566772461,
				2.200000047683716,
				-7.805231094360352
			],
			"min":[
				-9.299997329711914,
				0,
				-9.205233573913574
			],
			"type":"VEC3"
		},
		{
			"bufferView":29,
			"componentType":5126,
			"count":66,
			"type":"VEC3"
		},
		{
			"bufferView":30,
			"componentType":5126,
			"count":66,
			"type":"VEC2"
		},
		{
			"bufferView":31,
			"componentType":5126,
			"count":66,
			"max":[
				-9.099998474121094,
				2.200000047683716,
				-1.8052313327789307
			],
			"min":[
				-9.299999237060547,
				0,
				-3.2052338123321533
			],
			"type":"VEC3"
		},
		{
			"bufferView":32,
			"componentType":5126,
			"count":66,
			"type":"VEC3"
		},
		{
			"bufferView":33,
			"componentType":5126,
			"count":66,
			"type":"VEC2"
		}
	],
	"bufferViews":[
		{
			"buffer":0,
			"byteLength":7836,
			"byteOffset":0,
			"target":34962
		},
		{
			"buffer":0,
			"byteLength":7836,
			"byteOffset":7836,
			"target":34962
		},
		{
			"buffer":0,
			"byteLength":5224,
			"byteOffset":15672,
			"target":34962
		},
		{
			"buffer":0,
			"byteLength":2436,
			"byteOffset":20896,
			"target":34963
		},
		{
			"buffer":0,
			"byteLength":48,
			"byteOffset":23332,
			"target":34962
		},
		{
			"buffer":0,
			"byteLength":48,
			"byteOffset":23380,
			"target":34962
		},
		{
			"buffer":0,
			"byteLength":32,
			"byteOffset":23428,
			"target":34962
		},
		{
			"buffer":0,
			"byteLength":12,
			"byteOffset":23460,
			"target":34963
		},
		{
			"buffer":0,
			"byteLength":48,
			"byteOffset":23472,
			"target":34962
		},
		{
			"buffer":0,
			"byteLength":48,
			"byteOffset":23520,
			"target":34962
		},
		{
			"buffer":0,
			"byteLength":32,
			"byteOffset":23568,
			"target":34962
		},
		{
			"buffer":0,
			"byteLength":48,
			"byteOffset":23600,
			"target":34962
		},
		{
			"buffer":0,
			"byteLength":48,
			"byteOffset":23648,
			"target":34962
		},
		{
			"buffer":0,
			"byteLength":32,
			"byteOffset":23696,
			"target":34962
		},
		{
			"buffer":0,
			"byteLength":3168,
			"byteOffset":23728,
			"target":34962
		},
		{
			"buffer":0,
			"byteLength":3168,
			"byteOffset":26896,
			"target":34962
		},
		{
			"buffer":0,
			"byteLength":2112,
			"byteOffset":30064,
			"target":34962
		},
		{
			"buffer":0,
			"byteLength":864,
			"byteOffset":32176,
			"target":34963
		},
		{
			"buffer":0,
			"byteLength":792,
			"byteOffset":33040,
			"target":34962
		},
		{
			"buffer":0,
			"byteLength":792,
			"byteOffset":33832,
			"target":34962
		},
		{
			"buffer":0,
			"byteLength":528,
			"byteOffset":34624,
			"target":34962
		},
		{
			"buffer":0,
			"byteLength":276,
			"byteOffset":35152,
			"target":34963
		},
		{
			"buffer":0,
			"byteLength":792,
			"byteOffset":35428,
			"target":34962
		},
		{
			"buffer":0,
			"byteLength":792,
			"byteOffset":36220,
			"target":34962
		},
		{
			"buffer":0,
			"byteLength":528,
			"byteOffset":37012,
			"target":34962
		},
		{
			"buffer":0,
			"byteLength":792,
			"byteOffset":37540,
			"target":34962
		},
		{
			"buffer":0,
			"byteLength":792,
			"byteOffset":38332,
			"target":34962
		},
		{
			"buffer":0,
			"byteLength":528,
			"byteOffset":39124,
			"target":34962
		},
		{
			"buffer":0,
			"byteLength":792,
			"byteOffset":39652,
			"target":34962
		},
		{
			"buffer":0,
			"byteLength":792,
			"byteOffset":40444,
			"target":34962
		},
		{
			"buffer":0,
			"byteLength":528,
			"byteOffset":41236,
			"target":34962
		},
		{
			"buffer":0,
			"byteLength":792,
			"byteOffset":41764,
			"target":34962
		},
		{
			"buffer":0,
			"byteLength":792,
			"byteOffset":42556,
			"target":34962
		},
		{
			"buffer":0,
			"byteLength":528,
			"byteOffset":43348,
			"target":34962
		}
	],
	"samplers":[
		{
			"magFilter":9729,
			"minFilter":9987
		}
	],
	"buffers":[
		{
			"byteLength":43876,
			"uri":"prison.bin"
		}
	]
}
