{
	"asset":{
		"generator":"Khronos glTF Blender I/O v3.6.27",
		"version":"2.0"
	},
	"scene":0,
	"scenes":[
		{
			"name":"Scene",
			"nodes":[
				0,
				1
			]
		}
	],
	"nodes":[
		{
			"mesh":0,
			"name":"Cube"
		},
		{
			"mesh":1,
			"name":"__lever",
			"rotation":[
				0.7071068286895752,
				0,
				0,
				0.7071068286895752
			]
		}
	],
	"animations":[
		{
			"channels":[
				{
					"sampler":0,
					"target":{
						"node":1,
						"path":"translation"
					}
				},
				{
					"sampler":1,
					"target":{
						"node":1,
						"path":"rotation"
					}
				},
				{
					"sampler":2,
					"target":{
						"node":1,
						"path":"scale"
					}
				}
			],
			"name":"CylinderAction",
			"samplers":[
				{
					"input":8,
					"interpolation":"LINEAR",
					"output":9
				},
				{
					"input":8,
					"interpolation":"LINEAR",
					"output":10
				},
				{
					"input":8,
					"interpolation":"LINEAR",
					"output":11
				}
			]
		}
	],
	"meshes":[
		{
			"name":"Cube",
			"primitives":[
				{
					"attributes":{
						"POSITION":0,
						"NORMAL":1,
						"TEXCOORD_0":2
					},
					"indices":3
				}
			]
		},
		{
			"name":"Cylinder",
			"primitives":[
				{
					"attributes":{
						"POSITION":4,
						"NORMAL":5,
						"TEXCOORD_0":6
					},
					"indices":7
				}
			]
		}
	],
	"accessors":[
		{
			"bufferView":0,
			"componentType":5126,
			"count":112,
			"max":[
				0.10000002384185791,
				0.1562654674053192,
				0.16096381843090057
			],
			"min":[
				-0.10000002384185791,
				-0.1562654674053192,
				-0.06940017640590668
			],
			"type":"VEC3"
		},
		{
			"bufferView":1,
			"componentType":5126,
			"count":112,
			"type":"VEC3"
		},
		{
			"bufferView":2,
			"componentType":5126,
			"count":112,
			"type":"VEC2"
		},
		{
			"bufferView":3,
			"componentType":5123,
			"count":228,
			"type":"SCALAR"
		},
		{
			"bufferView":4,
			"componentType":5126,
			"count":296,
			"max":[
				0.02021859399974346,
				0.31459206342697144,
				0.020218554884195328
			],
			"min":[
				-0.020218579098582268,
				-0.04568886384367943,
				-0.02021859586238861
			],
			"type":"VEC3"
		},
		{
			"bufferView":5,
			"componentType":5126,
			"count":296,
			"type":"VEC3"
		},
		{
			"bufferView":6,
			"componentType":5126,
			"count":296,
			"type":"VEC2"
		},
		{
			"bufferView":7,
			"componentType":5123,
			"count":858,
			"type":"SCALAR"
		},
		{
			"bufferView":8,
			"componentType":5126,
			"count":1,
			"max":[
				0
			],
			"min":[
				0
			],
			"type":"SCALAR"
		},
		{
			"bufferView":9,
			"componentType":5126,
			"count":1,
			"type":"VEC3"
		},
		{
			"bufferView":10,
			"componentType":5126,
			"count":1,
			"type":"VEC4"
		},
		{
			"bufferView":11,
			"componentType":5126,
			"count":1,
			"type":"VEC3"
		}
	],
	"bufferViews":[
		{
			"buffer":0,
			"byteLength":1344,
			"byteOffset":0,
			"target":34962
		},
		{
			"buffer":0,
			"byteLength":1344,
			"byteOffset":1344,
			"target":34962
		},
		{
			"buffer":0,
			"byteLength":896,
			"byteOffset":2688,
			"target":34962
		},
		{
			"buffer":0,
			"byteLength":456,
			"byteOffset":3584,
			"target":34963
		},
		{
			"buffer":0,
			"byteLength":3552,
			"byteOffset":4040,
			"target":34962
		},
		{
			"buffer":0,
			"byteLength":3552,
			"byteOffset":7592,
			"target":34962
		},
		{
			"buffer":0,
			"byteLength":2368,
			"byteOffset":11144,
			"target":34962
		},
		{
			"buffer":0,
			"byteLength":1716,
			"byteOffset":13512,
			"target":34963
		},
		{
			"buffer":0,
			"byteLength":4,
			"byteOffset":15228
		},
		{
			"buffer":0,
			"byteLength":12,
			"byteOffset":15232
		},
		{
			"buffer":0,
			"byteLength":16,
			"byteOffset":15244
		},
		{
			"buffer":0,
			"byteLength":12,
			"byteOffset":15260
		}
	],
	"buffers":[
		{
			"byteLength":15272,
			"uri":"lever.bin"
		}
	]
}
