{
	"asset":{
		"generator":"Khronos glTF Blender I/O v3.5.30",
		"version":"2.0"
	},
	"scene":0,
	"scenes":[
		{
			"name":"Scene",
			"nodes":[
				0,
				1,
				2,
				3,
				4
			]
		}
	],
	"nodes":[
		{
			"mesh":0,
			"name":"Plane"
		},
		{
			"name":"_tag_node_01",
			"rotation":[
				0,
				-0.7071068286895752,
				-0.7071068286895752,
				1.1520233300643667e-07
			],
			"translation":[
				0,
				0,
				12
			]
		},
		{
			"name":"_tag_node_03",
			"rotation":[
				-0.5,
				0.5,
				0.5,
				0.5
			],
			"translation":[
				-12,
				0,
				0
			]
		},
		{
			"name":"_tag_node_02",
			"rotation":[
				-0.5000001192092896,
				-0.49999988079071045,
				-0.49999988079071045,
				0.5000001192092896
			],
			"translation":[
				12,
				0,
				0
			]
		},
		{
			"name":"_tag_node_04",
			"rotation":[
				-0.4999999403953552,
				0.5000000596046448,
				0.5000000596046448,
				0.4999999403953552
			],
			"translation":[
				-6,
				3,
				-7.888429164886475
			]
		}
	],
	"meshes":[
		{
			"name":"Plane",
			"primitives":[
				{
					"attributes":{
						"POSITION":0,
						"TEXCOORD_0":1,
						"NORMAL":2
					},
					"indices":3
				}
			]
		}
	],
	"accessors":[
		{
			"bufferView":0,
			"componentType":5126,
			"count":86,
			"max":[
				12,
				3,
				12
			],
			"min":[
				-12,
				0,
				-9.353155136108398
			],
			"type":"VEC3"
		},
		{
			"bufferView":1,
			"componentType":5126,
			"count":86,
			"type":"VEC2"
		},
		{
			"bufferView":2,
			"componentType":5126,
			"count":86,
			"type":"VEC3"
		},
		{
			"bufferView":3,
			"componentType":5123,
			"count":174,
			"type":"SCALAR"
		}
	],
	"bufferViews":[
		{
			"buffer":0,
			"byteLength":1032,
			"byteOffset":0,
			"target":34962
		},
		{
			"buffer":0,
			"byteLength":688,
			"byteOffset":1032,
			"target":34962
		},
		{
			"buffer":0,
			"byteLength":1032,
			"byteOffset":1720,
			"target":34962
		},
		{
			"buffer":0,
			"byteLength":348,
			"byteOffset":2752,
			"target":34963
		}
	],
	"buffers":[
		{
			"byteLength":3100,
			"uri":"junction2.bin"
		}
	]
}
