{
	"asset":{
		"generator":"Khronos glTF Blender I/O v3.6.27",
		"version":"2.0"
	},
	"scene":0,
	"scenes":[
		{
			"name":"Scene",
			"nodes":[
				0,
				1,
				2
			]
		}
	],
	"nodes":[
		{
			"mesh":0,
			"name":"Plane"
		},
		{
			"mesh":1,
			"name":"Floor"
		},
		{
			"mesh":2,
			"name":"Walls"
		}
	],
	"meshes":[
		{
			"name":"Plane",
			"primitives":[
				{
					"attributes":{
						"POSITION":0,
						"NORMAL":1,
						"TEXCOORD_0":2
					},
					"indices":3
				}
			]
		},
		{
			"name":"Plane.001",
			"primitives":[
				{
					"attributes":{
						"POSITION":4,
						"NORMAL":5,
						"TEXCOORD_0":6
					},
					"indices":7
				}
			]
		},
		{
			"name":"Plane.002",
			"primitives":[
				{
					"attributes":{
						"POSITION":8,
						"NORMAL":9,
						"TEXCOORD_0":10
					},
					"indices":11
				}
			]
		}
	],
	"accessors":[
		{
			"bufferView":0,
			"componentType":5126,
			"count":243,
			"max":[
				8,
				4.000002861022949,
				9
			],
			"min":[
				-8,
				-5.960464477539063e-08,
				-9
			],
			"type":"VEC3"
		},
		{
			"bufferView":1,
			"componentType":5126,
			"count":243,
			"type":"VEC3"
		},
		{
			"bufferView":2,
			"componentType":5126,
			"count":243,
			"type":"VEC2"
		},
		{
			"bufferView":3,
			"componentType":5123,
			"count":426,
			"type":"SCALAR"
		},
		{
			"bufferView":4,
			"componentType":5126,
			"count":4,
			"max":[
				8,
				0,
				9
			],
			"min":[
				-8,
				0,
				-9
			],
			"type":"VEC3"
		},
		{
			"bufferView":5,
			"componentType":5126,
			"count":4,
			"type":"VEC3"
		},
		{
			"bufferView":6,
			"componentType":5126,
			"count":4,
			"type":"VEC2"
		},
		{
			"bufferView":7,
			"componentType":5123,
			"count":6,
			"type":"SCALAR"
		},
		{
			"bufferView":8,
			"componentType":5126,
			"count":20,
			"max":[
				8,
				7,
				9
			],
			"min":[
				-8,
				0,
				-9
			],
			"type":"VEC3"
		},
		{
			"bufferView":9,
			"componentType":5126,
			"count":20,
			"type":"VEC3"
		},
		{
			"bufferView":10,
			"componentType":5126,
			"count":20,
			"type":"VEC2"
		},
		{
			"bufferView":11,
			"componentType":5123,
			"count":30,
			"type":"SCALAR"
		}
	],
	"bufferViews":[
		{
			"buffer":0,
			"byteLength":2916,
			"byteOffset":0,
			"target":34962
		},
		{
			"buffer":0,
			"byteLength":2916,
			"byteOffset":2916,
			"target":34962
		},
		{
			"buffer":0,
			"byteLength":1944,
			"byteOffset":5832,
			"target":34962
		},
		{
			"buffer":0,
			"byteLength":852,
			"byteOffset":7776,
			"target":34963
		},
		{
			"buffer":0,
			"byteLength":48,
			"byteOffset":8628,
			"target":34962
		},
		{
			"buffer":0,
			"byteLength":48,
			"byteOffset":8676,
			"target":34962
		},
		{
			"buffer":0,
			"byteLength":32,
			"byteOffset":8724,
			"target":34962
		},
		{
			"buffer":0,
			"byteLength":12,
			"byteOffset":8756,
			"target":34963
		},
		{
			"buffer":0,
			"byteLength":240,
			"byteOffset":8768,
			"target":34962
		},
		{
			"buffer":0,
			"byteLength":240,
			"byteOffset":9008,
			"target":34962
		},
		{
			"buffer":0,
			"byteLength":160,
			"byteOffset":9248,
			"target":34962
		},
		{
			"buffer":0,
			"byteLength":60,
			"byteOffset":9408,
			"target":34963
		}
	],
	"buffers":[
		{
			"byteLength":9468,
			"uri":"hub_level.bin"
		}
	]
}
