{
	"asset":{
		"generator":"Khronos glTF Blender I/O v3.5.30",
		"version":"2.0"
	},
	"scene":0,
	"scenes":[
		{
			"name":"Scene",
			"nodes":[
				0,
				1
			]
		}
	],
	"nodes":[
		{
			"mesh":0,
			"name":"LevelGeometry"
		},
		{
			"name":"_tag_node_01",
			"rotation":[
				-0.7071068286895752,
				0,
				0,
				0.7071068286895752
			],
			"translation":[
				0,
				-4,
				-28
			]
		}
	],
	"materials":[
		{
			"name":"Wall",
			"pbrMetallicRoughness":{
				"baseColorTexture":{
					"index":0
				},
				"metallicFactor":0,
				"roughnessFactor":0.5
			}
		},
		{
			"doubleSided":true,
			"name":"Floor",
			"pbrMetallicRoughness":{
				"baseColorTexture":{
					"index":1
				},
				"metallicFactor":0,
				"roughnessFactor":0.5
			}
		}
	],
	"meshes":[
		{
			"name":"LevelGeometryMesh.001",
			"primitives":[
				{
					"attributes":{
						"POSITION":0,
						"TEXCOORD_0":1,
						"NORMAL":2
					},
					"indices":3,
					"material":0
				},
				{
					"attributes":{
						"POSITION":4,
						"TEXCOORD_0":5,
						"NORMAL":6
					},
					"indices":7,
					"material":1
				}
			]
		}
	],
	"textures":[
		{
			"sampler":0,
			"source":0
		},
		{
			"sampler":0,
			"source":0
		}
	],
	"images":[
		{
			"mimeType":"image/png",
			"name":"floor_diffuse.png",
			"uri":"../../materials/floor_diffuse.png"
		}
	],
	"accessors":[
		{
			"bufferView":0,
			"componentType":5126,
			"count":138,
			"max":[
				15,
				4,
				15
			],
			"min":[
				-15,
				-4,
				-28
			],
			"type":"VEC3"
		},
		{
			"bufferView":1,
			"componentType":5126,
			"count":138,
			"type":"VEC2"
		},
		{
			"bufferView":2,
			"componentType":5126,
			"count":138,
			"type":"VEC3"
		},
		{
			"bufferView":3,
			"componentType":5123,
			"count":300,
			"type":"SCALAR"
		},
		{
			"bufferView":4,
			"componentType":5126,
			"count":47,
			"max":[
				15,
				0,
				15
			],
			"min":[
				-15,
				-4,
				-28
			],
			"type":"VEC3"
		},
		{
			"bufferView":5,
			"componentType":5126,
			"count":47,
			"type":"VEC2"
		},
		{
			"bufferView":6,
			"componentType":5126,
			"count":47,
			"type":"VEC3"
		},
		{
			"bufferView":7,
			"componentType":5123,
			"count":156,
			"type":"SCALAR"
		}
	],
	"bufferViews":[
		{
			"buffer":0,
			"byteLength":1656,
			"byteOffset":0,
			"target":34962
		},
		{
			"buffer":0,
			"byteLength":1104,
			"byteOffset":1656,
			"target":34962
		},
		{
			"buffer":0,
			"byteLength":1656,
			"byteOffset":2760,
			"target":34962
		},
		{
			"buffer":0,
			"byteLength":600,
			"byteOffset":4416,
			"target":34963
		},
		{
			"buffer":0,
			"byteLength":564,
			"byteOffset":5016,
			"target":34962
		},
		{
			"buffer":0,
			"byteLength":376,
			"byteOffset":5580,
			"target":34962
		},
		{
			"buffer":0,
			"byteLength":564,
			"byteOffset":5956,
			"target":34962
		},
		{
			"buffer":0,
			"byteLength":312,
			"byteOffset":6520,
			"target":34963
		}
	],
	"samplers":[
		{
			"magFilter":9729,
			"minFilter":9987
		}
	],
	"buffers":[
		{
			"byteLength":6832,
			"uri":"room1.bin"
		}
	]
}
