{
	"asset":{
		"generator":"Khronos glTF Blender I/O v3.6.27",
		"version":"2.0"
	},
	"scene":0,
	"scenes":[
		{
			"name":"Scene",
			"nodes":[
				0
			]
		}
	],
	"nodes":[
		{
			"mesh":0,
			"name":"Elevator"
		}
	],
	"meshes":[
		{
			"name":"Plane",
			"primitives":[
				{
					"attributes":{
						"POSITION":0,
						"NORMAL":1,
						"TEXCOORD_0":2
					},
					"indices":3
				}
			]
		}
	],
	"accessors":[
		{
			"bufferView":0,
			"componentType":5126,
			"count":1520,
			"max":[
				2.3000004291534424,
				13,
				2.200000286102295
			],
			"min":[
				-2.3000009059906006,
				-4.470348358154297e-08,
				-2.200000524520874
			],
			"type":"VEC3"
		},
		{
			"bufferView":1,
			"componentType":5126,
			"count":1520,
			"type":"VEC3"
		},
		{
			"bufferView":2,
			"componentType":5126,
			"count":1520,
			"type":"VEC2"
		},
		{
			"bufferView":3,
			"componentType":5123,
			"count":2508,
			"type":"SCALAR"
		}
	],
	"bufferViews":[
		{
			"buffer":0,
			"byteLength":18240,
			"byteOffset":0,
			"target":34962
		},
		{
			"buffer":0,
			"byteLength":18240,
			"byteOffset":18240,
			"target":34962
		},
		{
			"buffer":0,
			"byteLength":12160,
			"byteOffset":36480,
			"target":34962
		},
		{
			"buffer":0,
			"byteLength":5016,
			"byteOffset":48640,
			"target":34963
		}
	],
	"buffers":[
		{
			"byteLength":53656,
			"uri":"elevator.bin"
		}
	]
}
