{
    "asset" : {
        "generator" : "Khronos glTF Blender I/O v1.8.19",
        "version" : "2.0"
    },
    "scene" : 0,
    "scenes" : [
        {
            "name" : "Scene",
            "nodes" : [
                0,
                1,
                2,
                3,
                4,
                5,
                6,
                7,
                8,
                9,
                10,
                11
            ]
        }
    ],
    "nodes" : [
        {
            "mesh" : 0,
            "name" : "Cube",
            "translation" : [
                -1.9698377847671509,
                0,
                -6
            ]
        },
        {
            "mesh" : 1,
            "name" : "Plane"
        },
        {
            "mesh" : 2,
            "name" : "Cube.002",
            "translation" : [
                1.7417439222335815,
                0,
                -4.538421630859375
            ]
        },
        {
            "mesh" : 3,
            "name" : "Cube.003",
            "translation" : [
                4.497771739959717,
                0,
                -4
            ]
        },
        {
            "mesh" : 4,
            "name" : "Cube.001",
            "translation" : [
                -5.54329252243042,
                0,
                -3.9961533546447754
            ]
        },
        {
            "mesh" : 5,
            "name" : "Cube.004",
            "translation" : [
                -6.932560920715332,
                0,
                -9.322336196899414
            ]
        },
        {
            "mesh" : 6,
            "name" : "Plane.001",
            "translation" : [
                8.478960037231445,
                0,
                -1.0501456260681152
            ]
        },
        {
            "mesh" : 7,
            "name" : "Cube.005",
            "translation" : [
                -3.330430746078491,
                0,
                3.831636905670166
            ]
        },
        {
            "mesh" : 8,
            "name" : "Cube.006",
            "translation" : [
                -4.427533149719238,
                0,
                7.483475208282471
            ]
        },
        {
            "mesh" : 9,
            "name" : "Cube.007",
            "translation" : [
                1.1972583532333374,
                0,
                5.033938407897949
            ]
        },
        {
            "mesh" : 10,
            "name" : "Cube.008",
            "rotation" : [
                0,
                -0.3826834559440613,
                0,
                0.9238795042037964
            ],
            "translation" : [
                4.807985305786133,
                0,
                1.7533469200134277
            ]
        },
        {
            "mesh" : 11,
            "name" : "Cube.009",
            "translation" : [
                6.948242664337158,
                0,
                -1.5337809324264526
            ]
        }
    ],
    "materials" : [
        {
            "doubleSided" : true,
            "name" : "Material.001",
            "pbrMetallicRoughness" : {
                "baseColorTexture" : {
                    "index" : 0
                },
                "metallicFactor" : 0,
                "roughnessFactor" : 0.5
            }
        },
        {
            "doubleSided" : true,
            "name" : "Material",
            "pbrMetallicRoughness" : {
                "baseColorTexture" : {
                    "index" : 1
                },
                "metallicFactor" : 0,
                "roughnessFactor" : 0.5
            }
        },
        {
            "doubleSided" : true,
            "name" : "Material.002",
            "pbrMetallicRoughness" : {
                "baseColorTexture" : {
                    "index" : 2
                },
                "metallicFactor" : 0,
                "roughnessFactor" : 0.5
            }
        }
    ],
    "meshes" : [
        {
            "name" : "Cube",
            "primitives" : [
                {
                    "attributes" : {
                        "POSITION" : 0,
                        "NORMAL" : 1,
                        "TEXCOORD_0" : 2
                    },
                    "indices" : 3,
                    "material" : 0
                }
            ]
        },
        {
            "name" : "Plane",
            "primitives" : [
                {
                    "attributes" : {
                        "POSITION" : 4,
                        "NORMAL" : 5,
                        "TEXCOORD_0" : 6
                    },
                    "indices" : 7,
                    "material" : 1
                }
            ]
        },
        {
            "name" : "Cube.002",
            "primitives" : [
                {
                    "attributes" : {
                        "POSITION" : 8,
                        "NORMAL" : 9,
                        "TEXCOORD_0" : 10
                    },
                    "indices" : 3,
                    "material" : 0
                }
            ]
        },
        {
            "name" : "Cube.003",
            "primitives" : [
                {
                    "attributes" : {
                        "POSITION" : 11,
                        "NORMAL" : 12,
                        "TEXCOORD_0" : 13
                    },
                    "indices" : 14,
                    "material" : 0
                }
            ]
        },
        {
            "name" : "Cube.004",
            "primitives" : [
                {
                    "attributes" : {
                        "POSITION" : 15,
                        "NORMAL" : 16,
                        "TEXCOORD_0" : 17
                    },
                    "indices" : 3,
                    "material" : 0
                }
            ]
        },
        {
            "name" : "Cube.005",
            "primitives" : [
                {
                    "attributes" : {
                        "POSITION" : 18,
                        "NORMAL" : 19,
                        "TEXCOORD_0" : 20
                    },
                    "indices" : 21
                }
            ]
        },
        {
            "name" : "Plane.001",
            "primitives" : [
                {
                    "attributes" : {
                        "POSITION" : 22,
                        "NORMAL" : 23,
                        "TEXCOORD_0" : 24
                    },
                    "indices" : 25,
                    "material" : 2
                }
            ]
        },
        {
            "name" : "Cube.001",
            "primitives" : [
                {
                    "attributes" : {
                        "POSITION" : 26,
                        "NORMAL" : 27,
                        "TEXCOORD_0" : 28
                    },
                    "indices" : 3,
                    "material" : 0
                }
            ]
        },
        {
            "name" : "Cube.006",
            "primitives" : [
                {
                    "attributes" : {
                        "POSITION" : 29,
                        "NORMAL" : 30,
                        "TEXCOORD_0" : 31
                    },
                    "indices" : 3,
                    "material" : 0
                }
            ]
        },
        {
            "name" : "Cube.007",
            "primitives" : [
                {
                    "attributes" : {
                        "POSITION" : 32,
                        "NORMAL" : 33,
                        "TEXCOORD_0" : 34
                    },
                    "indices" : 14,
                    "material" : 0
                }
            ]
        },
        {
            "name" : "Cube.008",
            "primitives" : [
                {
                    "attributes" : {
                        "POSITION" : 35,
                        "NORMAL" : 36,
                        "TEXCOORD_0" : 37
                    },
                    "indices" : 38,
                    "material" : 0
                }
            ]
        },
        {
            "name" : "Cube.009",
            "primitives" : [
                {
                    "attributes" : {
                        "POSITION" : 39,
                        "NORMAL" : 40,
                        "TEXCOORD_0" : 41
                    },
                    "indices" : 3,
                    "material" : 0
                }
            ]
        }
    ],
    "textures" : [
        {
            "sampler" : 0,
            "source" : 0
        },
        {
            "sampler" : 0,
            "source" : 1
        },
        {
            "sampler" : 0,
            "source" : 2
        }
    ],
    "images" : [
        {
            "mimeType" : "image/png",
            "name" : "texture_01.png",
            "uri" : "texture_01.png"
        },
        {
            "mimeType" : "image/png",
            "name" : "Untitled",
            "uri" : "Untitled.png"
        },
        {
            "mimeType" : "image/png",
            "name" : "texture_10.png",
            "uri" : "texture_10.png"
        }
    ],
    "accessors" : [
        {
            "bufferView" : 0,
            "componentType" : 5126,
            "count" : 24,
            "max" : [
                0.5,
                1,
                0.5
            ],
            "min" : [
                -0.5,
                0,
                -0.5
            ],
            "type" : "VEC3"
        },
        {
            "bufferView" : 1,
            "componentType" : 5126,
            "count" : 24,
            "type" : "VEC3"
        },
        {
            "bufferView" : 2,
            "componentType" : 5126,
            "count" : 24,
            "type" : "VEC2"
        },
        {
            "bufferView" : 3,
            "componentType" : 5123,
            "count" : 36,
            "type" : "SCALAR"
        },
        {
            "bufferView" : 4,
            "componentType" : 5126,
            "count" : 4,
            "max" : [
                10,
                0,
                10
            ],
            "min" : [
                -10,
                0,
                -10
            ],
            "type" : "VEC3"
        },
        {
            "bufferView" : 5,
            "componentType" : 5126,
            "count" : 4,
            "type" : "VEC3"
        },
        {
            "bufferView" : 6,
            "componentType" : 5126,
            "count" : 4,
            "type" : "VEC2"
        },
        {
            "bufferView" : 7,
            "componentType" : 5123,
            "count" : 6,
            "type" : "SCALAR"
        },
        {
            "bufferView" : 8,
            "componentType" : 5126,
            "count" : 24,
            "max" : [
                0.9999997615814209,
                2,
                1
            ],
            "min" : [
                -1.000000238418579,
                0,
                -1
            ],
            "type" : "VEC3"
        },
        {
            "bufferView" : 9,
            "componentType" : 5126,
            "count" : 24,
            "type" : "VEC3"
        },
        {
            "bufferView" : 10,
            "componentType" : 5126,
            "count" : 24,
            "type" : "VEC2"
        },
        {
            "bufferView" : 11,
            "componentType" : 5126,
            "count" : 48,
            "max" : [
                0.5,
                1.9861472845077515,
                -0.08405184745788574
            ],
            "min" : [
                -1.9731764793395996,
                0,
                -1.0840519666671753
            ],
            "type" : "VEC3"
        },
        {
            "bufferView" : 12,
            "componentType" : 5126,
            "count" : 48,
            "type" : "VEC3"
        },
        {
            "bufferView" : 13,
            "componentType" : 5126,
            "count" : 48,
            "type" : "VEC2"
        },
        {
            "bufferView" : 14,
            "componentType" : 5123,
            "count" : 72,
            "type" : "SCALAR"
        },
        {
            "bufferView" : 15,
            "componentType" : 5126,
            "count" : 24,
            "max" : [
                0.5,
                1.2000000476837158,
                0.5
            ],
            "min" : [
                -0.5,
                0,
                -0.5
            ],
            "type" : "VEC3"
        },
        {
            "bufferView" : 16,
            "componentType" : 5126,
            "count" : 24,
            "type" : "VEC3"
        },
        {
            "bufferView" : 17,
            "componentType" : 5126,
            "count" : 24,
            "type" : "VEC2"
        },
        {
            "bufferView" : 18,
            "componentType" : 5126,
            "count" : 456,
            "max" : [
                16.5,
                1.9000000953674316,
                0.5
            ],
            "min" : [
                -2.5,
                0,
                -0.5
            ],
            "type" : "VEC3"
        },
        {
            "bufferView" : 19,
            "componentType" : 5126,
            "count" : 456,
            "type" : "VEC3"
        },
        {
            "bufferView" : 20,
            "componentType" : 5126,
            "count" : 456,
            "type" : "VEC2"
        },
        {
            "bufferView" : 21,
            "componentType" : 5123,
            "count" : 684,
            "type" : "SCALAR"
        },
        {
            "bufferView" : 22,
            "componentType" : 5126,
            "count" : 8,
            "max" : [
                1,
                2,
                14.620885848999023
            ],
            "min" : [
                -17.56614112854004,
                0,
                -6.437384128570557
            ],
            "type" : "VEC3"
        },
        {
            "bufferView" : 23,
            "componentType" : 5126,
            "count" : 8,
            "type" : "VEC3"
        },
        {
            "bufferView" : 24,
            "componentType" : 5126,
            "count" : 8,
            "type" : "VEC2"
        },
        {
            "bufferView" : 25,
            "componentType" : 5123,
            "count" : 12,
            "type" : "SCALAR"
        },
        {
            "bufferView" : 26,
            "componentType" : 5126,
            "count" : 24,
            "max" : [
                0.5,
                2.2154273986816406,
                0.5
            ],
            "min" : [
                -0.5,
                0,
                -0.5
            ],
            "type" : "VEC3"
        },
        {
            "bufferView" : 27,
            "componentType" : 5126,
            "count" : 24,
            "type" : "VEC3"
        },
        {
            "bufferView" : 28,
            "componentType" : 5126,
            "count" : 24,
            "type" : "VEC2"
        },
        {
            "bufferView" : 29,
            "componentType" : 5126,
            "count" : 24,
            "max" : [
                0.5,
                2.556453227996826,
                0.5
            ],
            "min" : [
                -0.5,
                0,
                -0.5
            ],
            "type" : "VEC3"
        },
        {
            "bufferView" : 30,
            "componentType" : 5126,
            "count" : 24,
            "type" : "VEC3"
        },
        {
            "bufferView" : 31,
            "componentType" : 5126,
            "count" : 24,
            "type" : "VEC2"
        },
        {
            "bufferView" : 32,
            "componentType" : 5126,
            "count" : 48,
            "max" : [
                1.062455654144287,
                2.1498043537139893,
                1.062455177307129
            ],
            "min" : [
                -1.062455654144287,
                0,
                -1.0624561309814453
            ],
            "type" : "VEC3"
        },
        {
            "bufferView" : 33,
            "componentType" : 5126,
            "count" : 48,
            "type" : "VEC3"
        },
        {
            "bufferView" : 34,
            "componentType" : 5126,
            "count" : 48,
            "type" : "VEC2"
        },
        {
            "bufferView" : 35,
            "componentType" : 5126,
            "count" : 120,
            "max" : [
                1.062455654144287,
                3.8307011127471924,
                1.062455177307129
            ],
            "min" : [
                -1.066469669342041,
                0,
                -1.0624561309814453
            ],
            "type" : "VEC3"
        },
        {
            "bufferView" : 36,
            "componentType" : 5126,
            "count" : 120,
            "type" : "VEC3"
        },
        {
            "bufferView" : 37,
            "componentType" : 5126,
            "count" : 120,
            "type" : "VEC2"
        },
        {
            "bufferView" : 38,
            "componentType" : 5123,
            "count" : 180,
            "type" : "SCALAR"
        },
        {
            "bufferView" : 39,
            "componentType" : 5126,
            "count" : 24,
            "max" : [
                0.5,
                2.102790117263794,
                0.5
            ],
            "min" : [
                -0.5,
                0,
                -0.5
            ],
            "type" : "VEC3"
        },
        {
            "bufferView" : 40,
            "componentType" : 5126,
            "count" : 24,
            "type" : "VEC3"
        },
        {
            "bufferView" : 41,
            "componentType" : 5126,
            "count" : 24,
            "type" : "VEC2"
        }
    ],
    "bufferViews" : [
        {
            "buffer" : 0,
            "byteLength" : 288,
            "byteOffset" : 0
        },
        {
            "buffer" : 0,
            "byteLength" : 288,
            "byteOffset" : 288
        },
        {
            "buffer" : 0,
            "byteLength" : 192,
            "byteOffset" : 576
        },
        {
            "buffer" : 0,
            "byteLength" : 72,
            "byteOffset" : 768
        },
        {
            "buffer" : 0,
            "byteLength" : 48,
            "byteOffset" : 840
        },
        {
            "buffer" : 0,
            "byteLength" : 48,
            "byteOffset" : 888
        },
        {
            "buffer" : 0,
            "byteLength" : 32,
            "byteOffset" : 936
        },
        {
            "buffer" : 0,
            "byteLength" : 12,
            "byteOffset" : 968
        },
        {
            "buffer" : 0,
            "byteLength" : 288,
            "byteOffset" : 980
        },
        {
            "buffer" : 0,
            "byteLength" : 288,
            "byteOffset" : 1268
        },
        {
            "buffer" : 0,
            "byteLength" : 192,
            "byteOffset" : 1556
        },
        {
            "buffer" : 0,
            "byteLength" : 576,
            "byteOffset" : 1748
        },
        {
            "buffer" : 0,
            "byteLength" : 576,
            "byteOffset" : 2324
        },
        {
            "buffer" : 0,
            "byteLength" : 384,
            "byteOffset" : 2900
        },
        {
            "buffer" : 0,
            "byteLength" : 144,
            "byteOffset" : 3284
        },
        {
            "buffer" : 0,
            "byteLength" : 288,
            "byteOffset" : 3428
        },
        {
            "buffer" : 0,
            "byteLength" : 288,
            "byteOffset" : 3716
        },
        {
            "buffer" : 0,
            "byteLength" : 192,
            "byteOffset" : 4004
        },
        {
            "buffer" : 0,
            "byteLength" : 5472,
            "byteOffset" : 4196
        },
        {
            "buffer" : 0,
            "byteLength" : 5472,
            "byteOffset" : 9668
        },
        {
            "buffer" : 0,
            "byteLength" : 3648,
            "byteOffset" : 15140
        },
        {
            "buffer" : 0,
            "byteLength" : 1368,
            "byteOffset" : 18788
        },
        {
            "buffer" : 0,
            "byteLength" : 96,
            "byteOffset" : 20156
        },
        {
            "buffer" : 0,
            "byteLength" : 96,
            "byteOffset" : 20252
        },
        {
            "buffer" : 0,
            "byteLength" : 64,
            "byteOffset" : 20348
        },
        {
            "buffer" : 0,
            "byteLength" : 24,
            "byteOffset" : 20412
        },
        {
            "buffer" : 0,
            "byteLength" : 288,
            "byteOffset" : 20436
        },
        {
            "buffer" : 0,
            "byteLength" : 288,
            "byteOffset" : 20724
        },
        {
            "buffer" : 0,
            "byteLength" : 192,
            "byteOffset" : 21012
        },
        {
            "buffer" : 0,
            "byteLength" : 288,
            "byteOffset" : 21204
        },
        {
            "buffer" : 0,
            "byteLength" : 288,
            "byteOffset" : 21492
        },
        {
            "buffer" : 0,
            "byteLength" : 192,
            "byteOffset" : 21780
        },
        {
            "buffer" : 0,
            "byteLength" : 576,
            "byteOffset" : 21972
        },
        {
            "buffer" : 0,
            "byteLength" : 576,
            "byteOffset" : 22548
        },
        {
            "buffer" : 0,
            "byteLength" : 384,
            "byteOffset" : 23124
        },
        {
            "buffer" : 0,
            "byteLength" : 1440,
            "byteOffset" : 23508
        },
        {
            "buffer" : 0,
            "byteLength" : 1440,
            "byteOffset" : 24948
        },
        {
            "buffer" : 0,
            "byteLength" : 960,
            "byteOffset" : 26388
        },
        {
            "buffer" : 0,
            "byteLength" : 360,
            "byteOffset" : 27348
        },
        {
            "buffer" : 0,
            "byteLength" : 288,
            "byteOffset" : 27708
        },
        {
            "buffer" : 0,
            "byteLength" : 288,
            "byteOffset" : 27996
        },
        {
            "buffer" : 0,
            "byteLength" : 192,
            "byteOffset" : 28284
        }
    ],
    "samplers" : [
        {
            "magFilter" : 9729,
            "minFilter" : 9987
        }
    ],
    "buffers" : [
        {
            "byteLength" : 28476,
            "uri" : "test_cube.bin"
        }
    ]
}
