{
	"asset":{
		"generator":"Khronos glTF Blender I/O v3.6.27",
		"version":"2.0"
	},
	"scene":0,
	"scenes":[
		{
			"name":"Scene",
			"nodes":[
				0,
				1,
				2,
				3,
				4,
				5,
				6,
				7,
				8,
				9,
				10,
				11,
				12,
				13,
				14,
				15,
				16,
				17,
				18,
				19,
				20,
				21
			]
		}
	],
	"nodes":[
		{
			"mesh":0,
			"name":"tilemap"
		},
		{
			"name":"object type=barrel ",
			"translation":[
				17.5,
				5,
				0
			]
		},
		{
			"name":"object type=barrel .001",
			"translation":[
				18.5,
				5,
				0
			]
		},
		{
			"name":"object type=spider ",
			"translation":[
				7,
				5,
				0
			]
		},
		{
			"name":"object type=rock ",
			"translation":[
				17.5,
				10,
				0
			]
		},
		{
			"name":"object type=barrel .002",
			"translation":[
				32.5,
				8,
				0
			]
		},
		{
			"name":"object type=barrel .003",
			"translation":[
				33.5,
				8,
				0
			]
		},
		{
			"name":"item type=potion_of_invisibility",
			"translation":[
				44.46400451660156,
				9.605607032775879,
				0
			]
		},
		{
			"name":"object type=snake ",
			"translation":[
				52.385623931884766,
				6,
				0
			]
		},
		{
			"name":"object type=snake .001",
			"translation":[
				51.24652099609375,
				6,
				0
			]
		},
		{
			"name":"object type=snake .002",
			"translation":[
				49.2032585144043,
				6,
				0
			]
		},
		{
			"name":"object type=spider .001",
			"translation":[
				51.5,
				9.5,
				0
			]
		},
		{
			"name":"object type=snake .003",
			"translation":[
				51,
				25,
				0
			]
		},
		{
			"name":"object type=bat ",
			"translation":[
				21.967798233032227,
				19.46375274658203,
				0
			]
		},
		{
			"name":"object type=rock .001",
			"translation":[
				16.5,
				19,
				0
			]
		},
		{
			"name":"item type=large_wizard_hat_red ",
			"translation":[
				26.837039947509766,
				17.642345428466797,
				0
			]
		},
		{
			"name":"object type=rock .002",
			"translation":[
				55.29999923706055,
				6,
				0
			]
		},
		{
			"name":"object type=spider .002",
			"translation":[
				25.364103317260742,
				24.854381561279297,
				2.6676116249291226e-06
			]
		},
		{
			"name":"object type=spider .003",
			"translation":[
				47.52601623535156,
				27.209985733032227,
				2.984107823067461e-06
			]
		},
		{
			"name":"object type=travelling_merchant direction=-1",
			"translation":[
				34.20000076293945,
				24,
				0
			]
		},
		{
			"name":"object type=torch ",
			"translation":[
				30,
				25,
				0
			]
		},
		{
			"name":"object type=torch .001",
			"translation":[
				33,
				25,
				0
			]
		}
	],
	"materials":[
		{
			"alphaCutoff":0.5,
			"alphaMode":"MASK",
			"doubleSided":true,
			"name":"ParallaxMaterial",
			"pbrMetallicRoughness":{
				"baseColorTexture":{
					"index":0
				},
				"metallicFactor":0
			}
		}
	],
	"meshes":[
		{
			"name":"Plane",
			"primitives":[
				{
					"attributes":{
						"POSITION":0,
						"NORMAL":1,
						"TEXCOORD_0":2
					},
					"indices":3,
					"material":0
				}
			]
		}
	],
	"textures":[
		{
			"sampler":0,
			"source":0
		}
	],
	"images":[
		{
			"mimeType":"image/png",
			"name":"rooms.png",
			"uri":"rooms.png"
		}
	],
	"accessors":[
		{
			"bufferView":0,
			"componentType":5126,
			"count":4,
			"max":[
				61,
				32,
				1.7881393432617188e-06
			],
			"min":[
				1.2814998626708984e-06,
				0,
				-1.7881393432617188e-06
			],
			"type":"VEC3"
		},
		{
			"bufferView":1,
			"componentType":5126,
			"count":4,
			"type":"VEC3"
		},
		{
			"bufferView":2,
			"componentType":5126,
			"count":4,
			"type":"VEC2"
		},
		{
			"bufferView":3,
			"componentType":5123,
			"count":6,
			"type":"SCALAR"
		}
	],
	"bufferViews":[
		{
			"buffer":0,
			"byteLength":48,
			"byteOffset":0,
			"target":34962
		},
		{
			"buffer":0,
			"byteLength":48,
			"byteOffset":48,
			"target":34962
		},
		{
			"buffer":0,
			"byteLength":32,
			"byteOffset":96,
			"target":34962
		},
		{
			"buffer":0,
			"byteLength":12,
			"byteOffset":128,
			"target":34963
		}
	],
	"samplers":[
		{
			"magFilter":9728,
			"minFilter":9984
		}
	],
	"buffers":[
		{
			"byteLength":140,
			"uri":"caves4_level.bin"
		}
	]
}
