{
	"asset":{
		"generator":"Khronos glTF Blender I/O v3.6.27",
		"version":"2.0"
	},
	"scene":0,
	"scenes":[
		{
			"name":"Scene",
			"nodes":[
				0,
				1,
				2,
				3,
				4,
				5,
				6,
				7,
				8,
				9,
				10,
				11,
				12,
				13,
				14,
				15,
				16,
				17,
				18,
				19,
				20
			]
		}
	],
	"nodes":[
		{
			"mesh":0,
			"name":"tilemap"
		},
		{
			"name":"object type=barrel ",
			"translation":[
				18.5,
				11,
				0
			]
		},
		{
			"name":"object type=snake",
			"translation":[
				16,
				11,
				0
			]
		},
		{
			"name":"object type=snake .001",
			"translation":[
				11,
				13,
				0
			]
		},
		{
			"name":"object type=snake .002",
			"translation":[
				2,
				16,
				0
			]
		},
		{
			"name":"object type=bat ",
			"translation":[
				24.5,
				27.5,
				0
			]
		},
		{
			"name":"object type=snake .003",
			"translation":[
				29,
				27,
				0
			]
		},
		{
			"name":"object type=bat .001",
			"translation":[
				39.5,
				24.5,
				0
			]
		},
		{
			"name":"item type=bomb",
			"translation":[
				44.400001525878906,
				24.5,
				0
			]
		},
		{
			"name":"item type=bread",
			"translation":[
				46.10000228881836,
				24.5,
				0
			]
		},
		{
			"name":"object type=barrel .001",
			"translation":[
				40.5,
				16,
				0
			]
		},
		{
			"name":"object type=barrel .002",
			"translation":[
				41.5,
				16,
				0
			]
		},
		{
			"name":"object type=rat ",
			"translation":[
				26,
				2,
				0
			]
		},
		{
			"name":"object type=rat .001",
			"translation":[
				27,
				2,
				0
			]
		},
		{
			"name":"object type=snake ",
			"translation":[
				17,
				2,
				0
			]
		},
		{
			"name":"object type=snake .004",
			"translation":[
				19,
				2,
				0
			]
		},
		{
			"name":"object type=spike ",
			"translation":[
				37,
				4,
				0
			]
		},
		{
			"name":"object type=rock ",
			"translation":[
				39.5,
				3,
				0
			]
		},
		{
			"name":"object type=torch ",
			"translation":[
				47.5,
				4.5,
				0
			]
		},
		{
			"name":"object type=torch .001",
			"translation":[
				48.5,
				4.5,
				0
			]
		},
		{
			"name":"object type=torch .002",
			"translation":[
				49.5,
				4.5,
				0
			]
		}
	],
	"materials":[
		{
			"alphaCutoff":0.5,
			"alphaMode":"MASK",
			"doubleSided":true,
			"name":"ParallaxMaterial",
			"pbrMetallicRoughness":{
				"baseColorTexture":{
					"index":0
				},
				"metallicFactor":0
			}
		}
	],
	"meshes":[
		{
			"name":"Plane",
			"primitives":[
				{
					"attributes":{
						"POSITION":0,
						"NORMAL":1,
						"TEXCOORD_0":2
					},
					"indices":3,
					"material":0
				}
			]
		}
	],
	"textures":[
		{
			"sampler":0,
			"source":0
		}
	],
	"images":[
		{
			"mimeType":"image/png",
			"name":"rooms.png",
			"uri":"rooms.png"
		}
	],
	"accessors":[
		{
			"bufferView":0,
			"componentType":5126,
			"count":4,
			"max":[
				50,
				31,
				1.7881393432617188e-06
			],
			"min":[
				1.2814998626708984e-06,
				0,
				-1.7881393432617188e-06
			],
			"type":"VEC3"
		},
		{
			"bufferView":1,
			"componentType":5126,
			"count":4,
			"type":"VEC3"
		},
		{
			"bufferView":2,
			"componentType":5126,
			"count":4,
			"type":"VEC2"
		},
		{
			"bufferView":3,
			"componentType":5123,
			"count":6,
			"type":"SCALAR"
		}
	],
	"bufferViews":[
		{
			"buffer":0,
			"byteLength":48,
			"byteOffset":0,
			"target":34962
		},
		{
			"buffer":0,
			"byteLength":48,
			"byteOffset":48,
			"target":34962
		},
		{
			"buffer":0,
			"byteLength":32,
			"byteOffset":96,
			"target":34962
		},
		{
			"buffer":0,
			"byteLength":12,
			"byteOffset":128,
			"target":34963
		}
	],
	"samplers":[
		{
			"magFilter":9728,
			"minFilter":9984
		}
	],
	"buffers":[
		{
			"byteLength":140,
			"uri":"caves1_level.bin"
		}
	]
}
