{
	"asset":{
		"generator":"Khronos glTF Blender I/O v3.6.27",
		"version":"2.0"
	},
	"scene":0,
	"scenes":[
		{
			"name":"Scene",
			"nodes":[
				0,
				1,
				2,
				3,
				4,
				5,
				6,
				7,
				8,
				9,
				10,
				11,
				12,
				13,
				14,
				15,
				16,
				17,
				18,
				19,
				20,
				21,
				22,
				23,
				24
			]
		}
	],
	"nodes":[
		{
			"mesh":0,
			"name":"tilemap"
		},
		{
			"name":"object type=barrel item=burst_shot_spell ",
			"translation":[
				24.5,
				41,
				0
			]
		},
		{
			"name":"object type=torch ",
			"translation":[
				1.5,
				35.5,
				0
			]
		},
		{
			"name":"object type=torch .001",
			"translation":[
				0.5,
				35.5,
				0
			]
		},
		{
			"name":"object type=spike_trap ",
			"translation":[
				11.5,
				40.5,
				0
			]
		},
		{
			"name":"object type=spike_trap .001",
			"translation":[
				12.5,
				40.5,
				0
			]
		},
		{
			"name":"object type=spike_trap .002",
			"translation":[
				16.5,
				40.5,
				0
			]
		},
		{
			"name":"object type=spike_trap .003",
			"translation":[
				17.5,
				40.5,
				0
			]
		},
		{
			"name":"object type=torch .002",
			"translation":[
				13.5,
				38.5,
				0
			]
		},
		{
			"name":"object type=torch .003",
			"translation":[
				17.5,
				38.5,
				0
			]
		},
		{
			"name":"object type=rock ",
			"translation":[
				13.5,
				34.5,
				0
			]
		},
		{
			"name":"object type=spike_trap .004",
			"translation":[
				13.5,
				40.5,
				0
			]
		},
		{
			"name":"object type=chest item=magic_arrow_spell coins=15",
			"translation":[
				14.5,
				34,
				0
			]
		},
		{
			"name":"object type=checkpoint ",
			"translation":[
				26.5,
				38,
				0
			]
		},
		{
			"name":"object type=barrel ",
			"translation":[
				34.5,
				26,
				0
			]
		},
		{
			"name":"object type=barrel .001",
			"translation":[
				33.5,
				25,
				0
			]
		},
		{
			"name":"object type=torch .004",
			"translation":[
				38.5,
				24.5,
				0
			]
		},
		{
			"name":"object type=bat ",
			"translation":[
				21.5,
				24.5,
				0
			]
		},
		{
			"name":"object type=bat .001",
			"translation":[
				19.899999618530273,
				24.5,
				0
			]
		},
		{
			"name":"object type=slime ",
			"translation":[
				13.699999809265137,
				22.600000381469727,
				0
			]
		},
		{
			"name":"object type=slime .001",
			"translation":[
				22.80000114440918,
				22.600000381469727,
				0
			]
		},
		{
			"name":"object type=rat ",
			"translation":[
				52,
				2,
				0
			]
		},
		{
			"name":"object type=barrel .002",
			"translation":[
				57.5,
				12,
				0
			]
		},
		{
			"name":"object type=slime .002",
			"translation":[
				58.29999923706055,
				12.600000381469727,
				0
			]
		},
		{
			"name":"object type=spider ",
			"translation":[
				50,
				16,
				0
			]
		}
	],
	"materials":[
		{
			"alphaCutoff":0.5,
			"alphaMode":"MASK",
			"doubleSided":true,
			"name":"ParallaxMaterial",
			"pbrMetallicRoughness":{
				"baseColorTexture":{
					"index":0
				},
				"metallicFactor":0
			}
		}
	],
	"meshes":[
		{
			"name":"Plane",
			"primitives":[
				{
					"attributes":{
						"POSITION":0,
						"NORMAL":1,
						"TEXCOORD_0":2
					},
					"indices":3,
					"material":0
				}
			]
		}
	],
	"textures":[
		{
			"sampler":0,
			"source":0
		}
	],
	"images":[
		{
			"mimeType":"image/png",
			"name":"rooms.png",
			"uri":"rooms.png"
		}
	],
	"accessors":[
		{
			"bufferView":0,
			"componentType":5126,
			"count":4,
			"max":[
				60,
				46,
				1.7881393432617188e-06
			],
			"min":[
				1.2814998626708984e-06,
				0,
				-1.7881393432617188e-06
			],
			"type":"VEC3"
		},
		{
			"bufferView":1,
			"componentType":5126,
			"count":4,
			"type":"VEC3"
		},
		{
			"bufferView":2,
			"componentType":5126,
			"count":4,
			"type":"VEC2"
		},
		{
			"bufferView":3,
			"componentType":5123,
			"count":6,
			"type":"SCALAR"
		}
	],
	"bufferViews":[
		{
			"buffer":0,
			"byteLength":48,
			"byteOffset":0,
			"target":34962
		},
		{
			"buffer":0,
			"byteLength":48,
			"byteOffset":48,
			"target":34962
		},
		{
			"buffer":0,
			"byteLength":32,
			"byteOffset":96,
			"target":34962
		},
		{
			"buffer":0,
			"byteLength":12,
			"byteOffset":128,
			"target":34963
		}
	],
	"samplers":[
		{
			"magFilter":9728,
			"minFilter":9984
		}
	],
	"buffers":[
		{
			"byteLength":140,
			"uri":"caves2_level.bin"
		}
	]
}
