{
	"asset":{
		"generator":"Khronos glTF Blender I/O v3.6.27",
		"version":"2.0"
	},
	"scene":0,
	"scenes":[
		{
			"name":"Scene",
			"nodes":[
				0,
				1,
				2,
				3,
				4,
				5,
				6,
				7,
				8,
				9,
				10,
				11,
				12,
				13
			]
		}
	],
	"nodes":[
		{
			"mesh":0,
			"name":"tilemap"
		},
		{
			"name":"object type=torch ",
			"translation":[
				2.5,
				15.5,
				0
			]
		},
		{
			"name":"object type=slime ",
			"translation":[
				9.5,
				16.899999618530273,
				0
			]
		},
		{
			"name":"object type=bat .001",
			"translation":[
				13,
				14.5,
				0
			]
		},
		{
			"name":"object type=barrel item=parsley ",
			"translation":[
				16.399999618530273,
				12,
				0
			]
		},
		{
			"name":"object type=spike ",
			"translation":[
				19.5,
				8,
				0
			]
		},
		{
			"name":"object type=torch .001",
			"translation":[
				12.5,
				15.5,
				0
			]
		},
		{
			"name":"object type=spider ",
			"translation":[
				7.5,
				16.899999618530273,
				0
			]
		},
		{
			"name":"object type=rock ",
			"translation":[
				27.100000381469727,
				9,
				0
			]
		},
		{
			"name":"item type=potion_of_healing ",
			"translation":[
				40.5,
				13.5,
				0
			]
		},
		{
			"name":"object type=torch .002",
			"translation":[
				38.5,
				8.5,
				0
			]
		},
		{
			"name":"object type=spider .001",
			"translation":[
				37.400001525878906,
				2,
				0
			]
		},
		{
			"name":"object type=bat ",
			"translation":[
				40.5,
				1.5,
				0
			]
		},
		{
			"name":"object type=bat .002",
			"translation":[
				43.60000228881836,
				2.4000000953674316,
				0
			]
		}
	],
	"materials":[
		{
			"alphaCutoff":0.5,
			"alphaMode":"MASK",
			"doubleSided":true,
			"name":"ParallaxMaterial",
			"pbrMetallicRoughness":{
				"baseColorTexture":{
					"index":0
				},
				"metallicFactor":0
			}
		}
	],
	"meshes":[
		{
			"name":"Plane",
			"primitives":[
				{
					"attributes":{
						"POSITION":0,
						"NORMAL":1,
						"TEXCOORD_0":2
					},
					"indices":3,
					"material":0
				}
			]
		}
	],
	"textures":[
		{
			"sampler":0,
			"source":0
		}
	],
	"images":[
		{
			"mimeType":"image/png",
			"name":"rooms.png",
			"uri":"rooms.png"
		}
	],
	"accessors":[
		{
			"bufferView":0,
			"componentType":5126,
			"count":4,
			"max":[
				46,
				22,
				1.7881393432617188e-06
			],
			"min":[
				1.2814998626708984e-06,
				0,
				-1.7881393432617188e-06
			],
			"type":"VEC3"
		},
		{
			"bufferView":1,
			"componentType":5126,
			"count":4,
			"type":"VEC3"
		},
		{
			"bufferView":2,
			"componentType":5126,
			"count":4,
			"type":"VEC2"
		},
		{
			"bufferView":3,
			"componentType":5123,
			"count":6,
			"type":"SCALAR"
		}
	],
	"bufferViews":[
		{
			"buffer":0,
			"byteLength":48,
			"byteOffset":0,
			"target":34962
		},
		{
			"buffer":0,
			"byteLength":48,
			"byteOffset":48,
			"target":34962
		},
		{
			"buffer":0,
			"byteLength":32,
			"byteOffset":96,
			"target":34962
		},
		{
			"buffer":0,
			"byteLength":12,
			"byteOffset":128,
			"target":34963
		}
	],
	"samplers":[
		{
			"magFilter":9728,
			"minFilter":9984
		}
	],
	"buffers":[
		{
			"byteLength":140,
			"uri":"caves3_level.bin"
		}
	]
}
