{
	"asset":{
		"generator":"Khronos glTF Blender I/O v3.6.27",
		"version":"2.0"
	},
	"scene":0,
	"scenes":[
		{
			"name":"Scene",
			"nodes":[
				0,
				1,
				2,
				3,
				4,
				5,
				6,
				7,
				8,
				9,
				10,
				11
			]
		}
	],
	"nodes":[
		{
			"mesh":0,
			"name":"tilemap"
		},
		{
			"name":"object type=barrel item=iron_key coins=4",
			"translation":[
				17.5,
				6,
				0
			]
		},
		{
			"name":"object type=barrel .003",
			"translation":[
				12.5,
				2,
				0
			]
		},
		{
			"name":"item type=katana",
			"translation":[
				5.5,
				1.5,
				0
			]
		},
		{
			"name":"object type=spike_trap",
			"translation":[
				27.5,
				4.5,
				0
			]
		},
		{
			"name":"object type=barrel .002",
			"translation":[
				29.5,
				2,
				0
			]
		},
		{
			"name":"object type=rock",
			"translation":[
				32.5,
				8.5,
				0
			]
		},
		{
			"name":"object type=torch ",
			"translation":[
				33.5,
				4.5,
				0
			]
		},
		{
			"name":"object type=torch .001",
			"translation":[
				39.5,
				3.5,
				0
			]
		},
		{
			"name":"object type=torch .002",
			"translation":[
				41.5,
				3.5,
				0
			]
		},
		{
			"name":"object type=rat",
			"translation":[
				14.5,
				2.5,
				0
			]
		},
		{
			"name":"object type=spider",
			"translation":[
				37,
				2.5,
				0
			]
		}
	],
	"materials":[
		{
			"alphaCutoff":0.5,
			"alphaMode":"MASK",
			"doubleSided":true,
			"name":"ParallaxMaterial",
			"pbrMetallicRoughness":{
				"baseColorTexture":{
					"index":0
				},
				"metallicFactor":0
			}
		}
	],
	"meshes":[
		{
			"name":"Plane",
			"primitives":[
				{
					"attributes":{
						"POSITION":0,
						"NORMAL":1,
						"TEXCOORD_0":2
					},
					"indices":3,
					"material":0
				}
			]
		}
	],
	"textures":[
		{
			"sampler":0,
			"source":0
		}
	],
	"images":[
		{
			"mimeType":"image/png",
			"name":"rooms.png",
			"uri":"rooms.png"
		}
	],
	"accessors":[
		{
			"bufferView":0,
			"componentType":5126,
			"count":4,
			"max":[
				43,
				14,
				1.7881393432617188e-06
			],
			"min":[
				1.2814998626708984e-06,
				0,
				-1.7881393432617188e-06
			],
			"type":"VEC3"
		},
		{
			"bufferView":1,
			"componentType":5126,
			"count":4,
			"type":"VEC3"
		},
		{
			"bufferView":2,
			"componentType":5126,
			"count":4,
			"type":"VEC2"
		},
		{
			"bufferView":3,
			"componentType":5123,
			"count":6,
			"type":"SCALAR"
		}
	],
	"bufferViews":[
		{
			"buffer":0,
			"byteLength":48,
			"byteOffset":0,
			"target":34962
		},
		{
			"buffer":0,
			"byteLength":48,
			"byteOffset":48,
			"target":34962
		},
		{
			"buffer":0,
			"byteLength":32,
			"byteOffset":96,
			"target":34962
		},
		{
			"buffer":0,
			"byteLength":12,
			"byteOffset":128,
			"target":34963
		}
	],
	"samplers":[
		{
			"magFilter":9728,
			"minFilter":9984
		}
	],
	"buffers":[
		{
			"byteLength":140,
			"uri":"caves0_level.bin"
		}
	]
}
