{
	"asset":{
		"generator":"Khronos glTF Blender I/O v3.6.27",
		"version":"2.0"
	},
	"scene":0,
	"scenes":[
		{
			"name":"Scene",
			"nodes":[
				0
			]
		}
	],
	"nodes":[
		{
			"mesh":0,
			"name":"Cap",
			"rotation":[
				-0.22808796167373657,
				0.00652270345017314,
				0.03831567242741585,
				0.9728644490242004
			],
			"scale":[
				1.022577166557312,
				1.0225770473480225,
				1.0225770473480225
			],
			"translation":[
				0,
				0.046992115676403046,
				0
			]
		}
	],
	"materials":[
		{
			"doubleSided":true,
			"name":"Material.005",
			"pbrMetallicRoughness":{
				"baseColorFactor":[
					0.5488461852073669,
					0.0854586809873581,
					0.06578896194696426,
					1
				],
				"metallicFactor":0
			}
		}
	],
	"meshes":[
		{
			"name":"Sphere.003",
			"primitives":[
				{
					"attributes":{
						"POSITION":0,
						"NORMAL":1,
						"TEXCOORD_0":2
					},
					"indices":3,
					"material":0
				}
			]
		}
	],
	"accessors":[
		{
			"bufferView":0,
			"componentType":5126,
			"count":702,
			"max":[
				0.09999990463256836,
				0.08456152677536011,
				0.09105893969535828
			],
			"min":[
				-0.09999996423721313,
				-0.02320990338921547,
				-0.21401165425777435
			],
			"type":"VEC3"
		},
		{
			"bufferView":1,
			"componentType":5126,
			"count":702,
			"type":"VEC3"
		},
		{
			"bufferView":2,
			"componentType":5126,
			"count":702,
			"type":"VEC2"
		},
		{
			"bufferView":3,
			"componentType":5123,
			"count":3732,
			"type":"SCALAR"
		}
	],
	"bufferViews":[
		{
			"buffer":0,
			"byteLength":8424,
			"byteOffset":0,
			"target":34962
		},
		{
			"buffer":0,
			"byteLength":8424,
			"byteOffset":8424,
			"target":34962
		},
		{
			"buffer":0,
			"byteLength":5616,
			"byteOffset":16848,
			"target":34962
		},
		{
			"buffer":0,
			"byteLength":7464,
			"byteOffset":22464,
			"target":34963
		}
	],
	"buffers":[
		{
			"byteLength":29928,
			"uri":"cap_item.bin"
		}
	]
}
