{
	"asset":{
		"generator":"Khronos glTF Blender I/O v3.6.27",
		"version":"2.0"
	},
	"scene":0,
	"scenes":[
		{
			"name":"Scene",
			"nodes":[
				0,
				1
			]
		}
	],
	"nodes":[
		{
			"mesh":0,
			"name":"Cube"
		},
		{
			"mesh":1,
			"name":"Cube.001"
		}
	],
	"materials":[
		{
			"doubleSided":true,
			"name":"Material",
			"pbrMetallicRoughness":{
				"baseColorFactor":[
					0.058093417435884476,
					0.10969366133213043,
					0.27142807841300964,
					1
				],
				"roughnessFactor":0.24409449100494385
			}
		},
		{
			"doubleSided":true,
			"name":"Material.003",
			"pbrMetallicRoughness":{
				"baseColorFactor":[
					0.023650342598557472,
					0.023650342598557472,
					0.023650342598557472,
					1
				],
				"metallicFactor":0,
				"roughnessFactor":0.09055116772651672
			}
		},
		{
			"doubleSided":true,
			"name":"Material.001",
			"pbrMetallicRoughness":{
				"baseColorFactor":[
					0.007193427998572588,
					0.007193427998572588,
					0.007193427998572588,
					1
				],
				"metallicFactor":0
			}
		},
		{
			"doubleSided":true,
			"name":"Material.002",
			"pbrMetallicRoughness":{
				"baseColorFactor":[
					0.486896812915802,
					0.486896812915802,
					0.486896812915802,
					1
				],
				"roughnessFactor":0.25590550899505615
			}
		}
	],
	"meshes":[
		{
			"name":"Cube",
			"primitives":[
				{
					"attributes":{
						"POSITION":0,
						"NORMAL":1,
						"TEXCOORD_0":2
					},
					"indices":3,
					"material":0
				},
				{
					"attributes":{
						"POSITION":4,
						"NORMAL":5,
						"TEXCOORD_0":6
					},
					"indices":7,
					"material":1
				}
			]
		},
		{
			"name":"Cube.001",
			"primitives":[
				{
					"attributes":{
						"POSITION":8,
						"NORMAL":9,
						"TEXCOORD_0":10
					},
					"indices":11,
					"material":2
				},
				{
					"attributes":{
						"POSITION":12,
						"NORMAL":13,
						"TEXCOORD_0":14
					},
					"indices":15,
					"material":3
				}
			]
		}
	],
	"accessors":[
		{
			"bufferView":0,
			"componentType":5126,
			"count":225,
			"max":[
				0.8677318096160889,
				1.5984723567962646,
				2
			],
			"min":[
				-0.8677318096160889,
				0.21082347631454468,
				-1.9999998807907104
			],
			"type":"VEC3"
		},
		{
			"bufferView":1,
			"componentType":5126,
			"count":225,
			"type":"VEC3"
		},
		{
			"bufferView":2,
			"componentType":5126,
			"count":225,
			"type":"VEC2"
		},
		{
			"bufferView":3,
			"componentType":5123,
			"count":1080,
			"type":"SCALAR"
		},
		{
			"bufferView":4,
			"componentType":5126,
			"count":28,
			"max":[
				0.8677318096160889,
				1.5393409729003906,
				1.4113975763320923
			],
			"min":[
				-0.8677318096160889,
				1.006462812423706,
				-0.8196147680282593
			],
			"type":"VEC3"
		},
		{
			"bufferView":5,
			"componentType":5126,
			"count":28,
			"type":"VEC3"
		},
		{
			"bufferView":6,
			"componentType":5126,
			"count":28,
			"type":"VEC2"
		},
		{
			"bufferView":7,
			"componentType":5123,
			"count":36,
			"type":"SCALAR"
		},
		{
			"bufferView":8,
			"componentType":5126,
			"count":1032,
			"max":[
				0.9132291078567505,
				0.6000000238418579,
				1.6999999284744263
			],
			"min":[
				-0.9132291078567505,
				0,
				-1.5000001192092896
			],
			"type":"VEC3"
		},
		{
			"bufferView":9,
			"componentType":5126,
			"count":1032,
			"type":"VEC3"
		},
		{
			"bufferView":10,
			"componentType":5126,
			"count":1032,
			"type":"VEC2"
		},
		{
			"bufferView":11,
			"componentType":5123,
			"count":1920,
			"type":"SCALAR"
		},
		{
			"bufferView":12,
			"componentType":5126,
			"count":128,
			"max":[
				0.8595238924026489,
				0.4918781518936157,
				1.591878056526184
			],
			"min":[
				-0.8595238924026489,
				0.1081218421459198,
				-1.391878366470337
			],
			"type":"VEC3"
		},
		{
			"bufferView":13,
			"componentType":5126,
			"count":128,
			"type":"VEC3"
		},
		{
			"bufferView":14,
			"componentType":5126,
			"count":128,
			"type":"VEC2"
		},
		{
			"bufferView":15,
			"componentType":5123,
			"count":360,
			"type":"SCALAR"
		}
	],
	"bufferViews":[
		{
			"buffer":0,
			"byteLength":2700,
			"byteOffset":0,
			"target":34962
		},
		{
			"buffer":0,
			"byteLength":2700,
			"byteOffset":2700,
			"target":34962
		},
		{
			"buffer":0,
			"byteLength":1800,
			"byteOffset":5400,
			"target":34962
		},
		{
			"buffer":0,
			"byteLength":2160,
			"byteOffset":7200,
			"target":34963
		},
		{
			"buffer":0,
			"byteLength":336,
			"byteOffset":9360,
			"target":34962
		},
		{
			"buffer":0,
			"byteLength":336,
			"byteOffset":9696,
			"target":34962
		},
		{
			"buffer":0,
			"byteLength":224,
			"byteOffset":10032,
			"target":34962
		},
		{
			"buffer":0,
			"byteLength":72,
			"byteOffset":10256,
			"target":34963
		},
		{
			"buffer":0,
			"byteLength":12384,
			"byteOffset":10328,
			"target":34962
		},
		{
			"buffer":0,
			"byteLength":12384,
			"byteOffset":22712,
			"target":34962
		},
		{
			"buffer":0,
			"byteLength":8256,
			"byteOffset":35096,
			"target":34962
		},
		{
			"buffer":0,
			"byteLength":3840,
			"byteOffset":43352,
			"target":34963
		},
		{
			"buffer":0,
			"byteLength":1536,
			"byteOffset":47192,
			"target":34962
		},
		{
			"buffer":0,
			"byteLength":1536,
			"byteOffset":48728,
			"target":34962
		},
		{
			"buffer":0,
			"byteLength":1024,
			"byteOffset":50264,
			"target":34962
		},
		{
			"buffer":0,
			"byteLength":720,
			"byteOffset":51288,
			"target":34963
		}
	],
	"buffers":[
		{
			"byteLength":52008,
			"uri":"car.bin"
		}
	]
}
