{
	"asset":{
		"generator":"Khronos glTF Blender I/O v3.6.27",
		"version":"2.0"
	},
	"scene":0,
	"scenes":[
		{
			"name":"Scene",
			"nodes":[
				0
			]
		}
	],
	"nodes":[
		{
			"mesh":0,
			"name":"Chain",
			"rotation":[
				-0.20413552224636078,
				0,
				0,
				0.9789426326751709
			]
		}
	],
	"materials":[
		{
			"doubleSided":true,
			"name":"Material.013",
			"pbrMetallicRoughness":{
				"baseColorFactor":[
					0.31853392720222473,
					0.31853392720222473,
					0.31853392720222473,
					1
				],
				"roughnessFactor":0.37078651785850525
			}
		}
	],
	"meshes":[
		{
			"name":"Torus",
			"primitives":[
				{
					"attributes":{
						"POSITION":0,
						"NORMAL":1,
						"TEXCOORD_0":2
					},
					"indices":3,
					"material":0
				}
			]
		}
	],
	"accessors":[
		{
			"bufferView":0,
			"componentType":5126,
			"count":637,
			"max":[
				0.10063055157661438,
				0.00400000624358654,
				0.16999998688697815
			],
			"min":[
				-0.10063056647777557,
				-0.013042150065302849,
				-0.1629626303911209
			],
			"type":"VEC3"
		},
		{
			"bufferView":1,
			"componentType":5126,
			"count":637,
			"type":"VEC3"
		},
		{
			"bufferView":2,
			"componentType":5126,
			"count":637,
			"type":"VEC2"
		},
		{
			"bufferView":3,
			"componentType":5123,
			"count":3456,
			"type":"SCALAR"
		}
	],
	"bufferViews":[
		{
			"buffer":0,
			"byteLength":7644,
			"byteOffset":0,
			"target":34962
		},
		{
			"buffer":0,
			"byteLength":7644,
			"byteOffset":7644,
			"target":34962
		},
		{
			"buffer":0,
			"byteLength":5096,
			"byteOffset":15288,
			"target":34962
		},
		{
			"buffer":0,
			"byteLength":6912,
			"byteOffset":20384,
			"target":34963
		}
	],
	"buffers":[
		{
			"byteLength":27296,
			"uri":"chain_item.bin"
		}
	]
}
