{
	"asset":{
		"generator":"Khronos glTF Blender I/O v3.6.27",
		"version":"2.0"
	},
	"scene":0,
	"scenes":[
		{
			"name":"Scene",
			"nodes":[
				0
			]
		}
	],
	"nodes":[
		{
			"mesh":0,
			"name":"BezierCurve.001"
		}
	],
	"meshes":[
		{
			"name":"Mesh",
			"primitives":[
				{
					"attributes":{
						"POSITION":0
					},
					"indices":1,
					"mode":1
				}
			]
		}
	],
	"accessors":[
		{
			"bufferView":0,
			"componentType":5126,
			"count":153,
			"max":[
				99.99188232421875,
				17.835586547851562,
				132.92926025390625
			],
			"min":[
				-549.790771484375,
				17.835586547851562,
				-212.26559448242188
			],
			"type":"VEC3"
		},
		{
			"bufferView":1,
			"componentType":5123,
			"count":304,
			"type":"SCALAR"
		}
	],
	"bufferViews":[
		{
			"buffer":0,
			"byteLength":1836,
			"byteOffset":0,
			"target":34962
		},
		{
			"buffer":0,
			"byteLength":608,
			"byteOffset":1836,
			"target":34963
		}
	],
	"buffers":[
		{
			"byteLength":2444,
			"uri":"racetrack_path.bin"
		}
	]
}
