{
	"asset":{
		"generator":"Khronos glTF Blender I/O v3.6.27",
		"version":"2.0"
	},
	"scene":0,
	"scenes":[
		{
			"name":"Scene",
			"nodes":[
				0
			]
		}
	],
	"nodes":[
		{
			"mesh":0,
			"name":"BezierCurve",
			"scale":[
				40,
				40,
				40
			],
			"translation":[
				-3.814697265625e-06,
				0,
				0
			]
		}
	],
	"materials":[
		{
			"doubleSided":true,
			"name":"Material",
			"pbrMetallicRoughness":{
				"baseColorFactor":[
					0.1745908558368683,
					0.25979599356651306,
					0.057099584490060806,
					1
				],
				"metallicFactor":0
			}
		},
		{
			"doubleSided":true,
			"name":"Material.001",
			"pbrMetallicRoughness":{
				"baseColorFactor":[
					0.007193256635218859,
					0.007193256635218859,
					0.007193256635218859,
					1
				],
				"metallicFactor":0,
				"roughnessFactor":0.5
			}
		}
	],
	"meshes":[
		{
			"name":"BezierCurve",
			"primitives":[
				{
					"attributes":{
						"POSITION":0,
						"NORMAL":1,
						"TEXCOORD_0":2
					},
					"indices":3,
					"material":0
				},
				{
					"attributes":{
						"POSITION":4,
						"NORMAL":5,
						"TEXCOORD_0":6
					},
					"indices":7,
					"material":1
				}
			]
		}
	],
	"accessors":[
		{
			"bufferView":0,
			"componentType":5126,
			"count":3118,
			"max":[
				3.70485520362854,
				0.438907653093338,
				4.585208892822266
			],
			"min":[
				-14.96458911895752,
				0.025306811556220055,
				-6.514544486999512
			],
			"type":"VEC3"
		},
		{
			"bufferView":1,
			"componentType":5126,
			"count":3118,
			"type":"VEC3"
		},
		{
			"bufferView":2,
			"componentType":5126,
			"count":3118,
			"type":"VEC2"
		},
		{
			"bufferView":3,
			"componentType":5123,
			"count":5034,
			"type":"SCALAR"
		},
		{
			"bufferView":4,
			"componentType":5126,
			"count":1974,
			"max":[
				2.6691362857818604,
				0.14389635622501373,
				3.549337148666382
			],
			"min":[
				-13.931661605834961,
				0.025306811556220055,
				-5.478455543518066
			],
			"type":"VEC3"
		},
		{
			"bufferView":5,
			"componentType":5126,
			"count":1974,
			"type":"VEC3"
		},
		{
			"bufferView":6,
			"componentType":5126,
			"count":1974,
			"type":"VEC2"
		},
		{
			"bufferView":7,
			"componentType":5123,
			"count":7200,
			"type":"SCALAR"
		}
	],
	"bufferViews":[
		{
			"buffer":0,
			"byteLength":37416,
			"byteOffset":0,
			"target":34962
		},
		{
			"buffer":0,
			"byteLength":37416,
			"byteOffset":37416,
			"target":34962
		},
		{
			"buffer":0,
			"byteLength":24944,
			"byteOffset":74832,
			"target":34962
		},
		{
			"buffer":0,
			"byteLength":10068,
			"byteOffset":99776,
			"target":34963
		},
		{
			"buffer":0,
			"byteLength":23688,
			"byteOffset":109844,
			"target":34962
		},
		{
			"buffer":0,
			"byteLength":23688,
			"byteOffset":133532,
			"target":34962
		},
		{
			"buffer":0,
			"byteLength":15792,
			"byteOffset":157220,
			"target":34962
		},
		{
			"buffer":0,
			"byteLength":14400,
			"byteOffset":173012,
			"target":34963
		}
	],
	"buffers":[
		{
			"byteLength":187412,
			"uri":"racetrack.bin"
		}
	]
}
