{
	"asset":{
		"generator":"Khronos glTF Blender I/O v3.6.27",
		"version":"2.0"
	},
	"scene":0,
	"scenes":[
		{
			"name":"Scene",
			"nodes":[
				0,
				1,
				2,
				3
			]
		}
	],
	"nodes":[
		{
			"mesh":0,
			"name":"Plane"
		},
		{
			"mesh":1,
			"name":"Plane.001",
			"translation":[
				1998.5576171875,
				-13.001784324645996,
				-34.09523391723633
			]
		},
		{
			"mesh":2,
			"name":"Cube.001",
			"scale":[
				10,
				10,
				10
			],
			"translation":[
				2307.268798828125,
				-13.001784324645996,
				-34.09523391723633
			]
		},
		{
			"mesh":3,
			"name":"Cube.002",
			"scale":[
				10,
				10,
				10
			],
			"translation":[
				-1187.715087890625,
				-13.001784324645996,
				-34.09523391723633
			]
		}
	],
	"meshes":[
		{
			"name":"Mesh",
			"primitives":[
				{
					"attributes":{
						"POSITION":0,
						"NORMAL":1,
						"TEXCOORD_0":2
					},
					"indices":3
				}
			]
		},
		{
			"name":"Plane.003",
			"primitives":[
				{
					"attributes":{
						"POSITION":4,
						"NORMAL":5,
						"TEXCOORD_0":6
					},
					"indices":7
				}
			]
		},
		{
			"name":"Cube.001",
			"primitives":[
				{
					"attributes":{
						"POSITION":8,
						"NORMAL":9,
						"TEXCOORD_0":10
					},
					"indices":11
				}
			]
		},
		{
			"name":"Cube.002",
			"primitives":[
				{
					"attributes":{
						"POSITION":12,
						"NORMAL":13,
						"TEXCOORD_0":14
					},
					"indices":11
				}
			]
		}
	],
	"accessors":[
		{
			"bufferView":0,
			"componentType":5126,
			"count":327,
			"max":[
				2323.762939453125,
				0,
				448.1235046386719
			],
			"min":[
				-2253.762939453125,
				-27.373058319091797,
				-448.1235046386719
			],
			"type":"VEC3"
		},
		{
			"bufferView":1,
			"componentType":5126,
			"count":327,
			"type":"VEC3"
		},
		{
			"bufferView":2,
			"componentType":5126,
			"count":327,
			"type":"VEC2"
		},
		{
			"bufferView":3,
			"componentType":5123,
			"count":1536,
			"type":"SCALAR"
		},
		{
			"bufferView":4,
			"componentType":5126,
			"count":342,
			"max":[
				30.455078125,
				7.461320400238037,
				9.163890838623047
			],
			"min":[
				-22.2060546875,
				-8.343064308166504,
				-22.282176971435547
			],
			"type":"VEC3"
		},
		{
			"bufferView":5,
			"componentType":5126,
			"count":342,
			"type":"VEC3"
		},
		{
			"bufferView":6,
			"componentType":5126,
			"count":342,
			"type":"VEC2"
		},
		{
			"bufferView":7,
			"componentType":5123,
			"count":900,
			"type":"SCALAR"
		},
		{
			"bufferView":8,
			"componentType":5126,
			"count":72,
			"max":[
				0.8743664026260376,
				3.9860711097717285,
				9.181861877441406
			],
			"min":[
				-1.1256335973739624,
				-1.731350302696228,
				-2.054797649383545
			],
			"type":"VEC3"
		},
		{
			"bufferView":9,
			"componentType":5126,
			"count":72,
			"type":"VEC3"
		},
		{
			"bufferView":10,
			"componentType":5126,
			"count":72,
			"type":"VEC2"
		},
		{
			"bufferView":11,
			"componentType":5123,
			"count":108,
			"type":"SCALAR"
		},
		{
			"bufferView":12,
			"componentType":5126,
			"count":72,
			"max":[
				0.8743664026260376,
				3.9860711097717285,
				9.181861877441406
			],
			"min":[
				-1.1256335973739624,
				-1.731350302696228,
				-2.054797649383545
			],
			"type":"VEC3"
		},
		{
			"bufferView":13,
			"componentType":5126,
			"count":72,
			"type":"VEC3"
		},
		{
			"bufferView":14,
			"componentType":5126,
			"count":72,
			"type":"VEC2"
		}
	],
	"bufferViews":[
		{
			"buffer":0,
			"byteLength":3924,
			"byteOffset":0,
			"target":34962
		},
		{
			"buffer":0,
			"byteLength":3924,
			"byteOffset":3924,
			"target":34962
		},
		{
			"buffer":0,
			"byteLength":2616,
			"byteOffset":7848,
			"target":34962
		},
		{
			"buffer":0,
			"byteLength":3072,
			"byteOffset":10464,
			"target":34963
		},
		{
			"buffer":0,
			"byteLength":4104,
			"byteOffset":13536,
			"target":34962
		},
		{
			"buffer":0,
			"byteLength":4104,
			"byteOffset":17640,
			"target":34962
		},
		{
			"buffer":0,
			"byteLength":2736,
			"byteOffset":21744,
			"target":34962
		},
		{
			"buffer":0,
			"byteLength":1800,
			"byteOffset":24480,
			"target":34963
		},
		{
			"buffer":0,
			"byteLength":864,
			"byteOffset":26280,
			"target":34962
		},
		{
			"buffer":0,
			"byteLength":864,
			"byteOffset":27144,
			"target":34962
		},
		{
			"buffer":0,
			"byteLength":576,
			"byteOffset":28008,
			"target":34962
		},
		{
			"buffer":0,
			"byteLength":216,
			"byteOffset":28584,
			"target":34963
		},
		{
			"buffer":0,
			"byteLength":864,
			"byteOffset":28800,
			"target":34962
		},
		{
			"buffer":0,
			"byteLength":864,
			"byteOffset":29664,
			"target":34962
		},
		{
			"buffer":0,
			"byteLength":576,
			"byteOffset":30528,
			"target":34962
		}
	],
	"buffers":[
		{
			"byteLength":31104,
			"uri":"river.bin"
		}
	]
}
