{
	"asset":{
		"generator":"Khronos glTF Blender I/O v3.6.27",
		"version":"2.0"
	},
	"scene":0,
	"scenes":[
		{
			"name":"Scene",
			"nodes":[
				0,
				1,
				2,
				3
			]
		}
	],
	"nodes":[
		{
			"mesh":0,
			"name":"Plane.001",
			"scale":[
				0.5,
				0.5,
				0.5
			],
			"translation":[
				499.639404296875,
				-3.250446319580078,
				-8.523807525634766
			]
		},
		{
			"mesh":1,
			"name":"Cube.001",
			"scale":[
				2.5,
				2.5,
				2.5
			],
			"translation":[
				576.817138671875,
				-3.250446319580078,
				-8.523807525634766
			]
		},
		{
			"mesh":2,
			"name":"Cube.002",
			"scale":[
				10,
				10,
				10
			],
			"translation":[
				-1187.715087890625,
				-13.001784324645996,
				-34.09523391723633
			]
		},
		{
			"mesh":3,
			"name":"Plane",
			"translation":[
				399.99139404296875,
				0,
				0
			]
		}
	],
	"meshes":[
		{
			"name":"Plane.003",
			"primitives":[
				{
					"attributes":{
						"POSITION":0,
						"NORMAL":1,
						"TEXCOORD_0":2
					},
					"indices":3
				}
			]
		},
		{
			"name":"Cube.001",
			"primitives":[
				{
					"attributes":{
						"POSITION":4,
						"NORMAL":5,
						"TEXCOORD_0":6
					},
					"indices":7
				}
			]
		},
		{
			"name":"Cube.002",
			"primitives":[
				{
					"attributes":{
						"POSITION":8,
						"NORMAL":9,
						"TEXCOORD_0":10
					},
					"indices":7
				}
			]
		},
		{
			"name":"Plane.002",
			"primitives":[
				{
					"attributes":{
						"POSITION":11,
						"NORMAL":12,
						"TEXCOORD_0":13
					},
					"indices":14
				}
			]
		}
	],
	"accessors":[
		{
			"bufferView":0,
			"componentType":5126,
			"count":342,
			"max":[
				30.455078125,
				7.461320400238037,
				9.163890838623047
			],
			"min":[
				-22.2060546875,
				-8.343064308166504,
				-22.282176971435547
			],
			"type":"VEC3"
		},
		{
			"bufferView":1,
			"componentType":5126,
			"count":342,
			"type":"VEC3"
		},
		{
			"bufferView":2,
			"componentType":5126,
			"count":342,
			"type":"VEC2"
		},
		{
			"bufferView":3,
			"componentType":5123,
			"count":900,
			"type":"SCALAR"
		},
		{
			"bufferView":4,
			"componentType":5126,
			"count":72,
			"max":[
				0.8743664026260376,
				3.9860711097717285,
				9.181861877441406
			],
			"min":[
				-1.1256335973739624,
				-1.731350302696228,
				-2.054797649383545
			],
			"type":"VEC3"
		},
		{
			"bufferView":5,
			"componentType":5126,
			"count":72,
			"type":"VEC3"
		},
		{
			"bufferView":6,
			"componentType":5126,
			"count":72,
			"type":"VEC2"
		},
		{
			"bufferView":7,
			"componentType":5123,
			"count":108,
			"type":"SCALAR"
		},
		{
			"bufferView":8,
			"componentType":5126,
			"count":72,
			"max":[
				0.8743664026260376,
				3.9860711097717285,
				9.181861877441406
			],
			"min":[
				-1.1256335973739624,
				-1.731350302696228,
				-2.054797649383545
			],
			"type":"VEC3"
		},
		{
			"bufferView":9,
			"componentType":5126,
			"count":72,
			"type":"VEC3"
		},
		{
			"bufferView":10,
			"componentType":5126,
			"count":72,
			"type":"VEC2"
		},
		{
			"bufferView":11,
			"componentType":5126,
			"count":6561,
			"max":[
				200,
				12.478719711303711,
				200
			],
			"min":[
				-200,
				-38.26898956298828,
				-200
			],
			"type":"VEC3"
		},
		{
			"bufferView":12,
			"componentType":5126,
			"count":6561,
			"type":"VEC3"
		},
		{
			"bufferView":13,
			"componentType":5126,
			"count":6561,
			"type":"VEC2"
		},
		{
			"bufferView":14,
			"componentType":5123,
			"count":38400,
			"type":"SCALAR"
		}
	],
	"bufferViews":[
		{
			"buffer":0,
			"byteLength":4104,
			"byteOffset":0,
			"target":34962
		},
		{
			"buffer":0,
			"byteLength":4104,
			"byteOffset":4104,
			"target":34962
		},
		{
			"buffer":0,
			"byteLength":2736,
			"byteOffset":8208,
			"target":34962
		},
		{
			"buffer":0,
			"byteLength":1800,
			"byteOffset":10944,
			"target":34963
		},
		{
			"buffer":0,
			"byteLength":864,
			"byteOffset":12744,
			"target":34962
		},
		{
			"buffer":0,
			"byteLength":864,
			"byteOffset":13608,
			"target":34962
		},
		{
			"buffer":0,
			"byteLength":576,
			"byteOffset":14472,
			"target":34962
		},
		{
			"buffer":0,
			"byteLength":216,
			"byteOffset":15048,
			"target":34963
		},
		{
			"buffer":0,
			"byteLength":864,
			"byteOffset":15264,
			"target":34962
		},
		{
			"buffer":0,
			"byteLength":864,
			"byteOffset":16128,
			"target":34962
		},
		{
			"buffer":0,
			"byteLength":576,
			"byteOffset":16992,
			"target":34962
		},
		{
			"buffer":0,
			"byteLength":78732,
			"byteOffset":17568,
			"target":34962
		},
		{
			"buffer":0,
			"byteLength":78732,
			"byteOffset":96300,
			"target":34962
		},
		{
			"buffer":0,
			"byteLength":52488,
			"byteOffset":175032,
			"target":34962
		},
		{
			"buffer":0,
			"byteLength":76800,
			"byteOffset":227520,
			"target":34963
		}
	],
	"buffers":[
		{
			"byteLength":304320,
			"uri":"river.bin"
		}
	]
}
