{
	"asset":{
		"generator":"Khronos glTF Blender I/O v3.6.27",
		"version":"2.0"
	},
	"scene":0,
	"scenes":[
		{
			"name":"Scene",
			"nodes":[
				0,
				1,
				2
			]
		}
	],
	"nodes":[
		{
			"mesh":0,
			"name":"Cube"
		},
		{
			"mesh":1,
			"name":"Plane"
		},
		{
			"mesh":2,
			"name":"Plane.001",
			"translation":[
				0,
				21,
				0
			]
		}
	],
	"materials":[
		{
			"name":"Material",
			"pbrMetallicRoughness":{
				"baseColorTexture":{
					"index":0
				},
				"metallicFactor":0,
				"roughnessFactor":0.5
			}
		},
		{
			"name":"Material",
			"pbrMetallicRoughness":{
				"baseColorTexture":{
					"index":1
				},
				"metallicFactor":0,
				"roughnessFactor":0.5
			}
		}
	],
	"meshes":[
		{
			"name":"Cube",
			"primitives":[
				{
					"attributes":{
						"POSITION":0,
						"NORMAL":1,
						"TEXCOORD_0":2
					},
					"indices":3,
					"material":0
				}
			]
		},
		{
			"name":"Plane.001",
			"primitives":[
				{
					"attributes":{
						"POSITION":4,
						"NORMAL":5,
						"TEXCOORD_0":6
					},
					"indices":7,
					"material":1
				}
			]
		},
		{
			"name":"Plane.002",
			"primitives":[
				{
					"attributes":{
						"POSITION":8,
						"NORMAL":9,
						"TEXCOORD_0":10
					},
					"indices":7,
					"material":1
				}
			]
		}
	],
	"textures":[
		{
			"sampler":0,
			"source":0
		},
		{
			"sampler":0,
			"source":0
		}
	],
	"images":[
		{
			"mimeType":"image/png",
			"name":"grid.png",
			"uri":"grid.png"
		}
	],
	"accessors":[
		{
			"bufferView":0,
			"componentType":5126,
			"count":4311,
			"max":[
				121,
				23,
				23
			],
			"min":[
				-40,
				-1.3295886516571045,
				-114
			],
			"type":"VEC3"
		},
		{
			"bufferView":1,
			"componentType":5126,
			"count":4311,
			"type":"VEC3"
		},
		{
			"bufferView":2,
			"componentType":5126,
			"count":4311,
			"type":"VEC2"
		},
		{
			"bufferView":3,
			"componentType":5123,
			"count":7578,
			"type":"SCALAR"
		},
		{
			"bufferView":4,
			"componentType":5126,
			"count":4,
			"max":[
				120,
				0,
				22
			],
			"min":[
				-40,
				0,
				-120
			],
			"type":"VEC3"
		},
		{
			"bufferView":5,
			"componentType":5126,
			"count":4,
			"type":"VEC3"
		},
		{
			"bufferView":6,
			"componentType":5126,
			"count":4,
			"type":"VEC2"
		},
		{
			"bufferView":7,
			"componentType":5123,
			"count":6,
			"type":"SCALAR"
		},
		{
			"bufferView":8,
			"componentType":5126,
			"count":4,
			"max":[
				120,
				6.993822353251744e-06,
				22
			],
			"min":[
				-40,
				-6.993822353251744e-06,
				-120
			],
			"type":"VEC3"
		},
		{
			"bufferView":9,
			"componentType":5126,
			"count":4,
			"type":"VEC3"
		},
		{
			"bufferView":10,
			"componentType":5126,
			"count":4,
			"type":"VEC2"
		}
	],
	"bufferViews":[
		{
			"buffer":0,
			"byteLength":51732,
			"byteOffset":0,
			"target":34962
		},
		{
			"buffer":0,
			"byteLength":51732,
			"byteOffset":51732,
			"target":34962
		},
		{
			"buffer":0,
			"byteLength":34488,
			"byteOffset":103464,
			"target":34962
		},
		{
			"buffer":0,
			"byteLength":15156,
			"byteOffset":137952,
			"target":34963
		},
		{
			"buffer":0,
			"byteLength":48,
			"byteOffset":153108,
			"target":34962
		},
		{
			"buffer":0,
			"byteLength":48,
			"byteOffset":153156,
			"target":34962
		},
		{
			"buffer":0,
			"byteLength":32,
			"byteOffset":153204,
			"target":34962
		},
		{
			"buffer":0,
			"byteLength":12,
			"byteOffset":153236,
			"target":34963
		},
		{
			"buffer":0,
			"byteLength":48,
			"byteOffset":153248,
			"target":34962
		},
		{
			"buffer":0,
			"byteLength":48,
			"byteOffset":153296,
			"target":34962
		},
		{
			"buffer":0,
			"byteLength":32,
			"byteOffset":153344,
			"target":34962
		}
	],
	"samplers":[
		{
			"magFilter":9729,
			"minFilter":9987
		}
	],
	"buffers":[
		{
			"byteLength":153376,
			"uri":"supermarket.bin"
		}
	]
}
