{
	"asset":{
		"generator":"Khronos glTF Blender I/O v3.6.27",
		"version":"2.0"
	},
	"scene":0,
	"scenes":[
		{
			"name":"Scene",
			"nodes":[
				0,
				1
			]
		}
	],
	"nodes":[
		{
			"mesh":0,
			"name":"Cube"
		},
		{
			"mesh":1,
			"name":"Plane"
		}
	],
	"meshes":[
		{
			"name":"Cube",
			"primitives":[
				{
					"attributes":{
						"POSITION":0,
						"NORMAL":1,
						"TEXCOORD_0":2
					},
					"indices":3
				}
			]
		},
		{
			"name":"Plane.001",
			"primitives":[
				{
					"attributes":{
						"POSITION":4,
						"NORMAL":5,
						"TEXCOORD_0":6
					},
					"indices":7
				}
			]
		}
	],
	"accessors":[
		{
			"bufferView":0,
			"componentType":5126,
			"count":1811,
			"max":[
				62,
				15,
				23
			],
			"min":[
				-40,
				-2.384185791015625e-07,
				-34
			],
			"type":"VEC3"
		},
		{
			"bufferView":1,
			"componentType":5126,
			"count":1811,
			"type":"VEC3"
		},
		{
			"bufferView":2,
			"componentType":5126,
			"count":1811,
			"type":"VEC2"
		},
		{
			"bufferView":3,
			"componentType":5123,
			"count":3006,
			"type":"SCALAR"
		},
		{
			"bufferView":4,
			"componentType":5126,
			"count":4,
			"max":[
				62,
				0,
				22
			],
			"min":[
				-40,
				0,
				-34
			],
			"type":"VEC3"
		},
		{
			"bufferView":5,
			"componentType":5126,
			"count":4,
			"type":"VEC3"
		},
		{
			"bufferView":6,
			"componentType":5126,
			"count":4,
			"type":"VEC2"
		},
		{
			"bufferView":7,
			"componentType":5123,
			"count":6,
			"type":"SCALAR"
		}
	],
	"bufferViews":[
		{
			"buffer":0,
			"byteLength":21732,
			"byteOffset":0,
			"target":34962
		},
		{
			"buffer":0,
			"byteLength":21732,
			"byteOffset":21732,
			"target":34962
		},
		{
			"buffer":0,
			"byteLength":14488,
			"byteOffset":43464,
			"target":34962
		},
		{
			"buffer":0,
			"byteLength":6012,
			"byteOffset":57952,
			"target":34963
		},
		{
			"buffer":0,
			"byteLength":48,
			"byteOffset":63964,
			"target":34962
		},
		{
			"buffer":0,
			"byteLength":48,
			"byteOffset":64012,
			"target":34962
		},
		{
			"buffer":0,
			"byteLength":32,
			"byteOffset":64060,
			"target":34962
		},
		{
			"buffer":0,
			"byteLength":12,
			"byteOffset":64092,
			"target":34963
		}
	],
	"buffers":[
		{
			"byteLength":64104,
			"uri":"supermarket.bin"
		}
	]
}
