{
	"asset":{
		"generator":"Khronos glTF Blender I/O v3.6.27",
		"version":"2.0"
	},
	"scene":0,
	"scenes":[
		{
			"name":"Scene",
			"nodes":[
				0,
				1,
				2
			]
		}
	],
	"nodes":[
		{
			"mesh":0,
			"name":"Plane"
		},
		{
			"mesh":1,
			"name":"Cube",
			"translation":[
				0,
				0,
				-13.423455238342285
			]
		},
		{
			"mesh":2,
			"name":"Cube.001"
		}
	],
	"meshes":[
		{
			"name":"Plane",
			"primitives":[
				{
					"attributes":{
						"POSITION":0,
						"NORMAL":1,
						"TEXCOORD_0":2
					},
					"indices":3
				}
			]
		},
		{
			"name":"Cube.002",
			"primitives":[
				{
					"attributes":{
						"POSITION":4,
						"NORMAL":5,
						"TEXCOORD_0":6
					},
					"indices":7
				}
			]
		},
		{
			"name":"Cube.003",
			"primitives":[
				{
					"attributes":{
						"POSITION":8,
						"NORMAL":9,
						"TEXCOORD_0":10
					},
					"indices":11
				}
			]
		}
	],
	"accessors":[
		{
			"bufferView":0,
			"componentType":5126,
			"count":4,
			"max":[
				10,
				0,
				50
			],
			"min":[
				-10,
				0,
				-60
			],
			"type":"VEC3"
		},
		{
			"bufferView":1,
			"componentType":5126,
			"count":4,
			"type":"VEC3"
		},
		{
			"bufferView":2,
			"componentType":5126,
			"count":4,
			"type":"VEC2"
		},
		{
			"bufferView":3,
			"componentType":5123,
			"count":6,
			"type":"SCALAR"
		},
		{
			"bufferView":4,
			"componentType":5126,
			"count":416,
			"max":[
				3,
				1,
				5.597724914550781
			],
			"min":[
				-3,
				-0.17499876022338867,
				-8.884438514709473
			],
			"type":"VEC3"
		},
		{
			"bufferView":5,
			"componentType":5126,
			"count":416,
			"type":"VEC3"
		},
		{
			"bufferView":6,
			"componentType":5126,
			"count":416,
			"type":"VEC2"
		},
		{
			"bufferView":7,
			"componentType":5123,
			"count":804,
			"type":"SCALAR"
		},
		{
			"bufferView":8,
			"componentType":5126,
			"count":34,
			"max":[
				1,
				1,
				1
			],
			"min":[
				-1,
				-1,
				-4
			],
			"type":"VEC3"
		},
		{
			"bufferView":9,
			"componentType":5126,
			"count":34,
			"type":"VEC3"
		},
		{
			"bufferView":10,
			"componentType":5126,
			"count":34,
			"type":"VEC2"
		},
		{
			"bufferView":11,
			"componentType":5123,
			"count":60,
			"type":"SCALAR"
		}
	],
	"bufferViews":[
		{
			"buffer":0,
			"byteLength":48,
			"byteOffset":0,
			"target":34962
		},
		{
			"buffer":0,
			"byteLength":48,
			"byteOffset":48,
			"target":34962
		},
		{
			"buffer":0,
			"byteLength":32,
			"byteOffset":96,
			"target":34962
		},
		{
			"buffer":0,
			"byteLength":12,
			"byteOffset":128,
			"target":34963
		},
		{
			"buffer":0,
			"byteLength":4992,
			"byteOffset":140,
			"target":34962
		},
		{
			"buffer":0,
			"byteLength":4992,
			"byteOffset":5132,
			"target":34962
		},
		{
			"buffer":0,
			"byteLength":3328,
			"byteOffset":10124,
			"target":34962
		},
		{
			"buffer":0,
			"byteLength":1608,
			"byteOffset":13452,
			"target":34963
		},
		{
			"buffer":0,
			"byteLength":408,
			"byteOffset":15060,
			"target":34962
		},
		{
			"buffer":0,
			"byteLength":408,
			"byteOffset":15468,
			"target":34962
		},
		{
			"buffer":0,
			"byteLength":272,
			"byteOffset":15876,
			"target":34962
		},
		{
			"buffer":0,
			"byteLength":120,
			"byteOffset":16148,
			"target":34963
		}
	],
	"buffers":[
		{
			"byteLength":16268,
			"uri":"testmap.bin"
		}
	]
}
