{
	"asset":{
		"generator":"Khronos glTF Blender I/O v3.6.27",
		"version":"2.0"
	},
	"scene":0,
	"scenes":[
		{
			"name":"Scene",
			"nodes":[
				0,
				1,
				2,
				3
			]
		}
	],
	"nodes":[
		{
			"mesh":0,
			"name":"Cube"
		},
		{
			"mesh":1,
			"name":"Cube.002",
			"scale":[
				1.5,
				1.5,
				1.5
			],
			"translation":[
				0,
				1,
				-6
			]
		},
		{
			"mesh":2,
			"name":"Cube.001",
			"scale":[
				1.5,
				1.5,
				1.5
			],
			"translation":[
				3,
				1,
				-11
			]
		},
		{
			"mesh":3,
			"name":"Cube.003",
			"scale":[
				1.5,
				1.5,
				1.5
			],
			"translation":[
				6,
				1,
				-6
			]
		}
	],
	"materials":[
		{
			"name":"Material",
			"pbrMetallicRoughness":{
				"baseColorFactor":[
					0.18781597912311554,
					0.18781597912311554,
					0.18781597912311554,
					1
				],
				"metallicFactor":0
			}
		}
	],
	"meshes":[
		{
			"name":"Cube",
			"primitives":[
				{
					"attributes":{
						"POSITION":0,
						"NORMAL":1,
						"TEXCOORD_0":2
					},
					"indices":3,
					"material":0
				}
			]
		},
		{
			"name":"Cube.002",
			"primitives":[
				{
					"attributes":{
						"POSITION":4,
						"NORMAL":5,
						"TEXCOORD_0":6
					},
					"indices":7
				}
			]
		},
		{
			"name":"Cube.003",
			"primitives":[
				{
					"attributes":{
						"POSITION":8,
						"NORMAL":9,
						"TEXCOORD_0":10
					},
					"indices":7
				}
			]
		},
		{
			"name":"Cube.004",
			"primitives":[
				{
					"attributes":{
						"POSITION":11,
						"NORMAL":12,
						"TEXCOORD_0":13
					},
					"indices":7
				}
			]
		}
	],
	"accessors":[
		{
			"bufferView":0,
			"componentType":5126,
			"count":36,
			"max":[
				7,
				4,
				11
			],
			"min":[
				0,
				0,
				0
			],
			"type":"VEC3"
		},
		{
			"bufferView":1,
			"componentType":5126,
			"count":36,
			"type":"VEC3"
		},
		{
			"bufferView":2,
			"componentType":5126,
			"count":36,
			"type":"VEC2"
		},
		{
			"bufferView":3,
			"componentType":5123,
			"count":90,
			"type":"SCALAR"
		},
		{
			"bufferView":4,
			"componentType":5126,
			"count":24,
			"max":[
				1.3333333730697632,
				1.3333333730697632,
				1.3333333730697632
			],
			"min":[
				-0.6666666269302368,
				-0.6666666269302368,
				-0.6666666269302368
			],
			"type":"VEC3"
		},
		{
			"bufferView":5,
			"componentType":5126,
			"count":24,
			"type":"VEC3"
		},
		{
			"bufferView":6,
			"componentType":5126,
			"count":24,
			"type":"VEC2"
		},
		{
			"bufferView":7,
			"componentType":5123,
			"count":36,
			"type":"SCALAR"
		},
		{
			"bufferView":8,
			"componentType":5126,
			"count":24,
			"max":[
				1.3333333730697632,
				1.3333333730697632,
				1.3333333730697632
			],
			"min":[
				-0.6666666269302368,
				-0.6666666269302368,
				-0.6666666269302368
			],
			"type":"VEC3"
		},
		{
			"bufferView":9,
			"componentType":5126,
			"count":24,
			"type":"VEC3"
		},
		{
			"bufferView":10,
			"componentType":5126,
			"count":24,
			"type":"VEC2"
		},
		{
			"bufferView":11,
			"componentType":5126,
			"count":24,
			"max":[
				1.3333333730697632,
				1.3333333730697632,
				1.3333333730697632
			],
			"min":[
				-0.6666666269302368,
				-0.6666666269302368,
				-0.6666666269302368
			],
			"type":"VEC3"
		},
		{
			"bufferView":12,
			"componentType":5126,
			"count":24,
			"type":"VEC3"
		},
		{
			"bufferView":13,
			"componentType":5126,
			"count":24,
			"type":"VEC2"
		}
	],
	"bufferViews":[
		{
			"buffer":0,
			"byteLength":432,
			"byteOffset":0,
			"target":34962
		},
		{
			"buffer":0,
			"byteLength":432,
			"byteOffset":432,
			"target":34962
		},
		{
			"buffer":0,
			"byteLength":288,
			"byteOffset":864,
			"target":34962
		},
		{
			"buffer":0,
			"byteLength":180,
			"byteOffset":1152,
			"target":34963
		},
		{
			"buffer":0,
			"byteLength":288,
			"byteOffset":1332,
			"target":34962
		},
		{
			"buffer":0,
			"byteLength":288,
			"byteOffset":1620,
			"target":34962
		},
		{
			"buffer":0,
			"byteLength":192,
			"byteOffset":1908,
			"target":34962
		},
		{
			"buffer":0,
			"byteLength":72,
			"byteOffset":2100,
			"target":34963
		},
		{
			"buffer":0,
			"byteLength":288,
			"byteOffset":2172,
			"target":34962
		},
		{
			"buffer":0,
			"byteLength":288,
			"byteOffset":2460,
			"target":34962
		},
		{
			"buffer":0,
			"byteLength":192,
			"byteOffset":2748,
			"target":34962
		},
		{
			"buffer":0,
			"byteLength":288,
			"byteOffset":2940,
			"target":34962
		},
		{
			"buffer":0,
			"byteLength":288,
			"byteOffset":3228,
			"target":34962
		},
		{
			"buffer":0,
			"byteLength":192,
			"byteOffset":3516,
			"target":34962
		}
	],
	"buffers":[
		{
			"byteLength":3708,
			"uri":"storage_room.bin"
		}
	]
}
