{
	"asset":{
		"generator":"Khronos glTF Blender I/O v3.6.27",
		"version":"2.0"
	},
	"scene":0,
	"scenes":[
		{
			"name":"Scene",
			"nodes":[
				0,
				1,
				2,
				3,
				4,
				5,
				6,
				7,
				8,
				9,
				10,
				11,
				12,
				13,
				14,
				15,
				16
			]
		}
	],
	"nodes":[
		{
			"mesh":0,
			"name":"Walls",
			"translation":[
				1.0000001192092896,
				0,
				0
			]
		},
		{
			"mesh":1,
			"name":"Barrel",
			"translation":[
				2.000000238418579,
				0.5,
				6.400000095367432
			]
		},
		{
			"mesh":2,
			"name":"Barrel.001",
			"translation":[
				2.000000238418579,
				0.5,
				5.25
			]
		},
		{
			"mesh":3,
			"name":"Barrel.002",
			"translation":[
				2.000000238418579,
				0.5,
				4.099999904632568
			]
		},
		{
			"mesh":4,
			"name":"Barrel.003",
			"rotation":[
				-0.2588190734386444,
				0,
				0,
				0.965925931930542
			],
			"translation":[
				2.000000238418579,
				1.3928800821304321,
				5.823733329772949
			]
		},
		{
			"mesh":5,
			"name":"Barrel.004",
			"rotation":[
				-0.2588190734386444,
				0,
				0,
				0.965925931930542
			],
			"translation":[
				2.000000238418579,
				1.3928800821304321,
				4.673893928527832
			]
		},
		{
			"mesh":6,
			"name":"Barrel.005",
			"translation":[
				7,
				0.5,
				6.400000095367432
			]
		},
		{
			"mesh":7,
			"name":"Barrel.006",
			"translation":[
				7,
				0.5,
				5.25
			]
		},
		{
			"mesh":8,
			"name":"Barrel.007",
			"rotation":[
				0,
				0.7071068286895752,
				0,
				0.7071068286895752
			],
			"translation":[
				7.399999618530273,
				0.5,
				0.9000000357627869
			]
		},
		{
			"mesh":9,
			"name":"Barrel.008",
			"rotation":[
				0.3826834261417389,
				-0.9238795638084412,
				0,
				1.9830707742585219e-07
			],
			"translation":[
				6.392879486083984,
				0.9525337815284729,
				0.9000000357627869
			]
		},
		{
			"mesh":10,
			"name":"SeparatingWall",
			"translation":[
				1.0000001192092896,
				0,
				0
			]
		},
		{
			"mesh":11,
			"name":"ArchBig",
			"translation":[
				1.0000001192092896,
				0,
				0
			]
		},
		{
			"mesh":12,
			"name":"ArchSmall",
			"translation":[
				2.000000238418579,
				1,
				1.399999976158142
			]
		},
		{
			"mesh":13,
			"name":"Stairs",
			"translation":[
				1.0000001192092896,
				0,
				0
			]
		},
		{
			"mesh":14,
			"name":"DoorwayCover0",
			"translation":[
				-0.30000001192092896,
				0,
				0
			]
		},
		{
			"mesh":15,
			"name":"DoorwayCover1"
		},
		{
			"mesh":16,
			"name":"DoorwayCover2",
			"rotation":[
				0,
				-1,
				0,
				1.6292068494294654e-07
			]
		}
	],
	"materials":[
		{
			"name":"Material",
			"pbrMetallicRoughness":{
				"baseColorFactor":[
					0.18781597912311554,
					0.18781597912311554,
					0.18781597912311554,
					1
				],
				"metallicFactor":0
			}
		},
		{
			"doubleSided":true,
			"name":"Barrel",
			"pbrMetallicRoughness":{
				"baseColorFactor":[
					0.2461949586868286,
					0.10023420304059982,
					0.047108184546232224,
					1
				],
				"metallicFactor":0
			}
		},
		{
			"doubleSided":true,
			"name":"Material.001",
			"pbrMetallicRoughness":{
				"baseColorFactor":[
					0.11128408461809158,
					0.11128408461809158,
					0.11128408461809158,
					1
				],
				"metallicFactor":0,
				"metallicRoughnessTexture":{
					"index":0
				}
			}
		},
		{
			"doubleSided":true,
			"name":"Material.003",
			"pbrMetallicRoughness":{
				"baseColorFactor":[
					0.07015053182840347,
					0.0358077809214592,
					0.017635023221373558,
					1
				],
				"metallicRoughnessTexture":{
					"index":1
				}
			}
		},
		{
			"doubleSided":true,
			"name":"Metal",
			"pbrMetallicRoughness":{
				"baseColorFactor":[
					0.32687658071517944,
					0.26898276805877686,
					0.23968006670475006,
					1
				],
				"roughnessFactor":0.48636364936828613
			}
		}
	],
	"meshes":[
		{
			"name":"Cube",
			"primitives":[
				{
					"attributes":{
						"POSITION":0,
						"NORMAL":1,
						"TEXCOORD_0":2,
						"TEXCOORD_1":3
					},
					"indices":4,
					"material":0
				}
			]
		},
		{
			"name":"Cylinder",
			"primitives":[
				{
					"attributes":{
						"POSITION":5,
						"NORMAL":6,
						"TEXCOORD_0":7
					},
					"indices":8,
					"material":1
				}
			]
		},
		{
			"name":"Cylinder.001",
			"primitives":[
				{
					"attributes":{
						"POSITION":9,
						"NORMAL":10,
						"TEXCOORD_0":11
					},
					"indices":8,
					"material":1
				}
			]
		},
		{
			"name":"Cylinder.002",
			"primitives":[
				{
					"attributes":{
						"POSITION":12,
						"NORMAL":13,
						"TEXCOORD_0":14
					},
					"indices":8,
					"material":1
				}
			]
		},
		{
			"name":"Cylinder.003",
			"primitives":[
				{
					"attributes":{
						"POSITION":15,
						"NORMAL":16,
						"TEXCOORD_0":17
					},
					"indices":8,
					"material":1
				}
			]
		},
		{
			"name":"Cylinder.004",
			"primitives":[
				{
					"attributes":{
						"POSITION":18,
						"NORMAL":19,
						"TEXCOORD_0":20
					},
					"indices":8,
					"material":1
				}
			]
		},
		{
			"name":"Cylinder.005",
			"primitives":[
				{
					"attributes":{
						"POSITION":21,
						"NORMAL":22,
						"TEXCOORD_0":23
					},
					"indices":8,
					"material":1
				}
			]
		},
		{
			"name":"Cylinder.006",
			"primitives":[
				{
					"attributes":{
						"POSITION":24,
						"NORMAL":25,
						"TEXCOORD_0":26
					},
					"indices":8,
					"material":1
				}
			]
		},
		{
			"name":"Cylinder.007",
			"primitives":[
				{
					"attributes":{
						"POSITION":27,
						"NORMAL":28,
						"TEXCOORD_0":29
					},
					"indices":8,
					"material":1
				}
			]
		},
		{
			"name":"Cylinder.008",
			"primitives":[
				{
					"attributes":{
						"POSITION":30,
						"NORMAL":31,
						"TEXCOORD_0":32
					},
					"indices":8,
					"material":1
				}
			]
		},
		{
			"name":"Cube.001",
			"primitives":[
				{
					"attributes":{
						"POSITION":33,
						"NORMAL":34,
						"TEXCOORD_0":35,
						"TEXCOORD_1":36
					},
					"indices":37,
					"material":0
				}
			]
		},
		{
			"name":"Cube.004",
			"primitives":[
				{
					"attributes":{
						"POSITION":38,
						"NORMAL":39,
						"TEXCOORD_0":40,
						"TEXCOORD_1":41
					},
					"indices":42,
					"material":0
				}
			]
		},
		{
			"name":"Cube.005",
			"primitives":[
				{
					"attributes":{
						"POSITION":43,
						"NORMAL":44,
						"TEXCOORD_0":45
					},
					"indices":46,
					"material":0
				}
			]
		},
		{
			"name":"Cube.002",
			"primitives":[
				{
					"attributes":{
						"POSITION":47,
						"NORMAL":48,
						"TEXCOORD_0":49,
						"TEXCOORD_1":50
					},
					"indices":51,
					"material":0
				}
			]
		},
		{
			"name":"Plane",
			"primitives":[
				{
					"attributes":{
						"POSITION":52,
						"NORMAL":53,
						"TEXCOORD_0":54
					},
					"indices":55,
					"material":0
				},
				{
					"attributes":{
						"POSITION":56,
						"NORMAL":57,
						"TEXCOORD_0":58
					},
					"indices":59,
					"material":2
				},
				{
					"attributes":{
						"POSITION":60,
						"NORMAL":61,
						"TEXCOORD_0":62
					},
					"indices":63,
					"material":3
				},
				{
					"attributes":{
						"POSITION":64,
						"NORMAL":65,
						"TEXCOORD_0":66
					},
					"indices":67,
					"material":4
				}
			]
		},
		{
			"name":"Plane.001",
			"primitives":[
				{
					"attributes":{
						"POSITION":68,
						"NORMAL":69,
						"TEXCOORD_0":70
					},
					"indices":71,
					"material":0
				}
			]
		},
		{
			"name":"Plane.002",
			"primitives":[
				{
					"attributes":{
						"POSITION":72,
						"NORMAL":73,
						"TEXCOORD_0":74
					},
					"indices":71,
					"material":0
				}
			]
		}
	],
	"textures":[
		{
			"sampler":0,
			"source":0
		},
		{
			"sampler":0,
			"source":1
		}
	],
	"images":[
		{
			"mimeType":"image/png",
			"name":"door_frame_roughness.png.002",
			"uri":"../../../../entity/object/door/textures/door_frame_roughness.png"
		},
		{
			"mimeType":"image/png",
			"name":"door_roughness.png",
			"uri":"../../../../entity/object/door/textures/door_roughness.png"
		}
	],
	"accessors":[
		{
			"bufferView":0,
			"componentType":5126,
			"count":125,
			"max":[
				7,
				5,
				11
			],
			"min":[
				-1,
				0,
				0
			],
			"type":"VEC3"
		},
		{
			"bufferView":1,
			"componentType":5126,
			"count":125,
			"type":"VEC3"
		},
		{
			"bufferView":2,
			"componentType":5126,
			"count":125,
			"type":"VEC2"
		},
		{
			"bufferView":3,
			"componentType":5126,
			"count":125,
			"type":"VEC2"
		},
		{
			"bufferView":4,
			"componentType":5123,
			"count":222,
			"type":"SCALAR"
		},
		{
			"bufferView":5,
			"componentType":5126,
			"count":36,
			"max":[
				0.8438041806221008,
				0.48717060685157776,
				0.5625360608100891
			],
			"min":[
				-0.8438041806221008,
				-0.48717057704925537,
				-0.5625360608100891
			],
			"type":"VEC3"
		},
		{
			"bufferView":6,
			"componentType":5126,
			"count":36,
			"type":"VEC3"
		},
		{
			"bufferView":7,
			"componentType":5126,
			"count":36,
			"type":"VEC2"
		},
		{
			"bufferView":8,
			"componentType":5123,
			"count":60,
			"type":"SCALAR"
		},
		{
			"bufferView":9,
			"componentType":5126,
			"count":36,
			"max":[
				0.8438041806221008,
				0.48717060685157776,
				0.5625360608100891
			],
			"min":[
				-0.8438041806221008,
				-0.48717057704925537,
				-0.5625360608100891
			],
			"type":"VEC3"
		},
		{
			"bufferView":10,
			"componentType":5126,
			"count":36,
			"type":"VEC3"
		},
		{
			"bufferView":11,
			"componentType":5126,
			"count":36,
			"type":"VEC2"
		},
		{
			"bufferView":12,
			"componentType":5126,
			"count":36,
			"max":[
				0.8438041806221008,
				0.48717060685157776,
				0.5625360608100891
			],
			"min":[
				-0.8438041806221008,
				-0.48717057704925537,
				-0.5625360608100891
			],
			"type":"VEC3"
		},
		{
			"bufferView":13,
			"componentType":5126,
			"count":36,
			"type":"VEC3"
		},
		{
			"bufferView":14,
			"componentType":5126,
			"count":36,
			"type":"VEC2"
		},
		{
			"bufferView":15,
			"componentType":5126,
			"count":36,
			"max":[
				0.8438041806221008,
				0.48717060685157776,
				0.5625360608100891
			],
			"min":[
				-0.8438041806221008,
				-0.48717057704925537,
				-0.5625360608100891
			],
			"type":"VEC3"
		},
		{
			"bufferView":16,
			"componentType":5126,
			"count":36,
			"type":"VEC3"
		},
		{
			"bufferView":17,
			"componentType":5126,
			"count":36,
			"type":"VEC2"
		},
		{
			"bufferView":18,
			"componentType":5126,
			"count":36,
			"max":[
				0.8438041806221008,
				0.48717060685157776,
				0.5625360608100891
			],
			"min":[
				-0.8438041806221008,
				-0.48717057704925537,
				-0.5625360608100891
			],
			"type":"VEC3"
		},
		{
			"bufferView":19,
			"componentType":5126,
			"count":36,
			"type":"VEC3"
		},
		{
			"bufferView":20,
			"componentType":5126,
			"count":36,
			"type":"VEC2"
		},
		{
			"bufferView":21,
			"componentType":5126,
			"count":36,
			"max":[
				0.8438041806221008,
				0.48717060685157776,
				0.5625360608100891
			],
			"min":[
				-0.8438041806221008,
				-0.48717057704925537,
				-0.5625360608100891
			],
			"type":"VEC3"
		},
		{
			"bufferView":22,
			"componentType":5126,
			"count":36,
			"type":"VEC3"
		},
		{
			"bufferView":23,
			"componentType":5126,
			"count":36,
			"type":"VEC2"
		},
		{
			"bufferView":24,
			"componentType":5126,
			"count":36,
			"max":[
				0.8438041806221008,
				0.48717060685157776,
				0.5625360608100891
			],
			"min":[
				-0.8438041806221008,
				-0.48717057704925537,
				-0.5625360608100891
			],
			"type":"VEC3"
		},
		{
			"bufferView":25,
			"componentType":5126,
			"count":36,
			"type":"VEC3"
		},
		{
			"bufferView":26,
			"componentType":5126,
			"count":36,
			"type":"VEC2"
		},
		{
			"bufferView":27,
			"componentType":5126,
			"count":36,
			"max":[
				0.8438041806221008,
				0.48717060685157776,
				0.5625360608100891
			],
			"min":[
				-0.8438041806221008,
				-0.48717057704925537,
				-0.5625360608100891
			],
			"type":"VEC3"
		},
		{
			"bufferView":28,
			"componentType":5126,
			"count":36,
			"type":"VEC3"
		},
		{
			"bufferView":29,
			"componentType":5126,
			"count":36,
			"type":"VEC2"
		},
		{
			"bufferView":30,
			"componentType":5126,
			"count":36,
			"max":[
				0.8438041806221008,
				0.48717060685157776,
				0.5625360608100891
			],
			"min":[
				-0.8438041806221008,
				-0.48717057704925537,
				-0.5625360608100891
			],
			"type":"VEC3"
		},
		{
			"bufferView":31,
			"componentType":5126,
			"count":36,
			"type":"VEC3"
		},
		{
			"bufferView":32,
			"componentType":5126,
			"count":36,
			"type":"VEC2"
		},
		{
			"bufferView":33,
			"componentType":5126,
			"count":24,
			"max":[
				2,
				4,
				3.506800889968872
			],
			"min":[
				-1,
				0,
				2.4000000953674316
			],
			"type":"VEC3"
		},
		{
			"bufferView":34,
			"componentType":5126,
			"count":24,
			"type":"VEC3"
		},
		{
			"bufferView":35,
			"componentType":5126,
			"count":24,
			"type":"VEC2"
		},
		{
			"bufferView":36,
			"componentType":5126,
			"count":24,
			"type":"VEC2"
		},
		{
			"bufferView":37,
			"componentType":5123,
			"count":36,
			"type":"SCALAR"
		},
		{
			"bufferView":38,
			"componentType":5126,
			"count":124,
			"max":[
				7,
				4,
				8
			],
			"min":[
				0,
				0,
				7
			],
			"type":"VEC3"
		},
		{
			"bufferView":39,
			"componentType":5126,
			"count":124,
			"type":"VEC3"
		},
		{
			"bufferView":40,
			"componentType":5126,
			"count":124,
			"type":"VEC2"
		},
		{
			"bufferView":41,
			"componentType":5126,
			"count":124,
			"type":"VEC2"
		},
		{
			"bufferView":42,
			"componentType":5123,
			"count":276,
			"type":"SCALAR"
		},
		{
			"bufferView":43,
			"componentType":5126,
			"count":134,
			"max":[
				1,
				3,
				1
			],
			"min":[
				0.5000001192092896,
				-1,
				-1.399999976158142
			],
			"type":"VEC3"
		},
		{
			"bufferView":44,
			"componentType":5126,
			"count":134,
			"type":"VEC3"
		},
		{
			"bufferView":45,
			"componentType":5126,
			"count":134,
			"type":"VEC2"
		},
		{
			"bufferView":46,
			"componentType":5123,
			"count":300,
			"type":"SCALAR"
		},
		{
			"bufferView":47,
			"componentType":5126,
			"count":286,
			"max":[
				3.054047107696533,
				2,
				3
			],
			"min":[
				-1,
				0,
				0
			],
			"type":"VEC3"
		},
		{
			"bufferView":48,
			"componentType":5126,
			"count":286,
			"type":"VEC3"
		},
		{
			"bufferView":49,
			"componentType":5126,
			"count":286,
			"type":"VEC2"
		},
		{
			"bufferView":50,
			"componentType":5126,
			"count":286,
			"type":"VEC2"
		},
		{
			"bufferView":51,
			"componentType":5123,
			"count":924,
			"type":"SCALAR"
		},
		{
			"bufferView":52,
			"componentType":5126,
			"count":20,
			"max":[
				0.30000001192092896,
				5,
				3
			],
			"min":[
				0,
				2,
				8.940696716308594e-08
			],
			"type":"VEC3"
		},
		{
			"bufferView":53,
			"componentType":5126,
			"count":20,
			"type":"VEC3"
		},
		{
			"bufferView":54,
			"componentType":5126,
			"count":20,
			"type":"VEC2"
		},
		{
			"bufferView":55,
			"componentType":5123,
			"count":30,
			"type":"SCALAR"
		},
		{
			"bufferView":56,
			"componentType":5126,
			"count":386,
			"max":[
				0.32156991958618164,
				4.873332977294922,
				2.383575439453125
			],
			"min":[
				-0.27874282002449036,
				2,
				0.016425609588623047
			],
			"type":"VEC3"
		},
		{
			"bufferView":57,
			"componentType":5126,
			"count":386,
			"type":"VEC3"
		},
		{
			"bufferView":58,
			"componentType":5126,
			"count":386,
			"type":"VEC2"
		},
		{
			"bufferView":59,
			"componentType":5123,
			"count":672,
			"type":"SCALAR"
		},
		{
			"bufferView":60,
			"componentType":5126,
			"count":150,
			"max":[
				0.3972427248954773,
				4.318921089172363,
				2.119800567626953
			],
			"min":[
				0.1425960212945938,
				2,
				0.29070740938186646
			],
			"type":"VEC3"
		},
		{
			"bufferView":61,
			"componentType":5126,
			"count":150,
			"type":"VEC3"
		},
		{
			"bufferView":62,
			"componentType":5126,
			"count":150,
			"type":"VEC2"
		},
		{
			"bufferView":63,
			"componentType":5123,
			"count":312,
			"type":"SCALAR"
		},
		{
			"bufferView":64,
			"componentType":5126,
			"count":3008,
			"max":[
				0.3216722905635834,
				3.7690980434417725,
				1.8106755018234253
			],
			"min":[
				0.05797979608178139,
				2.6319596767425537,
				0.5159589052200317
			],
			"type":"VEC3"
		},
		{
			"bufferView":65,
			"componentType":5126,
			"count":3008,
			"type":"VEC3"
		},
		{
			"bufferView":66,
			"componentType":5126,
			"count":3008,
			"type":"VEC2"
		},
		{
			"bufferView":67,
			"componentType":5123,
			"count":15084,
			"type":"SCALAR"
		},
		{
			"bufferView":68,
			"componentType":5126,
			"count":4,
			"max":[
				0,
				3,
				11
			],
			"min":[
				0,
				0,
				8
			],
			"type":"VEC3"
		},
		{
			"bufferView":69,
			"componentType":5126,
			"count":4,
			"type":"VEC3"
		},
		{
			"bufferView":70,
			"componentType":5126,
			"count":4,
			"type":"VEC2"
		},
		{
			"bufferView":71,
			"componentType":5123,
			"count":6,
			"type":"SCALAR"
		},
		{
			"bufferView":72,
			"componentType":5126,
			"count":4,
			"max":[
				-7.999995708465576,
				3,
				-8.00000286102295
			],
			"min":[
				-7.999995708465576,
				0,
				-11.00000286102295
			],
			"type":"VEC3"
		},
		{
			"bufferView":73,
			"componentType":5126,
			"count":4,
			"type":"VEC3"
		},
		{
			"bufferView":74,
			"componentType":5126,
			"count":4,
			"type":"VEC2"
		}
	],
	"bufferViews":[
		{
			"buffer":0,
			"byteLength":1500,
			"byteOffset":0,
			"target":34962
		},
		{
			"buffer":0,
			"byteLength":1500,
			"byteOffset":1500,
			"target":34962
		},
		{
			"buffer":0,
			"byteLength":1000,
			"byteOffset":3000,
			"target":34962
		},
		{
			"buffer":0,
			"byteLength":1000,
			"byteOffset":4000,
			"target":34962
		},
		{
			"buffer":0,
			"byteLength":444,
			"byteOffset":5000,
			"target":34963
		},
		{
			"buffer":0,
			"byteLength":432,
			"byteOffset":5444,
			"target":34962
		},
		{
			"buffer":0,
			"byteLength":432,
			"byteOffset":5876,
			"target":34962
		},
		{
			"buffer":0,
			"byteLength":288,
			"byteOffset":6308,
			"target":34962
		},
		{
			"buffer":0,
			"byteLength":120,
			"byteOffset":6596,
			"target":34963
		},
		{
			"buffer":0,
			"byteLength":432,
			"byteOffset":6716,
			"target":34962
		},
		{
			"buffer":0,
			"byteLength":432,
			"byteOffset":7148,
			"target":34962
		},
		{
			"buffer":0,
			"byteLength":288,
			"byteOffset":7580,
			"target":34962
		},
		{
			"buffer":0,
			"byteLength":432,
			"byteOffset":7868,
			"target":34962
		},
		{
			"buffer":0,
			"byteLength":432,
			"byteOffset":8300,
			"target":34962
		},
		{
			"buffer":0,
			"byteLength":288,
			"byteOffset":8732,
			"target":34962
		},
		{
			"buffer":0,
			"byteLength":432,
			"byteOffset":9020,
			"target":34962
		},
		{
			"buffer":0,
			"byteLength":432,
			"byteOffset":9452,
			"target":34962
		},
		{
			"buffer":0,
			"byteLength":288,
			"byteOffset":9884,
			"target":34962
		},
		{
			"buffer":0,
			"byteLength":432,
			"byteOffset":10172,
			"target":34962
		},
		{
			"buffer":0,
			"byteLength":432,
			"byteOffset":10604,
			"target":34962
		},
		{
			"buffer":0,
			"byteLength":288,
			"byteOffset":11036,
			"target":34962
		},
		{
			"buffer":0,
			"byteLength":432,
			"byteOffset":11324,
			"target":34962
		},
		{
			"buffer":0,
			"byteLength":432,
			"byteOffset":11756,
			"target":34962
		},
		{
			"buffer":0,
			"byteLength":288,
			"byteOffset":12188,
			"target":34962
		},
		{
			"buffer":0,
			"byteLength":432,
			"byteOffset":12476,
			"target":34962
		},
		{
			"buffer":0,
			"byteLength":432,
			"byteOffset":12908,
			"target":34962
		},
		{
			"buffer":0,
			"byteLength":288,
			"byteOffset":13340,
			"target":34962
		},
		{
			"buffer":0,
			"byteLength":432,
			"byteOffset":13628,
			"target":34962
		},
		{
			"buffer":0,
			"byteLength":432,
			"byteOffset":14060,
			"target":34962
		},
		{
			"buffer":0,
			"byteLength":288,
			"byteOffset":14492,
			"target":34962
		},
		{
			"buffer":0,
			"byteLength":432,
			"byteOffset":14780,
			"target":34962
		},
		{
			"buffer":0,
			"byteLength":432,
			"byteOffset":15212,
			"target":34962
		},
		{
			"buffer":0,
			"byteLength":288,
			"byteOffset":15644,
			"target":34962
		},
		{
			"buffer":0,
			"byteLength":288,
			"byteOffset":15932,
			"target":34962
		},
		{
			"buffer":0,
			"byteLength":288,
			"byteOffset":16220,
			"target":34962
		},
		{
			"buffer":0,
			"byteLength":192,
			"byteOffset":16508,
			"target":34962
		},
		{
			"buffer":0,
			"byteLength":192,
			"byteOffset":16700,
			"target":34962
		},
		{
			"buffer":0,
			"byteLength":72,
			"byteOffset":16892,
			"target":34963
		},
		{
			"buffer":0,
			"byteLength":1488,
			"byteOffset":16964,
			"target":34962
		},
		{
			"buffer":0,
			"byteLength":1488,
			"byteOffset":18452,
			"target":34962
		},
		{
			"buffer":0,
			"byteLength":992,
			"byteOffset":19940,
			"target":34962
		},
		{
			"buffer":0,
			"byteLength":992,
			"byteOffset":20932,
			"target":34962
		},
		{
			"buffer":0,
			"byteLength":552,
			"byteOffset":21924,
			"target":34963
		},
		{
			"buffer":0,
			"byteLength":1608,
			"byteOffset":22476,
			"target":34962
		},
		{
			"buffer":0,
			"byteLength":1608,
			"byteOffset":24084,
			"target":34962
		},
		{
			"buffer":0,
			"byteLength":1072,
			"byteOffset":25692,
			"target":34962
		},
		{
			"buffer":0,
			"byteLength":600,
			"byteOffset":26764,
			"target":34963
		},
		{
			"buffer":0,
			"byteLength":3432,
			"byteOffset":27364,
			"target":34962
		},
		{
			"buffer":0,
			"byteLength":3432,
			"byteOffset":30796,
			"target":34962
		},
		{
			"buffer":0,
			"byteLength":2288,
			"byteOffset":34228,
			"target":34962
		},
		{
			"buffer":0,
			"byteLength":2288,
			"byteOffset":36516,
			"target":34962
		},
		{
			"buffer":0,
			"byteLength":1848,
			"byteOffset":38804,
			"target":34963
		},
		{
			"buffer":0,
			"byteLength":240,
			"byteOffset":40652,
			"target":34962
		},
		{
			"buffer":0,
			"byteLength":240,
			"byteOffset":40892,
			"target":34962
		},
		{
			"buffer":0,
			"byteLength":160,
			"byteOffset":41132,
			"target":34962
		},
		{
			"buffer":0,
			"byteLength":60,
			"byteOffset":41292,
			"target":34963
		},
		{
			"buffer":0,
			"byteLength":4632,
			"byteOffset":41352,
			"target":34962
		},
		{
			"buffer":0,
			"byteLength":4632,
			"byteOffset":45984,
			"target":34962
		},
		{
			"buffer":0,
			"byteLength":3088,
			"byteOffset":50616,
			"target":34962
		},
		{
			"buffer":0,
			"byteLength":1344,
			"byteOffset":53704,
			"target":34963
		},
		{
			"buffer":0,
			"byteLength":1800,
			"byteOffset":55048,
			"target":34962
		},
		{
			"buffer":0,
			"byteLength":1800,
			"byteOffset":56848,
			"target":34962
		},
		{
			"buffer":0,
			"byteLength":1200,
			"byteOffset":58648,
			"target":34962
		},
		{
			"buffer":0,
			"byteLength":624,
			"byteOffset":59848,
			"target":34963
		},
		{
			"buffer":0,
			"byteLength":36096,
			"byteOffset":60472,
			"target":34962
		},
		{
			"buffer":0,
			"byteLength":36096,
			"byteOffset":96568,
			"target":34962
		},
		{
			"buffer":0,
			"byteLength":24064,
			"byteOffset":132664,
			"target":34962
		},
		{
			"buffer":0,
			"byteLength":30168,
			"byteOffset":156728,
			"target":34963
		},
		{
			"buffer":0,
			"byteLength":48,
			"byteOffset":186896,
			"target":34962
		},
		{
			"buffer":0,
			"byteLength":48,
			"byteOffset":186944,
			"target":34962
		},
		{
			"buffer":0,
			"byteLength":32,
			"byteOffset":186992,
			"target":34962
		},
		{
			"buffer":0,
			"byteLength":12,
			"byteOffset":187024,
			"target":34963
		},
		{
			"buffer":0,
			"byteLength":48,
			"byteOffset":187036,
			"target":34962
		},
		{
			"buffer":0,
			"byteLength":48,
			"byteOffset":187084,
			"target":34962
		},
		{
			"buffer":0,
			"byteLength":32,
			"byteOffset":187132,
			"target":34962
		}
	],
	"samplers":[
		{
			"magFilter":9729,
			"minFilter":9987
		}
	],
	"buffers":[
		{
			"byteLength":187164,
			"uri":"storage_room.bin"
		}
	]
}
