{
	"asset":{
		"generator":"Khronos glTF Blender I/O v3.6.27",
		"version":"2.0"
	},
	"extensionsUsed":[
		"KHR_lights_punctual"
	],
	"extensionsRequired":[
		"KHR_lights_punctual"
	],
	"extensions":{
		"KHR_lights_punctual":{
			"lights":[
				{
					"color":[
						1,
						0.5100622773170471,
						0.271076500415802
					],
					"intensity":5435.141306588225,
					"type":"point",
					"name":"Point"
				}
			]
		}
	},
	"scene":0,
	"scenes":[
		{
			"name":"Scene",
			"nodes":[
				0,
				1,
				2,
				3,
				4,
				5,
				6,
				7,
				8,
				9,
				10
			]
		}
	],
	"nodes":[
		{
			"mesh":0,
			"name":"Cube"
		},
		{
			"extensions":{
				"KHR_lights_punctual":{
					"light":0
				}
			},
			"name":"Point",
			"rotation":[
				-0.7071068286895752,
				0,
				0,
				0.7071068286895752
			],
			"translation":[
				3.5,
				3,
				5.5
			]
		},
		{
			"mesh":1,
			"name":"Cylinder",
			"translation":[
				1,
				0.5,
				6.400000095367432
			]
		},
		{
			"mesh":2,
			"name":"Cylinder.001",
			"translation":[
				1,
				0.5,
				5.25
			]
		},
		{
			"mesh":3,
			"name":"Cylinder.002",
			"translation":[
				1,
				0.5,
				4.099999904632568
			]
		},
		{
			"mesh":4,
			"name":"Cylinder.003",
			"rotation":[
				-0.2588190734386444,
				0,
				0,
				0.965925931930542
			],
			"translation":[
				1,
				1.3928800821304321,
				5.823733329772949
			]
		},
		{
			"mesh":5,
			"name":"Cylinder.004",
			"rotation":[
				-0.2588190734386444,
				0,
				0,
				0.965925931930542
			],
			"translation":[
				1,
				1.3928800821304321,
				4.673893928527832
			]
		},
		{
			"mesh":6,
			"name":"Cylinder.005",
			"translation":[
				6,
				0.5,
				6.400000095367432
			]
		},
		{
			"mesh":7,
			"name":"Cylinder.006",
			"translation":[
				6,
				0.5,
				5.25
			]
		},
		{
			"mesh":8,
			"name":"Cylinder.007",
			"rotation":[
				0,
				0.7071068286895752,
				0,
				0.7071068286895752
			],
			"translation":[
				6.400000095367432,
				0.5,
				0.9000000357627869
			]
		},
		{
			"mesh":9,
			"name":"Cylinder.008",
			"rotation":[
				0.3826834261417389,
				-0.9238795638084412,
				0,
				1.9830707742585219e-07
			],
			"translation":[
				5.392879962921143,
				0.9525337815284729,
				0.9000000357627869
			]
		}
	],
	"materials":[
		{
			"name":"Material",
			"pbrMetallicRoughness":{
				"baseColorFactor":[
					0.18781597912311554,
					0.18781597912311554,
					0.18781597912311554,
					1
				],
				"metallicFactor":0
			}
		},
		{
			"doubleSided":true,
			"name":"Barrel",
			"pbrMetallicRoughness":{
				"baseColorFactor":[
					0.2461949586868286,
					0.10023420304059982,
					0.047108184546232224,
					1
				],
				"metallicFactor":0
			}
		}
	],
	"meshes":[
		{
			"name":"Cube",
			"primitives":[
				{
					"attributes":{
						"POSITION":0,
						"NORMAL":1,
						"TEXCOORD_0":2,
						"TEXCOORD_1":3
					},
					"indices":4,
					"material":0
				}
			]
		},
		{
			"name":"Cylinder",
			"primitives":[
				{
					"attributes":{
						"POSITION":5,
						"NORMAL":6,
						"TEXCOORD_0":7
					},
					"indices":8,
					"material":1
				}
			]
		},
		{
			"name":"Cylinder.001",
			"primitives":[
				{
					"attributes":{
						"POSITION":9,
						"NORMAL":10,
						"TEXCOORD_0":11
					},
					"indices":8,
					"material":1
				}
			]
		},
		{
			"name":"Cylinder.002",
			"primitives":[
				{
					"attributes":{
						"POSITION":12,
						"NORMAL":13,
						"TEXCOORD_0":14
					},
					"indices":8,
					"material":1
				}
			]
		},
		{
			"name":"Cylinder.003",
			"primitives":[
				{
					"attributes":{
						"POSITION":15,
						"NORMAL":16,
						"TEXCOORD_0":17
					},
					"indices":8,
					"material":1
				}
			]
		},
		{
			"name":"Cylinder.004",
			"primitives":[
				{
					"attributes":{
						"POSITION":18,
						"NORMAL":19,
						"TEXCOORD_0":20
					},
					"indices":8,
					"material":1
				}
			]
		},
		{
			"name":"Cylinder.005",
			"primitives":[
				{
					"attributes":{
						"POSITION":21,
						"NORMAL":22,
						"TEXCOORD_0":23
					},
					"indices":8,
					"material":1
				}
			]
		},
		{
			"name":"Cylinder.006",
			"primitives":[
				{
					"attributes":{
						"POSITION":24,
						"NORMAL":25,
						"TEXCOORD_0":26
					},
					"indices":8,
					"material":1
				}
			]
		},
		{
			"name":"Cylinder.007",
			"primitives":[
				{
					"attributes":{
						"POSITION":27,
						"NORMAL":28,
						"TEXCOORD_0":29
					},
					"indices":8,
					"material":1
				}
			]
		},
		{
			"name":"Cylinder.008",
			"primitives":[
				{
					"attributes":{
						"POSITION":30,
						"NORMAL":31,
						"TEXCOORD_0":32
					},
					"indices":8,
					"material":1
				}
			]
		}
	],
	"accessors":[
		{
			"bufferView":0,
			"componentType":5126,
			"count":203,
			"max":[
				7,
				4,
				11
			],
			"min":[
				0,
				0,
				0
			],
			"type":"VEC3"
		},
		{
			"bufferView":1,
			"componentType":5126,
			"count":203,
			"type":"VEC3"
		},
		{
			"bufferView":2,
			"componentType":5126,
			"count":203,
			"type":"VEC2"
		},
		{
			"bufferView":3,
			"componentType":5126,
			"count":203,
			"type":"VEC2"
		},
		{
			"bufferView":4,
			"componentType":5123,
			"count":393,
			"type":"SCALAR"
		},
		{
			"bufferView":5,
			"componentType":5126,
			"count":36,
			"max":[
				0.8438041806221008,
				0.48717060685157776,
				0.5625360608100891
			],
			"min":[
				-0.8438041806221008,
				-0.48717057704925537,
				-0.5625360608100891
			],
			"type":"VEC3"
		},
		{
			"bufferView":6,
			"componentType":5126,
			"count":36,
			"type":"VEC3"
		},
		{
			"bufferView":7,
			"componentType":5126,
			"count":36,
			"type":"VEC2"
		},
		{
			"bufferView":8,
			"componentType":5123,
			"count":60,
			"type":"SCALAR"
		},
		{
			"bufferView":9,
			"componentType":5126,
			"count":36,
			"max":[
				0.8438041806221008,
				0.48717060685157776,
				0.5625360608100891
			],
			"min":[
				-0.8438041806221008,
				-0.48717057704925537,
				-0.5625360608100891
			],
			"type":"VEC3"
		},
		{
			"bufferView":10,
			"componentType":5126,
			"count":36,
			"type":"VEC3"
		},
		{
			"bufferView":11,
			"componentType":5126,
			"count":36,
			"type":"VEC2"
		},
		{
			"bufferView":12,
			"componentType":5126,
			"count":36,
			"max":[
				0.8438041806221008,
				0.48717060685157776,
				0.5625360608100891
			],
			"min":[
				-0.8438041806221008,
				-0.48717057704925537,
				-0.5625360608100891
			],
			"type":"VEC3"
		},
		{
			"bufferView":13,
			"componentType":5126,
			"count":36,
			"type":"VEC3"
		},
		{
			"bufferView":14,
			"componentType":5126,
			"count":36,
			"type":"VEC2"
		},
		{
			"bufferView":15,
			"componentType":5126,
			"count":36,
			"max":[
				0.8438041806221008,
				0.48717060685157776,
				0.5625360608100891
			],
			"min":[
				-0.8438041806221008,
				-0.48717057704925537,
				-0.5625360608100891
			],
			"type":"VEC3"
		},
		{
			"bufferView":16,
			"componentType":5126,
			"count":36,
			"type":"VEC3"
		},
		{
			"bufferView":17,
			"componentType":5126,
			"count":36,
			"type":"VEC2"
		},
		{
			"bufferView":18,
			"componentType":5126,
			"count":36,
			"max":[
				0.8438041806221008,
				0.48717060685157776,
				0.5625360608100891
			],
			"min":[
				-0.8438041806221008,
				-0.48717057704925537,
				-0.5625360608100891
			],
			"type":"VEC3"
		},
		{
			"bufferView":19,
			"componentType":5126,
			"count":36,
			"type":"VEC3"
		},
		{
			"bufferView":20,
			"componentType":5126,
			"count":36,
			"type":"VEC2"
		},
		{
			"bufferView":21,
			"componentType":5126,
			"count":36,
			"max":[
				0.8438041806221008,
				0.48717060685157776,
				0.5625360608100891
			],
			"min":[
				-0.8438041806221008,
				-0.48717057704925537,
				-0.5625360608100891
			],
			"type":"VEC3"
		},
		{
			"bufferView":22,
			"componentType":5126,
			"count":36,
			"type":"VEC3"
		},
		{
			"bufferView":23,
			"componentType":5126,
			"count":36,
			"type":"VEC2"
		},
		{
			"bufferView":24,
			"componentType":5126,
			"count":36,
			"max":[
				0.8438041806221008,
				0.48717060685157776,
				0.5625360608100891
			],
			"min":[
				-0.8438041806221008,
				-0.48717057704925537,
				-0.5625360608100891
			],
			"type":"VEC3"
		},
		{
			"bufferView":25,
			"componentType":5126,
			"count":36,
			"type":"VEC3"
		},
		{
			"bufferView":26,
			"componentType":5126,
			"count":36,
			"type":"VEC2"
		},
		{
			"bufferView":27,
			"componentType":5126,
			"count":36,
			"max":[
				0.8438041806221008,
				0.48717060685157776,
				0.5625360608100891
			],
			"min":[
				-0.8438041806221008,
				-0.48717057704925537,
				-0.5625360608100891
			],
			"type":"VEC3"
		},
		{
			"bufferView":28,
			"componentType":5126,
			"count":36,
			"type":"VEC3"
		},
		{
			"bufferView":29,
			"componentType":5126,
			"count":36,
			"type":"VEC2"
		},
		{
			"bufferView":30,
			"componentType":5126,
			"count":36,
			"max":[
				0.8438041806221008,
				0.48717060685157776,
				0.5625360608100891
			],
			"min":[
				-0.8438041806221008,
				-0.48717057704925537,
				-0.5625360608100891
			],
			"type":"VEC3"
		},
		{
			"bufferView":31,
			"componentType":5126,
			"count":36,
			"type":"VEC3"
		},
		{
			"bufferView":32,
			"componentType":5126,
			"count":36,
			"type":"VEC2"
		}
	],
	"bufferViews":[
		{
			"buffer":0,
			"byteLength":2436,
			"byteOffset":0,
			"target":34962
		},
		{
			"buffer":0,
			"byteLength":2436,
			"byteOffset":2436,
			"target":34962
		},
		{
			"buffer":0,
			"byteLength":1624,
			"byteOffset":4872,
			"target":34962
		},
		{
			"buffer":0,
			"byteLength":1624,
			"byteOffset":6496,
			"target":34962
		},
		{
			"buffer":0,
			"byteLength":786,
			"byteOffset":8120,
			"target":34963
		},
		{
			"buffer":0,
			"byteLength":432,
			"byteOffset":8908,
			"target":34962
		},
		{
			"buffer":0,
			"byteLength":432,
			"byteOffset":9340,
			"target":34962
		},
		{
			"buffer":0,
			"byteLength":288,
			"byteOffset":9772,
			"target":34962
		},
		{
			"buffer":0,
			"byteLength":120,
			"byteOffset":10060,
			"target":34963
		},
		{
			"buffer":0,
			"byteLength":432,
			"byteOffset":10180,
			"target":34962
		},
		{
			"buffer":0,
			"byteLength":432,
			"byteOffset":10612,
			"target":34962
		},
		{
			"buffer":0,
			"byteLength":288,
			"byteOffset":11044,
			"target":34962
		},
		{
			"buffer":0,
			"byteLength":432,
			"byteOffset":11332,
			"target":34962
		},
		{
			"buffer":0,
			"byteLength":432,
			"byteOffset":11764,
			"target":34962
		},
		{
			"buffer":0,
			"byteLength":288,
			"byteOffset":12196,
			"target":34962
		},
		{
			"buffer":0,
			"byteLength":432,
			"byteOffset":12484,
			"target":34962
		},
		{
			"buffer":0,
			"byteLength":432,
			"byteOffset":12916,
			"target":34962
		},
		{
			"buffer":0,
			"byteLength":288,
			"byteOffset":13348,
			"target":34962
		},
		{
			"buffer":0,
			"byteLength":432,
			"byteOffset":13636,
			"target":34962
		},
		{
			"buffer":0,
			"byteLength":432,
			"byteOffset":14068,
			"target":34962
		},
		{
			"buffer":0,
			"byteLength":288,
			"byteOffset":14500,
			"target":34962
		},
		{
			"buffer":0,
			"byteLength":432,
			"byteOffset":14788,
			"target":34962
		},
		{
			"buffer":0,
			"byteLength":432,
			"byteOffset":15220,
			"target":34962
		},
		{
			"buffer":0,
			"byteLength":288,
			"byteOffset":15652,
			"target":34962
		},
		{
			"buffer":0,
			"byteLength":432,
			"byteOffset":15940,
			"target":34962
		},
		{
			"buffer":0,
			"byteLength":432,
			"byteOffset":16372,
			"target":34962
		},
		{
			"buffer":0,
			"byteLength":288,
			"byteOffset":16804,
			"target":34962
		},
		{
			"buffer":0,
			"byteLength":432,
			"byteOffset":17092,
			"target":34962
		},
		{
			"buffer":0,
			"byteLength":432,
			"byteOffset":17524,
			"target":34962
		},
		{
			"buffer":0,
			"byteLength":288,
			"byteOffset":17956,
			"target":34962
		},
		{
			"buffer":0,
			"byteLength":432,
			"byteOffset":18244,
			"target":34962
		},
		{
			"buffer":0,
			"byteLength":432,
			"byteOffset":18676,
			"target":34962
		},
		{
			"buffer":0,
			"byteLength":288,
			"byteOffset":19108,
			"target":34962
		}
	],
	"buffers":[
		{
			"byteLength":19396,
			"uri":"storage_room_collider.bin"
		}
	]
}
