{
	"asset":{
		"generator":"Khronos glTF Blender I/O v3.5.30",
		"version":"2.0"
	},
	"scene":0,
	"scenes":[
		{
			"name":"Scene",
			"nodes":[
				0,
				1,
				2,
				3,
				4
			]
		}
	],
	"nodes":[
		{
			"mesh":0,
			"name":"Plane",
			"rotation":[
				0,
				-1,
				0,
				1.6292068494294654e-07
			]
		},
		{
			"name":"_tag_node_00",
			"rotation":[
				0,
				-0.7071068286895752,
				-0.7071068286895752,
				1.1520233300643667e-07
			],
			"translation":[
				0,
				0,
				12
			]
		},
		{
			"name":"_tag_node_01",
			"rotation":[
				-0.7071068286895752,
				0,
				0,
				0.7071068286895752
			],
			"translation":[
				0,
				0,
				-12
			]
		},
		{
			"name":"_tag_node_03",
			"rotation":[
				-0.5,
				-0.5,
				-0.5,
				0.5
			],
			"translation":[
				12,
				0,
				-2.0027475784445414e-06
			]
		},
		{
			"name":"_tag_node_02",
			"rotation":[
				-0.4999998211860657,
				0.5000002384185791,
				0.5000001788139343,
				0.4999998211860657
			],
			"translation":[
				-12,
				0,
				2.0027475784445414e-06
			]
		}
	],
	"meshes":[
		{
			"name":"Plane",
			"primitives":[
				{
					"attributes":{
						"POSITION":0,
						"TEXCOORD_0":1,
						"NORMAL":2
					},
					"indices":3
				}
			]
		}
	],
	"accessors":[
		{
			"bufferView":0,
			"componentType":5126,
			"count":88,
			"max":[
				12,
				3,
				12
			],
			"min":[
				-12,
				0,
				-12
			],
			"type":"VEC3"
		},
		{
			"bufferView":1,
			"componentType":5126,
			"count":88,
			"type":"VEC2"
		},
		{
			"bufferView":2,
			"componentType":5126,
			"count":88,
			"type":"VEC3"
		},
		{
			"bufferView":3,
			"componentType":5123,
			"count":174,
			"type":"SCALAR"
		}
	],
	"bufferViews":[
		{
			"buffer":0,
			"byteLength":1056,
			"byteOffset":0,
			"target":34962
		},
		{
			"buffer":0,
			"byteLength":704,
			"byteOffset":1056,
			"target":34962
		},
		{
			"buffer":0,
			"byteLength":1056,
			"byteOffset":1760,
			"target":34962
		},
		{
			"buffer":0,
			"byteLength":348,
			"byteOffset":2816,
			"target":34963
		}
	],
	"buffers":[
		{
			"byteLength":3164,
			"uri":"junction1.bin"
		}
	]
}
