{
	"asset":{
		"generator":"Khronos glTF Blender I/O v3.6.27",
		"version":"2.0"
	},
	"scene":0,
	"scenes":[
		{
			"name":"Scene",
			"nodes":[
				0
			]
		}
	],
	"nodes":[
		{
			"mesh":0,
			"name":"Cylinder"
		}
	],
	"materials":[
		{
			"doubleSided":true,
			"name":"Blade",
			"pbrMetallicRoughness":{
				"baseColorFactor":[
					0.3529644310474396,
					0.3529644310474396,
					0.3529644310474396,
					1
				],
				"roughnessFactor":0.3545454740524292
			}
		},
		{
			"doubleSided":true,
			"name":"Handle",
			"pbrMetallicRoughness":{
				"baseColorFactor":[
					0.12388679385185242,
					0.05390463024377823,
					0.032531123608350754,
					1
				],
				"metallicFactor":0
			}
		}
	],
	"meshes":[
		{
			"name":"Cylinder",
			"primitives":[
				{
					"attributes":{
						"POSITION":0,
						"NORMAL":1,
						"TEXCOORD_0":2
					},
					"indices":3,
					"material":0
				},
				{
					"attributes":{
						"POSITION":4,
						"NORMAL":5,
						"TEXCOORD_0":6
					},
					"indices":7,
					"material":1
				}
			]
		}
	],
	"accessors":[
		{
			"bufferView":0,
			"componentType":5126,
			"count":460,
			"max":[
				0.06458887457847595,
				0.6574331521987915,
				0.008000697940587997
			],
			"min":[
				-0.06458888947963715,
				-0.13082988560199738,
				-0.008000699803233147
			],
			"type":"VEC3"
		},
		{
			"bufferView":1,
			"componentType":5126,
			"count":460,
			"type":"VEC3"
		},
		{
			"bufferView":2,
			"componentType":5126,
			"count":460,
			"type":"VEC2"
		},
		{
			"bufferView":3,
			"componentType":5123,
			"count":1446,
			"type":"SCALAR"
		},
		{
			"bufferView":4,
			"componentType":5126,
			"count":264,
			"max":[
				0.016932830214500427,
				0.05396122857928276,
				0.007555512245744467
			],
			"min":[
				-0.016932830214500427,
				-0.1011161357164383,
				-0.007555512245744467
			],
			"type":"VEC3"
		},
		{
			"bufferView":5,
			"componentType":5126,
			"count":264,
			"type":"VEC3"
		},
		{
			"bufferView":6,
			"componentType":5126,
			"count":264,
			"type":"VEC2"
		},
		{
			"bufferView":7,
			"componentType":5123,
			"count":1344,
			"type":"SCALAR"
		}
	],
	"bufferViews":[
		{
			"buffer":0,
			"byteLength":5520,
			"byteOffset":0,
			"target":34962
		},
		{
			"buffer":0,
			"byteLength":5520,
			"byteOffset":5520,
			"target":34962
		},
		{
			"buffer":0,
			"byteLength":3680,
			"byteOffset":11040,
			"target":34962
		},
		{
			"buffer":0,
			"byteLength":2892,
			"byteOffset":14720,
			"target":34963
		},
		{
			"buffer":0,
			"byteLength":3168,
			"byteOffset":17612,
			"target":34962
		},
		{
			"buffer":0,
			"byteLength":3168,
			"byteOffset":20780,
			"target":34962
		},
		{
			"buffer":0,
			"byteLength":2112,
			"byteOffset":23948,
			"target":34962
		},
		{
			"buffer":0,
			"byteLength":2688,
			"byteOffset":26060,
			"target":34963
		}
	],
	"buffers":[
		{
			"byteLength":28748,
			"uri":"shortsword.bin"
		}
	]
}
