{
	"asset":{
		"generator":"Khronos glTF Blender I/O v3.6.27",
		"version":"2.0"
	},
	"scene":0,
	"scenes":[
		{
			"name":"Scene",
			"nodes":[
				0
			]
		}
	],
	"nodes":[
		{
			"mesh":0,
			"name":"Cylinder"
		}
	],
	"materials":[
		{
			"doubleSided":true,
			"name":"Material.001",
			"pbrMetallicRoughness":{
				"baseColorTexture":{
					"index":0
				},
				"metallicRoughnessTexture":{
					"index":1
				}
			}
		}
	],
	"meshes":[
		{
			"name":"Cylinder",
			"primitives":[
				{
					"attributes":{
						"POSITION":0,
						"NORMAL":1,
						"TEXCOORD_0":2
					},
					"indices":3,
					"material":0
				}
			]
		}
	],
	"textures":[
		{
			"sampler":0,
			"source":0
		},
		{
			"sampler":0,
			"source":1
		}
	],
	"images":[
		{
			"mimeType":"image/png",
			"name":"shortsword_diffuse",
			"uri":"textures/shortsword_diffuse.png"
		},
		{
			"mimeType":"image/png",
			"name":"shortsword_roughness",
			"uri":"textures/shortsword_roughness.png"
		}
	],
	"accessors":[
		{
			"bufferView":0,
			"componentType":5126,
			"count":724,
			"max":[
				0.08273695409297943,
				0.6574331521987915,
				0.00875894259661436
			],
			"min":[
				-0.08273696899414062,
				-0.13082988560199738,
				-0.00875894445925951
			],
			"type":"VEC3"
		},
		{
			"bufferView":1,
			"componentType":5126,
			"count":724,
			"type":"VEC3"
		},
		{
			"bufferView":2,
			"componentType":5126,
			"count":724,
			"type":"VEC2"
		},
		{
			"bufferView":3,
			"componentType":5123,
			"count":2790,
			"type":"SCALAR"
		}
	],
	"bufferViews":[
		{
			"buffer":0,
			"byteLength":8688,
			"byteOffset":0,
			"target":34962
		},
		{
			"buffer":0,
			"byteLength":8688,
			"byteOffset":8688,
			"target":34962
		},
		{
			"buffer":0,
			"byteLength":5792,
			"byteOffset":17376,
			"target":34962
		},
		{
			"buffer":0,
			"byteLength":5580,
			"byteOffset":23168,
			"target":34963
		}
	],
	"samplers":[
		{
			"magFilter":9729,
			"minFilter":9987
		}
	],
	"buffers":[
		{
			"byteLength":28748,
			"uri":"shortsword.bin"
		}
	]
}
