{
	"asset":{
		"generator":"Khronos glTF Blender I/O v3.6.27",
		"version":"2.0"
	},
	"scene":0,
	"scenes":[
		{
			"name":"Scene",
			"nodes":[
				0,
				1,
				2,
				3,
				4,
				5,
				6,
				7,
				8,
				9
			]
		}
	],
	"nodes":[
		{
			"mesh":0,
			"name":"Sphere_cell",
			"translation":[
				-0.045656196773052216,
				0.09551451355218887,
				-0.06782136857509613
			]
		},
		{
			"mesh":1,
			"name":"Sphere_cell.001",
			"translation":[
				-0.11334862560033798,
				0.7190601825714111,
				-0.07188283652067184
			]
		},
		{
			"mesh":2,
			"name":"Sphere_cell.002",
			"translation":[
				0.0814380869269371,
				0.7226834297180176,
				0.02832571044564247
			]
		},
		{
			"mesh":3,
			"name":"Sphere_cell.003",
			"translation":[
				0.23011809587478638,
				0.4169165790081024,
				0.0379357635974884
			]
		},
		{
			"mesh":4,
			"name":"Sphere_cell.004",
			"translation":[
				-0.20522193610668182,
				0.49249252676963806,
				0.15699642896652222
			]
		},
		{
			"mesh":5,
			"name":"Sphere_cell.005",
			"translation":[
				0.0476887971162796,
				0.43223685026168823,
				-0.27579954266548157
			]
		},
		{
			"mesh":6,
			"name":"Sphere_cell.006",
			"translation":[
				0.061246778815984726,
				0.19755683839321136,
				0.17795836925506592
			]
		},
		{
			"mesh":7,
			"name":"Sphere_cell.007",
			"translation":[
				-0.1975051462650299,
				0.3524830639362335,
				-0.15169697999954224
			]
		},
		{
			"mesh":8,
			"name":"Sphere_cell.008",
			"translation":[
				-0.22076129913330078,
				0.560230553150177,
				-0.19090759754180908
			]
		},
		{
			"mesh":9,
			"name":"Sphere_cell.009",
			"translation":[
				-0.04531355947256088,
				0.6107240319252014,
				-0.25815248489379883
			]
		}
	],
	"materials":[
		{
			"doubleSided":true,
			"name":"Material",
			"normalTexture":{
				"index":0
			},
			"pbrMetallicRoughness":{
				"baseColorTexture":{
					"index":1
				},
				"metallicFactor":0,
				"metallicRoughnessTexture":{
					"index":2
				}
			}
		}
	],
	"meshes":[
		{
			"name":"Sphere_cell.010",
			"primitives":[
				{
					"attributes":{
						"POSITION":0,
						"NORMAL":1,
						"TEXCOORD_0":2
					},
					"indices":3,
					"material":0
				}
			]
		},
		{
			"name":"Sphere_cell.011",
			"primitives":[
				{
					"attributes":{
						"POSITION":4,
						"NORMAL":5,
						"TEXCOORD_0":6
					},
					"indices":7,
					"material":0
				}
			]
		},
		{
			"name":"Sphere_cell.001",
			"primitives":[
				{
					"attributes":{
						"POSITION":8,
						"NORMAL":9,
						"TEXCOORD_0":10
					},
					"indices":11,
					"material":0
				}
			]
		},
		{
			"name":"Sphere_cell.002",
			"primitives":[
				{
					"attributes":{
						"POSITION":12,
						"NORMAL":13,
						"TEXCOORD_0":14
					},
					"indices":15,
					"material":0
				}
			]
		},
		{
			"name":"Sphere_cell.003",
			"primitives":[
				{
					"attributes":{
						"POSITION":16,
						"NORMAL":17,
						"TEXCOORD_0":18
					},
					"indices":19,
					"material":0
				}
			]
		},
		{
			"name":"Sphere_cell.004",
			"primitives":[
				{
					"attributes":{
						"POSITION":20,
						"NORMAL":21,
						"TEXCOORD_0":22
					},
					"indices":23,
					"material":0
				}
			]
		},
		{
			"name":"Sphere_cell.005",
			"primitives":[
				{
					"attributes":{
						"POSITION":24,
						"NORMAL":25,
						"TEXCOORD_0":26
					},
					"indices":27,
					"material":0
				}
			]
		},
		{
			"name":"Sphere_cell.006",
			"primitives":[
				{
					"attributes":{
						"POSITION":28,
						"NORMAL":29,
						"TEXCOORD_0":30
					},
					"indices":31,
					"material":0
				}
			]
		},
		{
			"name":"Sphere_cell.007",
			"primitives":[
				{
					"attributes":{
						"POSITION":32,
						"NORMAL":33,
						"TEXCOORD_0":34
					},
					"indices":35,
					"material":0
				}
			]
		},
		{
			"name":"Sphere_cell.008",
			"primitives":[
				{
					"attributes":{
						"POSITION":36,
						"NORMAL":37,
						"TEXCOORD_0":38
					},
					"indices":39,
					"material":0
				}
			]
		}
	],
	"textures":[
		{
			"sampler":0,
			"source":0
		},
		{
			"sampler":0,
			"source":1
		},
		{
			"sampler":0,
			"source":2
		}
	],
	"images":[
		{
			"mimeType":"image/png",
			"name":"pot_normal.png",
			"uri":"textures/pot_normal.png"
		},
		{
			"mimeType":"image/png",
			"name":"pot_diffuse.png",
			"uri":"textures/pot_diffuse.png"
		},
		{
			"mimeType":"image/png",
			"name":"pot_roughness.png",
			"uri":"textures/pot_roughness.png"
		}
	],
	"accessors":[
		{
			"bufferView":0,
			"componentType":5126,
			"count":400,
			"max":[
				0.2651774287223816,
				0.13752305507659912,
				0.23688973486423492
			],
			"min":[
				-0.2408173680305481,
				-0.09710399061441422,
				-0.21068765223026276
			],
			"type":"VEC3"
		},
		{
			"bufferView":1,
			"componentType":5126,
			"count":400,
			"type":"VEC3"
		},
		{
			"bufferView":2,
			"componentType":5126,
			"count":400,
			"type":"VEC2"
		},
		{
			"bufferView":3,
			"componentType":5123,
			"count":1422,
			"type":"SCALAR"
		},
		{
			"bufferView":4,
			"componentType":5126,
			"count":283,
			"max":[
				0.20346814393997192,
				0.06052342802286148,
				0.2138127088546753
			],
			"min":[
				-0.19707946479320526,
				-0.12886406481266022,
				-0.19066035747528076
			],
			"type":"VEC3"
		},
		{
			"bufferView":5,
			"componentType":5126,
			"count":283,
			"type":"VEC3"
		},
		{
			"bufferView":6,
			"componentType":5126,
			"count":283,
			"type":"VEC2"
		},
		{
			"bufferView":7,
			"componentType":5123,
			"count":882,
			"type":"SCALAR"
		},
		{
			"bufferView":8,
			"componentType":5126,
			"count":429,
			"max":[
				0.21625582873821259,
				0.05690017715096474,
				0.2967756390571594
			],
			"min":[
				-0.2182057648897171,
				-0.2020093947649002,
				-0.2913021147251129
			],
			"type":"VEC3"
		},
		{
			"bufferView":9,
			"componentType":5126,
			"count":429,
			"type":"VEC3"
		},
		{
			"bufferView":10,
			"componentType":5126,
			"count":429,
			"type":"VEC2"
		},
		{
			"bufferView":11,
			"componentType":5123,
			"count":1494,
			"type":"SCALAR"
		},
		{
			"bufferView":12,
			"componentType":5126,
			"count":343,
			"max":[
				0.12035519629716873,
				0.2497265636920929,
				0.3031017780303955
			],
			"min":[
				-0.20175716280937195,
				-0.2886854112148285,
				-0.2882385551929474
			],
			"type":"VEC3"
		},
		{
			"bufferView":13,
			"componentType":5126,
			"count":343,
			"type":"VEC3"
		},
		{
			"bufferView":14,
			"componentType":5126,
			"count":343,
			"type":"VEC2"
		},
		{
			"bufferView":15,
			"componentType":5123,
			"count":1284,
			"type":"SCALAR"
		},
		{
			"bufferView":16,
			"componentType":5126,
			"count":317,
			"max":[
				0.2367570549249649,
				0.23335880041122437,
				0.1928073912858963
			],
			"min":[
				-0.14525125920772552,
				-0.29955366253852844,
				-0.22687914967536926
			],
			"type":"VEC3"
		},
		{
			"bufferView":17,
			"componentType":5126,
			"count":317,
			"type":"VEC3"
		},
		{
			"bufferView":18,
			"componentType":5126,
			"count":317,
			"type":"VEC2"
		},
		{
			"bufferView":19,
			"componentType":5123,
			"count":1122,
			"type":"SCALAR"
		},
		{
			"bufferView":20,
			"componentType":5126,
			"count":255,
			"max":[
				0.20218071341514587,
				0.24081750214099884,
				0.08269435167312622
			],
			"min":[
				-0.23775166273117065,
				-0.23767627775669098,
				-0.07467377930879593
			],
			"type":"VEC3"
		},
		{
			"bufferView":21,
			"componentType":5126,
			"count":255,
			"type":"VEC3"
		},
		{
			"bufferView":22,
			"componentType":5126,
			"count":255,
			"type":"VEC2"
		},
		{
			"bufferView":23,
			"componentType":5123,
			"count":840,
			"type":"SCALAR"
		},
		{
			"bufferView":24,
			"componentType":5126,
			"count":375,
			"max":[
				0.20255900919437408,
				0.37028390169143677,
				0.17251485586166382
			],
			"min":[
				-0.28059935569763184,
				-0.1991463154554367,
				-0.2718713879585266
			],
			"type":"VEC3"
		},
		{
			"bufferView":25,
			"componentType":5126,
			"count":375,
			"type":"VEC3"
		},
		{
			"bufferView":26,
			"componentType":5126,
			"count":375,
			"type":"VEC2"
		},
		{
			"bufferView":27,
			"componentType":5123,
			"count":1398,
			"type":"SCALAR"
		},
		{
			"bufferView":28,
			"componentType":5126,
			"count":233,
			"max":[
				0.21339191496372223,
				0.23277497291564941,
				0.1747654378414154
			],
			"min":[
				-0.14865253865718842,
				-0.18762074410915375,
				-0.15574854612350464
			],
			"type":"VEC3"
		},
		{
			"bufferView":29,
			"componentType":5126,
			"count":233,
			"type":"VEC3"
		},
		{
			"bufferView":30,
			"componentType":5126,
			"count":233,
			"type":"VEC2"
		},
		{
			"bufferView":31,
			"componentType":5123,
			"count":738,
			"type":"SCALAR"
		},
		{
			"bufferView":32,
			"componentType":5126,
			"count":128,
			"max":[
				0.1040399894118309,
				0.10641256719827652,
				0.13760556280612946
			],
			"min":[
				-0.10023243725299835,
				-0.10726606100797653,
				-0.11583338677883148
			],
			"type":"VEC3"
		},
		{
			"bufferView":33,
			"componentType":5126,
			"count":128,
			"type":"VEC3"
		},
		{
			"bufferView":34,
			"componentType":5126,
			"count":128,
			"type":"VEC2"
		},
		{
			"bufferView":35,
			"componentType":5123,
			"count":354,
			"type":"SCALAR"
		},
		{
			"bufferView":36,
			"componentType":5126,
			"count":111,
			"max":[
				0.13106770813465118,
				0.07099248468875885,
				0.04169106483459473
			],
			"min":[
				-0.11793769150972366,
				-0.10917431861162186,
				-0.06269726902246475
			],
			"type":"VEC3"
		},
		{
			"bufferView":37,
			"componentType":5126,
			"count":111,
			"type":"VEC3"
		},
		{
			"bufferView":38,
			"componentType":5126,
			"count":111,
			"type":"VEC2"
		},
		{
			"bufferView":39,
			"componentType":5123,
			"count":300,
			"type":"SCALAR"
		}
	],
	"bufferViews":[
		{
			"buffer":0,
			"byteLength":4800,
			"byteOffset":0,
			"target":34962
		},
		{
			"buffer":0,
			"byteLength":4800,
			"byteOffset":4800,
			"target":34962
		},
		{
			"buffer":0,
			"byteLength":3200,
			"byteOffset":9600,
			"target":34962
		},
		{
			"buffer":0,
			"byteLength":2844,
			"byteOffset":12800,
			"target":34963
		},
		{
			"buffer":0,
			"byteLength":3396,
			"byteOffset":15644,
			"target":34962
		},
		{
			"buffer":0,
			"byteLength":3396,
			"byteOffset":19040,
			"target":34962
		},
		{
			"buffer":0,
			"byteLength":2264,
			"byteOffset":22436,
			"target":34962
		},
		{
			"buffer":0,
			"byteLength":1764,
			"byteOffset":24700,
			"target":34963
		},
		{
			"buffer":0,
			"byteLength":5148,
			"byteOffset":26464,
			"target":34962
		},
		{
			"buffer":0,
			"byteLength":5148,
			"byteOffset":31612,
			"target":34962
		},
		{
			"buffer":0,
			"byteLength":3432,
			"byteOffset":36760,
			"target":34962
		},
		{
			"buffer":0,
			"byteLength":2988,
			"byteOffset":40192,
			"target":34963
		},
		{
			"buffer":0,
			"byteLength":4116,
			"byteOffset":43180,
			"target":34962
		},
		{
			"buffer":0,
			"byteLength":4116,
			"byteOffset":47296,
			"target":34962
		},
		{
			"buffer":0,
			"byteLength":2744,
			"byteOffset":51412,
			"target":34962
		},
		{
			"buffer":0,
			"byteLength":2568,
			"byteOffset":54156,
			"target":34963
		},
		{
			"buffer":0,
			"byteLength":3804,
			"byteOffset":56724,
			"target":34962
		},
		{
			"buffer":0,
			"byteLength":3804,
			"byteOffset":60528,
			"target":34962
		},
		{
			"buffer":0,
			"byteLength":2536,
			"byteOffset":64332,
			"target":34962
		},
		{
			"buffer":0,
			"byteLength":2244,
			"byteOffset":66868,
			"target":34963
		},
		{
			"buffer":0,
			"byteLength":3060,
			"byteOffset":69112,
			"target":34962
		},
		{
			"buffer":0,
			"byteLength":3060,
			"byteOffset":72172,
			"target":34962
		},
		{
			"buffer":0,
			"byteLength":2040,
			"byteOffset":75232,
			"target":34962
		},
		{
			"buffer":0,
			"byteLength":1680,
			"byteOffset":77272,
			"target":34963
		},
		{
			"buffer":0,
			"byteLength":4500,
			"byteOffset":78952,
			"target":34962
		},
		{
			"buffer":0,
			"byteLength":4500,
			"byteOffset":83452,
			"target":34962
		},
		{
			"buffer":0,
			"byteLength":3000,
			"byteOffset":87952,
			"target":34962
		},
		{
			"buffer":0,
			"byteLength":2796,
			"byteOffset":90952,
			"target":34963
		},
		{
			"buffer":0,
			"byteLength":2796,
			"byteOffset":93748,
			"target":34962
		},
		{
			"buffer":0,
			"byteLength":2796,
			"byteOffset":96544,
			"target":34962
		},
		{
			"buffer":0,
			"byteLength":1864,
			"byteOffset":99340,
			"target":34962
		},
		{
			"buffer":0,
			"byteLength":1476,
			"byteOffset":101204,
			"target":34963
		},
		{
			"buffer":0,
			"byteLength":1536,
			"byteOffset":102680,
			"target":34962
		},
		{
			"buffer":0,
			"byteLength":1536,
			"byteOffset":104216,
			"target":34962
		},
		{
			"buffer":0,
			"byteLength":1024,
			"byteOffset":105752,
			"target":34962
		},
		{
			"buffer":0,
			"byteLength":708,
			"byteOffset":106776,
			"target":34963
		},
		{
			"buffer":0,
			"byteLength":1332,
			"byteOffset":107484,
			"target":34962
		},
		{
			"buffer":0,
			"byteLength":1332,
			"byteOffset":108816,
			"target":34962
		},
		{
			"buffer":0,
			"byteLength":888,
			"byteOffset":110148,
			"target":34962
		},
		{
			"buffer":0,
			"byteLength":600,
			"byteOffset":111036,
			"target":34963
		}
	],
	"samplers":[
		{
			"magFilter":9729,
			"minFilter":9987
		}
	],
	"buffers":[
		{
			"byteLength":111636,
			"uri":"pot_large_fractured.bin"
		}
	]
}
