{
	"asset":{
		"generator":"Khronos glTF Blender I/O v3.6.27",
		"version":"2.0"
	},
	"scene":0,
	"scenes":[
		{
			"name":"Scene",
			"nodes":[
				0,
				1,
				2,
				3,
				4,
				5,
				6,
				7,
				8,
				9
			]
		}
	],
	"nodes":[
		{
			"mesh":0,
			"name":"Sphere_cell",
			"translation":[
				0.039648983627557755,
				0.8716963529586792,
				0.12839096784591675
			]
		},
		{
			"mesh":1,
			"name":"Sphere_cell.001",
			"translation":[
				-0.17300695180892944,
				0.448697954416275,
				-0.18288680911064148
			]
		},
		{
			"mesh":2,
			"name":"Sphere_cell.002",
			"translation":[
				0.2214527726173401,
				0.5488962531089783,
				0.0763082206249237
			]
		},
		{
			"mesh":3,
			"name":"Sphere_cell.003",
			"translation":[
				-0.026245584711432457,
				0.2810632288455963,
				0.17043566703796387
			]
		},
		{
			"mesh":4,
			"name":"Sphere_cell.004",
			"translation":[
				-0.159157395362854,
				0.6854169368743896,
				0.19283625483512878
			]
		},
		{
			"mesh":5,
			"name":"Sphere_cell.005",
			"translation":[
				0.009662803262472153,
				0.08467528969049454,
				-0.015500068664550781
			]
		},
		{
			"mesh":6,
			"name":"Sphere_cell.006",
			"translation":[
				0.07024586945772171,
				0.3147483170032501,
				-0.1790200024843216
			]
		},
		{
			"mesh":7,
			"name":"Sphere_cell.007",
			"translation":[
				-0.2551770806312561,
				0.595564603805542,
				-0.005376784130930901
			]
		},
		{
			"mesh":8,
			"name":"Sphere_cell.008",
			"translation":[
				-0.018286176025867462,
				0.9010493755340576,
				-0.07694663107395172
			]
		},
		{
			"mesh":9,
			"name":"Sphere_cell.009",
			"translation":[
				0.06899552792310715,
				0.6974523663520813,
				-0.21514344215393066
			]
		}
	],
	"materials":[
		{
			"doubleSided":true,
			"name":"Material",
			"normalTexture":{
				"index":0
			},
			"pbrMetallicRoughness":{
				"baseColorTexture":{
					"index":1
				},
				"metallicFactor":0,
				"metallicRoughnessTexture":{
					"index":2
				}
			}
		}
	],
	"meshes":[
		{
			"name":"Sphere_cell.010",
			"primitives":[
				{
					"attributes":{
						"POSITION":0,
						"NORMAL":1,
						"TEXCOORD_0":2
					},
					"indices":3,
					"material":0
				}
			]
		},
		{
			"name":"Sphere_cell.011",
			"primitives":[
				{
					"attributes":{
						"POSITION":4,
						"NORMAL":5,
						"TEXCOORD_0":6
					},
					"indices":7,
					"material":0
				}
			]
		},
		{
			"name":"Sphere_cell.001",
			"primitives":[
				{
					"attributes":{
						"POSITION":8,
						"NORMAL":9,
						"TEXCOORD_0":10
					},
					"indices":11,
					"material":0
				}
			]
		},
		{
			"name":"Sphere_cell.002",
			"primitives":[
				{
					"attributes":{
						"POSITION":12,
						"NORMAL":13,
						"TEXCOORD_0":14
					},
					"indices":15,
					"material":0
				}
			]
		},
		{
			"name":"Sphere_cell.003",
			"primitives":[
				{
					"attributes":{
						"POSITION":16,
						"NORMAL":17,
						"TEXCOORD_0":18
					},
					"indices":19,
					"material":0
				}
			]
		},
		{
			"name":"Sphere_cell.004",
			"primitives":[
				{
					"attributes":{
						"POSITION":20,
						"NORMAL":21,
						"TEXCOORD_0":22
					},
					"indices":23,
					"material":0
				}
			]
		},
		{
			"name":"Sphere_cell.005",
			"primitives":[
				{
					"attributes":{
						"POSITION":24,
						"NORMAL":25,
						"TEXCOORD_0":26
					},
					"indices":27,
					"material":0
				}
			]
		},
		{
			"name":"Sphere_cell.006",
			"primitives":[
				{
					"attributes":{
						"POSITION":28,
						"NORMAL":29,
						"TEXCOORD_0":30
					},
					"indices":31,
					"material":0
				}
			]
		},
		{
			"name":"Sphere_cell.007",
			"primitives":[
				{
					"attributes":{
						"POSITION":32,
						"NORMAL":33,
						"TEXCOORD_0":34
					},
					"indices":35,
					"material":0
				}
			]
		},
		{
			"name":"Sphere_cell.008",
			"primitives":[
				{
					"attributes":{
						"POSITION":36,
						"NORMAL":37,
						"TEXCOORD_0":38
					},
					"indices":39,
					"material":0
				}
			]
		}
	],
	"textures":[
		{
			"sampler":0,
			"source":0
		},
		{
			"sampler":0,
			"source":1
		},
		{
			"sampler":0,
			"source":2
		}
	],
	"images":[
		{
			"mimeType":"image/png",
			"name":"pot_normal.png",
			"uri":"textures/pot_normal.png"
		},
		{
			"mimeType":"image/png",
			"name":"pot_diffuse.png",
			"uri":"textures/pot_diffuse.png"
		},
		{
			"mimeType":"image/png",
			"name":"pot_roughness.png",
			"uri":"textures/pot_roughness.png"
		}
	],
	"accessors":[
		{
			"bufferView":0,
			"componentType":5126,
			"count":310,
			"max":[
				0.21142293512821198,
				0.07968661934137344,
				0.19489584863185883
			],
			"min":[
				-0.20750471949577332,
				-0.2594137191772461,
				-0.16999192535877228
			],
			"type":"VEC3"
		},
		{
			"bufferView":1,
			"componentType":5126,
			"count":310,
			"type":"VEC3"
		},
		{
			"bufferView":2,
			"componentType":5126,
			"count":310,
			"type":"VEC2"
		},
		{
			"bufferView":3,
			"componentType":5123,
			"count":1098,
			"type":"SCALAR"
		},
		{
			"bufferView":4,
			"componentType":5126,
			"count":226,
			"max":[
				0.233088880777359,
				0.24524088203907013,
				0.220703125
			],
			"min":[
				-0.13358181715011597,
				-0.2255549281835556,
				-0.1435655951499939
			],
			"type":"VEC3"
		},
		{
			"bufferView":5,
			"componentType":5126,
			"count":226,
			"type":"VEC3"
		},
		{
			"bufferView":6,
			"componentType":5126,
			"count":226,
			"type":"VEC2"
		},
		{
			"bufferView":7,
			"componentType":5123,
			"count":732,
			"type":"SCALAR"
		},
		{
			"bufferView":8,
			"componentType":5126,
			"count":313,
			"max":[
				0.10708651691675186,
				0.27908846735954285,
				0.25086838006973267
			],
			"min":[
				-0.21720841526985168,
				-0.30580949783325195,
				-0.2600092589855194
			],
			"type":"VEC3"
		},
		{
			"bufferView":9,
			"componentType":5126,
			"count":313,
			"type":"VEC3"
		},
		{
			"bufferView":10,
			"componentType":5126,
			"count":313,
			"type":"VEC2"
		},
		{
			"bufferView":11,
			"componentType":5123,
			"count":1104,
			"type":"SCALAR"
		},
		{
			"bufferView":12,
			"componentType":5126,
			"count":341,
			"max":[
				0.2786758840084076,
				0.2837179899215698,
				0.15810352563858032
			],
			"min":[
				-0.25119689106941223,
				-0.24068590998649597,
				-0.16966092586517334
			],
			"type":"VEC3"
		},
		{
			"bufferView":13,
			"componentType":5126,
			"count":341,
			"type":"VEC3"
		},
		{
			"bufferView":14,
			"componentType":5126,
			"count":341,
			"type":"VEC2"
		},
		{
			"bufferView":15,
			"componentType":5123,
			"count":1104,
			"type":"SCALAR"
		},
		{
			"bufferView":16,
			"componentType":5126,
			"count":219,
			"max":[
				0.18110984563827515,
				0.20371264219284058,
				0.1353510171175003
			],
			"min":[
				-0.13232643902301788,
				-0.24811509251594543,
				-0.17311814427375793
			],
			"type":"VEC3"
		},
		{
			"bufferView":17,
			"componentType":5126,
			"count":219,
			"type":"VEC3"
		},
		{
			"bufferView":18,
			"componentType":5126,
			"count":219,
			"type":"VEC2"
		},
		{
			"bufferView":19,
			"componentType":5123,
			"count":708,
			"type":"SCALAR"
		},
		{
			"bufferView":20,
			"componentType":5126,
			"count":340,
			"max":[
				0.24745337665081024,
				0.17295362055301666,
				0.15547433495521545
			],
			"min":[
				-0.2472171038389206,
				-0.08661504089832306,
				-0.17366233468055725
			],
			"type":"VEC3"
		},
		{
			"bufferView":21,
			"componentType":5126,
			"count":340,
			"type":"VEC3"
		},
		{
			"bufferView":22,
			"componentType":5126,
			"count":340,
			"type":"VEC2"
		},
		{
			"bufferView":23,
			"componentType":5123,
			"count":1074,
			"type":"SCALAR"
		},
		{
			"bufferView":24,
			"componentType":5126,
			"count":257,
			"max":[
				0.21676099300384521,
				0.19742849469184875,
				0.17781439423561096
			],
			"min":[
				-0.30912721157073975,
				-0.18100634217262268,
				-0.13892552256584167
			],
			"type":"VEC3"
		},
		{
			"bufferView":25,
			"componentType":5126,
			"count":257,
			"type":"VEC3"
		},
		{
			"bufferView":26,
			"componentType":5126,
			"count":257,
			"type":"VEC2"
		},
		{
			"bufferView":27,
			"componentType":5123,
			"count":828,
			"type":"SCALAR"
		},
		{
			"bufferView":28,
			"componentType":5126,
			"count":234,
			"max":[
				0.06525608897209167,
				0.25639528036117554,
				0.2034880667924881
			],
			"min":[
				-0.0733620896935463,
				-0.29711219668388367,
				-0.21306845545768738
			],
			"type":"VEC3"
		},
		{
			"bufferView":29,
			"componentType":5126,
			"count":234,
			"type":"VEC3"
		},
		{
			"bufferView":30,
			"componentType":5126,
			"count":234,
			"type":"VEC2"
		},
		{
			"bufferView":31,
			"componentType":5123,
			"count":744,
			"type":"SCALAR"
		},
		{
			"bufferView":32,
			"componentType":5126,
			"count":369,
			"max":[
				0.27082252502441406,
				0.05033363774418831,
				0.14954757690429688
			],
			"min":[
				-0.22189006209373474,
				-0.14813829958438873,
				-0.1463145911693573
			],
			"type":"VEC3"
		},
		{
			"bufferView":33,
			"componentType":5126,
			"count":369,
			"type":"VEC3"
		},
		{
			"bufferView":34,
			"componentType":5126,
			"count":369,
			"type":"VEC2"
		},
		{
			"bufferView":35,
			"componentType":5123,
			"count":1266,
			"type":"SCALAR"
		},
		{
			"bufferView":36,
			"componentType":5126,
			"count":261,
			"max":[
				0.21796193718910217,
				0.17353135347366333,
				0.1609804630279541
			],
			"min":[
				-0.2930595278739929,
				-0.19539925456047058,
				-0.11339586973190308
			],
			"type":"VEC3"
		},
		{
			"bufferView":37,
			"componentType":5126,
			"count":261,
			"type":"VEC3"
		},
		{
			"bufferView":38,
			"componentType":5126,
			"count":261,
			"type":"VEC2"
		},
		{
			"bufferView":39,
			"componentType":5123,
			"count":858,
			"type":"SCALAR"
		}
	],
	"bufferViews":[
		{
			"buffer":0,
			"byteLength":3720,
			"byteOffset":0,
			"target":34962
		},
		{
			"buffer":0,
			"byteLength":3720,
			"byteOffset":3720,
			"target":34962
		},
		{
			"buffer":0,
			"byteLength":2480,
			"byteOffset":7440,
			"target":34962
		},
		{
			"buffer":0,
			"byteLength":2196,
			"byteOffset":9920,
			"target":34963
		},
		{
			"buffer":0,
			"byteLength":2712,
			"byteOffset":12116,
			"target":34962
		},
		{
			"buffer":0,
			"byteLength":2712,
			"byteOffset":14828,
			"target":34962
		},
		{
			"buffer":0,
			"byteLength":1808,
			"byteOffset":17540,
			"target":34962
		},
		{
			"buffer":0,
			"byteLength":1464,
			"byteOffset":19348,
			"target":34963
		},
		{
			"buffer":0,
			"byteLength":3756,
			"byteOffset":20812,
			"target":34962
		},
		{
			"buffer":0,
			"byteLength":3756,
			"byteOffset":24568,
			"target":34962
		},
		{
			"buffer":0,
			"byteLength":2504,
			"byteOffset":28324,
			"target":34962
		},
		{
			"buffer":0,
			"byteLength":2208,
			"byteOffset":30828,
			"target":34963
		},
		{
			"buffer":0,
			"byteLength":4092,
			"byteOffset":33036,
			"target":34962
		},
		{
			"buffer":0,
			"byteLength":4092,
			"byteOffset":37128,
			"target":34962
		},
		{
			"buffer":0,
			"byteLength":2728,
			"byteOffset":41220,
			"target":34962
		},
		{
			"buffer":0,
			"byteLength":2208,
			"byteOffset":43948,
			"target":34963
		},
		{
			"buffer":0,
			"byteLength":2628,
			"byteOffset":46156,
			"target":34962
		},
		{
			"buffer":0,
			"byteLength":2628,
			"byteOffset":48784,
			"target":34962
		},
		{
			"buffer":0,
			"byteLength":1752,
			"byteOffset":51412,
			"target":34962
		},
		{
			"buffer":0,
			"byteLength":1416,
			"byteOffset":53164,
			"target":34963
		},
		{
			"buffer":0,
			"byteLength":4080,
			"byteOffset":54580,
			"target":34962
		},
		{
			"buffer":0,
			"byteLength":4080,
			"byteOffset":58660,
			"target":34962
		},
		{
			"buffer":0,
			"byteLength":2720,
			"byteOffset":62740,
			"target":34962
		},
		{
			"buffer":0,
			"byteLength":2148,
			"byteOffset":65460,
			"target":34963
		},
		{
			"buffer":0,
			"byteLength":3084,
			"byteOffset":67608,
			"target":34962
		},
		{
			"buffer":0,
			"byteLength":3084,
			"byteOffset":70692,
			"target":34962
		},
		{
			"buffer":0,
			"byteLength":2056,
			"byteOffset":73776,
			"target":34962
		},
		{
			"buffer":0,
			"byteLength":1656,
			"byteOffset":75832,
			"target":34963
		},
		{
			"buffer":0,
			"byteLength":2808,
			"byteOffset":77488,
			"target":34962
		},
		{
			"buffer":0,
			"byteLength":2808,
			"byteOffset":80296,
			"target":34962
		},
		{
			"buffer":0,
			"byteLength":1872,
			"byteOffset":83104,
			"target":34962
		},
		{
			"buffer":0,
			"byteLength":1488,
			"byteOffset":84976,
			"target":34963
		},
		{
			"buffer":0,
			"byteLength":4428,
			"byteOffset":86464,
			"target":34962
		},
		{
			"buffer":0,
			"byteLength":4428,
			"byteOffset":90892,
			"target":34962
		},
		{
			"buffer":0,
			"byteLength":2952,
			"byteOffset":95320,
			"target":34962
		},
		{
			"buffer":0,
			"byteLength":2532,
			"byteOffset":98272,
			"target":34963
		},
		{
			"buffer":0,
			"byteLength":3132,
			"byteOffset":100804,
			"target":34962
		},
		{
			"buffer":0,
			"byteLength":3132,
			"byteOffset":103936,
			"target":34962
		},
		{
			"buffer":0,
			"byteLength":2088,
			"byteOffset":107068,
			"target":34962
		},
		{
			"buffer":0,
			"byteLength":1716,
			"byteOffset":109156,
			"target":34963
		}
	],
	"samplers":[
		{
			"magFilter":9729,
			"minFilter":9987
		}
	],
	"buffers":[
		{
			"byteLength":110872,
			"uri":"pot_fractured.bin"
		}
	]
}
