{
	"asset":{
		"generator":"Khronos glTF Blender I/O v3.6.27",
		"version":"2.0"
	},
	"scene":0,
	"scenes":[
		{
			"name":"Scene",
			"nodes":[
				0,
				1,
				2,
				3,
				4,
				5,
				6
			]
		}
	],
	"nodes":[
		{
			"mesh":0,
			"name":"Sphere_cell.001",
			"translation":[
				-0.17300695180892944,
				0.448697954416275,
				-0.18288680911064148
			]
		},
		{
			"mesh":1,
			"name":"Sphere_cell.002",
			"translation":[
				0.2214527726173401,
				0.5488962531089783,
				0.0763082206249237
			]
		},
		{
			"mesh":2,
			"name":"Sphere_cell.003",
			"translation":[
				-0.026245584711432457,
				0.2810632288455963,
				0.17043566703796387
			]
		},
		{
			"mesh":3,
			"name":"Sphere_cell.004",
			"translation":[
				-0.159157395362854,
				0.6854169368743896,
				0.19283625483512878
			]
		},
		{
			"mesh":4,
			"name":"Sphere_cell.006",
			"translation":[
				0.07024586945772171,
				0.3147483170032501,
				-0.1790200024843216
			]
		},
		{
			"mesh":5,
			"name":"Sphere_cell.007",
			"translation":[
				-0.2551770806312561,
				0.595564603805542,
				-0.005376784130930901
			]
		},
		{
			"mesh":6,
			"name":"Sphere_cell.009",
			"translation":[
				0.06899552792310715,
				0.6974523663520813,
				-0.21514344215393066
			]
		}
	],
	"materials":[
		{
			"doubleSided":true,
			"name":"Material",
			"normalTexture":{
				"index":0
			},
			"pbrMetallicRoughness":{
				"baseColorTexture":{
					"index":1
				},
				"metallicFactor":0,
				"metallicRoughnessTexture":{
					"index":2
				}
			}
		}
	],
	"meshes":[
		{
			"name":"Sphere_cell.011",
			"primitives":[
				{
					"attributes":{
						"POSITION":0,
						"NORMAL":1,
						"TEXCOORD_0":2
					},
					"indices":3,
					"material":0
				}
			]
		},
		{
			"name":"Sphere_cell.001",
			"primitives":[
				{
					"attributes":{
						"POSITION":4,
						"NORMAL":5,
						"TEXCOORD_0":6
					},
					"indices":7,
					"material":0
				}
			]
		},
		{
			"name":"Sphere_cell.002",
			"primitives":[
				{
					"attributes":{
						"POSITION":8,
						"NORMAL":9,
						"TEXCOORD_0":10
					},
					"indices":11,
					"material":0
				}
			]
		},
		{
			"name":"Sphere_cell.003",
			"primitives":[
				{
					"attributes":{
						"POSITION":12,
						"NORMAL":13,
						"TEXCOORD_0":14
					},
					"indices":15,
					"material":0
				}
			]
		},
		{
			"name":"Sphere_cell.005",
			"primitives":[
				{
					"attributes":{
						"POSITION":16,
						"NORMAL":17,
						"TEXCOORD_0":18
					},
					"indices":19,
					"material":0
				}
			]
		},
		{
			"name":"Sphere_cell.006",
			"primitives":[
				{
					"attributes":{
						"POSITION":20,
						"NORMAL":21,
						"TEXCOORD_0":22
					},
					"indices":23,
					"material":0
				}
			]
		},
		{
			"name":"Sphere_cell.008",
			"primitives":[
				{
					"attributes":{
						"POSITION":24,
						"NORMAL":25,
						"TEXCOORD_0":26
					},
					"indices":27,
					"material":0
				}
			]
		}
	],
	"textures":[
		{
			"sampler":0,
			"source":0
		},
		{
			"sampler":0,
			"source":1
		},
		{
			"sampler":0,
			"source":2
		}
	],
	"images":[
		{
			"mimeType":"image/png",
			"name":"pot_normal.png",
			"uri":"textures/pot_normal.png"
		},
		{
			"mimeType":"image/png",
			"name":"pot_diffuse.png",
			"uri":"textures/pot_diffuse.png"
		},
		{
			"mimeType":"image/png",
			"name":"pot_roughness.png",
			"uri":"textures/pot_roughness.png"
		}
	],
	"accessors":[
		{
			"bufferView":0,
			"componentType":5126,
			"count":226,
			"max":[
				0.19331201910972595,
				0.20339027047157288,
				0.18303991854190826
			],
			"min":[
				-0.11078594624996185,
				-0.18706375360488892,
				-0.11906597763299942
			],
			"type":"VEC3"
		},
		{
			"bufferView":1,
			"componentType":5126,
			"count":226,
			"type":"VEC3"
		},
		{
			"bufferView":2,
			"componentType":5126,
			"count":226,
			"type":"VEC2"
		},
		{
			"bufferView":3,
			"componentType":5123,
			"count":732,
			"type":"SCALAR"
		},
		{
			"bufferView":4,
			"componentType":5126,
			"count":313,
			"max":[
				0.08881209045648575,
				0.23146173357963562,
				0.2080574333667755
			],
			"min":[
				-0.18014158308506012,
				-0.25362280011177063,
				-0.2156384140253067
			],
			"type":"VEC3"
		},
		{
			"bufferView":5,
			"componentType":5126,
			"count":313,
			"type":"VEC3"
		},
		{
			"bufferView":6,
			"componentType":5126,
			"count":313,
			"type":"VEC2"
		},
		{
			"bufferView":7,
			"componentType":5123,
			"count":1104,
			"type":"SCALAR"
		},
		{
			"bufferView":8,
			"componentType":5126,
			"count":341,
			"max":[
				0.2311195582151413,
				0.23530122637748718,
				0.13112299144268036
			],
			"min":[
				-0.20832988619804382,
				-0.19961261749267578,
				-0.14070811867713928
			],
			"type":"VEC3"
		},
		{
			"bufferView":9,
			"componentType":5126,
			"count":341,
			"type":"VEC3"
		},
		{
			"bufferView":10,
			"componentType":5126,
			"count":341,
			"type":"VEC2"
		},
		{
			"bufferView":11,
			"componentType":5123,
			"count":1104,
			"type":"SCALAR"
		},
		{
			"bufferView":12,
			"componentType":5126,
			"count":219,
			"max":[
				0.15020327270030975,
				0.16894887387752533,
				0.11225322633981705
			],
			"min":[
				-0.10974479466676712,
				-0.2057739943265915,
				-0.14357535541057587
			],
			"type":"VEC3"
		},
		{
			"bufferView":13,
			"componentType":5126,
			"count":219,
			"type":"VEC3"
		},
		{
			"bufferView":14,
			"componentType":5126,
			"count":219,
			"type":"VEC2"
		},
		{
			"bufferView":15,
			"componentType":5123,
			"count":708,
			"type":"SCALAR"
		},
		{
			"bufferView":16,
			"componentType":5126,
			"count":257,
			"max":[
				0.17977051436901093,
				0.16373711824417114,
				0.14747019112110138
			],
			"min":[
				-0.256374329328537,
				-0.150117427110672,
				-0.11521773785352707
			],
			"type":"VEC3"
		},
		{
			"bufferView":17,
			"componentType":5126,
			"count":257,
			"type":"VEC3"
		},
		{
			"bufferView":18,
			"componentType":5126,
			"count":257,
			"type":"VEC2"
		},
		{
			"bufferView":19,
			"componentType":5123,
			"count":828,
			"type":"SCALAR"
		},
		{
			"bufferView":20,
			"componentType":5126,
			"count":234,
			"max":[
				0.05412007123231888,
				0.2126411646604538,
				0.16876262426376343
			],
			"min":[
				-0.06084277480840683,
				-0.24640969932079315,
				-0.17670810222625732
			],
			"type":"VEC3"
		},
		{
			"bufferView":21,
			"componentType":5126,
			"count":234,
			"type":"VEC3"
		},
		{
			"bufferView":22,
			"componentType":5126,
			"count":234,
			"type":"VEC2"
		},
		{
			"bufferView":23,
			"componentType":5123,
			"count":744,
			"type":"SCALAR"
		},
		{
			"bufferView":24,
			"componentType":5126,
			"count":250,
			"max":[
				0.1807665079832077,
				0.14391805231571198,
				0.12720170617103577
			],
			"min":[
				-0.24304862320423126,
				-0.1620541661977768,
				-0.0940447524189949
			],
			"type":"VEC3"
		},
		{
			"bufferView":25,
			"componentType":5126,
			"count":250,
			"type":"VEC3"
		},
		{
			"bufferView":26,
			"componentType":5126,
			"count":250,
			"type":"VEC2"
		},
		{
			"bufferView":27,
			"componentType":5123,
			"count":804,
			"type":"SCALAR"
		}
	],
	"bufferViews":[
		{
			"buffer":0,
			"byteLength":2712,
			"byteOffset":0,
			"target":34962
		},
		{
			"buffer":0,
			"byteLength":2712,
			"byteOffset":2712,
			"target":34962
		},
		{
			"buffer":0,
			"byteLength":1808,
			"byteOffset":5424,
			"target":34962
		},
		{
			"buffer":0,
			"byteLength":1464,
			"byteOffset":7232,
			"target":34963
		},
		{
			"buffer":0,
			"byteLength":3756,
			"byteOffset":8696,
			"target":34962
		},
		{
			"buffer":0,
			"byteLength":3756,
			"byteOffset":12452,
			"target":34962
		},
		{
			"buffer":0,
			"byteLength":2504,
			"byteOffset":16208,
			"target":34962
		},
		{
			"buffer":0,
			"byteLength":2208,
			"byteOffset":18712,
			"target":34963
		},
		{
			"buffer":0,
			"byteLength":4092,
			"byteOffset":20920,
			"target":34962
		},
		{
			"buffer":0,
			"byteLength":4092,
			"byteOffset":25012,
			"target":34962
		},
		{
			"buffer":0,
			"byteLength":2728,
			"byteOffset":29104,
			"target":34962
		},
		{
			"buffer":0,
			"byteLength":2208,
			"byteOffset":31832,
			"target":34963
		},
		{
			"buffer":0,
			"byteLength":2628,
			"byteOffset":34040,
			"target":34962
		},
		{
			"buffer":0,
			"byteLength":2628,
			"byteOffset":36668,
			"target":34962
		},
		{
			"buffer":0,
			"byteLength":1752,
			"byteOffset":39296,
			"target":34962
		},
		{
			"buffer":0,
			"byteLength":1416,
			"byteOffset":41048,
			"target":34963
		},
		{
			"buffer":0,
			"byteLength":3084,
			"byteOffset":42464,
			"target":34962
		},
		{
			"buffer":0,
			"byteLength":3084,
			"byteOffset":45548,
			"target":34962
		},
		{
			"buffer":0,
			"byteLength":2056,
			"byteOffset":48632,
			"target":34962
		},
		{
			"buffer":0,
			"byteLength":1656,
			"byteOffset":50688,
			"target":34963
		},
		{
			"buffer":0,
			"byteLength":2808,
			"byteOffset":52344,
			"target":34962
		},
		{
			"buffer":0,
			"byteLength":2808,
			"byteOffset":55152,
			"target":34962
		},
		{
			"buffer":0,
			"byteLength":1872,
			"byteOffset":57960,
			"target":34962
		},
		{
			"buffer":0,
			"byteLength":1488,
			"byteOffset":59832,
			"target":34963
		},
		{
			"buffer":0,
			"byteLength":3000,
			"byteOffset":61320,
			"target":34962
		},
		{
			"buffer":0,
			"byteLength":3000,
			"byteOffset":64320,
			"target":34962
		},
		{
			"buffer":0,
			"byteLength":2000,
			"byteOffset":67320,
			"target":34962
		},
		{
			"buffer":0,
			"byteLength":1608,
			"byteOffset":69320,
			"target":34963
		}
	],
	"samplers":[
		{
			"magFilter":9729,
			"minFilter":9987
		}
	],
	"buffers":[
		{
			"byteLength":70928,
			"uri":"pot_fractured.bin"
		}
	]
}
