{
	"asset":{
		"generator":"Khronos glTF Blender I/O v3.6.27",
		"version":"2.0"
	},
	"scene":0,
	"scenes":[
		{
			"name":"Scene",
			"nodes":[
				0
			]
		}
	],
	"nodes":[
		{
			"mesh":0,
			"name":"Sphere"
		}
	],
	"materials":[
		{
			"name":"Material",
			"normalTexture":{
				"index":0
			},
			"pbrMetallicRoughness":{
				"baseColorTexture":{
					"index":1
				},
				"metallicFactor":0,
				"metallicRoughnessTexture":{
					"index":2
				}
			}
		}
	],
	"meshes":[
		{
			"name":"Sphere",
			"primitives":[
				{
					"attributes":{
						"POSITION":0,
						"NORMAL":1,
						"TEXCOORD_0":2
					},
					"indices":3,
					"material":0
				}
			]
		}
	],
	"textures":[
		{
			"sampler":0,
			"source":0
		},
		{
			"sampler":0,
			"source":1
		},
		{
			"sampler":0,
			"source":2
		}
	],
	"images":[
		{
			"mimeType":"image/png",
			"name":"pot_normal.png",
			"uri":"textures/pot_normal.png"
		},
		{
			"mimeType":"image/png",
			"name":"pot_diffuse.png",
			"uri":"textures/pot_diffuse.png"
		},
		{
			"mimeType":"image/png",
			"name":"pot_roughness.png",
			"uri":"textures/pot_roughness.png"
		}
	],
	"accessors":[
		{
			"bufferView":0,
			"componentType":5126,
			"count":2408,
			"max":[
				0.2760360538959503,
				0.7795836329460144,
				0.27603599429130554
			],
			"min":[
				-0.27603596448898315,
				-0.0015894770622253418,
				-0.2760360538959503
			],
			"type":"VEC3"
		},
		{
			"bufferView":1,
			"componentType":5126,
			"count":2408,
			"type":"VEC3"
		},
		{
			"bufferView":2,
			"componentType":5126,
			"count":2408,
			"type":"VEC2"
		},
		{
			"bufferView":3,
			"componentType":5123,
			"count":13524,
			"type":"SCALAR"
		}
	],
	"bufferViews":[
		{
			"buffer":0,
			"byteLength":28896,
			"byteOffset":0,
			"target":34962
		},
		{
			"buffer":0,
			"byteLength":28896,
			"byteOffset":28896,
			"target":34962
		},
		{
			"buffer":0,
			"byteLength":19264,
			"byteOffset":57792,
			"target":34962
		},
		{
			"buffer":0,
			"byteLength":27048,
			"byteOffset":77056,
			"target":34963
		}
	],
	"samplers":[
		{
			"magFilter":9729,
			"minFilter":9987
		}
	],
	"buffers":[
		{
			"byteLength":104104,
			"uri":"pot_vase.bin"
		}
	]
}
