{
	"asset":{
		"generator":"Khronos glTF Blender I/O v3.6.27",
		"version":"2.0"
	},
	"scene":0,
	"scenes":[
		{
			"name":"Scene",
			"nodes":[
				0,
				1,
				2,
				3,
				4,
				5,
				6
			]
		}
	],
	"nodes":[
		{
			"mesh":0,
			"name":"Sphere_cell.003",
			"translation":[
				0.23011809587478638,
				0.4169165790081024,
				0.0379357635974884
			]
		},
		{
			"mesh":1,
			"name":"Sphere_cell.004",
			"translation":[
				-0.20522193610668182,
				0.49249252676963806,
				0.15699642896652222
			]
		},
		{
			"mesh":2,
			"name":"Sphere_cell.005",
			"translation":[
				0.0476887971162796,
				0.43223685026168823,
				-0.27579954266548157
			]
		},
		{
			"mesh":3,
			"name":"Sphere_cell.006",
			"translation":[
				0.061246778815984726,
				0.19755683839321136,
				0.17795836925506592
			]
		},
		{
			"mesh":4,
			"name":"Sphere_cell.007",
			"translation":[
				-0.1975051462650299,
				0.3524830639362335,
				-0.15169697999954224
			]
		},
		{
			"mesh":5,
			"name":"Sphere_cell.008",
			"translation":[
				-0.22076129913330078,
				0.560230553150177,
				-0.19090759754180908
			]
		},
		{
			"mesh":6,
			"name":"Sphere_cell.009",
			"translation":[
				-0.04531355947256088,
				0.6107240319252014,
				-0.25815248489379883
			]
		}
	],
	"materials":[
		{
			"name":"Material",
			"normalTexture":{
				"index":0
			},
			"pbrMetallicRoughness":{
				"baseColorTexture":{
					"index":1
				},
				"metallicFactor":0,
				"metallicRoughnessTexture":{
					"index":2
				}
			}
		}
	],
	"meshes":[
		{
			"name":"Sphere_cell.002",
			"primitives":[
				{
					"attributes":{
						"POSITION":0,
						"NORMAL":1,
						"TEXCOORD_0":2
					},
					"indices":3,
					"material":0
				}
			]
		},
		{
			"name":"Sphere_cell.003",
			"primitives":[
				{
					"attributes":{
						"POSITION":4,
						"NORMAL":5,
						"TEXCOORD_0":6
					},
					"indices":7,
					"material":0
				}
			]
		},
		{
			"name":"Sphere_cell.004",
			"primitives":[
				{
					"attributes":{
						"POSITION":8,
						"NORMAL":9,
						"TEXCOORD_0":10
					},
					"indices":11,
					"material":0
				}
			]
		},
		{
			"name":"Sphere_cell.005",
			"primitives":[
				{
					"attributes":{
						"POSITION":12,
						"NORMAL":13,
						"TEXCOORD_0":14
					},
					"indices":15,
					"material":0
				}
			]
		},
		{
			"name":"Sphere_cell.006",
			"primitives":[
				{
					"attributes":{
						"POSITION":16,
						"NORMAL":17,
						"TEXCOORD_0":18
					},
					"indices":19,
					"material":0
				}
			]
		},
		{
			"name":"Sphere_cell.007",
			"primitives":[
				{
					"attributes":{
						"POSITION":20,
						"NORMAL":21,
						"TEXCOORD_0":22
					},
					"indices":23,
					"material":0
				}
			]
		},
		{
			"name":"Sphere_cell.008",
			"primitives":[
				{
					"attributes":{
						"POSITION":24,
						"NORMAL":25,
						"TEXCOORD_0":26
					},
					"indices":27,
					"material":0
				}
			]
		}
	],
	"textures":[
		{
			"sampler":0,
			"source":0
		},
		{
			"sampler":0,
			"source":1
		},
		{
			"sampler":0,
			"source":2
		}
	],
	"images":[
		{
			"mimeType":"image/png",
			"name":"pot_normal.png",
			"uri":"textures/pot_normal.png"
		},
		{
			"mimeType":"image/png",
			"name":"pot_diffuse.png",
			"uri":"textures/pot_diffuse.png"
		},
		{
			"mimeType":"image/png",
			"name":"pot_roughness.png",
			"uri":"textures/pot_roughness.png"
		}
	],
	"accessors":[
		{
			"bufferView":0,
			"componentType":5126,
			"count":343,
			"max":[
				0.10342675447463989,
				0.2146015167236328,
				0.2604692876338959
			],
			"min":[
				-0.17337921261787415,
				-0.24808064103126526,
				-0.2476966381072998
			],
			"type":"VEC3"
		},
		{
			"bufferView":1,
			"componentType":5126,
			"count":343,
			"type":"VEC3"
		},
		{
			"bufferView":2,
			"componentType":5126,
			"count":343,
			"type":"VEC2"
		},
		{
			"bufferView":3,
			"componentType":5123,
			"count":1284,
			"type":"SCALAR"
		},
		{
			"bufferView":4,
			"componentType":5126,
			"count":317,
			"max":[
				0.20345622301101685,
				0.20053593814373016,
				0.16568826138973236
			],
			"min":[
				-0.12482108175754547,
				-0.25742024183273315,
				-0.19496768712997437
			],
			"type":"VEC3"
		},
		{
			"bufferView":5,
			"componentType":5126,
			"count":317,
			"type":"VEC3"
		},
		{
			"bufferView":6,
			"componentType":5126,
			"count":317,
			"type":"VEC2"
		},
		{
			"bufferView":7,
			"componentType":5123,
			"count":1122,
			"type":"SCALAR"
		},
		{
			"bufferView":8,
			"componentType":5126,
			"count":255,
			"max":[
				0.17374318838119507,
				0.20694555342197418,
				0.07106305658817291
			],
			"min":[
				-0.20431093871593475,
				-0.2042461484670639,
				-0.06417061388492584
			],
			"type":"VEC3"
		},
		{
			"bufferView":9,
			"componentType":5126,
			"count":255,
			"type":"VEC3"
		},
		{
			"bufferView":10,
			"componentType":5126,
			"count":255,
			"type":"VEC2"
		},
		{
			"bufferView":11,
			"componentType":5123,
			"count":840,
			"type":"SCALAR"
		},
		{
			"bufferView":12,
			"componentType":5126,
			"count":375,
			"max":[
				0.17406827211380005,
				0.3182019889354706,
				0.14824995398521423
			],
			"min":[
				-0.24113193154335022,
				-0.17113558948040009,
				-0.23363158106803894
			],
			"type":"VEC3"
		},
		{
			"bufferView":13,
			"componentType":5126,
			"count":375,
			"type":"VEC3"
		},
		{
			"bufferView":14,
			"componentType":5126,
			"count":375,
			"type":"VEC2"
		},
		{
			"bufferView":15,
			"componentType":5123,
			"count":1398,
			"type":"SCALAR"
		},
		{
			"bufferView":16,
			"componentType":5126,
			"count":233,
			"max":[
				0.1833774894475937,
				0.2000342309474945,
				0.15018397569656372
			],
			"min":[
				-0.12774395942687988,
				-0.161231130361557,
				-0.1338418871164322
			],
			"type":"VEC3"
		},
		{
			"bufferView":17,
			"componentType":5126,
			"count":233,
			"type":"VEC3"
		},
		{
			"bufferView":18,
			"componentType":5126,
			"count":233,
			"type":"VEC2"
		},
		{
			"bufferView":19,
			"componentType":5123,
			"count":738,
			"type":"SCALAR"
		},
		{
			"bufferView":20,
			"componentType":5126,
			"count":128,
			"max":[
				0.08940634876489639,
				0.0914452075958252,
				0.1182507872581482
			],
			"min":[
				-0.08613434433937073,
				-0.09217865765094757,
				-0.09954095631837845
			],
			"type":"VEC3"
		},
		{
			"bufferView":21,
			"componentType":5126,
			"count":128,
			"type":"VEC3"
		},
		{
			"bufferView":22,
			"componentType":5126,
			"count":128,
			"type":"VEC2"
		},
		{
			"bufferView":23,
			"componentType":5123,
			"count":354,
			"type":"SCALAR"
		},
		{
			"bufferView":24,
			"componentType":5126,
			"count":111,
			"max":[
				0.11263250559568405,
				0.06100710481405258,
				0.03582704812288284
			],
			"min":[
				-0.10134927928447723,
				-0.09381850808858871,
				-0.05387864634394646
			],
			"type":"VEC3"
		},
		{
			"bufferView":25,
			"componentType":5126,
			"count":111,
			"type":"VEC3"
		},
		{
			"bufferView":26,
			"componentType":5126,
			"count":111,
			"type":"VEC2"
		},
		{
			"bufferView":27,
			"componentType":5123,
			"count":300,
			"type":"SCALAR"
		}
	],
	"bufferViews":[
		{
			"buffer":0,
			"byteLength":4116,
			"byteOffset":0,
			"target":34962
		},
		{
			"buffer":0,
			"byteLength":4116,
			"byteOffset":4116,
			"target":34962
		},
		{
			"buffer":0,
			"byteLength":2744,
			"byteOffset":8232,
			"target":34962
		},
		{
			"buffer":0,
			"byteLength":2568,
			"byteOffset":10976,
			"target":34963
		},
		{
			"buffer":0,
			"byteLength":3804,
			"byteOffset":13544,
			"target":34962
		},
		{
			"buffer":0,
			"byteLength":3804,
			"byteOffset":17348,
			"target":34962
		},
		{
			"buffer":0,
			"byteLength":2536,
			"byteOffset":21152,
			"target":34962
		},
		{
			"buffer":0,
			"byteLength":2244,
			"byteOffset":23688,
			"target":34963
		},
		{
			"buffer":0,
			"byteLength":3060,
			"byteOffset":25932,
			"target":34962
		},
		{
			"buffer":0,
			"byteLength":3060,
			"byteOffset":28992,
			"target":34962
		},
		{
			"buffer":0,
			"byteLength":2040,
			"byteOffset":32052,
			"target":34962
		},
		{
			"buffer":0,
			"byteLength":1680,
			"byteOffset":34092,
			"target":34963
		},
		{
			"buffer":0,
			"byteLength":4500,
			"byteOffset":35772,
			"target":34962
		},
		{
			"buffer":0,
			"byteLength":4500,
			"byteOffset":40272,
			"target":34962
		},
		{
			"buffer":0,
			"byteLength":3000,
			"byteOffset":44772,
			"target":34962
		},
		{
			"buffer":0,
			"byteLength":2796,
			"byteOffset":47772,
			"target":34963
		},
		{
			"buffer":0,
			"byteLength":2796,
			"byteOffset":50568,
			"target":34962
		},
		{
			"buffer":0,
			"byteLength":2796,
			"byteOffset":53364,
			"target":34962
		},
		{
			"buffer":0,
			"byteLength":1864,
			"byteOffset":56160,
			"target":34962
		},
		{
			"buffer":0,
			"byteLength":1476,
			"byteOffset":58024,
			"target":34963
		},
		{
			"buffer":0,
			"byteLength":1536,
			"byteOffset":59500,
			"target":34962
		},
		{
			"buffer":0,
			"byteLength":1536,
			"byteOffset":61036,
			"target":34962
		},
		{
			"buffer":0,
			"byteLength":1024,
			"byteOffset":62572,
			"target":34962
		},
		{
			"buffer":0,
			"byteLength":708,
			"byteOffset":63596,
			"target":34963
		},
		{
			"buffer":0,
			"byteLength":1332,
			"byteOffset":64304,
			"target":34962
		},
		{
			"buffer":0,
			"byteLength":1332,
			"byteOffset":65636,
			"target":34962
		},
		{
			"buffer":0,
			"byteLength":888,
			"byteOffset":66968,
			"target":34962
		},
		{
			"buffer":0,
			"byteLength":600,
			"byteOffset":67856,
			"target":34963
		}
	],
	"samplers":[
		{
			"magFilter":9729,
			"minFilter":9987
		}
	],
	"buffers":[
		{
			"byteLength":68456,
			"uri":"pot_large_fractured.bin"
		}
	]
}
