{
	"asset":{
		"generator":"Khronos glTF Blender I/O v3.6.27",
		"version":"2.0"
	},
	"scene":0,
	"scenes":[
		{
			"name":"Scene",
			"nodes":[
				0,
				1,
				2,
				3,
				4,
				5,
				6,
				7
			]
		}
	],
	"nodes":[
		{
			"mesh":0,
			"name":"Sphere_cell",
			"translation":[
				-0.047027960419654846,
				0.17584264278411865,
				-0.0893397256731987
			]
		},
		{
			"mesh":1,
			"name":"Sphere_cell.001",
			"translation":[
				-0.20633181929588318,
				0.434159517288208,
				0.005491174757480621
			]
		},
		{
			"mesh":2,
			"name":"Sphere_cell.003",
			"translation":[
				-0.006164487451314926,
				0.6342644691467285,
				-0.13940148055553436
			]
		},
		{
			"mesh":3,
			"name":"Sphere_cell.004",
			"translation":[
				-0.1954859346151352,
				0.5760990381240845,
				0.048824749886989594
			]
		},
		{
			"mesh":4,
			"name":"Sphere_cell.006",
			"translation":[
				0.057143017649650574,
				0.24727106094360352,
				0.12544992566108704
			]
		},
		{
			"mesh":5,
			"name":"Sphere_cell.007",
			"translation":[
				0.12910640239715576,
				0.5224155187606812,
				0.13686232268810272
			]
		},
		{
			"mesh":6,
			"name":"Sphere_cell.008",
			"translation":[
				-0.19014357030391693,
				0.686062216758728,
				-0.0007090456783771515
			]
		},
		{
			"mesh":7,
			"name":"Sphere_cell.009",
			"translation":[
				0.1967717409133911,
				0.6681573390960693,
				0
			]
		}
	],
	"materials":[
		{
			"doubleSided":true,
			"name":"Material",
			"normalTexture":{
				"index":0
			},
			"pbrMetallicRoughness":{
				"baseColorTexture":{
					"index":1
				},
				"metallicFactor":0,
				"metallicRoughnessTexture":{
					"index":2
				}
			}
		}
	],
	"meshes":[
		{
			"name":"Sphere_cell.008",
			"primitives":[
				{
					"attributes":{
						"POSITION":0,
						"NORMAL":1,
						"TEXCOORD_0":2
					},
					"indices":3,
					"material":0
				}
			]
		},
		{
			"name":"Sphere_cell.009",
			"primitives":[
				{
					"attributes":{
						"POSITION":4,
						"NORMAL":5,
						"TEXCOORD_0":6
					},
					"indices":7,
					"material":0
				}
			]
		},
		{
			"name":"Sphere_cell.002",
			"primitives":[
				{
					"attributes":{
						"POSITION":8,
						"NORMAL":9,
						"TEXCOORD_0":10
					},
					"indices":11,
					"material":0
				}
			]
		},
		{
			"name":"Sphere_cell.003",
			"primitives":[
				{
					"attributes":{
						"POSITION":12,
						"NORMAL":13,
						"TEXCOORD_0":14
					},
					"indices":15,
					"material":0
				}
			]
		},
		{
			"name":"Sphere_cell.005",
			"primitives":[
				{
					"attributes":{
						"POSITION":16,
						"NORMAL":17,
						"TEXCOORD_0":18
					},
					"indices":19,
					"material":0
				}
			]
		},
		{
			"name":"Sphere_cell.006",
			"primitives":[
				{
					"attributes":{
						"POSITION":20,
						"NORMAL":21,
						"TEXCOORD_0":22
					},
					"indices":23,
					"material":0
				}
			]
		},
		{
			"name":"Sphere_cell.007",
			"primitives":[
				{
					"attributes":{
						"POSITION":24,
						"NORMAL":25,
						"TEXCOORD_0":26
					},
					"indices":27,
					"material":0
				}
			]
		},
		{
			"name":"Sphere_cell.010",
			"primitives":[
				{
					"attributes":{
						"POSITION":28,
						"NORMAL":29,
						"TEXCOORD_0":30
					},
					"indices":31,
					"material":0
				}
			]
		}
	],
	"textures":[
		{
			"sampler":0,
			"source":0
		},
		{
			"sampler":0,
			"source":1
		},
		{
			"sampler":0,
			"source":2
		}
	],
	"images":[
		{
			"mimeType":"image/png",
			"name":"pot_normal.png",
			"uri":"textures/pot_normal.png"
		},
		{
			"mimeType":"image/png",
			"name":"pot_diffuse.png",
			"uri":"textures/pot_diffuse.png"
		},
		{
			"mimeType":"image/png",
			"name":"pot_roughness.png",
			"uri":"textures/pot_roughness.png"
		}
	],
	"accessors":[
		{
			"bufferView":0,
			"componentType":5126,
			"count":497,
			"max":[
				0.2513752579689026,
				0.3039194345474243,
				0.23509925603866577
			],
			"min":[
				-0.20728126168251038,
				-0.177432119846344,
				-0.18374967575073242
			],
			"type":"VEC3"
		},
		{
			"bufferView":1,
			"componentType":5126,
			"count":497,
			"type":"VEC3"
		},
		{
			"bufferView":2,
			"componentType":5126,
			"count":497,
			"type":"VEC2"
		},
		{
			"bufferView":3,
			"componentType":5123,
			"count":1932,
			"type":"SCALAR"
		},
		{
			"bufferView":4,
			"componentType":5126,
			"count":214,
			"max":[
				0.07070580124855042,
				0.1534060537815094,
				0.20413503050804138
			],
			"min":[
				-0.06970415264368057,
				-0.18965959548950195,
				-0.21354305744171143
			],
			"type":"VEC3"
		},
		{
			"bufferView":5,
			"componentType":5126,
			"count":214,
			"type":"VEC3"
		},
		{
			"bufferView":6,
			"componentType":5126,
			"count":214,
			"type":"VEC2"
		},
		{
			"bufferView":7,
			"componentType":5123,
			"count":660,
			"type":"SCALAR"
		},
		{
			"bufferView":8,
			"componentType":5126,
			"count":281,
			"max":[
				0.17703475058078766,
				0.1453191637992859,
				0.15340229868888855
			],
			"min":[
				-0.17678071558475494,
				-0.26574409008026123,
				-0.13663457334041595
			],
			"type":"VEC3"
		},
		{
			"bufferView":9,
			"componentType":5126,
			"count":281,
			"type":"VEC3"
		},
		{
			"bufferView":10,
			"componentType":5126,
			"count":281,
			"type":"VEC2"
		},
		{
			"bufferView":11,
			"componentType":5123,
			"count":1026,
			"type":"SCALAR"
		},
		{
			"bufferView":12,
			"componentType":5126,
			"count":279,
			"max":[
				0.15581363439559937,
				0.068672776222229,
				0.19939512014389038
			],
			"min":[
				-0.07016807794570923,
				-0.18603067100048065,
				-0.10498878359794617
			],
			"type":"VEC3"
		},
		{
			"bufferView":13,
			"componentType":5126,
			"count":279,
			"type":"VEC3"
		},
		{
			"bufferView":14,
			"componentType":5126,
			"count":279,
			"type":"VEC2"
		},
		{
			"bufferView":15,
			"componentType":5123,
			"count":924,
			"type":"SCALAR"
		},
		{
			"bufferView":16,
			"componentType":5126,
			"count":452,
			"max":[
				0.20200414955615997,
				0.33147576451301575,
				0.1505860686302185
			],
			"min":[
				-0.23545874655246735,
				-0.24886053800582886,
				-0.23517224192619324
			],
			"type":"VEC3"
		},
		{
			"bufferView":17,
			"componentType":5126,
			"count":452,
			"type":"VEC3"
		},
		{
			"bufferView":18,
			"componentType":5126,
			"count":452,
			"type":"VEC2"
		},
		{
			"bufferView":19,
			"componentType":5123,
			"count":1692,
			"type":"SCALAR"
		},
		{
			"bufferView":20,
			"componentType":5126,
			"count":192,
			"max":[
				0.1451970785856247,
				0.12877246737480164,
				0.11572471261024475
			],
			"min":[
				-0.18064936995506287,
				-0.19864070415496826,
				-0.1710534393787384
			],
			"type":"VEC3"
		},
		{
			"bufferView":21,
			"componentType":5126,
			"count":192,
			"type":"VEC3"
		},
		{
			"bufferView":22,
			"componentType":5126,
			"count":192,
			"type":"VEC2"
		},
		{
			"bufferView":23,
			"componentType":5123,
			"count":576,
			"type":"SCALAR"
		},
		{
			"bufferView":24,
			"componentType":5126,
			"count":566,
			"max":[
				0.19136178493499756,
				0.09352140128612518,
				0.19525136053562164
			],
			"min":[
				-0.06073789671063423,
				-0.12322024255990982,
				-0.12219265103340149
			],
			"type":"VEC3"
		},
		{
			"bufferView":25,
			"componentType":5126,
			"count":566,
			"type":"VEC3"
		},
		{
			"bufferView":26,
			"componentType":5126,
			"count":566,
			"type":"VEC2"
		},
		{
			"bufferView":27,
			"componentType":5123,
			"count":2244,
			"type":"SCALAR"
		},
		{
			"bufferView":28,
			"componentType":5126,
			"count":675,
			"max":[
				0.07926430553197861,
				0.11142626404762268,
				0.15242402255535126
			],
			"min":[
				-0.2175799310207367,
				-0.4147014319896698,
				-0.21424874663352966
			],
			"type":"VEC3"
		},
		{
			"bufferView":29,
			"componentType":5126,
			"count":675,
			"type":"VEC3"
		},
		{
			"bufferView":30,
			"componentType":5126,
			"count":675,
			"type":"VEC2"
		},
		{
			"bufferView":31,
			"componentType":5123,
			"count":2970,
			"type":"SCALAR"
		}
	],
	"bufferViews":[
		{
			"buffer":0,
			"byteLength":5964,
			"byteOffset":0,
			"target":34962
		},
		{
			"buffer":0,
			"byteLength":5964,
			"byteOffset":5964,
			"target":34962
		},
		{
			"buffer":0,
			"byteLength":3976,
			"byteOffset":11928,
			"target":34962
		},
		{
			"buffer":0,
			"byteLength":3864,
			"byteOffset":15904,
			"target":34963
		},
		{
			"buffer":0,
			"byteLength":2568,
			"byteOffset":19768,
			"target":34962
		},
		{
			"buffer":0,
			"byteLength":2568,
			"byteOffset":22336,
			"target":34962
		},
		{
			"buffer":0,
			"byteLength":1712,
			"byteOffset":24904,
			"target":34962
		},
		{
			"buffer":0,
			"byteLength":1320,
			"byteOffset":26616,
			"target":34963
		},
		{
			"buffer":0,
			"byteLength":3372,
			"byteOffset":27936,
			"target":34962
		},
		{
			"buffer":0,
			"byteLength":3372,
			"byteOffset":31308,
			"target":34962
		},
		{
			"buffer":0,
			"byteLength":2248,
			"byteOffset":34680,
			"target":34962
		},
		{
			"buffer":0,
			"byteLength":2052,
			"byteOffset":36928,
			"target":34963
		},
		{
			"buffer":0,
			"byteLength":3348,
			"byteOffset":38980,
			"target":34962
		},
		{
			"buffer":0,
			"byteLength":3348,
			"byteOffset":42328,
			"target":34962
		},
		{
			"buffer":0,
			"byteLength":2232,
			"byteOffset":45676,
			"target":34962
		},
		{
			"buffer":0,
			"byteLength":1848,
			"byteOffset":47908,
			"target":34963
		},
		{
			"buffer":0,
			"byteLength":5424,
			"byteOffset":49756,
			"target":34962
		},
		{
			"buffer":0,
			"byteLength":5424,
			"byteOffset":55180,
			"target":34962
		},
		{
			"buffer":0,
			"byteLength":3616,
			"byteOffset":60604,
			"target":34962
		},
		{
			"buffer":0,
			"byteLength":3384,
			"byteOffset":64220,
			"target":34963
		},
		{
			"buffer":0,
			"byteLength":2304,
			"byteOffset":67604,
			"target":34962
		},
		{
			"buffer":0,
			"byteLength":2304,
			"byteOffset":69908,
			"target":34962
		},
		{
			"buffer":0,
			"byteLength":1536,
			"byteOffset":72212,
			"target":34962
		},
		{
			"buffer":0,
			"byteLength":1152,
			"byteOffset":73748,
			"target":34963
		},
		{
			"buffer":0,
			"byteLength":6792,
			"byteOffset":74900,
			"target":34962
		},
		{
			"buffer":0,
			"byteLength":6792,
			"byteOffset":81692,
			"target":34962
		},
		{
			"buffer":0,
			"byteLength":4528,
			"byteOffset":88484,
			"target":34962
		},
		{
			"buffer":0,
			"byteLength":4488,
			"byteOffset":93012,
			"target":34963
		},
		{
			"buffer":0,
			"byteLength":8100,
			"byteOffset":97500,
			"target":34962
		},
		{
			"buffer":0,
			"byteLength":8100,
			"byteOffset":105600,
			"target":34962
		},
		{
			"buffer":0,
			"byteLength":5400,
			"byteOffset":113700,
			"target":34962
		},
		{
			"buffer":0,
			"byteLength":5940,
			"byteOffset":119100,
			"target":34963
		}
	],
	"samplers":[
		{
			"magFilter":9729,
			"minFilter":9987
		}
	],
	"buffers":[
		{
			"byteLength":125040,
			"uri":"pot_vase_fractured.bin"
		}
	]
}
