{
	"asset":{
		"generator":"Khronos glTF Blender I/O v3.6.27",
		"version":"2.0"
	},
	"scene":0,
	"scenes":[
		{
			"name":"Scene",
			"nodes":[
				0
			]
		}
	],
	"nodes":[
		{
			"mesh":0,
			"name":"Sphere"
		}
	],
	"materials":[
		{
			"doubleSided":true,
			"name":"Material",
			"normalTexture":{
				"index":0
			},
			"pbrMetallicRoughness":{
				"baseColorTexture":{
					"index":1
				},
				"metallicFactor":0,
				"metallicRoughnessTexture":{
					"index":2
				}
			}
		}
	],
	"meshes":[
		{
			"name":"Sphere",
			"primitives":[
				{
					"attributes":{
						"POSITION":0,
						"NORMAL":1,
						"TEXCOORD_0":2
					},
					"indices":3,
					"material":0
				}
			]
		}
	],
	"textures":[
		{
			"sampler":0,
			"source":0
		},
		{
			"sampler":0,
			"source":1
		},
		{
			"sampler":0,
			"source":2
		}
	],
	"images":[
		{
			"mimeType":"image/png",
			"name":"pot_normal.png",
			"uri":"textures/pot_normal.png"
		},
		{
			"mimeType":"image/png",
			"name":"pot_diffuse.png",
			"uri":"textures/pot_diffuse.png"
		},
		{
			"mimeType":"image/png",
			"name":"pot_roughness.png",
			"uri":"textures/pot_roughness.png"
		}
	],
	"accessors":[
		{
			"bufferView":0,
			"componentType":5126,
			"count":625,
			"max":[
				0.3504732847213745,
				0.7795836329460144,
				0.35047322511672974
			],
			"min":[
				-0.35047319531440735,
				-0.0015894739190116525,
				-0.3504733145236969
			],
			"type":"VEC3"
		},
		{
			"bufferView":1,
			"componentType":5126,
			"count":625,
			"type":"VEC3"
		},
		{
			"bufferView":2,
			"componentType":5126,
			"count":625,
			"type":"VEC2"
		},
		{
			"bufferView":3,
			"componentType":5123,
			"count":3060,
			"type":"SCALAR"
		}
	],
	"bufferViews":[
		{
			"buffer":0,
			"byteLength":7500,
			"byteOffset":0,
			"target":34962
		},
		{
			"buffer":0,
			"byteLength":7500,
			"byteOffset":7500,
			"target":34962
		},
		{
			"buffer":0,
			"byteLength":5000,
			"byteOffset":15000,
			"target":34962
		},
		{
			"buffer":0,
			"byteLength":6120,
			"byteOffset":20000,
			"target":34963
		}
	],
	"samplers":[
		{
			"magFilter":9729,
			"minFilter":9987
		}
	],
	"buffers":[
		{
			"byteLength":26120,
			"uri":"pot_large.bin"
		}
	]
}
