{
	"asset":{
		"generator":"Khronos glTF Blender I/O v3.5.30",
		"version":"2.0"
	},
	"scene":0,
	"scenes":[
		{
			"name":"Scene",
			"nodes":[
				0
			]
		}
	],
	"nodes":[
		{
			"mesh":0,
			"name":"Circle"
		}
	],
	"materials":[
		{
			"doubleSided":true,
			"name":"Metal",
			"pbrMetallicRoughness":{
				"baseColorFactor":[
					0.800000011920929,
					0.800000011920929,
					0.800000011920929,
					1
				],
				"roughnessFactor":0.3095238208770752
			}
		},
		{
			"doubleSided":true,
			"name":"Wood",
			"pbrMetallicRoughness":{
				"baseColorFactor":[
					0.15743304789066315,
					0.10539879649877548,
					0.05485514551401138,
					1
				],
				"metallicFactor":0,
				"roughnessFactor":0.5
			}
		}
	],
	"meshes":[
		{
			"name":"Circle",
			"primitives":[
				{
					"attributes":{
						"POSITION":0,
						"TEXCOORD_0":1,
						"NORMAL":2
					},
					"indices":3,
					"material":0
				},
				{
					"attributes":{
						"POSITION":4,
						"TEXCOORD_0":5,
						"NORMAL":6
					},
					"indices":7,
					"material":1
				}
			]
		}
	],
	"accessors":[
		{
			"bufferView":0,
			"componentType":5126,
			"count":673,
			"max":[
				0.18449537456035614,
				0.18449537456035614,
				-0.003286379622295499
			],
			"min":[
				-0.18449538946151733,
				-0.18449537456035614,
				-0.07110735028982162
			],
			"type":"VEC3"
		},
		{
			"bufferView":1,
			"componentType":5126,
			"count":673,
			"type":"VEC2"
		},
		{
			"bufferView":2,
			"componentType":5126,
			"count":673,
			"type":"VEC3"
		},
		{
			"bufferView":3,
			"componentType":5123,
			"count":2580,
			"type":"SCALAR"
		},
		{
			"bufferView":4,
			"componentType":5126,
			"count":208,
			"max":[
				0.1742907464504242,
				0.1742907464504242,
				0.0191416684538126
			],
			"min":[
				-0.174290731549263,
				-0.1742907464504242,
				-0.04232688620686531
			],
			"type":"VEC3"
		},
		{
			"bufferView":5,
			"componentType":5126,
			"count":208,
			"type":"VEC2"
		},
		{
			"bufferView":6,
			"componentType":5126,
			"count":208,
			"type":"VEC3"
		},
		{
			"bufferView":7,
			"componentType":5123,
			"count":504,
			"type":"SCALAR"
		}
	],
	"bufferViews":[
		{
			"buffer":0,
			"byteLength":8076,
			"byteOffset":0,
			"target":34962
		},
		{
			"buffer":0,
			"byteLength":5384,
			"byteOffset":8076,
			"target":34962
		},
		{
			"buffer":0,
			"byteLength":8076,
			"byteOffset":13460,
			"target":34962
		},
		{
			"buffer":0,
			"byteLength":5160,
			"byteOffset":21536,
			"target":34963
		},
		{
			"buffer":0,
			"byteLength":2496,
			"byteOffset":26696,
			"target":34962
		},
		{
			"buffer":0,
			"byteLength":1664,
			"byteOffset":29192,
			"target":34962
		},
		{
			"buffer":0,
			"byteLength":2496,
			"byteOffset":30856,
			"target":34962
		},
		{
			"buffer":0,
			"byteLength":1008,
			"byteOffset":33352,
			"target":34963
		}
	],
	"buffers":[
		{
			"byteLength":34360,
			"uri":"data:application/octet-stream;base64,"
		}
	]
}
