{
	"asset":{
		"generator":"Khronos glTF Blender I/O v3.6.27",
		"version":"2.0"
	},
	"scene":0,
	"scenes":[
		{
			"extras":{
				"MPFB_NH_phenotype_gender":1,
				"MPFB_NH_phenotype_race":4,
				"MPFB_APAS_filter":"",
				"MPFB_NH_phenotype_breastsize":1,
				"MPFB_NH_phenotype_breastfirmness":2,
				"MPFB_ADR_standard_rig":2,
				"MPFB_HPR_name":"player_preset",
				"MPFB_NH_phenotype_muscle":3,
				"sb_state":{
					"action_preview":null,
					"action_preview_enabled":0
				},
				"qremesher":{},
				"BGE_Settings":{
					"scene_modifiers":{
						"BGE_modifier_apply_modifiers":{
							"active":0,
							"show_info":0
						},
						"BGE_modifier_bake_actions":{
							"active":0,
							"show_info":1
						},
						"BGE_modifier_collider":{},
						"BGE_modifier_copy_modifiers":{},
						"BGE_modifier_custom_pivot":{},
						"BGE_modifier_exclude_hidden":{},
						"BGE_modifier_export_textures":{},
						"BGE_modifier_instance_collection_to_objects":{},
						"BGE_modifier_lod":{},
						"BGE_modifier_consistent_normals":{},
						"BGE_modifier_merge":{
							"active":0,
							"show_info":0,
							"merge_type":1
						},
						"BGE_modifier_merge_armatures":{},
						"BGE_modifier_offset_transform":{},
						"BGE_modifier_purge_bones":{},
						"BGE_modifier_rename":{},
						"BGE_modifier_set_origin":{},
						"BGE_modifier_transform_helpers":{
							"active":0,
							"show_info":1
						},
						"BGE_modifier_triangulate":{},
						"BGE_modifier_unity_rotation_fix":{},
						"BGE_modifier_uvs_to_0_1_space":{},
						"BGE_modifier_vertex_ao":{}
					},
					"real_path":"D:\\Dev\\Rainfall\\SoulslikeFPS\\res\\",
					"export_format":0,
					"bundles":[
						{
							"key":"Collection",
							"mode_bundle":2,
							"mode_pivot":1,
							"override_modifiers":{
								"BGE_modifier_apply_modifiers":{},
								"BGE_modifier_bake_actions":{},
								"BGE_modifier_collider":{},
								"BGE_modifier_copy_modifiers":{},
								"BGE_modifier_custom_pivot":{},
								"BGE_modifier_exclude_hidden":{},
								"BGE_modifier_export_textures":{},
								"BGE_modifier_instance_collection_to_objects":{},
								"BGE_modifier_lod":{},
								"BGE_modifier_consistent_normals":{},
								"BGE_modifier_merge":{},
								"BGE_modifier_merge_armatures":{},
								"BGE_modifier_offset_transform":{},
								"BGE_modifier_purge_bones":{},
								"BGE_modifier_rename":{},
								"BGE_modifier_set_origin":{},
								"BGE_modifier_transform_helpers":{},
								"BGE_modifier_triangulate":{},
								"BGE_modifier_unity_rotation_fix":{},
								"BGE_modifier_uvs_to_0_1_space":{},
								"BGE_modifier_vertex_ao":{}
							}
						}
					],
					"show_bundle_info":1,
					"batches":[
						{
							"path":"D:\\Dev\\Rainfall\\SoulslikeFPS\\res\\map\\testmap\\testmap.gltf"
						}
					]
				}
			},
			"name":"Scene",
			"nodes":[
				2,
				5,
				6,
				10,
				11,
				12,
				13,
				14,
				15
			]
		}
	],
	"nodes":[
		{
			"mesh":0,
			"name":"Trunk"
		},
		{
			"extras":{
				"foliage":"1.0"
			},
			"mesh":1,
			"name":"Leaves"
		},
		{
			"children":[
				0,
				1
			],
			"name":"Tree",
			"translation":[
				46.060997009277344,
				12.947032928466797,
				15.679374694824219
			]
		},
		{
			"mesh":0,
			"name":"Trunk"
		},
		{
			"extras":{
				"foliage":"1.0"
			},
			"mesh":1,
			"name":"Leaves"
		},
		{
			"children":[
				3,
				4
			],
			"name":"Tree.001",
			"rotation":[
				0,
				0.18411846458911896,
				0,
				0.9829040765762329
			],
			"translation":[
				1.2869224548339844,
				-1.6208744049072266,
				9.319131851196289
			]
		},
		{
			"mesh":2,
			"name":"Plane",
			"scale":[
				2,
				2,
				2
			]
		},
		{
			"mesh":3,
			"name":"Cube"
		},
		{
			"mesh":4,
			"name":"Cube.001"
		},
		{
			"mesh":5,
			"name":"Cube.002"
		},
		{
			"children":[
				7,
				8,
				9
			],
			"name":"Castle",
			"rotation":[
				0,
				-0.9942995309829712,
				0,
				0.1066228374838829
			],
			"translation":[
				36.475379943847656,
				13.427116394042969,
				37.32159423828125
			]
		},
		{
			"name":"__ spawn default",
			"translation":[
				5.495830535888672,
				-1.5113067626953125,
				-6.976125717163086
			]
		},
		{
			"name":"__ cubemap 1",
			"rotation":[
				0,
				0.1064012199640274,
				0,
				0.9943233132362366
			],
			"scale":[
				9.924899101257324,
				6.9958319664001465,
				12.482200622558594
			],
			"translation":[
				36.880226135253906,
				19.02657699584961,
				39.871036529541016
			]
		},
		{
			"name":"__ creature basic_enemy 0",
			"rotation":[
				0,
				-0.9118281006813049,
				0,
				0.41057243943214417
			],
			"translation":[
				-5.080390930175781,
				1.2956008911132812,
				-24.130611419677734
			]
		},
		{
			"name":"__ creature basic_enemy 0.001",
			"rotation":[
				0,
				-0.9118281006813049,
				0,
				0.41057243943214417
			],
			"translation":[
				-10.018627166748047,
				1.2443675994873047,
				-19.969558715820312
			]
		},
		{
			"name":"__ creature basic_enemy 0.002",
			"rotation":[
				0,
				-0.9118281006813049,
				0,
				0.41057243943214417
			],
			"translation":[
				-17.185279846191406,
				1.2861156463623047,
				-13.911323547363281
			]
		}
	],
	"materials":[
		{
			"doubleSided":true,
			"name":"Material.002",
			"pbrMetallicRoughness":{
				"baseColorFactor":[
					0.32054418325424194,
					0.10099033266305923,
					0.04226014018058777,
					1
				],
				"metallicFactor":0,
				"roughnessFactor":0.5
			}
		},
		{
			"doubleSided":true,
			"name":"Material.001",
			"pbrMetallicRoughness":{
				"baseColorFactor":[
					0.16820114850997925,
					0.3343217670917511,
					0.03385821357369423,
					1
				],
				"metallicFactor":0,
				"roughnessFactor":0.5708661675453186
			}
		},
		{
			"doubleSided":true,
			"name":"Material",
			"pbrMetallicRoughness":{
				"baseColorFactor":[
					0.09576155990362167,
					0.19285720586776733,
					0.05798088759183884,
					1
				],
				"metallicFactor":0
			}
		},
		{
			"doubleSided":true,
			"name":"Material",
			"pbrMetallicRoughness":{
				"baseColorFactor":[
					0.35028719902038574,
					0.35028719902038574,
					0.35028719902038574,
					1
				],
				"metallicFactor":0
			}
		}
	],
	"meshes":[
		{
			"name":"Cylinder.001",
			"primitives":[
				{
					"attributes":{
						"POSITION":0,
						"NORMAL":1,
						"TEXCOORD_0":2
					},
					"indices":3,
					"material":0
				}
			]
		},
		{
			"name":"Cylinder.002",
			"primitives":[
				{
					"attributes":{
						"POSITION":4,
						"NORMAL":5,
						"TEXCOORD_0":6
					},
					"indices":7,
					"material":1
				}
			]
		},
		{
			"name":"Plane.001",
			"primitives":[
				{
					"attributes":{
						"COLOR_0":8,
						"POSITION":9,
						"NORMAL":10,
						"TEXCOORD_0":11
					},
					"indices":12,
					"material":2
				}
			]
		},
		{
			"name":"Cube",
			"primitives":[
				{
					"attributes":{
						"POSITION":13,
						"NORMAL":14,
						"TEXCOORD_0":15
					},
					"indices":16,
					"material":3
				}
			]
		},
		{
			"name":"Cube.001",
			"primitives":[
				{
					"attributes":{
						"POSITION":17,
						"NORMAL":18,
						"TEXCOORD_0":19
					},
					"indices":20,
					"material":3
				}
			]
		},
		{
			"name":"Cube.002",
			"primitives":[
				{
					"attributes":{
						"POSITION":21,
						"NORMAL":22,
						"TEXCOORD_0":23
					},
					"indices":24,
					"material":3
				}
			]
		}
	],
	"accessors":[
		{
			"bufferView":0,
			"componentType":5126,
			"count":468,
			"max":[
				1.7903485298156738,
				8.795476913452148,
				1.4562335014343262
			],
			"min":[
				-2.675982713699341,
				0,
				-1.7753924131393433
			],
			"type":"VEC3"
		},
		{
			"bufferView":1,
			"componentType":5126,
			"count":468,
			"type":"VEC3"
		},
		{
			"bufferView":2,
			"componentType":5126,
			"count":468,
			"type":"VEC2"
		},
		{
			"bufferView":3,
			"componentType":5123,
			"count":708,
			"type":"SCALAR"
		},
		{
			"bufferView":4,
			"componentType":5126,
			"count":2400,
			"max":[
				3.637822151184082,
				11.304536819458008,
				4.041019439697266
			],
			"min":[
				-4.467930793762207,
				1.8103115558624268,
				-3.4906997680664062
			],
			"type":"VEC3"
		},
		{
			"bufferView":5,
			"componentType":5126,
			"count":2400,
			"type":"VEC3"
		},
		{
			"bufferView":6,
			"componentType":5126,
			"count":2400,
			"type":"VEC2"
		},
		{
			"bufferView":7,
			"componentType":5123,
			"count":2400,
			"type":"SCALAR"
		},
		{
			"bufferView":8,
			"componentType":5123,
			"count":6561,
			"normalized":true,
			"type":"VEC4"
		},
		{
			"bufferView":9,
			"componentType":5126,
			"count":6561,
			"max":[
				40.04316711425781,
				6.895737648010254,
				40.063865661621094
			],
			"min":[
				-40.02911376953125,
				-16.534273147583008,
				-40.02259826660156
			],
			"type":"VEC3"
		},
		{
			"bufferView":10,
			"componentType":5126,
			"count":6561,
			"type":"VEC3"
		},
		{
			"bufferView":11,
			"componentType":5126,
			"count":6561,
			"type":"VEC2"
		},
		{
			"bufferView":12,
			"componentType":5123,
			"count":38400,
			"type":"SCALAR"
		},
		{
			"bufferView":13,
			"componentType":5126,
			"count":104,
			"max":[
				11,
				7,
				11
			],
			"min":[
				-11,
				-1,
				-16
			],
			"type":"VEC3"
		},
		{
			"bufferView":14,
			"componentType":5126,
			"count":104,
			"type":"VEC3"
		},
		{
			"bufferView":15,
			"componentType":5126,
			"count":104,
			"type":"VEC2"
		},
		{
			"bufferView":16,
			"componentType":5123,
			"count":228,
			"type":"SCALAR"
		},
		{
			"bufferView":17,
			"componentType":5126,
			"count":58,
			"max":[
				9,
				7,
				2
			],
			"min":[
				1,
				-1,
				-14
			],
			"type":"VEC3"
		},
		{
			"bufferView":18,
			"componentType":5126,
			"count":58,
			"type":"VEC3"
		},
		{
			"bufferView":19,
			"componentType":5126,
			"count":58,
			"type":"VEC2"
		},
		{
			"bufferView":20,
			"componentType":5123,
			"count":108,
			"type":"SCALAR"
		},
		{
			"bufferView":21,
			"componentType":5126,
			"count":192,
			"max":[
				13,
				11,
				13
			],
			"min":[
				-13,
				-2,
				-18
			],
			"type":"VEC3"
		},
		{
			"bufferView":22,
			"componentType":5126,
			"count":192,
			"type":"VEC3"
		},
		{
			"bufferView":23,
			"componentType":5126,
			"count":192,
			"type":"VEC2"
		},
		{
			"bufferView":24,
			"componentType":5123,
			"count":336,
			"type":"SCALAR"
		}
	],
	"bufferViews":[
		{
			"buffer":0,
			"byteLength":5616,
			"byteOffset":0,
			"target":34962
		},
		{
			"buffer":0,
			"byteLength":5616,
			"byteOffset":5616,
			"target":34962
		},
		{
			"buffer":0,
			"byteLength":3744,
			"byteOffset":11232,
			"target":34962
		},
		{
			"buffer":0,
			"byteLength":1416,
			"byteOffset":14976,
			"target":34963
		},
		{
			"buffer":0,
			"byteLength":28800,
			"byteOffset":16392,
			"target":34962
		},
		{
			"buffer":0,
			"byteLength":28800,
			"byteOffset":45192,
			"target":34962
		},
		{
			"buffer":0,
			"byteLength":19200,
			"byteOffset":73992,
			"target":34962
		},
		{
			"buffer":0,
			"byteLength":4800,
			"byteOffset":93192,
			"target":34963
		},
		{
			"buffer":0,
			"byteLength":52488,
			"byteOffset":97992,
			"target":34962
		},
		{
			"buffer":0,
			"byteLength":78732,
			"byteOffset":150480,
			"target":34962
		},
		{
			"buffer":0,
			"byteLength":78732,
			"byteOffset":229212,
			"target":34962
		},
		{
			"buffer":0,
			"byteLength":52488,
			"byteOffset":307944,
			"target":34962
		},
		{
			"buffer":0,
			"byteLength":76800,
			"byteOffset":360432,
			"target":34963
		},
		{
			"buffer":0,
			"byteLength":1248,
			"byteOffset":437232,
			"target":34962
		},
		{
			"buffer":0,
			"byteLength":1248,
			"byteOffset":438480,
			"target":34962
		},
		{
			"buffer":0,
			"byteLength":832,
			"byteOffset":439728,
			"target":34962
		},
		{
			"buffer":0,
			"byteLength":456,
			"byteOffset":440560,
			"target":34963
		},
		{
			"buffer":0,
			"byteLength":696,
			"byteOffset":441016,
			"target":34962
		},
		{
			"buffer":0,
			"byteLength":696,
			"byteOffset":441712,
			"target":34962
		},
		{
			"buffer":0,
			"byteLength":464,
			"byteOffset":442408,
			"target":34962
		},
		{
			"buffer":0,
			"byteLength":216,
			"byteOffset":442872,
			"target":34963
		},
		{
			"buffer":0,
			"byteLength":2304,
			"byteOffset":443088,
			"target":34962
		},
		{
			"buffer":0,
			"byteLength":2304,
			"byteOffset":445392,
			"target":34962
		},
		{
			"buffer":0,
			"byteLength":1536,
			"byteOffset":447696,
			"target":34962
		},
		{
			"buffer":0,
			"byteLength":672,
			"byteOffset":449232,
			"target":34963
		}
	],
	"buffers":[
		{
			"byteLength":449904,
			"uri":"testmap.bin"
		}
	]
}
