{
	"asset":{
		"generator":"Khronos glTF Blender I/O v3.6.27",
		"version":"2.0"
	},
	"scene":0,
	"scenes":[
		{
			"name":"Scene",
			"nodes":[
				0,
				1,
				2,
				3,
				4,
				5,
				6
			]
		}
	],
	"nodes":[
		{
			"mesh":0,
			"name":"ColliderCell1",
			"scale":[
				1,
				1,
				2
			],
			"translation":[
				5.5,
				0,
				11
			]
		},
		{
			"mesh":1,
			"name":"ColliderCell2",
			"scale":[
				1,
				1,
				2
			],
			"translation":[
				9.5,
				0,
				11
			]
		},
		{
			"mesh":2,
			"name":"ColliderCell3",
			"scale":[
				1,
				1,
				2
			],
			"translation":[
				5.5,
				0,
				5
			]
		},
		{
			"mesh":3,
			"name":"ColliderCell4",
			"scale":[
				1,
				1,
				2
			],
			"translation":[
				9.5,
				0,
				5
			]
		},
		{
			"mesh":4,
			"name":"ColliderWalls"
		},
		{
			"mesh":5,
			"name":"ColliderCell1.001",
			"scale":[
				1,
				1,
				2
			],
			"translation":[
				5.5,
				0,
				17
			]
		},
		{
			"mesh":6,
			"name":"ColliderCell2.001",
			"scale":[
				1,
				1,
				2
			],
			"translation":[
				9.5,
				0,
				17
			]
		}
	],
	"materials":[
		{
			"name":"Material",
			"pbrMetallicRoughness":{
				"baseColorTexture":{
					"index":0
				},
				"metallicRoughnessTexture":{
					"index":1
				},
				"roughnessFactor":0.5
			}
		}
	],
	"meshes":[
		{
			"name":"Cube.007",
			"primitives":[
				{
					"attributes":{
						"POSITION":0,
						"NORMAL":1,
						"TEXCOORD_0":2
					},
					"indices":3
				}
			]
		},
		{
			"name":"Cube.008",
			"primitives":[
				{
					"attributes":{
						"POSITION":4,
						"NORMAL":5,
						"TEXCOORD_0":6
					},
					"indices":3
				}
			]
		},
		{
			"name":"Cube.009",
			"primitives":[
				{
					"attributes":{
						"POSITION":7,
						"NORMAL":8,
						"TEXCOORD_0":9
					},
					"indices":3
				}
			]
		},
		{
			"name":"Cube.010",
			"primitives":[
				{
					"attributes":{
						"POSITION":10,
						"NORMAL":11,
						"TEXCOORD_0":12
					},
					"indices":3
				}
			]
		},
		{
			"name":"Cube.011",
			"primitives":[
				{
					"attributes":{
						"POSITION":13,
						"NORMAL":14,
						"TEXCOORD_0":15
					},
					"indices":16,
					"material":0
				}
			]
		},
		{
			"name":"Cube.016",
			"primitives":[
				{
					"attributes":{
						"POSITION":17,
						"NORMAL":18,
						"TEXCOORD_0":19
					},
					"indices":20
				}
			]
		},
		{
			"name":"Cube.017",
			"primitives":[
				{
					"attributes":{
						"POSITION":21,
						"NORMAL":22,
						"TEXCOORD_0":23
					},
					"indices":24
				}
			]
		}
	],
	"textures":[
		{
			"sampler":0,
			"source":0
		},
		{
			"sampler":0,
			"source":1
		}
	],
	"images":[
		{
			"mimeType":"image/png",
			"name":"dungeon_cell_diffuse",
			"uri":"textures/dungeon_cell_diffuse.png"
		},
		{
			"mimeType":"image/png",
			"name":"dungeon_cell_metallic",
			"uri":"textures/dungeon_cell_metallic.png"
		}
	],
	"accessors":[
		{
			"bufferView":0,
			"componentType":5126,
			"count":72,
			"max":[
				0.25,
				4,
				2
			],
			"min":[
				-0.25,
				0,
				-0.5
			],
			"type":"VEC3"
		},
		{
			"bufferView":1,
			"componentType":5126,
			"count":72,
			"type":"VEC3"
		},
		{
			"bufferView":2,
			"componentType":5126,
			"count":72,
			"type":"VEC2"
		},
		{
			"bufferView":3,
			"componentType":5123,
			"count":108,
			"type":"SCALAR"
		},
		{
			"bufferView":4,
			"componentType":5126,
			"count":72,
			"max":[
				0.25,
				4,
				2
			],
			"min":[
				-0.25,
				0,
				-0.5
			],
			"type":"VEC3"
		},
		{
			"bufferView":5,
			"componentType":5126,
			"count":72,
			"type":"VEC3"
		},
		{
			"bufferView":6,
			"componentType":5126,
			"count":72,
			"type":"VEC2"
		},
		{
			"bufferView":7,
			"componentType":5126,
			"count":72,
			"max":[
				0.25,
				4,
				2
			],
			"min":[
				-0.25,
				0,
				-0.5
			],
			"type":"VEC3"
		},
		{
			"bufferView":8,
			"componentType":5126,
			"count":72,
			"type":"VEC3"
		},
		{
			"bufferView":9,
			"componentType":5126,
			"count":72,
			"type":"VEC2"
		},
		{
			"bufferView":10,
			"componentType":5126,
			"count":72,
			"max":[
				0.25,
				4,
				2
			],
			"min":[
				-0.25,
				0,
				-0.5
			],
			"type":"VEC3"
		},
		{
			"bufferView":11,
			"componentType":5126,
			"count":72,
			"type":"VEC3"
		},
		{
			"bufferView":12,
			"componentType":5126,
			"count":72,
			"type":"VEC2"
		},
		{
			"bufferView":13,
			"componentType":5126,
			"count":172,
			"max":[
				15,
				4,
				21
			],
			"min":[
				0,
				0,
				0
			],
			"type":"VEC3"
		},
		{
			"bufferView":14,
			"componentType":5126,
			"count":172,
			"type":"VEC3"
		},
		{
			"bufferView":15,
			"componentType":5126,
			"count":172,
			"type":"VEC2"
		},
		{
			"bufferView":16,
			"componentType":5123,
			"count":270,
			"type":"SCALAR"
		},
		{
			"bufferView":17,
			"componentType":5126,
			"count":48,
			"max":[
				0.25,
				4,
				2
			],
			"min":[
				-0.25,
				0,
				-0.5
			],
			"type":"VEC3"
		},
		{
			"bufferView":18,
			"componentType":5126,
			"count":48,
			"type":"VEC3"
		},
		{
			"bufferView":19,
			"componentType":5126,
			"count":48,
			"type":"VEC2"
		},
		{
			"bufferView":20,
			"componentType":5123,
			"count":72,
			"type":"SCALAR"
		},
		{
			"bufferView":21,
			"componentType":5126,
			"count":24,
			"max":[
				0.25,
				4,
				2
			],
			"min":[
				-0.25,
				0,
				-0.5
			],
			"type":"VEC3"
		},
		{
			"bufferView":22,
			"componentType":5126,
			"count":24,
			"type":"VEC3"
		},
		{
			"bufferView":23,
			"componentType":5126,
			"count":24,
			"type":"VEC2"
		},
		{
			"bufferView":24,
			"componentType":5123,
			"count":36,
			"type":"SCALAR"
		}
	],
	"bufferViews":[
		{
			"buffer":0,
			"byteLength":864,
			"byteOffset":0,
			"target":34962
		},
		{
			"buffer":0,
			"byteLength":864,
			"byteOffset":864,
			"target":34962
		},
		{
			"buffer":0,
			"byteLength":576,
			"byteOffset":1728,
			"target":34962
		},
		{
			"buffer":0,
			"byteLength":216,
			"byteOffset":2304,
			"target":34963
		},
		{
			"buffer":0,
			"byteLength":864,
			"byteOffset":2520,
			"target":34962
		},
		{
			"buffer":0,
			"byteLength":864,
			"byteOffset":3384,
			"target":34962
		},
		{
			"buffer":0,
			"byteLength":576,
			"byteOffset":4248,
			"target":34962
		},
		{
			"buffer":0,
			"byteLength":864,
			"byteOffset":4824,
			"target":34962
		},
		{
			"buffer":0,
			"byteLength":864,
			"byteOffset":5688,
			"target":34962
		},
		{
			"buffer":0,
			"byteLength":576,
			"byteOffset":6552,
			"target":34962
		},
		{
			"buffer":0,
			"byteLength":864,
			"byteOffset":7128,
			"target":34962
		},
		{
			"buffer":0,
			"byteLength":864,
			"byteOffset":7992,
			"target":34962
		},
		{
			"buffer":0,
			"byteLength":576,
			"byteOffset":8856,
			"target":34962
		},
		{
			"buffer":0,
			"byteLength":2064,
			"byteOffset":9432,
			"target":34962
		},
		{
			"buffer":0,
			"byteLength":2064,
			"byteOffset":11496,
			"target":34962
		},
		{
			"buffer":0,
			"byteLength":1376,
			"byteOffset":13560,
			"target":34962
		},
		{
			"buffer":0,
			"byteLength":540,
			"byteOffset":14936,
			"target":34963
		},
		{
			"buffer":0,
			"byteLength":576,
			"byteOffset":15476,
			"target":34962
		},
		{
			"buffer":0,
			"byteLength":576,
			"byteOffset":16052,
			"target":34962
		},
		{
			"buffer":0,
			"byteLength":384,
			"byteOffset":16628,
			"target":34962
		},
		{
			"buffer":0,
			"byteLength":144,
			"byteOffset":17012,
			"target":34963
		},
		{
			"buffer":0,
			"byteLength":288,
			"byteOffset":17156,
			"target":34962
		},
		{
			"buffer":0,
			"byteLength":288,
			"byteOffset":17444,
			"target":34962
		},
		{
			"buffer":0,
			"byteLength":192,
			"byteOffset":17732,
			"target":34962
		},
		{
			"buffer":0,
			"byteLength":72,
			"byteOffset":17924,
			"target":34963
		}
	],
	"samplers":[
		{
			"magFilter":9729,
			"minFilter":9987
		}
	],
	"buffers":[
		{
			"byteLength":17996,
			"uri":"dungeon_cell_collider.bin"
		}
	]
}
