{
	"asset":{
		"generator":"Khronos glTF Blender I/O v3.6.27",
		"version":"2.0"
	},
	"scene":0,
	"scenes":[
		{
			"name":"Scene",
			"nodes":[
				0,
				1,
				2,
				3,
				4,
				5,
				6,
				7,
				8,
				9,
				10,
				11,
				12
			]
		}
	],
	"nodes":[
		{
			"mesh":0,
			"name":"Cube.001",
			"rotation":[
				0,
				0.47271716594696045,
				0,
				0.8812142014503479
			],
			"scale":[
				1.2311606407165527,
				1.2311606407165527,
				1.2311606407165527
			],
			"translation":[
				14.605610847473145,
				0,
				20.56964111328125
			]
		},
		{
			"mesh":1,
			"name":"Cube.002",
			"rotation":[
				-0.3727450370788574,
				0.6008836627006531,
				0.6008836627006531,
				0.37274500727653503
			],
			"translation":[
				3.4207077026367188,
				0.04523831605911255,
				16.889732360839844
			]
		},
		{
			"mesh":2,
			"name":"Cube"
		},
		{
			"mesh":3,
			"name":"Bars1",
			"translation":[
				5.5,
				1.7628614902496338,
				12.505228996276855
			]
		},
		{
			"mesh":4,
			"name":"Bars2",
			"translation":[
				9.5,
				1.7628614902496338,
				12.505228996276855
			]
		},
		{
			"mesh":5,
			"name":"Bars3",
			"translation":[
				5.5,
				1.7628614902496338,
				6.5
			]
		},
		{
			"mesh":6,
			"name":"Bars4",
			"translation":[
				9.5,
				1.7628614902496338,
				6.5
			]
		},
		{
			"mesh":7,
			"name":"Bars5",
			"translation":[
				5.5,
				1.7628614902496338,
				18.5
			]
		},
		{
			"mesh":8,
			"name":"Bars6",
			"translation":[
				9.5,
				1.7628614902496338,
				18.5
			]
		},
		{
			"mesh":9,
			"name":"BrokenDoor",
			"rotation":[
				0,
				-0.7009092569351196,
				0,
				0.713250458240509
			],
			"translation":[
				9.5,
				0,
				18.5
			]
		},
		{
			"mesh":10,
			"name":"Hold",
			"rotation":[
				0,
				0.7071068286895752,
				0,
				0.7071068286895752
			],
			"translation":[
				0,
				1.5,
				18.56610107421875
			]
		},
		{
			"mesh":11,
			"name":"Sphere",
			"rotation":[
				0,
				0.7071068286895752,
				0,
				0.7071068286895752
			],
			"translation":[
				-0.0013305994216352701,
				-0.19078367948532104,
				18.33665657043457
			]
		},
		{
			"mesh":12,
			"name":"Torch",
			"rotation":[
				-0.4820142686367035,
				0.5173609256744385,
				-0.4820142090320587,
				0.5173609256744385
			],
			"translation":[
				0,
				0.046272046864032745,
				18.597240447998047
			]
		}
	],
	"materials":[
		{
			"doubleSided":true,
			"name":"Material.003",
			"pbrMetallicRoughness":{
				"baseColorFactor":[
					0.10721408575773239,
					0.05132412165403366,
					0.029075609520077705,
					1
				],
				"metallicFactor":0,
				"roughnessFactor":1
			}
		},
		{
			"name":"Material",
			"pbrMetallicRoughness":{
				"baseColorTexture":{
					"index":0
				},
				"metallicRoughnessTexture":{
					"index":1
				}
			}
		},
		{
			"doubleSided":true,
			"name":"Material.001",
			"pbrMetallicRoughness":{
				"baseColorFactor":[
					0.18134398758411407,
					0.15024518966674805,
					0.14016388356685638,
					1
				],
				"roughnessFactor":0.5
			}
		},
		{
			"doubleSided":true,
			"name":"Material.002",
			"pbrMetallicRoughness":{
				"baseColorFactor":[
					0.007221132516860962,
					0.007221132516860962,
					0.007221132516860962,
					1
				],
				"metallicFactor":0
			}
		}
	],
	"meshes":[
		{
			"name":"Cube.002",
			"primitives":[
				{
					"attributes":{
						"POSITION":0,
						"NORMAL":1,
						"TEXCOORD_0":2
					},
					"indices":3,
					"material":0
				}
			]
		},
		{
			"name":"Cube.012",
			"primitives":[
				{
					"attributes":{
						"POSITION":4,
						"NORMAL":5,
						"TEXCOORD_0":6
					},
					"indices":7,
					"material":1
				}
			]
		},
		{
			"name":"Cube",
			"primitives":[
				{
					"attributes":{
						"POSITION":8,
						"NORMAL":9,
						"TEXCOORD_0":10
					},
					"indices":11,
					"material":1
				}
			]
		},
		{
			"name":"Cube.003",
			"primitives":[
				{
					"attributes":{
						"POSITION":12,
						"NORMAL":13,
						"TEXCOORD_0":14
					},
					"indices":15,
					"material":1
				}
			]
		},
		{
			"name":"Cube.004",
			"primitives":[
				{
					"attributes":{
						"POSITION":16,
						"NORMAL":17,
						"TEXCOORD_0":18
					},
					"indices":15,
					"material":1
				}
			]
		},
		{
			"name":"Cube.005",
			"primitives":[
				{
					"attributes":{
						"POSITION":19,
						"NORMAL":20,
						"TEXCOORD_0":21
					},
					"indices":15,
					"material":1
				}
			]
		},
		{
			"name":"Cube.006",
			"primitives":[
				{
					"attributes":{
						"POSITION":22,
						"NORMAL":23,
						"TEXCOORD_0":24
					},
					"indices":15,
					"material":1
				}
			]
		},
		{
			"name":"Cube.001",
			"primitives":[
				{
					"attributes":{
						"POSITION":25,
						"NORMAL":26,
						"TEXCOORD_0":27
					},
					"indices":15,
					"material":1
				}
			]
		},
		{
			"name":"Cube.014",
			"primitives":[
				{
					"attributes":{
						"POSITION":28,
						"NORMAL":29,
						"TEXCOORD_0":30
					},
					"indices":15,
					"material":1
				}
			]
		},
		{
			"name":"Cube.015",
			"primitives":[
				{
					"attributes":{
						"POSITION":31,
						"NORMAL":32,
						"TEXCOORD_0":33
					},
					"indices":34,
					"material":1
				}
			]
		},
		{
			"name":"Cylinder.002",
			"primitives":[
				{
					"attributes":{
						"POSITION":35,
						"NORMAL":36,
						"TEXCOORD_0":37
					},
					"indices":38,
					"material":2
				}
			]
		},
		{
			"name":"Sphere",
			"primitives":[
				{
					"attributes":{
						"POSITION":39,
						"NORMAL":40,
						"TEXCOORD_0":41
					},
					"indices":42,
					"material":3
				}
			]
		},
		{
			"name":"Cylinder.001",
			"primitives":[
				{
					"attributes":{
						"POSITION":43,
						"NORMAL":44,
						"TEXCOORD_0":45
					},
					"indices":46,
					"material":2
				}
			]
		}
	],
	"textures":[
		{
			"sampler":0,
			"source":0
		},
		{
			"sampler":0,
			"source":1
		}
	],
	"images":[
		{
			"mimeType":"image/png",
			"name":"dungeon_cell_diffuse",
			"uri":"textures/dungeon_cell_diffuse.png"
		},
		{
			"mimeType":"image/png",
			"name":"dungeon_cell_roughness_metallic.png",
			"uri":"textures/dungeon_cell_roughness_metallic.png"
		}
	],
	"accessors":[
		{
			"bufferView":0,
			"componentType":5126,
			"count":631,
			"max":[
				0.3167805075645447,
				0.7873311042785645,
				0.1559029072523117
			],
			"min":[
				-0.2503921389579773,
				-0.003433704376220703,
				-0.5464013814926147
			],
			"type":"VEC3"
		},
		{
			"bufferView":1,
			"componentType":5126,
			"count":631,
			"type":"VEC3"
		},
		{
			"bufferView":2,
			"componentType":5126,
			"count":631,
			"type":"VEC2"
		},
		{
			"bufferView":3,
			"componentType":5123,
			"count":3522,
			"type":"SCALAR"
		},
		{
			"bufferView":4,
			"componentType":5126,
			"count":500,
			"max":[
				0.5,
				2,
				0.12416484951972961
			],
			"min":[
				-0.5,
				0,
				-0.07499989867210388
			],
			"type":"VEC3"
		},
		{
			"bufferView":5,
			"componentType":5126,
			"count":500,
			"type":"VEC3"
		},
		{
			"bufferView":6,
			"componentType":5126,
			"count":500,
			"type":"VEC2"
		},
		{
			"bufferView":7,
			"componentType":5123,
			"count":936,
			"type":"SCALAR"
		},
		{
			"bufferView":8,
			"componentType":5126,
			"count":176,
			"max":[
				15,
				4,
				21
			],
			"min":[
				0,
				0,
				0
			],
			"type":"VEC3"
		},
		{
			"bufferView":9,
			"componentType":5126,
			"count":176,
			"type":"VEC3"
		},
		{
			"bufferView":10,
			"componentType":5126,
			"count":176,
			"type":"VEC2"
		},
		{
			"bufferView":11,
			"componentType":5123,
			"count":270,
			"type":"SCALAR"
		},
		{
			"bufferView":12,
			"componentType":5126,
			"count":594,
			"max":[
				0.10000038146972656,
				2.237138509750366,
				2.544771194458008
			],
			"min":[
				-0.09999990463256836,
				-1.7628614902496338,
				-2.5552291870117188
			],
			"type":"VEC3"
		},
		{
			"bufferView":13,
			"componentType":5126,
			"count":594,
			"type":"VEC3"
		},
		{
			"bufferView":14,
			"componentType":5126,
			"count":594,
			"type":"VEC2"
		},
		{
			"bufferView":15,
			"componentType":5123,
			"count":1062,
			"type":"SCALAR"
		},
		{
			"bufferView":16,
			"componentType":5126,
			"count":594,
			"max":[
				0.10000038146972656,
				2.237138509750366,
				2.544771194458008
			],
			"min":[
				-0.09999990463256836,
				-1.7628614902496338,
				-2.5552291870117188
			],
			"type":"VEC3"
		},
		{
			"bufferView":17,
			"componentType":5126,
			"count":594,
			"type":"VEC3"
		},
		{
			"bufferView":18,
			"componentType":5126,
			"count":594,
			"type":"VEC2"
		},
		{
			"bufferView":19,
			"componentType":5126,
			"count":594,
			"max":[
				0.10000038146972656,
				2.237138509750366,
				2.544771194458008
			],
			"min":[
				-0.09999990463256836,
				-1.7628614902496338,
				-2.5552291870117188
			],
			"type":"VEC3"
		},
		{
			"bufferView":20,
			"componentType":5126,
			"count":594,
			"type":"VEC3"
		},
		{
			"bufferView":21,
			"componentType":5126,
			"count":594,
			"type":"VEC2"
		},
		{
			"bufferView":22,
			"componentType":5126,
			"count":594,
			"max":[
				0.10000038146972656,
				2.237138509750366,
				2.544771194458008
			],
			"min":[
				-0.09999990463256836,
				-1.7628614902496338,
				-2.5552291870117188
			],
			"type":"VEC3"
		},
		{
			"bufferView":23,
			"componentType":5126,
			"count":594,
			"type":"VEC3"
		},
		{
			"bufferView":24,
			"componentType":5126,
			"count":594,
			"type":"VEC2"
		},
		{
			"bufferView":25,
			"componentType":5126,
			"count":594,
			"max":[
				0.10000038146972656,
				2.237138509750366,
				2.544771194458008
			],
			"min":[
				-0.09999990463256836,
				-1.7628614902496338,
				-2.5552291870117188
			],
			"type":"VEC3"
		},
		{
			"bufferView":26,
			"componentType":5126,
			"count":594,
			"type":"VEC3"
		},
		{
			"bufferView":27,
			"componentType":5126,
			"count":594,
			"type":"VEC2"
		},
		{
			"bufferView":28,
			"componentType":5126,
			"count":594,
			"max":[
				0.10000038146972656,
				2.237138509750366,
				2.544771194458008
			],
			"min":[
				-0.09999990463256836,
				-1.7628614902496338,
				-2.5552291870117188
			],
			"type":"VEC3"
		},
		{
			"bufferView":29,
			"componentType":5126,
			"count":594,
			"type":"VEC3"
		},
		{
			"bufferView":30,
			"componentType":5126,
			"count":594,
			"type":"VEC2"
		},
		{
			"bufferView":31,
			"componentType":5126,
			"count":546,
			"max":[
				0.4990883469581604,
				2,
				0.2121211588382721
			],
			"min":[
				-0.5063177943229675,
				0,
				-0.015350602567195892
			],
			"type":"VEC3"
		},
		{
			"bufferView":32,
			"componentType":5126,
			"count":546,
			"type":"VEC3"
		},
		{
			"bufferView":33,
			"componentType":5126,
			"count":546,
			"type":"VEC2"
		},
		{
			"bufferView":34,
			"componentType":5123,
			"count":1020,
			"type":"SCALAR"
		},
		{
			"bufferView":35,
			"componentType":5126,
			"count":201,
			"max":[
				0.19999994337558746,
				0.40000003576278687,
				0.25145405530929565
			],
			"min":[
				-0.20000003278255463,
				-0.30000004172325134,
				-4.713707468795292e-08
			],
			"type":"VEC3"
		},
		{
			"bufferView":36,
			"componentType":5126,
			"count":201,
			"type":"VEC3"
		},
		{
			"bufferView":37,
			"componentType":5126,
			"count":201,
			"type":"VEC2"
		},
		{
			"bufferView":38,
			"componentType":5123,
			"count":792,
			"type":"SCALAR"
		},
		{
			"bufferView":39,
			"componentType":5126,
			"count":43,
			"max":[
				0.05012522265315056,
				0.30536338686943054,
				0.2893895208835602
			],
			"min":[
				-0.05012529715895653,
				0.21266421675682068,
				0.19669033586978912
			],
			"type":"VEC3"
		},
		{
			"bufferView":40,
			"componentType":5126,
			"count":43,
			"type":"VEC3"
		},
		{
			"bufferView":41,
			"componentType":5126,
			"count":43,
			"type":"VEC2"
		},
		{
			"bufferView":42,
			"componentType":5123,
			"count":144,
			"type":"SCALAR"
		},
		{
			"bufferView":43,
			"componentType":5126,
			"count":2457,
			"max":[
				0.07039973884820938,
				0.4363732933998108,
				0.36493992805480957
			],
			"min":[
				-0.07054313272237778,
				-0.25729644298553467,
				0.03449106216430664
			],
			"type":"VEC3"
		},
		{
			"bufferView":44,
			"componentType":5126,
			"count":2457,
			"type":"VEC3"
		},
		{
			"bufferView":45,
			"componentType":5126,
			"count":2457,
			"type":"VEC2"
		},
		{
			"bufferView":46,
			"componentType":5123,
			"count":7950,
			"type":"SCALAR"
		}
	],
	"bufferViews":[
		{
			"buffer":0,
			"byteLength":7572,
			"byteOffset":0,
			"target":34962
		},
		{
			"buffer":0,
			"byteLength":7572,
			"byteOffset":7572,
			"target":34962
		},
		{
			"buffer":0,
			"byteLength":5048,
			"byteOffset":15144,
			"target":34962
		},
		{
			"buffer":0,
			"byteLength":7044,
			"byteOffset":20192,
			"target":34963
		},
		{
			"buffer":0,
			"byteLength":6000,
			"byteOffset":27236,
			"target":34962
		},
		{
			"buffer":0,
			"byteLength":6000,
			"byteOffset":33236,
			"target":34962
		},
		{
			"buffer":0,
			"byteLength":4000,
			"byteOffset":39236,
			"target":34962
		},
		{
			"buffer":0,
			"byteLength":1872,
			"byteOffset":43236,
			"target":34963
		},
		{
			"buffer":0,
			"byteLength":2112,
			"byteOffset":45108,
			"target":34962
		},
		{
			"buffer":0,
			"byteLength":2112,
			"byteOffset":47220,
			"target":34962
		},
		{
			"buffer":0,
			"byteLength":1408,
			"byteOffset":49332,
			"target":34962
		},
		{
			"buffer":0,
			"byteLength":540,
			"byteOffset":50740,
			"target":34963
		},
		{
			"buffer":0,
			"byteLength":7128,
			"byteOffset":51280,
			"target":34962
		},
		{
			"buffer":0,
			"byteLength":7128,
			"byteOffset":58408,
			"target":34962
		},
		{
			"buffer":0,
			"byteLength":4752,
			"byteOffset":65536,
			"target":34962
		},
		{
			"buffer":0,
			"byteLength":2124,
			"byteOffset":70288,
			"target":34963
		},
		{
			"buffer":0,
			"byteLength":7128,
			"byteOffset":72412,
			"target":34962
		},
		{
			"buffer":0,
			"byteLength":7128,
			"byteOffset":79540,
			"target":34962
		},
		{
			"buffer":0,
			"byteLength":4752,
			"byteOffset":86668,
			"target":34962
		},
		{
			"buffer":0,
			"byteLength":7128,
			"byteOffset":91420,
			"target":34962
		},
		{
			"buffer":0,
			"byteLength":7128,
			"byteOffset":98548,
			"target":34962
		},
		{
			"buffer":0,
			"byteLength":4752,
			"byteOffset":105676,
			"target":34962
		},
		{
			"buffer":0,
			"byteLength":7128,
			"byteOffset":110428,
			"target":34962
		},
		{
			"buffer":0,
			"byteLength":7128,
			"byteOffset":117556,
			"target":34962
		},
		{
			"buffer":0,
			"byteLength":4752,
			"byteOffset":124684,
			"target":34962
		},
		{
			"buffer":0,
			"byteLength":7128,
			"byteOffset":129436,
			"target":34962
		},
		{
			"buffer":0,
			"byteLength":7128,
			"byteOffset":136564,
			"target":34962
		},
		{
			"buffer":0,
			"byteLength":4752,
			"byteOffset":143692,
			"target":34962
		},
		{
			"buffer":0,
			"byteLength":7128,
			"byteOffset":148444,
			"target":34962
		},
		{
			"buffer":0,
			"byteLength":7128,
			"byteOffset":155572,
			"target":34962
		},
		{
			"buffer":0,
			"byteLength":4752,
			"byteOffset":162700,
			"target":34962
		},
		{
			"buffer":0,
			"byteLength":6552,
			"byteOffset":167452,
			"target":34962
		},
		{
			"buffer":0,
			"byteLength":6552,
			"byteOffset":174004,
			"target":34962
		},
		{
			"buffer":0,
			"byteLength":4368,
			"byteOffset":180556,
			"target":34962
		},
		{
			"buffer":0,
			"byteLength":2040,
			"byteOffset":184924,
			"target":34963
		},
		{
			"buffer":0,
			"byteLength":2412,
			"byteOffset":186964,
			"target":34962
		},
		{
			"buffer":0,
			"byteLength":2412,
			"byteOffset":189376,
			"target":34962
		},
		{
			"buffer":0,
			"byteLength":1608,
			"byteOffset":191788,
			"target":34962
		},
		{
			"buffer":0,
			"byteLength":1584,
			"byteOffset":193396,
			"target":34963
		},
		{
			"buffer":0,
			"byteLength":516,
			"byteOffset":194980,
			"target":34962
		},
		{
			"buffer":0,
			"byteLength":516,
			"byteOffset":195496,
			"target":34962
		},
		{
			"buffer":0,
			"byteLength":344,
			"byteOffset":196012,
			"target":34962
		},
		{
			"buffer":0,
			"byteLength":288,
			"byteOffset":196356,
			"target":34963
		},
		{
			"buffer":0,
			"byteLength":29484,
			"byteOffset":196644,
			"target":34962
		},
		{
			"buffer":0,
			"byteLength":29484,
			"byteOffset":226128,
			"target":34962
		},
		{
			"buffer":0,
			"byteLength":19656,
			"byteOffset":255612,
			"target":34962
		},
		{
			"buffer":0,
			"byteLength":15900,
			"byteOffset":275268,
			"target":34963
		}
	],
	"samplers":[
		{
			"magFilter":9729,
			"minFilter":9987
		}
	],
	"buffers":[
		{
			"byteLength":291168,
			"uri":"dungeon_cell.bin"
		}
	]
}
