{
	"asset":{
		"generator":"Khronos glTF Blender I/O v3.6.27",
		"version":"2.0"
	},
	"scene":0,
	"scenes":[
		{
			"name":"Scene",
			"nodes":[
				0,
				1,
				2,
				3,
				4
			]
		}
	],
	"nodes":[
		{
			"mesh":0,
			"name":"Cube"
		},
		{
			"mesh":1,
			"name":"Bars1",
			"translation":[
				5.5,
				1.7628614902496338,
				12.505228996276855
			]
		},
		{
			"mesh":2,
			"name":"Bars2",
			"translation":[
				9.5,
				1.7628614902496338,
				12.505228996276855
			]
		},
		{
			"mesh":3,
			"name":"Bars3",
			"translation":[
				5.5,
				1.7628614902496338,
				6.5
			]
		},
		{
			"mesh":4,
			"name":"Bars4",
			"translation":[
				9.5,
				1.7628614902496338,
				6.5
			]
		}
	],
	"materials":[
		{
			"name":"Material",
			"pbrMetallicRoughness":{
				"baseColorTexture":{
					"index":0
				},
				"metallicRoughnessTexture":{
					"index":1
				},
				"roughnessFactor":0.5
			}
		}
	],
	"meshes":[
		{
			"name":"Cube",
			"primitives":[
				{
					"attributes":{
						"POSITION":0,
						"NORMAL":1,
						"TEXCOORD_0":2
					},
					"indices":3,
					"material":0
				}
			]
		},
		{
			"name":"Cube.003",
			"primitives":[
				{
					"attributes":{
						"POSITION":4,
						"NORMAL":5,
						"TEXCOORD_0":6
					},
					"indices":7,
					"material":0
				}
			]
		},
		{
			"name":"Cube.004",
			"primitives":[
				{
					"attributes":{
						"POSITION":8,
						"NORMAL":9,
						"TEXCOORD_0":10
					},
					"indices":7,
					"material":0
				}
			]
		},
		{
			"name":"Cube.005",
			"primitives":[
				{
					"attributes":{
						"POSITION":11,
						"NORMAL":12,
						"TEXCOORD_0":13
					},
					"indices":7,
					"material":0
				}
			]
		},
		{
			"name":"Cube.006",
			"primitives":[
				{
					"attributes":{
						"POSITION":14,
						"NORMAL":15,
						"TEXCOORD_0":16
					},
					"indices":7,
					"material":0
				}
			]
		}
	],
	"textures":[
		{
			"sampler":0,
			"source":0
		},
		{
			"sampler":0,
			"source":1
		}
	],
	"images":[
		{
			"mimeType":"image/png",
			"name":"dungeon_cell_diffuse",
			"uri":"textures/dungeon_cell_diffuse.png"
		},
		{
			"mimeType":"image/png",
			"name":"dungeon_cell_metallic",
			"uri":"textures/dungeon_cell_metallic.png"
		}
	],
	"accessors":[
		{
			"bufferView":0,
			"componentType":5126,
			"count":124,
			"max":[
				15,
				4,
				15
			],
			"min":[
				0,
				0,
				0
			],
			"type":"VEC3"
		},
		{
			"bufferView":1,
			"componentType":5126,
			"count":124,
			"type":"VEC3"
		},
		{
			"bufferView":2,
			"componentType":5126,
			"count":124,
			"type":"VEC2"
		},
		{
			"bufferView":3,
			"componentType":5123,
			"count":198,
			"type":"SCALAR"
		},
		{
			"bufferView":4,
			"componentType":5126,
			"count":594,
			"max":[
				0.10000038146972656,
				2.237138509750366,
				2.544771194458008
			],
			"min":[
				-0.09999990463256836,
				-1.7628614902496338,
				-2.5552291870117188
			],
			"type":"VEC3"
		},
		{
			"bufferView":5,
			"componentType":5126,
			"count":594,
			"type":"VEC3"
		},
		{
			"bufferView":6,
			"componentType":5126,
			"count":594,
			"type":"VEC2"
		},
		{
			"bufferView":7,
			"componentType":5123,
			"count":1062,
			"type":"SCALAR"
		},
		{
			"bufferView":8,
			"componentType":5126,
			"count":594,
			"max":[
				0.10000038146972656,
				2.237138509750366,
				2.544771194458008
			],
			"min":[
				-0.09999990463256836,
				-1.7628614902496338,
				-2.5552291870117188
			],
			"type":"VEC3"
		},
		{
			"bufferView":9,
			"componentType":5126,
			"count":594,
			"type":"VEC3"
		},
		{
			"bufferView":10,
			"componentType":5126,
			"count":594,
			"type":"VEC2"
		},
		{
			"bufferView":11,
			"componentType":5126,
			"count":594,
			"max":[
				0.10000038146972656,
				2.237138509750366,
				2.544771194458008
			],
			"min":[
				-0.09999990463256836,
				-1.7628614902496338,
				-2.5552291870117188
			],
			"type":"VEC3"
		},
		{
			"bufferView":12,
			"componentType":5126,
			"count":594,
			"type":"VEC3"
		},
		{
			"bufferView":13,
			"componentType":5126,
			"count":594,
			"type":"VEC2"
		},
		{
			"bufferView":14,
			"componentType":5126,
			"count":594,
			"max":[
				0.10000038146972656,
				2.237138509750366,
				2.544771194458008
			],
			"min":[
				-0.09999990463256836,
				-1.7628614902496338,
				-2.5552291870117188
			],
			"type":"VEC3"
		},
		{
			"bufferView":15,
			"componentType":5126,
			"count":594,
			"type":"VEC3"
		},
		{
			"bufferView":16,
			"componentType":5126,
			"count":594,
			"type":"VEC2"
		}
	],
	"bufferViews":[
		{
			"buffer":0,
			"byteLength":1488,
			"byteOffset":0,
			"target":34962
		},
		{
			"buffer":0,
			"byteLength":1488,
			"byteOffset":1488,
			"target":34962
		},
		{
			"buffer":0,
			"byteLength":992,
			"byteOffset":2976,
			"target":34962
		},
		{
			"buffer":0,
			"byteLength":396,
			"byteOffset":3968,
			"target":34963
		},
		{
			"buffer":0,
			"byteLength":7128,
			"byteOffset":4364,
			"target":34962
		},
		{
			"buffer":0,
			"byteLength":7128,
			"byteOffset":11492,
			"target":34962
		},
		{
			"buffer":0,
			"byteLength":4752,
			"byteOffset":18620,
			"target":34962
		},
		{
			"buffer":0,
			"byteLength":2124,
			"byteOffset":23372,
			"target":34963
		},
		{
			"buffer":0,
			"byteLength":7128,
			"byteOffset":25496,
			"target":34962
		},
		{
			"buffer":0,
			"byteLength":7128,
			"byteOffset":32624,
			"target":34962
		},
		{
			"buffer":0,
			"byteLength":4752,
			"byteOffset":39752,
			"target":34962
		},
		{
			"buffer":0,
			"byteLength":7128,
			"byteOffset":44504,
			"target":34962
		},
		{
			"buffer":0,
			"byteLength":7128,
			"byteOffset":51632,
			"target":34962
		},
		{
			"buffer":0,
			"byteLength":4752,
			"byteOffset":58760,
			"target":34962
		},
		{
			"buffer":0,
			"byteLength":7128,
			"byteOffset":63512,
			"target":34962
		},
		{
			"buffer":0,
			"byteLength":7128,
			"byteOffset":70640,
			"target":34962
		},
		{
			"buffer":0,
			"byteLength":4752,
			"byteOffset":77768,
			"target":34962
		}
	],
	"samplers":[
		{
			"magFilter":9729,
			"minFilter":9987
		}
	],
	"buffers":[
		{
			"byteLength":82520,
			"uri":"dungeon_cell.bin"
		}
	]
}
