{
	"asset":{
		"generator":"Khronos glTF Blender I/O v3.6.27",
		"version":"2.0"
	},
	"scene":0,
	"scenes":[
		{
			"name":"Scene",
			"nodes":[
				0
			]
		}
	],
	"nodes":[
		{
			"mesh":0,
			"name":"Circle",
			"rotation":[
				0.7071068286895752,
				0,
				0,
				0.7071068286895752
			],
			"scale":[
				0.25,
				0.25,
				0.25
			]
		}
	],
	"materials":[
		{
			"doubleSided":true,
			"name":"Material.001",
			"pbrMetallicRoughness":{
				"baseColorFactor":[
					0.18782073259353638,
					0.10702300816774368,
					0.06301003694534302,
					1
				],
				"metallicFactor":0,
				"roughnessFactor":0.8700339794158936
			}
		},
		{
			"doubleSided":true,
			"name":"Material.002",
			"pbrMetallicRoughness":{
				"baseColorFactor":[
					0.33716320991516113,
					0.3371632993221283,
					0.33716362714767456,
					1
				],
				"roughnessFactor":0.5678970217704773
			}
		}
	],
	"meshes":[
		{
			"name":"Circle",
			"primitives":[
				{
					"attributes":{
						"POSITION":0,
						"NORMAL":1,
						"TEXCOORD_0":2
					},
					"indices":3,
					"material":0
				},
				{
					"attributes":{
						"POSITION":4,
						"NORMAL":5,
						"TEXCOORD_0":6
					},
					"indices":7,
					"material":1
				}
			]
		}
	],
	"accessors":[
		{
			"bufferView":0,
			"componentType":5126,
			"count":380,
			"max":[
				1.0055288076400757,
				0.13616594672203064,
				1.0055288076400757
			],
			"min":[
				-1.0055286884307861,
				-0.18315768241882324,
				-1.0055288076400757
			],
			"type":"VEC3"
		},
		{
			"bufferView":1,
			"componentType":5126,
			"count":380,
			"type":"VEC3"
		},
		{
			"bufferView":2,
			"componentType":5126,
			"count":380,
			"type":"VEC2"
		},
		{
			"bufferView":3,
			"componentType":5123,
			"count":1746,
			"type":"SCALAR"
		},
		{
			"bufferView":4,
			"componentType":5126,
			"count":641,
			"max":[
				1.0644018650054932,
				0.04207712411880493,
				1.0644019842147827
			],
			"min":[
				-1.0644021034240723,
				-0.34919971227645874,
				-1.0644019842147827
			],
			"type":"VEC3"
		},
		{
			"bufferView":5,
			"componentType":5126,
			"count":641,
			"type":"VEC3"
		},
		{
			"bufferView":6,
			"componentType":5126,
			"count":641,
			"type":"VEC2"
		},
		{
			"bufferView":7,
			"componentType":5123,
			"count":2490,
			"type":"SCALAR"
		}
	],
	"bufferViews":[
		{
			"buffer":0,
			"byteLength":4560,
			"byteOffset":0,
			"target":34962
		},
		{
			"buffer":0,
			"byteLength":4560,
			"byteOffset":4560,
			"target":34962
		},
		{
			"buffer":0,
			"byteLength":3040,
			"byteOffset":9120,
			"target":34962
		},
		{
			"buffer":0,
			"byteLength":3492,
			"byteOffset":12160,
			"target":34963
		},
		{
			"buffer":0,
			"byteLength":7692,
			"byteOffset":15652,
			"target":34962
		},
		{
			"buffer":0,
			"byteLength":7692,
			"byteOffset":23344,
			"target":34962
		},
		{
			"buffer":0,
			"byteLength":5128,
			"byteOffset":31036,
			"target":34962
		},
		{
			"buffer":0,
			"byteLength":4980,
			"byteOffset":36164,
			"target":34963
		}
	],
	"buffers":[
		{
			"byteLength":41144,
			"uri":"data:application/octet-stream;base64,"
		}
	]
}
