{
	"asset":{
		"generator":"Khronos glTF Blender I/O v3.6.27",
		"version":"2.0"
	},
	"scene":0,
	"scenes":[
		{
			"name":"Scene",
			"nodes":[
				0,
				1,
				2
			]
		}
	],
	"nodes":[
		{
			"mesh":0,
			"name":"Bars",
			"scale":[
				0.9655644297599792,
				0.9655644297599792,
				0.9655644297599792
			]
		},
		{
			"mesh":1,
			"name":"Frame",
			"scale":[
				0.9655644297599792,
				0.9655644297599792,
				0.9655644297599792
			]
		},
		{
			"mesh":2,
			"name":"Exit",
			"scale":[
				0.9655644297599792,
				0.9655644297599792,
				0.9655644297599792
			]
		}
	],
	"materials":[
		{
			"doubleSided":true,
			"name":"Material.001",
			"pbrMetallicRoughness":{
				"baseColorTexture":{
					"index":0
				},
				"metallicRoughnessTexture":{
					"index":1
				}
			}
		},
		{
			"doubleSided":true,
			"name":"Material.002",
			"pbrMetallicRoughness":{
				"baseColorTexture":{
					"index":2
				},
				"metallicFactor":0,
				"metallicRoughnessTexture":{
					"index":3
				}
			}
		},
		{
			"doubleSided":true,
			"name":"Material",
			"pbrMetallicRoughness":{
				"baseColorTexture":{
					"index":4
				},
				"metallicFactor":0,
				"metallicRoughnessTexture":{
					"index":5
				}
			}
		}
	],
	"meshes":[
		{
			"name":"Cube",
			"primitives":[
				{
					"attributes":{
						"POSITION":0,
						"NORMAL":1,
						"TEXCOORD_0":2
					},
					"indices":3,
					"material":0
				}
			]
		},
		{
			"name":"Cube.001",
			"primitives":[
				{
					"attributes":{
						"POSITION":4,
						"NORMAL":5,
						"TEXCOORD_0":6
					},
					"indices":7,
					"material":1
				}
			]
		},
		{
			"name":"Cube.002",
			"primitives":[
				{
					"attributes":{
						"POSITION":8,
						"NORMAL":9,
						"TEXCOORD_0":10
					},
					"indices":11,
					"material":0
				},
				{
					"attributes":{
						"POSITION":12,
						"NORMAL":13,
						"TEXCOORD_0":14
					},
					"indices":15,
					"material":2
				}
			]
		}
	],
	"textures":[
		{
			"sampler":0,
			"source":0
		},
		{
			"sampler":0,
			"source":1
		},
		{
			"sampler":0,
			"source":2
		},
		{
			"sampler":0,
			"source":3
		},
		{
			"sampler":0,
			"source":4
		},
		{
			"sampler":0,
			"source":1
		}
	],
	"images":[
		{
			"mimeType":"image/png",
			"name":"gate.png",
			"uri":"gate.png"
		},
		{
			"mimeType":"image/png",
			"name":"gate_exit_roughness.png",
			"uri":"gate_exit_roughness.png"
		},
		{
			"mimeType":"image/png",
			"name":"gate_frame.png",
			"uri":"gate_frame.png"
		},
		{
			"mimeType":"image/png",
			"name":"gate_frame_roughness.png",
			"uri":"gate_frame_roughness.png"
		},
		{
			"mimeType":"image/png",
			"name":"gate_exit.png",
			"uri":"gate_exit.png"
		}
	],
	"accessors":[
		{
			"bufferView":0,
			"componentType":5126,
			"count":472,
			"max":[
				1.035663366317749,
				3.007155656814575,
				-0.01789090782403946
			],
			"min":[
				-1.035663366317749,
				0.0017873942852020264,
				-0.18222376704216003
			],
			"type":"VEC3"
		},
		{
			"bufferView":1,
			"componentType":5126,
			"count":472,
			"type":"VEC3"
		},
		{
			"bufferView":2,
			"componentType":5126,
			"count":472,
			"type":"VEC2"
		},
		{
			"bufferView":3,
			"componentType":5123,
			"count":708,
			"type":"SCALAR"
		},
		{
			"bufferView":4,
			"componentType":5126,
			"count":384,
			"max":[
				1.5534955263137817,
				3.1131656169891357,
				0.05148559808731079
			],
			"min":[
				-1.5534955263137817,
				2.384185791015625e-07,
				-2.070591926574707
			],
			"type":"VEC3"
		},
		{
			"bufferView":5,
			"componentType":5126,
			"count":384,
			"type":"VEC3"
		},
		{
			"bufferView":6,
			"componentType":5126,
			"count":384,
			"type":"VEC2"
		},
		{
			"bufferView":7,
			"componentType":5123,
			"count":840,
			"type":"SCALAR"
		},
		{
			"bufferView":8,
			"componentType":5126,
			"count":1336,
			"max":[
				1.224590539932251,
				1.2535797357559204,
				-1.882902979850769
			],
			"min":[
				-1.2234333753585815,
				0.870318591594696,
				-1.9443861246109009
			],
			"type":"VEC3"
		},
		{
			"bufferView":9,
			"componentType":5126,
			"count":1336,
			"type":"VEC3"
		},
		{
			"bufferView":10,
			"componentType":5126,
			"count":1336,
			"type":"VEC2"
		},
		{
			"bufferView":11,
			"componentType":5123,
			"count":7044,
			"type":"SCALAR"
		},
		{
			"bufferView":12,
			"componentType":5126,
			"count":100,
			"max":[
				1.202056646347046,
				2.8809823989868164,
				-1.9401766061782837
			],
			"min":[
				-1.2008986473083496,
				3.5762786865234375e-07,
				-1.995828628540039
			],
			"type":"VEC3"
		},
		{
			"bufferView":13,
			"componentType":5126,
			"count":100,
			"type":"VEC3"
		},
		{
			"bufferView":14,
			"componentType":5126,
			"count":100,
			"type":"VEC2"
		},
		{
			"bufferView":15,
			"componentType":5123,
			"count":180,
			"type":"SCALAR"
		}
	],
	"bufferViews":[
		{
			"buffer":0,
			"byteLength":5664,
			"byteOffset":0,
			"target":34962
		},
		{
			"buffer":0,
			"byteLength":5664,
			"byteOffset":5664,
			"target":34962
		},
		{
			"buffer":0,
			"byteLength":3776,
			"byteOffset":11328,
			"target":34962
		},
		{
			"buffer":0,
			"byteLength":1416,
			"byteOffset":15104,
			"target":34963
		},
		{
			"buffer":0,
			"byteLength":4608,
			"byteOffset":16520,
			"target":34962
		},
		{
			"buffer":0,
			"byteLength":4608,
			"byteOffset":21128,
			"target":34962
		},
		{
			"buffer":0,
			"byteLength":3072,
			"byteOffset":25736,
			"target":34962
		},
		{
			"buffer":0,
			"byteLength":1680,
			"byteOffset":28808,
			"target":34963
		},
		{
			"buffer":0,
			"byteLength":16032,
			"byteOffset":30488,
			"target":34962
		},
		{
			"buffer":0,
			"byteLength":16032,
			"byteOffset":46520,
			"target":34962
		},
		{
			"buffer":0,
			"byteLength":10688,
			"byteOffset":62552,
			"target":34962
		},
		{
			"buffer":0,
			"byteLength":14088,
			"byteOffset":73240,
			"target":34963
		},
		{
			"buffer":0,
			"byteLength":1200,
			"byteOffset":87328,
			"target":34962
		},
		{
			"buffer":0,
			"byteLength":1200,
			"byteOffset":88528,
			"target":34962
		},
		{
			"buffer":0,
			"byteLength":800,
			"byteOffset":89728,
			"target":34962
		},
		{
			"buffer":0,
			"byteLength":360,
			"byteOffset":90528,
			"target":34963
		}
	],
	"samplers":[
		{
			"magFilter":9729,
			"minFilter":9987
		}
	],
	"buffers":[
		{
			"byteLength":90888,
			"uri":"exit.bin"
		}
	]
}
