{
	"asset":{
		"generator":"Khronos glTF Blender I/O v3.6.27",
		"version":"2.0"
	},
	"scene":0,
	"scenes":[
		{
			"name":"Scene",
			"nodes":[
				0,
				1
			]
		}
	],
	"nodes":[
		{
			"mesh":0,
			"name":"Bars",
			"scale":[
				0.9655644297599792,
				0.9655644297599792,
				0.9655644297599792
			]
		},
		{
			"mesh":1,
			"name":"Frame",
			"scale":[
				0.9655644297599792,
				0.9655644297599792,
				0.9655644297599792
			]
		}
	],
	"materials":[
		{
			"doubleSided":true,
			"name":"Material.001",
			"pbrMetallicRoughness":{
				"baseColorFactor":[
					0.10566249489784241,
					0.05366931110620499,
					0.02788293920457363,
					1
				],
				"metallicRoughnessTexture":{
					"index":0
				}
			}
		},
		{
			"doubleSided":true,
			"name":"Material.002",
			"pbrMetallicRoughness":{
				"baseColorFactor":[
					0.145364448428154,
					0.145364448428154,
					0.145364448428154,
					1
				],
				"metallicFactor":0,
				"metallicRoughnessTexture":{
					"index":1
				}
			}
		}
	],
	"meshes":[
		{
			"name":"Cube",
			"primitives":[
				{
					"attributes":{
						"POSITION":0,
						"NORMAL":1,
						"TEXCOORD_0":2
					},
					"indices":3,
					"material":0
				}
			]
		},
		{
			"name":"Cube.001",
			"primitives":[
				{
					"attributes":{
						"POSITION":4,
						"NORMAL":5,
						"TEXCOORD_0":6
					},
					"indices":7,
					"material":1
				}
			]
		}
	],
	"textures":[
		{
			"sampler":0,
			"source":0
		},
		{
			"sampler":0,
			"source":1
		}
	],
	"images":[
		{
			"mimeType":"image/png",
			"name":"gate_exit_roughness.png",
			"uri":"gate_exit_roughness.png"
		},
		{
			"mimeType":"image/png",
			"name":"gate_frame_roughness.png",
			"uri":"gate_frame_roughness.png"
		}
	],
	"accessors":[
		{
			"bufferView":0,
			"componentType":5126,
			"count":472,
			"max":[
				1.035663366317749,
				3.007155656814575,
				-0.01789090782403946
			],
			"min":[
				-1.035663366317749,
				0.0017873942852020264,
				-0.18222376704216003
			],
			"type":"VEC3"
		},
		{
			"bufferView":1,
			"componentType":5126,
			"count":472,
			"type":"VEC3"
		},
		{
			"bufferView":2,
			"componentType":5126,
			"count":472,
			"type":"VEC2"
		},
		{
			"bufferView":3,
			"componentType":5123,
			"count":708,
			"type":"SCALAR"
		},
		{
			"bufferView":4,
			"componentType":5126,
			"count":384,
			"max":[
				1.5534955263137817,
				3.1131656169891357,
				0.05148559808731079
			],
			"min":[
				-1.5534955263137817,
				2.384185791015625e-07,
				-2.070591926574707
			],
			"type":"VEC3"
		},
		{
			"bufferView":5,
			"componentType":5126,
			"count":384,
			"type":"VEC3"
		},
		{
			"bufferView":6,
			"componentType":5126,
			"count":384,
			"type":"VEC2"
		},
		{
			"bufferView":7,
			"componentType":5123,
			"count":840,
			"type":"SCALAR"
		}
	],
	"bufferViews":[
		{
			"buffer":0,
			"byteLength":5664,
			"byteOffset":0,
			"target":34962
		},
		{
			"buffer":0,
			"byteLength":5664,
			"byteOffset":5664,
			"target":34962
		},
		{
			"buffer":0,
			"byteLength":3776,
			"byteOffset":11328,
			"target":34962
		},
		{
			"buffer":0,
			"byteLength":1416,
			"byteOffset":15104,
			"target":34963
		},
		{
			"buffer":0,
			"byteLength":4608,
			"byteOffset":16520,
			"target":34962
		},
		{
			"buffer":0,
			"byteLength":4608,
			"byteOffset":21128,
			"target":34962
		},
		{
			"buffer":0,
			"byteLength":3072,
			"byteOffset":25736,
			"target":34962
		},
		{
			"buffer":0,
			"byteLength":1680,
			"byteOffset":28808,
			"target":34963
		}
	],
	"samplers":[
		{
			"magFilter":9729,
			"minFilter":9987
		}
	],
	"buffers":[
		{
			"byteLength":30488,
			"uri":"exit.bin"
		}
	]
}
