{
	"asset":{
		"generator":"Khronos glTF Blender I/O v3.6.27",
		"version":"2.0"
	},
	"scene":0,
	"scenes":[
		{
			"name":"Scene",
			"nodes":[
				0,
				1,
				2,
				3,
				4
			]
		}
	],
	"nodes":[
		{
			"mesh":0,
			"name":"Walls"
		},
		{
			"mesh":1,
			"name":"Table",
			"scale":[
				1.5110324621200562,
				1.5110324621200562,
				1.5110324621200562
			],
			"translation":[
				2.277561664581299,
				0,
				3
			]
		},
		{
			"mesh":2,
			"name":"CeilingBars",
			"rotation":[
				0,
				0,
				0.7071068286895752,
				0.7071068286895752
			]
		},
		{
			"mesh":3,
			"name":"Chair",
			"translation":[
				2.299999952316284,
				0,
				1.7000000476837158
			]
		},
		{
			"mesh":4,
			"name":"Shelves Collider"
		}
	],
	"materials":[
		{
			"name":"Material",
			"pbrMetallicRoughness":{
				"baseColorTexture":{
					"index":0
				},
				"metallicFactor":0
			}
		},
		{
			"name":"Material",
			"pbrMetallicRoughness":{
				"baseColorTexture":{
					"index":1
				},
				"metallicFactor":0
			}
		}
	],
	"meshes":[
		{
			"name":"Cube",
			"primitives":[
				{
					"attributes":{
						"POSITION":0,
						"NORMAL":1,
						"TEXCOORD_0":2
					},
					"indices":3,
					"material":0
				}
			]
		},
		{
			"name":"Cube.003",
			"primitives":[
				{
					"attributes":{
						"POSITION":4,
						"NORMAL":5,
						"TEXCOORD_0":6
					},
					"indices":7,
					"material":0
				}
			]
		},
		{
			"name":"Cube.005",
			"primitives":[
				{
					"attributes":{
						"POSITION":8,
						"NORMAL":9,
						"TEXCOORD_0":10
					},
					"indices":11,
					"material":0
				}
			]
		},
		{
			"name":"Cube.007",
			"primitives":[
				{
					"attributes":{
						"POSITION":12,
						"NORMAL":13,
						"TEXCOORD_0":14
					},
					"indices":15,
					"material":1
				}
			]
		},
		{
			"name":"Cube.017",
			"primitives":[
				{
					"attributes":{
						"POSITION":16,
						"NORMAL":17,
						"TEXCOORD_0":18
					},
					"indices":19
				}
			]
		}
	],
	"textures":[
		{
			"sampler":0,
			"source":0
		},
		{
			"sampler":0,
			"source":0
		}
	],
	"images":[
		{
			"mimeType":"image/png",
			"name":"study_alcove_diffuse.png",
			"uri":"study_alcove_diffuse.png"
		}
	],
	"accessors":[
		{
			"bufferView":0,
			"componentType":5126,
			"count":98,
			"max":[
				5,
				3,
				7
			],
			"min":[
				-0.19999998807907104,
				0,
				0
			],
			"type":"VEC3"
		},
		{
			"bufferView":1,
			"componentType":5126,
			"count":98,
			"type":"VEC3"
		},
		{
			"bufferView":2,
			"componentType":5126,
			"count":98,
			"type":"VEC2"
		},
		{
			"bufferView":3,
			"componentType":5123,
			"count":180,
			"type":"SCALAR"
		},
		{
			"bufferView":4,
			"componentType":5126,
			"count":120,
			"max":[
				0.6671528220176697,
				0.6000000238418579,
				0.4188269376754761
			],
			"min":[
				-0.6671529412269592,
				0,
				-0.4188268184661865
			],
			"type":"VEC3"
		},
		{
			"bufferView":5,
			"componentType":5126,
			"count":120,
			"type":"VEC3"
		},
		{
			"bufferView":6,
			"componentType":5126,
			"count":120,
			"type":"VEC2"
		},
		{
			"bufferView":7,
			"componentType":5123,
			"count":204,
			"type":"SCALAR"
		},
		{
			"bufferView":8,
			"componentType":5126,
			"count":260,
			"max":[
				3.0000009536743164,
				2.384185791015625e-07,
				7
			],
			"min":[
				1.600000262260437,
				-5,
				0.4999999701976776
			],
			"type":"VEC3"
		},
		{
			"bufferView":9,
			"componentType":5126,
			"count":260,
			"type":"VEC3"
		},
		{
			"bufferView":10,
			"componentType":5126,
			"count":260,
			"type":"VEC2"
		},
		{
			"bufferView":11,
			"componentType":5123,
			"count":408,
			"type":"SCALAR"
		},
		{
			"bufferView":12,
			"componentType":5126,
			"count":189,
			"max":[
				0.4699999988079071,
				1.5,
				0.5
			],
			"min":[
				-0.4699999988079071,
				0,
				-0.6499999761581421
			],
			"type":"VEC3"
		},
		{
			"bufferView":13,
			"componentType":5126,
			"count":189,
			"type":"VEC3"
		},
		{
			"bufferView":14,
			"componentType":5126,
			"count":189,
			"type":"VEC2"
		},
		{
			"bufferView":15,
			"componentType":5123,
			"count":396,
			"type":"SCALAR"
		},
		{
			"bufferView":16,
			"componentType":5126,
			"count":68,
			"max":[
				5,
				3,
				7
			],
			"min":[
				0,
				0,
				0
			],
			"type":"VEC3"
		},
		{
			"bufferView":17,
			"componentType":5126,
			"count":68,
			"type":"VEC3"
		},
		{
			"bufferView":18,
			"componentType":5126,
			"count":68,
			"type":"VEC2"
		},
		{
			"bufferView":19,
			"componentType":5123,
			"count":120,
			"type":"SCALAR"
		}
	],
	"bufferViews":[
		{
			"buffer":0,
			"byteLength":1176,
			"byteOffset":0,
			"target":34962
		},
		{
			"buffer":0,
			"byteLength":1176,
			"byteOffset":1176,
			"target":34962
		},
		{
			"buffer":0,
			"byteLength":784,
			"byteOffset":2352,
			"target":34962
		},
		{
			"buffer":0,
			"byteLength":360,
			"byteOffset":3136,
			"target":34963
		},
		{
			"buffer":0,
			"byteLength":1440,
			"byteOffset":3496,
			"target":34962
		},
		{
			"buffer":0,
			"byteLength":1440,
			"byteOffset":4936,
			"target":34962
		},
		{
			"buffer":0,
			"byteLength":960,
			"byteOffset":6376,
			"target":34962
		},
		{
			"buffer":0,
			"byteLength":408,
			"byteOffset":7336,
			"target":34963
		},
		{
			"buffer":0,
			"byteLength":3120,
			"byteOffset":7744,
			"target":34962
		},
		{
			"buffer":0,
			"byteLength":3120,
			"byteOffset":10864,
			"target":34962
		},
		{
			"buffer":0,
			"byteLength":2080,
			"byteOffset":13984,
			"target":34962
		},
		{
			"buffer":0,
			"byteLength":816,
			"byteOffset":16064,
			"target":34963
		},
		{
			"buffer":0,
			"byteLength":2268,
			"byteOffset":16880,
			"target":34962
		},
		{
			"buffer":0,
			"byteLength":2268,
			"byteOffset":19148,
			"target":34962
		},
		{
			"buffer":0,
			"byteLength":1512,
			"byteOffset":21416,
			"target":34962
		},
		{
			"buffer":0,
			"byteLength":792,
			"byteOffset":22928,
			"target":34963
		},
		{
			"buffer":0,
			"byteLength":816,
			"byteOffset":23720,
			"target":34962
		},
		{
			"buffer":0,
			"byteLength":816,
			"byteOffset":24536,
			"target":34962
		},
		{
			"buffer":0,
			"byteLength":544,
			"byteOffset":25352,
			"target":34962
		},
		{
			"buffer":0,
			"byteLength":240,
			"byteOffset":25896,
			"target":34963
		}
	],
	"samplers":[
		{
			"magFilter":9729,
			"minFilter":9987
		}
	],
	"buffers":[
		{
			"byteLength":26136,
			"uri":"study_alcove_collider.bin"
		}
	]
}
