{
	"asset":{
		"generator":"Khronos glTF Blender I/O v3.6.27",
		"version":"2.0"
	},
	"scene":0,
	"scenes":[
		{
			"name":"Scene",
			"nodes":[
				0,
				1,
				2,
				3,
				4,
				5,
				6,
				7,
				8,
				9,
				10,
				11,
				12,
				13,
				14,
				15,
				16
			]
		}
	],
	"nodes":[
		{
			"mesh":0,
			"name":"Plane"
		},
		{
			"mesh":1,
			"name":"Plane.001",
			"translation":[
				17.140207290649414,
				-6.226759910583496,
				-2.4393541025347076e-05
			]
		},
		{
			"mesh":2,
			"name":"Plane.002",
			"translation":[
				4.86177921295166,
				-5.336836338043213,
				-2.1210924387560226e-05
			]
		},
		{
			"mesh":3,
			"name":"Plane.003",
			"translation":[
				7.136728763580322,
				-5.336836338043213,
				-2.1210924387560226e-05
			]
		},
		{
			"mesh":4,
			"name":"Plane.004",
			"translation":[
				9.847761154174805,
				-5.336836338043213,
				-2.121092620654963e-05
			]
		},
		{
			"mesh":5,
			"name":"Plane.005",
			"translation":[
				11.446063995361328,
				-5.587418556213379,
				-2.210707862104755e-05
			]
		},
		{
			"mesh":6,
			"name":"Plane.006",
			"translation":[
				13.044000625610352,
				-6.201187610626221,
				-2.4302085876115598e-05
			]
		},
		{
			"mesh":7,
			"name":"Plane.007",
			"translation":[
				14.43393325805664,
				-6.385309219360352,
				-2.4960558221209794e-05
			]
		},
		{
			"mesh":8,
			"name":"Plane.008",
			"translation":[
				15.748260498046875,
				-6.1040120124816895,
				-2.3954558855621144e-05
			]
		},
		{
			"mesh":9,
			"name":"Plane.009",
			"scale":[
				2,
				2,
				2
			],
			"translation":[
				19.10832977294922,
				10.082307815551758,
				-10
			]
		},
		{
			"mesh":10,
			"name":"Plane.010",
			"scale":[
				0.948852002620697,
				0.948852002620697,
				0.948852002620697
			],
			"translation":[
				21.849946975708008,
				9.949774742126465,
				0.5114797949790955
			]
		},
		{
			"mesh":11,
			"name":"Plane.011",
			"scale":[
				1.0408984422683716,
				1.0408984422683716,
				1.0408984422683716
			],
			"translation":[
				16.615673065185547,
				9.118636131286621,
				-0.4089844822883606
			]
		},
		{
			"mesh":12,
			"name":"Plane.012",
			"rotation":[
				0,
				0,
				-0.1151997298002243,
				0.9933423399925232
			],
			"translation":[
				9.040519714355469,
				9.103955268859863,
				-0.4089844822883606
			]
		},
		{
			"mesh":13,
			"name":"Plane.013",
			"scale":[
				1.019430160522461,
				1.019430160522461,
				1.019430160522461
			],
			"translation":[
				26.66964340209961,
				9.287477493286133,
				-0.19430124759674072
			]
		},
		{
			"mesh":14,
			"name":"Plane.014",
			"rotation":[
				0,
				0,
				0.1206497922539711,
				0.9926952123641968
			],
			"scale":[
				1.040898323059082,
				1.040898323059082,
				1.0408984422683716
			],
			"translation":[
				32.209747314453125,
				10.055238723754883,
				-0.40898436307907104
			]
		},
		{
			"mesh":15,
			"name":"Plane.015",
			"rotation":[
				0,
				0,
				-0.03256635740399361,
				0.9994695782661438
			],
			"scale":[
				1.0280834436416626,
				1.0280834436416626,
				1.0280834436416626
			],
			"translation":[
				32.575531005859375,
				10.114236831665039,
				-0.2808348834514618
			]
		},
		{
			"mesh":16,
			"name":"tilemap",
			"scale":[
				32,
				32,
				32
			]
		}
	],
	"materials":[
		{
			"alphaCutoff":0.5,
			"alphaMode":"MASK",
			"doubleSided":true,
			"name":"Objects",
			"pbrMetallicRoughness":{
				"baseColorTexture":{
					"index":0
				},
				"metallicFactor":0
			}
		},
		{
			"alphaCutoff":0.5,
			"alphaMode":"MASK",
			"doubleSided":true,
			"name":"Material.001",
			"pbrMetallicRoughness":{
				"baseColorTexture":{
					"index":1
				},
				"metallicFactor":0
			}
		}
	],
	"meshes":[
		{
			"name":"Plane.001",
			"primitives":[
				{
					"attributes":{
						"POSITION":0,
						"NORMAL":1,
						"TEXCOORD_0":2
					},
					"indices":3,
					"material":0
				}
			]
		},
		{
			"name":"Plane.002",
			"primitives":[
				{
					"attributes":{
						"POSITION":4,
						"NORMAL":5,
						"TEXCOORD_0":6
					},
					"indices":7,
					"material":0
				}
			]
		},
		{
			"name":"Plane.003",
			"primitives":[
				{
					"attributes":{
						"POSITION":8,
						"NORMAL":9,
						"TEXCOORD_0":10
					},
					"indices":11,
					"material":0
				}
			]
		},
		{
			"name":"Plane.004",
			"primitives":[
				{
					"attributes":{
						"POSITION":12,
						"NORMAL":13,
						"TEXCOORD_0":14
					},
					"indices":15,
					"material":0
				}
			]
		},
		{
			"name":"Plane.005",
			"primitives":[
				{
					"attributes":{
						"POSITION":16,
						"NORMAL":17,
						"TEXCOORD_0":18
					},
					"indices":19,
					"material":0
				}
			]
		},
		{
			"name":"Plane.006",
			"primitives":[
				{
					"attributes":{
						"POSITION":20,
						"NORMAL":21,
						"TEXCOORD_0":22
					},
					"indices":7,
					"material":0
				}
			]
		},
		{
			"name":"Plane.007",
			"primitives":[
				{
					"attributes":{
						"POSITION":23,
						"NORMAL":24,
						"TEXCOORD_0":25
					},
					"indices":26,
					"material":0
				}
			]
		},
		{
			"name":"Plane.008",
			"primitives":[
				{
					"attributes":{
						"POSITION":27,
						"NORMAL":28,
						"TEXCOORD_0":29
					},
					"indices":7,
					"material":0
				}
			]
		},
		{
			"name":"Plane.009",
			"primitives":[
				{
					"attributes":{
						"POSITION":30,
						"NORMAL":31,
						"TEXCOORD_0":32
					},
					"indices":7,
					"material":0
				}
			]
		},
		{
			"name":"Plane.016",
			"primitives":[
				{
					"attributes":{
						"POSITION":33,
						"NORMAL":34,
						"TEXCOORD_0":35
					},
					"indices":15,
					"material":0
				}
			]
		},
		{
			"name":"Plane.017",
			"primitives":[
				{
					"attributes":{
						"POSITION":36,
						"NORMAL":37,
						"TEXCOORD_0":38
					},
					"indices":19,
					"material":0
				}
			]
		},
		{
			"name":"Plane.018",
			"primitives":[
				{
					"attributes":{
						"POSITION":39,
						"NORMAL":40,
						"TEXCOORD_0":41
					},
					"indices":7,
					"material":0
				}
			]
		},
		{
			"name":"Plane.019",
			"primitives":[
				{
					"attributes":{
						"POSITION":42,
						"NORMAL":43,
						"TEXCOORD_0":44
					},
					"indices":7,
					"material":0
				}
			]
		},
		{
			"name":"Plane.020",
			"primitives":[
				{
					"attributes":{
						"POSITION":45,
						"NORMAL":46,
						"TEXCOORD_0":47
					},
					"indices":26,
					"material":0
				}
			]
		},
		{
			"name":"Plane.021",
			"primitives":[
				{
					"attributes":{
						"POSITION":48,
						"NORMAL":49,
						"TEXCOORD_0":50
					},
					"indices":7,
					"material":0
				}
			]
		},
		{
			"name":"Plane.022",
			"primitives":[
				{
					"attributes":{
						"POSITION":51,
						"NORMAL":52,
						"TEXCOORD_0":53
					},
					"indices":7,
					"material":0
				}
			]
		},
		{
			"name":"Plane",
			"primitives":[
				{
					"attributes":{
						"POSITION":54,
						"NORMAL":55,
						"TEXCOORD_0":56
					},
					"indices":3,
					"material":1
				}
			]
		}
	],
	"textures":[
		{
			"sampler":0,
			"source":0
		},
		{
			"sampler":0,
			"source":1
		}
	],
	"images":[
		{
			"mimeType":"image/png",
			"name":"objects.png",
			"uri":"layers/objects.png"
		},
		{
			"mimeType":"image/png",
			"name":"graveyard.png",
			"uri":"graveyard.png"
		}
	],
	"accessors":[
		{
			"bufferView":0,
			"componentType":5126,
			"count":4,
			"max":[
				0.4999999701976776,
				0.5,
				1.7881393432617188e-06
			],
			"min":[
				-0.4999999701976776,
				-0.5,
				-1.7881393432617188e-06
			],
			"type":"VEC3"
		},
		{
			"bufferView":1,
			"componentType":5126,
			"count":4,
			"type":"VEC3"
		},
		{
			"bufferView":2,
			"componentType":5126,
			"count":4,
			"type":"VEC2"
		},
		{
			"bufferView":3,
			"componentType":5123,
			"count":6,
			"type":"SCALAR"
		},
		{
			"bufferView":4,
			"componentType":5126,
			"count":4,
			"max":[
				0.7090861201286316,
				0.8899237513542175,
				3.1826150461711222e-06
			],
			"min":[
				-0.7090861797332764,
				-0.889923632144928,
				-3.1826150461711222e-06
			],
			"type":"VEC3"
		},
		{
			"bufferView":5,
			"componentType":5126,
			"count":4,
			"type":"VEC3"
		},
		{
			"bufferView":6,
			"componentType":5126,
			"count":4,
			"type":"VEC2"
		},
		{
			"bufferView":7,
			"componentType":5123,
			"count":6,
			"type":"SCALAR"
		},
		{
			"bufferView":8,
			"componentType":5126,
			"count":4,
			"max":[
				1.5432097911834717,
				2.0458016395568848,
				7.316356459341478e-06
			],
			"min":[
				-1.5432097911834717,
				-2.0458014011383057,
				-7.316356459341478e-06
			],
			"type":"VEC3"
		},
		{
			"bufferView":9,
			"componentType":5126,
			"count":4,
			"type":"VEC3"
		},
		{
			"bufferView":10,
			"componentType":5126,
			"count":4,
			"type":"VEC2"
		},
		{
			"bufferView":11,
			"componentType":5123,
			"count":6,
			"type":"SCALAR"
		},
		{
			"bufferView":12,
			"componentType":5126,
			"count":4,
			"max":[
				0.73173987865448,
				2.0458014011383057,
				7.316356459341478e-06
			],
			"min":[
				-0.73173987865448,
				-2.0458016395568848,
				-7.316356459341478e-06
			],
			"type":"VEC3"
		},
		{
			"bufferView":13,
			"componentType":5126,
			"count":4,
			"type":"VEC3"
		},
		{
			"bufferView":14,
			"componentType":5126,
			"count":4,
			"type":"VEC2"
		},
		{
			"bufferView":15,
			"componentType":5123,
			"count":6,
			"type":"SCALAR"
		},
		{
			"bufferView":16,
			"componentType":5126,
			"count":4,
			"max":[
				0.7588322758674622,
				2.0458016395568848,
				7.316356459341478e-06
			],
			"min":[
				-0.7588321566581726,
				-2.0458014011383057,
				-7.316356459341478e-06
			],
			"type":"VEC3"
		},
		{
			"bufferView":17,
			"componentType":5126,
			"count":4,
			"type":"VEC3"
		},
		{
			"bufferView":18,
			"componentType":5126,
			"count":4,
			"type":"VEC2"
		},
		{
			"bufferView":19,
			"componentType":5123,
			"count":6,
			"type":"SCALAR"
		},
		{
			"bufferView":20,
			"componentType":5126,
			"count":4,
			"max":[
				0.8394696116447449,
				1.5001144409179688,
				5.364826847653603e-06
			],
			"min":[
				-0.8394697308540344,
				-1.5001144409179688,
				-5.364827302400954e-06
			],
			"type":"VEC3"
		},
		{
			"bufferView":21,
			"componentType":5126,
			"count":4,
			"type":"VEC3"
		},
		{
			"bufferView":22,
			"componentType":5126,
			"count":4,
			"type":"VEC2"
		},
		{
			"bufferView":23,
			"componentType":5126,
			"count":4,
			"max":[
				0.7584681510925293,
				0.884809136390686,
				3.1643244255974423e-06
			],
			"min":[
				-0.7584681510925293,
				-0.8848092555999756,
				-3.164324198223767e-06
			],
			"type":"VEC3"
		},
		{
			"bufferView":24,
			"componentType":5126,
			"count":4,
			"type":"VEC3"
		},
		{
			"bufferView":25,
			"componentType":5126,
			"count":4,
			"type":"VEC2"
		},
		{
			"bufferView":26,
			"componentType":5123,
			"count":6,
			"type":"SCALAR"
		},
		{
			"bufferView":27,
			"componentType":5126,
			"count":4,
			"max":[
				0.6314642429351807,
				0.7825189232826233,
				2.7985061024082825e-06
			],
			"min":[
				-0.6314641833305359,
				-0.7825193405151367,
				-2.7985065571556333e-06
			],
			"type":"VEC3"
		},
		{
			"bufferView":28,
			"componentType":5126,
			"count":4,
			"type":"VEC3"
		},
		{
			"bufferView":29,
			"componentType":5126,
			"count":4,
			"type":"VEC2"
		},
		{
			"bufferView":30,
			"componentType":5126,
			"count":4,
			"max":[
				0.6828625798225403,
				0.889923632144928,
				3.1826152735447977e-06
			],
			"min":[
				-0.6828626394271851,
				-0.8899236917495728,
				-3.1826145914237713e-06
			],
			"type":"VEC3"
		},
		{
			"bufferView":31,
			"componentType":5126,
			"count":4,
			"type":"VEC3"
		},
		{
			"bufferView":32,
			"componentType":5126,
			"count":4,
			"type":"VEC2"
		},
		{
			"bufferView":33,
			"componentType":5126,
			"count":4,
			"max":[
				0.73173987865448,
				2.0458014011383057,
				7.316356459341478e-06
			],
			"min":[
				-0.73173987865448,
				-2.0458016395568848,
				-7.316356459341478e-06
			],
			"type":"VEC3"
		},
		{
			"bufferView":34,
			"componentType":5126,
			"count":4,
			"type":"VEC3"
		},
		{
			"bufferView":35,
			"componentType":5126,
			"count":4,
			"type":"VEC2"
		},
		{
			"bufferView":36,
			"componentType":5126,
			"count":4,
			"max":[
				0.7588322758674622,
				2.0458016395568848,
				7.316356459341478e-06
			],
			"min":[
				-0.7588321566581726,
				-2.0458014011383057,
				-7.316356459341478e-06
			],
			"type":"VEC3"
		},
		{
			"bufferView":37,
			"componentType":5126,
			"count":4,
			"type":"VEC3"
		},
		{
			"bufferView":38,
			"componentType":5126,
			"count":4,
			"type":"VEC2"
		},
		{
			"bufferView":39,
			"componentType":5126,
			"count":4,
			"max":[
				0.6314642429351807,
				0.7825189232826233,
				2.7985061024082825e-06
			],
			"min":[
				-0.6314641833305359,
				-0.7825193405151367,
				-2.7985065571556333e-06
			],
			"type":"VEC3"
		},
		{
			"bufferView":40,
			"componentType":5126,
			"count":4,
			"type":"VEC3"
		},
		{
			"bufferView":41,
			"componentType":5126,
			"count":4,
			"type":"VEC2"
		},
		{
			"bufferView":42,
			"componentType":5126,
			"count":4,
			"max":[
				0.6314642429351807,
				0.7825189232826233,
				2.7985061024082825e-06
			],
			"min":[
				-0.6314641833305359,
				-0.7825193405151367,
				-2.7985065571556333e-06
			],
			"type":"VEC3"
		},
		{
			"bufferView":43,
			"componentType":5126,
			"count":4,
			"type":"VEC3"
		},
		{
			"bufferView":44,
			"componentType":5126,
			"count":4,
			"type":"VEC2"
		},
		{
			"bufferView":45,
			"componentType":5126,
			"count":4,
			"max":[
				0.7584681510925293,
				0.884809136390686,
				3.1643244255974423e-06
			],
			"min":[
				-0.7584681510925293,
				-0.8848092555999756,
				-3.164324198223767e-06
			],
			"type":"VEC3"
		},
		{
			"bufferView":46,
			"componentType":5126,
			"count":4,
			"type":"VEC3"
		},
		{
			"bufferView":47,
			"componentType":5126,
			"count":4,
			"type":"VEC2"
		},
		{
			"bufferView":48,
			"componentType":5126,
			"count":4,
			"max":[
				0.6314642429351807,
				0.7825189232826233,
				2.7985061024082825e-06
			],
			"min":[
				-0.6314641833305359,
				-0.7825193405151367,
				-2.7985065571556333e-06
			],
			"type":"VEC3"
		},
		{
			"bufferView":49,
			"componentType":5126,
			"count":4,
			"type":"VEC3"
		},
		{
			"bufferView":50,
			"componentType":5126,
			"count":4,
			"type":"VEC2"
		},
		{
			"bufferView":51,
			"componentType":5126,
			"count":4,
			"max":[
				0.6314642429351807,
				0.7825189232826233,
				2.7985061024082825e-06
			],
			"min":[
				-0.6314641833305359,
				-0.7825193405151367,
				-2.7985065571556333e-06
			],
			"type":"VEC3"
		},
		{
			"bufferView":52,
			"componentType":5126,
			"count":4,
			"type":"VEC3"
		},
		{
			"bufferView":53,
			"componentType":5126,
			"count":4,
			"type":"VEC2"
		},
		{
			"bufferView":54,
			"componentType":5126,
			"count":4,
			"max":[
				4,
				2,
				0
			],
			"min":[
				5.960464477539063e-08,
				0,
				0
			],
			"type":"VEC3"
		},
		{
			"bufferView":55,
			"componentType":5126,
			"count":4,
			"type":"VEC3"
		},
		{
			"bufferView":56,
			"componentType":5126,
			"count":4,
			"type":"VEC2"
		}
	],
	"bufferViews":[
		{
			"buffer":0,
			"byteLength":48,
			"byteOffset":0,
			"target":34962
		},
		{
			"buffer":0,
			"byteLength":48,
			"byteOffset":48,
			"target":34962
		},
		{
			"buffer":0,
			"byteLength":32,
			"byteOffset":96,
			"target":34962
		},
		{
			"buffer":0,
			"byteLength":12,
			"byteOffset":128,
			"target":34963
		},
		{
			"buffer":0,
			"byteLength":48,
			"byteOffset":140,
			"target":34962
		},
		{
			"buffer":0,
			"byteLength":48,
			"byteOffset":188,
			"target":34962
		},
		{
			"buffer":0,
			"byteLength":32,
			"byteOffset":236,
			"target":34962
		},
		{
			"buffer":0,
			"byteLength":12,
			"byteOffset":268,
			"target":34963
		},
		{
			"buffer":0,
			"byteLength":48,
			"byteOffset":280,
			"target":34962
		},
		{
			"buffer":0,
			"byteLength":48,
			"byteOffset":328,
			"target":34962
		},
		{
			"buffer":0,
			"byteLength":32,
			"byteOffset":376,
			"target":34962
		},
		{
			"buffer":0,
			"byteLength":12,
			"byteOffset":408,
			"target":34963
		},
		{
			"buffer":0,
			"byteLength":48,
			"byteOffset":420,
			"target":34962
		},
		{
			"buffer":0,
			"byteLength":48,
			"byteOffset":468,
			"target":34962
		},
		{
			"buffer":0,
			"byteLength":32,
			"byteOffset":516,
			"target":34962
		},
		{
			"buffer":0,
			"byteLength":12,
			"byteOffset":548,
			"target":34963
		},
		{
			"buffer":0,
			"byteLength":48,
			"byteOffset":560,
			"target":34962
		},
		{
			"buffer":0,
			"byteLength":48,
			"byteOffset":608,
			"target":34962
		},
		{
			"buffer":0,
			"byteLength":32,
			"byteOffset":656,
			"target":34962
		},
		{
			"buffer":0,
			"byteLength":12,
			"byteOffset":688,
			"target":34963
		},
		{
			"buffer":0,
			"byteLength":48,
			"byteOffset":700,
			"target":34962
		},
		{
			"buffer":0,
			"byteLength":48,
			"byteOffset":748,
			"target":34962
		},
		{
			"buffer":0,
			"byteLength":32,
			"byteOffset":796,
			"target":34962
		},
		{
			"buffer":0,
			"byteLength":48,
			"byteOffset":828,
			"target":34962
		},
		{
			"buffer":0,
			"byteLength":48,
			"byteOffset":876,
			"target":34962
		},
		{
			"buffer":0,
			"byteLength":32,
			"byteOffset":924,
			"target":34962
		},
		{
			"buffer":0,
			"byteLength":12,
			"byteOffset":956,
			"target":34963
		},
		{
			"buffer":0,
			"byteLength":48,
			"byteOffset":968,
			"target":34962
		},
		{
			"buffer":0,
			"byteLength":48,
			"byteOffset":1016,
			"target":34962
		},
		{
			"buffer":0,
			"byteLength":32,
			"byteOffset":1064,
			"target":34962
		},
		{
			"buffer":0,
			"byteLength":48,
			"byteOffset":1096,
			"target":34962
		},
		{
			"buffer":0,
			"byteLength":48,
			"byteOffset":1144,
			"target":34962
		},
		{
			"buffer":0,
			"byteLength":32,
			"byteOffset":1192,
			"target":34962
		},
		{
			"buffer":0,
			"byteLength":48,
			"byteOffset":1224,
			"target":34962
		},
		{
			"buffer":0,
			"byteLength":48,
			"byteOffset":1272,
			"target":34962
		},
		{
			"buffer":0,
			"byteLength":32,
			"byteOffset":1320,
			"target":34962
		},
		{
			"buffer":0,
			"byteLength":48,
			"byteOffset":1352,
			"target":34962
		},
		{
			"buffer":0,
			"byteLength":48,
			"byteOffset":1400,
			"target":34962
		},
		{
			"buffer":0,
			"byteLength":32,
			"byteOffset":1448,
			"target":34962
		},
		{
			"buffer":0,
			"byteLength":48,
			"byteOffset":1480,
			"target":34962
		},
		{
			"buffer":0,
			"byteLength":48,
			"byteOffset":1528,
			"target":34962
		},
		{
			"buffer":0,
			"byteLength":32,
			"byteOffset":1576,
			"target":34962
		},
		{
			"buffer":0,
			"byteLength":48,
			"byteOffset":1608,
			"target":34962
		},
		{
			"buffer":0,
			"byteLength":48,
			"byteOffset":1656,
			"target":34962
		},
		{
			"buffer":0,
			"byteLength":32,
			"byteOffset":1704,
			"target":34962
		},
		{
			"buffer":0,
			"byteLength":48,
			"byteOffset":1736,
			"target":34962
		},
		{
			"buffer":0,
			"byteLength":48,
			"byteOffset":1784,
			"target":34962
		},
		{
			"buffer":0,
			"byteLength":32,
			"byteOffset":1832,
			"target":34962
		},
		{
			"buffer":0,
			"byteLength":48,
			"byteOffset":1864,
			"target":34962
		},
		{
			"buffer":0,
			"byteLength":48,
			"byteOffset":1912,
			"target":34962
		},
		{
			"buffer":0,
			"byteLength":32,
			"byteOffset":1960,
			"target":34962
		},
		{
			"buffer":0,
			"byteLength":48,
			"byteOffset":1992,
			"target":34962
		},
		{
			"buffer":0,
			"byteLength":48,
			"byteOffset":2040,
			"target":34962
		},
		{
			"buffer":0,
			"byteLength":32,
			"byteOffset":2088,
			"target":34962
		},
		{
			"buffer":0,
			"byteLength":48,
			"byteOffset":2120,
			"target":34962
		},
		{
			"buffer":0,
			"byteLength":48,
			"byteOffset":2168,
			"target":34962
		},
		{
			"buffer":0,
			"byteLength":32,
			"byteOffset":2216,
			"target":34962
		}
	],
	"samplers":[
		{
			"magFilter":9728,
			"minFilter":9984
		}
	],
	"buffers":[
		{
			"byteLength":2248,
			"uri":"graveyard.bin"
		}
	]
}
