{
	"asset":{
		"generator":"Khronos glTF Blender I/O v3.5.30",
		"version":"2.0"
	},
	"scene":0,
	"scenes":[
		{
			"name":"Scene",
			"nodes":[
				2
			]
		}
	],
	"nodes":[
		{
			"name":"Bone"
		},
		{
			"mesh":0,
			"name":"Helmet",
			"skin":0
		},
		{
			"children":[
				1,
				0
			],
			"name":"Armature"
		}
	],
	"animations":[
		{
			"channels":[
				{
					"sampler":0,
					"target":{
						"node":0,
						"path":"translation"
					}
				},
				{
					"sampler":1,
					"target":{
						"node":0,
						"path":"rotation"
					}
				},
				{
					"sampler":2,
					"target":{
						"node":0,
						"path":"scale"
					}
				}
			],
			"name":"default",
			"samplers":[
				{
					"input":7,
					"interpolation":"LINEAR",
					"output":8
				},
				{
					"input":7,
					"interpolation":"LINEAR",
					"output":9
				},
				{
					"input":7,
					"interpolation":"LINEAR",
					"output":10
				}
			]
		},
		{
			"channels":[
				{
					"sampler":0,
					"target":{
						"node":0,
						"path":"translation"
					}
				},
				{
					"sampler":1,
					"target":{
						"node":0,
						"path":"rotation"
					}
				},
				{
					"sampler":2,
					"target":{
						"node":0,
						"path":"scale"
					}
				}
			],
			"name":"stagger_short",
			"samplers":[
				{
					"input":11,
					"interpolation":"LINEAR",
					"output":12
				},
				{
					"input":11,
					"interpolation":"LINEAR",
					"output":13
				},
				{
					"input":11,
					"interpolation":"LINEAR",
					"output":14
				}
			]
		}
	],
	"materials":[
		{
			"doubleSided":true,
			"name":"Material",
			"normalTexture":{
				"index":0
			},
			"pbrMetallicRoughness":{
				"baseColorTexture":{
					"index":1
				},
				"metallicRoughnessTexture":{
					"index":2
				}
			}
		}
	],
	"meshes":[
		{
			"name":"Sphere.001",
			"primitives":[
				{
					"attributes":{
						"POSITION":0,
						"TEXCOORD_0":1,
						"NORMAL":2,
						"JOINTS_0":3,
						"WEIGHTS_0":4
					},
					"indices":5,
					"material":0
				}
			]
		}
	],
	"textures":[
		{
			"sampler":0,
			"source":0
		},
		{
			"sampler":0,
			"source":1
		},
		{
			"sampler":0,
			"source":2
		}
	],
	"images":[
		{
			"mimeType":"image/png",
			"name":"DefaultMaterial_normal.png",
			"uri":"textures/DefaultMaterial_normal.png"
		},
		{
			"mimeType":"image/png",
			"name":"DefaultMaterial_baseColor.png",
			"uri":"textures/DefaultMaterial_baseColor.png"
		},
		{
			"mimeType":"image/png",
			"name":"DefaultMaterial_occlusionRoughnessMetallic.png",
			"uri":"textures/DefaultMaterial_occlusionRoughnessMetallic.png"
		}
	],
	"skins":[
		{
			"inverseBindMatrices":6,
			"joints":[
				0
			],
			"name":"Armature"
		}
	],
	"accessors":[
		{
			"bufferView":0,
			"componentType":5126,
			"count":1751,
			"max":[
				0.354808509349823,
				1.8315703868865967,
				0.21137398481369019
			],
			"min":[
				-0.354808509349823,
				-0.004095554351806641,
				-0.21137398481369019
			],
			"type":"VEC3"
		},
		{
			"bufferView":1,
			"componentType":5126,
			"count":1751,
			"type":"VEC2"
		},
		{
			"bufferView":2,
			"componentType":5126,
			"count":1751,
			"type":"VEC3"
		},
		{
			"bufferView":3,
			"componentType":5121,
			"count":1751,
			"type":"VEC4"
		},
		{
			"bufferView":4,
			"componentType":5126,
			"count":1751,
			"type":"VEC4"
		},
		{
			"bufferView":5,
			"componentType":5123,
			"count":8190,
			"type":"SCALAR"
		},
		{
			"bufferView":6,
			"componentType":5126,
			"count":1,
			"type":"MAT4"
		},
		{
			"bufferView":7,
			"componentType":5126,
			"count":1,
			"max":[
				0.041666666666666664
			],
			"min":[
				0.041666666666666664
			],
			"type":"SCALAR"
		},
		{
			"bufferView":8,
			"componentType":5126,
			"count":1,
			"type":"VEC3"
		},
		{
			"bufferView":9,
			"componentType":5126,
			"count":1,
			"type":"VEC4"
		},
		{
			"bufferView":10,
			"componentType":5126,
			"count":1,
			"type":"VEC3"
		},
		{
			"bufferView":11,
			"componentType":5126,
			"count":24,
			"max":[
				1
			],
			"min":[
				0.041666666666666664
			],
			"type":"SCALAR"
		},
		{
			"bufferView":12,
			"componentType":5126,
			"count":24,
			"type":"VEC3"
		},
		{
			"bufferView":13,
			"componentType":5126,
			"count":24,
			"type":"VEC4"
		},
		{
			"bufferView":14,
			"componentType":5126,
			"count":24,
			"type":"VEC3"
		}
	],
	"bufferViews":[
		{
			"buffer":0,
			"byteLength":21012,
			"byteOffset":0,
			"target":34962
		},
		{
			"buffer":0,
			"byteLength":14008,
			"byteOffset":21012,
			"target":34962
		},
		{
			"buffer":0,
			"byteLength":21012,
			"byteOffset":35020,
			"target":34962
		},
		{
			"buffer":0,
			"byteLength":7004,
			"byteOffset":56032,
			"target":34962
		},
		{
			"buffer":0,
			"byteLength":28016,
			"byteOffset":63036,
			"target":34962
		},
		{
			"buffer":0,
			"byteLength":16380,
			"byteOffset":91052,
			"target":34963
		},
		{
			"buffer":0,
			"byteLength":64,
			"byteOffset":107432
		},
		{
			"buffer":0,
			"byteLength":4,
			"byteOffset":107496
		},
		{
			"buffer":0,
			"byteLength":12,
			"byteOffset":107500
		},
		{
			"buffer":0,
			"byteLength":16,
			"byteOffset":107512
		},
		{
			"buffer":0,
			"byteLength":12,
			"byteOffset":107528
		},
		{
			"buffer":0,
			"byteLength":96,
			"byteOffset":107540
		},
		{
			"buffer":0,
			"byteLength":288,
			"byteOffset":107636
		},
		{
			"buffer":0,
			"byteLength":384,
			"byteOffset":107924
		},
		{
			"buffer":0,
			"byteLength":288,
			"byteOffset":108308
		}
	],
	"samplers":[
		{
			"magFilter":9729,
			"minFilter":9987
		}
	],
	"buffers":[
		{
			"byteLength":108596,
			"uri":"dummy.bin"
		}
	]
}
