{
  "accessors": [
    {
      "bufferView": 0,
      "componentType": 5125,
      "count": 17094,
      "type": "SCALAR"
    },
    {
      "bufferView": 1,
      "componentType": 5126,
      "count": 4151,
      "max": [
        0.554552793502808,
        0.819953918457031,
        0.389892101287842
      ],
      "min": [
        -0.55455756187439,
        -0.0030149519443512,
        -0.361341685056686
      ],
      "type": "VEC3"
    },
    {
      "bufferView": 2,
      "componentType": 5126,
      "count": 4151,
      "type": "VEC3"
    },
    {
      "bufferView": 3,
      "componentType": 5126,
      "count": 4151,
      "type": "VEC4"
    },
    {
      "bufferView": 4,
      "componentType": 5126,
      "count": 4151,
      "type": "VEC2"
    }
  ],
  "asset": {
    "generator": "Adobe Substance 3D Painter 8.1.3",
    "version": "2.0"
  },
  "bufferViews": [
    {
      "buffer": 0,
      "byteLength": 68376,
      "target": 34963
    },
    {
      "buffer": 0,
      "byteLength": 49812,
      "byteOffset": 68376,
      "target": 34962
    },
    {
      "buffer": 0,
      "byteLength": 49812,
      "byteOffset": 118188,
      "target": 34962
    },
    {
      "buffer": 0,
      "byteLength": 66416,
      "byteOffset": 168000,
      "target": 34962
    },
    {
      "buffer": 0,
      "byteLength": 33208,
      "byteOffset": 234416,
      "target": 34962
    }
  ],
  "buffers": [
    {
      "byteLength": 267624,
      "uri": "chest.bin"
    }
  ],
  "images": [
    {
      "uri": "Material.002_baseColor.png"
    },
    {
      "uri": "Material.002_occlusionRoughnessMetallic.png"
    },
    {
      "uri": "Material.002_normal.png"
    },
    {
      "uri": "Material.002_emissive.png"
    }
  ],
  "materials": [
    {
      "alphaMode": "BLEND",
      "emissiveFactor": [
        1.0,
        1.0,
        1.0
      ],
      "emissiveTexture": {
        "index": 3
      },
      "name": "Material.002",
      "normalTexture": {
        "index": 2
      },
      "occlusionTexture": {
        "index": 1
      },
      "pbrMetallicRoughness": {
        "baseColorTexture": {
          "index": 0
        },
        "metallicRoughnessTexture": {
          "index": 1
        }
      }
    }
  ],
  "meshes": [
    {
      "name": "Cube.001",
      "primitives": [
        {
          "attributes": {
            "NORMAL": 2,
            "POSITION": 1,
            "TANGENT": 3,
            "TEXCOORD_0": 4
          },
          "indices": 0,
          "material": 0,
          "mode": 4
        }
      ]
    }
  ],
  "nodes": [
    {
      "children": [
        1,
        3
      ],
      "name": "Armature"
    },
    {
      "children": [
        2
      ],
      "name": "Cube.001"
    },
    {
      "mesh": 0,
      "name": "Cube.001"
    },
    {
      "name": "Chest_Body",
      "rotation": [
        -0.294351488351822,
        0.0,
        0.0,
        0.955697238445282
      ]
    }
  ],
  "samplers": [
    {
      "magFilter": 9729,
      "minFilter": 9985,
      "wrapS": 10497,
      "wrapT": 10497
    }
  ],
  "scene": 0,
  "scenes": [
    {
      "name": "Scene",
      "nodes": [
        0
      ]
    }
  ],
  "textures": [
    {
      "sampler": 0,
      "source": 0
    },
    {
      "sampler": 0,
      "source": 1
    },
    {
      "sampler": 0,
      "source": 2
    },
    {
      "sampler": 0,
      "source": 3
    }
  ]
}