{
	"asset":{
		"generator":"Khronos glTF Blender I/O v3.6.27",
		"version":"2.0"
	},
	"scene":0,
	"scenes":[
		{
			"name":"Scene",
			"nodes":[
				0
			]
		}
	],
	"nodes":[
		{
			"mesh":0,
			"name":"Cylinder.001"
		}
	],
	"materials":[
		{
			"doubleSided":true,
			"name":"Material.001",
			"normalTexture":{
				"index":0
			},
			"pbrMetallicRoughness":{
				"baseColorTexture":{
					"index":1
				},
				"metallicRoughnessTexture":{
					"index":2
				}
			}
		}
	],
	"meshes":[
		{
			"name":"Cylinder.001",
			"primitives":[
				{
					"attributes":{
						"POSITION":0,
						"NORMAL":1,
						"TEXCOORD_0":2
					},
					"indices":3,
					"material":0
				}
			]
		}
	],
	"textures":[
		{
			"sampler":0,
			"source":0
		},
		{
			"sampler":0,
			"source":1
		},
		{
			"sampler":0,
			"source":2
		}
	],
	"images":[
		{
			"mimeType":"image/png",
			"name":"dagger_normal.png.001",
			"uri":"textures/dagger_normal.png"
		},
		{
			"mimeType":"image/png",
			"name":"dagger_diffuse.png.001",
			"uri":"textures/dagger_diffuse.png"
		},
		{
			"mimeType":"image/png",
			"name":"dagger_occlusionRoughnessMetallic.png.001",
			"uri":"textures/dagger_occlusionRoughnessMetallic.png"
		}
	],
	"accessors":[
		{
			"bufferView":0,
			"componentType":5126,
			"count":3969,
			"max":[
				0.012519152835011482,
				0.3895092308521271,
				0.07678370922803879
			],
			"min":[
				-0.012519155628979206,
				-0.11746948957443237,
				-0.07678370922803879
			],
			"type":"VEC3"
		},
		{
			"bufferView":1,
			"componentType":5126,
			"count":3969,
			"type":"VEC3"
		},
		{
			"bufferView":2,
			"componentType":5126,
			"count":3969,
			"type":"VEC2"
		},
		{
			"bufferView":3,
			"componentType":5123,
			"count":16182,
			"type":"SCALAR"
		}
	],
	"bufferViews":[
		{
			"buffer":0,
			"byteLength":47628,
			"byteOffset":0,
			"target":34962
		},
		{
			"buffer":0,
			"byteLength":47628,
			"byteOffset":47628,
			"target":34962
		},
		{
			"buffer":0,
			"byteLength":31752,
			"byteOffset":95256,
			"target":34962
		},
		{
			"buffer":0,
			"byteLength":32364,
			"byteOffset":127008,
			"target":34963
		}
	],
	"samplers":[
		{
			"magFilter":9729,
			"minFilter":9987
		}
	],
	"buffers":[
		{
			"byteLength":159372,
			"uri":"dagger.bin"
		}
	]
}
