{
	"asset":{
		"generator":"Khronos glTF Blender I/O v3.6.27",
		"version":"2.0"
	},
	"scene":0,
	"scenes":[
		{
			"name":"Scene",
			"nodes":[
				0
			]
		}
	],
	"nodes":[
		{
			"mesh":0,
			"name":"Cylinder.002"
		}
	],
	"materials":[
		{
			"doubleSided":true,
			"name":"Material.003",
			"pbrMetallicRoughness":{
				"baseColorFactor":[
					0.2422812283039093,
					0.2422812283039093,
					0.2422812283039093,
					1
				],
				"roughnessFactor":0.13779526948928833
			}
		},
		{
			"doubleSided":true,
			"name":"Material.004",
			"pbrMetallicRoughness":{
				"baseColorFactor":[
					0.18116427958011627,
					0.09084172546863556,
					0.033104777336120605,
					1
				],
				"metallicFactor":0
			}
		}
	],
	"meshes":[
		{
			"name":"Cylinder.002",
			"primitives":[
				{
					"attributes":{
						"POSITION":0,
						"NORMAL":1,
						"TEXCOORD_0":2
					},
					"indices":3,
					"material":0
				},
				{
					"attributes":{
						"POSITION":4,
						"NORMAL":5,
						"TEXCOORD_0":6
					},
					"indices":7,
					"material":1
				}
			]
		}
	],
	"accessors":[
		{
			"bufferView":0,
			"componentType":5126,
			"count":795,
			"max":[
				0.012124460190534592,
				0.3895092010498047,
				0.0767926573753357
			],
			"min":[
				-0.012142297811806202,
				-0.11746947467327118,
				-0.07677476108074188
			],
			"type":"VEC3"
		},
		{
			"bufferView":1,
			"componentType":5126,
			"count":795,
			"type":"VEC3"
		},
		{
			"bufferView":2,
			"componentType":5126,
			"count":795,
			"type":"VEC2"
		},
		{
			"bufferView":3,
			"componentType":5123,
			"count":1959,
			"type":"SCALAR"
		},
		{
			"bufferView":4,
			"componentType":5126,
			"count":300,
			"max":[
				0.010400363244116306,
				0.04083964228630066,
				0.015061162412166595
			],
			"min":[
				-0.010418232530355453,
				-0.041451044380664825,
				-0.015043266117572784
			],
			"type":"VEC3"
		},
		{
			"bufferView":5,
			"componentType":5126,
			"count":300,
			"type":"VEC3"
		},
		{
			"bufferView":6,
			"componentType":5126,
			"count":300,
			"type":"VEC2"
		},
		{
			"bufferView":7,
			"componentType":5123,
			"count":576,
			"type":"SCALAR"
		}
	],
	"bufferViews":[
		{
			"buffer":0,
			"byteLength":9540,
			"byteOffset":0,
			"target":34962
		},
		{
			"buffer":0,
			"byteLength":9540,
			"byteOffset":9540,
			"target":34962
		},
		{
			"buffer":0,
			"byteLength":6360,
			"byteOffset":19080,
			"target":34962
		},
		{
			"buffer":0,
			"byteLength":3918,
			"byteOffset":25440,
			"target":34963
		},
		{
			"buffer":0,
			"byteLength":3600,
			"byteOffset":29360,
			"target":34962
		},
		{
			"buffer":0,
			"byteLength":3600,
			"byteOffset":32960,
			"target":34962
		},
		{
			"buffer":0,
			"byteLength":2400,
			"byteOffset":36560,
			"target":34962
		},
		{
			"buffer":0,
			"byteLength":1152,
			"byteOffset":38960,
			"target":34963
		}
	],
	"buffers":[
		{
			"byteLength":40112,
			"uri":"dagger.bin"
		}
	]
}
