{
	"asset":{
		"generator":"Khronos glTF Blender I/O v3.6.27",
		"version":"2.0"
	},
	"scene":0,
	"scenes":[
		{
			"name":"Scene",
			"nodes":[
				0,
				1,
				2,
				3,
				4,
				5,
				6,
				7,
				8
			]
		}
	],
	"nodes":[
		{
			"mesh":0,
			"name":"Plane.005",
			"scale":[
				25.157747268676758,
				25.157747268676758,
				25.157747268676758
			],
			"translation":[
				78.41157531738281,
				12.174674987792969,
				-241.5774688720703
			]
		},
		{
			"mesh":1,
			"name":"Plane.001",
			"scale":[
				1.0068917274475098,
				1.0068917274475098,
				1.0068917274475098
			],
			"translation":[
				60.55682373046875,
				10.607473373413086,
				-0.06891748309135437
			]
		},
		{
			"mesh":2,
			"name":"tilemap",
			"translation":[
				20,
				11.25,
				0.14292645454406738
			]
		},
		{
			"mesh":3,
			"name":"Plane.002",
			"scale":[
				4.087744235992432,
				4.087744235992432,
				4.087744235992432
			],
			"translation":[
				80.2315673828125,
				9.373897552490234,
				-30.87744140625
			]
		},
		{
			"mesh":4,
			"name":"Plane.006",
			"scale":[
				15.173063278198242,
				15.173063278198242,
				15.173063278198242
			],
			"translation":[
				-148.7198944091797,
				-88.18131256103516,
				-141.7306365966797
			]
		},
		{
			"mesh":5,
			"name":"Plane.007",
			"scale":[
				17.17306137084961,
				17.17306137084961,
				17.17306137084961
			],
			"translation":[
				254.59909057617188,
				-90.72966766357422,
				-161.73062133789062
			]
		},
		{
			"mesh":6,
			"name":"Plane.004",
			"scale":[
				8.000000953674316,
				8.000000953674316,
				8.000000953674316
			],
			"translation":[
				51.757076263427734,
				-22.26806640625,
				-70.00000762939453
			]
		},
		{
			"mesh":7,
			"name":"Plane.008",
			"scale":[
				8.459074974060059,
				8.459074974060059,
				8.459074974060059
			],
			"translation":[
				139.05526733398438,
				-25.104591369628906,
				-74.59075164794922
			]
		},
		{
			"mesh":8,
			"name":"Plane.009",
			"scale":[
				9.66479778289795,
				9.66479778289795,
				9.66479778289795
			],
			"translation":[
				98.56880950927734,
				-24.006820678710938,
				-86.64797973632812
			]
		}
	],
	"materials":[
		{
			"alphaCutoff":0,
			"alphaMode":"MASK",
			"doubleSided":true,
			"name":"Material",
			"pbrMetallicRoughness":{
				"baseColorTexture":{
					"index":0
				},
				"metallicFactor":0
			}
		},
		{
			"alphaCutoff":0.5,
			"alphaMode":"MASK",
			"doubleSided":true,
			"name":"Material.001",
			"pbrMetallicRoughness":{
				"baseColorTexture":{
					"index":1
				},
				"metallicFactor":0,
				"roughnessFactor":0.5
			}
		},
		{
			"alphaCutoff":0.5,
			"alphaMode":"MASK",
			"doubleSided":true,
			"name":"Material.002",
			"pbrMetallicRoughness":{
				"baseColorTexture":{
					"index":2
				},
				"metallicFactor":0,
				"roughnessFactor":0.5
			}
		},
		{
			"alphaCutoff":0.5,
			"alphaMode":"MASK",
			"doubleSided":true,
			"name":"Material.003",
			"pbrMetallicRoughness":{
				"baseColorTexture":{
					"index":3
				},
				"metallicFactor":0,
				"roughnessFactor":0.5
			}
		},
		{
			"alphaCutoff":0.5,
			"alphaMode":"MASK",
			"doubleSided":true,
			"name":"Material.006",
			"pbrMetallicRoughness":{
				"baseColorTexture":{
					"index":4
				},
				"metallicFactor":0,
				"roughnessFactor":0.5
			}
		}
	],
	"meshes":[
		{
			"name":"Plane",
			"primitives":[
				{
					"attributes":{
						"POSITION":0,
						"NORMAL":1,
						"TEXCOORD_0":2
					},
					"indices":3,
					"material":0
				}
			]
		},
		{
			"name":"Plane.001",
			"primitives":[
				{
					"attributes":{
						"POSITION":4,
						"NORMAL":5,
						"TEXCOORD_0":6
					},
					"indices":3,
					"material":1
				}
			]
		},
		{
			"name":"Plane.002",
			"primitives":[
				{
					"attributes":{
						"POSITION":7,
						"NORMAL":8,
						"TEXCOORD_0":9
					},
					"indices":3,
					"material":2
				}
			]
		},
		{
			"name":"Plane.004",
			"primitives":[
				{
					"attributes":{
						"POSITION":10,
						"NORMAL":11,
						"TEXCOORD_0":12
					},
					"indices":3,
					"material":3
				}
			]
		},
		{
			"name":"Plane.003",
			"primitives":[
				{
					"attributes":{
						"POSITION":13,
						"NORMAL":14,
						"TEXCOORD_0":15
					},
					"indices":16,
					"material":4
				}
			]
		},
		{
			"name":"Plane.007",
			"primitives":[
				{
					"attributes":{
						"POSITION":17,
						"NORMAL":18,
						"TEXCOORD_0":19
					},
					"indices":16,
					"material":4
				}
			]
		},
		{
			"name":"Plane.008",
			"primitives":[
				{
					"attributes":{
						"POSITION":20,
						"NORMAL":21,
						"TEXCOORD_0":22
					},
					"indices":23,
					"material":4
				}
			]
		},
		{
			"name":"Plane.009",
			"primitives":[
				{
					"attributes":{
						"POSITION":24,
						"NORMAL":25,
						"TEXCOORD_0":26
					},
					"indices":23,
					"material":4
				}
			]
		},
		{
			"name":"Plane.010",
			"primitives":[
				{
					"attributes":{
						"POSITION":27,
						"NORMAL":28,
						"TEXCOORD_0":29
					},
					"indices":23,
					"material":4
				}
			]
		}
	],
	"textures":[
		{
			"sampler":0,
			"source":0
		},
		{
			"sampler":0,
			"source":1
		},
		{
			"sampler":0,
			"source":2
		},
		{
			"sampler":0,
			"source":3
		},
		{
			"sampler":0,
			"source":4
		}
	],
	"images":[
		{
			"mimeType":"image/png",
			"name":"cliffside_bg.png",
			"uri":"cliffside_bg.png"
		},
		{
			"mimeType":"image/png",
			"name":"cliffside1.png",
			"uri":"cliffside1.png"
		},
		{
			"mimeType":"image/png",
			"name":"cliffside_tilemap.png",
			"uri":"cliffside_tilemap.png"
		},
		{
			"mimeType":"image/png",
			"name":"cliffside2.png",
			"uri":"cliffside2.png"
		},
		{
			"mimeType":"image/png",
			"name":"rocks.png",
			"uri":"rocks.png"
		}
	],
	"accessors":[
		{
			"bufferView":0,
			"componentType":5126,
			"count":4,
			"max":[
				39.999996185302734,
				11.249999046325684,
				5.684341886080802e-14
			],
			"min":[
				-39.999996185302734,
				-11.249999046325684,
				5.684341886080802e-14
			],
			"type":"VEC3"
		},
		{
			"bufferView":1,
			"componentType":5126,
			"count":4,
			"type":"VEC3"
		},
		{
			"bufferView":2,
			"componentType":5126,
			"count":4,
			"type":"VEC2"
		},
		{
			"bufferView":3,
			"componentType":5123,
			"count":6,
			"type":"SCALAR"
		},
		{
			"bufferView":4,
			"componentType":5126,
			"count":4,
			"max":[
				40,
				11.249999046325684,
				0
			],
			"min":[
				-40,
				-11.250000953674316,
				0
			],
			"type":"VEC3"
		},
		{
			"bufferView":5,
			"componentType":5126,
			"count":4,
			"type":"VEC3"
		},
		{
			"bufferView":6,
			"componentType":5126,
			"count":4,
			"type":"VEC2"
		},
		{
			"bufferView":7,
			"componentType":5126,
			"count":4,
			"max":[
				80,
				13.75,
				0
			],
			"min":[
				-20,
				-11.25,
				0
			],
			"type":"VEC3"
		},
		{
			"bufferView":8,
			"componentType":5126,
			"count":4,
			"type":"VEC3"
		},
		{
			"bufferView":9,
			"componentType":5126,
			"count":4,
			"type":"VEC2"
		},
		{
			"bufferView":10,
			"componentType":5126,
			"count":4,
			"max":[
				20,
				11.249999046325684,
				0
			],
			"min":[
				-20,
				-11.250000953674316,
				0
			],
			"type":"VEC3"
		},
		{
			"bufferView":11,
			"componentType":5126,
			"count":4,
			"type":"VEC3"
		},
		{
			"bufferView":12,
			"componentType":5126,
			"count":4,
			"type":"VEC2"
		},
		{
			"bufferView":13,
			"componentType":5126,
			"count":4,
			"max":[
				8,
				8,
				0
			],
			"min":[
				0.005001068115234375,
				0,
				0
			],
			"type":"VEC3"
		},
		{
			"bufferView":14,
			"componentType":5126,
			"count":4,
			"type":"VEC3"
		},
		{
			"bufferView":15,
			"componentType":5126,
			"count":4,
			"type":"VEC2"
		},
		{
			"bufferView":16,
			"componentType":5123,
			"count":6,
			"type":"SCALAR"
		},
		{
			"bufferView":17,
			"componentType":5126,
			"count":4,
			"max":[
				8,
				8,
				0
			],
			"min":[
				0.005001068115234375,
				0,
				0
			],
			"type":"VEC3"
		},
		{
			"bufferView":18,
			"componentType":5126,
			"count":4,
			"type":"VEC3"
		},
		{
			"bufferView":19,
			"componentType":5126,
			"count":4,
			"type":"VEC2"
		},
		{
			"bufferView":20,
			"componentType":5126,
			"count":4,
			"max":[
				1.999997615814209,
				2,
				0
			],
			"min":[
				-1.999997615814209,
				-2,
				0
			],
			"type":"VEC3"
		},
		{
			"bufferView":21,
			"componentType":5126,
			"count":4,
			"type":"VEC3"
		},
		{
			"bufferView":22,
			"componentType":5126,
			"count":4,
			"type":"VEC2"
		},
		{
			"bufferView":23,
			"componentType":5123,
			"count":6,
			"type":"SCALAR"
		},
		{
			"bufferView":24,
			"componentType":5126,
			"count":4,
			"max":[
				1.999997615814209,
				2,
				0
			],
			"min":[
				-1.999997615814209,
				-2,
				0
			],
			"type":"VEC3"
		},
		{
			"bufferView":25,
			"componentType":5126,
			"count":4,
			"type":"VEC3"
		},
		{
			"bufferView":26,
			"componentType":5126,
			"count":4,
			"type":"VEC2"
		},
		{
			"bufferView":27,
			"componentType":5126,
			"count":4,
			"max":[
				1.999997615814209,
				2,
				0
			],
			"min":[
				-1.999997615814209,
				-2,
				0
			],
			"type":"VEC3"
		},
		{
			"bufferView":28,
			"componentType":5126,
			"count":4,
			"type":"VEC3"
		},
		{
			"bufferView":29,
			"componentType":5126,
			"count":4,
			"type":"VEC2"
		}
	],
	"bufferViews":[
		{
			"buffer":0,
			"byteLength":48,
			"byteOffset":0,
			"target":34962
		},
		{
			"buffer":0,
			"byteLength":48,
			"byteOffset":48,
			"target":34962
		},
		{
			"buffer":0,
			"byteLength":32,
			"byteOffset":96,
			"target":34962
		},
		{
			"buffer":0,
			"byteLength":12,
			"byteOffset":128,
			"target":34963
		},
		{
			"buffer":0,
			"byteLength":48,
			"byteOffset":140,
			"target":34962
		},
		{
			"buffer":0,
			"byteLength":48,
			"byteOffset":188,
			"target":34962
		},
		{
			"buffer":0,
			"byteLength":32,
			"byteOffset":236,
			"target":34962
		},
		{
			"buffer":0,
			"byteLength":48,
			"byteOffset":268,
			"target":34962
		},
		{
			"buffer":0,
			"byteLength":48,
			"byteOffset":316,
			"target":34962
		},
		{
			"buffer":0,
			"byteLength":32,
			"byteOffset":364,
			"target":34962
		},
		{
			"buffer":0,
			"byteLength":48,
			"byteOffset":396,
			"target":34962
		},
		{
			"buffer":0,
			"byteLength":48,
			"byteOffset":444,
			"target":34962
		},
		{
			"buffer":0,
			"byteLength":32,
			"byteOffset":492,
			"target":34962
		},
		{
			"buffer":0,
			"byteLength":48,
			"byteOffset":524,
			"target":34962
		},
		{
			"buffer":0,
			"byteLength":48,
			"byteOffset":572,
			"target":34962
		},
		{
			"buffer":0,
			"byteLength":32,
			"byteOffset":620,
			"target":34962
		},
		{
			"buffer":0,
			"byteLength":12,
			"byteOffset":652,
			"target":34963
		},
		{
			"buffer":0,
			"byteLength":48,
			"byteOffset":664,
			"target":34962
		},
		{
			"buffer":0,
			"byteLength":48,
			"byteOffset":712,
			"target":34962
		},
		{
			"buffer":0,
			"byteLength":32,
			"byteOffset":760,
			"target":34962
		},
		{
			"buffer":0,
			"byteLength":48,
			"byteOffset":792,
			"target":34962
		},
		{
			"buffer":0,
			"byteLength":48,
			"byteOffset":840,
			"target":34962
		},
		{
			"buffer":0,
			"byteLength":32,
			"byteOffset":888,
			"target":34962
		},
		{
			"buffer":0,
			"byteLength":12,
			"byteOffset":920,
			"target":34963
		},
		{
			"buffer":0,
			"byteLength":48,
			"byteOffset":932,
			"target":34962
		},
		{
			"buffer":0,
			"byteLength":48,
			"byteOffset":980,
			"target":34962
		},
		{
			"buffer":0,
			"byteLength":32,
			"byteOffset":1028,
			"target":34962
		},
		{
			"buffer":0,
			"byteLength":48,
			"byteOffset":1060,
			"target":34962
		},
		{
			"buffer":0,
			"byteLength":48,
			"byteOffset":1108,
			"target":34962
		},
		{
			"buffer":0,
			"byteLength":32,
			"byteOffset":1156,
			"target":34962
		}
	],
	"samplers":[
		{
			"magFilter":9728,
			"minFilter":9984
		}
	],
	"buffers":[
		{
			"byteLength":1188,
			"uri":"cliffside.bin"
		}
	]
}
