{
	"asset":{
		"generator":"Khronos glTF Blender I/O v3.6.27",
		"version":"2.0"
	},
	"scene":0,
	"scenes":[
		{
			"name":"Scene",
			"nodes":[
				0
			]
		}
	],
	"nodes":[
		{
			"mesh":0,
			"name":"Cube.001",
			"scale":[
				0.8810780048370361,
				0.8810780048370361,
				0.8810780048370361
			]
		}
	],
	"materials":[
		{
			"doubleSided":true,
			"name":"Blade",
			"normalTexture":{
				"index":0
			},
			"pbrMetallicRoughness":{
				"baseColorTexture":{
					"index":1
				},
				"metallicRoughnessTexture":{
					"index":2
				}
			}
		}
	],
	"meshes":[
		{
			"name":"Cube.002",
			"primitives":[
				{
					"attributes":{
						"POSITION":0,
						"NORMAL":1,
						"TEXCOORD_0":2
					},
					"indices":3,
					"material":0
				}
			]
		}
	],
	"textures":[
		{
			"sampler":0,
			"source":0
		},
		{
			"sampler":0,
			"source":1
		},
		{
			"sampler":0,
			"source":2
		}
	],
	"images":[
		{
			"mimeType":"image/png",
			"name":"longsword_normal.png",
			"uri":"material/longsword_normal.png"
		},
		{
			"mimeType":"image/png",
			"name":"longsword_baseColor.png",
			"uri":"material/longsword_baseColor.png"
		},
		{
			"mimeType":"image/png",
			"name":"longsword_occlusionRoughnessMetallic.png",
			"uri":"material/longsword_occlusionRoughnessMetallic.png"
		}
	],
	"accessors":[
		{
			"bufferView":0,
			"componentType":5126,
			"count":1579,
			"max":[
				0.12718625366687775,
				1.1533102989196777,
				0.01605667732656002
			],
			"min":[
				-0.12848494946956635,
				-0.18475015461444855,
				-0.01605667546391487
			],
			"type":"VEC3"
		},
		{
			"bufferView":1,
			"componentType":5126,
			"count":1579,
			"type":"VEC3"
		},
		{
			"bufferView":2,
			"componentType":5126,
			"count":1579,
			"type":"VEC2"
		},
		{
			"bufferView":3,
			"componentType":5123,
			"count":7398,
			"type":"SCALAR"
		}
	],
	"bufferViews":[
		{
			"buffer":0,
			"byteLength":18948,
			"byteOffset":0,
			"target":34962
		},
		{
			"buffer":0,
			"byteLength":18948,
			"byteOffset":18948,
			"target":34962
		},
		{
			"buffer":0,
			"byteLength":12632,
			"byteOffset":37896,
			"target":34962
		},
		{
			"buffer":0,
			"byteLength":14796,
			"byteOffset":50528,
			"target":34963
		}
	],
	"samplers":[
		{
			"magFilter":9729,
			"minFilter":9987
		}
	],
	"buffers":[
		{
			"byteLength":65324,
			"uri":"longsword.bin"
		}
	]
}
