{
	"asset":{
		"generator":"Khronos glTF Blender I/O v3.6.27",
		"version":"2.0"
	},
	"scene":0,
	"scenes":[
		{
			"name":"Scene",
			"nodes":[
				0,
				1
			]
		}
	],
	"nodes":[
		{
			"mesh":0,
			"name":"Plane"
		},
		{
			"mesh":1,
			"name":"___Spikes",
			"translation":[
				-0.9673934578895569,
				0,
				0.9673935174942017
			]
		}
	],
	"materials":[
		{
			"doubleSided":true,
			"name":"Material",
			"pbrMetallicRoughness":{
				"baseColorFactor":[
					0.2202569842338562,
					0.2202569842338562,
					0.2202569842338562,
					1
				],
				"roughnessFactor":0.5
			}
		}
	],
	"meshes":[
		{
			"name":"Plane",
			"primitives":[
				{
					"attributes":{
						"POSITION":0,
						"NORMAL":1,
						"TEXCOORD_0":2
					},
					"indices":3,
					"material":0
				}
			]
		},
		{
			"name":"Cone",
			"primitives":[
				{
					"attributes":{
						"POSITION":4,
						"NORMAL":5,
						"TEXCOORD_0":6
					},
					"indices":7,
					"material":0
				}
			]
		}
	],
	"accessors":[
		{
			"bufferView":0,
			"componentType":5126,
			"count":10554,
			"max":[
				1.2092418670654297,
				0.08464694023132324,
				1.2092418670654297
			],
			"min":[
				-1.2092418670654297,
				0,
				-1.2092418670654297
			],
			"type":"VEC3"
		},
		{
			"bufferView":1,
			"componentType":5126,
			"count":10554,
			"type":"VEC3"
		},
		{
			"bufferView":2,
			"componentType":5126,
			"count":10554,
			"type":"VEC2"
		},
		{
			"bufferView":3,
			"componentType":5123,
			"count":31140,
			"type":"SCALAR"
		},
		{
			"bufferView":4,
			"componentType":5126,
			"count":5265,
			"max":[
				1.995249629020691,
				0.7255452871322632,
				0.0604621060192585
			],
			"min":[
				-0.0604621060192585,
				0,
				-1.995249629020691
			],
			"type":"VEC3"
		},
		{
			"bufferView":5,
			"componentType":5126,
			"count":5265,
			"type":"VEC3"
		},
		{
			"bufferView":6,
			"componentType":5126,
			"count":5265,
			"type":"VEC2"
		},
		{
			"bufferView":7,
			"componentType":5123,
			"count":15066,
			"type":"SCALAR"
		}
	],
	"bufferViews":[
		{
			"buffer":0,
			"byteLength":126648,
			"byteOffset":0,
			"target":34962
		},
		{
			"buffer":0,
			"byteLength":126648,
			"byteOffset":126648,
			"target":34962
		},
		{
			"buffer":0,
			"byteLength":84432,
			"byteOffset":253296,
			"target":34962
		},
		{
			"buffer":0,
			"byteLength":62280,
			"byteOffset":337728,
			"target":34963
		},
		{
			"buffer":0,
			"byteLength":63180,
			"byteOffset":400008,
			"target":34962
		},
		{
			"buffer":0,
			"byteLength":63180,
			"byteOffset":463188,
			"target":34962
		},
		{
			"buffer":0,
			"byteLength":42120,
			"byteOffset":526368,
			"target":34962
		},
		{
			"buffer":0,
			"byteLength":30132,
			"byteOffset":568488,
			"target":34963
		}
	],
	"buffers":[
		{
			"byteLength":598620,
			"uri":"spike_trap.bin"
		}
	]
}
