{
	"asset":{
		"generator":"Khronos glTF Blender I/O v3.5.30",
		"version":"2.0"
	},
	"scene":0,
	"scenes":[
		{
			"name":"Scene",
			"nodes":[
				0,
				1
			]
		}
	],
	"nodes":[
		{
			"mesh":0,
			"name":"Pommel"
		},
		{
			"mesh":1,
			"name":"Grip"
		}
	],
	"materials":[
		{
			"doubleSided":true,
			"name":"Blade",
			"pbrMetallicRoughness":{
				"baseColorFactor":[
					0.800000011920929,
					0.800000011920929,
					0.800000011920929,
					1
				],
				"roughnessFactor":0.238095223903656
			}
		},
		{
			"doubleSided":true,
			"name":"Grip",
			"pbrMetallicRoughness":{
				"baseColorFactor":[
					0.08713914453983307,
					0.043227843940258026,
					0.02593625709414482,
					1
				],
				"metallicFactor":0,
				"roughnessFactor":0.5
			}
		}
	],
	"meshes":[
		{
			"name":"Cylinder",
			"primitives":[
				{
					"attributes":{
						"POSITION":0,
						"TEXCOORD_0":1,
						"NORMAL":2
					},
					"indices":3,
					"material":0
				}
			]
		},
		{
			"name":"Cylinder.003",
			"primitives":[
				{
					"attributes":{
						"POSITION":4,
						"TEXCOORD_0":5,
						"NORMAL":6
					},
					"indices":7,
					"material":1
				}
			]
		}
	],
	"accessors":[
		{
			"bufferView":0,
			"componentType":5126,
			"count":486,
			"max":[
				0.08273695409297943,
				0.6903249621391296,
				0.008728737942874432
			],
			"min":[
				-0.08273696899414062,
				-0.09793807566165924,
				-0.00872873980551958
			],
			"type":"VEC3"
		},
		{
			"bufferView":1,
			"componentType":5126,
			"count":486,
			"type":"VEC2"
		},
		{
			"bufferView":2,
			"componentType":5126,
			"count":486,
			"type":"VEC3"
		},
		{
			"bufferView":3,
			"componentType":5123,
			"count":1314,
			"type":"SCALAR"
		},
		{
			"bufferView":4,
			"componentType":5126,
			"count":184,
			"max":[
				0.009526584297418594,
				0.05396123230457306,
				0.008864105679094791
			],
			"min":[
				-0.009526579640805721,
				-0.06846624612808228,
				-0.008864105679094791
			],
			"type":"VEC3"
		},
		{
			"bufferView":5,
			"componentType":5126,
			"count":184,
			"type":"VEC2"
		},
		{
			"bufferView":6,
			"componentType":5126,
			"count":184,
			"type":"VEC3"
		},
		{
			"bufferView":7,
			"componentType":5123,
			"count":768,
			"type":"SCALAR"
		}
	],
	"bufferViews":[
		{
			"buffer":0,
			"byteLength":5832,
			"byteOffset":0,
			"target":34962
		},
		{
			"buffer":0,
			"byteLength":3888,
			"byteOffset":5832,
			"target":34962
		},
		{
			"buffer":0,
			"byteLength":5832,
			"byteOffset":9720,
			"target":34962
		},
		{
			"buffer":0,
			"byteLength":2628,
			"byteOffset":15552,
			"target":34963
		},
		{
			"buffer":0,
			"byteLength":2208,
			"byteOffset":18180,
			"target":34962
		},
		{
			"buffer":0,
			"byteLength":1472,
			"byteOffset":20388,
			"target":34962
		},
		{
			"buffer":0,
			"byteLength":2208,
			"byteOffset":21860,
			"target":34962
		},
		{
			"buffer":0,
			"byteLength":1536,
			"byteOffset":24068,
			"target":34963
		}
	],
	"buffers":[
		{
			"byteLength":25604,
			"uri":"shortsword.bin"
		}
	]
}
