{
	"asset":{
		"generator":"Khronos glTF Blender I/O v3.6.27",
		"version":"2.0"
	},
	"scene":0,
	"scenes":[
		{
			"name":"Scene",
			"nodes":[
				0
			]
		}
	],
	"nodes":[
		{
			"mesh":0,
			"name":"Cylinder"
		}
	],
	"materials":[
		{
			"doubleSided":true,
			"name":"Material.001",
			"normalTexture":{
				"index":0
			},
			"pbrMetallicRoughness":{
				"baseColorTexture":{
					"index":1
				},
				"metallicRoughnessTexture":{
					"index":2
				}
			}
		}
	],
	"meshes":[
		{
			"name":"Cylinder",
			"primitives":[
				{
					"attributes":{
						"POSITION":0,
						"NORMAL":1,
						"TEXCOORD_0":2
					},
					"indices":3,
					"material":0
				}
			]
		}
	],
	"textures":[
		{
			"sampler":0,
			"source":0
		},
		{
			"sampler":0,
			"source":1
		},
		{
			"sampler":0,
			"source":2
		}
	],
	"images":[
		{
			"mimeType":"image/png",
			"name":"broadsword_normal.png",
			"uri":"broadsword_normal.png"
		},
		{
			"mimeType":"image/png",
			"name":"broadsword_diffuse.png",
			"uri":"broadsword_diffuse.png"
		},
		{
			"mimeType":"image/png",
			"name":"broadsword_occlusionRoughnessMetallic.png",
			"uri":"broadsword_occlusionRoughnessMetallic.png"
		}
	],
	"accessors":[
		{
			"bufferView":0,
			"componentType":5126,
			"count":4118,
			"max":[
				0.08173634856939316,
				0.6622393131256104,
				0.010362900793552399
			],
			"min":[
				-0.08173636347055435,
				-0.12467626482248306,
				-0.010362901724874973
			],
			"type":"VEC3"
		},
		{
			"bufferView":1,
			"componentType":5126,
			"count":4118,
			"type":"VEC3"
		},
		{
			"bufferView":2,
			"componentType":5126,
			"count":4118,
			"type":"VEC2"
		},
		{
			"bufferView":3,
			"componentType":5123,
			"count":17574,
			"type":"SCALAR"
		}
	],
	"bufferViews":[
		{
			"buffer":0,
			"byteLength":49416,
			"byteOffset":0,
			"target":34962
		},
		{
			"buffer":0,
			"byteLength":49416,
			"byteOffset":49416,
			"target":34962
		},
		{
			"buffer":0,
			"byteLength":32944,
			"byteOffset":98832,
			"target":34962
		},
		{
			"buffer":0,
			"byteLength":35148,
			"byteOffset":131776,
			"target":34963
		}
	],
	"samplers":[
		{
			"magFilter":9729,
			"minFilter":9987
		}
	],
	"buffers":[
		{
			"byteLength":166924,
			"uri":"broadsword.bin"
		}
	]
}
