{
	"asset":{
		"generator":"Khronos glTF Blender I/O v3.6.27",
		"version":"2.0"
	},
	"scene":0,
	"scenes":[
		{
			"name":"Scene",
			"nodes":[
				0
			]
		}
	],
	"nodes":[
		{
			"mesh":0,
			"name":"Cube.001"
		}
	],
	"materials":[
		{
			"name":"Material.001",
			"pbrMetallicRoughness":{
				"baseColorFactor":[
					0.110784150660038,
					0.037739161401987076,
					0.16436108946800232,
					1
				],
				"metallicFactor":0
			}
		}
	],
	"meshes":[
		{
			"name":"Mesh",
			"primitives":[
				{
					"attributes":{
						"POSITION":0,
						"NORMAL":1,
						"TEXCOORD_0":2
					},
					"indices":3,
					"material":0
				}
			]
		}
	],
	"accessors":[
		{
			"bufferView":0,
			"componentType":5126,
			"count":706,
			"max":[
				0.4081336259841919,
				0.16399239003658295,
				0.4081336259841919
			],
			"min":[
				-0.40813350677490234,
				-0.07924431562423706,
				-0.40813368558883667
			],
			"type":"VEC3"
		},
		{
			"bufferView":1,
			"componentType":5126,
			"count":706,
			"type":"VEC3"
		},
		{
			"bufferView":2,
			"componentType":5126,
			"count":706,
			"type":"VEC2"
		},
		{
			"bufferView":3,
			"componentType":5123,
			"count":3840,
			"type":"SCALAR"
		}
	],
	"bufferViews":[
		{
			"buffer":0,
			"byteLength":8472,
			"byteOffset":0,
			"target":34962
		},
		{
			"buffer":0,
			"byteLength":8472,
			"byteOffset":8472,
			"target":34962
		},
		{
			"buffer":0,
			"byteLength":5648,
			"byteOffset":16944,
			"target":34962
		},
		{
			"buffer":0,
			"byteLength":7680,
			"byteOffset":22592,
			"target":34963
		}
	],
	"buffers":[
		{
			"byteLength":30272,
			"uri":"wizard_hat.bin"
		}
	]
}
