{
	"asset":{
		"generator":"Khronos glTF Blender I/O v3.6.27",
		"version":"2.0"
	},
	"scene":0,
	"scenes":[
		{
			"name":"Scene",
			"nodes":[
				0
			]
		}
	],
	"nodes":[
		{
			"mesh":0,
			"name":"Cube.001",
			"scale":[
				0.8810780048370361,
				0.8810780048370361,
				0.8810780048370361
			]
		}
	],
	"materials":[
		{
			"doubleSided":true,
			"name":"Material",
			"pbrMetallicRoughness":{
				"baseColorFactor":[
					0.2812045216560364,
					0.2812045216560364,
					0.2812045216560364,
					1
				],
				"roughnessFactor":0.5
			}
		},
		{
			"doubleSided":true,
			"name":"Material.001",
			"pbrMetallicRoughness":{
				"baseColorFactor":[
					0.0919530838727951,
					0.03960232064127922,
					0.02387605607509613,
					1
				],
				"metallicFactor":0
			}
		}
	],
	"meshes":[
		{
			"name":"Cube.002",
			"primitives":[
				{
					"attributes":{
						"POSITION":0,
						"NORMAL":1,
						"TEXCOORD_0":2
					},
					"indices":3,
					"material":0
				},
				{
					"attributes":{
						"POSITION":4,
						"NORMAL":5,
						"TEXCOORD_0":6
					},
					"indices":7,
					"material":1
				}
			]
		}
	],
	"accessors":[
		{
			"bufferView":0,
			"componentType":5126,
			"count":427,
			"max":[
				0.12745214998722076,
				1.1233742237091064,
				0.016042139381170273
			],
			"min":[
				-0.12744586169719696,
				-0.1841423660516739,
				-0.016042137518525124
			],
			"type":"VEC3"
		},
		{
			"bufferView":1,
			"componentType":5126,
			"count":427,
			"type":"VEC3"
		},
		{
			"bufferView":2,
			"componentType":5126,
			"count":427,
			"type":"VEC2"
		},
		{
			"bufferView":3,
			"componentType":5123,
			"count":669,
			"type":"SCALAR"
		},
		{
			"bufferView":4,
			"componentType":5126,
			"count":224,
			"max":[
				0.01613798178732395,
				0.0937434583902359,
				0.011407451704144478
			],
			"min":[
				-0.01613159291446209,
				-0.14559698104858398,
				-0.011407410725951195
			],
			"type":"VEC3"
		},
		{
			"bufferView":5,
			"componentType":5126,
			"count":224,
			"type":"VEC3"
		},
		{
			"bufferView":6,
			"componentType":5126,
			"count":224,
			"type":"VEC2"
		},
		{
			"bufferView":7,
			"componentType":5123,
			"count":336,
			"type":"SCALAR"
		}
	],
	"bufferViews":[
		{
			"buffer":0,
			"byteLength":5124,
			"byteOffset":0,
			"target":34962
		},
		{
			"buffer":0,
			"byteLength":5124,
			"byteOffset":5124,
			"target":34962
		},
		{
			"buffer":0,
			"byteLength":3416,
			"byteOffset":10248,
			"target":34962
		},
		{
			"buffer":0,
			"byteLength":1338,
			"byteOffset":13664,
			"target":34963
		},
		{
			"buffer":0,
			"byteLength":2688,
			"byteOffset":15004,
			"target":34962
		},
		{
			"buffer":0,
			"byteLength":2688,
			"byteOffset":17692,
			"target":34962
		},
		{
			"buffer":0,
			"byteLength":1792,
			"byteOffset":20380,
			"target":34962
		},
		{
			"buffer":0,
			"byteLength":672,
			"byteOffset":22172,
			"target":34963
		}
	],
	"buffers":[
		{
			"byteLength":22844,
			"uri":"longsword.bin"
		}
	]
}
