{
	"asset":{
		"generator":"Khronos glTF Blender I/O v3.6.27",
		"version":"2.0"
	},
	"scene":0,
	"scenes":[
		{
			"name":"Scene",
			"nodes":[
				0
			]
		}
	],
	"nodes":[
		{
			"mesh":0,
			"name":"Circle",
			"rotation":[
				0.7071068286895752,
				0,
				0,
				0.7071068286895752
			],
			"scale":[
				0.25,
				0.25,
				0.25
			]
		}
	],
	"materials":[
		{
			"doubleSided":true,
			"name":"Material",
			"normalTexture":{
				"index":0
			},
			"pbrMetallicRoughness":{
				"baseColorTexture":{
					"index":1
				},
				"metallicRoughnessTexture":{
					"index":2
				}
			}
		}
	],
	"meshes":[
		{
			"name":"Circle",
			"primitives":[
				{
					"attributes":{
						"POSITION":0,
						"NORMAL":1,
						"TEXCOORD_0":2
					},
					"indices":3,
					"material":0
				}
			]
		}
	],
	"textures":[
		{
			"sampler":0,
			"source":0
		},
		{
			"sampler":0,
			"source":1
		},
		{
			"sampler":0,
			"source":2
		}
	],
	"images":[
		{
			"bufferView":4,
			"mimeType":"image/png",
			"name":"wooden_round_shield_normal"
		},
		{
			"bufferView":5,
			"mimeType":"image/png",
			"name":"wooden_round_shield_diffuse"
		},
		{
			"bufferView":6,
			"mimeType":"image/png",
			"name":"wooden_round_shield_occlusionRoughnessMetallic"
		}
	],
	"accessors":[
		{
			"bufferView":0,
			"componentType":5126,
			"count":1021,
			"max":[
				0.7379814982414246,
				0.05208902806043625,
				0.7379814982414246
			],
			"min":[
				-0.7379815578460693,
				-0.2844294011592865,
				-0.7379814982414246
			],
			"type":"VEC3"
		},
		{
			"bufferView":1,
			"componentType":5126,
			"count":1021,
			"type":"VEC3"
		},
		{
			"bufferView":2,
			"componentType":5126,
			"count":1021,
			"type":"VEC2"
		},
		{
			"bufferView":3,
			"componentType":5123,
			"count":4236,
			"type":"SCALAR"
		}
	],
	"bufferViews":[
		{
			"buffer":0,
			"byteLength":12252,
			"byteOffset":0,
			"target":34962
		},
		{
			"buffer":0,
			"byteLength":12252,
			"byteOffset":12252,
			"target":34962
		},
		{
			"buffer":0,
			"byteLength":8168,
			"byteOffset":24504,
			"target":34962
		},
		{
			"buffer":0,
			"byteLength":8472,
			"byteOffset":32672,
			"target":34963
		},
		{
			"buffer":0,
			"byteLength":1074933,
			"byteOffset":41144
		},
		{
			"buffer":0,
			"byteLength":755978,
			"byteOffset":1116080
		},
		{
			"buffer":0,
			"byteLength":520823,
			"byteOffset":1872060
		}
	],
	"samplers":[
		{
			"magFilter":9729,
			"minFilter":9987
		}
	],
	"buffers":[
		{
			"byteLength":2392884,
			"uri":"data:application/octet-stream;base64,"
		}
	]
}
