{
	"asset":{
		"generator":"Khronos glTF Blender I/O v3.6.27",
		"version":"2.0"
	},
	"scene":0,
	"scenes":[
		{
			"name":"Scene",
			"nodes":[
				0
			]
		}
	],
	"nodes":[
		{
			"mesh":0,
			"name":"Cube"
		}
	],
	"materials":[
		{
			"doubleSided":true,
			"name":"Material.001",
			"normalTexture":{
				"index":0
			},
			"pbrMetallicRoughness":{
				"baseColorTexture":{
					"index":1
				},
				"metallicRoughnessTexture":{
					"index":2
				}
			}
		},
		{
			"doubleSided":true,
			"name":"Material",
			"pbrMetallicRoughness":{
				"baseColorFactor":[
					0.3298914134502411,
					0.2219267338514328,
					0.1332339346408844,
					1
				],
				"metallicFactor":0
			}
		}
	],
	"meshes":[
		{
			"name":"Cube.001",
			"primitives":[
				{
					"attributes":{
						"POSITION":0,
						"NORMAL":1,
						"TEXCOORD_0":2
					},
					"indices":3,
					"material":0
				},
				{
					"attributes":{
						"POSITION":4,
						"NORMAL":5,
						"TEXCOORD_0":6
					},
					"indices":7,
					"material":1
				}
			]
		}
	],
	"textures":[
		{
			"sampler":0,
			"source":0
		},
		{
			"sampler":0,
			"source":1
		},
		{
			"sampler":0,
			"source":2
		}
	],
	"images":[
		{
			"mimeType":"image/png",
			"name":"darkwood_staff_normal.png",
			"uri":"material/darkwood_staff_normal.png"
		},
		{
			"mimeType":"image/png",
			"name":"darkwood_staff_diffuse.png",
			"uri":"material/darkwood_staff_diffuse.png"
		},
		{
			"mimeType":"image/png",
			"name":"darkwood_staff_occlusionRoughnessMetallic.png",
			"uri":"material/darkwood_staff_occlusionRoughnessMetallic.png"
		}
	],
	"accessors":[
		{
			"bufferView":0,
			"componentType":5126,
			"count":396,
			"max":[
				0.018826119601726532,
				0.5068545937538147,
				0.01986156404018402
			],
			"min":[
				-0.029102187603712082,
				-0.7717863917350769,
				-0.017949648201465607
			],
			"type":"VEC3"
		},
		{
			"bufferView":1,
			"componentType":5126,
			"count":396,
			"type":"VEC3"
		},
		{
			"bufferView":2,
			"componentType":5126,
			"count":396,
			"type":"VEC2"
		},
		{
			"bufferView":3,
			"componentType":5123,
			"count":2364,
			"type":"SCALAR"
		},
		{
			"bufferView":4,
			"componentType":5126,
			"count":130,
			"max":[
				0.01665930263698101,
				0.07928384840488434,
				0.012355579063296318
			],
			"min":[
				-0.0122488709166646,
				-0.05278366059064865,
				-0.015085380524396896
			],
			"type":"VEC3"
		},
		{
			"bufferView":5,
			"componentType":5126,
			"count":130,
			"type":"VEC3"
		},
		{
			"bufferView":6,
			"componentType":5126,
			"count":130,
			"type":"VEC2"
		},
		{
			"bufferView":7,
			"componentType":5123,
			"count":372,
			"type":"SCALAR"
		}
	],
	"bufferViews":[
		{
			"buffer":0,
			"byteLength":4752,
			"byteOffset":0,
			"target":34962
		},
		{
			"buffer":0,
			"byteLength":4752,
			"byteOffset":4752,
			"target":34962
		},
		{
			"buffer":0,
			"byteLength":3168,
			"byteOffset":9504,
			"target":34962
		},
		{
			"buffer":0,
			"byteLength":4728,
			"byteOffset":12672,
			"target":34963
		},
		{
			"buffer":0,
			"byteLength":1560,
			"byteOffset":17400,
			"target":34962
		},
		{
			"buffer":0,
			"byteLength":1560,
			"byteOffset":18960,
			"target":34962
		},
		{
			"buffer":0,
			"byteLength":1040,
			"byteOffset":20520,
			"target":34962
		},
		{
			"buffer":0,
			"byteLength":744,
			"byteOffset":21560,
			"target":34963
		}
	],
	"samplers":[
		{
			"magFilter":9729,
			"minFilter":9987
		}
	],
	"buffers":[
		{
			"byteLength":22304,
			"uri":"darkwood_staff.bin"
		}
	]
}
