{
	"asset":{
		"generator":"Khronos glTF Blender I/O v3.6.27",
		"version":"2.0"
	},
	"scene":0,
	"scenes":[
		{
			"name":"Scene",
			"nodes":[
				0
			]
		}
	],
	"nodes":[
		{
			"mesh":0,
			"name":"Circle"
		}
	],
	"materials":[
		{
			"doubleSided":true,
			"name":"Material.001",
			"pbrMetallicRoughness":{
				"baseColorFactor":[
					0.21223078668117523,
					0.12743771076202393,
					0.07036010175943375,
					1
				],
				"metallicFactor":0
			}
		},
		{
			"doubleSided":true,
			"name":"Material.002",
			"pbrMetallicRoughness":{
				"baseColorFactor":[
					0.061246056109666824,
					0.03433981165289879,
					0.019382359459996223,
					1
				],
				"metallicFactor":0
			}
		},
		{
			"doubleSided":true,
			"name":"Material.003",
			"pbrMetallicRoughness":{
				"baseColorFactor":[
					0.07227186858654022,
					0.08437623083591461,
					0.09530749171972275,
					1
				],
				"roughnessFactor":0.1746031641960144
			}
		}
	],
	"meshes":[
		{
			"name":"Circle",
			"primitives":[
				{
					"attributes":{
						"POSITION":0,
						"NORMAL":1,
						"TEXCOORD_0":2
					},
					"indices":3,
					"material":0
				},
				{
					"attributes":{
						"POSITION":4,
						"NORMAL":5,
						"TEXCOORD_0":6
					},
					"indices":7,
					"material":1
				},
				{
					"attributes":{
						"POSITION":8,
						"NORMAL":9,
						"TEXCOORD_0":10
					},
					"indices":11,
					"material":2
				}
			]
		}
	],
	"accessors":[
		{
			"bufferView":0,
			"componentType":5126,
			"count":770,
			"max":[
				0.025679409503936768,
				0.174290731549263,
				0.17404915392398834
			],
			"min":[
				-0.00782822072505951,
				-0.174290731549263,
				-0.17453232407569885
			],
			"type":"VEC3"
		},
		{
			"bufferView":1,
			"componentType":5126,
			"count":770,
			"type":"VEC3"
		},
		{
			"bufferView":2,
			"componentType":5126,
			"count":770,
			"type":"VEC2"
		},
		{
			"bufferView":3,
			"componentType":5123,
			"count":2844,
			"type":"SCALAR"
		},
		{
			"bufferView":4,
			"componentType":5126,
			"count":224,
			"max":[
				0.04752092808485031,
				0.11349083483219147,
				0.17132137715816498
			],
			"min":[
				-0.002707104664295912,
				-0.1235114187002182,
				-0.1718045324087143
			],
			"type":"VEC3"
		},
		{
			"bufferView":5,
			"componentType":5126,
			"count":224,
			"type":"VEC3"
		},
		{
			"bufferView":6,
			"componentType":5126,
			"count":224,
			"type":"VEC2"
		},
		{
			"bufferView":7,
			"componentType":5123,
			"count":600,
			"type":"SCALAR"
		},
		{
			"bufferView":8,
			"componentType":5126,
			"count":703,
			"max":[
				0.031212300062179565,
				0.18449535965919495,
				0.18425381183624268
			],
			"min":[
				-0.036608681082725525,
				-0.18449535965919495,
				-0.1847369521856308
			],
			"type":"VEC3"
		},
		{
			"bufferView":9,
			"componentType":5126,
			"count":703,
			"type":"VEC3"
		},
		{
			"bufferView":10,
			"componentType":5126,
			"count":703,
			"type":"VEC2"
		},
		{
			"bufferView":11,
			"componentType":5123,
			"count":2616,
			"type":"SCALAR"
		}
	],
	"bufferViews":[
		{
			"buffer":0,
			"byteLength":9240,
			"byteOffset":0,
			"target":34962
		},
		{
			"buffer":0,
			"byteLength":9240,
			"byteOffset":9240,
			"target":34962
		},
		{
			"buffer":0,
			"byteLength":6160,
			"byteOffset":18480,
			"target":34962
		},
		{
			"buffer":0,
			"byteLength":5688,
			"byteOffset":24640,
			"target":34963
		},
		{
			"buffer":0,
			"byteLength":2688,
			"byteOffset":30328,
			"target":34962
		},
		{
			"buffer":0,
			"byteLength":2688,
			"byteOffset":33016,
			"target":34962
		},
		{
			"buffer":0,
			"byteLength":1792,
			"byteOffset":35704,
			"target":34962
		},
		{
			"buffer":0,
			"byteLength":1200,
			"byteOffset":37496,
			"target":34963
		},
		{
			"buffer":0,
			"byteLength":8436,
			"byteOffset":38696,
			"target":34962
		},
		{
			"buffer":0,
			"byteLength":8436,
			"byteOffset":47132,
			"target":34962
		},
		{
			"buffer":0,
			"byteLength":5624,
			"byteOffset":55568,
			"target":34962
		},
		{
			"buffer":0,
			"byteLength":5232,
			"byteOffset":61192,
			"target":34963
		}
	],
	"buffers":[
		{
			"byteLength":66424,
			"uri":"data:application/octet-stream;base64,"
		}
	]
}
