{
	"asset":{
		"generator":"Khronos glTF Blender I/O v3.6.27",
		"version":"2.0"
	},
	"scene":0,
	"scenes":[
		{
			"name":"Scene",
			"nodes":[
				0,
				1,
				2,
				3,
				4,
				5,
				6
			]
		}
	],
	"nodes":[
		{
			"mesh":0,
			"name":"Walls"
		},
		{
			"mesh":1,
			"name":"Plane",
			"translation":[
				10,
				0,
				10
			]
		},
		{
			"mesh":2,
			"name":"___DoorwayCover0"
		},
		{
			"mesh":3,
			"name":"___DoorwayCover1"
		},
		{
			"mesh":4,
			"name":"___DoorwayCover2"
		},
		{
			"mesh":5,
			"name":"___DoorwayCover3"
		},
		{
			"mesh":6,
			"name":"___DoorwayCover4"
		}
	],
	"materials":[
		{
			"name":"Material",
			"pbrMetallicRoughness":{
				"baseColorFactor":[
					0.800000011920929,
					0.800000011920929,
					0.800000011920929,
					1
				],
				"metallicFactor":0,
				"roughnessFactor":0.5
			}
		}
	],
	"meshes":[
		{
			"name":"Plane.003",
			"primitives":[
				{
					"attributes":{
						"POSITION":0,
						"NORMAL":1,
						"TEXCOORD_0":2
					},
					"indices":3,
					"material":0
				}
			]
		},
		{
			"name":"Plane.004",
			"primitives":[
				{
					"attributes":{
						"POSITION":4,
						"NORMAL":5,
						"TEXCOORD_0":6
					},
					"indices":7
				}
			]
		},
		{
			"name":"Plane.005",
			"primitives":[
				{
					"attributes":{
						"POSITION":8,
						"NORMAL":9,
						"TEXCOORD_0":10
					},
					"indices":11,
					"material":0
				}
			]
		},
		{
			"name":"Plane.007",
			"primitives":[
				{
					"attributes":{
						"POSITION":12,
						"NORMAL":13,
						"TEXCOORD_0":14
					},
					"indices":11,
					"material":0
				}
			]
		},
		{
			"name":"Plane.008",
			"primitives":[
				{
					"attributes":{
						"POSITION":15,
						"NORMAL":16,
						"TEXCOORD_0":17
					},
					"indices":18,
					"material":0
				}
			]
		},
		{
			"name":"Plane.009",
			"primitives":[
				{
					"attributes":{
						"POSITION":19,
						"NORMAL":20,
						"TEXCOORD_0":21
					},
					"indices":22,
					"material":0
				}
			]
		},
		{
			"name":"Plane.011",
			"primitives":[
				{
					"attributes":{
						"POSITION":23,
						"NORMAL":24,
						"TEXCOORD_0":25
					},
					"indices":11,
					"material":0
				}
			]
		}
	],
	"accessors":[
		{
			"bufferView":0,
			"componentType":5126,
			"count":324,
			"max":[
				20,
				14,
				20
			],
			"min":[
				0,
				0,
				0
			],
			"type":"VEC3"
		},
		{
			"bufferView":1,
			"componentType":5126,
			"count":324,
			"type":"VEC3"
		},
		{
			"bufferView":2,
			"componentType":5126,
			"count":324,
			"type":"VEC2"
		},
		{
			"bufferView":3,
			"componentType":5123,
			"count":966,
			"type":"SCALAR"
		},
		{
			"bufferView":4,
			"componentType":5126,
			"count":338,
			"max":[
				5.662899017333984,
				14,
				5.656108379364014
			],
			"min":[
				-5.630727767944336,
				-0.998710036277771,
				-5.637518405914307
			],
			"type":"VEC3"
		},
		{
			"bufferView":5,
			"componentType":5126,
			"count":338,
			"type":"VEC3"
		},
		{
			"bufferView":6,
			"componentType":5126,
			"count":338,
			"type":"VEC2"
		},
		{
			"bufferView":7,
			"componentType":5123,
			"count":972,
			"type":"SCALAR"
		},
		{
			"bufferView":8,
			"componentType":5126,
			"count":4,
			"max":[
				11.999999046325684,
				3,
				20
			],
			"min":[
				9.000000953674316,
				0,
				20
			],
			"type":"VEC3"
		},
		{
			"bufferView":9,
			"componentType":5126,
			"count":4,
			"type":"VEC3"
		},
		{
			"bufferView":10,
			"componentType":5126,
			"count":4,
			"type":"VEC2"
		},
		{
			"bufferView":11,
			"componentType":5123,
			"count":6,
			"type":"SCALAR"
		},
		{
			"bufferView":12,
			"componentType":5126,
			"count":4,
			"max":[
				11.999998092651367,
				3,
				0
			],
			"min":[
				9,
				0,
				0
			],
			"type":"VEC3"
		},
		{
			"bufferView":13,
			"componentType":5126,
			"count":4,
			"type":"VEC3"
		},
		{
			"bufferView":14,
			"componentType":5126,
			"count":4,
			"type":"VEC2"
		},
		{
			"bufferView":15,
			"componentType":5126,
			"count":4,
			"max":[
				11.999998092651367,
				13,
				0
			],
			"min":[
				9,
				10,
				0
			],
			"type":"VEC3"
		},
		{
			"bufferView":16,
			"componentType":5126,
			"count":4,
			"type":"VEC3"
		},
		{
			"bufferView":17,
			"componentType":5126,
			"count":4,
			"type":"VEC2"
		},
		{
			"bufferView":18,
			"componentType":5123,
			"count":6,
			"type":"SCALAR"
		},
		{
			"bufferView":19,
			"componentType":5126,
			"count":4,
			"max":[
				20,
				13,
				4.999999046325684
			],
			"min":[
				20,
				10,
				2
			],
			"type":"VEC3"
		},
		{
			"bufferView":20,
			"componentType":5126,
			"count":4,
			"type":"VEC3"
		},
		{
			"bufferView":21,
			"componentType":5126,
			"count":4,
			"type":"VEC2"
		},
		{
			"bufferView":22,
			"componentType":5123,
			"count":6,
			"type":"SCALAR"
		},
		{
			"bufferView":23,
			"componentType":5126,
			"count":4,
			"max":[
				0,
				9,
				11.999999046325684
			],
			"min":[
				0,
				6,
				9.000000953674316
			],
			"type":"VEC3"
		},
		{
			"bufferView":24,
			"componentType":5126,
			"count":4,
			"type":"VEC3"
		},
		{
			"bufferView":25,
			"componentType":5126,
			"count":4,
			"type":"VEC2"
		}
	],
	"bufferViews":[
		{
			"buffer":0,
			"byteLength":3888,
			"byteOffset":0,
			"target":34962
		},
		{
			"buffer":0,
			"byteLength":3888,
			"byteOffset":3888,
			"target":34962
		},
		{
			"buffer":0,
			"byteLength":2592,
			"byteOffset":7776,
			"target":34962
		},
		{
			"buffer":0,
			"byteLength":1932,
			"byteOffset":10368,
			"target":34963
		},
		{
			"buffer":0,
			"byteLength":4056,
			"byteOffset":12300,
			"target":34962
		},
		{
			"buffer":0,
			"byteLength":4056,
			"byteOffset":16356,
			"target":34962
		},
		{
			"buffer":0,
			"byteLength":2704,
			"byteOffset":20412,
			"target":34962
		},
		{
			"buffer":0,
			"byteLength":1944,
			"byteOffset":23116,
			"target":34963
		},
		{
			"buffer":0,
			"byteLength":48,
			"byteOffset":25060,
			"target":34962
		},
		{
			"buffer":0,
			"byteLength":48,
			"byteOffset":25108,
			"target":34962
		},
		{
			"buffer":0,
			"byteLength":32,
			"byteOffset":25156,
			"target":34962
		},
		{
			"buffer":0,
			"byteLength":12,
			"byteOffset":25188,
			"target":34963
		},
		{
			"buffer":0,
			"byteLength":48,
			"byteOffset":25200,
			"target":34962
		},
		{
			"buffer":0,
			"byteLength":48,
			"byteOffset":25248,
			"target":34962
		},
		{
			"buffer":0,
			"byteLength":32,
			"byteOffset":25296,
			"target":34962
		},
		{
			"buffer":0,
			"byteLength":48,
			"byteOffset":25328,
			"target":34962
		},
		{
			"buffer":0,
			"byteLength":48,
			"byteOffset":25376,
			"target":34962
		},
		{
			"buffer":0,
			"byteLength":32,
			"byteOffset":25424,
			"target":34962
		},
		{
			"buffer":0,
			"byteLength":12,
			"byteOffset":25456,
			"target":34963
		},
		{
			"buffer":0,
			"byteLength":48,
			"byteOffset":25468,
			"target":34962
		},
		{
			"buffer":0,
			"byteLength":48,
			"byteOffset":25516,
			"target":34962
		},
		{
			"buffer":0,
			"byteLength":32,
			"byteOffset":25564,
			"target":34962
		},
		{
			"buffer":0,
			"byteLength":12,
			"byteOffset":25596,
			"target":34963
		},
		{
			"buffer":0,
			"byteLength":48,
			"byteOffset":25608,
			"target":34962
		},
		{
			"buffer":0,
			"byteLength":48,
			"byteOffset":25656,
			"target":34962
		},
		{
			"buffer":0,
			"byteLength":32,
			"byteOffset":25704,
			"target":34962
		}
	],
	"buffers":[
		{
			"byteLength":25736,
			"uri":"staircase.bin"
		}
	]
}
