{
	"asset":{
		"generator":"Khronos glTF Blender I/O v3.6.27",
		"version":"2.0"
	},
	"extensionsUsed":[
		"KHR_materials_emissive_strength"
	],
	"scene":0,
	"scenes":[
		{
			"name":"Scene",
			"nodes":[
				0,
				1,
				2,
				3,
				4,
				5,
				6,
				7,
				8,
				9
			]
		}
	],
	"nodes":[
		{
			"mesh":0,
			"name":"Cells",
			"translation":[
				1,
				1,
				-1
			]
		},
		{
			"mesh":1,
			"name":"Corridor"
		},
		{
			"mesh":2,
			"name":"Iron Bars.001",
			"translation":[
				11.5,
				0,
				-6
			]
		},
		{
			"mesh":3,
			"name":"Iron Bars.002",
			"rotation":[
				0,
				-0.7071068286895752,
				0,
				0.7071068286895752
			],
			"translation":[
				1.5,
				0,
				-4.25
			]
		},
		{
			"mesh":4,
			"name":"Iron Bars.003",
			"rotation":[
				0,
				-0.7071068286895752,
				0,
				0.7071068286895752
			],
			"translation":[
				5.5,
				0,
				-4.25
			]
		},
		{
			"mesh":5,
			"name":"Iron Bars.004",
			"rotation":[
				0,
				-0.7071068286895752,
				0,
				0.7071068286895752
			],
			"translation":[
				9.5,
				0,
				-7.75
			]
		},
		{
			"mesh":6,
			"name":"Iron Bars.005",
			"rotation":[
				0,
				-0.7071068286895752,
				0,
				0.7071068286895752
			],
			"translation":[
				1.5,
				0,
				-7.75
			]
		},
		{
			"mesh":7,
			"name":"Iron Bars.006",
			"rotation":[
				0,
				-0.7071068286895752,
				0,
				0.7071068286895752
			],
			"translation":[
				-6.5,
				0,
				-7.75
			]
		},
		{
			"mesh":8,
			"name":"Iron Bars.007",
			"rotation":[
				0,
				-0.7071068286895752,
				0,
				0.7071068286895752
			],
			"translation":[
				-6.5,
				0,
				-4.25
			]
		},
		{
			"mesh":9,
			"name":"Iron Bars.008",
			"rotation":[
				0,
				1,
				0,
				1.6292068494294654e-07
			],
			"translation":[
				-13,
				0,
				-11.5
			]
		}
	],
	"animations":[
		{
			"channels":[
				{
					"sampler":0,
					"target":{
						"node":5,
						"path":"translation"
					}
				},
				{
					"sampler":1,
					"target":{
						"node":5,
						"path":"rotation"
					}
				},
				{
					"sampler":2,
					"target":{
						"node":5,
						"path":"scale"
					}
				}
			],
			"name":"Iron Bars.004Action",
			"samplers":[
				{
					"input":42,
					"interpolation":"LINEAR",
					"output":43
				},
				{
					"input":42,
					"interpolation":"LINEAR",
					"output":44
				},
				{
					"input":42,
					"interpolation":"LINEAR",
					"output":45
				}
			]
		},
		{
			"channels":[
				{
					"sampler":0,
					"target":{
						"node":6,
						"path":"translation"
					}
				},
				{
					"sampler":1,
					"target":{
						"node":6,
						"path":"rotation"
					}
				},
				{
					"sampler":2,
					"target":{
						"node":6,
						"path":"scale"
					}
				}
			],
			"name":"Iron Bars.004Action.001",
			"samplers":[
				{
					"input":42,
					"interpolation":"LINEAR",
					"output":46
				},
				{
					"input":42,
					"interpolation":"LINEAR",
					"output":47
				},
				{
					"input":42,
					"interpolation":"LINEAR",
					"output":48
				}
			]
		},
		{
			"channels":[
				{
					"sampler":0,
					"target":{
						"node":7,
						"path":"translation"
					}
				},
				{
					"sampler":1,
					"target":{
						"node":7,
						"path":"rotation"
					}
				},
				{
					"sampler":2,
					"target":{
						"node":7,
						"path":"scale"
					}
				}
			],
			"name":"Iron Bars.004Action.002",
			"samplers":[
				{
					"input":42,
					"interpolation":"LINEAR",
					"output":49
				},
				{
					"input":42,
					"interpolation":"LINEAR",
					"output":50
				},
				{
					"input":42,
					"interpolation":"LINEAR",
					"output":51
				}
			]
		},
		{
			"channels":[
				{
					"sampler":0,
					"target":{
						"node":8,
						"path":"translation"
					}
				},
				{
					"sampler":1,
					"target":{
						"node":8,
						"path":"rotation"
					}
				},
				{
					"sampler":2,
					"target":{
						"node":8,
						"path":"scale"
					}
				}
			],
			"name":"Iron Bars.004Action.003",
			"samplers":[
				{
					"input":42,
					"interpolation":"LINEAR",
					"output":52
				},
				{
					"input":42,
					"interpolation":"LINEAR",
					"output":53
				},
				{
					"input":42,
					"interpolation":"LINEAR",
					"output":54
				}
			]
		},
		{
			"channels":[
				{
					"sampler":0,
					"target":{
						"node":9,
						"path":"translation"
					}
				},
				{
					"sampler":1,
					"target":{
						"node":9,
						"path":"rotation"
					}
				},
				{
					"sampler":2,
					"target":{
						"node":9,
						"path":"scale"
					}
				}
			],
			"name":"Iron Bars.008Action",
			"samplers":[
				{
					"input":42,
					"interpolation":"LINEAR",
					"output":55
				},
				{
					"input":42,
					"interpolation":"LINEAR",
					"output":56
				},
				{
					"input":42,
					"interpolation":"LINEAR",
					"output":57
				}
			]
		}
	],
	"materials":[
		{
			"name":"Material",
			"pbrMetallicRoughness":{
				"baseColorFactor":[
					0.17335528135299683,
					0.17335528135299683,
					0.17335528135299683,
					1
				],
				"metallicFactor":0
			}
		},
		{
			"doubleSided":true,
			"emissiveFactor":[
				1,
				1,
				1
			],
			"extensions":{
				"KHR_materials_emissive_strength":{
					"emissiveStrength":3
				}
			},
			"name":"Material.002",
			"pbrMetallicRoughness":{
				"baseColorFactor":[
					0,
					0,
					0,
					1
				],
				"metallicFactor":0,
				"roughnessFactor":0.5
			}
		},
		{
			"doubleSided":true,
			"name":"Material.001",
			"pbrMetallicRoughness":{
				"baseColorFactor":[
					0.35055580735206604,
					0.35055580735206604,
					0.35055580735206604,
					1
				],
				"roughnessFactor":0.5
			}
		}
	],
	"meshes":[
		{
			"name":"Cube",
			"primitives":[
				{
					"attributes":{
						"POSITION":0,
						"NORMAL":1,
						"TEXCOORD_0":2
					},
					"indices":3,
					"material":0
				},
				{
					"attributes":{
						"POSITION":4,
						"NORMAL":5,
						"TEXCOORD_0":6
					},
					"indices":7,
					"material":1
				}
			]
		},
		{
			"name":"Plane.001",
			"primitives":[
				{
					"attributes":{
						"POSITION":8,
						"NORMAL":9,
						"TEXCOORD_0":10
					},
					"indices":11,
					"material":0
				},
				{
					"attributes":{
						"POSITION":12,
						"NORMAL":13,
						"TEXCOORD_0":14
					},
					"indices":15,
					"material":1
				}
			]
		},
		{
			"name":"Cube.001",
			"primitives":[
				{
					"attributes":{
						"POSITION":16,
						"NORMAL":17,
						"TEXCOORD_0":18
					},
					"indices":19,
					"material":2
				}
			]
		},
		{
			"name":"Cube.002",
			"primitives":[
				{
					"attributes":{
						"POSITION":20,
						"NORMAL":21,
						"TEXCOORD_0":22
					},
					"indices":23,
					"material":2
				}
			]
		},
		{
			"name":"Cube.007",
			"primitives":[
				{
					"attributes":{
						"POSITION":24,
						"NORMAL":25,
						"TEXCOORD_0":26
					},
					"indices":23,
					"material":2
				}
			]
		},
		{
			"name":"Cube.009",
			"primitives":[
				{
					"attributes":{
						"POSITION":27,
						"NORMAL":28,
						"TEXCOORD_0":29
					},
					"indices":23,
					"material":2
				}
			]
		},
		{
			"name":"Cube.010",
			"primitives":[
				{
					"attributes":{
						"POSITION":30,
						"NORMAL":31,
						"TEXCOORD_0":32
					},
					"indices":23,
					"material":2
				}
			]
		},
		{
			"name":"Cube.011",
			"primitives":[
				{
					"attributes":{
						"POSITION":33,
						"NORMAL":34,
						"TEXCOORD_0":35
					},
					"indices":23,
					"material":2
				}
			]
		},
		{
			"name":"Cube.012",
			"primitives":[
				{
					"attributes":{
						"POSITION":36,
						"NORMAL":37,
						"TEXCOORD_0":38
					},
					"indices":23,
					"material":2
				}
			]
		},
		{
			"name":"Cube.017",
			"primitives":[
				{
					"attributes":{
						"POSITION":39,
						"NORMAL":40,
						"TEXCOORD_0":41
					},
					"indices":19,
					"material":2
				}
			]
		}
	],
	"accessors":[
		{
			"bufferView":0,
			"componentType":5126,
			"count":581,
			"max":[
				10,
				3.542083263397217,
				1
			],
			"min":[
				-9,
				-1,
				-11.000000953674316
			],
			"type":"VEC3"
		},
		{
			"bufferView":1,
			"componentType":5126,
			"count":581,
			"type":"VEC3"
		},
		{
			"bufferView":2,
			"componentType":5126,
			"count":581,
			"type":"VEC2"
		},
		{
			"bufferView":3,
			"componentType":5123,
			"count":1017,
			"type":"SCALAR"
		},
		{
			"bufferView":4,
			"componentType":5126,
			"count":15,
			"max":[
				3.715822696685791,
				3.542083263397217,
				0.5911003351211548
			],
			"min":[
				2.8386054039001465,
				3.542083263397217,
				-0.3592657148838043
			],
			"type":"VEC3"
		},
		{
			"bufferView":5,
			"componentType":5126,
			"count":15,
			"type":"VEC3"
		},
		{
			"bufferView":6,
			"componentType":5126,
			"count":15,
			"type":"VEC2"
		},
		{
			"bufferView":7,
			"componentType":5123,
			"count":39,
			"type":"SCALAR"
		},
		{
			"bufferView":8,
			"componentType":5126,
			"count":423,
			"max":[
				16,
				13.5,
				0
			],
			"min":[
				-34,
				0,
				-18
			],
			"type":"VEC3"
		},
		{
			"bufferView":9,
			"componentType":5126,
			"count":423,
			"type":"VEC3"
		},
		{
			"bufferView":10,
			"componentType":5126,
			"count":423,
			"type":"VEC2"
		},
		{
			"bufferView":11,
			"componentType":5123,
			"count":1026,
			"type":"SCALAR"
		},
		{
			"bufferView":12,
			"componentType":5126,
			"count":4,
			"max":[
				-34,
				13.5,
				-2.384185791015625e-07
			],
			"min":[
				-34,
				10.5,
				-2.999999761581421
			],
			"type":"VEC3"
		},
		{
			"bufferView":13,
			"componentType":5126,
			"count":4,
			"type":"VEC3"
		},
		{
			"bufferView":14,
			"componentType":5126,
			"count":4,
			"type":"VEC2"
		},
		{
			"bufferView":15,
			"componentType":5123,
			"count":6,
			"type":"SCALAR"
		},
		{
			"bufferView":16,
			"componentType":5126,
			"count":336,
			"max":[
				0.02828356996178627,
				2,
				1.3282841444015503
			],
			"min":[
				-0.028284918516874313,
				-0.019999980926513672,
				-1.328284740447998
			],
			"type":"VEC3"
		},
		{
			"bufferView":17,
			"componentType":5126,
			"count":336,
			"type":"VEC3"
		},
		{
			"bufferView":18,
			"componentType":5126,
			"count":336,
			"type":"VEC2"
		},
		{
			"bufferView":19,
			"componentType":5123,
			"count":504,
			"type":"SCALAR"
		},
		{
			"bufferView":20,
			"componentType":5126,
			"count":96,
			"max":[
				0.02828356996178627,
				2,
				0.3282846212387085
			],
			"min":[
				-0.028284918516874313,
				-0.019999980926513672,
				-0.32828426361083984
			],
			"type":"VEC3"
		},
		{
			"bufferView":21,
			"componentType":5126,
			"count":96,
			"type":"VEC3"
		},
		{
			"bufferView":22,
			"componentType":5126,
			"count":96,
			"type":"VEC2"
		},
		{
			"bufferView":23,
			"componentType":5123,
			"count":144,
			"type":"SCALAR"
		},
		{
			"bufferView":24,
			"componentType":5126,
			"count":96,
			"max":[
				0.02828356996178627,
				2,
				0.3282846212387085
			],
			"min":[
				-0.028284918516874313,
				-0.019999980926513672,
				-0.32828426361083984
			],
			"type":"VEC3"
		},
		{
			"bufferView":25,
			"componentType":5126,
			"count":96,
			"type":"VEC3"
		},
		{
			"bufferView":26,
			"componentType":5126,
			"count":96,
			"type":"VEC2"
		},
		{
			"bufferView":27,
			"componentType":5126,
			"count":96,
			"max":[
				0.02828356996178627,
				2,
				0.3282846212387085
			],
			"min":[
				-0.028284918516874313,
				-0.019999980926513672,
				-0.32828426361083984
			],
			"type":"VEC3"
		},
		{
			"bufferView":28,
			"componentType":5126,
			"count":96,
			"type":"VEC3"
		},
		{
			"bufferView":29,
			"componentType":5126,
			"count":96,
			"type":"VEC2"
		},
		{
			"bufferView":30,
			"componentType":5126,
			"count":96,
			"max":[
				0.02828356996178627,
				2,
				0.3282846212387085
			],
			"min":[
				-0.028284918516874313,
				-0.019999980926513672,
				-0.32828426361083984
			],
			"type":"VEC3"
		},
		{
			"bufferView":31,
			"componentType":5126,
			"count":96,
			"type":"VEC3"
		},
		{
			"bufferView":32,
			"componentType":5126,
			"count":96,
			"type":"VEC2"
		},
		{
			"bufferView":33,
			"componentType":5126,
			"count":96,
			"max":[
				0.02828356996178627,
				2,
				0.3282846212387085
			],
			"min":[
				-0.028284918516874313,
				-0.019999980926513672,
				-0.32828426361083984
			],
			"type":"VEC3"
		},
		{
			"bufferView":34,
			"componentType":5126,
			"count":96,
			"type":"VEC3"
		},
		{
			"bufferView":35,
			"componentType":5126,
			"count":96,
			"type":"VEC2"
		},
		{
			"bufferView":36,
			"componentType":5126,
			"count":96,
			"max":[
				0.02828356996178627,
				2,
				0.3282846212387085
			],
			"min":[
				-0.028284918516874313,
				-0.019999980926513672,
				-0.32828426361083984
			],
			"type":"VEC3"
		},
		{
			"bufferView":37,
			"componentType":5126,
			"count":96,
			"type":"VEC3"
		},
		{
			"bufferView":38,
			"componentType":5126,
			"count":96,
			"type":"VEC2"
		},
		{
			"bufferView":39,
			"componentType":5126,
			"count":336,
			"max":[
				0.02828356996178627,
				2,
				1.3282841444015503
			],
			"min":[
				-0.028284918516874313,
				-0.019999980926513672,
				-1.328284740447998
			],
			"type":"VEC3"
		},
		{
			"bufferView":40,
			"componentType":5126,
			"count":336,
			"type":"VEC3"
		},
		{
			"bufferView":41,
			"componentType":5126,
			"count":336,
			"type":"VEC2"
		},
		{
			"bufferView":42,
			"componentType":5126,
			"count":1,
			"max":[
				0
			],
			"min":[
				0
			],
			"type":"SCALAR"
		},
		{
			"bufferView":43,
			"componentType":5126,
			"count":1,
			"type":"VEC3"
		},
		{
			"bufferView":44,
			"componentType":5126,
			"count":1,
			"type":"VEC4"
		},
		{
			"bufferView":45,
			"componentType":5126,
			"count":1,
			"type":"VEC3"
		},
		{
			"bufferView":46,
			"componentType":5126,
			"count":1,
			"type":"VEC3"
		},
		{
			"bufferView":47,
			"componentType":5126,
			"count":1,
			"type":"VEC4"
		},
		{
			"bufferView":48,
			"componentType":5126,
			"count":1,
			"type":"VEC3"
		},
		{
			"bufferView":49,
			"componentType":5126,
			"count":1,
			"type":"VEC3"
		},
		{
			"bufferView":50,
			"componentType":5126,
			"count":1,
			"type":"VEC4"
		},
		{
			"bufferView":51,
			"componentType":5126,
			"count":1,
			"type":"VEC3"
		},
		{
			"bufferView":52,
			"componentType":5126,
			"count":1,
			"type":"VEC3"
		},
		{
			"bufferView":53,
			"componentType":5126,
			"count":1,
			"type":"VEC4"
		},
		{
			"bufferView":54,
			"componentType":5126,
			"count":1,
			"type":"VEC3"
		},
		{
			"bufferView":55,
			"componentType":5126,
			"count":1,
			"type":"VEC3"
		},
		{
			"bufferView":56,
			"componentType":5126,
			"count":1,
			"type":"VEC4"
		},
		{
			"bufferView":57,
			"componentType":5126,
			"count":1,
			"type":"VEC3"
		}
	],
	"bufferViews":[
		{
			"buffer":0,
			"byteLength":6972,
			"byteOffset":0,
			"target":34962
		},
		{
			"buffer":0,
			"byteLength":6972,
			"byteOffset":6972,
			"target":34962
		},
		{
			"buffer":0,
			"byteLength":4648,
			"byteOffset":13944,
			"target":34962
		},
		{
			"buffer":0,
			"byteLength":2034,
			"byteOffset":18592,
			"target":34963
		},
		{
			"buffer":0,
			"byteLength":180,
			"byteOffset":20628,
			"target":34962
		},
		{
			"buffer":0,
			"byteLength":180,
			"byteOffset":20808,
			"target":34962
		},
		{
			"buffer":0,
			"byteLength":120,
			"byteOffset":20988,
			"target":34962
		},
		{
			"buffer":0,
			"byteLength":78,
			"byteOffset":21108,
			"target":34963
		},
		{
			"buffer":0,
			"byteLength":5076,
			"byteOffset":21188,
			"target":34962
		},
		{
			"buffer":0,
			"byteLength":5076,
			"byteOffset":26264,
			"target":34962
		},
		{
			"buffer":0,
			"byteLength":3384,
			"byteOffset":31340,
			"target":34962
		},
		{
			"buffer":0,
			"byteLength":2052,
			"byteOffset":34724,
			"target":34963
		},
		{
			"buffer":0,
			"byteLength":48,
			"byteOffset":36776,
			"target":34962
		},
		{
			"buffer":0,
			"byteLength":48,
			"byteOffset":36824,
			"target":34962
		},
		{
			"buffer":0,
			"byteLength":32,
			"byteOffset":36872,
			"target":34962
		},
		{
			"buffer":0,
			"byteLength":12,
			"byteOffset":36904,
			"target":34963
		},
		{
			"buffer":0,
			"byteLength":4032,
			"byteOffset":36916,
			"target":34962
		},
		{
			"buffer":0,
			"byteLength":4032,
			"byteOffset":40948,
			"target":34962
		},
		{
			"buffer":0,
			"byteLength":2688,
			"byteOffset":44980,
			"target":34962
		},
		{
			"buffer":0,
			"byteLength":1008,
			"byteOffset":47668,
			"target":34963
		},
		{
			"buffer":0,
			"byteLength":1152,
			"byteOffset":48676,
			"target":34962
		},
		{
			"buffer":0,
			"byteLength":1152,
			"byteOffset":49828,
			"target":34962
		},
		{
			"buffer":0,
			"byteLength":768,
			"byteOffset":50980,
			"target":34962
		},
		{
			"buffer":0,
			"byteLength":288,
			"byteOffset":51748,
			"target":34963
		},
		{
			"buffer":0,
			"byteLength":1152,
			"byteOffset":52036,
			"target":34962
		},
		{
			"buffer":0,
			"byteLength":1152,
			"byteOffset":53188,
			"target":34962
		},
		{
			"buffer":0,
			"byteLength":768,
			"byteOffset":54340,
			"target":34962
		},
		{
			"buffer":0,
			"byteLength":1152,
			"byteOffset":55108,
			"target":34962
		},
		{
			"buffer":0,
			"byteLength":1152,
			"byteOffset":56260,
			"target":34962
		},
		{
			"buffer":0,
			"byteLength":768,
			"byteOffset":57412,
			"target":34962
		},
		{
			"buffer":0,
			"byteLength":1152,
			"byteOffset":58180,
			"target":34962
		},
		{
			"buffer":0,
			"byteLength":1152,
			"byteOffset":59332,
			"target":34962
		},
		{
			"buffer":0,
			"byteLength":768,
			"byteOffset":60484,
			"target":34962
		},
		{
			"buffer":0,
			"byteLength":1152,
			"byteOffset":61252,
			"target":34962
		},
		{
			"buffer":0,
			"byteLength":1152,
			"byteOffset":62404,
			"target":34962
		},
		{
			"buffer":0,
			"byteLength":768,
			"byteOffset":63556,
			"target":34962
		},
		{
			"buffer":0,
			"byteLength":1152,
			"byteOffset":64324,
			"target":34962
		},
		{
			"buffer":0,
			"byteLength":1152,
			"byteOffset":65476,
			"target":34962
		},
		{
			"buffer":0,
			"byteLength":768,
			"byteOffset":66628,
			"target":34962
		},
		{
			"buffer":0,
			"byteLength":4032,
			"byteOffset":67396,
			"target":34962
		},
		{
			"buffer":0,
			"byteLength":4032,
			"byteOffset":71428,
			"target":34962
		},
		{
			"buffer":0,
			"byteLength":2688,
			"byteOffset":75460,
			"target":34962
		},
		{
			"buffer":0,
			"byteLength":4,
			"byteOffset":78148
		},
		{
			"buffer":0,
			"byteLength":12,
			"byteOffset":78152
		},
		{
			"buffer":0,
			"byteLength":16,
			"byteOffset":78164
		},
		{
			"buffer":0,
			"byteLength":12,
			"byteOffset":78180
		},
		{
			"buffer":0,
			"byteLength":12,
			"byteOffset":78192
		},
		{
			"buffer":0,
			"byteLength":16,
			"byteOffset":78204
		},
		{
			"buffer":0,
			"byteLength":12,
			"byteOffset":78220
		},
		{
			"buffer":0,
			"byteLength":12,
			"byteOffset":78232
		},
		{
			"buffer":0,
			"byteLength":16,
			"byteOffset":78244
		},
		{
			"buffer":0,
			"byteLength":12,
			"byteOffset":78260
		},
		{
			"buffer":0,
			"byteLength":12,
			"byteOffset":78272
		},
		{
			"buffer":0,
			"byteLength":16,
			"byteOffset":78284
		},
		{
			"buffer":0,
			"byteLength":12,
			"byteOffset":78300
		},
		{
			"buffer":0,
			"byteLength":12,
			"byteOffset":78312
		},
		{
			"buffer":0,
			"byteLength":16,
			"byteOffset":78324
		},
		{
			"buffer":0,
			"byteLength":12,
			"byteOffset":78340
		}
	],
	"buffers":[
		{
			"byteLength":78352,
			"uri":"prison.bin"
		}
	]
}
