{
	"asset":{
		"generator":"Khronos glTF Blender I/O v3.6.27",
		"version":"2.0"
	},
	"scene":0,
	"scenes":[
		{
			"name":"Scene",
			"nodes":[
				0,
				1,
				2
			]
		}
	],
	"nodes":[
		{
			"name":"Object: crate 0",
			"rotation":[
				0,
				-0.02239893563091755,
				0,
				0.9997491240501404
			],
			"translation":[
				1.5,
				0.5,
				-0.5
			]
		},
		{
			"name":"Object: crate 1",
			"rotation":[
				0,
				0.04440672695636749,
				0,
				0.9990135431289673
			],
			"translation":[
				2.5,
				0.5,
				-0.5
			]
		},
		{
			"name":"Object: crate 2",
			"rotation":[
				0,
				0.019196126610040665,
				0,
				0.9998157620429993
			],
			"translation":[
				2.364877223968506,
				1.5,
				-0.555814266204834
			]
		}
	],
	"animations":[
		{
			"channels":[
				{
					"sampler":0,
					"target":{
						"node":0,
						"path":"translation"
					}
				},
				{
					"sampler":1,
					"target":{
						"node":0,
						"path":"rotation"
					}
				},
				{
					"sampler":2,
					"target":{
						"node":0,
						"path":"scale"
					}
				}
			],
			"name":"EmptyAction",
			"samplers":[
				{
					"input":0,
					"interpolation":"LINEAR",
					"output":1
				},
				{
					"input":0,
					"interpolation":"LINEAR",
					"output":2
				},
				{
					"input":0,
					"interpolation":"LINEAR",
					"output":3
				}
			]
		},
		{
			"channels":[
				{
					"sampler":0,
					"target":{
						"node":1,
						"path":"translation"
					}
				},
				{
					"sampler":1,
					"target":{
						"node":1,
						"path":"rotation"
					}
				},
				{
					"sampler":2,
					"target":{
						"node":1,
						"path":"scale"
					}
				}
			],
			"name":"EmptyAction.001",
			"samplers":[
				{
					"input":0,
					"interpolation":"LINEAR",
					"output":4
				},
				{
					"input":0,
					"interpolation":"LINEAR",
					"output":5
				},
				{
					"input":0,
					"interpolation":"LINEAR",
					"output":6
				}
			]
		},
		{
			"channels":[
				{
					"sampler":0,
					"target":{
						"node":2,
						"path":"translation"
					}
				},
				{
					"sampler":1,
					"target":{
						"node":2,
						"path":"rotation"
					}
				},
				{
					"sampler":2,
					"target":{
						"node":2,
						"path":"scale"
					}
				}
			],
			"name":"EmptyAction.002",
			"samplers":[
				{
					"input":0,
					"interpolation":"LINEAR",
					"output":7
				},
				{
					"input":0,
					"interpolation":"LINEAR",
					"output":8
				},
				{
					"input":0,
					"interpolation":"LINEAR",
					"output":9
				}
			]
		}
	],
	"accessors":[
		{
			"bufferView":0,
			"componentType":5126,
			"count":1,
			"max":[
				0
			],
			"min":[
				0
			],
			"type":"SCALAR"
		},
		{
			"bufferView":1,
			"componentType":5126,
			"count":1,
			"type":"VEC3"
		},
		{
			"bufferView":2,
			"componentType":5126,
			"count":1,
			"type":"VEC4"
		},
		{
			"bufferView":3,
			"componentType":5126,
			"count":1,
			"type":"VEC3"
		},
		{
			"bufferView":4,
			"componentType":5126,
			"count":1,
			"type":"VEC3"
		},
		{
			"bufferView":5,
			"componentType":5126,
			"count":1,
			"type":"VEC4"
		},
		{
			"bufferView":6,
			"componentType":5126,
			"count":1,
			"type":"VEC3"
		},
		{
			"bufferView":7,
			"componentType":5126,
			"count":1,
			"type":"VEC3"
		},
		{
			"bufferView":8,
			"componentType":5126,
			"count":1,
			"type":"VEC4"
		},
		{
			"bufferView":9,
			"componentType":5126,
			"count":1,
			"type":"VEC3"
		}
	],
	"bufferViews":[
		{
			"buffer":0,
			"byteLength":4,
			"byteOffset":0
		},
		{
			"buffer":0,
			"byteLength":12,
			"byteOffset":4
		},
		{
			"buffer":0,
			"byteLength":16,
			"byteOffset":16
		},
		{
			"buffer":0,
			"byteLength":12,
			"byteOffset":32
		},
		{
			"buffer":0,
			"byteLength":12,
			"byteOffset":44
		},
		{
			"buffer":0,
			"byteLength":16,
			"byteOffset":56
		},
		{
			"buffer":0,
			"byteLength":12,
			"byteOffset":72
		},
		{
			"buffer":0,
			"byteLength":12,
			"byteOffset":84
		},
		{
			"buffer":0,
			"byteLength":16,
			"byteOffset":96
		},
		{
			"buffer":0,
			"byteLength":12,
			"byteOffset":112
		}
	],
	"buffers":[
		{
			"byteLength":124,
			"uri":"prison_level.bin"
		}
	]
}
