{
	"asset":{
		"generator":"Khronos glTF Blender I/O v3.6.27",
		"version":"2.0"
	},
	"scene":0,
	"scenes":[
		{
			"name":"Scene",
			"nodes":[
				0,
				1,
				2,
				3,
				4
			]
		}
	],
	"nodes":[
		{
			"mesh":0,
			"name":"Cells",
			"translation":[
				1,
				1,
				-1
			]
		},
		{
			"mesh":1,
			"name":"Corridor"
		},
		{
			"mesh":2,
			"name":"Iron Bars",
			"translation":[
				-8,
				0,
				-6
			]
		},
		{
			"mesh":3,
			"name":"Iron Bars.001",
			"translation":[
				11.5,
				0,
				-6
			]
		},
		{
			"mesh":4,
			"name":"Iron Bars.002",
			"rotation":[
				0,
				-0.7071068286895752,
				0,
				0.7071068286895752
			],
			"translation":[
				1.5,
				0,
				-4.25
			]
		}
	],
	"animations":[
		{
			"channels":[
				{
					"sampler":0,
					"target":{
						"node":3,
						"path":"translation"
					}
				},
				{
					"sampler":1,
					"target":{
						"node":3,
						"path":"rotation"
					}
				},
				{
					"sampler":2,
					"target":{
						"node":3,
						"path":"scale"
					}
				}
			],
			"name":"Iron Bars.001Action",
			"samplers":[
				{
					"input":19,
					"interpolation":"LINEAR",
					"output":20
				},
				{
					"input":19,
					"interpolation":"LINEAR",
					"output":21
				},
				{
					"input":19,
					"interpolation":"LINEAR",
					"output":22
				}
			]
		},
		{
			"channels":[
				{
					"sampler":0,
					"target":{
						"node":4,
						"path":"translation"
					}
				},
				{
					"sampler":1,
					"target":{
						"node":4,
						"path":"rotation"
					}
				},
				{
					"sampler":2,
					"target":{
						"node":4,
						"path":"scale"
					}
				}
			],
			"name":"Iron Bars.001Action.001",
			"samplers":[
				{
					"input":19,
					"interpolation":"LINEAR",
					"output":23
				},
				{
					"input":19,
					"interpolation":"LINEAR",
					"output":24
				},
				{
					"input":19,
					"interpolation":"LINEAR",
					"output":25
				}
			]
		}
	],
	"materials":[
		{
			"name":"Material",
			"pbrMetallicRoughness":{
				"baseColorFactor":[
					0.800000011920929,
					0.800000011920929,
					0.800000011920929,
					1
				],
				"metallicFactor":0,
				"roughnessFactor":0.5
			}
		}
	],
	"meshes":[
		{
			"name":"Cube",
			"primitives":[
				{
					"attributes":{
						"POSITION":0,
						"NORMAL":1,
						"TEXCOORD_0":2
					},
					"indices":3,
					"material":0
				}
			]
		},
		{
			"name":"Plane.001",
			"primitives":[
				{
					"attributes":{
						"POSITION":4,
						"NORMAL":5,
						"TEXCOORD_0":6
					},
					"indices":7,
					"material":0
				}
			]
		},
		{
			"name":"Cube.003",
			"primitives":[
				{
					"attributes":{
						"POSITION":8,
						"NORMAL":9,
						"TEXCOORD_0":10
					},
					"indices":11
				}
			]
		},
		{
			"name":"Cube.001",
			"primitives":[
				{
					"attributes":{
						"POSITION":12,
						"NORMAL":13,
						"TEXCOORD_0":14
					},
					"indices":11
				}
			]
		},
		{
			"name":"Cube.002",
			"primitives":[
				{
					"attributes":{
						"POSITION":15,
						"NORMAL":16,
						"TEXCOORD_0":17
					},
					"indices":18
				}
			]
		}
	],
	"accessors":[
		{
			"bufferView":0,
			"componentType":5126,
			"count":520,
			"max":[
				10,
				3,
				1
			],
			"min":[
				-10.012300491333008,
				-1,
				-11.000000953674316
			],
			"type":"VEC3"
		},
		{
			"bufferView":1,
			"componentType":5126,
			"count":520,
			"type":"VEC3"
		},
		{
			"bufferView":2,
			"componentType":5126,
			"count":520,
			"type":"VEC2"
		},
		{
			"bufferView":3,
			"componentType":5123,
			"count":888,
			"type":"SCALAR"
		},
		{
			"bufferView":4,
			"componentType":5126,
			"count":202,
			"max":[
				12,
				5,
				-4.5
			],
			"min":[
				-9,
				0,
				-7.5
			],
			"type":"VEC3"
		},
		{
			"bufferView":5,
			"componentType":5126,
			"count":202,
			"type":"VEC3"
		},
		{
			"bufferView":6,
			"componentType":5126,
			"count":202,
			"type":"VEC2"
		},
		{
			"bufferView":7,
			"componentType":5123,
			"count":516,
			"type":"SCALAR"
		},
		{
			"bufferView":8,
			"componentType":5126,
			"count":336,
			"max":[
				0.02828356996178627,
				2,
				1.3282841444015503
			],
			"min":[
				-0.028284918516874313,
				-0.019999980926513672,
				-1.328284740447998
			],
			"type":"VEC3"
		},
		{
			"bufferView":9,
			"componentType":5126,
			"count":336,
			"type":"VEC3"
		},
		{
			"bufferView":10,
			"componentType":5126,
			"count":336,
			"type":"VEC2"
		},
		{
			"bufferView":11,
			"componentType":5123,
			"count":504,
			"type":"SCALAR"
		},
		{
			"bufferView":12,
			"componentType":5126,
			"count":336,
			"max":[
				0.02828356996178627,
				2,
				1.3282841444015503
			],
			"min":[
				-0.028284918516874313,
				-0.019999980926513672,
				-1.328284740447998
			],
			"type":"VEC3"
		},
		{
			"bufferView":13,
			"componentType":5126,
			"count":336,
			"type":"VEC3"
		},
		{
			"bufferView":14,
			"componentType":5126,
			"count":336,
			"type":"VEC2"
		},
		{
			"bufferView":15,
			"componentType":5126,
			"count":96,
			"max":[
				0.02828356996178627,
				2,
				0.3282846212387085
			],
			"min":[
				-0.028284918516874313,
				-0.019999980926513672,
				-0.32828426361083984
			],
			"type":"VEC3"
		},
		{
			"bufferView":16,
			"componentType":5126,
			"count":96,
			"type":"VEC3"
		},
		{
			"bufferView":17,
			"componentType":5126,
			"count":96,
			"type":"VEC2"
		},
		{
			"bufferView":18,
			"componentType":5123,
			"count":144,
			"type":"SCALAR"
		},
		{
			"bufferView":19,
			"componentType":5126,
			"count":1,
			"max":[
				0
			],
			"min":[
				0
			],
			"type":"SCALAR"
		},
		{
			"bufferView":20,
			"componentType":5126,
			"count":1,
			"type":"VEC3"
		},
		{
			"bufferView":21,
			"componentType":5126,
			"count":1,
			"type":"VEC4"
		},
		{
			"bufferView":22,
			"componentType":5126,
			"count":1,
			"type":"VEC3"
		},
		{
			"bufferView":23,
			"componentType":5126,
			"count":1,
			"type":"VEC3"
		},
		{
			"bufferView":24,
			"componentType":5126,
			"count":1,
			"type":"VEC4"
		},
		{
			"bufferView":25,
			"componentType":5126,
			"count":1,
			"type":"VEC3"
		}
	],
	"bufferViews":[
		{
			"buffer":0,
			"byteLength":6240,
			"byteOffset":0,
			"target":34962
		},
		{
			"buffer":0,
			"byteLength":6240,
			"byteOffset":6240,
			"target":34962
		},
		{
			"buffer":0,
			"byteLength":4160,
			"byteOffset":12480,
			"target":34962
		},
		{
			"buffer":0,
			"byteLength":1776,
			"byteOffset":16640,
			"target":34963
		},
		{
			"buffer":0,
			"byteLength":2424,
			"byteOffset":18416,
			"target":34962
		},
		{
			"buffer":0,
			"byteLength":2424,
			"byteOffset":20840,
			"target":34962
		},
		{
			"buffer":0,
			"byteLength":1616,
			"byteOffset":23264,
			"target":34962
		},
		{
			"buffer":0,
			"byteLength":1032,
			"byteOffset":24880,
			"target":34963
		},
		{
			"buffer":0,
			"byteLength":4032,
			"byteOffset":25912,
			"target":34962
		},
		{
			"buffer":0,
			"byteLength":4032,
			"byteOffset":29944,
			"target":34962
		},
		{
			"buffer":0,
			"byteLength":2688,
			"byteOffset":33976,
			"target":34962
		},
		{
			"buffer":0,
			"byteLength":1008,
			"byteOffset":36664,
			"target":34963
		},
		{
			"buffer":0,
			"byteLength":4032,
			"byteOffset":37672,
			"target":34962
		},
		{
			"buffer":0,
			"byteLength":4032,
			"byteOffset":41704,
			"target":34962
		},
		{
			"buffer":0,
			"byteLength":2688,
			"byteOffset":45736,
			"target":34962
		},
		{
			"buffer":0,
			"byteLength":1152,
			"byteOffset":48424,
			"target":34962
		},
		{
			"buffer":0,
			"byteLength":1152,
			"byteOffset":49576,
			"target":34962
		},
		{
			"buffer":0,
			"byteLength":768,
			"byteOffset":50728,
			"target":34962
		},
		{
			"buffer":0,
			"byteLength":288,
			"byteOffset":51496,
			"target":34963
		},
		{
			"buffer":0,
			"byteLength":4,
			"byteOffset":51784
		},
		{
			"buffer":0,
			"byteLength":12,
			"byteOffset":51788
		},
		{
			"buffer":0,
			"byteLength":16,
			"byteOffset":51800
		},
		{
			"buffer":0,
			"byteLength":12,
			"byteOffset":51816
		},
		{
			"buffer":0,
			"byteLength":12,
			"byteOffset":51828
		},
		{
			"buffer":0,
			"byteLength":16,
			"byteOffset":51840
		},
		{
			"buffer":0,
			"byteLength":12,
			"byteOffset":51856
		}
	],
	"buffers":[
		{
			"byteLength":51868,
			"uri":"prison.bin"
		}
	]
}
