{
	"asset":{
		"generator":"Khronos glTF Blender I/O v3.6.27",
		"version":"2.0"
	},
	"scene":0,
	"scenes":[
		{
			"name":"Scene",
			"nodes":[
				0
			]
		}
	],
	"nodes":[
		{
			"mesh":0,
			"name":"Cylinder.001",
			"rotation":[
				0,
				0.7071068286895752,
				0,
				0.7071068286895752
			]
		}
	],
	"materials":[
		{
			"doubleSided":true,
			"name":"Material.003",
			"pbrMetallicRoughness":{
				"baseColorTexture":{
					"index":0
				},
				"metallicFactor":0
			}
		}
	],
	"meshes":[
		{
			"name":"Cylinder.001",
			"primitives":[
				{
					"attributes":{
						"POSITION":0,
						"NORMAL":1,
						"TEXCOORD_0":2
					},
					"indices":3,
					"material":0
				}
			]
		}
	],
	"textures":[
		{
			"sampler":0,
			"source":0
		}
	],
	"images":[
		{
			"mimeType":"image/png",
			"name":"torch.png",
			"uri":"textures/torch.png"
		}
	],
	"accessors":[
		{
			"bufferView":0,
			"componentType":5126,
			"count":290,
			"max":[
				0.03388504311442375,
				0.3986320495605469,
				0.036140140146017075
			],
			"min":[
				-0.037347737699747086,
				-0.15608234703540802,
				-0.03686612471938133
			],
			"type":"VEC3"
		},
		{
			"bufferView":1,
			"componentType":5126,
			"count":290,
			"type":"VEC3"
		},
		{
			"bufferView":2,
			"componentType":5126,
			"count":290,
			"type":"VEC2"
		},
		{
			"bufferView":3,
			"componentType":5123,
			"count":1119,
			"type":"SCALAR"
		}
	],
	"bufferViews":[
		{
			"buffer":0,
			"byteLength":3480,
			"byteOffset":0,
			"target":34962
		},
		{
			"buffer":0,
			"byteLength":3480,
			"byteOffset":3480,
			"target":34962
		},
		{
			"buffer":0,
			"byteLength":2320,
			"byteOffset":6960,
			"target":34962
		},
		{
			"buffer":0,
			"byteLength":2238,
			"byteOffset":9280,
			"target":34963
		}
	],
	"samplers":[
		{
			"magFilter":9729,
			"minFilter":9987
		}
	],
	"buffers":[
		{
			"byteLength":11520,
			"uri":"torch.bin"
		}
	]
}
