{
	"asset":{
		"generator":"Khronos glTF Blender I/O v3.5.30",
		"version":"2.0"
	},
	"scene":0,
	"scenes":[
		{
			"name":"Scene",
			"nodes":[
				0,
				1,
				2,
				3
			]
		}
	],
	"nodes":[
		{
			"mesh":0,
			"name":"Water1",
			"translation":[
				0,
				-6,
				0
			]
		},
		{
			"mesh":1,
			"name":"Water2",
			"translation":[
				200,
				-6,
				0
			]
		},
		{
			"mesh":2,
			"name":"Water3",
			"translation":[
				0,
				-6,
				-200
			]
		},
		{
			"mesh":3,
			"name":"Water4",
			"translation":[
				200,
				-6,
				-200
			]
		}
	],
	"meshes":[
		{
			"name":"Plane",
			"primitives":[
				{
					"attributes":{
						"POSITION":0,
						"TEXCOORD_0":1,
						"NORMAL":2
					},
					"indices":3
				}
			]
		},
		{
			"name":"Plane.001",
			"primitives":[
				{
					"attributes":{
						"POSITION":4,
						"TEXCOORD_0":5,
						"NORMAL":6
					},
					"indices":7
				}
			]
		},
		{
			"name":"Plane.002",
			"primitives":[
				{
					"attributes":{
						"POSITION":8,
						"TEXCOORD_0":9,
						"NORMAL":10
					},
					"indices":11
				}
			]
		},
		{
			"name":"Plane.003",
			"primitives":[
				{
					"attributes":{
						"POSITION":12,
						"TEXCOORD_0":13,
						"NORMAL":14
					},
					"indices":11
				}
			]
		}
	],
	"accessors":[
		{
			"bufferView":0,
			"componentType":5126,
			"count":10410,
			"max":[
				0,
				0,
				200
			],
			"min":[
				-200,
				0,
				0
			],
			"type":"VEC3"
		},
		{
			"bufferView":1,
			"componentType":5126,
			"count":10410,
			"type":"VEC2"
		},
		{
			"bufferView":2,
			"componentType":5126,
			"count":10410,
			"type":"VEC3"
		},
		{
			"bufferView":3,
			"componentType":5123,
			"count":61182,
			"type":"SCALAR"
		},
		{
			"bufferView":4,
			"componentType":5126,
			"count":10406,
			"max":[
				0,
				0,
				200
			],
			"min":[
				-200,
				0,
				0
			],
			"type":"VEC3"
		},
		{
			"bufferView":5,
			"componentType":5126,
			"count":10406,
			"type":"VEC2"
		},
		{
			"bufferView":6,
			"componentType":5126,
			"count":10406,
			"type":"VEC3"
		},
		{
			"bufferView":7,
			"componentType":5123,
			"count":61182,
			"type":"SCALAR"
		},
		{
			"bufferView":8,
			"componentType":5126,
			"count":10404,
			"max":[
				0,
				0,
				200
			],
			"min":[
				-200,
				0,
				0
			],
			"type":"VEC3"
		},
		{
			"bufferView":9,
			"componentType":5126,
			"count":10404,
			"type":"VEC2"
		},
		{
			"bufferView":10,
			"componentType":5126,
			"count":10404,
			"type":"VEC3"
		},
		{
			"bufferView":11,
			"componentType":5123,
			"count":61206,
			"type":"SCALAR"
		},
		{
			"bufferView":12,
			"componentType":5126,
			"count":10404,
			"max":[
				0,
				0,
				200
			],
			"min":[
				-200,
				0,
				0
			],
			"type":"VEC3"
		},
		{
			"bufferView":13,
			"componentType":5126,
			"count":10404,
			"type":"VEC2"
		},
		{
			"bufferView":14,
			"componentType":5126,
			"count":10404,
			"type":"VEC3"
		}
	],
	"bufferViews":[
		{
			"buffer":0,
			"byteLength":124920,
			"byteOffset":0,
			"target":34962
		},
		{
			"buffer":0,
			"byteLength":83280,
			"byteOffset":124920,
			"target":34962
		},
		{
			"buffer":0,
			"byteLength":124920,
			"byteOffset":208200,
			"target":34962
		},
		{
			"buffer":0,
			"byteLength":122364,
			"byteOffset":333120,
			"target":34963
		},
		{
			"buffer":0,
			"byteLength":124872,
			"byteOffset":455484,
			"target":34962
		},
		{
			"buffer":0,
			"byteLength":83248,
			"byteOffset":580356,
			"target":34962
		},
		{
			"buffer":0,
			"byteLength":124872,
			"byteOffset":663604,
			"target":34962
		},
		{
			"buffer":0,
			"byteLength":122364,
			"byteOffset":788476,
			"target":34963
		},
		{
			"buffer":0,
			"byteLength":124848,
			"byteOffset":910840,
			"target":34962
		},
		{
			"buffer":0,
			"byteLength":83232,
			"byteOffset":1035688,
			"target":34962
		},
		{
			"buffer":0,
			"byteLength":124848,
			"byteOffset":1118920,
			"target":34962
		},
		{
			"buffer":0,
			"byteLength":122412,
			"byteOffset":1243768,
			"target":34963
		},
		{
			"buffer":0,
			"byteLength":124848,
			"byteOffset":1366180,
			"target":34962
		},
		{
			"buffer":0,
			"byteLength":83232,
			"byteOffset":1491028,
			"target":34962
		},
		{
			"buffer":0,
			"byteLength":124848,
			"byteOffset":1574260,
			"target":34962
		}
	],
	"buffers":[
		{
			"byteLength":1699108,
			"uri":"testmap2_water.bin"
		}
	]
}
