{
	"asset":{
		"generator":"Khronos glTF Blender I/O v3.6.27",
		"version":"2.0"
	},
	"scene":0,
	"scenes":[
		{
			"name":"Scene",
			"nodes":[
				0
			]
		}
	],
	"nodes":[
		{
			"mesh":0,
			"name":"Cube.001"
		}
	],
	"materials":[
		{
			"doubleSided":true,
			"name":"Material",
			"pbrMetallicRoughness":{
				"baseColorFactor":[
					0.14835670590400696,
					0.12641018629074097,
					0.12398390471935272,
					1
				],
				"roughnessFactor":0.6062992811203003
			}
		}
	],
	"meshes":[
		{
			"name":"Mesh",
			"primitives":[
				{
					"attributes":{
						"POSITION":0,
						"NORMAL":1,
						"TEXCOORD_0":2
					},
					"indices":3,
					"material":0
				}
			]
		}
	],
	"accessors":[
		{
			"bufferView":0,
			"componentType":5126,
			"count":1033,
			"max":[
				0.09340739995241165,
				0.061020057648420334,
				0.16011950373649597
			],
			"min":[
				-0.09340739995241165,
				-0.05499672144651413,
				-0.06759896129369736
			],
			"type":"VEC3"
		},
		{
			"bufferView":1,
			"componentType":5126,
			"count":1033,
			"type":"VEC3"
		},
		{
			"bufferView":2,
			"componentType":5126,
			"count":1033,
			"type":"VEC2"
		},
		{
			"bufferView":3,
			"componentType":5123,
			"count":4488,
			"type":"SCALAR"
		}
	],
	"bufferViews":[
		{
			"buffer":0,
			"byteLength":12396,
			"byteOffset":0,
			"target":34962
		},
		{
			"buffer":0,
			"byteLength":12396,
			"byteOffset":12396,
			"target":34962
		},
		{
			"buffer":0,
			"byteLength":8264,
			"byteOffset":24792,
			"target":34962
		},
		{
			"buffer":0,
			"byteLength":8976,
			"byteOffset":33056,
			"target":34963
		}
	],
	"buffers":[
		{
			"byteLength":42032,
			"uri":"iron_sabatons.bin"
		}
	]
}
