{
	"asset":{
		"generator":"Khronos glTF Blender I/O v3.5.30",
		"version":"2.0"
	},
	"scene":0,
	"scenes":[
		{
			"name":"Scene",
			"nodes":[
				0,
				1
			]
		}
	],
	"nodes":[
		{
			"mesh":0,
			"name":"Cylinder",
			"scale":[
				2,
				2,
				2
			]
		},
		{
			"mesh":1,
			"name":"Icosphere",
			"scale":[
				2,
				2,
				2
			]
		}
	],
	"materials":[
		{
			"doubleSided":true,
			"name":"Material.001",
			"pbrMetallicRoughness":{
				"baseColorFactor":[
					0.20189310610294342,
					0.09646329283714294,
					0.052513398230075836,
					1
				],
				"metallicFactor":0
			}
		},
		{
			"doubleSided":true,
			"name":"Material.002",
			"pbrMetallicRoughness":{
				"baseColorFactor":[
					0.3302554786205292,
					0.539479672908783,
					0.10773753374814987,
					1
				],
				"metallicFactor":0
			}
		}
	],
	"meshes":[
		{
			"name":"Cylinder",
			"primitives":[
				{
					"attributes":{
						"POSITION":0,
						"TEXCOORD_0":1,
						"NORMAL":2
					},
					"indices":3,
					"material":0
				}
			]
		},
		{
			"name":"Icosphere",
			"primitives":[
				{
					"attributes":{
						"POSITION":4,
						"TEXCOORD_0":5,
						"NORMAL":6
					},
					"indices":7,
					"material":1
				}
			]
		}
	],
	"accessors":[
		{
			"bufferView":0,
			"componentType":5126,
			"count":246,
			"max":[
				1.7064465284347534,
				4.863974094390869,
				0.9113372564315796
			],
			"min":[
				-1.1265112161636353,
				-0.567725658416748,
				-1.8552402257919312
			],
			"type":"VEC3"
		},
		{
			"bufferView":1,
			"componentType":5126,
			"count":246,
			"type":"VEC2"
		},
		{
			"bufferView":2,
			"componentType":5126,
			"count":246,
			"type":"VEC3"
		},
		{
			"bufferView":3,
			"componentType":5123,
			"count":1296,
			"type":"SCALAR"
		},
		{
			"bufferView":4,
			"componentType":5126,
			"count":2050,
			"max":[
				2.656935930252075,
				6.008637428283691,
				1.8682535886764526
			],
			"min":[
				-2.108839988708496,
				1.890985369682312,
				-2.8594141006469727
			],
			"type":"VEC3"
		},
		{
			"bufferView":5,
			"componentType":5126,
			"count":2050,
			"type":"VEC2"
		},
		{
			"bufferView":6,
			"componentType":5126,
			"count":2050,
			"type":"VEC3"
		},
		{
			"bufferView":7,
			"componentType":5123,
			"count":9600,
			"type":"SCALAR"
		}
	],
	"bufferViews":[
		{
			"buffer":0,
			"byteLength":2952,
			"byteOffset":0,
			"target":34962
		},
		{
			"buffer":0,
			"byteLength":1968,
			"byteOffset":2952,
			"target":34962
		},
		{
			"buffer":0,
			"byteLength":2952,
			"byteOffset":4920,
			"target":34962
		},
		{
			"buffer":0,
			"byteLength":2592,
			"byteOffset":7872,
			"target":34963
		},
		{
			"buffer":0,
			"byteLength":24600,
			"byteOffset":10464,
			"target":34962
		},
		{
			"buffer":0,
			"byteLength":16400,
			"byteOffset":35064,
			"target":34962
		},
		{
			"buffer":0,
			"byteLength":24600,
			"byteOffset":51464,
			"target":34962
		},
		{
			"buffer":0,
			"byteLength":19200,
			"byteOffset":76064,
			"target":34963
		}
	],
	"buffers":[
		{
			"byteLength":95264,
			"uri":"tree.bin"
		}
	]
}
