{
	"asset":{
		"generator":"Khronos glTF Blender I/O v3.5.30",
		"version":"2.0"
	},
	"scene":0,
	"scenes":[
		{
			"name":"Scene",
			"nodes":[
				0,
				1
			]
		}
	],
	"nodes":[
		{
			"mesh":0,
			"name":"Cylinder",
			"scale":[
				2,
				2,
				2
			]
		},
		{
			"mesh":1,
			"name":"Icosphere",
			"scale":[
				2,
				2,
				2
			]
		}
	],
	"animations":[
		{
			"channels":[
				{
					"sampler":0,
					"target":{
						"node":0,
						"path":"translation"
					}
				},
				{
					"sampler":1,
					"target":{
						"node":0,
						"path":"rotation"
					}
				},
				{
					"sampler":2,
					"target":{
						"node":0,
						"path":"scale"
					}
				}
			],
			"name":"Cylinder",
			"samplers":[
				{
					"input":8,
					"interpolation":"LINEAR",
					"output":9
				},
				{
					"input":8,
					"interpolation":"LINEAR",
					"output":10
				},
				{
					"input":8,
					"interpolation":"LINEAR",
					"output":11
				}
			]
		},
		{
			"channels":[
				{
					"sampler":0,
					"target":{
						"node":1,
						"path":"translation"
					}
				},
				{
					"sampler":1,
					"target":{
						"node":1,
						"path":"rotation"
					}
				},
				{
					"sampler":2,
					"target":{
						"node":1,
						"path":"scale"
					}
				}
			],
			"name":"Icosphere",
			"samplers":[
				{
					"input":8,
					"interpolation":"LINEAR",
					"output":12
				},
				{
					"input":8,
					"interpolation":"LINEAR",
					"output":13
				},
				{
					"input":8,
					"interpolation":"LINEAR",
					"output":14
				}
			]
		}
	],
	"materials":[
		{
			"doubleSided":true,
			"name":"Material.001",
			"pbrMetallicRoughness":{
				"baseColorFactor":[
					0.20189310610294342,
					0.09646329283714294,
					0.052513398230075836,
					1
				],
				"metallicFactor":0
			}
		},
		{
			"doubleSided":true,
			"name":"Material.002",
			"pbrMetallicRoughness":{
				"baseColorFactor":[
					0.3302554786205292,
					0.539479672908783,
					0.10773753374814987,
					1
				],
				"metallicFactor":0
			}
		}
	],
	"meshes":[
		{
			"name":"Cylinder",
			"primitives":[
				{
					"attributes":{
						"POSITION":0,
						"TEXCOORD_0":1,
						"NORMAL":2
					},
					"indices":3,
					"material":0
				}
			]
		},
		{
			"name":"Icosphere",
			"primitives":[
				{
					"attributes":{
						"POSITION":4,
						"TEXCOORD_0":5,
						"NORMAL":6
					},
					"indices":7,
					"material":1
				}
			]
		}
	],
	"accessors":[
		{
			"bufferView":0,
			"componentType":5126,
			"count":2087,
			"max":[
				1.7204034328460693,
				4.863974094390869,
				1.0196092128753662
			],
			"min":[
				-1.1265112161636353,
				-0.567725658416748,
				-1.8592909574508667
			],
			"type":"VEC3"
		},
		{
			"bufferView":1,
			"componentType":5126,
			"count":2087,
			"type":"VEC2"
		},
		{
			"bufferView":2,
			"componentType":5126,
			"count":2087,
			"type":"VEC3"
		},
		{
			"bufferView":3,
			"componentType":5123,
			"count":3144,
			"type":"SCALAR"
		},
		{
			"bufferView":4,
			"componentType":5126,
			"count":9600,
			"max":[
				2.656935930252075,
				6.008637428283691,
				1.8682535886764526
			],
			"min":[
				-2.108839988708496,
				1.890985369682312,
				-2.8594141006469727
			],
			"type":"VEC3"
		},
		{
			"bufferView":5,
			"componentType":5126,
			"count":9600,
			"type":"VEC2"
		},
		{
			"bufferView":6,
			"componentType":5126,
			"count":9600,
			"type":"VEC3"
		},
		{
			"bufferView":7,
			"componentType":5123,
			"count":9600,
			"type":"SCALAR"
		},
		{
			"bufferView":8,
			"componentType":5126,
			"count":24,
			"max":[
				1
			],
			"min":[
				0.041666666666666664
			],
			"type":"SCALAR"
		},
		{
			"bufferView":9,
			"componentType":5126,
			"count":24,
			"type":"VEC3"
		},
		{
			"bufferView":10,
			"componentType":5126,
			"count":24,
			"type":"VEC4"
		},
		{
			"bufferView":11,
			"componentType":5126,
			"count":24,
			"type":"VEC3"
		},
		{
			"bufferView":12,
			"componentType":5126,
			"count":24,
			"type":"VEC3"
		},
		{
			"bufferView":13,
			"componentType":5126,
			"count":24,
			"type":"VEC4"
		},
		{
			"bufferView":14,
			"componentType":5126,
			"count":24,
			"type":"VEC3"
		}
	],
	"bufferViews":[
		{
			"buffer":0,
			"byteLength":25044,
			"byteOffset":0,
			"target":34962
		},
		{
			"buffer":0,
			"byteLength":16696,
			"byteOffset":25044,
			"target":34962
		},
		{
			"buffer":0,
			"byteLength":25044,
			"byteOffset":41740,
			"target":34962
		},
		{
			"buffer":0,
			"byteLength":6288,
			"byteOffset":66784,
			"target":34963
		},
		{
			"buffer":0,
			"byteLength":115200,
			"byteOffset":73072,
			"target":34962
		},
		{
			"buffer":0,
			"byteLength":76800,
			"byteOffset":188272,
			"target":34962
		},
		{
			"buffer":0,
			"byteLength":115200,
			"byteOffset":265072,
			"target":34962
		},
		{
			"buffer":0,
			"byteLength":19200,
			"byteOffset":380272,
			"target":34963
		},
		{
			"buffer":0,
			"byteLength":96,
			"byteOffset":399472
		},
		{
			"buffer":0,
			"byteLength":288,
			"byteOffset":399568
		},
		{
			"buffer":0,
			"byteLength":384,
			"byteOffset":399856
		},
		{
			"buffer":0,
			"byteLength":288,
			"byteOffset":400240
		},
		{
			"buffer":0,
			"byteLength":288,
			"byteOffset":400528
		},
		{
			"buffer":0,
			"byteLength":384,
			"byteOffset":400816
		},
		{
			"buffer":0,
			"byteLength":288,
			"byteOffset":401200
		}
	],
	"buffers":[
		{
			"byteLength":401488,
			"uri":"tree.bin"
		}
	]
}
