{
	"asset":{
		"generator":"Khronos glTF Blender I/O v3.6.27",
		"version":"2.0"
	},
	"scene":0,
	"scenes":[
		{
			"name":"Scene",
			"nodes":[
				0,
				1
			]
		}
	],
	"nodes":[
		{
			"mesh":0,
			"name":"Cube"
		},
		{
			"mesh":1,
			"name":"Cube.002"
		}
	],
	"materials":[
		{
			"doubleSided":true,
			"name":"Material.001",
			"pbrMetallicRoughness":{
				"baseColorTexture":{
					"index":0
				},
				"metallicRoughnessTexture":{
					"index":1
				}
			}
		}
	],
	"meshes":[
		{
			"name":"Cube",
			"primitives":[
				{
					"attributes":{
						"POSITION":0,
						"NORMAL":1,
						"TEXCOORD_0":2
					},
					"indices":3,
					"material":0
				}
			]
		},
		{
			"name":"Cube.002",
			"primitives":[
				{
					"attributes":{
						"POSITION":4,
						"NORMAL":5,
						"TEXCOORD_0":6
					},
					"indices":7,
					"material":0
				}
			]
		}
	],
	"textures":[
		{
			"sampler":0,
			"source":0
		},
		{
			"sampler":0,
			"source":1
		}
	],
	"images":[
		{
			"mimeType":"image/png",
			"name":"lever.png",
			"uri":"lever.png"
		},
		{
			"mimeType":"image/png",
			"name":"lever_roughness.png",
			"uri":"lever_roughness.png"
		}
	],
	"accessors":[
		{
			"bufferView":0,
			"componentType":5126,
			"count":205,
			"max":[
				0.14972111582756042,
				0.25,
				0.17786845564842224
			],
			"min":[
				-0.1497211456298828,
				-0.25,
				0
			],
			"type":"VEC3"
		},
		{
			"bufferView":1,
			"componentType":5126,
			"count":205,
			"type":"VEC3"
		},
		{
			"bufferView":2,
			"componentType":5126,
			"count":205,
			"type":"VEC2"
		},
		{
			"bufferView":3,
			"componentType":5123,
			"count":612,
			"type":"SCALAR"
		},
		{
			"bufferView":4,
			"componentType":5126,
			"count":270,
			"max":[
				0.025814145803451538,
				0.025814145803451538,
				0.543481707572937
			],
			"min":[
				-0.025814175605773926,
				-0.025814175605773926,
				0.03064143657684326
			],
			"type":"VEC3"
		},
		{
			"bufferView":5,
			"componentType":5126,
			"count":270,
			"type":"VEC3"
		},
		{
			"bufferView":6,
			"componentType":5126,
			"count":270,
			"type":"VEC2"
		},
		{
			"bufferView":7,
			"componentType":5123,
			"count":1050,
			"type":"SCALAR"
		}
	],
	"bufferViews":[
		{
			"buffer":0,
			"byteLength":2460,
			"byteOffset":0,
			"target":34962
		},
		{
			"buffer":0,
			"byteLength":2460,
			"byteOffset":2460,
			"target":34962
		},
		{
			"buffer":0,
			"byteLength":1640,
			"byteOffset":4920,
			"target":34962
		},
		{
			"buffer":0,
			"byteLength":1224,
			"byteOffset":6560,
			"target":34963
		},
		{
			"buffer":0,
			"byteLength":3240,
			"byteOffset":7784,
			"target":34962
		},
		{
			"buffer":0,
			"byteLength":3240,
			"byteOffset":11024,
			"target":34962
		},
		{
			"buffer":0,
			"byteLength":2160,
			"byteOffset":14264,
			"target":34962
		},
		{
			"buffer":0,
			"byteLength":2100,
			"byteOffset":16424,
			"target":34963
		}
	],
	"samplers":[
		{
			"magFilter":9729,
			"minFilter":9987
		}
	],
	"buffers":[
		{
			"byteLength":18524,
			"uri":"lever.bin"
		}
	]
}
