{
	"asset":{
		"generator":"Khronos glTF Blender I/O v3.6.27",
		"version":"2.0"
	},
	"scene":0,
	"scenes":[
		{
			"name":"Scene",
			"nodes":[
				0
			]
		}
	],
	"nodes":[
		{
			"mesh":0,
			"name":"Cube"
		}
	],
	"materials":[
		{
			"doubleSided":true,
			"name":"Material.001",
			"normalTexture":{
				"index":0
			},
			"pbrMetallicRoughness":{
				"baseColorTexture":{
					"index":1
				},
				"metallicRoughnessTexture":{
					"index":2
				}
			}
		}
	],
	"meshes":[
		{
			"name":"Cube.001",
			"primitives":[
				{
					"attributes":{
						"POSITION":0,
						"NORMAL":1,
						"TEXCOORD_0":2
					},
					"indices":3,
					"material":0
				}
			]
		}
	],
	"textures":[
		{
			"sampler":0,
			"source":0
		},
		{
			"sampler":0,
			"source":1
		},
		{
			"sampler":0,
			"source":2
		}
	],
	"images":[
		{
			"mimeType":"image/png",
			"name":"Material.001_normal.png",
			"uri":"textures/Material.001_normal.png"
		},
		{
			"mimeType":"image/png",
			"name":"Material.001_baseColor.png",
			"uri":"textures/Material.001_baseColor.png"
		},
		{
			"mimeType":"image/png",
			"name":"Material.001_occlusionRoughnessMetallic.png",
			"uri":"textures/Material.001_occlusionRoughnessMetallic.png"
		}
	],
	"accessors":[
		{
			"bufferView":0,
			"componentType":5126,
			"count":1643,
			"max":[
				0.019060276448726654,
				0.38979437947273254,
				0.022341569885611534
			],
			"min":[
				-0.02941804938018322,
				-0.24026930332183838,
				-0.025465521961450577
			],
			"type":"VEC3"
		},
		{
			"bufferView":1,
			"componentType":5126,
			"count":1643,
			"type":"VEC3"
		},
		{
			"bufferView":2,
			"componentType":5126,
			"count":1643,
			"type":"VEC2"
		},
		{
			"bufferView":3,
			"componentType":5123,
			"count":9642,
			"type":"SCALAR"
		}
	],
	"bufferViews":[
		{
			"buffer":0,
			"byteLength":19716,
			"byteOffset":0,
			"target":34962
		},
		{
			"buffer":0,
			"byteLength":19716,
			"byteOffset":19716,
			"target":34962
		},
		{
			"buffer":0,
			"byteLength":13144,
			"byteOffset":39432,
			"target":34962
		},
		{
			"buffer":0,
			"byteLength":19284,
			"byteOffset":52576,
			"target":34963
		}
	],
	"samplers":[
		{
			"magFilter":9729,
			"minFilter":9987
		}
	],
	"buffers":[
		{
			"byteLength":71860,
			"uri":"oak_staff.bin"
		}
	]
}
