{
	"asset":{
		"generator":"Khronos glTF Blender I/O v3.5.30",
		"version":"2.0"
	},
	"scene":0,
	"scenes":[
		{
			"name":"Scene",
			"nodes":[
				0
			]
		}
	],
	"nodes":[
		{
			"mesh":0,
			"name":"Cube"
		}
	],
	"materials":[
		{
			"doubleSided":true,
			"name":"Material.001",
			"normalTexture":{
				"index":0
			},
			"pbrMetallicRoughness":{
				"baseColorTexture":{
					"index":1
				},
				"metallicRoughnessTexture":{
					"index":2
				}
			}
		}
	],
	"meshes":[
		{
			"name":"Cube.001",
			"primitives":[
				{
					"attributes":{
						"POSITION":0,
						"TEXCOORD_0":1,
						"NORMAL":2
					},
					"indices":3,
					"material":0
				}
			]
		}
	],
	"textures":[
		{
			"sampler":0,
			"source":0
		},
		{
			"sampler":0,
			"source":1
		},
		{
			"sampler":0,
			"source":2
		}
	],
	"images":[
		{
			"mimeType":"image/png",
			"name":"Material.001_normal.png",
			"uri":"textures/Material.001_normal.png"
		},
		{
			"mimeType":"image/png",
			"name":"Material.001_baseColor.png",
			"uri":"textures/Material.001_baseColor.png"
		},
		{
			"mimeType":"image/png",
			"name":"Material.001_occlusionRoughnessMetallic.png",
			"uri":"textures/Material.001_occlusionRoughnessMetallic.png"
		}
	],
	"accessors":[
		{
			"bufferView":0,
			"componentType":5126,
			"count":4217,
			"max":[
				0.07398603856563568,
				0.7434449195861816,
				0.0681082233786583
			],
			"min":[
				-0.07106906175613403,
				-0.24026930332183838,
				-0.06532833725214005
			],
			"type":"VEC3"
		},
		{
			"bufferView":1,
			"componentType":5126,
			"count":4217,
			"type":"VEC2"
		},
		{
			"bufferView":2,
			"componentType":5126,
			"count":4217,
			"type":"VEC3"
		},
		{
			"bufferView":3,
			"componentType":5123,
			"count":24768,
			"type":"SCALAR"
		}
	],
	"bufferViews":[
		{
			"buffer":0,
			"byteLength":50604,
			"byteOffset":0,
			"target":34962
		},
		{
			"buffer":0,
			"byteLength":33736,
			"byteOffset":50604,
			"target":34962
		},
		{
			"buffer":0,
			"byteLength":50604,
			"byteOffset":84340,
			"target":34962
		},
		{
			"buffer":0,
			"byteLength":49536,
			"byteOffset":134944,
			"target":34963
		}
	],
	"samplers":[
		{
			"magFilter":9729,
			"minFilter":9987
		}
	],
	"buffers":[
		{
			"byteLength":184480,
			"uri":"oak_staff.bin"
		}
	]
}
