{
	"asset":{
		"generator":"Khronos glTF Blender I/O v3.5.30",
		"version":"2.0"
	},
	"scene":0,
	"scenes":[
		{
			"name":"Scene",
			"nodes":[
				0
			]
		}
	],
	"nodes":[
		{
			"mesh":0,
			"name":"Grip",
			"scale":[
				0.799825131893158,
				1,
				1
			]
		}
	],
	"materials":[
		{
			"doubleSided":true,
			"name":"Grip",
			"pbrMetallicRoughness":{
				"baseColorFactor":[
					0.08713914453983307,
					0.043227843940258026,
					0.02593625709414482,
					1
				],
				"metallicFactor":0,
				"roughnessFactor":0.5
			}
		},
		{
			"doubleSided":true,
			"name":"Blade",
			"pbrMetallicRoughness":{
				"baseColorFactor":[
					0.800000011920929,
					0.800000011920929,
					0.800000011920929,
					1
				],
				"roughnessFactor":0.03174601495265961
			}
		}
	],
	"meshes":[
		{
			"name":"Cylinder.003",
			"primitives":[
				{
					"attributes":{
						"POSITION":0,
						"TEXCOORD_0":1,
						"NORMAL":2
					},
					"indices":3,
					"material":0
				},
				{
					"attributes":{
						"POSITION":4,
						"TEXCOORD_0":5,
						"NORMAL":6
					},
					"indices":7,
					"material":1
				}
			]
		}
	],
	"accessors":[
		{
			"bufferView":0,
			"componentType":5126,
			"count":388,
			"max":[
				0.015044257044792175,
				0.3830128312110901,
				0.012216614559292793
			],
			"min":[
				-0.015044252388179302,
				-0.16800665855407715,
				-0.012216614559292793
			],
			"type":"VEC3"
		},
		{
			"bufferView":1,
			"componentType":5126,
			"count":388,
			"type":"VEC2"
		},
		{
			"bufferView":2,
			"componentType":5126,
			"count":388,
			"type":"VEC3"
		},
		{
			"bufferView":3,
			"componentType":5123,
			"count":1524,
			"type":"SCALAR"
		},
		{
			"bufferView":4,
			"componentType":5126,
			"count":220,
			"max":[
				0.017198113724589348,
				0.35792309045791626,
				0.01396564207971096
			],
			"min":[
				-0.11756407469511032,
				0.23790282011032104,
				-0.01396564207971096
			],
			"type":"VEC3"
		},
		{
			"bufferView":5,
			"componentType":5126,
			"count":220,
			"type":"VEC2"
		},
		{
			"bufferView":6,
			"componentType":5126,
			"count":220,
			"type":"VEC3"
		},
		{
			"bufferView":7,
			"componentType":5123,
			"count":780,
			"type":"SCALAR"
		}
	],
	"bufferViews":[
		{
			"buffer":0,
			"byteLength":4656,
			"byteOffset":0,
			"target":34962
		},
		{
			"buffer":0,
			"byteLength":3104,
			"byteOffset":4656,
			"target":34962
		},
		{
			"buffer":0,
			"byteLength":4656,
			"byteOffset":7760,
			"target":34962
		},
		{
			"buffer":0,
			"byteLength":3048,
			"byteOffset":12416,
			"target":34963
		},
		{
			"buffer":0,
			"byteLength":2640,
			"byteOffset":15464,
			"target":34962
		},
		{
			"buffer":0,
			"byteLength":1760,
			"byteOffset":18104,
			"target":34962
		},
		{
			"buffer":0,
			"byteLength":2640,
			"byteOffset":19864,
			"target":34962
		},
		{
			"buffer":0,
			"byteLength":1560,
			"byteOffset":22504,
			"target":34963
		}
	],
	"buffers":[
		{
			"byteLength":24064,
			"uri":"axe.bin"
		}
	]
}
