{
	"asset":{
		"generator":"Khronos glTF Blender I/O v3.6.27",
		"version":"2.0"
	},
	"scene":0,
	"scenes":[
		{
			"name":"Scene",
			"nodes":[
				0
			]
		}
	],
	"nodes":[
		{
			"mesh":0,
			"name":"Cube.001"
		}
	],
	"materials":[
		{
			"doubleSided":true,
			"name":"Material",
			"pbrMetallicRoughness":{
				"baseColorFactor":[
					0.16264241933822632,
					0.07082951813936234,
					0.049950577318668365,
					1
				],
				"metallicFactor":0,
				"roughnessFactor":0.6850394010543823
			}
		}
	],
	"meshes":[
		{
			"name":"Mesh",
			"primitives":[
				{
					"attributes":{
						"POSITION":0,
						"NORMAL":1,
						"TEXCOORD_0":2
					},
					"indices":3,
					"material":0
				}
			]
		}
	],
	"accessors":[
		{
			"bufferView":0,
			"componentType":5126,
			"count":975,
			"max":[
				0.09316087514162064,
				0.06159726157784462,
				0.13458189368247986
			],
			"min":[
				-0.09316088259220123,
				-0.05432198569178581,
				-0.06201507896184921
			],
			"type":"VEC3"
		},
		{
			"bufferView":1,
			"componentType":5126,
			"count":975,
			"type":"VEC3"
		},
		{
			"bufferView":2,
			"componentType":5126,
			"count":975,
			"type":"VEC2"
		},
		{
			"bufferView":3,
			"componentType":5123,
			"count":4200,
			"type":"SCALAR"
		}
	],
	"bufferViews":[
		{
			"buffer":0,
			"byteLength":11700,
			"byteOffset":0,
			"target":34962
		},
		{
			"buffer":0,
			"byteLength":11700,
			"byteOffset":11700,
			"target":34962
		},
		{
			"buffer":0,
			"byteLength":7800,
			"byteOffset":23400,
			"target":34962
		},
		{
			"buffer":0,
			"byteLength":8400,
			"byteOffset":31200,
			"target":34963
		}
	],
	"buffers":[
		{
			"byteLength":39600,
			"uri":"leather_boots.bin"
		}
	]
}
