{
	"asset":{
		"generator":"Khronos glTF Blender I/O v3.6.27",
		"version":"2.0"
	},
	"scene":0,
	"scenes":[
		{
			"name":"Scene",
			"nodes":[
				0,
				1,
				2,
				3
			]
		}
	],
	"nodes":[
		{
			"mesh":0,
			"name":"Cylinder",
			"scale":[
				1.629983901977539,
				1.629983901977539,
				1.629983901977539
			],
			"translation":[
				0,
				0.6816574335098267,
				0
			]
		},
		{
			"mesh":1,
			"name":"Sphere",
			"scale":[
				0.40749597549438477,
				0.40749597549438477,
				0.40749597549438477
			]
		},
		{
			"mesh":2,
			"name":"Cube",
			"scale":[
				1.629983901977539,
				1.629983901977539,
				1.629983901977539
			]
		},
		{
			"mesh":3,
			"name":"Circle",
			"rotation":[
				0.0026232474483549595,
				0,
				0,
				0.9999966621398926
			],
			"scale":[
				1.629983901977539,
				1.6299840211868286,
				1.6299840211868286
			],
			"translation":[
				0,
				1.5023170709609985,
				0.21161474287509918
			]
		}
	],
	"materials":[
		{
			"doubleSided":true,
			"name":"Material",
			"pbrMetallicRoughness":{
				"baseColorFactor":[
					0.02922333963215351,
					0.008727065287530422,
					0.007970694452524185,
					1
				],
				"metallicFactor":0,
				"roughnessFactor":0.7146892547607422
			}
		},
		{
			"doubleSided":true,
			"name":"Material.001",
			"pbrMetallicRoughness":{
				"baseColorFactor":[
					0.45517224073410034,
					0.27193352580070496,
					0.10695251822471619,
					1
				],
				"metallicFactor":0,
				"roughnessFactor":0.5
			}
		},
		{
			"doubleSided":true,
			"name":"Material.002",
			"pbrMetallicRoughness":{
				"baseColorFactor":[
					0.5241377949714661,
					0.02542033977806568,
					0.015157687477767467,
					1
				],
				"metallicFactor":0,
				"roughnessFactor":0.5
			}
		}
	],
	"meshes":[
		{
			"name":"Cylinder",
			"primitives":[
				{
					"attributes":{
						"POSITION":0,
						"NORMAL":1,
						"TEXCOORD_0":2
					},
					"indices":3,
					"material":0
				}
			]
		},
		{
			"name":"Sphere",
			"primitives":[
				{
					"attributes":{
						"POSITION":4,
						"NORMAL":5,
						"TEXCOORD_0":6
					},
					"indices":7,
					"material":0
				}
			]
		},
		{
			"name":"Cube",
			"primitives":[
				{
					"attributes":{
						"POSITION":8,
						"NORMAL":9,
						"TEXCOORD_0":10
					},
					"indices":11,
					"material":1
				}
			]
		},
		{
			"name":"Circle",
			"primitives":[
				{
					"attributes":{
						"POSITION":12,
						"NORMAL":13
					},
					"indices":14,
					"material":2
				}
			]
		}
	],
	"accessors":[
		{
			"bufferView":0,
			"componentType":5126,
			"count":192,
			"max":[
				0.020000023767352104,
				0.19999980926513672,
				0.02000001072883606
			],
			"min":[
				-0.01999998278915882,
				-0.20000028610229492,
				-0.02000001072883606
			],
			"type":"VEC3"
		},
		{
			"bufferView":1,
			"componentType":5126,
			"count":192,
			"type":"VEC3"
		},
		{
			"bufferView":2,
			"componentType":5126,
			"count":192,
			"type":"VEC2"
		},
		{
			"bufferView":3,
			"componentType":5123,
			"count":372,
			"type":"SCALAR"
		},
		{
			"bufferView":4,
			"componentType":5126,
			"count":256,
			"max":[
				1,
				0.9568474292755127,
				1
			],
			"min":[
				-0.9999999403953552,
				-0.04315260052680969,
				-1
			],
			"type":"VEC3"
		},
		{
			"bufferView":5,
			"componentType":5126,
			"count":256,
			"type":"VEC3"
		},
		{
			"bufferView":6,
			"componentType":5126,
			"count":256,
			"type":"VEC2"
		},
		{
			"bufferView":7,
			"componentType":5123,
			"count":378,
			"type":"SCALAR"
		},
		{
			"bufferView":8,
			"componentType":5126,
			"count":256,
			"max":[
				0.390080064535141,
				1.4624489545822144,
				0.13075938820838928
			],
			"min":[
				-0.390080064535141,
				0.5836937427520752,
				-0.13075938820838928
			],
			"type":"VEC3"
		},
		{
			"bufferView":9,
			"componentType":5126,
			"count":256,
			"type":"VEC3"
		},
		{
			"bufferView":10,
			"componentType":5126,
			"count":256,
			"type":"VEC2"
		},
		{
			"bufferView":11,
			"componentType":5123,
			"count":384,
			"type":"SCALAR"
		},
		{
			"bufferView":12,
			"componentType":5126,
			"count":768,
			"max":[
				0.13565152883529663,
				0.13370852172374725,
				0.005253029055893421
			],
			"min":[
				-0.13565154373645782,
				-0.13759459555149078,
				-0.021242719143629074
			],
			"type":"VEC3"
		},
		{
			"bufferView":13,
			"componentType":5126,
			"count":768,
			"type":"VEC3"
		},
		{
			"bufferView":14,
			"componentType":5123,
			"count":1536,
			"type":"SCALAR"
		}
	],
	"bufferViews":[
		{
			"buffer":0,
			"byteLength":2304,
			"byteOffset":0,
			"target":34962
		},
		{
			"buffer":0,
			"byteLength":2304,
			"byteOffset":2304,
			"target":34962
		},
		{
			"buffer":0,
			"byteLength":1536,
			"byteOffset":4608,
			"target":34962
		},
		{
			"buffer":0,
			"byteLength":744,
			"byteOffset":6144,
			"target":34963
		},
		{
			"buffer":0,
			"byteLength":3072,
			"byteOffset":6888,
			"target":34962
		},
		{
			"buffer":0,
			"byteLength":3072,
			"byteOffset":9960,
			"target":34962
		},
		{
			"buffer":0,
			"byteLength":2048,
			"byteOffset":13032,
			"target":34962
		},
		{
			"buffer":0,
			"byteLength":756,
			"byteOffset":15080,
			"target":34963
		},
		{
			"buffer":0,
			"byteLength":3072,
			"byteOffset":15836,
			"target":34962
		},
		{
			"buffer":0,
			"byteLength":3072,
			"byteOffset":18908,
			"target":34962
		},
		{
			"buffer":0,
			"byteLength":2048,
			"byteOffset":21980,
			"target":34962
		},
		{
			"buffer":0,
			"byteLength":768,
			"byteOffset":24028,
			"target":34963
		},
		{
			"buffer":0,
			"byteLength":9216,
			"byteOffset":24796,
			"target":34962
		},
		{
			"buffer":0,
			"byteLength":9216,
			"byteOffset":34012,
			"target":34962
		},
		{
			"buffer":0,
			"byteLength":3072,
			"byteOffset":43228,
			"target":34963
		}
	],
	"buffers":[
		{
			"byteLength":46300,
			"uri":"target_dummy.bin"
		}
	]
}
