{
	"asset":{
		"generator":"Khronos glTF Blender I/O v3.6.27",
		"version":"2.0"
	},
	"scene":0,
	"scenes":[
		{
			"name":"Scene",
			"nodes":[
				0
			]
		}
	],
	"nodes":[
		{
			"mesh":0,
			"name":"Cylinder.004"
		}
	],
	"materials":[
		{
			"doubleSided":true,
			"name":"Material",
			"normalTexture":{
				"index":0
			},
			"pbrMetallicRoughness":{
				"baseColorTexture":{
					"index":1
				},
				"metallicRoughnessTexture":{
					"index":2
				}
			}
		}
	],
	"meshes":[
		{
			"name":"Cylinder.004",
			"primitives":[
				{
					"attributes":{
						"POSITION":0,
						"NORMAL":1,
						"TEXCOORD_0":2
					},
					"indices":3,
					"material":0
				}
			]
		}
	],
	"textures":[
		{
			"sampler":0,
			"source":0
		},
		{
			"sampler":0,
			"source":1
		},
		{
			"sampler":0,
			"source":2
		}
	],
	"images":[
		{
			"mimeType":"image/png",
			"name":"longbow_Material_Normal.png.001",
			"uri":"../../weapon/longbow/textures/longbow_Material_Normal.png"
		},
		{
			"mimeType":"image/png",
			"name":"longbow_Material_BaseColor.png.001",
			"uri":"../../weapon/longbow/textures/longbow_Material_BaseColor.png"
		},
		{
			"mimeType":"image/png",
			"name":"longbow_Material_Roughness.png.001",
			"uri":"../../weapon/longbow/textures/longbow_Material_Roughness.png"
		}
	],
	"accessors":[
		{
			"bufferView":0,
			"componentType":5126,
			"count":1322,
			"max":[
				0.01368163526058197,
				0.023723816499114037,
				0.0002391351736150682
			],
			"min":[
				-0.027409221976995468,
				-0.023723818361759186,
				-0.75370192527771
			],
			"type":"VEC3"
		},
		{
			"bufferView":1,
			"componentType":5126,
			"count":1322,
			"type":"VEC3"
		},
		{
			"bufferView":2,
			"componentType":5126,
			"count":1322,
			"type":"VEC2"
		},
		{
			"bufferView":3,
			"componentType":5123,
			"count":5844,
			"type":"SCALAR"
		}
	],
	"bufferViews":[
		{
			"buffer":0,
			"byteLength":15864,
			"byteOffset":0,
			"target":34962
		},
		{
			"buffer":0,
			"byteLength":15864,
			"byteOffset":15864,
			"target":34962
		},
		{
			"buffer":0,
			"byteLength":10576,
			"byteOffset":31728,
			"target":34962
		},
		{
			"buffer":0,
			"byteLength":11688,
			"byteOffset":42304,
			"target":34963
		}
	],
	"samplers":[
		{
			"magFilter":9729,
			"minFilter":9987
		}
	],
	"buffers":[
		{
			"byteLength":53992,
			"uri":"arrow.bin"
		}
	]
}
