{
	"asset":{
		"generator":"Khronos glTF Blender I/O v3.6.27",
		"version":"2.0"
	},
	"scene":0,
	"scenes":[
		{
			"name":"Scene",
			"nodes":[
				0,
				1,
				2,
				3
			]
		}
	],
	"nodes":[
		{
			"mesh":0,
			"name":"Floor",
			"translation":[
				8.5,
				0,
				9
			]
		},
		{
			"mesh":1,
			"name":"Plane",
			"translation":[
				8.5,
				0,
				9
			]
		},
		{
			"mesh":2,
			"name":"Walls",
			"translation":[
				8.5,
				0,
				9
			]
		},
		{
			"name":"__connector0",
			"rotation":[
				0,
				-1,
				0,
				1.6292068494294654e-07
			],
			"translation":[
				8.53798770904541,
				0,
				18.449405670166016
			]
		}
	],
	"animations":[
		{
			"channels":[
				{
					"sampler":0,
					"target":{
						"node":0,
						"path":"translation"
					}
				},
				{
					"sampler":1,
					"target":{
						"node":0,
						"path":"rotation"
					}
				},
				{
					"sampler":2,
					"target":{
						"node":0,
						"path":"scale"
					}
				}
			],
			"name":"FloorAction",
			"samplers":[
				{
					"input":12,
					"interpolation":"LINEAR",
					"output":13
				},
				{
					"input":12,
					"interpolation":"LINEAR",
					"output":14
				},
				{
					"input":12,
					"interpolation":"LINEAR",
					"output":15
				}
			]
		},
		{
			"channels":[
				{
					"sampler":0,
					"target":{
						"node":1,
						"path":"translation"
					}
				},
				{
					"sampler":1,
					"target":{
						"node":1,
						"path":"rotation"
					}
				},
				{
					"sampler":2,
					"target":{
						"node":1,
						"path":"scale"
					}
				}
			],
			"name":"PlaneAction",
			"samplers":[
				{
					"input":12,
					"interpolation":"LINEAR",
					"output":16
				},
				{
					"input":12,
					"interpolation":"LINEAR",
					"output":17
				},
				{
					"input":12,
					"interpolation":"LINEAR",
					"output":18
				}
			]
		},
		{
			"channels":[
				{
					"sampler":0,
					"target":{
						"node":2,
						"path":"translation"
					}
				},
				{
					"sampler":1,
					"target":{
						"node":2,
						"path":"rotation"
					}
				},
				{
					"sampler":2,
					"target":{
						"node":2,
						"path":"scale"
					}
				}
			],
			"name":"WallsAction",
			"samplers":[
				{
					"input":12,
					"interpolation":"LINEAR",
					"output":19
				},
				{
					"input":12,
					"interpolation":"LINEAR",
					"output":20
				},
				{
					"input":12,
					"interpolation":"LINEAR",
					"output":21
				}
			]
		},
		{
			"channels":[
				{
					"sampler":0,
					"target":{
						"node":3,
						"path":"translation"
					}
				},
				{
					"sampler":1,
					"target":{
						"node":3,
						"path":"rotation"
					}
				},
				{
					"sampler":2,
					"target":{
						"node":3,
						"path":"scale"
					}
				}
			],
			"name":"__connector0Action",
			"samplers":[
				{
					"input":12,
					"interpolation":"LINEAR",
					"output":22
				},
				{
					"input":12,
					"interpolation":"LINEAR",
					"output":23
				},
				{
					"input":12,
					"interpolation":"LINEAR",
					"output":24
				}
			]
		}
	],
	"meshes":[
		{
			"name":"Plane.001",
			"primitives":[
				{
					"attributes":{
						"POSITION":0,
						"NORMAL":1,
						"TEXCOORD_0":2
					},
					"indices":3
				}
			]
		},
		{
			"name":"Plane",
			"primitives":[
				{
					"attributes":{
						"POSITION":4,
						"NORMAL":5,
						"TEXCOORD_0":6
					},
					"indices":7
				}
			]
		},
		{
			"name":"Plane.002",
			"primitives":[
				{
					"attributes":{
						"POSITION":8,
						"NORMAL":9,
						"TEXCOORD_0":10
					},
					"indices":11
				}
			]
		}
	],
	"accessors":[
		{
			"bufferView":0,
			"componentType":5126,
			"count":4,
			"max":[
				8,
				0,
				9
			],
			"min":[
				-8,
				0,
				-9
			],
			"type":"VEC3"
		},
		{
			"bufferView":1,
			"componentType":5126,
			"count":4,
			"type":"VEC3"
		},
		{
			"bufferView":2,
			"componentType":5126,
			"count":4,
			"type":"VEC2"
		},
		{
			"bufferView":3,
			"componentType":5123,
			"count":6,
			"type":"SCALAR"
		},
		{
			"bufferView":4,
			"componentType":5126,
			"count":243,
			"max":[
				8,
				4.000002861022949,
				9
			],
			"min":[
				-8,
				-5.960464477539063e-08,
				-9
			],
			"type":"VEC3"
		},
		{
			"bufferView":5,
			"componentType":5126,
			"count":243,
			"type":"VEC3"
		},
		{
			"bufferView":6,
			"componentType":5126,
			"count":243,
			"type":"VEC2"
		},
		{
			"bufferView":7,
			"componentType":5123,
			"count":426,
			"type":"SCALAR"
		},
		{
			"bufferView":8,
			"componentType":5126,
			"count":20,
			"max":[
				8,
				7,
				9
			],
			"min":[
				-8,
				0,
				-9
			],
			"type":"VEC3"
		},
		{
			"bufferView":9,
			"componentType":5126,
			"count":20,
			"type":"VEC3"
		},
		{
			"bufferView":10,
			"componentType":5126,
			"count":20,
			"type":"VEC2"
		},
		{
			"bufferView":11,
			"componentType":5123,
			"count":30,
			"type":"SCALAR"
		},
		{
			"bufferView":12,
			"componentType":5126,
			"count":1,
			"max":[
				0
			],
			"min":[
				0
			],
			"type":"SCALAR"
		},
		{
			"bufferView":13,
			"componentType":5126,
			"count":1,
			"type":"VEC3"
		},
		{
			"bufferView":14,
			"componentType":5126,
			"count":1,
			"type":"VEC4"
		},
		{
			"bufferView":15,
			"componentType":5126,
			"count":1,
			"type":"VEC3"
		},
		{
			"bufferView":16,
			"componentType":5126,
			"count":1,
			"type":"VEC3"
		},
		{
			"bufferView":17,
			"componentType":5126,
			"count":1,
			"type":"VEC4"
		},
		{
			"bufferView":18,
			"componentType":5126,
			"count":1,
			"type":"VEC3"
		},
		{
			"bufferView":19,
			"componentType":5126,
			"count":1,
			"type":"VEC3"
		},
		{
			"bufferView":20,
			"componentType":5126,
			"count":1,
			"type":"VEC4"
		},
		{
			"bufferView":21,
			"componentType":5126,
			"count":1,
			"type":"VEC3"
		},
		{
			"bufferView":22,
			"componentType":5126,
			"count":1,
			"type":"VEC3"
		},
		{
			"bufferView":23,
			"componentType":5126,
			"count":1,
			"type":"VEC4"
		},
		{
			"bufferView":24,
			"componentType":5126,
			"count":1,
			"type":"VEC3"
		}
	],
	"bufferViews":[
		{
			"buffer":0,
			"byteLength":48,
			"byteOffset":0,
			"target":34962
		},
		{
			"buffer":0,
			"byteLength":48,
			"byteOffset":48,
			"target":34962
		},
		{
			"buffer":0,
			"byteLength":32,
			"byteOffset":96,
			"target":34962
		},
		{
			"buffer":0,
			"byteLength":12,
			"byteOffset":128,
			"target":34963
		},
		{
			"buffer":0,
			"byteLength":2916,
			"byteOffset":140,
			"target":34962
		},
		{
			"buffer":0,
			"byteLength":2916,
			"byteOffset":3056,
			"target":34962
		},
		{
			"buffer":0,
			"byteLength":1944,
			"byteOffset":5972,
			"target":34962
		},
		{
			"buffer":0,
			"byteLength":852,
			"byteOffset":7916,
			"target":34963
		},
		{
			"buffer":0,
			"byteLength":240,
			"byteOffset":8768,
			"target":34962
		},
		{
			"buffer":0,
			"byteLength":240,
			"byteOffset":9008,
			"target":34962
		},
		{
			"buffer":0,
			"byteLength":160,
			"byteOffset":9248,
			"target":34962
		},
		{
			"buffer":0,
			"byteLength":60,
			"byteOffset":9408,
			"target":34963
		},
		{
			"buffer":0,
			"byteLength":4,
			"byteOffset":9468
		},
		{
			"buffer":0,
			"byteLength":12,
			"byteOffset":9472
		},
		{
			"buffer":0,
			"byteLength":16,
			"byteOffset":9484
		},
		{
			"buffer":0,
			"byteLength":12,
			"byteOffset":9500
		},
		{
			"buffer":0,
			"byteLength":12,
			"byteOffset":9512
		},
		{
			"buffer":0,
			"byteLength":16,
			"byteOffset":9524
		},
		{
			"buffer":0,
			"byteLength":12,
			"byteOffset":9540
		},
		{
			"buffer":0,
			"byteLength":12,
			"byteOffset":9552
		},
		{
			"buffer":0,
			"byteLength":16,
			"byteOffset":9564
		},
		{
			"buffer":0,
			"byteLength":12,
			"byteOffset":9580
		},
		{
			"buffer":0,
			"byteLength":12,
			"byteOffset":9592
		},
		{
			"buffer":0,
			"byteLength":16,
			"byteOffset":9604
		},
		{
			"buffer":0,
			"byteLength":12,
			"byteOffset":9620
		}
	],
	"buffers":[
		{
			"byteLength":9632,
			"uri":"room1.bin"
		}
	]
}
