{
	"asset":{
		"generator":"Khronos glTF Blender I/O v3.6.27",
		"version":"2.0"
	},
	"scene":0,
	"scenes":[
		{
			"name":"Scene",
			"nodes":[
				0
			]
		}
	],
	"nodes":[
		{
			"mesh":0,
			"name":"Cube.001"
		}
	],
	"materials":[
		{
			"doubleSided":true,
			"name":"Material",
			"pbrMetallicRoughness":{
				"baseColorFactor":[
					0.12170211970806122,
					0.03780941665172577,
					0.029026158154010773,
					1
				],
				"metallicFactor":0,
				"roughnessFactor":0.5
			}
		},
		{
			"doubleSided":true,
			"name":"Material.001",
			"pbrMetallicRoughness":{
				"baseColorFactor":[
					0.02037878707051277,
					0.02037878707051277,
					0.02037878707051277,
					1
				],
				"metallicFactor":0
			}
		},
		{
			"doubleSided":true,
			"name":"Material.002",
			"pbrMetallicRoughness":{
				"baseColorFactor":[
					0.2810092568397522,
					0.2810092568397522,
					0.2810092568397522,
					1
				],
				"roughnessFactor":0.5
			}
		}
	],
	"meshes":[
		{
			"name":"Cube.002",
			"primitives":[
				{
					"attributes":{
						"POSITION":0,
						"NORMAL":1,
						"TEXCOORD_0":2
					},
					"indices":3,
					"material":0
				},
				{
					"attributes":{
						"POSITION":4,
						"NORMAL":5,
						"TEXCOORD_0":6
					},
					"indices":7,
					"material":1
				},
				{
					"attributes":{
						"POSITION":8,
						"NORMAL":9,
						"TEXCOORD_0":10
					},
					"indices":11,
					"material":2
				}
			]
		}
	],
	"accessors":[
		{
			"bufferView":0,
			"componentType":5126,
			"count":45,
			"max":[
				0.015318138524889946,
				0.9146932363510132,
				0.014865001663565636
			],
			"min":[
				-0.015318138524889946,
				-0.564391553401947,
				-0.014865001663565636
			],
			"type":"VEC3"
		},
		{
			"bufferView":1,
			"componentType":5126,
			"count":45,
			"type":"VEC3"
		},
		{
			"bufferView":2,
			"componentType":5126,
			"count":45,
			"type":"VEC2"
		},
		{
			"bufferView":3,
			"componentType":5123,
			"count":162,
			"type":"SCALAR"
		},
		{
			"bufferView":4,
			"componentType":5126,
			"count":52,
			"max":[
				0.01964922808110714,
				0.20295919477939606,
				0.01964922808110714
			],
			"min":[
				-0.019649220630526543,
				-0.20857635140419006,
				-0.019649220630526543
			],
			"type":"VEC3"
		},
		{
			"bufferView":5,
			"componentType":5126,
			"count":52,
			"type":"VEC3"
		},
		{
			"bufferView":6,
			"componentType":5126,
			"count":52,
			"type":"VEC2"
		},
		{
			"bufferView":7,
			"componentType":5123,
			"count":180,
			"type":"SCALAR"
		},
		{
			"bufferView":8,
			"componentType":5126,
			"count":778,
			"max":[
				0.1757160872220993,
				1.5561226606369019,
				0.02806559018790722
			],
			"min":[
				-0.19523382186889648,
				0.8805891275405884,
				-0.02806558646261692
			],
			"type":"VEC3"
		},
		{
			"bufferView":9,
			"componentType":5126,
			"count":778,
			"type":"VEC3"
		},
		{
			"bufferView":10,
			"componentType":5126,
			"count":778,
			"type":"VEC2"
		},
		{
			"bufferView":11,
			"componentType":5123,
			"count":1224,
			"type":"SCALAR"
		}
	],
	"bufferViews":[
		{
			"buffer":0,
			"byteLength":540,
			"byteOffset":0,
			"target":34962
		},
		{
			"buffer":0,
			"byteLength":540,
			"byteOffset":540,
			"target":34962
		},
		{
			"buffer":0,
			"byteLength":360,
			"byteOffset":1080,
			"target":34962
		},
		{
			"buffer":0,
			"byteLength":324,
			"byteOffset":1440,
			"target":34963
		},
		{
			"buffer":0,
			"byteLength":624,
			"byteOffset":1764,
			"target":34962
		},
		{
			"buffer":0,
			"byteLength":624,
			"byteOffset":2388,
			"target":34962
		},
		{
			"buffer":0,
			"byteLength":416,
			"byteOffset":3012,
			"target":34962
		},
		{
			"buffer":0,
			"byteLength":360,
			"byteOffset":3428,
			"target":34963
		},
		{
			"buffer":0,
			"byteLength":9336,
			"byteOffset":3788,
			"target":34962
		},
		{
			"buffer":0,
			"byteLength":9336,
			"byteOffset":13124,
			"target":34962
		},
		{
			"buffer":0,
			"byteLength":6224,
			"byteOffset":22460,
			"target":34962
		},
		{
			"buffer":0,
			"byteLength":2448,
			"byteOffset":28684,
			"target":34963
		}
	],
	"buffers":[
		{
			"byteLength":31132,
			"uri":"halberd.bin"
		}
	]
}
