{
	"asset":{
		"generator":"Khronos glTF Blender I/O v3.6.27",
		"version":"2.0"
	},
	"scene":0,
	"scenes":[
		{
			"name":"Scene",
			"nodes":[
				0,
				1,
				2,
				3,
				4,
				5,
				6,
				7,
				8,
				9,
				10
			]
		}
	],
	"nodes":[
		{
			"mesh":0,
			"name":"Plane"
		},
		{
			"name":"__connector0",
			"rotation":[
				0,
				0.7071068286895752,
				0,
				0.7071068286895752
			],
			"translation":[
				-7.408087730407715,
				0,
				2.4864766597747803
			]
		},
		{
			"name":"__connector1",
			"rotation":[
				0,
				-1,
				0,
				1.6292068494294654e-07
			],
			"translation":[
				-0.4972958564758301,
				0,
				4.537819862365723
			]
		},
		{
			"name":"__connector2",
			"rotation":[
				0,
				-0.7071065902709961,
				0,
				0.7071069478988647
			],
			"translation":[
				7.511690139770508,
				0,
				2.5693588256835938
			]
		},
		{
			"mesh":1,
			"name":"Cube",
			"translation":[
				-4,
				0,
				-1
			]
		},
		{
			"mesh":2,
			"name":"Cube.001",
			"translation":[
				4,
				0,
				-1
			]
		},
		{
			"mesh":3,
			"name":"room",
			"translation":[
				0,
				2,
				-8
			]
		},
		{
			"name":"__connector3",
			"translation":[
				0.5180156230926514,
				1,
				-14.566611289978027
			]
		},
		{
			"name":"__item0",
			"translation":[
				1.7785435914993286,
				1.5792914628982544,
				-7.044165134429932
			]
		},
		{
			"name":"__item1",
			"translation":[
				-1.971091389656067,
				1.5792914628982544,
				-6.818782806396484
			]
		},
		{
			"name":"__item2",
			"translation":[
				-0.05897635221481323,
				0.7103783488273621,
				-0.8565647006034851
			]
		}
	],
	"animations":[
		{
			"channels":[
				{
					"sampler":0,
					"target":{
						"node":1,
						"path":"translation"
					}
				},
				{
					"sampler":1,
					"target":{
						"node":1,
						"path":"rotation"
					}
				},
				{
					"sampler":2,
					"target":{
						"node":1,
						"path":"scale"
					}
				}
			],
			"name":"EmptyAction",
			"samplers":[
				{
					"input":15,
					"interpolation":"LINEAR",
					"output":16
				},
				{
					"input":15,
					"interpolation":"LINEAR",
					"output":17
				},
				{
					"input":15,
					"interpolation":"LINEAR",
					"output":18
				}
			]
		},
		{
			"channels":[
				{
					"sampler":0,
					"target":{
						"node":2,
						"path":"translation"
					}
				},
				{
					"sampler":1,
					"target":{
						"node":2,
						"path":"rotation"
					}
				},
				{
					"sampler":2,
					"target":{
						"node":2,
						"path":"scale"
					}
				}
			],
			"name":"EmptyAction.001",
			"samplers":[
				{
					"input":15,
					"interpolation":"LINEAR",
					"output":19
				},
				{
					"input":15,
					"interpolation":"LINEAR",
					"output":20
				},
				{
					"input":15,
					"interpolation":"LINEAR",
					"output":21
				}
			]
		},
		{
			"channels":[
				{
					"sampler":0,
					"target":{
						"node":3,
						"path":"translation"
					}
				},
				{
					"sampler":1,
					"target":{
						"node":3,
						"path":"rotation"
					}
				},
				{
					"sampler":2,
					"target":{
						"node":3,
						"path":"scale"
					}
				}
			],
			"name":"EmptyAction.002",
			"samplers":[
				{
					"input":15,
					"interpolation":"LINEAR",
					"output":22
				},
				{
					"input":15,
					"interpolation":"LINEAR",
					"output":23
				},
				{
					"input":15,
					"interpolation":"LINEAR",
					"output":24
				}
			]
		},
		{
			"channels":[
				{
					"sampler":0,
					"target":{
						"node":4,
						"path":"translation"
					}
				},
				{
					"sampler":1,
					"target":{
						"node":4,
						"path":"rotation"
					}
				},
				{
					"sampler":2,
					"target":{
						"node":4,
						"path":"scale"
					}
				}
			],
			"name":"CubeAction",
			"samplers":[
				{
					"input":15,
					"interpolation":"LINEAR",
					"output":25
				},
				{
					"input":15,
					"interpolation":"LINEAR",
					"output":26
				},
				{
					"input":15,
					"interpolation":"LINEAR",
					"output":27
				}
			]
		},
		{
			"channels":[
				{
					"sampler":0,
					"target":{
						"node":5,
						"path":"translation"
					}
				},
				{
					"sampler":1,
					"target":{
						"node":5,
						"path":"rotation"
					}
				},
				{
					"sampler":2,
					"target":{
						"node":5,
						"path":"scale"
					}
				}
			],
			"name":"CubeAction.001",
			"samplers":[
				{
					"input":15,
					"interpolation":"LINEAR",
					"output":28
				},
				{
					"input":15,
					"interpolation":"LINEAR",
					"output":29
				},
				{
					"input":15,
					"interpolation":"LINEAR",
					"output":30
				}
			]
		},
		{
			"channels":[
				{
					"sampler":0,
					"target":{
						"node":6,
						"path":"translation"
					}
				},
				{
					"sampler":1,
					"target":{
						"node":6,
						"path":"rotation"
					}
				},
				{
					"sampler":2,
					"target":{
						"node":6,
						"path":"scale"
					}
				}
			],
			"name":"Cube.002Action",
			"samplers":[
				{
					"input":15,
					"interpolation":"LINEAR",
					"output":31
				},
				{
					"input":15,
					"interpolation":"LINEAR",
					"output":32
				},
				{
					"input":15,
					"interpolation":"LINEAR",
					"output":33
				}
			]
		},
		{
			"channels":[
				{
					"sampler":0,
					"target":{
						"node":7,
						"path":"translation"
					}
				},
				{
					"sampler":1,
					"target":{
						"node":7,
						"path":"rotation"
					}
				},
				{
					"sampler":2,
					"target":{
						"node":7,
						"path":"scale"
					}
				}
			],
			"name":"EmptyAction.003",
			"samplers":[
				{
					"input":15,
					"interpolation":"LINEAR",
					"output":34
				},
				{
					"input":15,
					"interpolation":"LINEAR",
					"output":35
				},
				{
					"input":15,
					"interpolation":"LINEAR",
					"output":36
				}
			]
		},
		{
			"channels":[
				{
					"sampler":0,
					"target":{
						"node":8,
						"path":"translation"
					}
				},
				{
					"sampler":1,
					"target":{
						"node":8,
						"path":"rotation"
					}
				},
				{
					"sampler":2,
					"target":{
						"node":8,
						"path":"scale"
					}
				}
			],
			"name":"EmptyAction.004",
			"samplers":[
				{
					"input":15,
					"interpolation":"LINEAR",
					"output":37
				},
				{
					"input":15,
					"interpolation":"LINEAR",
					"output":38
				},
				{
					"input":15,
					"interpolation":"LINEAR",
					"output":39
				}
			]
		},
		{
			"channels":[
				{
					"sampler":0,
					"target":{
						"node":9,
						"path":"translation"
					}
				},
				{
					"sampler":1,
					"target":{
						"node":9,
						"path":"rotation"
					}
				},
				{
					"sampler":2,
					"target":{
						"node":9,
						"path":"scale"
					}
				}
			],
			"name":"EmptyAction.005",
			"samplers":[
				{
					"input":15,
					"interpolation":"LINEAR",
					"output":40
				},
				{
					"input":15,
					"interpolation":"LINEAR",
					"output":41
				},
				{
					"input":15,
					"interpolation":"LINEAR",
					"output":42
				}
			]
		},
		{
			"channels":[
				{
					"sampler":0,
					"target":{
						"node":10,
						"path":"translation"
					}
				},
				{
					"sampler":1,
					"target":{
						"node":10,
						"path":"rotation"
					}
				},
				{
					"sampler":2,
					"target":{
						"node":10,
						"path":"scale"
					}
				}
			],
			"name":"EmptyAction.006",
			"samplers":[
				{
					"input":15,
					"interpolation":"LINEAR",
					"output":43
				},
				{
					"input":15,
					"interpolation":"LINEAR",
					"output":44
				},
				{
					"input":15,
					"interpolation":"LINEAR",
					"output":45
				}
			]
		}
	],
	"meshes":[
		{
			"name":"Plane",
			"primitives":[
				{
					"attributes":{
						"POSITION":0,
						"NORMAL":1,
						"TEXCOORD_0":2
					},
					"indices":3
				}
			]
		},
		{
			"name":"Cube",
			"primitives":[
				{
					"attributes":{
						"POSITION":4,
						"NORMAL":5,
						"TEXCOORD_0":6
					},
					"indices":7
				}
			]
		},
		{
			"name":"Cube.001",
			"primitives":[
				{
					"attributes":{
						"POSITION":8,
						"NORMAL":9,
						"TEXCOORD_0":10
					},
					"indices":7
				}
			]
		},
		{
			"name":"Cube.002",
			"primitives":[
				{
					"attributes":{
						"POSITION":11,
						"NORMAL":12,
						"TEXCOORD_0":13
					},
					"indices":14
				}
			]
		}
	],
	"accessors":[
		{
			"bufferView":0,
			"componentType":5126,
			"count":12,
			"max":[
				7,
				1,
				4
			],
			"min":[
				-7,
				0,
				-14
			],
			"type":"VEC3"
		},
		{
			"bufferView":1,
			"componentType":5126,
			"count":12,
			"type":"VEC3"
		},
		{
			"bufferView":2,
			"componentType":5126,
			"count":12,
			"type":"VEC2"
		},
		{
			"bufferView":3,
			"componentType":5123,
			"count":18,
			"type":"SCALAR"
		},
		{
			"bufferView":4,
			"componentType":5126,
			"count":18,
			"max":[
				1,
				1,
				1
			],
			"min":[
				-3,
				0,
				-1
			],
			"type":"VEC3"
		},
		{
			"bufferView":5,
			"componentType":5126,
			"count":18,
			"type":"VEC3"
		},
		{
			"bufferView":6,
			"componentType":5126,
			"count":18,
			"type":"VEC2"
		},
		{
			"bufferView":7,
			"componentType":5123,
			"count":24,
			"type":"SCALAR"
		},
		{
			"bufferView":8,
			"componentType":5126,
			"count":18,
			"max":[
				3,
				1,
				1
			],
			"min":[
				-1,
				0,
				-1
			],
			"type":"VEC3"
		},
		{
			"bufferView":9,
			"componentType":5126,
			"count":18,
			"type":"VEC3"
		},
		{
			"bufferView":10,
			"componentType":5126,
			"count":18,
			"type":"VEC2"
		},
		{
			"bufferView":11,
			"componentType":5126,
			"count":112,
			"max":[
				5,
				3,
				4
			],
			"min":[
				-5,
				-1,
				-4
			],
			"type":"VEC3"
		},
		{
			"bufferView":12,
			"componentType":5126,
			"count":112,
			"type":"VEC3"
		},
		{
			"bufferView":13,
			"componentType":5126,
			"count":112,
			"type":"VEC2"
		},
		{
			"bufferView":14,
			"componentType":5123,
			"count":228,
			"type":"SCALAR"
		},
		{
			"bufferView":15,
			"componentType":5126,
			"count":1,
			"max":[
				0
			],
			"min":[
				0
			],
			"type":"SCALAR"
		},
		{
			"bufferView":16,
			"componentType":5126,
			"count":1,
			"type":"VEC3"
		},
		{
			"bufferView":17,
			"componentType":5126,
			"count":1,
			"type":"VEC4"
		},
		{
			"bufferView":18,
			"componentType":5126,
			"count":1,
			"type":"VEC3"
		},
		{
			"bufferView":19,
			"componentType":5126,
			"count":1,
			"type":"VEC3"
		},
		{
			"bufferView":20,
			"componentType":5126,
			"count":1,
			"type":"VEC4"
		},
		{
			"bufferView":21,
			"componentType":5126,
			"count":1,
			"type":"VEC3"
		},
		{
			"bufferView":22,
			"componentType":5126,
			"count":1,
			"type":"VEC3"
		},
		{
			"bufferView":23,
			"componentType":5126,
			"count":1,
			"type":"VEC4"
		},
		{
			"bufferView":24,
			"componentType":5126,
			"count":1,
			"type":"VEC3"
		},
		{
			"bufferView":25,
			"componentType":5126,
			"count":1,
			"type":"VEC3"
		},
		{
			"bufferView":26,
			"componentType":5126,
			"count":1,
			"type":"VEC4"
		},
		{
			"bufferView":27,
			"componentType":5126,
			"count":1,
			"type":"VEC3"
		},
		{
			"bufferView":28,
			"componentType":5126,
			"count":1,
			"type":"VEC3"
		},
		{
			"bufferView":29,
			"componentType":5126,
			"count":1,
			"type":"VEC4"
		},
		{
			"bufferView":30,
			"componentType":5126,
			"count":1,
			"type":"VEC3"
		},
		{
			"bufferView":31,
			"componentType":5126,
			"count":1,
			"type":"VEC3"
		},
		{
			"bufferView":32,
			"componentType":5126,
			"count":1,
			"type":"VEC4"
		},
		{
			"bufferView":33,
			"componentType":5126,
			"count":1,
			"type":"VEC3"
		},
		{
			"bufferView":34,
			"componentType":5126,
			"count":1,
			"type":"VEC3"
		},
		{
			"bufferView":35,
			"componentType":5126,
			"count":1,
			"type":"VEC4"
		},
		{
			"bufferView":36,
			"componentType":5126,
			"count":1,
			"type":"VEC3"
		},
		{
			"bufferView":37,
			"componentType":5126,
			"count":1,
			"type":"VEC3"
		},
		{
			"bufferView":38,
			"componentType":5126,
			"count":1,
			"type":"VEC4"
		},
		{
			"bufferView":39,
			"componentType":5126,
			"count":1,
			"type":"VEC3"
		},
		{
			"bufferView":40,
			"componentType":5126,
			"count":1,
			"type":"VEC3"
		},
		{
			"bufferView":41,
			"componentType":5126,
			"count":1,
			"type":"VEC4"
		},
		{
			"bufferView":42,
			"componentType":5126,
			"count":1,
			"type":"VEC3"
		},
		{
			"bufferView":43,
			"componentType":5126,
			"count":1,
			"type":"VEC3"
		},
		{
			"bufferView":44,
			"componentType":5126,
			"count":1,
			"type":"VEC4"
		},
		{
			"bufferView":45,
			"componentType":5126,
			"count":1,
			"type":"VEC3"
		}
	],
	"bufferViews":[
		{
			"buffer":0,
			"byteLength":144,
			"byteOffset":0,
			"target":34962
		},
		{
			"buffer":0,
			"byteLength":144,
			"byteOffset":144,
			"target":34962
		},
		{
			"buffer":0,
			"byteLength":96,
			"byteOffset":288,
			"target":34962
		},
		{
			"buffer":0,
			"byteLength":36,
			"byteOffset":384,
			"target":34963
		},
		{
			"buffer":0,
			"byteLength":216,
			"byteOffset":420,
			"target":34962
		},
		{
			"buffer":0,
			"byteLength":216,
			"byteOffset":636,
			"target":34962
		},
		{
			"buffer":0,
			"byteLength":144,
			"byteOffset":852,
			"target":34962
		},
		{
			"buffer":0,
			"byteLength":48,
			"byteOffset":996,
			"target":34963
		},
		{
			"buffer":0,
			"byteLength":216,
			"byteOffset":1044,
			"target":34962
		},
		{
			"buffer":0,
			"byteLength":216,
			"byteOffset":1260,
			"target":34962
		},
		{
			"buffer":0,
			"byteLength":144,
			"byteOffset":1476,
			"target":34962
		},
		{
			"buffer":0,
			"byteLength":1344,
			"byteOffset":1620,
			"target":34962
		},
		{
			"buffer":0,
			"byteLength":1344,
			"byteOffset":2964,
			"target":34962
		},
		{
			"buffer":0,
			"byteLength":896,
			"byteOffset":4308,
			"target":34962
		},
		{
			"buffer":0,
			"byteLength":456,
			"byteOffset":5204,
			"target":34963
		},
		{
			"buffer":0,
			"byteLength":4,
			"byteOffset":5660
		},
		{
			"buffer":0,
			"byteLength":12,
			"byteOffset":5664
		},
		{
			"buffer":0,
			"byteLength":16,
			"byteOffset":5676
		},
		{
			"buffer":0,
			"byteLength":12,
			"byteOffset":5692
		},
		{
			"buffer":0,
			"byteLength":12,
			"byteOffset":5704
		},
		{
			"buffer":0,
			"byteLength":16,
			"byteOffset":5716
		},
		{
			"buffer":0,
			"byteLength":12,
			"byteOffset":5732
		},
		{
			"buffer":0,
			"byteLength":12,
			"byteOffset":5744
		},
		{
			"buffer":0,
			"byteLength":16,
			"byteOffset":5756
		},
		{
			"buffer":0,
			"byteLength":12,
			"byteOffset":5772
		},
		{
			"buffer":0,
			"byteLength":12,
			"byteOffset":5784
		},
		{
			"buffer":0,
			"byteLength":16,
			"byteOffset":5796
		},
		{
			"buffer":0,
			"byteLength":12,
			"byteOffset":5812
		},
		{
			"buffer":0,
			"byteLength":12,
			"byteOffset":5824
		},
		{
			"buffer":0,
			"byteLength":16,
			"byteOffset":5836
		},
		{
			"buffer":0,
			"byteLength":12,
			"byteOffset":5852
		},
		{
			"buffer":0,
			"byteLength":12,
			"byteOffset":5864
		},
		{
			"buffer":0,
			"byteLength":16,
			"byteOffset":5876
		},
		{
			"buffer":0,
			"byteLength":12,
			"byteOffset":5892
		},
		{
			"buffer":0,
			"byteLength":12,
			"byteOffset":5904
		},
		{
			"buffer":0,
			"byteLength":16,
			"byteOffset":5916
		},
		{
			"buffer":0,
			"byteLength":12,
			"byteOffset":5932
		},
		{
			"buffer":0,
			"byteLength":12,
			"byteOffset":5944
		},
		{
			"buffer":0,
			"byteLength":16,
			"byteOffset":5956
		},
		{
			"buffer":0,
			"byteLength":12,
			"byteOffset":5972
		},
		{
			"buffer":0,
			"byteLength":12,
			"byteOffset":5984
		},
		{
			"buffer":0,
			"byteLength":16,
			"byteOffset":5996
		},
		{
			"buffer":0,
			"byteLength":12,
			"byteOffset":6012
		},
		{
			"buffer":0,
			"byteLength":12,
			"byteOffset":6024
		},
		{
			"buffer":0,
			"byteLength":16,
			"byteOffset":6036
		},
		{
			"buffer":0,
			"byteLength":12,
			"byteOffset":6052
		}
	],
	"buffers":[
		{
			"byteLength":6064,
			"uri":"room4.bin"
		}
	]
}
