{
	"asset":{
		"generator":"Khronos glTF Blender I/O v3.6.27",
		"version":"2.0"
	},
	"scene":0,
	"scenes":[
		{
			"name":"Scene",
			"nodes":[
				0,
				1,
				2,
				3
			]
		}
	],
	"nodes":[
		{
			"mesh":0,
			"name":"Plane",
			"rotation":[
				0.7071068286895752,
				0,
				0,
				0.7071068286895752
			]
		},
		{
			"mesh":1,
			"name":"Cylinder"
		},
		{
			"mesh":2,
			"name":"Cylinder.001"
		},
		{
			"mesh":3,
			"name":"Cylinder.002"
		}
	],
	"materials":[
		{
			"doubleSided":true,
			"name":"Material",
			"normalTexture":{
				"index":0
			},
			"pbrMetallicRoughness":{
				"baseColorTexture":{
					"index":1
				},
				"metallicRoughnessTexture":{
					"index":2
				}
			}
		}
	],
	"meshes":[
		{
			"name":"Plane",
			"primitives":[
				{
					"attributes":{
						"POSITION":0,
						"NORMAL":1,
						"TEXCOORD_0":2
					},
					"indices":3,
					"material":0
				}
			]
		},
		{
			"name":"Cylinder",
			"primitives":[
				{
					"attributes":{
						"POSITION":4,
						"NORMAL":5,
						"TEXCOORD_0":6
					},
					"indices":7,
					"material":0
				}
			]
		},
		{
			"name":"Cylinder.001",
			"primitives":[
				{
					"attributes":{
						"POSITION":8,
						"NORMAL":9,
						"TEXCOORD_0":10
					},
					"indices":11,
					"material":0
				}
			]
		},
		{
			"name":"Mesh",
			"primitives":[
				{
					"attributes":{
						"POSITION":12,
						"NORMAL":13,
						"TEXCOORD_0":14
					},
					"indices":15,
					"material":0
				}
			]
		}
	],
	"textures":[
		{
			"sampler":0,
			"source":0
		},
		{
			"sampler":0,
			"source":1
		},
		{
			"sampler":0,
			"source":2
		}
	],
	"images":[
		{
			"mimeType":"image/png",
			"name":"arming_sword_normal.png",
			"uri":"material/arming_sword_normal.png"
		},
		{
			"mimeType":"image/png",
			"name":"arming_sword_diffuse.png",
			"uri":"material/arming_sword_diffuse.png"
		},
		{
			"mimeType":"image/png",
			"name":"arming_sword_occlusionRoughnessMetallic.png",
			"uri":"material/arming_sword_occlusionRoughnessMetallic.png"
		}
	],
	"accessors":[
		{
			"bufferView":0,
			"componentType":5126,
			"count":104,
			"max":[
				0.024336691945791245,
				0.006371652707457542,
				-0.06470812112092972
			],
			"min":[
				-0.024336691945791245,
				-0.006371598690748215,
				-0.7186043858528137
			],
			"type":"VEC3"
		},
		{
			"bufferView":1,
			"componentType":5126,
			"count":104,
			"type":"VEC3"
		},
		{
			"bufferView":2,
			"componentType":5126,
			"count":104,
			"type":"VEC2"
		},
		{
			"bufferView":3,
			"componentType":5123,
			"count":312,
			"type":"SCALAR"
		},
		{
			"bufferView":4,
			"componentType":5126,
			"count":20,
			"max":[
				0.01443182397633791,
				0.06432939320802689,
				0.009074311703443527
			],
			"min":[
				-0.01443186029791832,
				-0.059236589819192886,
				-0.00907430611550808
			],
			"type":"VEC3"
		},
		{
			"bufferView":5,
			"componentType":5126,
			"count":20,
			"type":"VEC3"
		},
		{
			"bufferView":6,
			"componentType":5126,
			"count":20,
			"type":"VEC2"
		},
		{
			"bufferView":7,
			"componentType":5123,
			"count":36,
			"type":"SCALAR"
		},
		{
			"bufferView":8,
			"componentType":5126,
			"count":550,
			"max":[
				0.0958513468503952,
				0.08491232246160507,
				0.010608715936541557
			],
			"min":[
				-0.0958513393998146,
				0.05628754571080208,
				-0.010608712211251259
			],
			"type":"VEC3"
		},
		{
			"bufferView":9,
			"componentType":5126,
			"count":550,
			"type":"VEC3"
		},
		{
			"bufferView":10,
			"componentType":5126,
			"count":550,
			"type":"VEC2"
		},
		{
			"bufferView":11,
			"componentType":5123,
			"count":1800,
			"type":"SCALAR"
		},
		{
			"bufferView":12,
			"componentType":5126,
			"count":454,
			"max":[
				0.021449685096740723,
				-0.04463491216301918,
				0.012272095307707787
			],
			"min":[
				-0.021449683234095573,
				-0.08753425627946854,
				-0.012272041290998459
			],
			"type":"VEC3"
		},
		{
			"bufferView":13,
			"componentType":5126,
			"count":454,
			"type":"VEC3"
		},
		{
			"bufferView":14,
			"componentType":5126,
			"count":454,
			"type":"VEC2"
		},
		{
			"bufferView":15,
			"componentType":5123,
			"count":1584,
			"type":"SCALAR"
		}
	],
	"bufferViews":[
		{
			"buffer":0,
			"byteLength":1248,
			"byteOffset":0,
			"target":34962
		},
		{
			"buffer":0,
			"byteLength":1248,
			"byteOffset":1248,
			"target":34962
		},
		{
			"buffer":0,
			"byteLength":832,
			"byteOffset":2496,
			"target":34962
		},
		{
			"buffer":0,
			"byteLength":624,
			"byteOffset":3328,
			"target":34963
		},
		{
			"buffer":0,
			"byteLength":240,
			"byteOffset":3952,
			"target":34962
		},
		{
			"buffer":0,
			"byteLength":240,
			"byteOffset":4192,
			"target":34962
		},
		{
			"buffer":0,
			"byteLength":160,
			"byteOffset":4432,
			"target":34962
		},
		{
			"buffer":0,
			"byteLength":72,
			"byteOffset":4592,
			"target":34963
		},
		{
			"buffer":0,
			"byteLength":6600,
			"byteOffset":4664,
			"target":34962
		},
		{
			"buffer":0,
			"byteLength":6600,
			"byteOffset":11264,
			"target":34962
		},
		{
			"buffer":0,
			"byteLength":4400,
			"byteOffset":17864,
			"target":34962
		},
		{
			"buffer":0,
			"byteLength":3600,
			"byteOffset":22264,
			"target":34963
		},
		{
			"buffer":0,
			"byteLength":5448,
			"byteOffset":25864,
			"target":34962
		},
		{
			"buffer":0,
			"byteLength":5448,
			"byteOffset":31312,
			"target":34962
		},
		{
			"buffer":0,
			"byteLength":3632,
			"byteOffset":36760,
			"target":34962
		},
		{
			"buffer":0,
			"byteLength":3168,
			"byteOffset":40392,
			"target":34963
		}
	],
	"samplers":[
		{
			"magFilter":9729,
			"minFilter":9987
		}
	],
	"buffers":[
		{
			"byteLength":43560,
			"uri":"arming_sword.bin"
		}
	]
}
