{
	"asset":{
		"generator":"Khronos glTF Blender I/O v3.5.30",
		"version":"2.0"
	},
	"scene":0,
	"scenes":[
		{
			"name":"Scene",
			"nodes":[
				0,
				1,
				2,
				3,
				4
			]
		}
	],
	"nodes":[
		{
			"mesh":0,
			"name":"LevelGeometry"
		},
		{
			"mesh":1,
			"name":"Well",
			"translation":[
				0,
				4,
				0
			]
		},
		{
			"mesh":2,
			"name":"Rope",
			"scale":[
				0.029999971389770508,
				0.029999971389770508,
				0.029999971389770508
			],
			"translation":[
				0,
				3.3502910137176514,
				-0.0997018814086914
			]
		},
		{
			"mesh":3,
			"name":"RopeTip",
			"translation":[
				-0.2004542350769043,
				0.6004708409309387,
				0.7810897827148438
			]
		},
		{
			"mesh":4,
			"name":"Pillar",
			"translation":[
				7,
				0,
				-8
			]
		}
	],
	"materials":[
		{
			"name":"Ceiling",
			"pbrMetallicRoughness":{
				"baseColorFactor":[
					0.10653515160083771,
					0.10653515160083771,
					0.10653515160083771,
					1
				],
				"metallicFactor":0,
				"roughnessFactor":0.5
			}
		},
		{
			"name":"Floor",
			"pbrMetallicRoughness":{
				"baseColorFactor":[
					0.28100964426994324,
					0.28100964426994324,
					0.28100964426994324,
					1
				],
				"metallicFactor":0,
				"roughnessFactor":0.5
			}
		},
		{
			"name":"Wall",
			"pbrMetallicRoughness":{
				"baseColorFactor":[
					0.16794881224632263,
					0.16794881224632263,
					0.16794881224632263,
					1
				],
				"metallicFactor":0,
				"roughnessFactor":0.5
			}
		},
		{
			"doubleSided":true,
			"name":"Material",
			"pbrMetallicRoughness":{
				"baseColorFactor":[
					0.043910641223192215,
					0.049545299261808395,
					0.038668662309646606,
					1
				],
				"metallicFactor":0
			}
		},
		{
			"doubleSided":true,
			"name":"Rope",
			"pbrMetallicRoughness":{
				"baseColorFactor":[
					0.5925784111022949,
					0.45151641964912415,
					0.30344662070274353,
					1
				],
				"metallicFactor":0,
				"roughnessFactor":0.5
			}
		},
		{
			"doubleSided":true,
			"name":"Material.001",
			"pbrMetallicRoughness":{
				"baseColorFactor":[
					0.8000000715255737,
					0.6750535368919373,
					0.510093092918396,
					1
				],
				"metallicFactor":0,
				"roughnessFactor":0.5
			}
		}
	],
	"meshes":[
		{
			"name":"LevelGeometryMesh.001",
			"primitives":[
				{
					"attributes":{
						"POSITION":0,
						"TEXCOORD_0":1,
						"NORMAL":2
					},
					"indices":3,
					"material":0
				},
				{
					"attributes":{
						"POSITION":4,
						"TEXCOORD_0":5,
						"NORMAL":6
					},
					"indices":7,
					"material":1
				},
				{
					"attributes":{
						"POSITION":8,
						"TEXCOORD_0":9,
						"NORMAL":10
					},
					"indices":11,
					"material":2
				}
			]
		},
		{
			"name":"Cylinder",
			"primitives":[
				{
					"attributes":{
						"POSITION":12,
						"TEXCOORD_0":13,
						"NORMAL":14
					},
					"indices":15,
					"material":3
				}
			]
		},
		{
			"name":"Cylinder.002",
			"primitives":[
				{
					"attributes":{
						"POSITION":16,
						"TEXCOORD_0":17,
						"NORMAL":18
					},
					"indices":19,
					"material":4
				}
			]
		},
		{
			"name":"Circle",
			"primitives":[
				{
					"attributes":{
						"POSITION":20,
						"TEXCOORD_0":21,
						"NORMAL":22
					},
					"indices":23,
					"material":4
				}
			]
		},
		{
			"name":"Cylinder.003",
			"primitives":[
				{
					"attributes":{
						"POSITION":24,
						"TEXCOORD_0":25,
						"NORMAL":26
					},
					"indices":27,
					"material":5
				}
			]
		}
	],
	"accessors":[
		{
			"bufferView":0,
			"componentType":5126,
			"count":16,
			"max":[
				10,
				10,
				5
			],
			"min":[
				-10,
				-1,
				-25
			],
			"type":"VEC3"
		},
		{
			"bufferView":1,
			"componentType":5126,
			"count":16,
			"type":"VEC2"
		},
		{
			"bufferView":2,
			"componentType":5126,
			"count":16,
			"type":"VEC3"
		},
		{
			"bufferView":3,
			"componentType":5123,
			"count":36,
			"type":"SCALAR"
		},
		{
			"bufferView":4,
			"componentType":5126,
			"count":16,
			"max":[
				10,
				0.4000000059604645,
				5
			],
			"min":[
				-10,
				-8,
				-25
			],
			"type":"VEC3"
		},
		{
			"bufferView":5,
			"componentType":5126,
			"count":16,
			"type":"VEC2"
		},
		{
			"bufferView":6,
			"componentType":5126,
			"count":16,
			"type":"VEC3"
		},
		{
			"bufferView":7,
			"componentType":5123,
			"count":36,
			"type":"SCALAR"
		},
		{
			"bufferView":8,
			"componentType":5126,
			"count":64,
			"max":[
				10,
				10,
				5
			],
			"min":[
				-10,
				-8,
				-25
			],
			"type":"VEC3"
		},
		{
			"bufferView":9,
			"componentType":5126,
			"count":64,
			"type":"VEC2"
		},
		{
			"bufferView":10,
			"componentType":5126,
			"count":64,
			"type":"VEC3"
		},
		{
			"bufferView":11,
			"componentType":5123,
			"count":108,
			"type":"SCALAR"
		},
		{
			"bufferView":12,
			"componentType":5126,
			"count":178,
			"max":[
				1.2891435623168945,
				7.042139053344727,
				1.289143443107605
			],
			"min":[
				-1.2891435623168945,
				-0.4090931713581085,
				-1.2891438007354736
			],
			"type":"VEC3"
		},
		{
			"bufferView":13,
			"componentType":5126,
			"count":178,
			"type":"VEC2"
		},
		{
			"bufferView":14,
			"componentType":5126,
			"count":178,
			"type":"VEC3"
		},
		{
			"bufferView":15,
			"componentType":5123,
			"count":330,
			"type":"SCALAR"
		},
		{
			"bufferView":16,
			"componentType":5126,
			"count":28824,
			"max":[
				35.22517013549805,
				267.0571594238281,
				70.33452606201172
			],
			"min":[
				-33.6793098449707,
				-98.98493194580078,
				21.61634635925293
			],
			"type":"VEC3"
		},
		{
			"bufferView":17,
			"componentType":5126,
			"count":28824,
			"type":"VEC2"
		},
		{
			"bufferView":18,
			"componentType":5126,
			"count":28824,
			"type":"VEC3"
		},
		{
			"bufferView":19,
			"componentType":5123,
			"count":172800,
			"type":"SCALAR"
		},
		{
			"bufferView":20,
			"componentType":5126,
			"count":48,
			"max":[
				-0.6465399265289307,
				-0.06345117837190628,
				0.13420610129833221
			],
			"min":[
				-0.8263568878173828,
				-0.2272224724292755,
				-0.08024732768535614
			],
			"type":"VEC3"
		},
		{
			"bufferView":21,
			"componentType":5126,
			"count":48,
			"type":"VEC2"
		},
		{
			"bufferView":22,
			"componentType":5126,
			"count":48,
			"type":"VEC3"
		},
		{
			"bufferView":23,
			"componentType":5123,
			"count":84,
			"type":"SCALAR"
		},
		{
			"bufferView":24,
			"componentType":5126,
			"count":512,
			"max":[
				1.2706570625305176,
				10.428522109985352,
				1.2706574201583862
			],
			"min":[
				-15.27065658569336,
				-0.5469552278518677,
				-15.270657539367676
			],
			"type":"VEC3"
		},
		{
			"bufferView":25,
			"componentType":5126,
			"count":512,
			"type":"VEC2"
		},
		{
			"bufferView":26,
			"componentType":5126,
			"count":512,
			"type":"VEC3"
		},
		{
			"bufferView":27,
			"componentType":5123,
			"count":816,
			"type":"SCALAR"
		}
	],
	"bufferViews":[
		{
			"buffer":0,
			"byteLength":192,
			"byteOffset":0,
			"target":34962
		},
		{
			"buffer":0,
			"byteLength":128,
			"byteOffset":192,
			"target":34962
		},
		{
			"buffer":0,
			"byteLength":192,
			"byteOffset":320,
			"target":34962
		},
		{
			"buffer":0,
			"byteLength":72,
			"byteOffset":512,
			"target":34963
		},
		{
			"buffer":0,
			"byteLength":192,
			"byteOffset":584,
			"target":34962
		},
		{
			"buffer":0,
			"byteLength":128,
			"byteOffset":776,
			"target":34962
		},
		{
			"buffer":0,
			"byteLength":192,
			"byteOffset":904,
			"target":34962
		},
		{
			"buffer":0,
			"byteLength":72,
			"byteOffset":1096,
			"target":34963
		},
		{
			"buffer":0,
			"byteLength":768,
			"byteOffset":1168,
			"target":34962
		},
		{
			"buffer":0,
			"byteLength":512,
			"byteOffset":1936,
			"target":34962
		},
		{
			"buffer":0,
			"byteLength":768,
			"byteOffset":2448,
			"target":34962
		},
		{
			"buffer":0,
			"byteLength":216,
			"byteOffset":3216,
			"target":34963
		},
		{
			"buffer":0,
			"byteLength":2136,
			"byteOffset":3432,
			"target":34962
		},
		{
			"buffer":0,
			"byteLength":1424,
			"byteOffset":5568,
			"target":34962
		},
		{
			"buffer":0,
			"byteLength":2136,
			"byteOffset":6992,
			"target":34962
		},
		{
			"buffer":0,
			"byteLength":660,
			"byteOffset":9128,
			"target":34963
		},
		{
			"buffer":0,
			"byteLength":345888,
			"byteOffset":9788,
			"target":34962
		},
		{
			"buffer":0,
			"byteLength":230592,
			"byteOffset":355676,
			"target":34962
		},
		{
			"buffer":0,
			"byteLength":345888,
			"byteOffset":586268,
			"target":34962
		},
		{
			"buffer":0,
			"byteLength":345600,
			"byteOffset":932156,
			"target":34963
		},
		{
			"buffer":0,
			"byteLength":576,
			"byteOffset":1277756,
			"target":34962
		},
		{
			"buffer":0,
			"byteLength":384,
			"byteOffset":1278332,
			"target":34962
		},
		{
			"buffer":0,
			"byteLength":576,
			"byteOffset":1278716,
			"target":34962
		},
		{
			"buffer":0,
			"byteLength":168,
			"byteOffset":1279292,
			"target":34963
		},
		{
			"buffer":0,
			"byteLength":6144,
			"byteOffset":1279460,
			"target":34962
		},
		{
			"buffer":0,
			"byteLength":4096,
			"byteOffset":1285604,
			"target":34962
		},
		{
			"buffer":0,
			"byteLength":6144,
			"byteOffset":1289700,
			"target":34962
		},
		{
			"buffer":0,
			"byteLength":1632,
			"byteOffset":1295844,
			"target":34963
		}
	],
	"buffers":[
		{
			"byteLength":1297476,
			"uri":"starting_room.bin"
		}
	]
}
