{
	"asset":{
		"generator":"Khronos glTF Blender I/O v3.6.27",
		"version":"2.0"
	},
	"scene":0,
	"scenes":[
		{
			"name":"Scene",
			"nodes":[
				0,
				1
			]
		}
	],
	"nodes":[
		{
			"mesh":0,
			"name":"Sphere.004"
		},
		{
			"mesh":1,
			"name":"Cube.004",
			"rotation":[
				0.08446301519870758,
				-0.27331939339637756,
				0.021915780380368233,
				0.9579573273658752
			],
			"translation":[
				-0.012236595153808594,
				0.04543185234069824,
				0.11680150032043457
			]
		}
	],
	"materials":[
		{
			"doubleSided":true,
			"name":"Material",
			"pbrMetallicRoughness":{
				"baseColorFactor":[
					0.0835312008857727,
					0.0835312008857727,
					0.0835312008857727,
					1
				],
				"metallicFactor":0
			}
		},
		{
			"doubleSided":true,
			"name":"Material.001",
			"pbrMetallicRoughness":{
				"baseColorFactor":[
					0.1237097978591919,
					0.05489761382341385,
					0.03427189961075783,
					1
				],
				"metallicFactor":0,
				"roughnessFactor":0.5
			}
		}
	],
	"meshes":[
		{
			"name":"Sphere.004",
			"primitives":[
				{
					"attributes":{
						"POSITION":0,
						"NORMAL":1,
						"TEXCOORD_0":2
					},
					"indices":3,
					"material":0
				}
			]
		},
		{
			"name":"Cube.004",
			"primitives":[
				{
					"attributes":{
						"POSITION":4,
						"NORMAL":5,
						"TEXCOORD_0":6
					},
					"indices":7,
					"material":1
				}
			]
		}
	],
	"accessors":[
		{
			"bufferView":0,
			"componentType":5126,
			"count":1344,
			"max":[
				0.4360266327857971,
				0.15496821701526642,
				0.46360114216804504
			],
			"min":[
				-0.4205668270587921,
				-0.032975003123283386,
				-0.45271316170692444
			],
			"type":"VEC3"
		},
		{
			"bufferView":1,
			"componentType":5126,
			"count":1344,
			"type":"VEC3"
		},
		{
			"bufferView":2,
			"componentType":5126,
			"count":1344,
			"type":"VEC2"
		},
		{
			"bufferView":3,
			"componentType":5123,
			"count":1728,
			"type":"SCALAR"
		},
		{
			"bufferView":4,
			"componentType":5126,
			"count":120,
			"max":[
				0.17436841130256653,
				0.03264205530285835,
				0.025138966739177704
			],
			"min":[
				-0.23053918778896332,
				-0.11253522336483002,
				-0.3911029100418091
			],
			"type":"VEC3"
		},
		{
			"bufferView":5,
			"componentType":5126,
			"count":120,
			"type":"VEC3"
		},
		{
			"bufferView":6,
			"componentType":5126,
			"count":120,
			"type":"VEC2"
		},
		{
			"bufferView":7,
			"componentType":5123,
			"count":180,
			"type":"SCALAR"
		}
	],
	"bufferViews":[
		{
			"buffer":0,
			"byteLength":16128,
			"byteOffset":0,
			"target":34962
		},
		{
			"buffer":0,
			"byteLength":16128,
			"byteOffset":16128,
			"target":34962
		},
		{
			"buffer":0,
			"byteLength":10752,
			"byteOffset":32256,
			"target":34962
		},
		{
			"buffer":0,
			"byteLength":3456,
			"byteOffset":43008,
			"target":34963
		},
		{
			"buffer":0,
			"byteLength":1440,
			"byteOffset":46464,
			"target":34962
		},
		{
			"buffer":0,
			"byteLength":1440,
			"byteOffset":47904,
			"target":34962
		},
		{
			"buffer":0,
			"byteLength":960,
			"byteOffset":49344,
			"target":34962
		},
		{
			"buffer":0,
			"byteLength":360,
			"byteOffset":50304,
			"target":34963
		}
	],
	"buffers":[
		{
			"byteLength":50664,
			"uri":"fireplace.bin"
		}
	]
}
