{
	"asset":{
		"generator":"Khronos glTF Blender I/O v3.5.30",
		"version":"2.0"
	},
	"scene":0,
	"scenes":[
		{
			"name":"Scene",
			"nodes":[
				0
			]
		}
	],
	"nodes":[
		{
			"mesh":0,
			"name":"Cube.001",
			"translation":[
				0,
				0,
				-10.037887573242188
			]
		}
	],
	"materials":[
		{
			"doubleSided":true,
			"name":"Material.002",
			"pbrMetallicRoughness":{
				"baseColorTexture":{
					"index":0
				},
				"metallicFactor":0,
				"metallicRoughnessTexture":{
					"index":1
				}
			}
		}
	],
	"meshes":[
		{
			"name":"Cube.001",
			"primitives":[
				{
					"attributes":{
						"POSITION":0,
						"TEXCOORD_0":1,
						"NORMAL":2
					},
					"indices":3,
					"material":0
				}
			]
		}
	],
	"textures":[
		{
			"sampler":0,
			"source":0
		},
		{
			"sampler":0,
			"source":1
		}
	],
	"images":[
		{
			"mimeType":"image/png",
			"name":"Material.002_baseColor.png",
			"uri":"textures/Material.002_baseColor.png"
		},
		{
			"mimeType":"image/png",
			"name":"door_frame_roughness.png.001",
			"uri":"../../../entity/object/door/textures/door_frame_roughness.png"
		}
	],
	"accessors":[
		{
			"bufferView":0,
			"componentType":5126,
			"count":446,
			"max":[
				1.0652012825012207,
				3.6066558361053467,
				0.1933729499578476
			],
			"min":[
				-1.0652021169662476,
				0,
				-0.18566188216209412
			],
			"type":"VEC3"
		},
		{
			"bufferView":1,
			"componentType":5126,
			"count":446,
			"type":"VEC2"
		},
		{
			"bufferView":2,
			"componentType":5126,
			"count":446,
			"type":"VEC3"
		},
		{
			"bufferView":3,
			"componentType":5123,
			"count":804,
			"type":"SCALAR"
		}
	],
	"bufferViews":[
		{
			"buffer":0,
			"byteLength":5352,
			"byteOffset":0,
			"target":34962
		},
		{
			"buffer":0,
			"byteLength":3568,
			"byteOffset":5352,
			"target":34962
		},
		{
			"buffer":0,
			"byteLength":5352,
			"byteOffset":8920,
			"target":34962
		},
		{
			"buffer":0,
			"byteLength":1608,
			"byteOffset":14272,
			"target":34963
		}
	],
	"samplers":[
		{
			"magFilter":9729,
			"minFilter":9987
		}
	],
	"buffers":[
		{
			"byteLength":15880,
			"uri":"door_frame.bin"
		}
	]
}
