{
	"asset":{
		"generator":"Khronos glTF Blender I/O v3.5.30",
		"version":"2.0"
	},
	"scene":0,
	"scenes":[
		{
			"name":"Scene",
			"nodes":[
				0,
				1,
				2
			]
		}
	],
	"nodes":[
		{
			"mesh":0,
			"name":"Floor"
		},
		{
			"mesh":1,
			"name":"DoorFrame",
			"translation":[
				0,
				0,
				-10.037887573242188
			]
		},
		{
			"mesh":2,
			"name":"Ceiling2"
		}
	],
	"materials":[
		{
			"doubleSided":true,
			"name":"Floor",
			"normalTexture":{
				"index":0
			},
			"pbrMetallicRoughness":{
				"baseColorTexture":{
					"index":1
				},
				"metallicFactor":0,
				"metallicRoughnessTexture":{
					"index":2
				}
			}
		},
		{
			"doubleSided":true,
			"name":"Wall",
			"normalTexture":{
				"index":3
			},
			"pbrMetallicRoughness":{
				"baseColorTexture":{
					"index":4
				},
				"metallicFactor":0,
				"metallicRoughnessTexture":{
					"index":5
				}
			}
		},
		{
			"doubleSided":true,
			"name":"Stairs",
			"pbrMetallicRoughness":{
				"baseColorTexture":{
					"index":6
				},
				"metallicFactor":0,
				"roughnessFactor":0.5
			}
		},
		{
			"doubleSided":true,
			"name":"Material.002",
			"normalTexture":{
				"index":7
			},
			"pbrMetallicRoughness":{
				"baseColorTexture":{
					"index":8
				},
				"metallicRoughnessTexture":{
					"index":9
				}
			}
		}
	],
	"meshes":[
		{
			"name":"Plane",
			"primitives":[
				{
					"attributes":{
						"POSITION":0,
						"TEXCOORD_0":1,
						"NORMAL":2
					},
					"indices":3,
					"material":0
				},
				{
					"attributes":{
						"POSITION":4,
						"TEXCOORD_0":5,
						"NORMAL":6
					},
					"indices":7,
					"material":1
				},
				{
					"attributes":{
						"POSITION":8,
						"TEXCOORD_0":9,
						"NORMAL":10
					},
					"indices":11,
					"material":2
				},
				{
					"attributes":{
						"POSITION":12,
						"TEXCOORD_0":13,
						"NORMAL":14
					},
					"indices":15
				}
			]
		},
		{
			"name":"Cube.001",
			"primitives":[
				{
					"attributes":{
						"POSITION":16,
						"TEXCOORD_0":17,
						"NORMAL":18
					},
					"indices":19,
					"material":3
				}
			]
		},
		{
			"name":"Plane.003",
			"primitives":[
				{
					"attributes":{
						"POSITION":20,
						"TEXCOORD_0":21,
						"NORMAL":22
					},
					"indices":23,
					"material":1
				},
				{
					"attributes":{
						"POSITION":24,
						"TEXCOORD_0":25,
						"NORMAL":26
					},
					"indices":27
				}
			]
		}
	],
	"textures":[
		{
			"sampler":0,
			"source":0
		},
		{
			"sampler":0,
			"source":1
		},
		{
			"sampler":0,
			"source":2
		},
		{
			"sampler":0,
			"source":3
		},
		{
			"sampler":0,
			"source":4
		},
		{
			"sampler":0,
			"source":5
		},
		{
			"sampler":0,
			"source":6
		},
		{
			"sampler":0,
			"source":7
		},
		{
			"sampler":0,
			"source":8
		},
		{
			"sampler":0,
			"source":9
		}
	],
	"images":[
		{
			"mimeType":"image/png",
			"name":"TexturesCom_Brick_StoneCladding2_1K_normal.png",
			"uri":"../../materials/Brick_StoneCladding2/TexturesCom_Brick_StoneCladding2_1K_normal.png"
		},
		{
			"mimeType":"image/png",
			"name":"TexturesCom_Brick_StoneCladding2_1K_albedo.png",
			"uri":"../../materials/Brick_StoneCladding2/TexturesCom_Brick_StoneCladding2_1K_albedo.png"
		},
		{
			"mimeType":"image/png",
			"name":"TexturesCom_Brick_StoneCladding2_1K_roughness.png",
			"uri":"../../materials/Brick_StoneCladding2/TexturesCom_Brick_StoneCladding2_1K_roughness.png"
		},
		{
			"mimeType":"image/png",
			"name":"TexturesCom_Brick_Rustic_1K_normal.png",
			"uri":"../../materials/Brick_Rustic/TexturesCom_Brick_Rustic_1K_normal.png"
		},
		{
			"mimeType":"image/png",
			"name":"TexturesCom_Brick_Rustic_1K_albedo.png",
			"uri":"../../materials/Brick_Rustic/TexturesCom_Brick_Rustic_1K_albedo.png"
		},
		{
			"mimeType":"image/png",
			"name":"TexturesCom_Brick_Rustic_1K_roughness.png",
			"uri":"../../materials/Brick_Rustic/TexturesCom_Brick_Rustic_1K_roughness.png"
		},
		{
			"mimeType":"image/png",
			"name":"TexturesCom_FloorsVarious0043_M_Cropped.png",
			"uri":"../../materials/TexturesCom_FloorsVarious0043_M_Cropped.png"
		},
		{
			"mimeType":"image/png",
			"name":"Material.002_normal.png",
			"uri":"textures/Material.002_normal.png"
		},
		{
			"mimeType":"image/png",
			"name":"Material.002_baseColor.png",
			"uri":"textures/Material.002_baseColor.png"
		},
		{
			"mimeType":"image/png",
			"name":"Material.002_occlusionRoughnessMetallic.png",
			"uri":"textures/Material.002_occlusionRoughnessMetallic.png"
		}
	],
	"accessors":[
		{
			"bufferView":0,
			"componentType":5126,
			"count":36,
			"max":[
				10,
				0,
				10
			],
			"min":[
				-10,
				-7.518348693847656,
				-30.000865936279297
			],
			"type":"VEC3"
		},
		{
			"bufferView":1,
			"componentType":5126,
			"count":36,
			"type":"VEC2"
		},
		{
			"bufferView":2,
			"componentType":5126,
			"count":36,
			"type":"VEC3"
		},
		{
			"bufferView":3,
			"componentType":5123,
			"count":126,
			"type":"SCALAR"
		},
		{
			"bufferView":4,
			"componentType":5126,
			"count":214,
			"max":[
				10,
				5,
				10
			],
			"min":[
				-10,
				-7.518348693847656,
				-30.000865936279297
			],
			"type":"VEC3"
		},
		{
			"bufferView":5,
			"componentType":5126,
			"count":214,
			"type":"VEC2"
		},
		{
			"bufferView":6,
			"componentType":5126,
			"count":214,
			"type":"VEC3"
		},
		{
			"bufferView":7,
			"componentType":5123,
			"count":420,
			"type":"SCALAR"
		},
		{
			"bufferView":8,
			"componentType":5126,
			"count":480,
			"max":[
				2,
				0.6499999761581421,
				2
			],
			"min":[
				-2,
				-0.09999997168779373,
				-2
			],
			"type":"VEC3"
		},
		{
			"bufferView":9,
			"componentType":5126,
			"count":480,
			"type":"VEC2"
		},
		{
			"bufferView":10,
			"componentType":5126,
			"count":480,
			"type":"VEC3"
		},
		{
			"bufferView":11,
			"componentType":5123,
			"count":1434,
			"type":"SCALAR"
		},
		{
			"bufferView":12,
			"componentType":5126,
			"count":24,
			"max":[
				5,
				-2.5183486938476562,
				-30.000865936279297
			],
			"min":[
				-5,
				-7.518348693847656,
				-35.000648498535156
			],
			"type":"VEC3"
		},
		{
			"bufferView":13,
			"componentType":5126,
			"count":24,
			"type":"VEC2"
		},
		{
			"bufferView":14,
			"componentType":5126,
			"count":24,
			"type":"VEC3"
		},
		{
			"bufferView":15,
			"componentType":5123,
			"count":48,
			"type":"SCALAR"
		},
		{
			"bufferView":16,
			"componentType":5126,
			"count":446,
			"max":[
				1.0652012825012207,
				3.6066558361053467,
				0.1933729499578476
			],
			"min":[
				-1.0652021169662476,
				0,
				-0.18566188216209412
			],
			"type":"VEC3"
		},
		{
			"bufferView":17,
			"componentType":5126,
			"count":446,
			"type":"VEC2"
		},
		{
			"bufferView":18,
			"componentType":5126,
			"count":446,
			"type":"VEC3"
		},
		{
			"bufferView":19,
			"componentType":5123,
			"count":804,
			"type":"SCALAR"
		},
		{
			"bufferView":20,
			"componentType":5126,
			"count":10,
			"max":[
				5,
				5,
				-10.118847846984863
			],
			"min":[
				-5,
				-2.5183486938476562,
				-30.000865936279297
			],
			"type":"VEC3"
		},
		{
			"bufferView":21,
			"componentType":5126,
			"count":10,
			"type":"VEC2"
		},
		{
			"bufferView":22,
			"componentType":5126,
			"count":10,
			"type":"VEC3"
		},
		{
			"bufferView":23,
			"componentType":5123,
			"count":18,
			"type":"SCALAR"
		},
		{
			"bufferView":24,
			"componentType":5126,
			"count":6,
			"max":[
				5,
				-2.5183486938476562,
				-30.000865936279297
			],
			"min":[
				-5,
				-2.5183486938476562,
				-35.000648498535156
			],
			"type":"VEC3"
		},
		{
			"bufferView":25,
			"componentType":5126,
			"count":6,
			"type":"VEC2"
		},
		{
			"bufferView":26,
			"componentType":5126,
			"count":6,
			"type":"VEC3"
		},
		{
			"bufferView":27,
			"componentType":5123,
			"count":12,
			"type":"SCALAR"
		}
	],
	"bufferViews":[
		{
			"buffer":0,
			"byteLength":432,
			"byteOffset":0,
			"target":34962
		},
		{
			"buffer":0,
			"byteLength":288,
			"byteOffset":432,
			"target":34962
		},
		{
			"buffer":0,
			"byteLength":432,
			"byteOffset":720,
			"target":34962
		},
		{
			"buffer":0,
			"byteLength":252,
			"byteOffset":1152,
			"target":34963
		},
		{
			"buffer":0,
			"byteLength":2568,
			"byteOffset":1404,
			"target":34962
		},
		{
			"buffer":0,
			"byteLength":1712,
			"byteOffset":3972,
			"target":34962
		},
		{
			"buffer":0,
			"byteLength":2568,
			"byteOffset":5684,
			"target":34962
		},
		{
			"buffer":0,
			"byteLength":840,
			"byteOffset":8252,
			"target":34963
		},
		{
			"buffer":0,
			"byteLength":5760,
			"byteOffset":9092,
			"target":34962
		},
		{
			"buffer":0,
			"byteLength":3840,
			"byteOffset":14852,
			"target":34962
		},
		{
			"buffer":0,
			"byteLength":5760,
			"byteOffset":18692,
			"target":34962
		},
		{
			"buffer":0,
			"byteLength":2868,
			"byteOffset":24452,
			"target":34963
		},
		{
			"buffer":0,
			"byteLength":288,
			"byteOffset":27320,
			"target":34962
		},
		{
			"buffer":0,
			"byteLength":192,
			"byteOffset":27608,
			"target":34962
		},
		{
			"buffer":0,
			"byteLength":288,
			"byteOffset":27800,
			"target":34962
		},
		{
			"buffer":0,
			"byteLength":96,
			"byteOffset":28088,
			"target":34963
		},
		{
			"buffer":0,
			"byteLength":5352,
			"byteOffset":28184,
			"target":34962
		},
		{
			"buffer":0,
			"byteLength":3568,
			"byteOffset":33536,
			"target":34962
		},
		{
			"buffer":0,
			"byteLength":5352,
			"byteOffset":37104,
			"target":34962
		},
		{
			"buffer":0,
			"byteLength":1608,
			"byteOffset":42456,
			"target":34963
		},
		{
			"buffer":0,
			"byteLength":120,
			"byteOffset":44064,
			"target":34962
		},
		{
			"buffer":0,
			"byteLength":80,
			"byteOffset":44184,
			"target":34962
		},
		{
			"buffer":0,
			"byteLength":120,
			"byteOffset":44264,
			"target":34962
		},
		{
			"buffer":0,
			"byteLength":36,
			"byteOffset":44384,
			"target":34963
		},
		{
			"buffer":0,
			"byteLength":72,
			"byteOffset":44420,
			"target":34962
		},
		{
			"buffer":0,
			"byteLength":48,
			"byteOffset":44492,
			"target":34962
		},
		{
			"buffer":0,
			"byteLength":72,
			"byteOffset":44540,
			"target":34962
		},
		{
			"buffer":0,
			"byteLength":24,
			"byteOffset":44612,
			"target":34963
		}
	],
	"samplers":[
		{
			"magFilter":9729,
			"minFilter":9987
		}
	],
	"buffers":[
		{
			"byteLength":44636,
			"uri":"spawn.bin"
		}
	]
}
