{
	"asset":{
		"generator":"Khronos glTF Blender I/O v3.5.30",
		"version":"2.0"
	},
	"scene":0,
	"scenes":[
		{
			"name":"Scene",
			"nodes":[
				0
			]
		}
	],
	"nodes":[
		{
			"mesh":0,
			"name":"Collider"
		}
	],
	"meshes":[
		{
			"name":"Plane.001",
			"primitives":[
				{
					"attributes":{
						"POSITION":0,
						"TEXCOORD_0":1,
						"NORMAL":2
					},
					"indices":3
				}
			]
		}
	],
	"accessors":[
		{
			"bufferView":0,
			"componentType":5126,
			"count":878,
			"max":[
				10,
				5,
				10
			],
			"min":[
				-10,
				-7.518348693847656,
				-34.8006477355957
			],
			"type":"VEC3"
		},
		{
			"bufferView":1,
			"componentType":5126,
			"count":878,
			"type":"VEC2"
		},
		{
			"bufferView":2,
			"componentType":5126,
			"count":878,
			"type":"VEC3"
		},
		{
			"bufferView":3,
			"componentType":5123,
			"count":2070,
			"type":"SCALAR"
		}
	],
	"bufferViews":[
		{
			"buffer":0,
			"byteLength":10536,
			"byteOffset":0,
			"target":34962
		},
		{
			"buffer":0,
			"byteLength":7024,
			"byteOffset":10536,
			"target":34962
		},
		{
			"buffer":0,
			"byteLength":10536,
			"byteOffset":17560,
			"target":34962
		},
		{
			"buffer":0,
			"byteLength":4140,
			"byteOffset":28096,
			"target":34963
		}
	],
	"buffers":[
		{
			"byteLength":32236,
			"uri":"spawn_collider.bin"
		}
	]
}
