{
	"asset":{
		"generator":"Khronos glTF Blender I/O v3.6.27",
		"version":"2.0"
	},
	"scene":0,
	"scenes":[
		{
			"name":"Scene",
			"nodes":[
				0,
				1,
				2,
				3,
				4
			]
		}
	],
	"nodes":[
		{
			"mesh":0,
			"name":"Cube"
		},
		{
			"mesh":1,
			"name":"Cube.001",
			"scale":[
				1.5110324621200562,
				1.5110324621200562,
				1.5110324621200562
			],
			"translation":[
				2.277561664581299,
				0,
				3
			]
		},
		{
			"mesh":2,
			"name":"Cube.002"
		},
		{
			"mesh":3,
			"name":"Cube.005",
			"rotation":[
				0,
				0,
				0.7071068286895752,
				0.7071068286895752
			]
		},
		{
			"mesh":4,
			"name":"Cube.006",
			"translation":[
				0,
				1,
				0
			]
		}
	],
	"materials":[
		{
			"name":"Material.001",
			"pbrMetallicRoughness":{
				"baseColorFactor":[
					0.26676055788993835,
					0.26676055788993835,
					0.26676055788993835,
					1
				],
				"metallicFactor":0
			}
		},
		{
			"doubleSided":true,
			"name":"Material.002",
			"pbrMetallicRoughness":{
				"baseColorFactor":[
					0.1328631192445755,
					0.054122187197208405,
					0.03197475150227547,
					1
				],
				"metallicFactor":0
			}
		},
		{
			"doubleSided":true,
			"name":"Material.003",
			"pbrMetallicRoughness":{
				"baseColorFactor":[
					0.07323545962572098,
					0.05425931513309479,
					0.050823766738176346,
					1
				],
				"metallicFactor":0
			}
		},
		{
			"name":"Material.001",
			"pbrMetallicRoughness":{
				"baseColorFactor":[
					0.26676055788993835,
					0.26676055788993835,
					0.26676055788993835,
					1
				],
				"metallicFactor":0
			}
		}
	],
	"meshes":[
		{
			"name":"Cube",
			"primitives":[
				{
					"attributes":{
						"POSITION":0,
						"NORMAL":1,
						"TEXCOORD_0":2
					},
					"indices":3,
					"material":0
				}
			]
		},
		{
			"name":"Cube.003",
			"primitives":[
				{
					"attributes":{
						"POSITION":4,
						"NORMAL":5,
						"TEXCOORD_0":6
					},
					"indices":7,
					"material":1
				}
			]
		},
		{
			"name":"Cube.004",
			"primitives":[
				{
					"attributes":{
						"POSITION":8,
						"NORMAL":9,
						"TEXCOORD_0":10
					},
					"indices":11,
					"material":2
				},
				{
					"attributes":{
						"POSITION":12,
						"NORMAL":13,
						"TEXCOORD_0":14
					},
					"indices":15,
					"material":3
				}
			]
		},
		{
			"name":"Cube.005",
			"primitives":[
				{
					"attributes":{
						"POSITION":16,
						"NORMAL":17,
						"TEXCOORD_0":18
					},
					"indices":19,
					"material":2
				}
			]
		},
		{
			"name":"Cube.006",
			"primitives":[
				{
					"attributes":{
						"POSITION":20,
						"NORMAL":21,
						"TEXCOORD_0":22
					},
					"indices":23,
					"material":2
				}
			]
		}
	],
	"accessors":[
		{
			"bufferView":0,
			"componentType":5126,
			"count":44,
			"max":[
				5,
				3,
				7
			],
			"min":[
				0,
				0,
				0
			],
			"type":"VEC3"
		},
		{
			"bufferView":1,
			"componentType":5126,
			"count":44,
			"type":"VEC3"
		},
		{
			"bufferView":2,
			"componentType":5126,
			"count":44,
			"type":"VEC2"
		},
		{
			"bufferView":3,
			"componentType":5123,
			"count":72,
			"type":"SCALAR"
		},
		{
			"bufferView":4,
			"componentType":5126,
			"count":124,
			"max":[
				0.6671528220176697,
				0.6000000238418579,
				0.4188269376754761
			],
			"min":[
				-0.6671529412269592,
				0,
				-0.4188268184661865
			],
			"type":"VEC3"
		},
		{
			"bufferView":5,
			"componentType":5126,
			"count":124,
			"type":"VEC3"
		},
		{
			"bufferView":6,
			"componentType":5126,
			"count":124,
			"type":"VEC2"
		},
		{
			"bufferView":7,
			"componentType":5123,
			"count":204,
			"type":"SCALAR"
		},
		{
			"bufferView":8,
			"componentType":5126,
			"count":216,
			"max":[
				4.900000095367432,
				3,
				7.100000381469727
			],
			"min":[
				0.4999995231628418,
				0,
				0.4999997615814209
			],
			"type":"VEC3"
		},
		{
			"bufferView":9,
			"componentType":5126,
			"count":216,
			"type":"VEC3"
		},
		{
			"bufferView":10,
			"componentType":5126,
			"count":216,
			"type":"VEC2"
		},
		{
			"bufferView":11,
			"componentType":5123,
			"count":324,
			"type":"SCALAR"
		},
		{
			"bufferView":12,
			"componentType":5126,
			"count":68,
			"max":[
				5,
				3,
				7
			],
			"min":[
				0,
				0,
				-1.4901161193847656e-08
			],
			"type":"VEC3"
		},
		{
			"bufferView":13,
			"componentType":5126,
			"count":68,
			"type":"VEC3"
		},
		{
			"bufferView":14,
			"componentType":5126,
			"count":68,
			"type":"VEC2"
		},
		{
			"bufferView":15,
			"componentType":5123,
			"count":120,
			"type":"SCALAR"
		},
		{
			"bufferView":16,
			"componentType":5126,
			"count":192,
			"max":[
				3.000000476837158,
				2.384185791015625e-07,
				7
			],
			"min":[
				1.600000262260437,
				-3.5,
				0.5999997854232788
			],
			"type":"VEC3"
		},
		{
			"bufferView":17,
			"componentType":5126,
			"count":192,
			"type":"VEC3"
		},
		{
			"bufferView":18,
			"componentType":5126,
			"count":192,
			"type":"VEC2"
		},
		{
			"bufferView":19,
			"componentType":5123,
			"count":288,
			"type":"SCALAR"
		},
		{
			"bufferView":20,
			"componentType":5126,
			"count":68,
			"max":[
				5,
				2.0000007152557373,
				7
			],
			"min":[
				0.5,
				1.7999998331069946,
				0.4999999701976776
			],
			"type":"VEC3"
		},
		{
			"bufferView":21,
			"componentType":5126,
			"count":68,
			"type":"VEC3"
		},
		{
			"bufferView":22,
			"componentType":5126,
			"count":68,
			"type":"VEC2"
		},
		{
			"bufferView":23,
			"componentType":5123,
			"count":120,
			"type":"SCALAR"
		}
	],
	"bufferViews":[
		{
			"buffer":0,
			"byteLength":528,
			"byteOffset":0,
			"target":34962
		},
		{
			"buffer":0,
			"byteLength":528,
			"byteOffset":528,
			"target":34962
		},
		{
			"buffer":0,
			"byteLength":352,
			"byteOffset":1056,
			"target":34962
		},
		{
			"buffer":0,
			"byteLength":144,
			"byteOffset":1408,
			"target":34963
		},
		{
			"buffer":0,
			"byteLength":1488,
			"byteOffset":1552,
			"target":34962
		},
		{
			"buffer":0,
			"byteLength":1488,
			"byteOffset":3040,
			"target":34962
		},
		{
			"buffer":0,
			"byteLength":992,
			"byteOffset":4528,
			"target":34962
		},
		{
			"buffer":0,
			"byteLength":408,
			"byteOffset":5520,
			"target":34963
		},
		{
			"buffer":0,
			"byteLength":2592,
			"byteOffset":5928,
			"target":34962
		},
		{
			"buffer":0,
			"byteLength":2592,
			"byteOffset":8520,
			"target":34962
		},
		{
			"buffer":0,
			"byteLength":1728,
			"byteOffset":11112,
			"target":34962
		},
		{
			"buffer":0,
			"byteLength":648,
			"byteOffset":12840,
			"target":34963
		},
		{
			"buffer":0,
			"byteLength":816,
			"byteOffset":13488,
			"target":34962
		},
		{
			"buffer":0,
			"byteLength":816,
			"byteOffset":14304,
			"target":34962
		},
		{
			"buffer":0,
			"byteLength":544,
			"byteOffset":15120,
			"target":34962
		},
		{
			"buffer":0,
			"byteLength":240,
			"byteOffset":15664,
			"target":34963
		},
		{
			"buffer":0,
			"byteLength":2304,
			"byteOffset":15904,
			"target":34962
		},
		{
			"buffer":0,
			"byteLength":2304,
			"byteOffset":18208,
			"target":34962
		},
		{
			"buffer":0,
			"byteLength":1536,
			"byteOffset":20512,
			"target":34962
		},
		{
			"buffer":0,
			"byteLength":576,
			"byteOffset":22048,
			"target":34963
		},
		{
			"buffer":0,
			"byteLength":816,
			"byteOffset":22624,
			"target":34962
		},
		{
			"buffer":0,
			"byteLength":816,
			"byteOffset":23440,
			"target":34962
		},
		{
			"buffer":0,
			"byteLength":544,
			"byteOffset":24256,
			"target":34962
		},
		{
			"buffer":0,
			"byteLength":240,
			"byteOffset":24800,
			"target":34963
		}
	],
	"buffers":[
		{
			"byteLength":25040,
			"uri":"study_alcove.bin"
		}
	]
}
