{
	"asset":{
		"generator":"Khronos glTF Blender I/O v3.6.27",
		"version":"2.0"
	},
	"scene":0,
	"scenes":[
		{
			"name":"Scene",
			"nodes":[
				0,
				1,
				2,
				3,
				4
			]
		}
	],
	"nodes":[
		{
			"mesh":0,
			"name":"Walls"
		},
		{
			"mesh":1,
			"name":"Table",
			"scale":[
				1.5110324621200562,
				1.5110324621200562,
				1.5110324621200562
			],
			"translation":[
				2.277561664581299,
				0,
				3
			]
		},
		{
			"mesh":2,
			"name":"CeilingBars",
			"rotation":[
				0,
				0,
				0.7071068286895752,
				0.7071068286895752
			]
		},
		{
			"mesh":3,
			"name":"Chair",
			"translation":[
				2.299999952316284,
				0,
				1.7000000476837158
			]
		},
		{
			"mesh":4,
			"name":"Shelves Collider"
		}
	],
	"materials":[
		{
			"name":"Material.001",
			"pbrMetallicRoughness":{
				"baseColorFactor":[
					0.1209285780787468,
					0.129114031791687,
					0.1575651466846466,
					1
				],
				"metallicFactor":0
			}
		},
		{
			"doubleSided":true,
			"name":"Material.002",
			"pbrMetallicRoughness":{
				"baseColorFactor":[
					0.1328631192445755,
					0.054122187197208405,
					0.03197475150227547,
					1
				],
				"metallicFactor":0
			}
		},
		{
			"doubleSided":true,
			"name":"Material.003",
			"pbrMetallicRoughness":{
				"baseColorFactor":[
					0.07323545962572098,
					0.05425931513309479,
					0.050823766738176346,
					1
				],
				"metallicFactor":0
			}
		},
		{
			"doubleSided":true,
			"name":"Material.002",
			"pbrMetallicRoughness":{
				"baseColorFactor":[
					0.1328631192445755,
					0.054122187197208405,
					0.03197475150227547,
					1
				],
				"metallicFactor":0
			}
		}
	],
	"meshes":[
		{
			"name":"Cube",
			"primitives":[
				{
					"attributes":{
						"POSITION":0,
						"NORMAL":1,
						"TEXCOORD_0":2
					},
					"indices":3,
					"material":0
				}
			]
		},
		{
			"name":"Cube.003",
			"primitives":[
				{
					"attributes":{
						"POSITION":4,
						"NORMAL":5,
						"TEXCOORD_0":6
					},
					"indices":7,
					"material":1
				}
			]
		},
		{
			"name":"Cube.005",
			"primitives":[
				{
					"attributes":{
						"POSITION":8,
						"NORMAL":9,
						"TEXCOORD_0":10
					},
					"indices":11,
					"material":2
				}
			]
		},
		{
			"name":"Cube.007",
			"primitives":[
				{
					"attributes":{
						"POSITION":12,
						"NORMAL":13,
						"TEXCOORD_0":14
					},
					"indices":15,
					"material":3
				}
			]
		},
		{
			"name":"Cube.017",
			"primitives":[
				{
					"attributes":{
						"POSITION":16,
						"NORMAL":17,
						"TEXCOORD_0":18
					},
					"indices":19
				}
			]
		}
	],
	"accessors":[
		{
			"bufferView":0,
			"componentType":5126,
			"count":98,
			"max":[
				5,
				3,
				7
			],
			"min":[
				-0.19999998807907104,
				0,
				0
			],
			"type":"VEC3"
		},
		{
			"bufferView":1,
			"componentType":5126,
			"count":98,
			"type":"VEC3"
		},
		{
			"bufferView":2,
			"componentType":5126,
			"count":98,
			"type":"VEC2"
		},
		{
			"bufferView":3,
			"componentType":5123,
			"count":180,
			"type":"SCALAR"
		},
		{
			"bufferView":4,
			"componentType":5126,
			"count":124,
			"max":[
				0.6671528220176697,
				0.6000000238418579,
				0.4188269376754761
			],
			"min":[
				-0.6671529412269592,
				0,
				-0.4188268184661865
			],
			"type":"VEC3"
		},
		{
			"bufferView":5,
			"componentType":5126,
			"count":124,
			"type":"VEC3"
		},
		{
			"bufferView":6,
			"componentType":5126,
			"count":124,
			"type":"VEC2"
		},
		{
			"bufferView":7,
			"componentType":5123,
			"count":204,
			"type":"SCALAR"
		},
		{
			"bufferView":8,
			"componentType":5126,
			"count":260,
			"max":[
				3.0000009536743164,
				2.384185791015625e-07,
				7
			],
			"min":[
				1.600000262260437,
				-5,
				0.4999999701976776
			],
			"type":"VEC3"
		},
		{
			"bufferView":9,
			"componentType":5126,
			"count":260,
			"type":"VEC3"
		},
		{
			"bufferView":10,
			"componentType":5126,
			"count":260,
			"type":"VEC2"
		},
		{
			"bufferView":11,
			"componentType":5123,
			"count":408,
			"type":"SCALAR"
		},
		{
			"bufferView":12,
			"componentType":5126,
			"count":193,
			"max":[
				0.4699999988079071,
				1.5,
				0.5
			],
			"min":[
				-0.4699999988079071,
				0,
				-0.6499999761581421
			],
			"type":"VEC3"
		},
		{
			"bufferView":13,
			"componentType":5126,
			"count":193,
			"type":"VEC3"
		},
		{
			"bufferView":14,
			"componentType":5126,
			"count":193,
			"type":"VEC2"
		},
		{
			"bufferView":15,
			"componentType":5123,
			"count":396,
			"type":"SCALAR"
		},
		{
			"bufferView":16,
			"componentType":5126,
			"count":68,
			"max":[
				5,
				3,
				7
			],
			"min":[
				0,
				0,
				0
			],
			"type":"VEC3"
		},
		{
			"bufferView":17,
			"componentType":5126,
			"count":68,
			"type":"VEC3"
		},
		{
			"bufferView":18,
			"componentType":5126,
			"count":68,
			"type":"VEC2"
		},
		{
			"bufferView":19,
			"componentType":5123,
			"count":120,
			"type":"SCALAR"
		}
	],
	"bufferViews":[
		{
			"buffer":0,
			"byteLength":1176,
			"byteOffset":0,
			"target":34962
		},
		{
			"buffer":0,
			"byteLength":1176,
			"byteOffset":1176,
			"target":34962
		},
		{
			"buffer":0,
			"byteLength":784,
			"byteOffset":2352,
			"target":34962
		},
		{
			"buffer":0,
			"byteLength":360,
			"byteOffset":3136,
			"target":34963
		},
		{
			"buffer":0,
			"byteLength":1488,
			"byteOffset":3496,
			"target":34962
		},
		{
			"buffer":0,
			"byteLength":1488,
			"byteOffset":4984,
			"target":34962
		},
		{
			"buffer":0,
			"byteLength":992,
			"byteOffset":6472,
			"target":34962
		},
		{
			"buffer":0,
			"byteLength":408,
			"byteOffset":7464,
			"target":34963
		},
		{
			"buffer":0,
			"byteLength":3120,
			"byteOffset":7872,
			"target":34962
		},
		{
			"buffer":0,
			"byteLength":3120,
			"byteOffset":10992,
			"target":34962
		},
		{
			"buffer":0,
			"byteLength":2080,
			"byteOffset":14112,
			"target":34962
		},
		{
			"buffer":0,
			"byteLength":816,
			"byteOffset":16192,
			"target":34963
		},
		{
			"buffer":0,
			"byteLength":2316,
			"byteOffset":17008,
			"target":34962
		},
		{
			"buffer":0,
			"byteLength":2316,
			"byteOffset":19324,
			"target":34962
		},
		{
			"buffer":0,
			"byteLength":1544,
			"byteOffset":21640,
			"target":34962
		},
		{
			"buffer":0,
			"byteLength":792,
			"byteOffset":23184,
			"target":34963
		},
		{
			"buffer":0,
			"byteLength":816,
			"byteOffset":23976,
			"target":34962
		},
		{
			"buffer":0,
			"byteLength":816,
			"byteOffset":24792,
			"target":34962
		},
		{
			"buffer":0,
			"byteLength":544,
			"byteOffset":25608,
			"target":34962
		},
		{
			"buffer":0,
			"byteLength":240,
			"byteOffset":26152,
			"target":34963
		}
	],
	"buffers":[
		{
			"byteLength":26392,
			"uri":"study_alcove_collider.bin"
		}
	]
}
