{
	"asset":{
		"generator":"Khronos glTF Blender I/O v3.5.30",
		"version":"2.0"
	},
	"scene":0,
	"scenes":[
		{
			"name":"Scene",
			"nodes":[
				2
			]
		}
	],
	"nodes":[
		{
			"name":"Bone"
		},
		{
			"mesh":0,
			"name":"Helmet",
			"skin":0
		},
		{
			"children":[
				1,
				0
			],
			"name":"Armature"
		}
	],
	"animations":[
		{
			"channels":[
				{
					"sampler":0,
					"target":{
						"node":0,
						"path":"translation"
					}
				},
				{
					"sampler":1,
					"target":{
						"node":0,
						"path":"rotation"
					}
				},
				{
					"sampler":2,
					"target":{
						"node":0,
						"path":"scale"
					}
				}
			],
			"name":"default",
			"samplers":[
				{
					"input":19,
					"interpolation":"LINEAR",
					"output":20
				},
				{
					"input":19,
					"interpolation":"LINEAR",
					"output":21
				},
				{
					"input":19,
					"interpolation":"LINEAR",
					"output":22
				}
			]
		},
		{
			"channels":[
				{
					"sampler":0,
					"target":{
						"node":0,
						"path":"translation"
					}
				},
				{
					"sampler":1,
					"target":{
						"node":0,
						"path":"rotation"
					}
				},
				{
					"sampler":2,
					"target":{
						"node":0,
						"path":"scale"
					}
				}
			],
			"name":"stagger_short",
			"samplers":[
				{
					"input":23,
					"interpolation":"LINEAR",
					"output":24
				},
				{
					"input":23,
					"interpolation":"LINEAR",
					"output":25
				},
				{
					"input":23,
					"interpolation":"LINEAR",
					"output":26
				}
			]
		}
	],
	"materials":[
		{
			"doubleSided":true,
			"name":"Stick",
			"pbrMetallicRoughness":{
				"baseColorFactor":[
					0.08714012056589127,
					0.04827820509672165,
					0.0352838933467865,
					1
				],
				"metallicFactor":0,
				"roughnessFactor":0.533707857131958
			}
		},
		{
			"doubleSided":true,
			"name":"Material",
			"pbrMetallicRoughness":{
				"baseColorFactor":[
					0.15091262757778168,
					0.2189648598432541,
					0.4142858386039734,
					1
				],
				"metallicFactor":0
			}
		},
		{
			"doubleSided":true,
			"name":"Helmet",
			"pbrMetallicRoughness":{
				"baseColorFactor":[
					0.2667611837387085,
					0.24371641874313354,
					0.22312740981578827,
					1
				],
				"metallicFactor":0.8146067261695862,
				"roughnessFactor":0.5
			}
		}
	],
	"meshes":[
		{
			"name":"Sphere.001",
			"primitives":[
				{
					"attributes":{
						"POSITION":0,
						"TEXCOORD_0":1,
						"NORMAL":2,
						"JOINTS_0":3,
						"WEIGHTS_0":4
					},
					"indices":5,
					"material":0
				},
				{
					"attributes":{
						"POSITION":6,
						"TEXCOORD_0":7,
						"NORMAL":8,
						"JOINTS_0":9,
						"WEIGHTS_0":10
					},
					"indices":11,
					"material":1
				},
				{
					"attributes":{
						"POSITION":12,
						"TEXCOORD_0":13,
						"NORMAL":14,
						"JOINTS_0":15,
						"WEIGHTS_0":16
					},
					"indices":17,
					"material":2
				}
			]
		}
	],
	"skins":[
		{
			"inverseBindMatrices":18,
			"joints":[
				0
			],
			"name":"Armature"
		}
	],
	"accessors":[
		{
			"bufferView":0,
			"componentType":5126,
			"count":98,
			"max":[
				0.045878246426582336,
				0.6598889827728271,
				0.04587823152542114
			],
			"min":[
				-0.04587820544838905,
				-0.004095554351806641,
				-0.04587823152542114
			],
			"type":"VEC3"
		},
		{
			"bufferView":1,
			"componentType":5126,
			"count":98,
			"type":"VEC2"
		},
		{
			"bufferView":2,
			"componentType":5126,
			"count":98,
			"type":"VEC3"
		},
		{
			"bufferView":3,
			"componentType":5121,
			"count":98,
			"type":"VEC4"
		},
		{
			"bufferView":4,
			"componentType":5126,
			"count":98,
			"type":"VEC4"
		},
		{
			"bufferView":5,
			"componentType":5123,
			"count":282,
			"type":"SCALAR"
		},
		{
			"bufferView":6,
			"componentType":5126,
			"count":346,
			"max":[
				0.354808509349823,
				1.6682615280151367,
				0.21137398481369019
			],
			"min":[
				-0.354808509349823,
				0.6206690669059753,
				-0.21137398481369019
			],
			"type":"VEC3"
		},
		{
			"bufferView":7,
			"componentType":5126,
			"count":346,
			"type":"VEC2"
		},
		{
			"bufferView":8,
			"componentType":5126,
			"count":346,
			"type":"VEC3"
		},
		{
			"bufferView":9,
			"componentType":5121,
			"count":346,
			"type":"VEC4"
		},
		{
			"bufferView":10,
			"componentType":5126,
			"count":346,
			"type":"VEC4"
		},
		{
			"bufferView":11,
			"componentType":5123,
			"count":1296,
			"type":"SCALAR"
		},
		{
			"bufferView":12,
			"componentType":5126,
			"count":416,
			"max":[
				0.19304601848125458,
				1.733895182609558,
				0.20908035337924957
			],
			"min":[
				-0.19304601848125458,
				1.3835970163345337,
				-0.19914142787456512
			],
			"type":"VEC3"
		},
		{
			"bufferView":13,
			"componentType":5126,
			"count":416,
			"type":"VEC2"
		},
		{
			"bufferView":14,
			"componentType":5126,
			"count":416,
			"type":"VEC3"
		},
		{
			"bufferView":15,
			"componentType":5121,
			"count":416,
			"type":"VEC4"
		},
		{
			"bufferView":16,
			"componentType":5126,
			"count":416,
			"type":"VEC4"
		},
		{
			"bufferView":17,
			"componentType":5123,
			"count":1902,
			"type":"SCALAR"
		},
		{
			"bufferView":18,
			"componentType":5126,
			"count":1,
			"type":"MAT4"
		},
		{
			"bufferView":19,
			"componentType":5126,
			"count":1,
			"max":[
				0.041666666666666664
			],
			"min":[
				0.041666666666666664
			],
			"type":"SCALAR"
		},
		{
			"bufferView":20,
			"componentType":5126,
			"count":1,
			"type":"VEC3"
		},
		{
			"bufferView":21,
			"componentType":5126,
			"count":1,
			"type":"VEC4"
		},
		{
			"bufferView":22,
			"componentType":5126,
			"count":1,
			"type":"VEC3"
		},
		{
			"bufferView":23,
			"componentType":5126,
			"count":24,
			"max":[
				1
			],
			"min":[
				0.041666666666666664
			],
			"type":"SCALAR"
		},
		{
			"bufferView":24,
			"componentType":5126,
			"count":24,
			"type":"VEC3"
		},
		{
			"bufferView":25,
			"componentType":5126,
			"count":24,
			"type":"VEC4"
		},
		{
			"bufferView":26,
			"componentType":5126,
			"count":24,
			"type":"VEC3"
		}
	],
	"bufferViews":[
		{
			"buffer":0,
			"byteLength":1176,
			"byteOffset":0,
			"target":34962
		},
		{
			"buffer":0,
			"byteLength":784,
			"byteOffset":1176,
			"target":34962
		},
		{
			"buffer":0,
			"byteLength":1176,
			"byteOffset":1960,
			"target":34962
		},
		{
			"buffer":0,
			"byteLength":392,
			"byteOffset":3136,
			"target":34962
		},
		{
			"buffer":0,
			"byteLength":1568,
			"byteOffset":3528,
			"target":34962
		},
		{
			"buffer":0,
			"byteLength":564,
			"byteOffset":5096,
			"target":34963
		},
		{
			"buffer":0,
			"byteLength":4152,
			"byteOffset":5660,
			"target":34962
		},
		{
			"buffer":0,
			"byteLength":2768,
			"byteOffset":9812,
			"target":34962
		},
		{
			"buffer":0,
			"byteLength":4152,
			"byteOffset":12580,
			"target":34962
		},
		{
			"buffer":0,
			"byteLength":1384,
			"byteOffset":16732,
			"target":34962
		},
		{
			"buffer":0,
			"byteLength":5536,
			"byteOffset":18116,
			"target":34962
		},
		{
			"buffer":0,
			"byteLength":2592,
			"byteOffset":23652,
			"target":34963
		},
		{
			"buffer":0,
			"byteLength":4992,
			"byteOffset":26244,
			"target":34962
		},
		{
			"buffer":0,
			"byteLength":3328,
			"byteOffset":31236,
			"target":34962
		},
		{
			"buffer":0,
			"byteLength":4992,
			"byteOffset":34564,
			"target":34962
		},
		{
			"buffer":0,
			"byteLength":1664,
			"byteOffset":39556,
			"target":34962
		},
		{
			"buffer":0,
			"byteLength":6656,
			"byteOffset":41220,
			"target":34962
		},
		{
			"buffer":0,
			"byteLength":3804,
			"byteOffset":47876,
			"target":34963
		},
		{
			"buffer":0,
			"byteLength":64,
			"byteOffset":51680
		},
		{
			"buffer":0,
			"byteLength":4,
			"byteOffset":51744
		},
		{
			"buffer":0,
			"byteLength":12,
			"byteOffset":51748
		},
		{
			"buffer":0,
			"byteLength":16,
			"byteOffset":51760
		},
		{
			"buffer":0,
			"byteLength":12,
			"byteOffset":51776
		},
		{
			"buffer":0,
			"byteLength":96,
			"byteOffset":51788
		},
		{
			"buffer":0,
			"byteLength":288,
			"byteOffset":51884
		},
		{
			"buffer":0,
			"byteLength":384,
			"byteOffset":52172
		},
		{
			"buffer":0,
			"byteLength":288,
			"byteOffset":52556
		}
	],
	"buffers":[
		{
			"byteLength":52844,
			"uri":"dummy.bin"
		}
	]
}
