{
	"asset":{
		"generator":"Khronos glTF Blender I/O v3.6.27",
		"version":"2.0"
	},
	"scene":0,
	"scenes":[
		{
			"name":"Scene",
			"nodes":[
				0,
				1,
				2,
				3,
				4
			]
		}
	],
	"nodes":[
		{
			"mesh":0,
			"name":"Plane"
		},
		{
			"mesh":1,
			"name":"___DoorwayCover0"
		},
		{
			"mesh":2,
			"name":"___DoorwayCover1"
		},
		{
			"mesh":3,
			"name":"___DoorwayCover2"
		},
		{
			"mesh":4,
			"name":"___DoorwayCover3"
		}
	],
	"materials":[
		{
			"name":"Material",
			"pbrMetallicRoughness":{
				"baseColorFactor":[
					0.800000011920929,
					0.800000011920929,
					0.800000011920929,
					1
				],
				"metallicFactor":0,
				"roughnessFactor":0.5
			}
		}
	],
	"meshes":[
		{
			"name":"Plane",
			"primitives":[
				{
					"attributes":{
						"POSITION":0,
						"NORMAL":1,
						"TEXCOORD_0":2
					},
					"indices":3,
					"material":0
				}
			]
		},
		{
			"name":"Plane.001",
			"primitives":[
				{
					"attributes":{
						"POSITION":4,
						"NORMAL":5,
						"TEXCOORD_0":6
					},
					"indices":7,
					"material":0
				}
			]
		},
		{
			"name":"Plane.002",
			"primitives":[
				{
					"attributes":{
						"POSITION":8,
						"NORMAL":9,
						"TEXCOORD_0":10
					},
					"indices":11,
					"material":0
				}
			]
		},
		{
			"name":"Plane.003",
			"primitives":[
				{
					"attributes":{
						"POSITION":12,
						"NORMAL":13,
						"TEXCOORD_0":14
					},
					"indices":11,
					"material":0
				}
			]
		},
		{
			"name":"Plane.004",
			"primitives":[
				{
					"attributes":{
						"POSITION":15,
						"NORMAL":16,
						"TEXCOORD_0":17
					},
					"indices":11,
					"material":0
				}
			]
		}
	],
	"accessors":[
		{
			"bufferView":0,
			"componentType":5126,
			"count":128,
			"max":[
				13,
				4,
				13
			],
			"min":[
				0,
				0,
				0
			],
			"type":"VEC3"
		},
		{
			"bufferView":1,
			"componentType":5126,
			"count":128,
			"type":"VEC3"
		},
		{
			"bufferView":2,
			"componentType":5126,
			"count":128,
			"type":"VEC2"
		},
		{
			"bufferView":3,
			"componentType":5123,
			"count":336,
			"type":"SCALAR"
		},
		{
			"bufferView":4,
			"componentType":5126,
			"count":4,
			"max":[
				8,
				3,
				13
			],
			"min":[
				5,
				0,
				13
			],
			"type":"VEC3"
		},
		{
			"bufferView":5,
			"componentType":5126,
			"count":4,
			"type":"VEC3"
		},
		{
			"bufferView":6,
			"componentType":5126,
			"count":4,
			"type":"VEC2"
		},
		{
			"bufferView":7,
			"componentType":5123,
			"count":6,
			"type":"SCALAR"
		},
		{
			"bufferView":8,
			"componentType":5126,
			"count":4,
			"max":[
				13,
				3,
				8
			],
			"min":[
				13,
				0,
				5
			],
			"type":"VEC3"
		},
		{
			"bufferView":9,
			"componentType":5126,
			"count":4,
			"type":"VEC3"
		},
		{
			"bufferView":10,
			"componentType":5126,
			"count":4,
			"type":"VEC2"
		},
		{
			"bufferView":11,
			"componentType":5123,
			"count":6,
			"type":"SCALAR"
		},
		{
			"bufferView":12,
			"componentType":5126,
			"count":4,
			"max":[
				8,
				3,
				0
			],
			"min":[
				5,
				0,
				0
			],
			"type":"VEC3"
		},
		{
			"bufferView":13,
			"componentType":5126,
			"count":4,
			"type":"VEC3"
		},
		{
			"bufferView":14,
			"componentType":5126,
			"count":4,
			"type":"VEC2"
		},
		{
			"bufferView":15,
			"componentType":5126,
			"count":4,
			"max":[
				0,
				3,
				8
			],
			"min":[
				0,
				0,
				5
			],
			"type":"VEC3"
		},
		{
			"bufferView":16,
			"componentType":5126,
			"count":4,
			"type":"VEC3"
		},
		{
			"bufferView":17,
			"componentType":5126,
			"count":4,
			"type":"VEC2"
		}
	],
	"bufferViews":[
		{
			"buffer":0,
			"byteLength":1536,
			"byteOffset":0,
			"target":34962
		},
		{
			"buffer":0,
			"byteLength":1536,
			"byteOffset":1536,
			"target":34962
		},
		{
			"buffer":0,
			"byteLength":1024,
			"byteOffset":3072,
			"target":34962
		},
		{
			"buffer":0,
			"byteLength":672,
			"byteOffset":4096,
			"target":34963
		},
		{
			"buffer":0,
			"byteLength":48,
			"byteOffset":4768,
			"target":34962
		},
		{
			"buffer":0,
			"byteLength":48,
			"byteOffset":4816,
			"target":34962
		},
		{
			"buffer":0,
			"byteLength":32,
			"byteOffset":4864,
			"target":34962
		},
		{
			"buffer":0,
			"byteLength":12,
			"byteOffset":4896,
			"target":34963
		},
		{
			"buffer":0,
			"byteLength":48,
			"byteOffset":4908,
			"target":34962
		},
		{
			"buffer":0,
			"byteLength":48,
			"byteOffset":4956,
			"target":34962
		},
		{
			"buffer":0,
			"byteLength":32,
			"byteOffset":5004,
			"target":34962
		},
		{
			"buffer":0,
			"byteLength":12,
			"byteOffset":5036,
			"target":34963
		},
		{
			"buffer":0,
			"byteLength":48,
			"byteOffset":5048,
			"target":34962
		},
		{
			"buffer":0,
			"byteLength":48,
			"byteOffset":5096,
			"target":34962
		},
		{
			"buffer":0,
			"byteLength":32,
			"byteOffset":5144,
			"target":34962
		},
		{
			"buffer":0,
			"byteLength":48,
			"byteOffset":5176,
			"target":34962
		},
		{
			"buffer":0,
			"byteLength":48,
			"byteOffset":5224,
			"target":34962
		},
		{
			"buffer":0,
			"byteLength":32,
			"byteOffset":5272,
			"target":34962
		}
	],
	"buffers":[
		{
			"byteLength":5304,
			"uri":"circular_junction.bin"
		}
	]
}
