{
	"asset":{
		"generator":"Khronos glTF Blender I/O v3.6.27",
		"version":"2.0"
	},
	"scene":0,
	"scenes":[
		{
			"name":"Scene",
			"nodes":[
				0,
				1
			]
		}
	],
	"nodes":[
		{
			"mesh":0,
			"name":"Cube",
			"scale":[
				0.10000002384185791,
				0.010000004433095455,
				0.010000004433095455
			]
		},
		{
			"mesh":1,
			"name":"Cube.001",
			"scale":[
				0.10000002384185791,
				0.010000004433095455,
				0.010000004433095455
			]
		}
	],
	"materials":[
		{
			"doubleSided":true,
			"name":"Material",
			"pbrMetallicRoughness":{
				"baseColorFactor":[
					0.29425185918807983,
					0.1987873613834381,
					0.09914112091064453,
					1
				],
				"metallicFactor":0
			}
		},
		{
			"doubleSided":true,
			"name":"Material.001",
			"pbrMetallicRoughness":{
				"baseColorFactor":[
					0.8000000715255737,
					0.08818583935499191,
					0.05851072072982788,
					1
				],
				"metallicFactor":0
			}
		}
	],
	"meshes":[
		{
			"name":"Cube",
			"primitives":[
				{
					"attributes":{
						"POSITION":0,
						"NORMAL":1,
						"TEXCOORD_0":2
					},
					"indices":3,
					"material":0
				}
			]
		},
		{
			"name":"Cube.001",
			"primitives":[
				{
					"attributes":{
						"POSITION":4,
						"NORMAL":5,
						"TEXCOORD_0":6
					},
					"indices":7,
					"material":1
				}
			]
		}
	],
	"accessors":[
		{
			"bufferView":0,
			"componentType":5126,
			"count":288,
			"max":[
				1,
				2.919102668762207,
				2.9394989013671875
			],
			"min":[
				-1,
				-2.9191086292266846,
				-2.9191079139709473
			],
			"type":"VEC3"
		},
		{
			"bufferView":1,
			"componentType":5126,
			"count":288,
			"type":"VEC3"
		},
		{
			"bufferView":2,
			"componentType":5126,
			"count":288,
			"type":"VEC2"
		},
		{
			"bufferView":3,
			"componentType":5123,
			"count":804,
			"type":"SCALAR"
		},
		{
			"bufferView":4,
			"componentType":5126,
			"count":264,
			"max":[
				0.29635974764823914,
				3.1363463401794434,
				3.1363472938537598
			],
			"min":[
				-0.29635950922966003,
				-3.136352777481079,
				-3.1363518238067627
			],
			"type":"VEC3"
		},
		{
			"bufferView":5,
			"componentType":5126,
			"count":264,
			"type":"VEC3"
		},
		{
			"bufferView":6,
			"componentType":5126,
			"count":264,
			"type":"VEC2"
		},
		{
			"bufferView":7,
			"componentType":5123,
			"count":768,
			"type":"SCALAR"
		}
	],
	"bufferViews":[
		{
			"buffer":0,
			"byteLength":3456,
			"byteOffset":0,
			"target":34962
		},
		{
			"buffer":0,
			"byteLength":3456,
			"byteOffset":3456,
			"target":34962
		},
		{
			"buffer":0,
			"byteLength":2304,
			"byteOffset":6912,
			"target":34962
		},
		{
			"buffer":0,
			"byteLength":1608,
			"byteOffset":9216,
			"target":34963
		},
		{
			"buffer":0,
			"byteLength":3168,
			"byteOffset":10824,
			"target":34962
		},
		{
			"buffer":0,
			"byteLength":3168,
			"byteOffset":13992,
			"target":34962
		},
		{
			"buffer":0,
			"byteLength":2112,
			"byteOffset":17160,
			"target":34962
		},
		{
			"buffer":0,
			"byteLength":1536,
			"byteOffset":19272,
			"target":34963
		}
	],
	"buffers":[
		{
			"byteLength":20808,
			"uri":"spell.bin"
		}
	]
}
