{
	"asset":{
		"generator":"Khronos glTF Blender I/O v3.6.27",
		"version":"2.0"
	},
	"scene":0,
	"scenes":[
		{
			"name":"Scene",
			"nodes":[
				0
			]
		}
	],
	"nodes":[
		{
			"mesh":0,
			"name":"Cube.001"
		}
	],
	"materials":[
		{
			"doubleSided":true,
			"name":"Material",
			"pbrMetallicRoughness":{
				"baseColorFactor":[
					0.11978530883789062,
					0.05463444069027901,
					0.03653576970100403,
					1
				],
				"metallicFactor":0,
				"roughnessFactor":0.5905511379241943
			}
		}
	],
	"meshes":[
		{
			"name":"Cube.001",
			"primitives":[
				{
					"attributes":{
						"POSITION":0,
						"NORMAL":1,
						"TEXCOORD_0":2
					},
					"indices":3,
					"material":0
				}
			]
		}
	],
	"accessors":[
		{
			"bufferView":0,
			"componentType":5126,
			"count":226,
			"max":[
				0.16099072992801666,
				0.40456098318099976,
				0.08310890197753906
			],
			"min":[
				-0.16099072992801666,
				-0.3974654972553253,
				-0.11528395116329193
			],
			"type":"VEC3"
		},
		{
			"bufferView":1,
			"componentType":5126,
			"count":226,
			"type":"VEC3"
		},
		{
			"bufferView":2,
			"componentType":5126,
			"count":226,
			"type":"VEC2"
		},
		{
			"bufferView":3,
			"componentType":5123,
			"count":1212,
			"type":"SCALAR"
		}
	],
	"bufferViews":[
		{
			"buffer":0,
			"byteLength":2712,
			"byteOffset":0,
			"target":34962
		},
		{
			"buffer":0,
			"byteLength":2712,
			"byteOffset":2712,
			"target":34962
		},
		{
			"buffer":0,
			"byteLength":1808,
			"byteOffset":5424,
			"target":34962
		},
		{
			"buffer":0,
			"byteLength":2424,
			"byteOffset":7232,
			"target":34963
		}
	],
	"buffers":[
		{
			"byteLength":9656,
			"uri":"leather_pants.bin"
		}
	]
}
