{
	"asset":{
		"generator":"Khronos glTF Blender I/O v3.6.27",
		"version":"2.0"
	},
	"scene":0,
	"scenes":[
		{
			"name":"Scene",
			"nodes":[
				0,
				1
			]
		}
	],
	"nodes":[
		{
			"mesh":0,
			"name":"Landscape"
		},
		{
			"mesh":1,
			"name":"Walls.001",
			"translation":[
				38,
				-12,
				-48.5
			]
		}
	],
	"materials":[
		{
			"doubleSided":true,
			"name":"Material.003",
			"pbrMetallicRoughness":{
				"baseColorTexture":{
					"index":0
				},
				"metallicFactor":0,
				"roughnessFactor":0.5
			}
		},
		{
			"name":"Material.004",
			"pbrMetallicRoughness":{
				"baseColorFactor":[
					0.22025781869888306,
					0.22025781869888306,
					0.22025781869888306,
					1
				],
				"metallicFactor":0
			}
		}
	],
	"meshes":[
		{
			"name":"Landscape",
			"primitives":[
				{
					"attributes":{
						"POSITION":0,
						"NORMAL":1,
						"TEXCOORD_0":2
					},
					"indices":3,
					"material":0
				}
			]
		},
		{
			"name":"Plane.002",
			"primitives":[
				{
					"attributes":{
						"POSITION":4,
						"NORMAL":5,
						"TEXCOORD_0":6
					},
					"indices":7,
					"material":1
				}
			]
		}
	],
	"textures":[
		{
			"sampler":0,
			"source":0
		}
	],
	"images":[
		{
			"mimeType":"image/png",
			"name":"splatmap",
			"uri":"../../../../../../Rainfall/DungeonGame/res/level/hub/splatmap.png"
		}
	],
	"accessors":[
		{
			"bufferView":0,
			"componentType":5126,
			"count":502670,
			"max":[
				177.44676208496094,
				28.336822509765625,
				215.22958374023438
			],
			"min":[
				-199.5216827392578,
				-43.034027099609375,
				-161.73887634277344
			],
			"type":"VEC3"
		},
		{
			"bufferView":1,
			"componentType":5126,
			"count":502670,
			"type":"VEC3"
		},
		{
			"bufferView":2,
			"componentType":5126,
			"count":502670,
			"type":"VEC2"
		},
		{
			"bufferView":3,
			"componentType":5125,
			"count":3007470,
			"type":"SCALAR"
		},
		{
			"bufferView":4,
			"componentType":5126,
			"count":88,
			"max":[
				16.531848907470703,
				20.67728042602539,
				-9.037833213806152
			],
			"min":[
				6.7049078941345215,
				9.909656524658203,
				-23.735422134399414
			],
			"type":"VEC3"
		},
		{
			"bufferView":5,
			"componentType":5126,
			"count":88,
			"type":"VEC3"
		},
		{
			"bufferView":6,
			"componentType":5126,
			"count":88,
			"type":"VEC2"
		},
		{
			"bufferView":7,
			"componentType":5123,
			"count":132,
			"type":"SCALAR"
		}
	],
	"bufferViews":[
		{
			"buffer":0,
			"byteLength":6032040,
			"byteOffset":0,
			"target":34962
		},
		{
			"buffer":0,
			"byteLength":6032040,
			"byteOffset":6032040,
			"target":34962
		},
		{
			"buffer":0,
			"byteLength":4021360,
			"byteOffset":12064080,
			"target":34962
		},
		{
			"buffer":0,
			"byteLength":12029880,
			"byteOffset":16085440,
			"target":34963
		},
		{
			"buffer":0,
			"byteLength":1056,
			"byteOffset":28115320,
			"target":34962
		},
		{
			"buffer":0,
			"byteLength":1056,
			"byteOffset":28116376,
			"target":34962
		},
		{
			"buffer":0,
			"byteLength":704,
			"byteOffset":28117432,
			"target":34962
		},
		{
			"buffer":0,
			"byteLength":264,
			"byteOffset":28118136,
			"target":34963
		}
	],
	"samplers":[
		{
			"magFilter":9729,
			"minFilter":9987
		}
	],
	"buffers":[
		{
			"byteLength":28118400,
			"uri":"map1_2.bin"
		}
	]
}
