{
	"asset":{
		"generator":"Khronos glTF Blender I/O v3.6.27",
		"version":"2.0"
	},
	"scene":0,
	"scenes":[
		{
			"name":"Scene",
			"nodes":[
				0
			]
		}
	],
	"nodes":[
		{
			"mesh":0,
			"name":"DoorWindowed"
		}
	],
	"materials":[
		{
			"doubleSided":true,
			"name":"Material.001",
			"pbrMetallicRoughness":{
				"baseColorTexture":{
					"index":0
				},
				"metallicRoughnessTexture":{
					"index":1
				}
			}
		}
	],
	"meshes":[
		{
			"name":"Cube.001",
			"primitives":[
				{
					"attributes":{
						"POSITION":0,
						"NORMAL":1,
						"TEXCOORD_0":2
					},
					"indices":3,
					"material":0
				}
			]
		}
	],
	"textures":[
		{
			"sampler":0,
			"source":0
		},
		{
			"sampler":0,
			"source":1
		}
	],
	"images":[
		{
			"mimeType":"image/png",
			"name":"door_diffuse.png.001",
			"uri":"textures/door_diffuse.png"
		},
		{
			"mimeType":"image/png",
			"name":"door_occlusionRoughnessMetallic.png.001",
			"uri":"textures/door_occlusionRoughnessMetallic.png"
		}
	],
	"accessors":[
		{
			"bufferView":0,
			"componentType":5126,
			"count":954,
			"max":[
				0.6840411424636841,
				2.299999952316284,
				0.13037583231925964
			],
			"min":[
				-0.6670469045639038,
				0,
				-0.13063514232635498
			],
			"type":"VEC3"
		},
		{
			"bufferView":1,
			"componentType":5126,
			"count":954,
			"type":"VEC3"
		},
		{
			"bufferView":2,
			"componentType":5126,
			"count":954,
			"type":"VEC2"
		},
		{
			"bufferView":3,
			"componentType":5123,
			"count":2664,
			"type":"SCALAR"
		}
	],
	"bufferViews":[
		{
			"buffer":0,
			"byteLength":11448,
			"byteOffset":0,
			"target":34962
		},
		{
			"buffer":0,
			"byteLength":11448,
			"byteOffset":11448,
			"target":34962
		},
		{
			"buffer":0,
			"byteLength":7632,
			"byteOffset":22896,
			"target":34962
		},
		{
			"buffer":0,
			"byteLength":5328,
			"byteOffset":30528,
			"target":34963
		}
	],
	"samplers":[
		{
			"magFilter":9728,
			"minFilter":9984
		}
	],
	"buffers":[
		{
			"byteLength":35856,
			"uri":"door_windowed.bin"
		}
	]
}
