{
	"asset":{
		"generator":"Khronos glTF Blender I/O v3.6.27",
		"version":"2.0"
	},
	"scene":0,
	"scenes":[
		{
			"name":"Scene",
			"nodes":[
				0,
				1
			]
		}
	],
	"nodes":[
		{
			"mesh":0,
			"name":"Torch",
			"rotation":[
				0,
				0.7071068286895752,
				0,
				0.7071068286895752
			]
		},
		{
			"mesh":1,
			"name":"Hold",
			"rotation":[
				0,
				0.7071068286895752,
				0,
				0.7071068286895752
			]
		}
	],
	"materials":[
		{
			"doubleSided":true,
			"name":"Material.001",
			"pbrMetallicRoughness":{
				"baseColorTexture":{
					"index":0
				},
				"metallicFactor":0,
				"roughnessFactor":0.5
			}
		}
	],
	"meshes":[
		{
			"name":"Cylinder.001",
			"primitives":[
				{
					"attributes":{
						"POSITION":0,
						"NORMAL":1,
						"TEXCOORD_0":2
					},
					"indices":3,
					"material":0
				}
			]
		},
		{
			"name":"Cylinder.002",
			"primitives":[
				{
					"attributes":{
						"POSITION":4,
						"NORMAL":5,
						"TEXCOORD_0":6
					},
					"indices":7,
					"material":0
				}
			]
		}
	],
	"textures":[
		{
			"sampler":0,
			"source":0
		}
	],
	"images":[
		{
			"mimeType":"image/png",
			"name":"wall_torch_diffuse.png",
			"uri":"textures/wall_torch_diffuse.png"
		}
	],
	"accessors":[
		{
			"bufferView":0,
			"componentType":5126,
			"count":3059,
			"max":[
				0.02552826702594757,
				0.4363732933998108,
				0.07039972394704819
			],
			"min":[
				-0.3049399256706238,
				-0.2597346305847168,
				-0.07054314762353897
			],
			"type":"VEC3"
		},
		{
			"bufferView":1,
			"componentType":5126,
			"count":3059,
			"type":"VEC3"
		},
		{
			"bufferView":2,
			"componentType":5126,
			"count":3059,
			"type":"VEC2"
		},
		{
			"bufferView":3,
			"componentType":5123,
			"count":10422,
			"type":"SCALAR"
		},
		{
			"bufferView":4,
			"componentType":5126,
			"count":922,
			"max":[
				0.024268321692943573,
				0.1857605278491974,
				0.03161635622382164
			],
			"min":[
				-0.18871524930000305,
				0.17880460619926453,
				-0.030301295220851898
			],
			"type":"VEC3"
		},
		{
			"bufferView":5,
			"componentType":5126,
			"count":922,
			"type":"VEC3"
		},
		{
			"bufferView":6,
			"componentType":5126,
			"count":922,
			"type":"VEC2"
		},
		{
			"bufferView":7,
			"componentType":5123,
			"count":4980,
			"type":"SCALAR"
		}
	],
	"bufferViews":[
		{
			"buffer":0,
			"byteLength":36708,
			"byteOffset":0,
			"target":34962
		},
		{
			"buffer":0,
			"byteLength":36708,
			"byteOffset":36708,
			"target":34962
		},
		{
			"buffer":0,
			"byteLength":24472,
			"byteOffset":73416,
			"target":34962
		},
		{
			"buffer":0,
			"byteLength":20844,
			"byteOffset":97888,
			"target":34963
		},
		{
			"buffer":0,
			"byteLength":11064,
			"byteOffset":118732,
			"target":34962
		},
		{
			"buffer":0,
			"byteLength":11064,
			"byteOffset":129796,
			"target":34962
		},
		{
			"buffer":0,
			"byteLength":7376,
			"byteOffset":140860,
			"target":34962
		},
		{
			"buffer":0,
			"byteLength":9960,
			"byteOffset":148236,
			"target":34963
		}
	],
	"samplers":[
		{
			"magFilter":9729,
			"minFilter":9987
		}
	],
	"buffers":[
		{
			"byteLength":158196,
			"uri":"wall_torch.bin"
		}
	]
}
