{
	"asset":{
		"generator":"Khronos glTF Blender I/O v3.6.27",
		"version":"2.0"
	},
	"scene":0,
	"scenes":[
		{
			"name":"Scene",
			"nodes":[
				0
			]
		}
	],
	"nodes":[
		{
			"mesh":0,
			"name":"Pants"
		}
	],
	"materials":[
		{
			"doubleSided":true,
			"name":"Material.002",
			"pbrMetallicRoughness":{
				"baseColorFactor":[
					0.16380278766155243,
					0.15333546698093414,
					0.1878117024898529,
					1
				],
				"roughnessFactor":0.4375
			}
		}
	],
	"meshes":[
		{
			"name":"Mesh",
			"primitives":[
				{
					"attributes":{
						"POSITION":0,
						"NORMAL":1,
						"TEXCOORD_0":2
					},
					"indices":3,
					"material":0
				}
			]
		}
	],
	"accessors":[
		{
			"bufferView":0,
			"componentType":5126,
			"count":953,
			"max":[
				0.16281193494796753,
				0.39272940158843994,
				0.0750543549656868
			],
			"min":[
				-0.16281193494796753,
				-0.4088897705078125,
				-0.11142118275165558
			],
			"type":"VEC3"
		},
		{
			"bufferView":1,
			"componentType":5126,
			"count":953,
			"type":"VEC3"
		},
		{
			"bufferView":2,
			"componentType":5126,
			"count":953,
			"type":"VEC2"
		},
		{
			"bufferView":3,
			"componentType":5123,
			"count":4992,
			"type":"SCALAR"
		}
	],
	"bufferViews":[
		{
			"buffer":0,
			"byteLength":11436,
			"byteOffset":0,
			"target":34962
		},
		{
			"buffer":0,
			"byteLength":11436,
			"byteOffset":11436,
			"target":34962
		},
		{
			"buffer":0,
			"byteLength":7624,
			"byteOffset":22872,
			"target":34962
		},
		{
			"buffer":0,
			"byteLength":9984,
			"byteOffset":30496,
			"target":34963
		}
	],
	"buffers":[
		{
			"byteLength":40480,
			"uri":"iron_greaves.bin"
		}
	]
}
