{
	"asset":{
		"generator":"Khronos glTF Blender I/O v3.6.27",
		"version":"2.0"
	},
	"scene":0,
	"scenes":[
		{
			"name":"Scene",
			"nodes":[
				0,
				1,
				2,
				3,
				4
			]
		}
	],
	"nodes":[
		{
			"mesh":0,
			"name":"___PIece1",
			"scale":[
				0.7204467058181763,
				0.7204467058181763,
				0.7204467058181763
			],
			"translation":[
				-0.2265620082616806,
				0.02442142739892006,
				0.4026254415512085
			]
		},
		{
			"mesh":1,
			"name":"___PIece2",
			"scale":[
				0.7204467058181763,
				0.7204467058181763,
				0.7204467058181763
			],
			"translation":[
				-0.3180185556411743,
				-0.36309584975242615,
				-0.31024396419525146
			]
		},
		{
			"mesh":2,
			"name":"___PIece3",
			"scale":[
				0.7204467058181763,
				0.7204467058181763,
				0.7204467058181763
			],
			"translation":[
				-0.27524495124816895,
				-0.026490725576877594,
				-0.3907780647277832
			]
		},
		{
			"mesh":3,
			"name":"___PIece4",
			"scale":[
				0.7204467058181763,
				0.7204467058181763,
				0.7204467058181763
			],
			"translation":[
				-0.285585880279541,
				-0.3702888488769531,
				0.35032719373703003
			]
		},
		{
			"mesh":4,
			"name":"___PIece5",
			"scale":[
				0.7204467058181763,
				0.7204467058181763,
				0.7204467058181763
			],
			"translation":[
				0.31892356276512146,
				-0.1866055727005005,
				0.3009636402130127
			]
		}
	],
	"materials":[
		{
			"doubleSided":true,
			"name":"Material.001",
			"pbrMetallicRoughness":{
				"baseColorFactor":[
					0.13520051538944244,
					0.06693823635578156,
					0.03245590999722481,
					1
				],
				"metallicFactor":0
			}
		}
	],
	"meshes":[
		{
			"name":"Fractured_cell.001",
			"primitives":[
				{
					"attributes":{
						"POSITION":0,
						"NORMAL":1,
						"TEXCOORD_0":2
					},
					"indices":3,
					"material":0
				}
			]
		},
		{
			"name":"Fractured_cell.002",
			"primitives":[
				{
					"attributes":{
						"POSITION":4,
						"NORMAL":5,
						"TEXCOORD_0":6
					},
					"indices":7,
					"material":0
				}
			]
		},
		{
			"name":"Fractured_cell.005",
			"primitives":[
				{
					"attributes":{
						"POSITION":8,
						"NORMAL":9,
						"TEXCOORD_0":10
					},
					"indices":11,
					"material":0
				}
			]
		},
		{
			"name":"Fractured_cell.007",
			"primitives":[
				{
					"attributes":{
						"POSITION":12,
						"NORMAL":13,
						"TEXCOORD_0":14
					},
					"indices":15,
					"material":0
				}
			]
		},
		{
			"name":"Fractured_cell.008",
			"primitives":[
				{
					"attributes":{
						"POSITION":16,
						"NORMAL":17,
						"TEXCOORD_0":18
					},
					"indices":19,
					"material":0
				}
			]
		}
	],
	"accessors":[
		{
			"bufferView":0,
			"componentType":5126,
			"count":62,
			"max":[
				0.39138293266296387,
				0.2242749184370041,
				0.09737460315227509
			],
			"min":[
				-0.2734380066394806,
				-0.27364376187324524,
				-0.15164144337177277
			],
			"type":"VEC3"
		},
		{
			"bufferView":1,
			"componentType":5126,
			"count":62,
			"type":"VEC3"
		},
		{
			"bufferView":2,
			"componentType":5126,
			"count":62,
			"type":"VEC2"
		},
		{
			"bufferView":3,
			"componentType":5123,
			"count":102,
			"type":"SCALAR"
		},
		{
			"bufferView":4,
			"componentType":5126,
			"count":74,
			"max":[
				0.3162342607975006,
				0.11239314079284668,
				0.30798619985580444
			],
			"min":[
				-0.18198144435882568,
				-0.13690415024757385,
				-0.18975603580474854
			],
			"type":"VEC3"
		},
		{
			"bufferView":5,
			"componentType":5126,
			"count":74,
			"type":"VEC3"
		},
		{
			"bufferView":6,
			"componentType":5126,
			"count":74,
			"type":"VEC2"
		},
		{
			"bufferView":7,
			"componentType":5123,
			"count":132,
			"type":"SCALAR"
		},
		{
			"bufferView":8,
			"componentType":5126,
			"count":48,
			"max":[
				0.523352861404419,
				0.27498406171798706,
				0.13993772864341736
			],
			"min":[
				-0.22475507855415344,
				-0.22265420854091644,
				-0.1092219427227974
			],
			"type":"VEC3"
		},
		{
			"bufferView":9,
			"componentType":5126,
			"count":48,
			"type":"VEC3"
		},
		{
			"bufferView":10,
			"componentType":5126,
			"count":48,
			"type":"VEC2"
		},
		{
			"bufferView":11,
			"componentType":5123,
			"count":84,
			"type":"SCALAR"
		},
		{
			"bufferView":12,
			"componentType":5126,
			"count":56,
			"max":[
				0.2839547097682953,
				0.11947734653949738,
				0.14967282116413116
			],
			"min":[
				-0.21441413462162018,
				-0.1297111213207245,
				-0.3473709225654602
			],
			"type":"VEC3"
		},
		{
			"bufferView":13,
			"componentType":5126,
			"count":56,
			"type":"VEC3"
		},
		{
			"bufferView":14,
			"componentType":5126,
			"count":56,
			"type":"VEC2"
		},
		{
			"bufferView":15,
			"componentType":5123,
			"count":96,
			"type":"SCALAR"
		},
		{
			"bufferView":16,
			"componentType":5126,
			"count":66,
			"max":[
				0.18107645213603973,
				0.43544328212738037,
				0.1990363746881485
			],
			"min":[
				-0.31764981150627136,
				-0.3133944272994995,
				-0.2992478609085083
			],
			"type":"VEC3"
		},
		{
			"bufferView":17,
			"componentType":5126,
			"count":66,
			"type":"VEC3"
		},
		{
			"bufferView":18,
			"componentType":5126,
			"count":66,
			"type":"VEC2"
		},
		{
			"bufferView":19,
			"componentType":5123,
			"count":120,
			"type":"SCALAR"
		}
	],
	"bufferViews":[
		{
			"buffer":0,
			"byteLength":744,
			"byteOffset":0,
			"target":34962
		},
		{
			"buffer":0,
			"byteLength":744,
			"byteOffset":744,
			"target":34962
		},
		{
			"buffer":0,
			"byteLength":496,
			"byteOffset":1488,
			"target":34962
		},
		{
			"buffer":0,
			"byteLength":204,
			"byteOffset":1984,
			"target":34963
		},
		{
			"buffer":0,
			"byteLength":888,
			"byteOffset":2188,
			"target":34962
		},
		{
			"buffer":0,
			"byteLength":888,
			"byteOffset":3076,
			"target":34962
		},
		{
			"buffer":0,
			"byteLength":592,
			"byteOffset":3964,
			"target":34962
		},
		{
			"buffer":0,
			"byteLength":264,
			"byteOffset":4556,
			"target":34963
		},
		{
			"buffer":0,
			"byteLength":576,
			"byteOffset":4820,
			"target":34962
		},
		{
			"buffer":0,
			"byteLength":576,
			"byteOffset":5396,
			"target":34962
		},
		{
			"buffer":0,
			"byteLength":384,
			"byteOffset":5972,
			"target":34962
		},
		{
			"buffer":0,
			"byteLength":168,
			"byteOffset":6356,
			"target":34963
		},
		{
			"buffer":0,
			"byteLength":672,
			"byteOffset":6524,
			"target":34962
		},
		{
			"buffer":0,
			"byteLength":672,
			"byteOffset":7196,
			"target":34962
		},
		{
			"buffer":0,
			"byteLength":448,
			"byteOffset":7868,
			"target":34962
		},
		{
			"buffer":0,
			"byteLength":192,
			"byteOffset":8316,
			"target":34963
		},
		{
			"buffer":0,
			"byteLength":792,
			"byteOffset":8508,
			"target":34962
		},
		{
			"buffer":0,
			"byteLength":792,
			"byteOffset":9300,
			"target":34962
		},
		{
			"buffer":0,
			"byteLength":528,
			"byteOffset":10092,
			"target":34962
		},
		{
			"buffer":0,
			"byteLength":240,
			"byteOffset":10620,
			"target":34963
		}
	],
	"buffers":[
		{
			"byteLength":10860,
			"uri":"crate_fractured.bin"
		}
	]
}
