{
	"asset":{
		"generator":"Khronos glTF Blender I/O v3.6.27",
		"version":"2.0"
	},
	"scene":0,
	"scenes":[
		{
			"name":"Scene",
			"nodes":[
				0,
				1,
				2,
				3,
				4,
				5,
				6,
				7,
				8,
				9
			]
		}
	],
	"nodes":[
		{
			"mesh":0,
			"name":"Fractured_cell",
			"translation":[
				0.08901546895503998,
				-0.2633744180202484,
				-0.12061818689107895
			]
		},
		{
			"mesh":1,
			"name":"Fractured_cell.001",
			"translation":[
				0.1760255992412567,
				0.20835617184638977,
				-0.018349170684814453
			]
		},
		{
			"mesh":2,
			"name":"Fractured_cell.002",
			"translation":[
				-0.2265620082616806,
				0.02442142739892006,
				0.4026254415512085
			]
		},
		{
			"mesh":3,
			"name":"Fractured_cell.003",
			"translation":[
				-0.3180185556411743,
				-0.36309584975242615,
				-0.31024396419525146
			]
		},
		{
			"mesh":4,
			"name":"Fractured_cell.004",
			"translation":[
				-0.47106775641441345,
				-0.0013258978724479675,
				-0.01675071194767952
			]
		},
		{
			"mesh":5,
			"name":"Fractured_cell.005",
			"translation":[
				-0.3352333903312683,
				0.34544920921325684,
				0.3351936936378479
			]
		},
		{
			"mesh":6,
			"name":"Fractured_cell.006",
			"translation":[
				-0.27524495124816895,
				-0.026490725576877594,
				-0.3907780647277832
			]
		},
		{
			"mesh":7,
			"name":"Fractured_cell.007",
			"translation":[
				-0.33037450909614563,
				0.3503754734992981,
				-0.3351799249649048
			]
		},
		{
			"mesh":8,
			"name":"Fractured_cell.008",
			"translation":[
				-0.285585880279541,
				-0.3702888488769531,
				0.35032719373703003
			]
		},
		{
			"mesh":9,
			"name":"Fractured_cell.009",
			"translation":[
				0.31892356276512146,
				-0.1866055727005005,
				0.3009636402130127
			]
		}
	],
	"materials":[
		{
			"doubleSided":true,
			"name":"Material.001",
			"pbrMetallicRoughness":{
				"baseColorTexture":{
					"index":0
				},
				"metallicFactor":0
			}
		}
	],
	"meshes":[
		{
			"name":"Fractured_cell.010",
			"primitives":[
				{
					"attributes":{
						"POSITION":0,
						"NORMAL":1,
						"TEXCOORD_0":2
					},
					"indices":3,
					"material":0
				}
			]
		},
		{
			"name":"Fractured_cell.011",
			"primitives":[
				{
					"attributes":{
						"POSITION":4,
						"NORMAL":5,
						"TEXCOORD_0":6
					},
					"indices":7,
					"material":0
				}
			]
		},
		{
			"name":"Fractured_cell.001",
			"primitives":[
				{
					"attributes":{
						"POSITION":8,
						"NORMAL":9,
						"TEXCOORD_0":10
					},
					"indices":11,
					"material":0
				}
			]
		},
		{
			"name":"Fractured_cell.002",
			"primitives":[
				{
					"attributes":{
						"POSITION":12,
						"NORMAL":13,
						"TEXCOORD_0":14
					},
					"indices":15,
					"material":0
				}
			]
		},
		{
			"name":"Fractured_cell.003",
			"primitives":[
				{
					"attributes":{
						"POSITION":16,
						"NORMAL":17,
						"TEXCOORD_0":18
					},
					"indices":19,
					"material":0
				}
			]
		},
		{
			"name":"Fractured_cell.004",
			"primitives":[
				{
					"attributes":{
						"POSITION":20,
						"NORMAL":21,
						"TEXCOORD_0":22
					},
					"indices":23,
					"material":0
				}
			]
		},
		{
			"name":"Fractured_cell.005",
			"primitives":[
				{
					"attributes":{
						"POSITION":24,
						"NORMAL":25,
						"TEXCOORD_0":26
					},
					"indices":27,
					"material":0
				}
			]
		},
		{
			"name":"Fractured_cell.006",
			"primitives":[
				{
					"attributes":{
						"POSITION":28,
						"NORMAL":29,
						"TEXCOORD_0":30
					},
					"indices":31,
					"material":0
				}
			]
		},
		{
			"name":"Fractured_cell.007",
			"primitives":[
				{
					"attributes":{
						"POSITION":32,
						"NORMAL":33,
						"TEXCOORD_0":34
					},
					"indices":35,
					"material":0
				}
			]
		},
		{
			"name":"Fractured_cell.008",
			"primitives":[
				{
					"attributes":{
						"POSITION":36,
						"NORMAL":37,
						"TEXCOORD_0":38
					},
					"indices":39,
					"material":0
				}
			]
		}
	],
	"textures":[
		{
			"sampler":0,
			"source":0
		}
	],
	"images":[
		{
			"mimeType":"image/png",
			"name":"crate_diffuse.png.001",
			"uri":"textures/crate_diffuse.png"
		}
	],
	"accessors":[
		{
			"bufferView":0,
			"componentType":5126,
			"count":128,
			"max":[
				0.41098451614379883,
				0.26261478662490845,
				0.6190758347511292
			],
			"min":[
				-0.5875881314277649,
				-0.23662559688091278,
				-0.37938180565834045
			],
			"type":"VEC3"
		},
		{
			"bufferView":1,
			"componentType":5126,
			"count":128,
			"type":"VEC3"
		},
		{
			"bufferView":2,
			"componentType":5126,
			"count":128,
			"type":"VEC2"
		},
		{
			"bufferView":3,
			"componentType":5123,
			"count":234,
			"type":"SCALAR"
		},
		{
			"bufferView":4,
			"componentType":5126,
			"count":130,
			"max":[
				0.3239744305610657,
				0.29164382815361023,
				0.5183491706848145
			],
			"min":[
				-0.6744955778121948,
				-0.20758682489395142,
				-0.48165082931518555
			],
			"type":"VEC3"
		},
		{
			"bufferView":5,
			"componentType":5126,
			"count":130,
			"type":"VEC3"
		},
		{
			"bufferView":6,
			"componentType":5126,
			"count":130,
			"type":"VEC2"
		},
		{
			"bufferView":7,
			"componentType":5123,
			"count":240,
			"type":"SCALAR"
		},
		{
			"bufferView":8,
			"componentType":5126,
			"count":62,
			"max":[
				0.39138293266296387,
				0.2242749184370041,
				0.09737460315227509
			],
			"min":[
				-0.2734380066394806,
				-0.27364376187324524,
				-0.15164144337177277
			],
			"type":"VEC3"
		},
		{
			"bufferView":9,
			"componentType":5126,
			"count":62,
			"type":"VEC3"
		},
		{
			"bufferView":10,
			"componentType":5126,
			"count":62,
			"type":"VEC2"
		},
		{
			"bufferView":11,
			"componentType":5123,
			"count":102,
			"type":"SCALAR"
		},
		{
			"bufferView":12,
			"componentType":5126,
			"count":74,
			"max":[
				0.3162342607975006,
				0.11239314079284668,
				0.30798619985580444
			],
			"min":[
				-0.18198144435882568,
				-0.13690415024757385,
				-0.18975603580474854
			],
			"type":"VEC3"
		},
		{
			"bufferView":13,
			"componentType":5126,
			"count":74,
			"type":"VEC3"
		},
		{
			"bufferView":14,
			"componentType":5126,
			"count":74,
			"type":"VEC2"
		},
		{
			"bufferView":15,
			"componentType":5123,
			"count":132,
			"type":"SCALAR"
		},
		{
			"bufferView":16,
			"componentType":5126,
			"count":94,
			"max":[
				0.022124674171209335,
				0.49915969371795654,
				0.2656390964984894
			],
			"min":[
				-0.028932254761457443,
				-0.49660319089889526,
				-0.23249536752700806
			],
			"type":"VEC3"
		},
		{
			"bufferView":17,
			"componentType":5126,
			"count":94,
			"type":"VEC3"
		},
		{
			"bufferView":18,
			"componentType":5126,
			"count":94,
			"type":"VEC2"
		},
		{
			"bufferView":19,
			"componentType":5123,
			"count":168,
			"type":"SCALAR"
		},
		{
			"bufferView":20,
			"componentType":5126,
			"count":58,
			"max":[
				0.33349794149398804,
				0.15455077588558197,
				0.1648063212633133
			],
			"min":[
				-0.1647666096687317,
				-0.09449801594018936,
				-0.33296194672584534
			],
			"type":"VEC3"
		},
		{
			"bufferView":21,
			"componentType":5126,
			"count":58,
			"type":"VEC3"
		},
		{
			"bufferView":22,
			"componentType":5126,
			"count":58,
			"type":"VEC2"
		},
		{
			"bufferView":23,
			"componentType":5123,
			"count":96,
			"type":"SCALAR"
		},
		{
			"bufferView":24,
			"componentType":5126,
			"count":48,
			"max":[
				0.523352861404419,
				0.27498406171798706,
				0.13993772864341736
			],
			"min":[
				-0.22475507855415344,
				-0.22265420854091644,
				-0.1092219427227974
			],
			"type":"VEC3"
		},
		{
			"bufferView":25,
			"componentType":5126,
			"count":48,
			"type":"VEC3"
		},
		{
			"bufferView":26,
			"componentType":5126,
			"count":48,
			"type":"VEC2"
		},
		{
			"bufferView":27,
			"componentType":5123,
			"count":84,
			"type":"SCALAR"
		},
		{
			"bufferView":28,
			"componentType":5126,
			"count":58,
			"max":[
				0.3288649022579193,
				0.1496245115995407,
				0.33323973417282104
			],
			"min":[
				-0.16962550580501556,
				-0.09950576722621918,
				-0.16482004523277283
			],
			"type":"VEC3"
		},
		{
			"bufferView":29,
			"componentType":5126,
			"count":58,
			"type":"VEC3"
		},
		{
			"bufferView":30,
			"componentType":5126,
			"count":58,
			"type":"VEC2"
		},
		{
			"bufferView":31,
			"componentType":5123,
			"count":96,
			"type":"SCALAR"
		},
		{
			"bufferView":32,
			"componentType":5126,
			"count":56,
			"max":[
				0.2839547097682953,
				0.11947734653949738,
				0.14967282116413116
			],
			"min":[
				-0.21441413462162018,
				-0.1297111213207245,
				-0.3473709225654602
			],
			"type":"VEC3"
		},
		{
			"bufferView":33,
			"componentType":5126,
			"count":56,
			"type":"VEC3"
		},
		{
			"bufferView":34,
			"componentType":5126,
			"count":56,
			"type":"VEC2"
		},
		{
			"bufferView":35,
			"componentType":5123,
			"count":96,
			"type":"SCALAR"
		},
		{
			"bufferView":36,
			"componentType":5126,
			"count":66,
			"max":[
				0.18107645213603973,
				0.43544328212738037,
				0.1990363746881485
			],
			"min":[
				-0.31764981150627136,
				-0.3133944272994995,
				-0.2992478609085083
			],
			"type":"VEC3"
		},
		{
			"bufferView":37,
			"componentType":5126,
			"count":66,
			"type":"VEC3"
		},
		{
			"bufferView":38,
			"componentType":5126,
			"count":66,
			"type":"VEC2"
		},
		{
			"bufferView":39,
			"componentType":5123,
			"count":120,
			"type":"SCALAR"
		}
	],
	"bufferViews":[
		{
			"buffer":0,
			"byteLength":1536,
			"byteOffset":0,
			"target":34962
		},
		{
			"buffer":0,
			"byteLength":1536,
			"byteOffset":1536,
			"target":34962
		},
		{
			"buffer":0,
			"byteLength":1024,
			"byteOffset":3072,
			"target":34962
		},
		{
			"buffer":0,
			"byteLength":468,
			"byteOffset":4096,
			"target":34963
		},
		{
			"buffer":0,
			"byteLength":1560,
			"byteOffset":4564,
			"target":34962
		},
		{
			"buffer":0,
			"byteLength":1560,
			"byteOffset":6124,
			"target":34962
		},
		{
			"buffer":0,
			"byteLength":1040,
			"byteOffset":7684,
			"target":34962
		},
		{
			"buffer":0,
			"byteLength":480,
			"byteOffset":8724,
			"target":34963
		},
		{
			"buffer":0,
			"byteLength":744,
			"byteOffset":9204,
			"target":34962
		},
		{
			"buffer":0,
			"byteLength":744,
			"byteOffset":9948,
			"target":34962
		},
		{
			"buffer":0,
			"byteLength":496,
			"byteOffset":10692,
			"target":34962
		},
		{
			"buffer":0,
			"byteLength":204,
			"byteOffset":11188,
			"target":34963
		},
		{
			"buffer":0,
			"byteLength":888,
			"byteOffset":11392,
			"target":34962
		},
		{
			"buffer":0,
			"byteLength":888,
			"byteOffset":12280,
			"target":34962
		},
		{
			"buffer":0,
			"byteLength":592,
			"byteOffset":13168,
			"target":34962
		},
		{
			"buffer":0,
			"byteLength":264,
			"byteOffset":13760,
			"target":34963
		},
		{
			"buffer":0,
			"byteLength":1128,
			"byteOffset":14024,
			"target":34962
		},
		{
			"buffer":0,
			"byteLength":1128,
			"byteOffset":15152,
			"target":34962
		},
		{
			"buffer":0,
			"byteLength":752,
			"byteOffset":16280,
			"target":34962
		},
		{
			"buffer":0,
			"byteLength":336,
			"byteOffset":17032,
			"target":34963
		},
		{
			"buffer":0,
			"byteLength":696,
			"byteOffset":17368,
			"target":34962
		},
		{
			"buffer":0,
			"byteLength":696,
			"byteOffset":18064,
			"target":34962
		},
		{
			"buffer":0,
			"byteLength":464,
			"byteOffset":18760,
			"target":34962
		},
		{
			"buffer":0,
			"byteLength":192,
			"byteOffset":19224,
			"target":34963
		},
		{
			"buffer":0,
			"byteLength":576,
			"byteOffset":19416,
			"target":34962
		},
		{
			"buffer":0,
			"byteLength":576,
			"byteOffset":19992,
			"target":34962
		},
		{
			"buffer":0,
			"byteLength":384,
			"byteOffset":20568,
			"target":34962
		},
		{
			"buffer":0,
			"byteLength":168,
			"byteOffset":20952,
			"target":34963
		},
		{
			"buffer":0,
			"byteLength":696,
			"byteOffset":21120,
			"target":34962
		},
		{
			"buffer":0,
			"byteLength":696,
			"byteOffset":21816,
			"target":34962
		},
		{
			"buffer":0,
			"byteLength":464,
			"byteOffset":22512,
			"target":34962
		},
		{
			"buffer":0,
			"byteLength":192,
			"byteOffset":22976,
			"target":34963
		},
		{
			"buffer":0,
			"byteLength":672,
			"byteOffset":23168,
			"target":34962
		},
		{
			"buffer":0,
			"byteLength":672,
			"byteOffset":23840,
			"target":34962
		},
		{
			"buffer":0,
			"byteLength":448,
			"byteOffset":24512,
			"target":34962
		},
		{
			"buffer":0,
			"byteLength":192,
			"byteOffset":24960,
			"target":34963
		},
		{
			"buffer":0,
			"byteLength":792,
			"byteOffset":25152,
			"target":34962
		},
		{
			"buffer":0,
			"byteLength":792,
			"byteOffset":25944,
			"target":34962
		},
		{
			"buffer":0,
			"byteLength":528,
			"byteOffset":26736,
			"target":34962
		},
		{
			"buffer":0,
			"byteLength":240,
			"byteOffset":27264,
			"target":34963
		}
	],
	"samplers":[
		{
			"magFilter":9729,
			"minFilter":9987
		}
	],
	"buffers":[
		{
			"byteLength":27504,
			"uri":"crate_fractured.bin"
		}
	]
}
