{
	"asset":{
		"generator":"Khronos glTF Blender I/O v3.6.27",
		"version":"2.0"
	},
	"scene":0,
	"scenes":[
		{
			"name":"Scene",
			"nodes":[
				0
			]
		}
	],
	"nodes":[
		{
			"mesh":0,
			"name":"Cylinder"
		}
	],
	"materials":[
		{
			"doubleSided":true,
			"name":"Material.001",
			"pbrMetallicRoughness":{
				"baseColorFactor":[
					0.23301564157009125,
					0.23301564157009125,
					0.23301564157009125,
					1
				],
				"roughnessFactor":0.2777777910232544
			}
		},
		{
			"doubleSided":true,
			"name":"Material.002",
			"pbrMetallicRoughness":{
				"baseColorFactor":[
					0.034656375646591187,
					0.01693621091544628,
					0.01133140828460455,
					1
				],
				"metallicFactor":0,
				"roughnessFactor":0.6507936716079712
			}
		}
	],
	"meshes":[
		{
			"name":"Cylinder",
			"primitives":[
				{
					"attributes":{
						"POSITION":0,
						"NORMAL":1,
						"TEXCOORD_0":2
					},
					"indices":3,
					"material":0
				},
				{
					"attributes":{
						"POSITION":4,
						"NORMAL":5,
						"TEXCOORD_0":6
					},
					"indices":7,
					"material":1
				}
			]
		}
	],
	"accessors":[
		{
			"bufferView":0,
			"componentType":5126,
			"count":284,
			"max":[
				0.00937595684081316,
				0.8349648714065552,
				0.10507775098085403
			],
			"min":[
				-0.0093482481315732,
				-0.14684826135635376,
				-0.10504927486181259
			],
			"type":"VEC3"
		},
		{
			"bufferView":1,
			"componentType":5126,
			"count":284,
			"type":"VEC3"
		},
		{
			"bufferView":2,
			"componentType":5126,
			"count":284,
			"type":"VEC2"
		},
		{
			"bufferView":3,
			"componentType":5123,
			"count":708,
			"type":"SCALAR"
		},
		{
			"bufferView":4,
			"componentType":5126,
			"count":60,
			"max":[
				0.005875908769667149,
				0.07179657369852066,
				0.018593570217490196
			],
			"min":[
				-0.00584819633513689,
				-0.0864809975028038,
				-0.018565108999609947
			],
			"type":"VEC3"
		},
		{
			"bufferView":5,
			"componentType":5126,
			"count":60,
			"type":"VEC3"
		},
		{
			"bufferView":6,
			"componentType":5126,
			"count":60,
			"type":"VEC2"
		},
		{
			"bufferView":7,
			"componentType":5123,
			"count":144,
			"type":"SCALAR"
		}
	],
	"bufferViews":[
		{
			"buffer":0,
			"byteLength":3408,
			"byteOffset":0,
			"target":34962
		},
		{
			"buffer":0,
			"byteLength":3408,
			"byteOffset":3408,
			"target":34962
		},
		{
			"buffer":0,
			"byteLength":2272,
			"byteOffset":6816,
			"target":34962
		},
		{
			"buffer":0,
			"byteLength":1416,
			"byteOffset":9088,
			"target":34963
		},
		{
			"buffer":0,
			"byteLength":720,
			"byteOffset":10504,
			"target":34962
		},
		{
			"buffer":0,
			"byteLength":720,
			"byteOffset":11224,
			"target":34962
		},
		{
			"buffer":0,
			"byteLength":480,
			"byteOffset":11944,
			"target":34962
		},
		{
			"buffer":0,
			"byteLength":288,
			"byteOffset":12424,
			"target":34963
		}
	],
	"buffers":[
		{
			"byteLength":12712,
			"uri":"kings_sword.bin"
		}
	]
}
