{
	"asset":{
		"generator":"Khronos glTF Blender I/O v3.6.27",
		"version":"2.0"
	},
	"scene":0,
	"scenes":[
		{
			"name":"Scene",
			"nodes":[
				0
			]
		}
	],
	"nodes":[
		{
			"mesh":0,
			"name":"Cube"
		}
	],
	"materials":[
		{
			"doubleSided":true,
			"name":"Material",
			"pbrMetallicRoughness":{
				"baseColorTexture":{
					"index":0
				},
				"metallicFactor":0
			}
		}
	],
	"meshes":[
		{
			"name":"Cube",
			"primitives":[
				{
					"attributes":{
						"POSITION":0,
						"NORMAL":1,
						"TEXCOORD_0":2
					},
					"indices":3,
					"material":0
				}
			]
		}
	],
	"textures":[
		{
			"sampler":0,
			"source":0
		}
	],
	"images":[
		{
			"mimeType":"image/png",
			"name":"bed_diffuse",
			"uri":"bed_diffuse.png"
		}
	],
	"accessors":[
		{
			"bufferView":0,
			"componentType":5126,
			"count":305,
			"max":[
				0.4500000476837158,
				0.41647934913635254,
				0.9500000476837158
			],
			"min":[
				-0.4500000476837158,
				2.9802322387695312e-08,
				-0.9500000476837158
			],
			"type":"VEC3"
		},
		{
			"bufferView":1,
			"componentType":5126,
			"count":305,
			"type":"VEC3"
		},
		{
			"bufferView":2,
			"componentType":5126,
			"count":305,
			"type":"VEC2"
		},
		{
			"bufferView":3,
			"componentType":5123,
			"count":996,
			"type":"SCALAR"
		}
	],
	"bufferViews":[
		{
			"buffer":0,
			"byteLength":3660,
			"byteOffset":0,
			"target":34962
		},
		{
			"buffer":0,
			"byteLength":3660,
			"byteOffset":3660,
			"target":34962
		},
		{
			"buffer":0,
			"byteLength":2440,
			"byteOffset":7320,
			"target":34962
		},
		{
			"buffer":0,
			"byteLength":1992,
			"byteOffset":9760,
			"target":34963
		}
	],
	"samplers":[
		{
			"magFilter":9729,
			"minFilter":9987
		}
	],
	"buffers":[
		{
			"byteLength":11752,
			"uri":"bed.bin"
		}
	]
}
