{
	"asset":{
		"generator":"Khronos glTF Blender I/O v3.6.27",
		"version":"2.0"
	},
	"scene":0,
	"scenes":[
		{
			"name":"Scene",
			"nodes":[
				0
			]
		}
	],
	"nodes":[
		{
			"mesh":0,
			"name":"Chestplate"
		}
	],
	"materials":[
		{
			"doubleSided":true,
			"name":"Material.001",
			"pbrMetallicRoughness":{
				"baseColorFactor":[
					0.16380278766155243,
					0.15333546698093414,
					0.1878117024898529,
					1
				],
				"roughnessFactor":0.4375
			}
		}
	],
	"meshes":[
		{
			"name":"Mesh",
			"primitives":[
				{
					"attributes":{
						"POSITION":0,
						"NORMAL":1,
						"TEXCOORD_0":2
					},
					"indices":3,
					"material":0
				}
			]
		}
	],
	"accessors":[
		{
			"bufferView":0,
			"componentType":5126,
			"count":1723,
			"max":[
				0.19160763919353485,
				0.3060741722583771,
				0.16372667253017426
			],
			"min":[
				-0.19160763919353485,
				-0.30239206552505493,
				-0.11505493521690369
			],
			"type":"VEC3"
		},
		{
			"bufferView":1,
			"componentType":5126,
			"count":1723,
			"type":"VEC3"
		},
		{
			"bufferView":2,
			"componentType":5126,
			"count":1723,
			"type":"VEC2"
		},
		{
			"bufferView":3,
			"componentType":5123,
			"count":8304,
			"type":"SCALAR"
		}
	],
	"bufferViews":[
		{
			"buffer":0,
			"byteLength":20676,
			"byteOffset":0,
			"target":34962
		},
		{
			"buffer":0,
			"byteLength":20676,
			"byteOffset":20676,
			"target":34962
		},
		{
			"buffer":0,
			"byteLength":13784,
			"byteOffset":41352,
			"target":34962
		},
		{
			"buffer":0,
			"byteLength":16608,
			"byteOffset":55136,
			"target":34963
		}
	],
	"buffers":[
		{
			"byteLength":71744,
			"uri":"iron_chestplate.bin"
		}
	]
}
