{
	"asset":{
		"generator":"Khronos glTF Blender I/O v3.6.27",
		"version":"2.0"
	},
	"scene":0,
	"scenes":[
		{
			"name":"Scene",
			"nodes":[
				0,
				1,
				2,
				3,
				4,
				5,
				6
			]
		}
	],
	"nodes":[
		{
			"mesh":0,
			"name":"Plane"
		},
		{
			"name":"__connector0",
			"translation":[
				0.44756582379341125,
				0,
				-5.490140438079834
			]
		},
		{
			"name":"__connector1",
			"rotation":[
				0,
				1,
				0,
				1.6292068494294654e-07
			],
			"translation":[
				0.44756582379341125,
				0,
				6.474785327911377
			]
		},
		{
			"mesh":1,
			"name":"Plane.001"
		},
		{
			"name":"__connector2",
			"rotation":[
				0,
				-0.70710688829422,
				0,
				0.7071066498756409
			],
			"translation":[
				6.653811454772949,
				7,
				0.35805273056030273
			]
		},
		{
			"mesh":2,
			"name":"Plane.002"
		},
		{
			"name":"__connector3",
			"rotation":[
				0,
				0.7071065902709961,
				0,
				0.7071069478988647
			],
			"translation":[
				-5.467764854431152,
				7,
				4.502181529998779
			]
		}
	],
	"animations":[
		{
			"channels":[
				{
					"sampler":0,
					"target":{
						"node":1,
						"path":"translation"
					}
				},
				{
					"sampler":1,
					"target":{
						"node":1,
						"path":"rotation"
					}
				},
				{
					"sampler":2,
					"target":{
						"node":1,
						"path":"scale"
					}
				}
			],
			"name":"EmptyAction",
			"samplers":[
				{
					"input":12,
					"interpolation":"LINEAR",
					"output":13
				},
				{
					"input":12,
					"interpolation":"LINEAR",
					"output":14
				},
				{
					"input":12,
					"interpolation":"LINEAR",
					"output":15
				}
			]
		},
		{
			"channels":[
				{
					"sampler":0,
					"target":{
						"node":2,
						"path":"translation"
					}
				},
				{
					"sampler":1,
					"target":{
						"node":2,
						"path":"rotation"
					}
				},
				{
					"sampler":2,
					"target":{
						"node":2,
						"path":"scale"
					}
				}
			],
			"name":"EmptyAction.001",
			"samplers":[
				{
					"input":12,
					"interpolation":"LINEAR",
					"output":16
				},
				{
					"input":12,
					"interpolation":"LINEAR",
					"output":17
				},
				{
					"input":12,
					"interpolation":"LINEAR",
					"output":18
				}
			]
		},
		{
			"channels":[
				{
					"sampler":0,
					"target":{
						"node":4,
						"path":"translation"
					}
				},
				{
					"sampler":1,
					"target":{
						"node":4,
						"path":"rotation"
					}
				},
				{
					"sampler":2,
					"target":{
						"node":4,
						"path":"scale"
					}
				}
			],
			"name":"EmptyAction.002",
			"samplers":[
				{
					"input":12,
					"interpolation":"LINEAR",
					"output":19
				},
				{
					"input":12,
					"interpolation":"LINEAR",
					"output":20
				},
				{
					"input":12,
					"interpolation":"LINEAR",
					"output":21
				}
			]
		},
		{
			"channels":[
				{
					"sampler":0,
					"target":{
						"node":6,
						"path":"translation"
					}
				},
				{
					"sampler":1,
					"target":{
						"node":6,
						"path":"rotation"
					}
				},
				{
					"sampler":2,
					"target":{
						"node":6,
						"path":"scale"
					}
				}
			],
			"name":"EmptyAction.003",
			"samplers":[
				{
					"input":12,
					"interpolation":"LINEAR",
					"output":22
				},
				{
					"input":12,
					"interpolation":"LINEAR",
					"output":23
				},
				{
					"input":12,
					"interpolation":"LINEAR",
					"output":24
				}
			]
		}
	],
	"meshes":[
		{
			"name":"Plane",
			"primitives":[
				{
					"attributes":{
						"POSITION":0,
						"NORMAL":1,
						"TEXCOORD_0":2
					},
					"indices":3
				}
			]
		},
		{
			"name":"Plane.001",
			"primitives":[
				{
					"attributes":{
						"POSITION":4,
						"NORMAL":5,
						"TEXCOORD_0":6
					},
					"indices":7
				}
			]
		},
		{
			"name":"Plane.002",
			"primitives":[
				{
					"attributes":{
						"POSITION":8,
						"NORMAL":9,
						"TEXCOORD_0":10
					},
					"indices":11
				}
			]
		}
	],
	"accessors":[
		{
			"bufferView":0,
			"componentType":5126,
			"count":4,
			"max":[
				6,
				0,
				6
			],
			"min":[
				-5,
				0,
				-5
			],
			"type":"VEC3"
		},
		{
			"bufferView":1,
			"componentType":5126,
			"count":4,
			"type":"VEC3"
		},
		{
			"bufferView":2,
			"componentType":5126,
			"count":4,
			"type":"VEC2"
		},
		{
			"bufferView":3,
			"componentType":5123,
			"count":6,
			"type":"SCALAR"
		},
		{
			"bufferView":4,
			"componentType":5126,
			"count":75,
			"max":[
				6,
				13,
				6
			],
			"min":[
				-5,
				0,
				-5
			],
			"type":"VEC3"
		},
		{
			"bufferView":5,
			"componentType":5126,
			"count":75,
			"type":"VEC3"
		},
		{
			"bufferView":6,
			"componentType":5126,
			"count":75,
			"type":"VEC2"
		},
		{
			"bufferView":7,
			"componentType":5123,
			"count":240,
			"type":"SCALAR"
		},
		{
			"bufferView":8,
			"componentType":5126,
			"count":20,
			"max":[
				6,
				7.006308555603027,
				6
			],
			"min":[
				-5,
				6.987382411956787,
				-1.5
			],
			"type":"VEC3"
		},
		{
			"bufferView":9,
			"componentType":5126,
			"count":20,
			"type":"VEC3"
		},
		{
			"bufferView":10,
			"componentType":5126,
			"count":20,
			"type":"VEC2"
		},
		{
			"bufferView":11,
			"componentType":5123,
			"count":36,
			"type":"SCALAR"
		},
		{
			"bufferView":12,
			"componentType":5126,
			"count":1,
			"max":[
				0
			],
			"min":[
				0
			],
			"type":"SCALAR"
		},
		{
			"bufferView":13,
			"componentType":5126,
			"count":1,
			"type":"VEC3"
		},
		{
			"bufferView":14,
			"componentType":5126,
			"count":1,
			"type":"VEC4"
		},
		{
			"bufferView":15,
			"componentType":5126,
			"count":1,
			"type":"VEC3"
		},
		{
			"bufferView":16,
			"componentType":5126,
			"count":1,
			"type":"VEC3"
		},
		{
			"bufferView":17,
			"componentType":5126,
			"count":1,
			"type":"VEC4"
		},
		{
			"bufferView":18,
			"componentType":5126,
			"count":1,
			"type":"VEC3"
		},
		{
			"bufferView":19,
			"componentType":5126,
			"count":1,
			"type":"VEC3"
		},
		{
			"bufferView":20,
			"componentType":5126,
			"count":1,
			"type":"VEC4"
		},
		{
			"bufferView":21,
			"componentType":5126,
			"count":1,
			"type":"VEC3"
		},
		{
			"bufferView":22,
			"componentType":5126,
			"count":1,
			"type":"VEC3"
		},
		{
			"bufferView":23,
			"componentType":5126,
			"count":1,
			"type":"VEC4"
		},
		{
			"bufferView":24,
			"componentType":5126,
			"count":1,
			"type":"VEC3"
		}
	],
	"bufferViews":[
		{
			"buffer":0,
			"byteLength":48,
			"byteOffset":0,
			"target":34962
		},
		{
			"buffer":0,
			"byteLength":48,
			"byteOffset":48,
			"target":34962
		},
		{
			"buffer":0,
			"byteLength":32,
			"byteOffset":96,
			"target":34962
		},
		{
			"buffer":0,
			"byteLength":12,
			"byteOffset":128,
			"target":34963
		},
		{
			"buffer":0,
			"byteLength":900,
			"byteOffset":140,
			"target":34962
		},
		{
			"buffer":0,
			"byteLength":900,
			"byteOffset":1040,
			"target":34962
		},
		{
			"buffer":0,
			"byteLength":600,
			"byteOffset":1940,
			"target":34962
		},
		{
			"buffer":0,
			"byteLength":480,
			"byteOffset":2540,
			"target":34963
		},
		{
			"buffer":0,
			"byteLength":240,
			"byteOffset":3020,
			"target":34962
		},
		{
			"buffer":0,
			"byteLength":240,
			"byteOffset":3260,
			"target":34962
		},
		{
			"buffer":0,
			"byteLength":160,
			"byteOffset":3500,
			"target":34962
		},
		{
			"buffer":0,
			"byteLength":72,
			"byteOffset":3660,
			"target":34963
		},
		{
			"buffer":0,
			"byteLength":4,
			"byteOffset":3732
		},
		{
			"buffer":0,
			"byteLength":12,
			"byteOffset":3736
		},
		{
			"buffer":0,
			"byteLength":16,
			"byteOffset":3748
		},
		{
			"buffer":0,
			"byteLength":12,
			"byteOffset":3764
		},
		{
			"buffer":0,
			"byteLength":12,
			"byteOffset":3776
		},
		{
			"buffer":0,
			"byteLength":16,
			"byteOffset":3788
		},
		{
			"buffer":0,
			"byteLength":12,
			"byteOffset":3804
		},
		{
			"buffer":0,
			"byteLength":12,
			"byteOffset":3816
		},
		{
			"buffer":0,
			"byteLength":16,
			"byteOffset":3828
		},
		{
			"buffer":0,
			"byteLength":12,
			"byteOffset":3844
		},
		{
			"buffer":0,
			"byteLength":12,
			"byteOffset":3856
		},
		{
			"buffer":0,
			"byteLength":16,
			"byteOffset":3868
		},
		{
			"buffer":0,
			"byteLength":12,
			"byteOffset":3884
		}
	],
	"buffers":[
		{
			"byteLength":3896,
			"uri":"room6.bin"
		}
	]
}
