{
	"asset":{
		"generator":"Khronos glTF Blender I/O v3.6.27",
		"version":"2.0"
	},
	"scene":0,
	"scenes":[
		{
			"name":"Scene",
			"nodes":[
				0,
				1,
				2,
				3,
				4
			]
		}
	],
	"nodes":[
		{
			"mesh":0,
			"name":"ADD[0]9",
			"translation":[
				-0.29141098260879517,
				14.36899185180664,
				-58.08913040161133
			]
		},
		{
			"mesh":1,
			"name":"ADD[0]9.001",
			"translation":[
				-0.29141098260879517,
				14.36899185180664,
				-58.08913040161133
			]
		},
		{
			"mesh":2,
			"name":"Cube.001",
			"translation":[
				0,
				26,
				-58
			]
		},
		{
			"mesh":3,
			"name":"Gate Boulder",
			"rotation":[
				0.061020802706480026,
				0.6381890773773193,
				-0.330752432346344,
				0.6925272345542908
			],
			"scale":[
				0.37825191020965576,
				0.3782518804073334,
				0.37825191020965576
			],
			"translation":[
				2.759310483932495,
				-0.15894639492034912,
				-56.26008605957031
			]
		},
		{
			"mesh":4,
			"name":"Tower Jumping Platform",
			"rotation":[
				0,
				0.936062216758728,
				0,
				0.3518344759941101
			],
			"translation":[
				0.3438147306442261,
				12.54054069519043,
				-46.11275100708008
			]
		}
	],
	"materials":[
		{
			"name":"Material.007",
			"pbrMetallicRoughness":{
				"baseColorTexture":{
					"index":0
				},
				"metallicFactor":0,
				"roughnessFactor":0.5
			}
		},
		{
			"name":"Material.007",
			"pbrMetallicRoughness":{
				"baseColorTexture":{
					"index":1
				},
				"metallicFactor":0,
				"roughnessFactor":0.5
			}
		},
		{
			"doubleSided":true,
			"name":"Material",
			"pbrMetallicRoughness":{
				"baseColorFactor":[
					0.800000011920929,
					0.800000011920929,
					0.800000011920929,
					1
				],
				"metallicFactor":0,
				"roughnessFactor":0.5
			}
		}
	],
	"meshes":[
		{
			"name":"BRUSH.036",
			"primitives":[
				{
					"attributes":{
						"POSITION":0,
						"NORMAL":1,
						"TEXCOORD_0":2
					},
					"indices":3,
					"material":0
				}
			]
		},
		{
			"name":"BRUSH.001",
			"primitives":[
				{
					"attributes":{
						"POSITION":4,
						"NORMAL":5,
						"TEXCOORD_0":6
					},
					"indices":7,
					"material":0
				}
			]
		},
		{
			"name":"Cube.003",
			"primitives":[
				{
					"attributes":{
						"POSITION":8,
						"NORMAL":9,
						"TEXCOORD_0":10
					},
					"indices":11,
					"material":1
				},
				{
					"attributes":{
						"POSITION":12,
						"NORMAL":13,
						"TEXCOORD_0":14
					},
					"indices":15,
					"material":2
				}
			]
		},
		{
			"name":"BRUSH.004",
			"primitives":[
				{
					"attributes":{
						"POSITION":16,
						"NORMAL":17,
						"TEXCOORD_0":18
					},
					"indices":19,
					"material":1
				}
			]
		},
		{
			"name":"BRUSH.006",
			"primitives":[
				{
					"attributes":{
						"POSITION":20,
						"NORMAL":21,
						"TEXCOORD_0":22
					},
					"indices":23,
					"material":1
				}
			]
		}
	],
	"textures":[
		{
			"sampler":0,
			"source":0
		},
		{
			"sampler":0,
			"source":0
		}
	],
	"images":[
		{
			"mimeType":"image/png",
			"name":"floor_diffuse.png",
			"uri":"../../../../DungeonGame/res/texture/materials/floor_diffuse.png"
		}
	],
	"accessors":[
		{
			"bufferView":0,
			"componentType":5126,
			"count":2120,
			"max":[
				13.291411399841309,
				31.641006469726562,
				15.038307189941406
			],
			"min":[
				-13.726588249206543,
				-41.36899185180664,
				-12.910871505737305
			],
			"type":"VEC3"
		},
		{
			"bufferView":1,
			"componentType":5126,
			"count":2120,
			"type":"VEC3"
		},
		{
			"bufferView":2,
			"componentType":5126,
			"count":2120,
			"type":"VEC2"
		},
		{
			"bufferView":3,
			"componentType":5123,
			"count":4356,
			"type":"SCALAR"
		},
		{
			"bufferView":4,
			"componentType":5126,
			"count":148,
			"max":[
				6.29141092300415,
				15.63100814819336,
				7.089128017425537
			],
			"min":[
				-11.708588600158691,
				1.6310081481933594,
				-11.910871505737305
			],
			"type":"VEC3"
		},
		{
			"bufferView":5,
			"componentType":5126,
			"count":148,
			"type":"VEC3"
		},
		{
			"bufferView":6,
			"componentType":5126,
			"count":148,
			"type":"VEC2"
		},
		{
			"bufferView":7,
			"componentType":5123,
			"count":294,
			"type":"SCALAR"
		},
		{
			"bufferView":8,
			"componentType":5126,
			"count":132,
			"max":[
				7,
				17,
				6.000001430511475
			],
			"min":[
				-9,
				2.0000014305114746,
				4
			],
			"type":"VEC3"
		},
		{
			"bufferView":9,
			"componentType":5126,
			"count":132,
			"type":"VEC3"
		},
		{
			"bufferView":10,
			"componentType":5126,
			"count":132,
			"type":"VEC2"
		},
		{
			"bufferView":11,
			"componentType":5123,
			"count":234,
			"type":"SCALAR"
		},
		{
			"bufferView":12,
			"componentType":5126,
			"count":514,
			"max":[
				9.0625,
				14.5,
				8.997568130493164
			],
			"min":[
				-6,
				-10,
				-9.000001907348633
			],
			"type":"VEC3"
		},
		{
			"bufferView":13,
			"componentType":5126,
			"count":514,
			"type":"VEC3"
		},
		{
			"bufferView":14,
			"componentType":5126,
			"count":514,
			"type":"VEC2"
		},
		{
			"bufferView":15,
			"componentType":5123,
			"count":936,
			"type":"SCALAR"
		},
		{
			"bufferView":16,
			"componentType":5126,
			"count":2128,
			"max":[
				10.522265434265137,
				10.666374206542969,
				10.556839942932129
			],
			"min":[
				-12.752394676208496,
				-8.37554931640625,
				-12.008322715759277
			],
			"type":"VEC3"
		},
		{
			"bufferView":17,
			"componentType":5126,
			"count":2128,
			"type":"VEC3"
		},
		{
			"bufferView":18,
			"componentType":5126,
			"count":2128,
			"type":"VEC2"
		},
		{
			"bufferView":19,
			"componentType":5123,
			"count":3192,
			"type":"SCALAR"
		},
		{
			"bufferView":20,
			"componentType":5126,
			"count":380,
			"max":[
				5.957230567932129,
				3.3143410682678223,
				5.973150253295898
			],
			"min":[
				-11.677682876586914,
				-0.7279984951019287,
				-10.118868827819824
			],
			"type":"VEC3"
		},
		{
			"bufferView":21,
			"componentType":5126,
			"count":380,
			"type":"VEC3"
		},
		{
			"bufferView":22,
			"componentType":5126,
			"count":380,
			"type":"VEC2"
		},
		{
			"bufferView":23,
			"componentType":5123,
			"count":672,
			"type":"SCALAR"
		}
	],
	"bufferViews":[
		{
			"buffer":0,
			"byteLength":25440,
			"byteOffset":0,
			"target":34962
		},
		{
			"buffer":0,
			"byteLength":25440,
			"byteOffset":25440,
			"target":34962
		},
		{
			"buffer":0,
			"byteLength":16960,
			"byteOffset":50880,
			"target":34962
		},
		{
			"buffer":0,
			"byteLength":8712,
			"byteOffset":67840,
			"target":34963
		},
		{
			"buffer":0,
			"byteLength":1776,
			"byteOffset":76552,
			"target":34962
		},
		{
			"buffer":0,
			"byteLength":1776,
			"byteOffset":78328,
			"target":34962
		},
		{
			"buffer":0,
			"byteLength":1184,
			"byteOffset":80104,
			"target":34962
		},
		{
			"buffer":0,
			"byteLength":588,
			"byteOffset":81288,
			"target":34963
		},
		{
			"buffer":0,
			"byteLength":1584,
			"byteOffset":81876,
			"target":34962
		},
		{
			"buffer":0,
			"byteLength":1584,
			"byteOffset":83460,
			"target":34962
		},
		{
			"buffer":0,
			"byteLength":1056,
			"byteOffset":85044,
			"target":34962
		},
		{
			"buffer":0,
			"byteLength":468,
			"byteOffset":86100,
			"target":34963
		},
		{
			"buffer":0,
			"byteLength":6168,
			"byteOffset":86568,
			"target":34962
		},
		{
			"buffer":0,
			"byteLength":6168,
			"byteOffset":92736,
			"target":34962
		},
		{
			"buffer":0,
			"byteLength":4112,
			"byteOffset":98904,
			"target":34962
		},
		{
			"buffer":0,
			"byteLength":1872,
			"byteOffset":103016,
			"target":34963
		},
		{
			"buffer":0,
			"byteLength":25536,
			"byteOffset":104888,
			"target":34962
		},
		{
			"buffer":0,
			"byteLength":25536,
			"byteOffset":130424,
			"target":34962
		},
		{
			"buffer":0,
			"byteLength":17024,
			"byteOffset":155960,
			"target":34962
		},
		{
			"buffer":0,
			"byteLength":6384,
			"byteOffset":172984,
			"target":34963
		},
		{
			"buffer":0,
			"byteLength":4560,
			"byteOffset":179368,
			"target":34962
		},
		{
			"buffer":0,
			"byteLength":4560,
			"byteOffset":183928,
			"target":34962
		},
		{
			"buffer":0,
			"byteLength":3040,
			"byteOffset":188488,
			"target":34962
		},
		{
			"buffer":0,
			"byteLength":1344,
			"byteOffset":191528,
			"target":34963
		}
	],
	"samplers":[
		{
			"magFilter":9729,
			"minFilter":9987
		}
	],
	"buffers":[
		{
			"byteLength":192872,
			"uri":"testmap1_collider.bin"
		}
	]
}
