{
	"asset":{
		"generator":"Khronos glTF Blender I/O v3.6.27",
		"version":"2.0"
	},
	"scene":0,
	"scenes":[
		{
			"name":"Scene",
			"nodes":[
				0,
				1,
				2,
				3,
				4,
				5,
				6,
				7,
				8,
				9,
				10,
				11,
				12,
				13
			]
		}
	],
	"nodes":[
		{
			"mesh":0,
			"name":"ADD[0]9",
			"translation":[
				-0.29141098260879517,
				14.36899185180664,
				-58.08913040161133
			]
		},
		{
			"mesh":1,
			"name":"ADD[0]9.001",
			"translation":[
				-0.29141098260879517,
				14.36899185180664,
				-58.08913040161133
			]
		},
		{
			"mesh":2,
			"name":"Cube.001",
			"translation":[
				0,
				26,
				-58
			]
		},
		{
			"mesh":3,
			"name":"Gate Boulder",
			"rotation":[
				0.061020802706480026,
				0.6381890773773193,
				-0.330752432346344,
				0.6925272345542908
			],
			"scale":[
				0.37825191020965576,
				0.3782518804073334,
				0.37825191020965576
			],
			"translation":[
				2.759310483932495,
				-0.15894639492034912,
				-56.26008605957031
			]
		},
		{
			"mesh":4,
			"name":"Tower Jumping Platform",
			"rotation":[
				0,
				0.936062216758728,
				0,
				0.3518344759941101
			],
			"translation":[
				0.3438147306442261,
				12.54054069519043,
				-46.11275100708008
			]
		},
		{
			"mesh":5,
			"name":"Shortsword",
			"rotation":[
				0.11998097598552704,
				0.037829987704753876,
				0.9461398720741272,
				0.29831668734550476
			],
			"translation":[
				-10.593999862670898,
				43.667198181152344,
				-50.11756896972656
			]
		},
		{
			"mesh":6,
			"name":"Skeleton",
			"rotation":[
				0,
				0.7071068286895752,
				0,
				0.7071068286895752
			],
			"translation":[
				-10.671249389648438,
				43.378116607666016,
				-50
			]
		},
		{
			"mesh":7,
			"name":"Ladder.001",
			"rotation":[
				0,
				-0.7071068286895752,
				0,
				0.7071068286895752
			],
			"translation":[
				7,
				-2.5,
				-58
			]
		},
		{
			"mesh":8,
			"name":"Ladder.002",
			"rotation":[
				0,
				-0.7071068286895752,
				0,
				0.7071068286895752
			],
			"translation":[
				7,
				-7.5,
				-58
			]
		},
		{
			"mesh":9,
			"name":"Ladder.003",
			"rotation":[
				0,
				-0.7071068286895752,
				0,
				0.7071068286895752
			],
			"translation":[
				7,
				-12.5,
				-58
			]
		},
		{
			"mesh":10,
			"name":"Ladder.004",
			"rotation":[
				0,
				-0.7071068286895752,
				0,
				0.7071068286895752
			],
			"translation":[
				7,
				-17.5,
				-58
			]
		},
		{
			"mesh":11,
			"name":"Ladder.005",
			"rotation":[
				0,
				-0.7071068286895752,
				0,
				0.7071068286895752
			],
			"translation":[
				7,
				-22.5,
				-58
			]
		},
		{
			"mesh":12,
			"name":"Ladder.006",
			"rotation":[
				0,
				-0.7071068286895752,
				0,
				0.7071068286895752
			],
			"translation":[
				-10,
				27,
				-50
			]
		},
		{
			"mesh":13,
			"name":"Ladder.009",
			"rotation":[
				0,
				-0.7071068286895752,
				0,
				0.7071068286895752
			],
			"translation":[
				-10,
				22,
				-50
			]
		}
	],
	"animations":[
		{
			"channels":[
				{
					"sampler":0,
					"target":{
						"node":5,
						"path":"translation"
					}
				},
				{
					"sampler":1,
					"target":{
						"node":5,
						"path":"rotation"
					}
				},
				{
					"sampler":2,
					"target":{
						"node":5,
						"path":"scale"
					}
				}
			],
			"name":"ShortswordAction",
			"samplers":[
				{
					"input":58,
					"interpolation":"LINEAR",
					"output":59
				},
				{
					"input":58,
					"interpolation":"LINEAR",
					"output":60
				},
				{
					"input":58,
					"interpolation":"LINEAR",
					"output":61
				}
			]
		}
	],
	"materials":[
		{
			"name":"Material.007",
			"pbrMetallicRoughness":{
				"baseColorTexture":{
					"index":0
				},
				"metallicFactor":0,
				"roughnessFactor":0.5
			}
		},
		{
			"name":"Material.007",
			"pbrMetallicRoughness":{
				"baseColorTexture":{
					"index":1
				},
				"metallicFactor":0,
				"roughnessFactor":0.5
			}
		},
		{
			"doubleSided":true,
			"name":"Material",
			"pbrMetallicRoughness":{
				"baseColorFactor":[
					0.800000011920929,
					0.800000011920929,
					0.800000011920929,
					1
				],
				"metallicFactor":0,
				"roughnessFactor":0.5
			}
		},
		{
			"doubleSided":true,
			"name":"Blade",
			"pbrMetallicRoughness":{
				"baseColorFactor":[
					0.800000011920929,
					0.800000011920929,
					0.800000011920929,
					1
				],
				"roughnessFactor":0.238095223903656
			}
		},
		{
			"doubleSided":true,
			"name":"Grip",
			"pbrMetallicRoughness":{
				"baseColorFactor":[
					0.08713914453983307,
					0.043227843940258026,
					0.02593625709414482,
					1
				],
				"metallicFactor":0,
				"roughnessFactor":0.5
			}
		},
		{
			"doubleSided":true,
			"name":"Skeleton.001",
			"pbrMetallicRoughness":{
				"baseColorFactor":[
					0.5925784111022949,
					0.47552695870399475,
					0.4130220115184784,
					1
				],
				"metallicFactor":0
			}
		},
		{
			"doubleSided":true,
			"name":"Material.016",
			"pbrMetallicRoughness":{
				"baseColorFactor":[
					0.2529434263706207,
					0.2529434263706207,
					0.2529434263706207,
					1
				],
				"roughnessFactor":0.5
			}
		},
		{
			"doubleSided":true,
			"name":"Material.017",
			"pbrMetallicRoughness":{
				"baseColorFactor":[
					0.2529434263706207,
					0.2529434263706207,
					0.2529434263706207,
					1
				],
				"roughnessFactor":0.5
			}
		}
	],
	"meshes":[
		{
			"name":"BRUSH.036",
			"primitives":[
				{
					"attributes":{
						"POSITION":0,
						"NORMAL":1,
						"TEXCOORD_0":2
					},
					"indices":3,
					"material":0
				}
			]
		},
		{
			"name":"BRUSH.001",
			"primitives":[
				{
					"attributes":{
						"POSITION":4,
						"NORMAL":5,
						"TEXCOORD_0":6
					},
					"indices":7,
					"material":0
				}
			]
		},
		{
			"name":"Cube.003",
			"primitives":[
				{
					"attributes":{
						"POSITION":8,
						"NORMAL":9,
						"TEXCOORD_0":10
					},
					"indices":11,
					"material":1
				},
				{
					"attributes":{
						"POSITION":12,
						"NORMAL":13,
						"TEXCOORD_0":14
					},
					"indices":15,
					"material":2
				}
			]
		},
		{
			"name":"BRUSH.004",
			"primitives":[
				{
					"attributes":{
						"POSITION":16,
						"NORMAL":17,
						"TEXCOORD_0":18
					},
					"indices":19,
					"material":1
				}
			]
		},
		{
			"name":"BRUSH.006",
			"primitives":[
				{
					"attributes":{
						"POSITION":20,
						"NORMAL":21,
						"TEXCOORD_0":22
					},
					"indices":23,
					"material":1
				}
			]
		},
		{
			"name":"Cylinder",
			"primitives":[
				{
					"attributes":{
						"POSITION":24,
						"NORMAL":25,
						"TEXCOORD_0":26
					},
					"indices":27,
					"material":3
				},
				{
					"attributes":{
						"POSITION":28,
						"NORMAL":29,
						"TEXCOORD_0":30
					},
					"indices":31,
					"material":4
				}
			]
		},
		{
			"name":"9ccda17a963f4d50a03ee5f51a900251.001",
			"primitives":[
				{
					"attributes":{
						"POSITION":32,
						"NORMAL":33
					},
					"indices":34,
					"material":5
				}
			]
		},
		{
			"name":"Cube.023",
			"primitives":[
				{
					"attributes":{
						"POSITION":35,
						"NORMAL":36,
						"TEXCOORD_0":37
					},
					"indices":38,
					"material":6
				}
			]
		},
		{
			"name":"Cube.028",
			"primitives":[
				{
					"attributes":{
						"POSITION":39,
						"NORMAL":40,
						"TEXCOORD_0":41
					},
					"indices":42,
					"material":7
				}
			]
		},
		{
			"name":"Cube.029",
			"primitives":[
				{
					"attributes":{
						"POSITION":43,
						"NORMAL":44,
						"TEXCOORD_0":45
					},
					"indices":42,
					"material":7
				}
			]
		},
		{
			"name":"Cube.030",
			"primitives":[
				{
					"attributes":{
						"POSITION":46,
						"NORMAL":47,
						"TEXCOORD_0":48
					},
					"indices":42,
					"material":7
				}
			]
		},
		{
			"name":"Cube.031",
			"primitives":[
				{
					"attributes":{
						"POSITION":49,
						"NORMAL":50,
						"TEXCOORD_0":51
					},
					"indices":42,
					"material":7
				}
			]
		},
		{
			"name":"Cube.024",
			"primitives":[
				{
					"attributes":{
						"POSITION":52,
						"NORMAL":53,
						"TEXCOORD_0":54
					},
					"indices":38,
					"material":6
				}
			]
		},
		{
			"name":"Cube.027",
			"primitives":[
				{
					"attributes":{
						"POSITION":55,
						"NORMAL":56,
						"TEXCOORD_0":57
					},
					"indices":42,
					"material":7
				}
			]
		}
	],
	"textures":[
		{
			"sampler":0,
			"source":0
		},
		{
			"sampler":0,
			"source":0
		}
	],
	"images":[
		{
			"mimeType":"image/png",
			"name":"floor_diffuse.png",
			"uri":"../../../../DungeonGame/res/texture/materials/floor_diffuse.png"
		}
	],
	"accessors":[
		{
			"bufferView":0,
			"componentType":5126,
			"count":2120,
			"max":[
				13.291411399841309,
				31.641006469726562,
				15.038307189941406
			],
			"min":[
				-13.726588249206543,
				-41.36899185180664,
				-12.910871505737305
			],
			"type":"VEC3"
		},
		{
			"bufferView":1,
			"componentType":5126,
			"count":2120,
			"type":"VEC3"
		},
		{
			"bufferView":2,
			"componentType":5126,
			"count":2120,
			"type":"VEC2"
		},
		{
			"bufferView":3,
			"componentType":5123,
			"count":4356,
			"type":"SCALAR"
		},
		{
			"bufferView":4,
			"componentType":5126,
			"count":148,
			"max":[
				6.29141092300415,
				15.63100814819336,
				7.089128017425537
			],
			"min":[
				-11.708588600158691,
				1.6310081481933594,
				-11.910871505737305
			],
			"type":"VEC3"
		},
		{
			"bufferView":5,
			"componentType":5126,
			"count":148,
			"type":"VEC3"
		},
		{
			"bufferView":6,
			"componentType":5126,
			"count":148,
			"type":"VEC2"
		},
		{
			"bufferView":7,
			"componentType":5123,
			"count":294,
			"type":"SCALAR"
		},
		{
			"bufferView":8,
			"componentType":5126,
			"count":132,
			"max":[
				7,
				17,
				6.000001430511475
			],
			"min":[
				-9,
				2.0000014305114746,
				4
			],
			"type":"VEC3"
		},
		{
			"bufferView":9,
			"componentType":5126,
			"count":132,
			"type":"VEC3"
		},
		{
			"bufferView":10,
			"componentType":5126,
			"count":132,
			"type":"VEC2"
		},
		{
			"bufferView":11,
			"componentType":5123,
			"count":234,
			"type":"SCALAR"
		},
		{
			"bufferView":12,
			"componentType":5126,
			"count":514,
			"max":[
				9.0625,
				14.5,
				8.997568130493164
			],
			"min":[
				-6,
				-10,
				-9.000001907348633
			],
			"type":"VEC3"
		},
		{
			"bufferView":13,
			"componentType":5126,
			"count":514,
			"type":"VEC3"
		},
		{
			"bufferView":14,
			"componentType":5126,
			"count":514,
			"type":"VEC2"
		},
		{
			"bufferView":15,
			"componentType":5123,
			"count":936,
			"type":"SCALAR"
		},
		{
			"bufferView":16,
			"componentType":5126,
			"count":2128,
			"max":[
				10.522265434265137,
				10.666374206542969,
				10.556839942932129
			],
			"min":[
				-12.752394676208496,
				-8.37554931640625,
				-12.008322715759277
			],
			"type":"VEC3"
		},
		{
			"bufferView":17,
			"componentType":5126,
			"count":2128,
			"type":"VEC3"
		},
		{
			"bufferView":18,
			"componentType":5126,
			"count":2128,
			"type":"VEC2"
		},
		{
			"bufferView":19,
			"componentType":5123,
			"count":3192,
			"type":"SCALAR"
		},
		{
			"bufferView":20,
			"componentType":5126,
			"count":380,
			"max":[
				5.957230567932129,
				3.3143410682678223,
				5.973150253295898
			],
			"min":[
				-11.677682876586914,
				-0.7279984951019287,
				-10.118868827819824
			],
			"type":"VEC3"
		},
		{
			"bufferView":21,
			"componentType":5126,
			"count":380,
			"type":"VEC3"
		},
		{
			"bufferView":22,
			"componentType":5126,
			"count":380,
			"type":"VEC2"
		},
		{
			"bufferView":23,
			"componentType":5123,
			"count":672,
			"type":"SCALAR"
		},
		{
			"bufferView":24,
			"componentType":5126,
			"count":507,
			"max":[
				0.08273695409297943,
				0.6903249621391296,
				0.008728737942874432
			],
			"min":[
				-0.08273696899414062,
				-0.09793807566165924,
				-0.00872873980551958
			],
			"type":"VEC3"
		},
		{
			"bufferView":25,
			"componentType":5126,
			"count":507,
			"type":"VEC3"
		},
		{
			"bufferView":26,
			"componentType":5126,
			"count":507,
			"type":"VEC2"
		},
		{
			"bufferView":27,
			"componentType":5123,
			"count":1362,
			"type":"SCALAR"
		},
		{
			"bufferView":28,
			"componentType":5126,
			"count":184,
			"max":[
				0.009526584297418594,
				0.05396123230457306,
				0.008864105679094791
			],
			"min":[
				-0.009526579640805721,
				-0.06846624612808228,
				-0.008864105679094791
			],
			"type":"VEC3"
		},
		{
			"bufferView":29,
			"componentType":5126,
			"count":184,
			"type":"VEC3"
		},
		{
			"bufferView":30,
			"componentType":5126,
			"count":184,
			"type":"VEC2"
		},
		{
			"bufferView":31,
			"componentType":5123,
			"count":768,
			"type":"SCALAR"
		},
		{
			"bufferView":32,
			"componentType":5126,
			"count":22979,
			"max":[
				0.4247322082519531,
				1.1596107482910156,
				0.8752956390380859
			],
			"min":[
				-0.28394317626953125,
				-0.3921051025390625,
				-0.2749013900756836
			],
			"type":"VEC3"
		},
		{
			"bufferView":33,
			"componentType":5126,
			"count":22979,
			"type":"VEC3"
		},
		{
			"bufferView":34,
			"componentType":5123,
			"count":135687,
			"type":"SCALAR"
		},
		{
			"bufferView":35,
			"componentType":5126,
			"count":328,
			"max":[
				0.4711326062679291,
				2.671133041381836,
				0.2711324989795685
			],
			"min":[
				-0.4711326062679291,
				-2.47113299369812,
				-0.07113251090049744
			],
			"type":"VEC3"
		},
		{
			"bufferView":36,
			"componentType":5126,
			"count":328,
			"type":"VEC3"
		},
		{
			"bufferView":37,
			"componentType":5126,
			"count":328,
			"type":"VEC2"
		},
		{
			"bufferView":38,
			"componentType":5123,
			"count":492,
			"type":"SCALAR"
		},
		{
			"bufferView":39,
			"componentType":5126,
			"count":288,
			"max":[
				0.4711326062679291,
				2.5511324405670166,
				0.2711324989795685
			],
			"min":[
				-0.4711326062679291,
				-2.47113299369812,
				0.1288674920797348
			],
			"type":"VEC3"
		},
		{
			"bufferView":40,
			"componentType":5126,
			"count":288,
			"type":"VEC3"
		},
		{
			"bufferView":41,
			"componentType":5126,
			"count":288,
			"type":"VEC2"
		},
		{
			"bufferView":42,
			"componentType":5123,
			"count":432,
			"type":"SCALAR"
		},
		{
			"bufferView":43,
			"componentType":5126,
			"count":288,
			"max":[
				0.4711326062679291,
				2.5511324405670166,
				0.2711324989795685
			],
			"min":[
				-0.4711326062679291,
				-2.47113299369812,
				0.1288674920797348
			],
			"type":"VEC3"
		},
		{
			"bufferView":44,
			"componentType":5126,
			"count":288,
			"type":"VEC3"
		},
		{
			"bufferView":45,
			"componentType":5126,
			"count":288,
			"type":"VEC2"
		},
		{
			"bufferView":46,
			"componentType":5126,
			"count":288,
			"max":[
				0.4711326062679291,
				2.5511324405670166,
				0.2711324989795685
			],
			"min":[
				-0.4711326062679291,
				-2.47113299369812,
				0.1288674920797348
			],
			"type":"VEC3"
		},
		{
			"bufferView":47,
			"componentType":5126,
			"count":288,
			"type":"VEC3"
		},
		{
			"bufferView":48,
			"componentType":5126,
			"count":288,
			"type":"VEC2"
		},
		{
			"bufferView":49,
			"componentType":5126,
			"count":288,
			"max":[
				0.4711326062679291,
				2.5511324405670166,
				0.2711324989795685
			],
			"min":[
				-0.4711326062679291,
				-2.47113299369812,
				0.1288674920797348
			],
			"type":"VEC3"
		},
		{
			"bufferView":50,
			"componentType":5126,
			"count":288,
			"type":"VEC3"
		},
		{
			"bufferView":51,
			"componentType":5126,
			"count":288,
			"type":"VEC2"
		},
		{
			"bufferView":52,
			"componentType":5126,
			"count":328,
			"max":[
				0.4711326062679291,
				2.671133041381836,
				0.2711324989795685
			],
			"min":[
				-0.4711326062679291,
				-2.47113299369812,
				-0.07113251090049744
			],
			"type":"VEC3"
		},
		{
			"bufferView":53,
			"componentType":5126,
			"count":328,
			"type":"VEC3"
		},
		{
			"bufferView":54,
			"componentType":5126,
			"count":328,
			"type":"VEC2"
		},
		{
			"bufferView":55,
			"componentType":5126,
			"count":288,
			"max":[
				0.4711326062679291,
				2.5511324405670166,
				0.2711324989795685
			],
			"min":[
				-0.4711326062679291,
				-2.47113299369812,
				0.1288674920797348
			],
			"type":"VEC3"
		},
		{
			"bufferView":56,
			"componentType":5126,
			"count":288,
			"type":"VEC3"
		},
		{
			"bufferView":57,
			"componentType":5126,
			"count":288,
			"type":"VEC2"
		},
		{
			"bufferView":58,
			"componentType":5126,
			"count":1,
			"max":[
				0
			],
			"min":[
				0
			],
			"type":"SCALAR"
		},
		{
			"bufferView":59,
			"componentType":5126,
			"count":1,
			"type":"VEC3"
		},
		{
			"bufferView":60,
			"componentType":5126,
			"count":1,
			"type":"VEC4"
		},
		{
			"bufferView":61,
			"componentType":5126,
			"count":1,
			"type":"VEC3"
		}
	],
	"bufferViews":[
		{
			"buffer":0,
			"byteLength":25440,
			"byteOffset":0,
			"target":34962
		},
		{
			"buffer":0,
			"byteLength":25440,
			"byteOffset":25440,
			"target":34962
		},
		{
			"buffer":0,
			"byteLength":16960,
			"byteOffset":50880,
			"target":34962
		},
		{
			"buffer":0,
			"byteLength":8712,
			"byteOffset":67840,
			"target":34963
		},
		{
			"buffer":0,
			"byteLength":1776,
			"byteOffset":76552,
			"target":34962
		},
		{
			"buffer":0,
			"byteLength":1776,
			"byteOffset":78328,
			"target":34962
		},
		{
			"buffer":0,
			"byteLength":1184,
			"byteOffset":80104,
			"target":34962
		},
		{
			"buffer":0,
			"byteLength":588,
			"byteOffset":81288,
			"target":34963
		},
		{
			"buffer":0,
			"byteLength":1584,
			"byteOffset":81876,
			"target":34962
		},
		{
			"buffer":0,
			"byteLength":1584,
			"byteOffset":83460,
			"target":34962
		},
		{
			"buffer":0,
			"byteLength":1056,
			"byteOffset":85044,
			"target":34962
		},
		{
			"buffer":0,
			"byteLength":468,
			"byteOffset":86100,
			"target":34963
		},
		{
			"buffer":0,
			"byteLength":6168,
			"byteOffset":86568,
			"target":34962
		},
		{
			"buffer":0,
			"byteLength":6168,
			"byteOffset":92736,
			"target":34962
		},
		{
			"buffer":0,
			"byteLength":4112,
			"byteOffset":98904,
			"target":34962
		},
		{
			"buffer":0,
			"byteLength":1872,
			"byteOffset":103016,
			"target":34963
		},
		{
			"buffer":0,
			"byteLength":25536,
			"byteOffset":104888,
			"target":34962
		},
		{
			"buffer":0,
			"byteLength":25536,
			"byteOffset":130424,
			"target":34962
		},
		{
			"buffer":0,
			"byteLength":17024,
			"byteOffset":155960,
			"target":34962
		},
		{
			"buffer":0,
			"byteLength":6384,
			"byteOffset":172984,
			"target":34963
		},
		{
			"buffer":0,
			"byteLength":4560,
			"byteOffset":179368,
			"target":34962
		},
		{
			"buffer":0,
			"byteLength":4560,
			"byteOffset":183928,
			"target":34962
		},
		{
			"buffer":0,
			"byteLength":3040,
			"byteOffset":188488,
			"target":34962
		},
		{
			"buffer":0,
			"byteLength":1344,
			"byteOffset":191528,
			"target":34963
		},
		{
			"buffer":0,
			"byteLength":6084,
			"byteOffset":192872,
			"target":34962
		},
		{
			"buffer":0,
			"byteLength":6084,
			"byteOffset":198956,
			"target":34962
		},
		{
			"buffer":0,
			"byteLength":4056,
			"byteOffset":205040,
			"target":34962
		},
		{
			"buffer":0,
			"byteLength":2724,
			"byteOffset":209096,
			"target":34963
		},
		{
			"buffer":0,
			"byteLength":2208,
			"byteOffset":211820,
			"target":34962
		},
		{
			"buffer":0,
			"byteLength":2208,
			"byteOffset":214028,
			"target":34962
		},
		{
			"buffer":0,
			"byteLength":1472,
			"byteOffset":216236,
			"target":34962
		},
		{
			"buffer":0,
			"byteLength":1536,
			"byteOffset":217708,
			"target":34963
		},
		{
			"buffer":0,
			"byteLength":275748,
			"byteOffset":219244,
			"target":34962
		},
		{
			"buffer":0,
			"byteLength":275748,
			"byteOffset":494992,
			"target":34962
		},
		{
			"buffer":0,
			"byteLength":271374,
			"byteOffset":770740,
			"target":34963
		},
		{
			"buffer":0,
			"byteLength":3936,
			"byteOffset":1042116,
			"target":34962
		},
		{
			"buffer":0,
			"byteLength":3936,
			"byteOffset":1046052,
			"target":34962
		},
		{
			"buffer":0,
			"byteLength":2624,
			"byteOffset":1049988,
			"target":34962
		},
		{
			"buffer":0,
			"byteLength":984,
			"byteOffset":1052612,
			"target":34963
		},
		{
			"buffer":0,
			"byteLength":3456,
			"byteOffset":1053596,
			"target":34962
		},
		{
			"buffer":0,
			"byteLength":3456,
			"byteOffset":1057052,
			"target":34962
		},
		{
			"buffer":0,
			"byteLength":2304,
			"byteOffset":1060508,
			"target":34962
		},
		{
			"buffer":0,
			"byteLength":864,
			"byteOffset":1062812,
			"target":34963
		},
		{
			"buffer":0,
			"byteLength":3456,
			"byteOffset":1063676,
			"target":34962
		},
		{
			"buffer":0,
			"byteLength":3456,
			"byteOffset":1067132,
			"target":34962
		},
		{
			"buffer":0,
			"byteLength":2304,
			"byteOffset":1070588,
			"target":34962
		},
		{
			"buffer":0,
			"byteLength":3456,
			"byteOffset":1072892,
			"target":34962
		},
		{
			"buffer":0,
			"byteLength":3456,
			"byteOffset":1076348,
			"target":34962
		},
		{
			"buffer":0,
			"byteLength":2304,
			"byteOffset":1079804,
			"target":34962
		},
		{
			"buffer":0,
			"byteLength":3456,
			"byteOffset":1082108,
			"target":34962
		},
		{
			"buffer":0,
			"byteLength":3456,
			"byteOffset":1085564,
			"target":34962
		},
		{
			"buffer":0,
			"byteLength":2304,
			"byteOffset":1089020,
			"target":34962
		},
		{
			"buffer":0,
			"byteLength":3936,
			"byteOffset":1091324,
			"target":34962
		},
		{
			"buffer":0,
			"byteLength":3936,
			"byteOffset":1095260,
			"target":34962
		},
		{
			"buffer":0,
			"byteLength":2624,
			"byteOffset":1099196,
			"target":34962
		},
		{
			"buffer":0,
			"byteLength":3456,
			"byteOffset":1101820,
			"target":34962
		},
		{
			"buffer":0,
			"byteLength":3456,
			"byteOffset":1105276,
			"target":34962
		},
		{
			"buffer":0,
			"byteLength":2304,
			"byteOffset":1108732,
			"target":34962
		},
		{
			"buffer":0,
			"byteLength":4,
			"byteOffset":1111036
		},
		{
			"buffer":0,
			"byteLength":12,
			"byteOffset":1111040
		},
		{
			"buffer":0,
			"byteLength":16,
			"byteOffset":1111052
		},
		{
			"buffer":0,
			"byteLength":12,
			"byteOffset":1111068
		}
	],
	"samplers":[
		{
			"magFilter":9729,
			"minFilter":9987
		}
	],
	"buffers":[
		{
			"byteLength":1111080,
			"uri":"testmap1.bin"
		}
	]
}
