{
	"asset":{
		"generator":"Khronos glTF Blender I/O v3.6.27",
		"version":"2.0"
	},
	"scene":0,
	"scenes":[
		{
			"name":"Scene",
			"nodes":[
				0
			]
		}
	],
	"nodes":[
		{
			"mesh":0,
			"name":"Sphere"
		}
	],
	"materials":[
		{
			"doubleSided":true,
			"name":"Material.001",
			"pbrMetallicRoughness":{
				"baseColorFactor":[
					0.05239133909344673,
					0.015848813578486443,
					0.0095536382868886,
					1
				],
				"metallicFactor":0.581818163394928,
				"roughnessFactor":0.36818182468414307
			}
		}
	],
	"meshes":[
		{
			"name":"Sphere",
			"primitives":[
				{
					"attributes":{
						"POSITION":0,
						"NORMAL":1,
						"TEXCOORD_0":2
					},
					"indices":3,
					"material":0
				}
			]
		}
	],
	"accessors":[
		{
			"bufferView":0,
			"componentType":5126,
			"count":856,
			"max":[
				0.07000003755092621,
				0.06839602440595627,
				0.06999992579221725
			],
			"min":[
				-0.06999987363815308,
				-0.05425227805972099,
				-0.07000002264976501
			],
			"type":"VEC3"
		},
		{
			"bufferView":1,
			"componentType":5126,
			"count":856,
			"type":"VEC3"
		},
		{
			"bufferView":2,
			"componentType":5126,
			"count":856,
			"type":"VEC2"
		},
		{
			"bufferView":3,
			"componentType":5123,
			"count":3456,
			"type":"SCALAR"
		}
	],
	"bufferViews":[
		{
			"buffer":0,
			"byteLength":10272,
			"byteOffset":0,
			"target":34962
		},
		{
			"buffer":0,
			"byteLength":10272,
			"byteOffset":10272,
			"target":34962
		},
		{
			"buffer":0,
			"byteLength":6848,
			"byteOffset":20544,
			"target":34962
		},
		{
			"buffer":0,
			"byteLength":6912,
			"byteOffset":27392,
			"target":34963
		}
	],
	"buffers":[
		{
			"byteLength":34304,
			"uri":"firebomb.bin"
		}
	]
}
