{
	"asset":{
		"generator":"Khronos glTF Blender I/O v3.6.27",
		"version":"2.0"
	},
	"scene":0,
	"scenes":[
		{
			"name":"Scene",
			"nodes":[
				0
			]
		}
	],
	"nodes":[
		{
			"mesh":0,
			"name":"Cylinder"
		}
	],
	"materials":[
		{
			"doubleSided":true,
			"name":"Material.001",
			"pbrMetallicRoughness":{
				"baseColorTexture":{
					"index":0
				},
				"metallicRoughnessTexture":{
					"index":1
				}
			}
		}
	],
	"meshes":[
		{
			"name":"Cylinder",
			"primitives":[
				{
					"attributes":{
						"POSITION":0,
						"NORMAL":1,
						"TEXCOORD_0":2
					},
					"indices":3,
					"material":0
				}
			]
		}
	],
	"textures":[
		{
			"sampler":0,
			"source":0
		},
		{
			"sampler":0,
			"source":1
		}
	],
	"images":[
		{
			"mimeType":"image/png",
			"name":"flask_diffuse.png",
			"uri":"textures/flask_diffuse.png"
		},
		{
			"mimeType":"image/png",
			"name":"flask_roughness.png",
			"uri":"textures/flask_roughness.png"
		}
	],
	"accessors":[
		{
			"bufferView":0,
			"componentType":5126,
			"count":1384,
			"max":[
				0.05772451311349869,
				0.04561029374599457,
				0.057724494487047195
			],
			"min":[
				-0.0577244758605957,
				-0.12612125277519226,
				-0.05772445350885391
			],
			"type":"VEC3"
		},
		{
			"bufferView":1,
			"componentType":5126,
			"count":1384,
			"type":"VEC3"
		},
		{
			"bufferView":2,
			"componentType":5126,
			"count":1384,
			"type":"VEC2"
		},
		{
			"bufferView":3,
			"componentType":5123,
			"count":7278,
			"type":"SCALAR"
		}
	],
	"bufferViews":[
		{
			"buffer":0,
			"byteLength":16608,
			"byteOffset":0,
			"target":34962
		},
		{
			"buffer":0,
			"byteLength":16608,
			"byteOffset":16608,
			"target":34962
		},
		{
			"buffer":0,
			"byteLength":11072,
			"byteOffset":33216,
			"target":34962
		},
		{
			"buffer":0,
			"byteLength":14556,
			"byteOffset":44288,
			"target":34963
		}
	],
	"samplers":[
		{
			"magFilter":9729,
			"minFilter":9987
		}
	],
	"buffers":[
		{
			"byteLength":58844,
			"uri":"flask_regeneration.bin"
		}
	]
}
