{
  "accessors": [
    {
      "bufferView": 0,
      "componentType": 5125,
      "count": 804,
      "type": "SCALAR"
    },
    {
      "bufferView": 1,
      "componentType": 5126,
      "count": 446,
      "max": [
        1.06520128250122,
        3.60665559768677,
        0.193372935056686
      ],
      "min": [
        -1.06520211696625,
        0.0,
        -0.185661867260933
      ],
      "type": "VEC3"
    },
    {
      "bufferView": 2,
      "componentType": 5126,
      "count": 446,
      "type": "VEC3"
    },
    {
      "bufferView": 3,
      "componentType": 5126,
      "count": 446,
      "type": "VEC4"
    },
    {
      "bufferView": 4,
      "componentType": 5126,
      "count": 446,
      "type": "VEC2"
    }
  ],
  "asset": {
    "generator": "Adobe Substance 3D Painter 8.1.3",
    "version": "2.0"
  },
  "bufferViews": [
    {
      "buffer": 0,
      "byteLength": 3216,
      "target": 34963
    },
    {
      "buffer": 0,
      "byteLength": 5352,
      "byteOffset": 3216,
      "target": 34962
    },
    {
      "buffer": 0,
      "byteLength": 5352,
      "byteOffset": 8568,
      "target": 34962
    },
    {
      "buffer": 0,
      "byteLength": 7136,
      "byteOffset": 13920,
      "target": 34962
    },
    {
      "buffer": 0,
      "byteLength": 3568,
      "byteOffset": 21056,
      "target": 34962
    }
  ],
  "buffers": [
    {
      "byteLength": 24624,
      "uri": "door_frame.bin"
    }
  ],
  "images": [
    {
      "uri": "Material.002_baseColor.png"
    },
    {
      "uri": "Material.002_occlusionRoughnessMetallic.png"
    },
    {
      "uri": "Material.002_normal.png"
    },
    {
      "uri": "Material.002_emissive.png"
    }
  ],
  "materials": [
    {
      "alphaMode": "BLEND",
      "emissiveFactor": [
        1.0,
        1.0,
        1.0
      ],
      "emissiveTexture": {
        "index": 3
      },
      "name": "Material.002",
      "normalTexture": {
        "index": 2
      },
      "occlusionTexture": {
        "index": 1
      },
      "pbrMetallicRoughness": {
        "baseColorTexture": {
          "index": 0
        },
        "metallicRoughnessTexture": {
          "index": 1
        }
      }
    }
  ],
  "meshes": [
    {
      "name": "Cube.001",
      "primitives": [
        {
          "attributes": {
            "NORMAL": 2,
            "POSITION": 1,
            "TANGENT": 3,
            "TEXCOORD_0": 4
          },
          "indices": 0,
          "material": 0,
          "mode": 4
        }
      ]
    }
  ],
  "nodes": [
    {
      "children": [
        1
      ],
      "name": "Cube.001",
      "translation": [
        0.0,
        0.0,
        -10.0378875732422
      ]
    },
    {
      "mesh": 0,
      "name": "Cube.001"
    }
  ],
  "samplers": [
    {
      "magFilter": 9729,
      "minFilter": 9985,
      "wrapS": 10497,
      "wrapT": 10497
    }
  ],
  "scene": 0,
  "scenes": [
    {
      "name": "Scene",
      "nodes": [
        0
      ]
    }
  ],
  "textures": [
    {
      "sampler": 0,
      "source": 0
    },
    {
      "sampler": 0,
      "source": 1
    },
    {
      "sampler": 0,
      "source": 2
    },
    {
      "sampler": 0,
      "source": 3
    }
  ]
}