{
	"asset":{
		"generator":"Khronos glTF Blender I/O v3.6.27",
		"version":"2.0"
	},
	"scene":0,
	"scenes":[
		{
			"name":"Scene",
			"nodes":[
				3
			]
		}
	],
	"nodes":[
		{
			"name":"Head",
			"translation":[
				0,
				1.3122856616973877,
				0
			]
		},
		{
			"children":[
				0
			],
			"name":"Root"
		},
		{
			"mesh":0,
			"name":"Model",
			"skin":0
		},
		{
			"children":[
				2,
				1
			],
			"name":"Armature"
		}
	],
	"animations":[
		{
			"channels":[
				{
					"sampler":0,
					"target":{
						"node":1,
						"path":"translation"
					}
				},
				{
					"sampler":1,
					"target":{
						"node":1,
						"path":"rotation"
					}
				},
				{
					"sampler":2,
					"target":{
						"node":1,
						"path":"scale"
					}
				},
				{
					"sampler":3,
					"target":{
						"node":0,
						"path":"translation"
					}
				},
				{
					"sampler":4,
					"target":{
						"node":0,
						"path":"rotation"
					}
				},
				{
					"sampler":5,
					"target":{
						"node":0,
						"path":"scale"
					}
				}
			],
			"name":"default",
			"samplers":[
				{
					"input":7,
					"interpolation":"LINEAR",
					"output":8
				},
				{
					"input":7,
					"interpolation":"LINEAR",
					"output":9
				},
				{
					"input":7,
					"interpolation":"STEP",
					"output":10
				},
				{
					"input":7,
					"interpolation":"STEP",
					"output":11
				},
				{
					"input":7,
					"interpolation":"STEP",
					"output":12
				},
				{
					"input":7,
					"interpolation":"STEP",
					"output":13
				}
			]
		},
		{
			"channels":[
				{
					"sampler":0,
					"target":{
						"node":1,
						"path":"translation"
					}
				},
				{
					"sampler":1,
					"target":{
						"node":1,
						"path":"rotation"
					}
				},
				{
					"sampler":2,
					"target":{
						"node":1,
						"path":"scale"
					}
				},
				{
					"sampler":3,
					"target":{
						"node":0,
						"path":"translation"
					}
				},
				{
					"sampler":4,
					"target":{
						"node":0,
						"path":"rotation"
					}
				},
				{
					"sampler":5,
					"target":{
						"node":0,
						"path":"scale"
					}
				}
			],
			"name":"stagger_short",
			"samplers":[
				{
					"input":14,
					"interpolation":"STEP",
					"output":15
				},
				{
					"input":16,
					"interpolation":"LINEAR",
					"output":17
				},
				{
					"input":14,
					"interpolation":"STEP",
					"output":18
				},
				{
					"input":14,
					"interpolation":"STEP",
					"output":19
				},
				{
					"input":14,
					"interpolation":"STEP",
					"output":20
				},
				{
					"input":14,
					"interpolation":"STEP",
					"output":21
				}
			]
		}
	],
	"materials":[
		{
			"doubleSided":true,
			"name":"Material",
			"normalTexture":{
				"index":0
			},
			"pbrMetallicRoughness":{
				"baseColorTexture":{
					"index":1
				},
				"metallicRoughnessTexture":{
					"index":2
				}
			}
		}
	],
	"meshes":[
		{
			"name":"Sphere.001",
			"primitives":[
				{
					"attributes":{
						"POSITION":0,
						"NORMAL":1,
						"TEXCOORD_0":2,
						"JOINTS_0":3,
						"WEIGHTS_0":4
					},
					"indices":5,
					"material":0
				}
			]
		}
	],
	"textures":[
		{
			"sampler":0,
			"source":0
		},
		{
			"sampler":0,
			"source":1
		},
		{
			"sampler":0,
			"source":2
		}
	],
	"images":[
		{
			"mimeType":"image/png",
			"name":"combat_dummy_normal.png",
			"uri":"material/combat_dummy_normal.png"
		},
		{
			"mimeType":"image/png",
			"name":"combat_dummy_baseColor.png",
			"uri":"material/combat_dummy_baseColor.png"
		},
		{
			"mimeType":"image/png",
			"name":"combat_dummy_occlusionRoughnessMetallic.png",
			"uri":"material/combat_dummy_occlusionRoughnessMetallic.png"
		}
	],
	"skins":[
		{
			"inverseBindMatrices":6,
			"joints":[
				1,
				0
			],
			"name":"Armature"
		}
	],
	"accessors":[
		{
			"bufferView":0,
			"componentType":5126,
			"count":1751,
			"max":[
				0.354808509349823,
				1.8315703868865967,
				0.21137398481369019
			],
			"min":[
				-0.354808509349823,
				-0.004095554351806641,
				-0.21137398481369019
			],
			"type":"VEC3"
		},
		{
			"bufferView":1,
			"componentType":5126,
			"count":1751,
			"type":"VEC3"
		},
		{
			"bufferView":2,
			"componentType":5126,
			"count":1751,
			"type":"VEC2"
		},
		{
			"bufferView":3,
			"componentType":5121,
			"count":1751,
			"type":"VEC4"
		},
		{
			"bufferView":4,
			"componentType":5126,
			"count":1751,
			"type":"VEC4"
		},
		{
			"bufferView":5,
			"componentType":5123,
			"count":8190,
			"type":"SCALAR"
		},
		{
			"bufferView":6,
			"componentType":5126,
			"count":2,
			"type":"MAT4"
		},
		{
			"bufferView":7,
			"componentType":5126,
			"count":1,
			"max":[
				0.041666666666666664
			],
			"min":[
				0.041666666666666664
			],
			"type":"SCALAR"
		},
		{
			"bufferView":8,
			"componentType":5126,
			"count":1,
			"type":"VEC3"
		},
		{
			"bufferView":9,
			"componentType":5126,
			"count":1,
			"type":"VEC4"
		},
		{
			"bufferView":10,
			"componentType":5126,
			"count":1,
			"type":"VEC3"
		},
		{
			"bufferView":11,
			"componentType":5126,
			"count":1,
			"type":"VEC3"
		},
		{
			"bufferView":12,
			"componentType":5126,
			"count":1,
			"type":"VEC4"
		},
		{
			"bufferView":13,
			"componentType":5126,
			"count":1,
			"type":"VEC3"
		},
		{
			"bufferView":14,
			"componentType":5126,
			"count":2,
			"max":[
				1
			],
			"min":[
				0.041666666666666664
			],
			"type":"SCALAR"
		},
		{
			"bufferView":15,
			"componentType":5126,
			"count":2,
			"type":"VEC3"
		},
		{
			"bufferView":16,
			"componentType":5126,
			"count":24,
			"max":[
				1
			],
			"min":[
				0.041666666666666664
			],
			"type":"SCALAR"
		},
		{
			"bufferView":17,
			"componentType":5126,
			"count":24,
			"type":"VEC4"
		},
		{
			"bufferView":18,
			"componentType":5126,
			"count":2,
			"type":"VEC3"
		},
		{
			"bufferView":19,
			"componentType":5126,
			"count":2,
			"type":"VEC3"
		},
		{
			"bufferView":20,
			"componentType":5126,
			"count":2,
			"type":"VEC4"
		},
		{
			"bufferView":21,
			"componentType":5126,
			"count":2,
			"type":"VEC3"
		}
	],
	"bufferViews":[
		{
			"buffer":0,
			"byteLength":21012,
			"byteOffset":0,
			"target":34962
		},
		{
			"buffer":0,
			"byteLength":21012,
			"byteOffset":21012,
			"target":34962
		},
		{
			"buffer":0,
			"byteLength":14008,
			"byteOffset":42024,
			"target":34962
		},
		{
			"buffer":0,
			"byteLength":7004,
			"byteOffset":56032,
			"target":34962
		},
		{
			"buffer":0,
			"byteLength":28016,
			"byteOffset":63036,
			"target":34962
		},
		{
			"buffer":0,
			"byteLength":16380,
			"byteOffset":91052,
			"target":34963
		},
		{
			"buffer":0,
			"byteLength":128,
			"byteOffset":107432
		},
		{
			"buffer":0,
			"byteLength":4,
			"byteOffset":107560
		},
		{
			"buffer":0,
			"byteLength":12,
			"byteOffset":107564
		},
		{
			"buffer":0,
			"byteLength":16,
			"byteOffset":107576
		},
		{
			"buffer":0,
			"byteLength":12,
			"byteOffset":107592
		},
		{
			"buffer":0,
			"byteLength":12,
			"byteOffset":107604
		},
		{
			"buffer":0,
			"byteLength":16,
			"byteOffset":107616
		},
		{
			"buffer":0,
			"byteLength":12,
			"byteOffset":107632
		},
		{
			"buffer":0,
			"byteLength":8,
			"byteOffset":107644
		},
		{
			"buffer":0,
			"byteLength":24,
			"byteOffset":107652
		},
		{
			"buffer":0,
			"byteLength":96,
			"byteOffset":107676
		},
		{
			"buffer":0,
			"byteLength":384,
			"byteOffset":107772
		},
		{
			"buffer":0,
			"byteLength":24,
			"byteOffset":108156
		},
		{
			"buffer":0,
			"byteLength":24,
			"byteOffset":108180
		},
		{
			"buffer":0,
			"byteLength":32,
			"byteOffset":108204
		},
		{
			"buffer":0,
			"byteLength":24,
			"byteOffset":108236
		}
	],
	"samplers":[
		{
			"magFilter":9729,
			"minFilter":9987
		}
	],
	"buffers":[
		{
			"byteLength":108260,
			"uri":"combat_dummy.bin"
		}
	]
}
