{
	"asset":{
		"generator":"Khronos glTF Blender I/O v3.6.27",
		"version":"2.0"
	},
	"scene":0,
	"scenes":[
		{
			"name":"Scene",
			"nodes":[
				0
			]
		}
	],
	"nodes":[
		{
			"mesh":0,
			"name":"Cylinder"
		}
	],
	"materials":[
		{
			"doubleSided":true,
			"name":"Material",
			"pbrMetallicRoughness":{
				"baseColorFactor":[
					0.4038007855415344,
					0.23296834528446198,
					0.11193446815013885,
					1
				],
				"roughnessFactor":0.2199999988079071
			}
		}
	],
	"meshes":[
		{
			"name":"Cylinder",
			"primitives":[
				{
					"attributes":{
						"POSITION":0,
						"NORMAL":1,
						"TEXCOORD_0":2
					},
					"indices":3,
					"material":0
				}
			]
		}
	],
	"accessors":[
		{
			"bufferView":0,
			"componentType":5126,
			"count":394,
			"max":[
				0.050000015646219254,
				0.050000011920928955,
				0.005000002682209015
			],
			"min":[
				-0.04999997094273567,
				-0.050000011920928955,
				-0.005000002682209015
			],
			"type":"VEC3"
		},
		{
			"bufferView":1,
			"componentType":5126,
			"count":394,
			"type":"VEC3"
		},
		{
			"bufferView":2,
			"componentType":5126,
			"count":394,
			"type":"VEC2"
		},
		{
			"bufferView":3,
			"componentType":5123,
			"count":1140,
			"type":"SCALAR"
		}
	],
	"bufferViews":[
		{
			"buffer":0,
			"byteLength":4728,
			"byteOffset":0,
			"target":34962
		},
		{
			"buffer":0,
			"byteLength":4728,
			"byteOffset":4728,
			"target":34962
		},
		{
			"buffer":0,
			"byteLength":3152,
			"byteOffset":9456,
			"target":34962
		},
		{
			"buffer":0,
			"byteLength":2280,
			"byteOffset":12608,
			"target":34963
		}
	],
	"buffers":[
		{
			"byteLength":14888,
			"uri":"gold.bin"
		}
	]
}
