{
	"asset":{
		"generator":"Khronos glTF Blender I/O v3.5.30",
		"version":"2.0"
	},
	"scene":0,
	"scenes":[
		{
			"name":"Scene",
			"nodes":[
				0
			]
		}
	],
	"nodes":[
		{
			"mesh":0,
			"name":"Cylinder"
		}
	],
	"materials":[
		{
			"doubleSided":true,
			"name":"Material.001",
			"pbrMetallicRoughness":{
				"baseColorTexture":{
					"index":0
				},
				"metallicRoughnessTexture":{
					"index":1
				}
			}
		}
	],
	"meshes":[
		{
			"name":"Cylinder",
			"primitives":[
				{
					"attributes":{
						"POSITION":0,
						"TEXCOORD_0":1,
						"NORMAL":2
					},
					"indices":3,
					"material":0
				}
			]
		}
	],
	"textures":[
		{
			"sampler":0,
			"source":0
		},
		{
			"sampler":0,
			"source":1
		}
	],
	"images":[
		{
			"mimeType":"image/png",
			"name":"quemick.png.001",
			"uri":"textures/quemick.png"
		},
		{
			"mimeType":"image/png",
			"name":"quemick_roughness.png.001",
			"uri":"textures/quemick_roughness.png"
		}
	],
	"accessors":[
		{
			"bufferView":0,
			"componentType":5126,
			"count":1351,
			"max":[
				0.05772451311349869,
				0.04561029374599457,
				0.057724494487047195
			],
			"min":[
				-0.0577244758605957,
				-0.14373457431793213,
				-0.05772445350885391
			],
			"type":"VEC3"
		},
		{
			"bufferView":1,
			"componentType":5126,
			"count":1351,
			"type":"VEC2"
		},
		{
			"bufferView":2,
			"componentType":5126,
			"count":1351,
			"type":"VEC3"
		},
		{
			"bufferView":3,
			"componentType":5123,
			"count":7086,
			"type":"SCALAR"
		}
	],
	"bufferViews":[
		{
			"buffer":0,
			"byteLength":16212,
			"byteOffset":0,
			"target":34962
		},
		{
			"buffer":0,
			"byteLength":10808,
			"byteOffset":16212,
			"target":34962
		},
		{
			"buffer":0,
			"byteLength":16212,
			"byteOffset":27020,
			"target":34962
		},
		{
			"buffer":0,
			"byteLength":14172,
			"byteOffset":43232,
			"target":34963
		}
	],
	"samplers":[
		{
			"magFilter":9729,
			"minFilter":9987
		}
	],
	"buffers":[
		{
			"byteLength":57404,
			"uri":"quemick.bin"
		}
	]
}
