{
	"asset":{
		"generator":"Khronos glTF Blender I/O v3.5.30",
		"version":"2.0"
	},
	"scene":0,
	"scenes":[
		{
			"name":"Scene",
			"nodes":[
				0,
				1,
				2,
				3
			]
		}
	],
	"nodes":[
		{
			"mesh":0,
			"name":"Cube.001"
		},
		{
			"mesh":1,
			"name":"Cube.002"
		},
		{
			"mesh":2,
			"name":"Cube.003"
		},
		{
			"mesh":3,
			"name":"Cube.004"
		}
	],
	"materials":[
		{
			"doubleSided":true,
			"name":"Grip",
			"pbrMetallicRoughness":{
				"baseColorFactor":[
					0.1149357259273529,
					0.06457861512899399,
					0.053232334554195404,
					1
				],
				"metallicFactor":0,
				"roughnessFactor":0.4761904776096344
			}
		},
		{
			"doubleSided":true,
			"name":"Blade",
			"pbrMetallicRoughness":{
				"baseColorFactor":[
					0.800000011920929,
					0.800000011920929,
					0.800000011920929,
					1
				],
				"roughnessFactor":0.5
			}
		}
	],
	"meshes":[
		{
			"name":"Cube.002",
			"primitives":[
				{
					"attributes":{
						"POSITION":0,
						"TEXCOORD_0":1,
						"NORMAL":2
					},
					"indices":3,
					"material":0
				}
			]
		},
		{
			"name":"Cube.001",
			"primitives":[
				{
					"attributes":{
						"POSITION":4,
						"TEXCOORD_0":5,
						"NORMAL":6
					},
					"indices":7,
					"material":1
				}
			]
		},
		{
			"name":"Cube.003",
			"primitives":[
				{
					"attributes":{
						"POSITION":8,
						"TEXCOORD_0":9,
						"NORMAL":10
					},
					"indices":11,
					"material":1
				}
			]
		},
		{
			"name":"Cube.004",
			"primitives":[
				{
					"attributes":{
						"POSITION":12,
						"TEXCOORD_0":13,
						"NORMAL":14
					},
					"indices":15,
					"material":1
				}
			]
		}
	],
	"accessors":[
		{
			"bufferView":0,
			"componentType":5126,
			"count":528,
			"max":[
				0.010282271541655064,
				0.08575204014778137,
				0.011181198060512543
			],
			"min":[
				-0.011555698700249195,
				-0.12828229367733002,
				-0.011181163601577282
			],
			"type":"VEC3"
		},
		{
			"bufferView":1,
			"componentType":5126,
			"count":528,
			"type":"VEC2"
		},
		{
			"bufferView":2,
			"componentType":5126,
			"count":528,
			"type":"VEC3"
		},
		{
			"bufferView":3,
			"componentType":5123,
			"count":1728,
			"type":"SCALAR"
		},
		{
			"bufferView":4,
			"componentType":5126,
			"count":80,
			"max":[
				0.027758175507187843,
				1.0161563158035278,
				0.005342788528650999
			],
			"min":[
				-0.029031695798039436,
				0.08770476281642914,
				-0.005342787131667137
			],
			"type":"VEC3"
		},
		{
			"bufferView":5,
			"componentType":5126,
			"count":80,
			"type":"VEC2"
		},
		{
			"bufferView":6,
			"componentType":5126,
			"count":80,
			"type":"VEC3"
		},
		{
			"bufferView":7,
			"componentType":5123,
			"count":144,
			"type":"SCALAR"
		},
		{
			"bufferView":8,
			"componentType":5126,
			"count":70,
			"max":[
				0.12462540715932846,
				0.09718555212020874,
				0.014134376309812069
			],
			"min":[
				-0.12589892745018005,
				0.07681961357593536,
				-0.01413437444716692
			],
			"type":"VEC3"
		},
		{
			"bufferView":9,
			"componentType":5126,
			"count":70,
			"type":"VEC2"
		},
		{
			"bufferView":10,
			"componentType":5126,
			"count":70,
			"type":"VEC3"
		},
		{
			"bufferView":11,
			"componentType":5123,
			"count":150,
			"type":"SCALAR"
		},
		{
			"bufferView":12,
			"componentType":5126,
			"count":466,
			"max":[
				0.024892745539546013,
				-0.11475793272256851,
				0.009717649780213833
			],
			"min":[
				-0.02616625837981701,
				-0.162779301404953,
				-0.00971764512360096
			],
			"type":"VEC3"
		},
		{
			"bufferView":13,
			"componentType":5126,
			"count":466,
			"type":"VEC2"
		},
		{
			"bufferView":14,
			"componentType":5126,
			"count":466,
			"type":"VEC3"
		},
		{
			"bufferView":15,
			"componentType":5123,
			"count":1320,
			"type":"SCALAR"
		}
	],
	"bufferViews":[
		{
			"buffer":0,
			"byteLength":6336,
			"byteOffset":0,
			"target":34962
		},
		{
			"buffer":0,
			"byteLength":4224,
			"byteOffset":6336,
			"target":34962
		},
		{
			"buffer":0,
			"byteLength":6336,
			"byteOffset":10560,
			"target":34962
		},
		{
			"buffer":0,
			"byteLength":3456,
			"byteOffset":16896,
			"target":34963
		},
		{
			"buffer":0,
			"byteLength":960,
			"byteOffset":20352,
			"target":34962
		},
		{
			"buffer":0,
			"byteLength":640,
			"byteOffset":21312,
			"target":34962
		},
		{
			"buffer":0,
			"byteLength":960,
			"byteOffset":21952,
			"target":34962
		},
		{
			"buffer":0,
			"byteLength":288,
			"byteOffset":22912,
			"target":34963
		},
		{
			"buffer":0,
			"byteLength":840,
			"byteOffset":23200,
			"target":34962
		},
		{
			"buffer":0,
			"byteLength":560,
			"byteOffset":24040,
			"target":34962
		},
		{
			"buffer":0,
			"byteLength":840,
			"byteOffset":24600,
			"target":34962
		},
		{
			"buffer":0,
			"byteLength":300,
			"byteOffset":25440,
			"target":34963
		},
		{
			"buffer":0,
			"byteLength":5592,
			"byteOffset":25740,
			"target":34962
		},
		{
			"buffer":0,
			"byteLength":3728,
			"byteOffset":31332,
			"target":34962
		},
		{
			"buffer":0,
			"byteLength":5592,
			"byteOffset":35060,
			"target":34962
		},
		{
			"buffer":0,
			"byteLength":2640,
			"byteOffset":40652,
			"target":34963
		}
	],
	"buffers":[
		{
			"byteLength":43292,
			"uri":"longsword.bin"
		}
	]
}
