{
	"asset":{
		"generator":"Khronos glTF Blender I/O v3.6.27",
		"version":"2.0"
	},
	"scene":0,
	"scenes":[
		{
			"name":"Scene",
			"nodes":[
				23
			]
		}
	],
	"nodes":[
		{
			"name":"Root"
		},
		{
			"name":"Head",
			"translation":[
				0,
				0.22719994187355042,
				0
			]
		},
		{
			"name":"HandIK.L",
			"rotation":[
				-0.7323167324066162,
				-0.47061851620674133,
				-0.4706186354160309,
				0.14404365420341492
			],
			"scale":[
				0.9999998211860657,
				0.9999998807907104,
				0.9999998211860657
			],
			"translation":[
				0.33547380566596985,
				0.04519805312156677,
				0.014756890013813972
			]
		},
		{
			"name":"HandIK.R",
			"rotation":[
				-0.7323167324066162,
				0.47061851620674133,
				0.4706186354160309,
				0.14404365420341492
			],
			"scale":[
				0.9999998211860657,
				0.9999998807907104,
				0.9999998211860657
			],
			"translation":[
				-0.33547380566596985,
				0.04519805312156677,
				0.014756890013813972
			]
		},
		{
			"children":[
				1,
				2,
				3
			],
			"name":"Chest",
			"translation":[
				0,
				0.17280003428459167,
				0
			]
		},
		{
			"name":"Hand.L",
			"rotation":[
				-0.025179924443364143,
				-0.014070745557546616,
				-0.019326426088809967,
				0.9993970394134521
			],
			"scale":[
				1,
				0.9999999403953552,
				1.0000001192092896
			],
			"translation":[
				-2.7939677238464355e-09,
				0.13124322891235352,
				6.565824151039124e-08
			]
		},
		{
			"children":[
				5
			],
			"name":"ArmLower.L",
			"rotation":[
				-0.07194152474403381,
				-0.015315099619328976,
				-0.09614653140306473,
				0.992645800113678
			],
			"scale":[
				1.0000001192092896,
				1.0000001192092896,
				1.0000001192092896
			],
			"translation":[
				3.632158041000366e-08,
				0.12622739374637604,
				6.891787052154541e-08
			]
		},
		{
			"children":[
				6
			],
			"name":"ArmUpper.L",
			"rotation":[
				-0.7502018213272095,
				-0.42311903834342957,
				-0.4231189787387848,
				0.28131479024887085
			],
			"scale":[
				0.9999999403953552,
				0.9999999403953552,
				0.9999999403953552
			],
			"translation":[
				0.11412012577056885,
				0.34496402740478516,
				2.313174896073633e-08
			]
		},
		{
			"name":"Hand.R",
			"rotation":[
				-0.025179924443364143,
				0.014070745557546616,
				0.019326426088809967,
				0.9993970394134521
			],
			"scale":[
				1,
				0.9999999403953552,
				1.0000001192092896
			],
			"translation":[
				2.7939677238464355e-09,
				0.13124322891235352,
				6.565824151039124e-08
			]
		},
		{
			"children":[
				8
			],
			"name":"ArmLower.R",
			"rotation":[
				-0.07194152474403381,
				0.015315099619328976,
				0.09614653140306473,
				0.992645800113678
			],
			"scale":[
				1.0000001192092896,
				1.0000001192092896,
				1.0000001192092896
			],
			"translation":[
				-3.632158041000366e-08,
				0.12622739374637604,
				6.891787052154541e-08
			]
		},
		{
			"children":[
				9
			],
			"name":"ArmUpper.R",
			"rotation":[
				-0.7502018213272095,
				0.42311903834342957,
				0.4231189787387848,
				0.28131479024887085
			],
			"scale":[
				0.9999999403953552,
				0.9999999403953552,
				0.9999999403953552
			],
			"translation":[
				-0.11412012577056885,
				0.34496402740478516,
				2.313174896073633e-08
			]
		},
		{
			"name":"KneeIK.L",
			"rotation":[
				-0.7521234750747681,
				4.044929013957699e-08,
				4.5681279203790837e-08,
				0.659022331237793
			],
			"scale":[
				1,
				0.9999999403953552,
				0.9999999403953552
			],
			"translation":[
				0.01502300426363945,
				0.5010386109352112,
				-0.239096000790596
			]
		},
		{
			"children":[
				11
			],
			"name":"Foot.L",
			"rotation":[
				-0.6987944841384888,
				-0.023865005001425743,
				0.0015748187433928251,
				0.7149226069450378
			],
			"scale":[
				1.0000001192092896,
				1,
				1.0000001192092896
			],
			"translation":[
				1.4006218407303095e-09,
				0.13815435767173767,
				3.4924596548080444e-10
			]
		},
		{
			"children":[
				12
			],
			"name":"LegLower.L",
			"rotation":[
				0.10341328382492065,
				-0.01077901478856802,
				0.015728404745459557,
				0.9944556951522827
			],
			"translation":[
				1.280568540096283e-09,
				0.13986705243587494,
				9.313225746154785e-10
			]
		},
		{
			"children":[
				13
			],
			"name":"LegUpper.L",
			"rotation":[
				0.9978770017623901,
				0.030183177441358566,
				0.030187366530299187,
				0.04918629303574562
			],
			"scale":[
				0.9999949932098389,
				0.9999998211860657,
				0.9999848008155823
			],
			"translation":[
				0.06713560223579407,
				0.019909650087356567,
				-2.0542177736615486e-08
			]
		},
		{
			"name":"KneeIK.R",
			"rotation":[
				-0.7521234750747681,
				-4.044929013957699e-08,
				-4.5681279203790837e-08,
				0.659022331237793
			],
			"scale":[
				1,
				0.9999999403953552,
				0.9999999403953552
			],
			"translation":[
				-0.01502300426363945,
				0.5010386109352112,
				-0.239096000790596
			]
		},
		{
			"children":[
				15
			],
			"name":"Foot.R",
			"rotation":[
				-0.6987944841384888,
				0.023865005001425743,
				-0.0015748187433928251,
				0.7149226069450378
			],
			"scale":[
				1.0000001192092896,
				1,
				1.0000001192092896
			],
			"translation":[
				-1.4006218407303095e-09,
				0.13815435767173767,
				3.4924596548080444e-10
			]
		},
		{
			"children":[
				16
			],
			"name":"LegLower.R",
			"rotation":[
				0.10341328382492065,
				0.01077901478856802,
				-0.015728404745459557,
				0.9944556951522827
			],
			"translation":[
				-1.280568540096283e-09,
				0.13986705243587494,
				9.313225746154785e-10
			]
		},
		{
			"children":[
				17
			],
			"name":"LegUpper.R",
			"rotation":[
				0.9978770017623901,
				-0.030183177441358566,
				-0.030187366530299187,
				0.04918629303574562
			],
			"scale":[
				0.9999949932098389,
				0.9999998211860657,
				0.9999848008155823
			],
			"translation":[
				-0.06713560223579407,
				0.019909650087356567,
				-2.0542177736615486e-08
			]
		},
		{
			"children":[
				4,
				7,
				10,
				14,
				18
			],
			"name":"Body",
			"translation":[
				0,
				0.30000001192092896,
				0
			]
		},
		{
			"name":"FootIK.L",
			"rotation":[
				0.7521239519119263,
				0,
				0,
				0.6590216755867004
			],
			"scale":[
				1,
				1,
				1.000007152557373
			],
			"translation":[
				0.08006458729505539,
				0.04371748864650726,
				-0.0009489635704085231
			]
		},
		{
			"name":"FootIK.R",
			"rotation":[
				0.7521239519119263,
				3.1424829671777843e-07,
				3.5864343317371095e-07,
				0.6590216755867004
			],
			"scale":[
				1,
				1,
				1.000007152557373
			],
			"translation":[
				-0.08006458729505539,
				0.04371748864650726,
				-0.0009489635704085231
			]
		},
		{
			"mesh":0,
			"name":"Cylinder.003",
			"skin":0
		},
		{
			"children":[
				22,
				0,
				19,
				20,
				21
			],
			"name":"Armature"
		}
	],
	"animations":[
		{
			"channels":[
				{
					"sampler":0,
					"target":{
						"node":0,
						"path":"translation"
					}
				},
				{
					"sampler":1,
					"target":{
						"node":0,
						"path":"rotation"
					}
				},
				{
					"sampler":2,
					"target":{
						"node":0,
						"path":"scale"
					}
				},
				{
					"sampler":3,
					"target":{
						"node":19,
						"path":"translation"
					}
				},
				{
					"sampler":4,
					"target":{
						"node":19,
						"path":"rotation"
					}
				},
				{
					"sampler":5,
					"target":{
						"node":19,
						"path":"scale"
					}
				},
				{
					"sampler":6,
					"target":{
						"node":4,
						"path":"translation"
					}
				},
				{
					"sampler":7,
					"target":{
						"node":4,
						"path":"rotation"
					}
				},
				{
					"sampler":8,
					"target":{
						"node":4,
						"path":"scale"
					}
				},
				{
					"sampler":9,
					"target":{
						"node":1,
						"path":"translation"
					}
				},
				{
					"sampler":10,
					"target":{
						"node":1,
						"path":"rotation"
					}
				},
				{
					"sampler":11,
					"target":{
						"node":1,
						"path":"scale"
					}
				},
				{
					"sampler":12,
					"target":{
						"node":2,
						"path":"translation"
					}
				},
				{
					"sampler":13,
					"target":{
						"node":2,
						"path":"rotation"
					}
				},
				{
					"sampler":14,
					"target":{
						"node":2,
						"path":"scale"
					}
				},
				{
					"sampler":15,
					"target":{
						"node":3,
						"path":"translation"
					}
				},
				{
					"sampler":16,
					"target":{
						"node":3,
						"path":"rotation"
					}
				},
				{
					"sampler":17,
					"target":{
						"node":3,
						"path":"scale"
					}
				},
				{
					"sampler":18,
					"target":{
						"node":7,
						"path":"translation"
					}
				},
				{
					"sampler":19,
					"target":{
						"node":7,
						"path":"rotation"
					}
				},
				{
					"sampler":20,
					"target":{
						"node":7,
						"path":"scale"
					}
				},
				{
					"sampler":21,
					"target":{
						"node":6,
						"path":"translation"
					}
				},
				{
					"sampler":22,
					"target":{
						"node":6,
						"path":"rotation"
					}
				},
				{
					"sampler":23,
					"target":{
						"node":6,
						"path":"scale"
					}
				},
				{
					"sampler":24,
					"target":{
						"node":5,
						"path":"translation"
					}
				},
				{
					"sampler":25,
					"target":{
						"node":5,
						"path":"rotation"
					}
				},
				{
					"sampler":26,
					"target":{
						"node":5,
						"path":"scale"
					}
				},
				{
					"sampler":27,
					"target":{
						"node":10,
						"path":"translation"
					}
				},
				{
					"sampler":28,
					"target":{
						"node":10,
						"path":"rotation"
					}
				},
				{
					"sampler":29,
					"target":{
						"node":10,
						"path":"scale"
					}
				},
				{
					"sampler":30,
					"target":{
						"node":9,
						"path":"translation"
					}
				},
				{
					"sampler":31,
					"target":{
						"node":9,
						"path":"rotation"
					}
				},
				{
					"sampler":32,
					"target":{
						"node":9,
						"path":"scale"
					}
				},
				{
					"sampler":33,
					"target":{
						"node":8,
						"path":"translation"
					}
				},
				{
					"sampler":34,
					"target":{
						"node":8,
						"path":"rotation"
					}
				},
				{
					"sampler":35,
					"target":{
						"node":8,
						"path":"scale"
					}
				},
				{
					"sampler":36,
					"target":{
						"node":14,
						"path":"translation"
					}
				},
				{
					"sampler":37,
					"target":{
						"node":14,
						"path":"rotation"
					}
				},
				{
					"sampler":38,
					"target":{
						"node":14,
						"path":"scale"
					}
				},
				{
					"sampler":39,
					"target":{
						"node":13,
						"path":"translation"
					}
				},
				{
					"sampler":40,
					"target":{
						"node":13,
						"path":"rotation"
					}
				},
				{
					"sampler":41,
					"target":{
						"node":13,
						"path":"scale"
					}
				},
				{
					"sampler":42,
					"target":{
						"node":12,
						"path":"translation"
					}
				},
				{
					"sampler":43,
					"target":{
						"node":12,
						"path":"rotation"
					}
				},
				{
					"sampler":44,
					"target":{
						"node":12,
						"path":"scale"
					}
				},
				{
					"sampler":45,
					"target":{
						"node":11,
						"path":"translation"
					}
				},
				{
					"sampler":46,
					"target":{
						"node":11,
						"path":"rotation"
					}
				},
				{
					"sampler":47,
					"target":{
						"node":11,
						"path":"scale"
					}
				},
				{
					"sampler":48,
					"target":{
						"node":18,
						"path":"translation"
					}
				},
				{
					"sampler":49,
					"target":{
						"node":18,
						"path":"rotation"
					}
				},
				{
					"sampler":50,
					"target":{
						"node":18,
						"path":"scale"
					}
				},
				{
					"sampler":51,
					"target":{
						"node":17,
						"path":"translation"
					}
				},
				{
					"sampler":52,
					"target":{
						"node":17,
						"path":"rotation"
					}
				},
				{
					"sampler":53,
					"target":{
						"node":17,
						"path":"scale"
					}
				},
				{
					"sampler":54,
					"target":{
						"node":16,
						"path":"translation"
					}
				},
				{
					"sampler":55,
					"target":{
						"node":16,
						"path":"rotation"
					}
				},
				{
					"sampler":56,
					"target":{
						"node":16,
						"path":"scale"
					}
				},
				{
					"sampler":57,
					"target":{
						"node":15,
						"path":"translation"
					}
				},
				{
					"sampler":58,
					"target":{
						"node":15,
						"path":"rotation"
					}
				},
				{
					"sampler":59,
					"target":{
						"node":15,
						"path":"scale"
					}
				},
				{
					"sampler":60,
					"target":{
						"node":20,
						"path":"translation"
					}
				},
				{
					"sampler":61,
					"target":{
						"node":20,
						"path":"rotation"
					}
				},
				{
					"sampler":62,
					"target":{
						"node":20,
						"path":"scale"
					}
				},
				{
					"sampler":63,
					"target":{
						"node":21,
						"path":"translation"
					}
				},
				{
					"sampler":64,
					"target":{
						"node":21,
						"path":"rotation"
					}
				},
				{
					"sampler":65,
					"target":{
						"node":21,
						"path":"scale"
					}
				}
			],
			"name":"default",
			"samplers":[
				{
					"input":13,
					"interpolation":"LINEAR",
					"output":14
				},
				{
					"input":13,
					"interpolation":"LINEAR",
					"output":15
				},
				{
					"input":13,
					"interpolation":"LINEAR",
					"output":16
				},
				{
					"input":13,
					"interpolation":"LINEAR",
					"output":17
				},
				{
					"input":13,
					"interpolation":"LINEAR",
					"output":18
				},
				{
					"input":13,
					"interpolation":"LINEAR",
					"output":19
				},
				{
					"input":13,
					"interpolation":"STEP",
					"output":20
				},
				{
					"input":13,
					"interpolation":"LINEAR",
					"output":21
				},
				{
					"input":13,
					"interpolation":"LINEAR",
					"output":22
				},
				{
					"input":13,
					"interpolation":"STEP",
					"output":23
				},
				{
					"input":13,
					"interpolation":"LINEAR",
					"output":24
				},
				{
					"input":13,
					"interpolation":"LINEAR",
					"output":25
				},
				{
					"input":13,
					"interpolation":"LINEAR",
					"output":26
				},
				{
					"input":13,
					"interpolation":"LINEAR",
					"output":27
				},
				{
					"input":13,
					"interpolation":"LINEAR",
					"output":28
				},
				{
					"input":13,
					"interpolation":"LINEAR",
					"output":29
				},
				{
					"input":13,
					"interpolation":"LINEAR",
					"output":30
				},
				{
					"input":13,
					"interpolation":"LINEAR",
					"output":31
				},
				{
					"input":13,
					"interpolation":"LINEAR",
					"output":32
				},
				{
					"input":13,
					"interpolation":"LINEAR",
					"output":33
				},
				{
					"input":13,
					"interpolation":"LINEAR",
					"output":34
				},
				{
					"input":13,
					"interpolation":"STEP",
					"output":35
				},
				{
					"input":13,
					"interpolation":"LINEAR",
					"output":36
				},
				{
					"input":13,
					"interpolation":"LINEAR",
					"output":37
				},
				{
					"input":13,
					"interpolation":"STEP",
					"output":38
				},
				{
					"input":13,
					"interpolation":"LINEAR",
					"output":39
				},
				{
					"input":13,
					"interpolation":"LINEAR",
					"output":40
				},
				{
					"input":13,
					"interpolation":"LINEAR",
					"output":41
				},
				{
					"input":13,
					"interpolation":"LINEAR",
					"output":42
				},
				{
					"input":13,
					"interpolation":"LINEAR",
					"output":43
				},
				{
					"input":13,
					"interpolation":"STEP",
					"output":44
				},
				{
					"input":13,
					"interpolation":"LINEAR",
					"output":45
				},
				{
					"input":13,
					"interpolation":"LINEAR",
					"output":46
				},
				{
					"input":13,
					"interpolation":"STEP",
					"output":47
				},
				{
					"input":13,
					"interpolation":"LINEAR",
					"output":48
				},
				{
					"input":13,
					"interpolation":"LINEAR",
					"output":49
				},
				{
					"input":13,
					"interpolation":"LINEAR",
					"output":50
				},
				{
					"input":13,
					"interpolation":"LINEAR",
					"output":51
				},
				{
					"input":13,
					"interpolation":"LINEAR",
					"output":52
				},
				{
					"input":13,
					"interpolation":"STEP",
					"output":53
				},
				{
					"input":13,
					"interpolation":"LINEAR",
					"output":54
				},
				{
					"input":13,
					"interpolation":"LINEAR",
					"output":55
				},
				{
					"input":13,
					"interpolation":"STEP",
					"output":56
				},
				{
					"input":13,
					"interpolation":"LINEAR",
					"output":57
				},
				{
					"input":13,
					"interpolation":"LINEAR",
					"output":58
				},
				{
					"input":13,
					"interpolation":"STEP",
					"output":59
				},
				{
					"input":13,
					"interpolation":"STEP",
					"output":60
				},
				{
					"input":13,
					"interpolation":"STEP",
					"output":61
				},
				{
					"input":13,
					"interpolation":"LINEAR",
					"output":62
				},
				{
					"input":13,
					"interpolation":"LINEAR",
					"output":63
				},
				{
					"input":13,
					"interpolation":"LINEAR",
					"output":64
				},
				{
					"input":13,
					"interpolation":"STEP",
					"output":65
				},
				{
					"input":13,
					"interpolation":"LINEAR",
					"output":66
				},
				{
					"input":13,
					"interpolation":"LINEAR",
					"output":67
				},
				{
					"input":13,
					"interpolation":"STEP",
					"output":68
				},
				{
					"input":13,
					"interpolation":"LINEAR",
					"output":69
				},
				{
					"input":13,
					"interpolation":"LINEAR",
					"output":70
				},
				{
					"input":13,
					"interpolation":"STEP",
					"output":71
				},
				{
					"input":13,
					"interpolation":"STEP",
					"output":72
				},
				{
					"input":13,
					"interpolation":"STEP",
					"output":73
				},
				{
					"input":13,
					"interpolation":"LINEAR",
					"output":74
				},
				{
					"input":13,
					"interpolation":"LINEAR",
					"output":75
				},
				{
					"input":13,
					"interpolation":"LINEAR",
					"output":76
				},
				{
					"input":13,
					"interpolation":"LINEAR",
					"output":77
				},
				{
					"input":13,
					"interpolation":"LINEAR",
					"output":78
				},
				{
					"input":13,
					"interpolation":"LINEAR",
					"output":79
				}
			]
		},
		{
			"channels":[
				{
					"sampler":0,
					"target":{
						"node":0,
						"path":"translation"
					}
				},
				{
					"sampler":1,
					"target":{
						"node":0,
						"path":"rotation"
					}
				},
				{
					"sampler":2,
					"target":{
						"node":0,
						"path":"scale"
					}
				},
				{
					"sampler":3,
					"target":{
						"node":19,
						"path":"translation"
					}
				},
				{
					"sampler":4,
					"target":{
						"node":19,
						"path":"rotation"
					}
				},
				{
					"sampler":5,
					"target":{
						"node":19,
						"path":"scale"
					}
				},
				{
					"sampler":6,
					"target":{
						"node":4,
						"path":"translation"
					}
				},
				{
					"sampler":7,
					"target":{
						"node":4,
						"path":"rotation"
					}
				},
				{
					"sampler":8,
					"target":{
						"node":4,
						"path":"scale"
					}
				},
				{
					"sampler":9,
					"target":{
						"node":1,
						"path":"translation"
					}
				},
				{
					"sampler":10,
					"target":{
						"node":1,
						"path":"rotation"
					}
				},
				{
					"sampler":11,
					"target":{
						"node":1,
						"path":"scale"
					}
				},
				{
					"sampler":12,
					"target":{
						"node":2,
						"path":"translation"
					}
				},
				{
					"sampler":13,
					"target":{
						"node":2,
						"path":"rotation"
					}
				},
				{
					"sampler":14,
					"target":{
						"node":2,
						"path":"scale"
					}
				},
				{
					"sampler":15,
					"target":{
						"node":3,
						"path":"translation"
					}
				},
				{
					"sampler":16,
					"target":{
						"node":3,
						"path":"rotation"
					}
				},
				{
					"sampler":17,
					"target":{
						"node":3,
						"path":"scale"
					}
				},
				{
					"sampler":18,
					"target":{
						"node":7,
						"path":"translation"
					}
				},
				{
					"sampler":19,
					"target":{
						"node":7,
						"path":"rotation"
					}
				},
				{
					"sampler":20,
					"target":{
						"node":7,
						"path":"scale"
					}
				},
				{
					"sampler":21,
					"target":{
						"node":6,
						"path":"translation"
					}
				},
				{
					"sampler":22,
					"target":{
						"node":6,
						"path":"rotation"
					}
				},
				{
					"sampler":23,
					"target":{
						"node":6,
						"path":"scale"
					}
				},
				{
					"sampler":24,
					"target":{
						"node":5,
						"path":"translation"
					}
				},
				{
					"sampler":25,
					"target":{
						"node":5,
						"path":"rotation"
					}
				},
				{
					"sampler":26,
					"target":{
						"node":5,
						"path":"scale"
					}
				},
				{
					"sampler":27,
					"target":{
						"node":10,
						"path":"translation"
					}
				},
				{
					"sampler":28,
					"target":{
						"node":10,
						"path":"rotation"
					}
				},
				{
					"sampler":29,
					"target":{
						"node":10,
						"path":"scale"
					}
				},
				{
					"sampler":30,
					"target":{
						"node":9,
						"path":"translation"
					}
				},
				{
					"sampler":31,
					"target":{
						"node":9,
						"path":"rotation"
					}
				},
				{
					"sampler":32,
					"target":{
						"node":9,
						"path":"scale"
					}
				},
				{
					"sampler":33,
					"target":{
						"node":8,
						"path":"translation"
					}
				},
				{
					"sampler":34,
					"target":{
						"node":8,
						"path":"rotation"
					}
				},
				{
					"sampler":35,
					"target":{
						"node":8,
						"path":"scale"
					}
				},
				{
					"sampler":36,
					"target":{
						"node":14,
						"path":"translation"
					}
				},
				{
					"sampler":37,
					"target":{
						"node":14,
						"path":"rotation"
					}
				},
				{
					"sampler":38,
					"target":{
						"node":14,
						"path":"scale"
					}
				},
				{
					"sampler":39,
					"target":{
						"node":13,
						"path":"translation"
					}
				},
				{
					"sampler":40,
					"target":{
						"node":13,
						"path":"rotation"
					}
				},
				{
					"sampler":41,
					"target":{
						"node":13,
						"path":"scale"
					}
				},
				{
					"sampler":42,
					"target":{
						"node":12,
						"path":"translation"
					}
				},
				{
					"sampler":43,
					"target":{
						"node":12,
						"path":"rotation"
					}
				},
				{
					"sampler":44,
					"target":{
						"node":12,
						"path":"scale"
					}
				},
				{
					"sampler":45,
					"target":{
						"node":11,
						"path":"translation"
					}
				},
				{
					"sampler":46,
					"target":{
						"node":11,
						"path":"rotation"
					}
				},
				{
					"sampler":47,
					"target":{
						"node":11,
						"path":"scale"
					}
				},
				{
					"sampler":48,
					"target":{
						"node":18,
						"path":"translation"
					}
				},
				{
					"sampler":49,
					"target":{
						"node":18,
						"path":"rotation"
					}
				},
				{
					"sampler":50,
					"target":{
						"node":18,
						"path":"scale"
					}
				},
				{
					"sampler":51,
					"target":{
						"node":17,
						"path":"translation"
					}
				},
				{
					"sampler":52,
					"target":{
						"node":17,
						"path":"rotation"
					}
				},
				{
					"sampler":53,
					"target":{
						"node":17,
						"path":"scale"
					}
				},
				{
					"sampler":54,
					"target":{
						"node":16,
						"path":"translation"
					}
				},
				{
					"sampler":55,
					"target":{
						"node":16,
						"path":"rotation"
					}
				},
				{
					"sampler":56,
					"target":{
						"node":16,
						"path":"scale"
					}
				},
				{
					"sampler":57,
					"target":{
						"node":15,
						"path":"translation"
					}
				},
				{
					"sampler":58,
					"target":{
						"node":15,
						"path":"rotation"
					}
				},
				{
					"sampler":59,
					"target":{
						"node":15,
						"path":"scale"
					}
				},
				{
					"sampler":60,
					"target":{
						"node":20,
						"path":"translation"
					}
				},
				{
					"sampler":61,
					"target":{
						"node":20,
						"path":"rotation"
					}
				},
				{
					"sampler":62,
					"target":{
						"node":20,
						"path":"scale"
					}
				},
				{
					"sampler":63,
					"target":{
						"node":21,
						"path":"translation"
					}
				},
				{
					"sampler":64,
					"target":{
						"node":21,
						"path":"rotation"
					}
				},
				{
					"sampler":65,
					"target":{
						"node":21,
						"path":"scale"
					}
				}
			],
			"name":"idle",
			"samplers":[
				{
					"input":13,
					"interpolation":"LINEAR",
					"output":80
				},
				{
					"input":13,
					"interpolation":"LINEAR",
					"output":81
				},
				{
					"input":13,
					"interpolation":"LINEAR",
					"output":82
				},
				{
					"input":13,
					"interpolation":"LINEAR",
					"output":83
				},
				{
					"input":13,
					"interpolation":"LINEAR",
					"output":84
				},
				{
					"input":13,
					"interpolation":"LINEAR",
					"output":85
				},
				{
					"input":13,
					"interpolation":"STEP",
					"output":86
				},
				{
					"input":13,
					"interpolation":"LINEAR",
					"output":87
				},
				{
					"input":13,
					"interpolation":"LINEAR",
					"output":88
				},
				{
					"input":13,
					"interpolation":"LINEAR",
					"output":89
				},
				{
					"input":13,
					"interpolation":"LINEAR",
					"output":90
				},
				{
					"input":13,
					"interpolation":"LINEAR",
					"output":91
				},
				{
					"input":13,
					"interpolation":"LINEAR",
					"output":92
				},
				{
					"input":13,
					"interpolation":"LINEAR",
					"output":93
				},
				{
					"input":13,
					"interpolation":"LINEAR",
					"output":94
				},
				{
					"input":13,
					"interpolation":"LINEAR",
					"output":95
				},
				{
					"input":13,
					"interpolation":"LINEAR",
					"output":96
				},
				{
					"input":13,
					"interpolation":"LINEAR",
					"output":97
				},
				{
					"input":13,
					"interpolation":"LINEAR",
					"output":98
				},
				{
					"input":13,
					"interpolation":"LINEAR",
					"output":99
				},
				{
					"input":13,
					"interpolation":"LINEAR",
					"output":100
				},
				{
					"input":13,
					"interpolation":"STEP",
					"output":101
				},
				{
					"input":13,
					"interpolation":"LINEAR",
					"output":102
				},
				{
					"input":13,
					"interpolation":"LINEAR",
					"output":103
				},
				{
					"input":13,
					"interpolation":"STEP",
					"output":104
				},
				{
					"input":13,
					"interpolation":"LINEAR",
					"output":105
				},
				{
					"input":13,
					"interpolation":"LINEAR",
					"output":106
				},
				{
					"input":13,
					"interpolation":"LINEAR",
					"output":107
				},
				{
					"input":13,
					"interpolation":"LINEAR",
					"output":108
				},
				{
					"input":13,
					"interpolation":"LINEAR",
					"output":109
				},
				{
					"input":13,
					"interpolation":"STEP",
					"output":110
				},
				{
					"input":13,
					"interpolation":"LINEAR",
					"output":111
				},
				{
					"input":13,
					"interpolation":"LINEAR",
					"output":112
				},
				{
					"input":13,
					"interpolation":"STEP",
					"output":113
				},
				{
					"input":13,
					"interpolation":"LINEAR",
					"output":114
				},
				{
					"input":13,
					"interpolation":"LINEAR",
					"output":115
				},
				{
					"input":13,
					"interpolation":"LINEAR",
					"output":116
				},
				{
					"input":13,
					"interpolation":"LINEAR",
					"output":117
				},
				{
					"input":13,
					"interpolation":"LINEAR",
					"output":118
				},
				{
					"input":13,
					"interpolation":"STEP",
					"output":119
				},
				{
					"input":13,
					"interpolation":"LINEAR",
					"output":120
				},
				{
					"input":13,
					"interpolation":"LINEAR",
					"output":121
				},
				{
					"input":13,
					"interpolation":"STEP",
					"output":122
				},
				{
					"input":13,
					"interpolation":"LINEAR",
					"output":123
				},
				{
					"input":13,
					"interpolation":"LINEAR",
					"output":124
				},
				{
					"input":13,
					"interpolation":"STEP",
					"output":125
				},
				{
					"input":13,
					"interpolation":"STEP",
					"output":126
				},
				{
					"input":13,
					"interpolation":"STEP",
					"output":127
				},
				{
					"input":13,
					"interpolation":"LINEAR",
					"output":128
				},
				{
					"input":13,
					"interpolation":"LINEAR",
					"output":129
				},
				{
					"input":13,
					"interpolation":"LINEAR",
					"output":130
				},
				{
					"input":13,
					"interpolation":"STEP",
					"output":131
				},
				{
					"input":13,
					"interpolation":"LINEAR",
					"output":132
				},
				{
					"input":13,
					"interpolation":"LINEAR",
					"output":133
				},
				{
					"input":13,
					"interpolation":"STEP",
					"output":134
				},
				{
					"input":13,
					"interpolation":"LINEAR",
					"output":135
				},
				{
					"input":13,
					"interpolation":"LINEAR",
					"output":136
				},
				{
					"input":13,
					"interpolation":"STEP",
					"output":137
				},
				{
					"input":13,
					"interpolation":"STEP",
					"output":138
				},
				{
					"input":13,
					"interpolation":"STEP",
					"output":139
				},
				{
					"input":13,
					"interpolation":"LINEAR",
					"output":140
				},
				{
					"input":13,
					"interpolation":"LINEAR",
					"output":141
				},
				{
					"input":13,
					"interpolation":"LINEAR",
					"output":142
				},
				{
					"input":13,
					"interpolation":"LINEAR",
					"output":143
				},
				{
					"input":13,
					"interpolation":"LINEAR",
					"output":144
				},
				{
					"input":13,
					"interpolation":"LINEAR",
					"output":145
				}
			]
		},
		{
			"channels":[
				{
					"sampler":0,
					"target":{
						"node":0,
						"path":"translation"
					}
				},
				{
					"sampler":1,
					"target":{
						"node":0,
						"path":"rotation"
					}
				},
				{
					"sampler":2,
					"target":{
						"node":0,
						"path":"scale"
					}
				},
				{
					"sampler":3,
					"target":{
						"node":19,
						"path":"translation"
					}
				},
				{
					"sampler":4,
					"target":{
						"node":19,
						"path":"rotation"
					}
				},
				{
					"sampler":5,
					"target":{
						"node":19,
						"path":"scale"
					}
				},
				{
					"sampler":6,
					"target":{
						"node":4,
						"path":"translation"
					}
				},
				{
					"sampler":7,
					"target":{
						"node":4,
						"path":"rotation"
					}
				},
				{
					"sampler":8,
					"target":{
						"node":4,
						"path":"scale"
					}
				},
				{
					"sampler":9,
					"target":{
						"node":1,
						"path":"translation"
					}
				},
				{
					"sampler":10,
					"target":{
						"node":1,
						"path":"rotation"
					}
				},
				{
					"sampler":11,
					"target":{
						"node":1,
						"path":"scale"
					}
				},
				{
					"sampler":12,
					"target":{
						"node":2,
						"path":"translation"
					}
				},
				{
					"sampler":13,
					"target":{
						"node":2,
						"path":"rotation"
					}
				},
				{
					"sampler":14,
					"target":{
						"node":2,
						"path":"scale"
					}
				},
				{
					"sampler":15,
					"target":{
						"node":3,
						"path":"translation"
					}
				},
				{
					"sampler":16,
					"target":{
						"node":3,
						"path":"rotation"
					}
				},
				{
					"sampler":17,
					"target":{
						"node":3,
						"path":"scale"
					}
				},
				{
					"sampler":18,
					"target":{
						"node":7,
						"path":"translation"
					}
				},
				{
					"sampler":19,
					"target":{
						"node":7,
						"path":"rotation"
					}
				},
				{
					"sampler":20,
					"target":{
						"node":7,
						"path":"scale"
					}
				},
				{
					"sampler":21,
					"target":{
						"node":6,
						"path":"translation"
					}
				},
				{
					"sampler":22,
					"target":{
						"node":6,
						"path":"rotation"
					}
				},
				{
					"sampler":23,
					"target":{
						"node":6,
						"path":"scale"
					}
				},
				{
					"sampler":24,
					"target":{
						"node":5,
						"path":"translation"
					}
				},
				{
					"sampler":25,
					"target":{
						"node":5,
						"path":"rotation"
					}
				},
				{
					"sampler":26,
					"target":{
						"node":5,
						"path":"scale"
					}
				},
				{
					"sampler":27,
					"target":{
						"node":10,
						"path":"translation"
					}
				},
				{
					"sampler":28,
					"target":{
						"node":10,
						"path":"rotation"
					}
				},
				{
					"sampler":29,
					"target":{
						"node":10,
						"path":"scale"
					}
				},
				{
					"sampler":30,
					"target":{
						"node":9,
						"path":"translation"
					}
				},
				{
					"sampler":31,
					"target":{
						"node":9,
						"path":"rotation"
					}
				},
				{
					"sampler":32,
					"target":{
						"node":9,
						"path":"scale"
					}
				},
				{
					"sampler":33,
					"target":{
						"node":8,
						"path":"translation"
					}
				},
				{
					"sampler":34,
					"target":{
						"node":8,
						"path":"rotation"
					}
				},
				{
					"sampler":35,
					"target":{
						"node":8,
						"path":"scale"
					}
				},
				{
					"sampler":36,
					"target":{
						"node":14,
						"path":"translation"
					}
				},
				{
					"sampler":37,
					"target":{
						"node":14,
						"path":"rotation"
					}
				},
				{
					"sampler":38,
					"target":{
						"node":14,
						"path":"scale"
					}
				},
				{
					"sampler":39,
					"target":{
						"node":13,
						"path":"translation"
					}
				},
				{
					"sampler":40,
					"target":{
						"node":13,
						"path":"rotation"
					}
				},
				{
					"sampler":41,
					"target":{
						"node":13,
						"path":"scale"
					}
				},
				{
					"sampler":42,
					"target":{
						"node":12,
						"path":"translation"
					}
				},
				{
					"sampler":43,
					"target":{
						"node":12,
						"path":"rotation"
					}
				},
				{
					"sampler":44,
					"target":{
						"node":12,
						"path":"scale"
					}
				},
				{
					"sampler":45,
					"target":{
						"node":11,
						"path":"translation"
					}
				},
				{
					"sampler":46,
					"target":{
						"node":11,
						"path":"rotation"
					}
				},
				{
					"sampler":47,
					"target":{
						"node":11,
						"path":"scale"
					}
				},
				{
					"sampler":48,
					"target":{
						"node":18,
						"path":"translation"
					}
				},
				{
					"sampler":49,
					"target":{
						"node":18,
						"path":"rotation"
					}
				},
				{
					"sampler":50,
					"target":{
						"node":18,
						"path":"scale"
					}
				},
				{
					"sampler":51,
					"target":{
						"node":17,
						"path":"translation"
					}
				},
				{
					"sampler":52,
					"target":{
						"node":17,
						"path":"rotation"
					}
				},
				{
					"sampler":53,
					"target":{
						"node":17,
						"path":"scale"
					}
				},
				{
					"sampler":54,
					"target":{
						"node":16,
						"path":"translation"
					}
				},
				{
					"sampler":55,
					"target":{
						"node":16,
						"path":"rotation"
					}
				},
				{
					"sampler":56,
					"target":{
						"node":16,
						"path":"scale"
					}
				},
				{
					"sampler":57,
					"target":{
						"node":15,
						"path":"translation"
					}
				},
				{
					"sampler":58,
					"target":{
						"node":15,
						"path":"rotation"
					}
				},
				{
					"sampler":59,
					"target":{
						"node":15,
						"path":"scale"
					}
				},
				{
					"sampler":60,
					"target":{
						"node":20,
						"path":"translation"
					}
				},
				{
					"sampler":61,
					"target":{
						"node":20,
						"path":"rotation"
					}
				},
				{
					"sampler":62,
					"target":{
						"node":20,
						"path":"scale"
					}
				},
				{
					"sampler":63,
					"target":{
						"node":21,
						"path":"translation"
					}
				},
				{
					"sampler":64,
					"target":{
						"node":21,
						"path":"rotation"
					}
				},
				{
					"sampler":65,
					"target":{
						"node":21,
						"path":"scale"
					}
				}
			],
			"name":"run",
			"samplers":[
				{
					"input":146,
					"interpolation":"STEP",
					"output":147
				},
				{
					"input":146,
					"interpolation":"STEP",
					"output":148
				},
				{
					"input":146,
					"interpolation":"STEP",
					"output":149
				},
				{
					"input":150,
					"interpolation":"LINEAR",
					"output":151
				},
				{
					"input":146,
					"interpolation":"STEP",
					"output":152
				},
				{
					"input":146,
					"interpolation":"STEP",
					"output":153
				},
				{
					"input":146,
					"interpolation":"STEP",
					"output":154
				},
				{
					"input":146,
					"interpolation":"STEP",
					"output":155
				},
				{
					"input":146,
					"interpolation":"STEP",
					"output":156
				},
				{
					"input":146,
					"interpolation":"STEP",
					"output":157
				},
				{
					"input":146,
					"interpolation":"STEP",
					"output":158
				},
				{
					"input":146,
					"interpolation":"STEP",
					"output":159
				},
				{
					"input":150,
					"interpolation":"LINEAR",
					"output":160
				},
				{
					"input":150,
					"interpolation":"LINEAR",
					"output":161
				},
				{
					"input":146,
					"interpolation":"STEP",
					"output":162
				},
				{
					"input":150,
					"interpolation":"LINEAR",
					"output":163
				},
				{
					"input":150,
					"interpolation":"LINEAR",
					"output":164
				},
				{
					"input":146,
					"interpolation":"STEP",
					"output":165
				},
				{
					"input":146,
					"interpolation":"STEP",
					"output":166
				},
				{
					"input":150,
					"interpolation":"LINEAR",
					"output":167
				},
				{
					"input":146,
					"interpolation":"STEP",
					"output":168
				},
				{
					"input":146,
					"interpolation":"STEP",
					"output":169
				},
				{
					"input":150,
					"interpolation":"LINEAR",
					"output":170
				},
				{
					"input":146,
					"interpolation":"STEP",
					"output":171
				},
				{
					"input":146,
					"interpolation":"STEP",
					"output":172
				},
				{
					"input":150,
					"interpolation":"LINEAR",
					"output":173
				},
				{
					"input":146,
					"interpolation":"STEP",
					"output":174
				},
				{
					"input":146,
					"interpolation":"STEP",
					"output":175
				},
				{
					"input":150,
					"interpolation":"LINEAR",
					"output":176
				},
				{
					"input":146,
					"interpolation":"STEP",
					"output":177
				},
				{
					"input":146,
					"interpolation":"STEP",
					"output":178
				},
				{
					"input":150,
					"interpolation":"LINEAR",
					"output":179
				},
				{
					"input":146,
					"interpolation":"STEP",
					"output":180
				},
				{
					"input":146,
					"interpolation":"STEP",
					"output":181
				},
				{
					"input":150,
					"interpolation":"LINEAR",
					"output":182
				},
				{
					"input":146,
					"interpolation":"STEP",
					"output":183
				},
				{
					"input":146,
					"interpolation":"STEP",
					"output":184
				},
				{
					"input":150,
					"interpolation":"LINEAR",
					"output":185
				},
				{
					"input":146,
					"interpolation":"LINEAR",
					"output":186
				},
				{
					"input":146,
					"interpolation":"STEP",
					"output":187
				},
				{
					"input":150,
					"interpolation":"LINEAR",
					"output":188
				},
				{
					"input":146,
					"interpolation":"LINEAR",
					"output":189
				},
				{
					"input":146,
					"interpolation":"STEP",
					"output":190
				},
				{
					"input":150,
					"interpolation":"LINEAR",
					"output":191
				},
				{
					"input":146,
					"interpolation":"LINEAR",
					"output":192
				},
				{
					"input":146,
					"interpolation":"LINEAR",
					"output":193
				},
				{
					"input":146,
					"interpolation":"LINEAR",
					"output":194
				},
				{
					"input":146,
					"interpolation":"LINEAR",
					"output":195
				},
				{
					"input":146,
					"interpolation":"STEP",
					"output":196
				},
				{
					"input":150,
					"interpolation":"LINEAR",
					"output":197
				},
				{
					"input":146,
					"interpolation":"STEP",
					"output":198
				},
				{
					"input":146,
					"interpolation":"STEP",
					"output":199
				},
				{
					"input":150,
					"interpolation":"LINEAR",
					"output":200
				},
				{
					"input":146,
					"interpolation":"LINEAR",
					"output":201
				},
				{
					"input":146,
					"interpolation":"STEP",
					"output":202
				},
				{
					"input":150,
					"interpolation":"LINEAR",
					"output":203
				},
				{
					"input":146,
					"interpolation":"LINEAR",
					"output":204
				},
				{
					"input":146,
					"interpolation":"LINEAR",
					"output":205
				},
				{
					"input":146,
					"interpolation":"LINEAR",
					"output":206
				},
				{
					"input":146,
					"interpolation":"STEP",
					"output":207
				},
				{
					"input":150,
					"interpolation":"LINEAR",
					"output":208
				},
				{
					"input":150,
					"interpolation":"LINEAR",
					"output":209
				},
				{
					"input":146,
					"interpolation":"STEP",
					"output":210
				},
				{
					"input":150,
					"interpolation":"LINEAR",
					"output":211
				},
				{
					"input":150,
					"interpolation":"LINEAR",
					"output":212
				},
				{
					"input":146,
					"interpolation":"STEP",
					"output":213
				}
			]
		}
	],
	"materials":[
		{
			"doubleSided":true,
			"name":"Material",
			"pbrMetallicRoughness":{
				"baseColorFactor":[
					0.06071959808468819,
					0.06071959808468819,
					0.06071959808468819,
					1
				],
				"metallicFactor":0
			}
		},
		{
			"doubleSided":true,
			"name":"Material.001",
			"pbrMetallicRoughness":{
				"baseColorFactor":[
					0.19945649802684784,
					0.289164662361145,
					0.4109388589859009,
					1
				],
				"metallicFactor":0,
				"roughnessFactor":0.5
			}
		}
	],
	"meshes":[
		{
			"name":"Mesh",
			"primitives":[
				{
					"attributes":{
						"POSITION":0,
						"NORMAL":1,
						"TEXCOORD_0":2,
						"JOINTS_0":3,
						"WEIGHTS_0":4
					},
					"indices":5,
					"material":0
				},
				{
					"attributes":{
						"POSITION":6,
						"NORMAL":7,
						"TEXCOORD_0":8,
						"JOINTS_0":9,
						"WEIGHTS_0":10
					},
					"indices":11,
					"material":1
				}
			]
		}
	],
	"skins":[
		{
			"inverseBindMatrices":12,
			"joints":[
				0,
				19,
				4,
				1,
				2,
				3,
				7,
				6,
				5,
				10,
				9,
				8,
				14,
				13,
				12,
				11,
				18,
				17,
				16,
				15,
				20,
				21
			],
			"name":"Armature"
		}
	],
	"accessors":[
		{
			"bufferView":0,
			"componentType":5126,
			"count":2014,
			"max":[
				0.4120483696460724,
				1.1197998523712158,
				0.20451022684574127
			],
			"min":[
				-0.4120483696460724,
				0.005929125472903252,
				-0.21505868434906006
			],
			"type":"VEC3"
		},
		{
			"bufferView":1,
			"componentType":5126,
			"count":2014,
			"type":"VEC3"
		},
		{
			"bufferView":2,
			"componentType":5126,
			"count":2014,
			"type":"VEC2"
		},
		{
			"bufferView":3,
			"componentType":5121,
			"count":2014,
			"type":"VEC4"
		},
		{
			"bufferView":4,
			"componentType":5126,
			"count":2014,
			"type":"VEC4"
		},
		{
			"bufferView":5,
			"componentType":5123,
			"count":8832,
			"type":"SCALAR"
		},
		{
			"bufferView":6,
			"componentType":5126,
			"count":324,
			"max":[
				0.11989997327327728,
				0.8831733465194702,
				0.1973637342453003
			],
			"min":[
				-0.11989996582269669,
				0.804456353187561,
				0.14842694997787476
			],
			"type":"VEC3"
		},
		{
			"bufferView":7,
			"componentType":5126,
			"count":324,
			"type":"VEC3"
		},
		{
			"bufferView":8,
			"componentType":5126,
			"count":324,
			"type":"VEC2"
		},
		{
			"bufferView":9,
			"componentType":5121,
			"count":324,
			"type":"VEC4"
		},
		{
			"bufferView":10,
			"componentType":5126,
			"count":324,
			"type":"VEC4"
		},
		{
			"bufferView":11,
			"componentType":5123,
			"count":1920,
			"type":"SCALAR"
		},
		{
			"bufferView":12,
			"componentType":5126,
			"count":22,
			"type":"MAT4"
		},
		{
			"bufferView":13,
			"componentType":5126,
			"count":1,
			"max":[
				0
			],
			"min":[
				0
			],
			"type":"SCALAR"
		},
		{
			"bufferView":14,
			"componentType":5126,
			"count":1,
			"type":"VEC3"
		},
		{
			"bufferView":15,
			"componentType":5126,
			"count":1,
			"type":"VEC4"
		},
		{
			"bufferView":16,
			"componentType":5126,
			"count":1,
			"type":"VEC3"
		},
		{
			"bufferView":17,
			"componentType":5126,
			"count":1,
			"type":"VEC3"
		},
		{
			"bufferView":18,
			"componentType":5126,
			"count":1,
			"type":"VEC4"
		},
		{
			"bufferView":19,
			"componentType":5126,
			"count":1,
			"type":"VEC3"
		},
		{
			"bufferView":20,
			"componentType":5126,
			"count":1,
			"type":"VEC3"
		},
		{
			"bufferView":21,
			"componentType":5126,
			"count":1,
			"type":"VEC4"
		},
		{
			"bufferView":22,
			"componentType":5126,
			"count":1,
			"type":"VEC3"
		},
		{
			"bufferView":23,
			"componentType":5126,
			"count":1,
			"type":"VEC3"
		},
		{
			"bufferView":24,
			"componentType":5126,
			"count":1,
			"type":"VEC4"
		},
		{
			"bufferView":25,
			"componentType":5126,
			"count":1,
			"type":"VEC3"
		},
		{
			"bufferView":26,
			"componentType":5126,
			"count":1,
			"type":"VEC3"
		},
		{
			"bufferView":27,
			"componentType":5126,
			"count":1,
			"type":"VEC4"
		},
		{
			"bufferView":28,
			"componentType":5126,
			"count":1,
			"type":"VEC3"
		},
		{
			"bufferView":29,
			"componentType":5126,
			"count":1,
			"type":"VEC3"
		},
		{
			"bufferView":30,
			"componentType":5126,
			"count":1,
			"type":"VEC4"
		},
		{
			"bufferView":31,
			"componentType":5126,
			"count":1,
			"type":"VEC3"
		},
		{
			"bufferView":32,
			"componentType":5126,
			"count":1,
			"type":"VEC3"
		},
		{
			"bufferView":33,
			"componentType":5126,
			"count":1,
			"type":"VEC4"
		},
		{
			"bufferView":34,
			"componentType":5126,
			"count":1,
			"type":"VEC3"
		},
		{
			"bufferView":35,
			"componentType":5126,
			"count":1,
			"type":"VEC3"
		},
		{
			"bufferView":36,
			"componentType":5126,
			"count":1,
			"type":"VEC4"
		},
		{
			"bufferView":37,
			"componentType":5126,
			"count":1,
			"type":"VEC3"
		},
		{
			"bufferView":38,
			"componentType":5126,
			"count":1,
			"type":"VEC3"
		},
		{
			"bufferView":39,
			"componentType":5126,
			"count":1,
			"type":"VEC4"
		},
		{
			"bufferView":40,
			"componentType":5126,
			"count":1,
			"type":"VEC3"
		},
		{
			"bufferView":41,
			"componentType":5126,
			"count":1,
			"type":"VEC3"
		},
		{
			"bufferView":42,
			"componentType":5126,
			"count":1,
			"type":"VEC4"
		},
		{
			"bufferView":43,
			"componentType":5126,
			"count":1,
			"type":"VEC3"
		},
		{
			"bufferView":44,
			"componentType":5126,
			"count":1,
			"type":"VEC3"
		},
		{
			"bufferView":45,
			"componentType":5126,
			"count":1,
			"type":"VEC4"
		},
		{
			"bufferView":46,
			"componentType":5126,
			"count":1,
			"type":"VEC3"
		},
		{
			"bufferView":47,
			"componentType":5126,
			"count":1,
			"type":"VEC3"
		},
		{
			"bufferView":48,
			"componentType":5126,
			"count":1,
			"type":"VEC4"
		},
		{
			"bufferView":49,
			"componentType":5126,
			"count":1,
			"type":"VEC3"
		},
		{
			"bufferView":50,
			"componentType":5126,
			"count":1,
			"type":"VEC3"
		},
		{
			"bufferView":51,
			"componentType":5126,
			"count":1,
			"type":"VEC4"
		},
		{
			"bufferView":52,
			"componentType":5126,
			"count":1,
			"type":"VEC3"
		},
		{
			"bufferView":53,
			"componentType":5126,
			"count":1,
			"type":"VEC3"
		},
		{
			"bufferView":54,
			"componentType":5126,
			"count":1,
			"type":"VEC4"
		},
		{
			"bufferView":55,
			"componentType":5126,
			"count":1,
			"type":"VEC3"
		},
		{
			"bufferView":56,
			"componentType":5126,
			"count":1,
			"type":"VEC3"
		},
		{
			"bufferView":57,
			"componentType":5126,
			"count":1,
			"type":"VEC4"
		},
		{
			"bufferView":58,
			"componentType":5126,
			"count":1,
			"type":"VEC3"
		},
		{
			"bufferView":59,
			"componentType":5126,
			"count":1,
			"type":"VEC3"
		},
		{
			"bufferView":60,
			"componentType":5126,
			"count":1,
			"type":"VEC4"
		},
		{
			"bufferView":61,
			"componentType":5126,
			"count":1,
			"type":"VEC3"
		},
		{
			"bufferView":62,
			"componentType":5126,
			"count":1,
			"type":"VEC3"
		},
		{
			"bufferView":63,
			"componentType":5126,
			"count":1,
			"type":"VEC4"
		},
		{
			"bufferView":64,
			"componentType":5126,
			"count":1,
			"type":"VEC3"
		},
		{
			"bufferView":65,
			"componentType":5126,
			"count":1,
			"type":"VEC3"
		},
		{
			"bufferView":66,
			"componentType":5126,
			"count":1,
			"type":"VEC4"
		},
		{
			"bufferView":67,
			"componentType":5126,
			"count":1,
			"type":"VEC3"
		},
		{
			"bufferView":68,
			"componentType":5126,
			"count":1,
			"type":"VEC3"
		},
		{
			"bufferView":69,
			"componentType":5126,
			"count":1,
			"type":"VEC4"
		},
		{
			"bufferView":70,
			"componentType":5126,
			"count":1,
			"type":"VEC3"
		},
		{
			"bufferView":71,
			"componentType":5126,
			"count":1,
			"type":"VEC3"
		},
		{
			"bufferView":72,
			"componentType":5126,
			"count":1,
			"type":"VEC4"
		},
		{
			"bufferView":73,
			"componentType":5126,
			"count":1,
			"type":"VEC3"
		},
		{
			"bufferView":74,
			"componentType":5126,
			"count":1,
			"type":"VEC3"
		},
		{
			"bufferView":75,
			"componentType":5126,
			"count":1,
			"type":"VEC4"
		},
		{
			"bufferView":76,
			"componentType":5126,
			"count":1,
			"type":"VEC3"
		},
		{
			"bufferView":77,
			"componentType":5126,
			"count":1,
			"type":"VEC3"
		},
		{
			"bufferView":78,
			"componentType":5126,
			"count":1,
			"type":"VEC4"
		},
		{
			"bufferView":79,
			"componentType":5126,
			"count":1,
			"type":"VEC3"
		},
		{
			"bufferView":80,
			"componentType":5126,
			"count":1,
			"type":"VEC3"
		},
		{
			"bufferView":81,
			"componentType":5126,
			"count":1,
			"type":"VEC4"
		},
		{
			"bufferView":82,
			"componentType":5126,
			"count":1,
			"type":"VEC3"
		},
		{
			"bufferView":83,
			"componentType":5126,
			"count":1,
			"type":"VEC3"
		},
		{
			"bufferView":84,
			"componentType":5126,
			"count":1,
			"type":"VEC4"
		},
		{
			"bufferView":85,
			"componentType":5126,
			"count":1,
			"type":"VEC3"
		},
		{
			"bufferView":86,
			"componentType":5126,
			"count":1,
			"type":"VEC3"
		},
		{
			"bufferView":87,
			"componentType":5126,
			"count":1,
			"type":"VEC4"
		},
		{
			"bufferView":88,
			"componentType":5126,
			"count":1,
			"type":"VEC3"
		},
		{
			"bufferView":89,
			"componentType":5126,
			"count":1,
			"type":"VEC3"
		},
		{
			"bufferView":90,
			"componentType":5126,
			"count":1,
			"type":"VEC4"
		},
		{
			"bufferView":91,
			"componentType":5126,
			"count":1,
			"type":"VEC3"
		},
		{
			"bufferView":92,
			"componentType":5126,
			"count":1,
			"type":"VEC3"
		},
		{
			"bufferView":93,
			"componentType":5126,
			"count":1,
			"type":"VEC4"
		},
		{
			"bufferView":94,
			"componentType":5126,
			"count":1,
			"type":"VEC3"
		},
		{
			"bufferView":95,
			"componentType":5126,
			"count":1,
			"type":"VEC3"
		},
		{
			"bufferView":96,
			"componentType":5126,
			"count":1,
			"type":"VEC4"
		},
		{
			"bufferView":97,
			"componentType":5126,
			"count":1,
			"type":"VEC3"
		},
		{
			"bufferView":98,
			"componentType":5126,
			"count":1,
			"type":"VEC3"
		},
		{
			"bufferView":99,
			"componentType":5126,
			"count":1,
			"type":"VEC4"
		},
		{
			"bufferView":100,
			"componentType":5126,
			"count":1,
			"type":"VEC3"
		},
		{
			"bufferView":101,
			"componentType":5126,
			"count":1,
			"type":"VEC3"
		},
		{
			"bufferView":102,
			"componentType":5126,
			"count":1,
			"type":"VEC4"
		},
		{
			"bufferView":103,
			"componentType":5126,
			"count":1,
			"type":"VEC3"
		},
		{
			"bufferView":104,
			"componentType":5126,
			"count":1,
			"type":"VEC3"
		},
		{
			"bufferView":105,
			"componentType":5126,
			"count":1,
			"type":"VEC4"
		},
		{
			"bufferView":106,
			"componentType":5126,
			"count":1,
			"type":"VEC3"
		},
		{
			"bufferView":107,
			"componentType":5126,
			"count":1,
			"type":"VEC3"
		},
		{
			"bufferView":108,
			"componentType":5126,
			"count":1,
			"type":"VEC4"
		},
		{
			"bufferView":109,
			"componentType":5126,
			"count":1,
			"type":"VEC3"
		},
		{
			"bufferView":110,
			"componentType":5126,
			"count":1,
			"type":"VEC3"
		},
		{
			"bufferView":111,
			"componentType":5126,
			"count":1,
			"type":"VEC4"
		},
		{
			"bufferView":112,
			"componentType":5126,
			"count":1,
			"type":"VEC3"
		},
		{
			"bufferView":113,
			"componentType":5126,
			"count":1,
			"type":"VEC3"
		},
		{
			"bufferView":114,
			"componentType":5126,
			"count":1,
			"type":"VEC4"
		},
		{
			"bufferView":115,
			"componentType":5126,
			"count":1,
			"type":"VEC3"
		},
		{
			"bufferView":116,
			"componentType":5126,
			"count":1,
			"type":"VEC3"
		},
		{
			"bufferView":117,
			"componentType":5126,
			"count":1,
			"type":"VEC4"
		},
		{
			"bufferView":118,
			"componentType":5126,
			"count":1,
			"type":"VEC3"
		},
		{
			"bufferView":119,
			"componentType":5126,
			"count":1,
			"type":"VEC3"
		},
		{
			"bufferView":120,
			"componentType":5126,
			"count":1,
			"type":"VEC4"
		},
		{
			"bufferView":121,
			"componentType":5126,
			"count":1,
			"type":"VEC3"
		},
		{
			"bufferView":122,
			"componentType":5126,
			"count":1,
			"type":"VEC3"
		},
		{
			"bufferView":123,
			"componentType":5126,
			"count":1,
			"type":"VEC4"
		},
		{
			"bufferView":124,
			"componentType":5126,
			"count":1,
			"type":"VEC3"
		},
		{
			"bufferView":125,
			"componentType":5126,
			"count":1,
			"type":"VEC3"
		},
		{
			"bufferView":126,
			"componentType":5126,
			"count":1,
			"type":"VEC4"
		},
		{
			"bufferView":127,
			"componentType":5126,
			"count":1,
			"type":"VEC3"
		},
		{
			"bufferView":128,
			"componentType":5126,
			"count":1,
			"type":"VEC3"
		},
		{
			"bufferView":129,
			"componentType":5126,
			"count":1,
			"type":"VEC4"
		},
		{
			"bufferView":130,
			"componentType":5126,
			"count":1,
			"type":"VEC3"
		},
		{
			"bufferView":131,
			"componentType":5126,
			"count":1,
			"type":"VEC3"
		},
		{
			"bufferView":132,
			"componentType":5126,
			"count":1,
			"type":"VEC4"
		},
		{
			"bufferView":133,
			"componentType":5126,
			"count":1,
			"type":"VEC3"
		},
		{
			"bufferView":134,
			"componentType":5126,
			"count":1,
			"type":"VEC3"
		},
		{
			"bufferView":135,
			"componentType":5126,
			"count":1,
			"type":"VEC4"
		},
		{
			"bufferView":136,
			"componentType":5126,
			"count":1,
			"type":"VEC3"
		},
		{
			"bufferView":137,
			"componentType":5126,
			"count":1,
			"type":"VEC3"
		},
		{
			"bufferView":138,
			"componentType":5126,
			"count":1,
			"type":"VEC4"
		},
		{
			"bufferView":139,
			"componentType":5126,
			"count":1,
			"type":"VEC3"
		},
		{
			"bufferView":140,
			"componentType":5126,
			"count":1,
			"type":"VEC3"
		},
		{
			"bufferView":141,
			"componentType":5126,
			"count":1,
			"type":"VEC4"
		},
		{
			"bufferView":142,
			"componentType":5126,
			"count":1,
			"type":"VEC3"
		},
		{
			"bufferView":143,
			"componentType":5126,
			"count":1,
			"type":"VEC3"
		},
		{
			"bufferView":144,
			"componentType":5126,
			"count":1,
			"type":"VEC4"
		},
		{
			"bufferView":145,
			"componentType":5126,
			"count":1,
			"type":"VEC3"
		},
		{
			"bufferView":146,
			"componentType":5126,
			"count":2,
			"max":[
				1
			],
			"min":[
				0
			],
			"type":"SCALAR"
		},
		{
			"bufferView":147,
			"componentType":5126,
			"count":2,
			"type":"VEC3"
		},
		{
			"bufferView":148,
			"componentType":5126,
			"count":2,
			"type":"VEC4"
		},
		{
			"bufferView":149,
			"componentType":5126,
			"count":2,
			"type":"VEC3"
		},
		{
			"bufferView":150,
			"componentType":5126,
			"count":25,
			"max":[
				1
			],
			"min":[
				0
			],
			"type":"SCALAR"
		},
		{
			"bufferView":151,
			"componentType":5126,
			"count":25,
			"type":"VEC3"
		},
		{
			"bufferView":152,
			"componentType":5126,
			"count":2,
			"type":"VEC4"
		},
		{
			"bufferView":153,
			"componentType":5126,
			"count":2,
			"type":"VEC3"
		},
		{
			"bufferView":154,
			"componentType":5126,
			"count":2,
			"type":"VEC3"
		},
		{
			"bufferView":155,
			"componentType":5126,
			"count":2,
			"type":"VEC4"
		},
		{
			"bufferView":156,
			"componentType":5126,
			"count":2,
			"type":"VEC3"
		},
		{
			"bufferView":157,
			"componentType":5126,
			"count":2,
			"type":"VEC3"
		},
		{
			"bufferView":158,
			"componentType":5126,
			"count":2,
			"type":"VEC4"
		},
		{
			"bufferView":159,
			"componentType":5126,
			"count":2,
			"type":"VEC3"
		},
		{
			"bufferView":160,
			"componentType":5126,
			"count":25,
			"type":"VEC3"
		},
		{
			"bufferView":161,
			"componentType":5126,
			"count":25,
			"type":"VEC4"
		},
		{
			"bufferView":162,
			"componentType":5126,
			"count":2,
			"type":"VEC3"
		},
		{
			"bufferView":163,
			"componentType":5126,
			"count":25,
			"type":"VEC3"
		},
		{
			"bufferView":164,
			"componentType":5126,
			"count":25,
			"type":"VEC4"
		},
		{
			"bufferView":165,
			"componentType":5126,
			"count":2,
			"type":"VEC3"
		},
		{
			"bufferView":166,
			"componentType":5126,
			"count":2,
			"type":"VEC3"
		},
		{
			"bufferView":167,
			"componentType":5126,
			"count":25,
			"type":"VEC4"
		},
		{
			"bufferView":168,
			"componentType":5126,
			"count":2,
			"type":"VEC3"
		},
		{
			"bufferView":169,
			"componentType":5126,
			"count":2,
			"type":"VEC3"
		},
		{
			"bufferView":170,
			"componentType":5126,
			"count":25,
			"type":"VEC4"
		},
		{
			"bufferView":171,
			"componentType":5126,
			"count":2,
			"type":"VEC3"
		},
		{
			"bufferView":172,
			"componentType":5126,
			"count":2,
			"type":"VEC3"
		},
		{
			"bufferView":173,
			"componentType":5126,
			"count":25,
			"type":"VEC4"
		},
		{
			"bufferView":174,
			"componentType":5126,
			"count":2,
			"type":"VEC3"
		},
		{
			"bufferView":175,
			"componentType":5126,
			"count":2,
			"type":"VEC3"
		},
		{
			"bufferView":176,
			"componentType":5126,
			"count":25,
			"type":"VEC4"
		},
		{
			"bufferView":177,
			"componentType":5126,
			"count":2,
			"type":"VEC3"
		},
		{
			"bufferView":178,
			"componentType":5126,
			"count":2,
			"type":"VEC3"
		},
		{
			"bufferView":179,
			"componentType":5126,
			"count":25,
			"type":"VEC4"
		},
		{
			"bufferView":180,
			"componentType":5126,
			"count":2,
			"type":"VEC3"
		},
		{
			"bufferView":181,
			"componentType":5126,
			"count":2,
			"type":"VEC3"
		},
		{
			"bufferView":182,
			"componentType":5126,
			"count":25,
			"type":"VEC4"
		},
		{
			"bufferView":183,
			"componentType":5126,
			"count":2,
			"type":"VEC3"
		},
		{
			"bufferView":184,
			"componentType":5126,
			"count":2,
			"type":"VEC3"
		},
		{
			"bufferView":185,
			"componentType":5126,
			"count":25,
			"type":"VEC4"
		},
		{
			"bufferView":186,
			"componentType":5126,
			"count":2,
			"type":"VEC3"
		},
		{
			"bufferView":187,
			"componentType":5126,
			"count":2,
			"type":"VEC3"
		},
		{
			"bufferView":188,
			"componentType":5126,
			"count":25,
			"type":"VEC4"
		},
		{
			"bufferView":189,
			"componentType":5126,
			"count":2,
			"type":"VEC3"
		},
		{
			"bufferView":190,
			"componentType":5126,
			"count":2,
			"type":"VEC3"
		},
		{
			"bufferView":191,
			"componentType":5126,
			"count":25,
			"type":"VEC4"
		},
		{
			"bufferView":192,
			"componentType":5126,
			"count":2,
			"type":"VEC3"
		},
		{
			"bufferView":193,
			"componentType":5126,
			"count":2,
			"type":"VEC3"
		},
		{
			"bufferView":194,
			"componentType":5126,
			"count":2,
			"type":"VEC4"
		},
		{
			"bufferView":195,
			"componentType":5126,
			"count":2,
			"type":"VEC3"
		},
		{
			"bufferView":196,
			"componentType":5126,
			"count":2,
			"type":"VEC3"
		},
		{
			"bufferView":197,
			"componentType":5126,
			"count":25,
			"type":"VEC4"
		},
		{
			"bufferView":198,
			"componentType":5126,
			"count":2,
			"type":"VEC3"
		},
		{
			"bufferView":199,
			"componentType":5126,
			"count":2,
			"type":"VEC3"
		},
		{
			"bufferView":200,
			"componentType":5126,
			"count":25,
			"type":"VEC4"
		},
		{
			"bufferView":201,
			"componentType":5126,
			"count":2,
			"type":"VEC3"
		},
		{
			"bufferView":202,
			"componentType":5126,
			"count":2,
			"type":"VEC3"
		},
		{
			"bufferView":203,
			"componentType":5126,
			"count":25,
			"type":"VEC4"
		},
		{
			"bufferView":204,
			"componentType":5126,
			"count":2,
			"type":"VEC3"
		},
		{
			"bufferView":205,
			"componentType":5126,
			"count":2,
			"type":"VEC3"
		},
		{
			"bufferView":206,
			"componentType":5126,
			"count":2,
			"type":"VEC4"
		},
		{
			"bufferView":207,
			"componentType":5126,
			"count":2,
			"type":"VEC3"
		},
		{
			"bufferView":208,
			"componentType":5126,
			"count":25,
			"type":"VEC3"
		},
		{
			"bufferView":209,
			"componentType":5126,
			"count":25,
			"type":"VEC4"
		},
		{
			"bufferView":210,
			"componentType":5126,
			"count":2,
			"type":"VEC3"
		},
		{
			"bufferView":211,
			"componentType":5126,
			"count":25,
			"type":"VEC3"
		},
		{
			"bufferView":212,
			"componentType":5126,
			"count":25,
			"type":"VEC4"
		},
		{
			"bufferView":213,
			"componentType":5126,
			"count":2,
			"type":"VEC3"
		}
	],
	"bufferViews":[
		{
			"buffer":0,
			"byteLength":24168,
			"byteOffset":0,
			"target":34962
		},
		{
			"buffer":0,
			"byteLength":24168,
			"byteOffset":24168,
			"target":34962
		},
		{
			"buffer":0,
			"byteLength":16112,
			"byteOffset":48336,
			"target":34962
		},
		{
			"buffer":0,
			"byteLength":8056,
			"byteOffset":64448,
			"target":34962
		},
		{
			"buffer":0,
			"byteLength":32224,
			"byteOffset":72504,
			"target":34962
		},
		{
			"buffer":0,
			"byteLength":17664,
			"byteOffset":104728,
			"target":34963
		},
		{
			"buffer":0,
			"byteLength":3888,
			"byteOffset":122392,
			"target":34962
		},
		{
			"buffer":0,
			"byteLength":3888,
			"byteOffset":126280,
			"target":34962
		},
		{
			"buffer":0,
			"byteLength":2592,
			"byteOffset":130168,
			"target":34962
		},
		{
			"buffer":0,
			"byteLength":1296,
			"byteOffset":132760,
			"target":34962
		},
		{
			"buffer":0,
			"byteLength":5184,
			"byteOffset":134056,
			"target":34962
		},
		{
			"buffer":0,
			"byteLength":3840,
			"byteOffset":139240,
			"target":34963
		},
		{
			"buffer":0,
			"byteLength":1408,
			"byteOffset":143080
		},
		{
			"buffer":0,
			"byteLength":4,
			"byteOffset":144488
		},
		{
			"buffer":0,
			"byteLength":12,
			"byteOffset":144492
		},
		{
			"buffer":0,
			"byteLength":16,
			"byteOffset":144504
		},
		{
			"buffer":0,
			"byteLength":12,
			"byteOffset":144520
		},
		{
			"buffer":0,
			"byteLength":12,
			"byteOffset":144532
		},
		{
			"buffer":0,
			"byteLength":16,
			"byteOffset":144544
		},
		{
			"buffer":0,
			"byteLength":12,
			"byteOffset":144560
		},
		{
			"buffer":0,
			"byteLength":12,
			"byteOffset":144572
		},
		{
			"buffer":0,
			"byteLength":16,
			"byteOffset":144584
		},
		{
			"buffer":0,
			"byteLength":12,
			"byteOffset":144600
		},
		{
			"buffer":0,
			"byteLength":12,
			"byteOffset":144612
		},
		{
			"buffer":0,
			"byteLength":16,
			"byteOffset":144624
		},
		{
			"buffer":0,
			"byteLength":12,
			"byteOffset":144640
		},
		{
			"buffer":0,
			"byteLength":12,
			"byteOffset":144652
		},
		{
			"buffer":0,
			"byteLength":16,
			"byteOffset":144664
		},
		{
			"buffer":0,
			"byteLength":12,
			"byteOffset":144680
		},
		{
			"buffer":0,
			"byteLength":12,
			"byteOffset":144692
		},
		{
			"buffer":0,
			"byteLength":16,
			"byteOffset":144704
		},
		{
			"buffer":0,
			"byteLength":12,
			"byteOffset":144720
		},
		{
			"buffer":0,
			"byteLength":12,
			"byteOffset":144732
		},
		{
			"buffer":0,
			"byteLength":16,
			"byteOffset":144744
		},
		{
			"buffer":0,
			"byteLength":12,
			"byteOffset":144760
		},
		{
			"buffer":0,
			"byteLength":12,
			"byteOffset":144772
		},
		{
			"buffer":0,
			"byteLength":16,
			"byteOffset":144784
		},
		{
			"buffer":0,
			"byteLength":12,
			"byteOffset":144800
		},
		{
			"buffer":0,
			"byteLength":12,
			"byteOffset":144812
		},
		{
			"buffer":0,
			"byteLength":16,
			"byteOffset":144824
		},
		{
			"buffer":0,
			"byteLength":12,
			"byteOffset":144840
		},
		{
			"buffer":0,
			"byteLength":12,
			"byteOffset":144852
		},
		{
			"buffer":0,
			"byteLength":16,
			"byteOffset":144864
		},
		{
			"buffer":0,
			"byteLength":12,
			"byteOffset":144880
		},
		{
			"buffer":0,
			"byteLength":12,
			"byteOffset":144892
		},
		{
			"buffer":0,
			"byteLength":16,
			"byteOffset":144904
		},
		{
			"buffer":0,
			"byteLength":12,
			"byteOffset":144920
		},
		{
			"buffer":0,
			"byteLength":12,
			"byteOffset":144932
		},
		{
			"buffer":0,
			"byteLength":16,
			"byteOffset":144944
		},
		{
			"buffer":0,
			"byteLength":12,
			"byteOffset":144960
		},
		{
			"buffer":0,
			"byteLength":12,
			"byteOffset":144972
		},
		{
			"buffer":0,
			"byteLength":16,
			"byteOffset":144984
		},
		{
			"buffer":0,
			"byteLength":12,
			"byteOffset":145000
		},
		{
			"buffer":0,
			"byteLength":12,
			"byteOffset":145012
		},
		{
			"buffer":0,
			"byteLength":16,
			"byteOffset":145024
		},
		{
			"buffer":0,
			"byteLength":12,
			"byteOffset":145040
		},
		{
			"buffer":0,
			"byteLength":12,
			"byteOffset":145052
		},
		{
			"buffer":0,
			"byteLength":16,
			"byteOffset":145064
		},
		{
			"buffer":0,
			"byteLength":12,
			"byteOffset":145080
		},
		{
			"buffer":0,
			"byteLength":12,
			"byteOffset":145092
		},
		{
			"buffer":0,
			"byteLength":16,
			"byteOffset":145104
		},
		{
			"buffer":0,
			"byteLength":12,
			"byteOffset":145120
		},
		{
			"buffer":0,
			"byteLength":12,
			"byteOffset":145132
		},
		{
			"buffer":0,
			"byteLength":16,
			"byteOffset":145144
		},
		{
			"buffer":0,
			"byteLength":12,
			"byteOffset":145160
		},
		{
			"buffer":0,
			"byteLength":12,
			"byteOffset":145172
		},
		{
			"buffer":0,
			"byteLength":16,
			"byteOffset":145184
		},
		{
			"buffer":0,
			"byteLength":12,
			"byteOffset":145200
		},
		{
			"buffer":0,
			"byteLength":12,
			"byteOffset":145212
		},
		{
			"buffer":0,
			"byteLength":16,
			"byteOffset":145224
		},
		{
			"buffer":0,
			"byteLength":12,
			"byteOffset":145240
		},
		{
			"buffer":0,
			"byteLength":12,
			"byteOffset":145252
		},
		{
			"buffer":0,
			"byteLength":16,
			"byteOffset":145264
		},
		{
			"buffer":0,
			"byteLength":12,
			"byteOffset":145280
		},
		{
			"buffer":0,
			"byteLength":12,
			"byteOffset":145292
		},
		{
			"buffer":0,
			"byteLength":16,
			"byteOffset":145304
		},
		{
			"buffer":0,
			"byteLength":12,
			"byteOffset":145320
		},
		{
			"buffer":0,
			"byteLength":12,
			"byteOffset":145332
		},
		{
			"buffer":0,
			"byteLength":16,
			"byteOffset":145344
		},
		{
			"buffer":0,
			"byteLength":12,
			"byteOffset":145360
		},
		{
			"buffer":0,
			"byteLength":12,
			"byteOffset":145372
		},
		{
			"buffer":0,
			"byteLength":16,
			"byteOffset":145384
		},
		{
			"buffer":0,
			"byteLength":12,
			"byteOffset":145400
		},
		{
			"buffer":0,
			"byteLength":12,
			"byteOffset":145412
		},
		{
			"buffer":0,
			"byteLength":16,
			"byteOffset":145424
		},
		{
			"buffer":0,
			"byteLength":12,
			"byteOffset":145440
		},
		{
			"buffer":0,
			"byteLength":12,
			"byteOffset":145452
		},
		{
			"buffer":0,
			"byteLength":16,
			"byteOffset":145464
		},
		{
			"buffer":0,
			"byteLength":12,
			"byteOffset":145480
		},
		{
			"buffer":0,
			"byteLength":12,
			"byteOffset":145492
		},
		{
			"buffer":0,
			"byteLength":16,
			"byteOffset":145504
		},
		{
			"buffer":0,
			"byteLength":12,
			"byteOffset":145520
		},
		{
			"buffer":0,
			"byteLength":12,
			"byteOffset":145532
		},
		{
			"buffer":0,
			"byteLength":16,
			"byteOffset":145544
		},
		{
			"buffer":0,
			"byteLength":12,
			"byteOffset":145560
		},
		{
			"buffer":0,
			"byteLength":12,
			"byteOffset":145572
		},
		{
			"buffer":0,
			"byteLength":16,
			"byteOffset":145584
		},
		{
			"buffer":0,
			"byteLength":12,
			"byteOffset":145600
		},
		{
			"buffer":0,
			"byteLength":12,
			"byteOffset":145612
		},
		{
			"buffer":0,
			"byteLength":16,
			"byteOffset":145624
		},
		{
			"buffer":0,
			"byteLength":12,
			"byteOffset":145640
		},
		{
			"buffer":0,
			"byteLength":12,
			"byteOffset":145652
		},
		{
			"buffer":0,
			"byteLength":16,
			"byteOffset":145664
		},
		{
			"buffer":0,
			"byteLength":12,
			"byteOffset":145680
		},
		{
			"buffer":0,
			"byteLength":12,
			"byteOffset":145692
		},
		{
			"buffer":0,
			"byteLength":16,
			"byteOffset":145704
		},
		{
			"buffer":0,
			"byteLength":12,
			"byteOffset":145720
		},
		{
			"buffer":0,
			"byteLength":12,
			"byteOffset":145732
		},
		{
			"buffer":0,
			"byteLength":16,
			"byteOffset":145744
		},
		{
			"buffer":0,
			"byteLength":12,
			"byteOffset":145760
		},
		{
			"buffer":0,
			"byteLength":12,
			"byteOffset":145772
		},
		{
			"buffer":0,
			"byteLength":16,
			"byteOffset":145784
		},
		{
			"buffer":0,
			"byteLength":12,
			"byteOffset":145800
		},
		{
			"buffer":0,
			"byteLength":12,
			"byteOffset":145812
		},
		{
			"buffer":0,
			"byteLength":16,
			"byteOffset":145824
		},
		{
			"buffer":0,
			"byteLength":12,
			"byteOffset":145840
		},
		{
			"buffer":0,
			"byteLength":12,
			"byteOffset":145852
		},
		{
			"buffer":0,
			"byteLength":16,
			"byteOffset":145864
		},
		{
			"buffer":0,
			"byteLength":12,
			"byteOffset":145880
		},
		{
			"buffer":0,
			"byteLength":12,
			"byteOffset":145892
		},
		{
			"buffer":0,
			"byteLength":16,
			"byteOffset":145904
		},
		{
			"buffer":0,
			"byteLength":12,
			"byteOffset":145920
		},
		{
			"buffer":0,
			"byteLength":12,
			"byteOffset":145932
		},
		{
			"buffer":0,
			"byteLength":16,
			"byteOffset":145944
		},
		{
			"buffer":0,
			"byteLength":12,
			"byteOffset":145960
		},
		{
			"buffer":0,
			"byteLength":12,
			"byteOffset":145972
		},
		{
			"buffer":0,
			"byteLength":16,
			"byteOffset":145984
		},
		{
			"buffer":0,
			"byteLength":12,
			"byteOffset":146000
		},
		{
			"buffer":0,
			"byteLength":12,
			"byteOffset":146012
		},
		{
			"buffer":0,
			"byteLength":16,
			"byteOffset":146024
		},
		{
			"buffer":0,
			"byteLength":12,
			"byteOffset":146040
		},
		{
			"buffer":0,
			"byteLength":12,
			"byteOffset":146052
		},
		{
			"buffer":0,
			"byteLength":16,
			"byteOffset":146064
		},
		{
			"buffer":0,
			"byteLength":12,
			"byteOffset":146080
		},
		{
			"buffer":0,
			"byteLength":12,
			"byteOffset":146092
		},
		{
			"buffer":0,
			"byteLength":16,
			"byteOffset":146104
		},
		{
			"buffer":0,
			"byteLength":12,
			"byteOffset":146120
		},
		{
			"buffer":0,
			"byteLength":12,
			"byteOffset":146132
		},
		{
			"buffer":0,
			"byteLength":16,
			"byteOffset":146144
		},
		{
			"buffer":0,
			"byteLength":12,
			"byteOffset":146160
		},
		{
			"buffer":0,
			"byteLength":12,
			"byteOffset":146172
		},
		{
			"buffer":0,
			"byteLength":16,
			"byteOffset":146184
		},
		{
			"buffer":0,
			"byteLength":12,
			"byteOffset":146200
		},
		{
			"buffer":0,
			"byteLength":12,
			"byteOffset":146212
		},
		{
			"buffer":0,
			"byteLength":16,
			"byteOffset":146224
		},
		{
			"buffer":0,
			"byteLength":12,
			"byteOffset":146240
		},
		{
			"buffer":0,
			"byteLength":8,
			"byteOffset":146252
		},
		{
			"buffer":0,
			"byteLength":24,
			"byteOffset":146260
		},
		{
			"buffer":0,
			"byteLength":32,
			"byteOffset":146284
		},
		{
			"buffer":0,
			"byteLength":24,
			"byteOffset":146316
		},
		{
			"buffer":0,
			"byteLength":100,
			"byteOffset":146340
		},
		{
			"buffer":0,
			"byteLength":300,
			"byteOffset":146440
		},
		{
			"buffer":0,
			"byteLength":32,
			"byteOffset":146740
		},
		{
			"buffer":0,
			"byteLength":24,
			"byteOffset":146772
		},
		{
			"buffer":0,
			"byteLength":24,
			"byteOffset":146796
		},
		{
			"buffer":0,
			"byteLength":32,
			"byteOffset":146820
		},
		{
			"buffer":0,
			"byteLength":24,
			"byteOffset":146852
		},
		{
			"buffer":0,
			"byteLength":24,
			"byteOffset":146876
		},
		{
			"buffer":0,
			"byteLength":32,
			"byteOffset":146900
		},
		{
			"buffer":0,
			"byteLength":24,
			"byteOffset":146932
		},
		{
			"buffer":0,
			"byteLength":300,
			"byteOffset":146956
		},
		{
			"buffer":0,
			"byteLength":400,
			"byteOffset":147256
		},
		{
			"buffer":0,
			"byteLength":24,
			"byteOffset":147656
		},
		{
			"buffer":0,
			"byteLength":300,
			"byteOffset":147680
		},
		{
			"buffer":0,
			"byteLength":400,
			"byteOffset":147980
		},
		{
			"buffer":0,
			"byteLength":24,
			"byteOffset":148380
		},
		{
			"buffer":0,
			"byteLength":24,
			"byteOffset":148404
		},
		{
			"buffer":0,
			"byteLength":400,
			"byteOffset":148428
		},
		{
			"buffer":0,
			"byteLength":24,
			"byteOffset":148828
		},
		{
			"buffer":0,
			"byteLength":24,
			"byteOffset":148852
		},
		{
			"buffer":0,
			"byteLength":400,
			"byteOffset":148876
		},
		{
			"buffer":0,
			"byteLength":24,
			"byteOffset":149276
		},
		{
			"buffer":0,
			"byteLength":24,
			"byteOffset":149300
		},
		{
			"buffer":0,
			"byteLength":400,
			"byteOffset":149324
		},
		{
			"buffer":0,
			"byteLength":24,
			"byteOffset":149724
		},
		{
			"buffer":0,
			"byteLength":24,
			"byteOffset":149748
		},
		{
			"buffer":0,
			"byteLength":400,
			"byteOffset":149772
		},
		{
			"buffer":0,
			"byteLength":24,
			"byteOffset":150172
		},
		{
			"buffer":0,
			"byteLength":24,
			"byteOffset":150196
		},
		{
			"buffer":0,
			"byteLength":400,
			"byteOffset":150220
		},
		{
			"buffer":0,
			"byteLength":24,
			"byteOffset":150620
		},
		{
			"buffer":0,
			"byteLength":24,
			"byteOffset":150644
		},
		{
			"buffer":0,
			"byteLength":400,
			"byteOffset":150668
		},
		{
			"buffer":0,
			"byteLength":24,
			"byteOffset":151068
		},
		{
			"buffer":0,
			"byteLength":24,
			"byteOffset":151092
		},
		{
			"buffer":0,
			"byteLength":400,
			"byteOffset":151116
		},
		{
			"buffer":0,
			"byteLength":24,
			"byteOffset":151516
		},
		{
			"buffer":0,
			"byteLength":24,
			"byteOffset":151540
		},
		{
			"buffer":0,
			"byteLength":400,
			"byteOffset":151564
		},
		{
			"buffer":0,
			"byteLength":24,
			"byteOffset":151964
		},
		{
			"buffer":0,
			"byteLength":24,
			"byteOffset":151988
		},
		{
			"buffer":0,
			"byteLength":400,
			"byteOffset":152012
		},
		{
			"buffer":0,
			"byteLength":24,
			"byteOffset":152412
		},
		{
			"buffer":0,
			"byteLength":24,
			"byteOffset":152436
		},
		{
			"buffer":0,
			"byteLength":32,
			"byteOffset":152460
		},
		{
			"buffer":0,
			"byteLength":24,
			"byteOffset":152492
		},
		{
			"buffer":0,
			"byteLength":24,
			"byteOffset":152516
		},
		{
			"buffer":0,
			"byteLength":400,
			"byteOffset":152540
		},
		{
			"buffer":0,
			"byteLength":24,
			"byteOffset":152940
		},
		{
			"buffer":0,
			"byteLength":24,
			"byteOffset":152964
		},
		{
			"buffer":0,
			"byteLength":400,
			"byteOffset":152988
		},
		{
			"buffer":0,
			"byteLength":24,
			"byteOffset":153388
		},
		{
			"buffer":0,
			"byteLength":24,
			"byteOffset":153412
		},
		{
			"buffer":0,
			"byteLength":400,
			"byteOffset":153436
		},
		{
			"buffer":0,
			"byteLength":24,
			"byteOffset":153836
		},
		{
			"buffer":0,
			"byteLength":24,
			"byteOffset":153860
		},
		{
			"buffer":0,
			"byteLength":32,
			"byteOffset":153884
		},
		{
			"buffer":0,
			"byteLength":24,
			"byteOffset":153916
		},
		{
			"buffer":0,
			"byteLength":300,
			"byteOffset":153940
		},
		{
			"buffer":0,
			"byteLength":400,
			"byteOffset":154240
		},
		{
			"buffer":0,
			"byteLength":24,
			"byteOffset":154640
		},
		{
			"buffer":0,
			"byteLength":300,
			"byteOffset":154664
		},
		{
			"buffer":0,
			"byteLength":400,
			"byteOffset":154964
		},
		{
			"buffer":0,
			"byteLength":24,
			"byteOffset":155364
		}
	],
	"buffers":[
		{
			"byteLength":155388,
			"uri":"player.bin"
		}
	]
}
