{
	"asset":{
		"generator":"Khronos glTF Blender I/O v3.6.27",
		"version":"2.0"
	},
	"scene":0,
	"scenes":[
		{
			"name":"Scene",
			"nodes":[
				0
			]
		}
	],
	"nodes":[
		{
			"mesh":0,
			"name":"Plane"
		}
	],
	"materials":[
		{
			"doubleSided":true,
			"name":"Material.001",
			"pbrMetallicRoughness":{
				"baseColorFactor":[
					0.055711474269628525,
					0.054590292274951935,
					0.12758201360702515,
					1
				],
				"metallicFactor":0,
				"roughnessFactor":0.5
			}
		}
	],
	"meshes":[
		{
			"name":"Plane",
			"primitives":[
				{
					"attributes":{
						"COLOR_0":0,
						"POSITION":1,
						"NORMAL":2,
						"TEXCOORD_0":3
					},
					"indices":4,
					"material":0
				}
			]
		}
	],
	"accessors":[
		{
			"bufferView":0,
			"componentType":5123,
			"count":81,
			"normalized":true,
			"type":"VEC4"
		},
		{
			"bufferView":1,
			"componentType":5126,
			"count":81,
			"max":[
				0.30000001192092896,
				1.2720905542373657,
				0.2248193323612213
			],
			"min":[
				-0.30000001192092896,
				0,
				0.033294618129730225
			],
			"type":"VEC3"
		},
		{
			"bufferView":2,
			"componentType":5126,
			"count":81,
			"type":"VEC3"
		},
		{
			"bufferView":3,
			"componentType":5126,
			"count":81,
			"type":"VEC2"
		},
		{
			"bufferView":4,
			"componentType":5123,
			"count":384,
			"type":"SCALAR"
		}
	],
	"bufferViews":[
		{
			"buffer":0,
			"byteLength":648,
			"byteOffset":0,
			"target":34962
		},
		{
			"buffer":0,
			"byteLength":972,
			"byteOffset":648,
			"target":34962
		},
		{
			"buffer":0,
			"byteLength":972,
			"byteOffset":1620,
			"target":34962
		},
		{
			"buffer":0,
			"byteLength":648,
			"byteOffset":2592,
			"target":34962
		},
		{
			"buffer":0,
			"byteLength":768,
			"byteOffset":3240,
			"target":34963
		}
	],
	"buffers":[
		{
			"byteLength":4008,
			"uri":"player_cape.bin"
		}
	]
}
