{
	"asset":{
		"generator":"Khronos glTF Blender I/O v3.6.27",
		"version":"2.0"
	},
	"scene":0,
	"scenes":[
		{
			"name":"Scene",
			"nodes":[
				0
			]
		}
	],
	"nodes":[
		{
			"mesh":0,
			"name":"Cape"
		}
	],
	"materials":[
		{
			"name":"Material",
			"pbrMetallicRoughness":{
				"baseColorFactor":[
					0.800000011920929,
					0.800000011920929,
					0.800000011920929,
					1
				],
				"metallicFactor":0,
				"roughnessFactor":0.5
			}
		}
	],
	"meshes":[
		{
			"name":"Mesh",
			"primitives":[
				{
					"attributes":{
						"COLOR_0":0,
						"POSITION":1,
						"NORMAL":2,
						"TEXCOORD_0":3
					},
					"indices":4,
					"material":0
				}
			]
		}
	],
	"accessors":[
		{
			"bufferView":0,
			"componentType":5123,
			"count":344,
			"normalized":true,
			"type":"VEC4"
		},
		{
			"bufferView":1,
			"componentType":5126,
			"count":344,
			"max":[
				0.6808249354362488,
				1.9882045984268188,
				0.6158393621444702
			],
			"min":[
				-0.6808249354362488,
				0.05658853426575661,
				-0.44259434938430786
			],
			"type":"VEC3"
		},
		{
			"bufferView":2,
			"componentType":5126,
			"count":344,
			"type":"VEC3"
		},
		{
			"bufferView":3,
			"componentType":5126,
			"count":344,
			"type":"VEC2"
		},
		{
			"bufferView":4,
			"componentType":5123,
			"count":1536,
			"type":"SCALAR"
		}
	],
	"bufferViews":[
		{
			"buffer":0,
			"byteLength":2752,
			"byteOffset":0,
			"target":34962
		},
		{
			"buffer":0,
			"byteLength":4128,
			"byteOffset":2752,
			"target":34962
		},
		{
			"buffer":0,
			"byteLength":4128,
			"byteOffset":6880,
			"target":34962
		},
		{
			"buffer":0,
			"byteLength":2752,
			"byteOffset":11008,
			"target":34962
		},
		{
			"buffer":0,
			"byteLength":3072,
			"byteOffset":13760,
			"target":34963
		}
	],
	"buffers":[
		{
			"byteLength":16832,
			"uri":"player_cape.bin"
		}
	]
}
