{
	"asset":{
		"generator":"Khronos glTF Blender I/O v3.6.27",
		"version":"2.0"
	},
	"scene":0,
	"scenes":[
		{
			"name":"Scene",
			"nodes":[
				0,
				1,
				2
			]
		}
	],
	"nodes":[
		{
			"mesh":0,
			"name":"Torch"
		},
		{
			"mesh":1,
			"name":"Hold"
		},
		{
			"mesh":2,
			"name":"Sphere"
		}
	],
	"materials":[
		{
			"doubleSided":true,
			"name":"Material",
			"pbrMetallicRoughness":{
				"baseColorTexture":{
					"index":0
				},
				"metallicRoughnessTexture":{
					"index":1
				}
			}
		},
		{
			"doubleSided":true,
			"name":"Material",
			"pbrMetallicRoughness":{
				"baseColorTexture":{
					"index":2
				},
				"metallicRoughnessTexture":{
					"index":3
				}
			}
		}
	],
	"meshes":[
		{
			"name":"Cylinder.001",
			"primitives":[
				{
					"attributes":{
						"POSITION":0,
						"NORMAL":1,
						"TEXCOORD_0":2
					},
					"indices":3,
					"material":0
				}
			]
		},
		{
			"name":"Cylinder.002",
			"primitives":[
				{
					"attributes":{
						"POSITION":4,
						"NORMAL":5,
						"TEXCOORD_0":6
					},
					"indices":7,
					"material":0
				}
			]
		},
		{
			"name":"Sphere",
			"primitives":[
				{
					"attributes":{
						"POSITION":8,
						"NORMAL":9,
						"TEXCOORD_0":10
					},
					"indices":11,
					"material":1
				}
			]
		}
	],
	"textures":[
		{
			"sampler":0,
			"source":0
		},
		{
			"sampler":0,
			"source":1
		},
		{
			"sampler":0,
			"source":0
		},
		{
			"sampler":0,
			"source":1
		}
	],
	"images":[
		{
			"mimeType":"image/png",
			"name":"wall_torch_diffuse.png",
			"uri":"wall_torch_diffuse.png"
		},
		{
			"mimeType":"image/png",
			"name":"wall_torch_occlusionRoughnessMetallic.png",
			"uri":"wall_torch_occlusionRoughnessMetallic.png"
		}
	],
	"accessors":[
		{
			"bufferView":0,
			"componentType":5126,
			"count":2447,
			"max":[
				0.07039973884820938,
				0.4363732933998108,
				0.36493992805480957
			],
			"min":[
				-0.07054313272237778,
				-0.25729644298553467,
				0.03449106216430664
			],
			"type":"VEC3"
		},
		{
			"bufferView":1,
			"componentType":5126,
			"count":2447,
			"type":"VEC3"
		},
		{
			"bufferView":2,
			"componentType":5126,
			"count":2447,
			"type":"VEC2"
		},
		{
			"bufferView":3,
			"componentType":5123,
			"count":7950,
			"type":"SCALAR"
		},
		{
			"bufferView":4,
			"componentType":5126,
			"count":206,
			"max":[
				0.033759020268917084,
				0.18850719928741455,
				0.25145405530929565
			],
			"min":[
				-0.03303595259785652,
				0.17605794966220856,
				-0.00015171989798545837
			],
			"type":"VEC3"
		},
		{
			"bufferView":5,
			"componentType":5126,
			"count":206,
			"type":"VEC3"
		},
		{
			"bufferView":6,
			"componentType":5126,
			"count":206,
			"type":"VEC2"
		},
		{
			"bufferView":7,
			"componentType":5123,
			"count":690,
			"type":"SCALAR"
		},
		{
			"bufferView":8,
			"componentType":5126,
			"count":43,
			"max":[
				0.05012522265315056,
				0.30536338686943054,
				0.2893895208835602
			],
			"min":[
				-0.05012529715895653,
				0.21266421675682068,
				0.19669033586978912
			],
			"type":"VEC3"
		},
		{
			"bufferView":9,
			"componentType":5126,
			"count":43,
			"type":"VEC3"
		},
		{
			"bufferView":10,
			"componentType":5126,
			"count":43,
			"type":"VEC2"
		},
		{
			"bufferView":11,
			"componentType":5123,
			"count":144,
			"type":"SCALAR"
		}
	],
	"bufferViews":[
		{
			"buffer":0,
			"byteLength":29364,
			"byteOffset":0,
			"target":34962
		},
		{
			"buffer":0,
			"byteLength":29364,
			"byteOffset":29364,
			"target":34962
		},
		{
			"buffer":0,
			"byteLength":19576,
			"byteOffset":58728,
			"target":34962
		},
		{
			"buffer":0,
			"byteLength":15900,
			"byteOffset":78304,
			"target":34963
		},
		{
			"buffer":0,
			"byteLength":2472,
			"byteOffset":94204,
			"target":34962
		},
		{
			"buffer":0,
			"byteLength":2472,
			"byteOffset":96676,
			"target":34962
		},
		{
			"buffer":0,
			"byteLength":1648,
			"byteOffset":99148,
			"target":34962
		},
		{
			"buffer":0,
			"byteLength":1380,
			"byteOffset":100796,
			"target":34963
		},
		{
			"buffer":0,
			"byteLength":516,
			"byteOffset":102176,
			"target":34962
		},
		{
			"buffer":0,
			"byteLength":516,
			"byteOffset":102692,
			"target":34962
		},
		{
			"buffer":0,
			"byteLength":344,
			"byteOffset":103208,
			"target":34962
		},
		{
			"buffer":0,
			"byteLength":288,
			"byteOffset":103552,
			"target":34963
		}
	],
	"samplers":[
		{
			"magFilter":9729,
			"minFilter":9987
		}
	],
	"buffers":[
		{
			"byteLength":103840,
			"uri":"wall_torch.bin"
		}
	]
}
