{
	"asset":{
		"generator":"Khronos glTF Blender I/O v3.6.27",
		"version":"2.0"
	},
	"scene":0,
	"scenes":[
		{
			"name":"Scene",
			"nodes":[
				0
			]
		}
	],
	"nodes":[
		{
			"mesh":0,
			"name":"Iron Bars.001",
			"rotation":[
				0,
				0.7071068286895752,
				0,
				0.7071068286895752
			]
		}
	],
	"animations":[
		{
			"channels":[
				{
					"sampler":0,
					"target":{
						"node":0,
						"path":"translation"
					}
				},
				{
					"sampler":1,
					"target":{
						"node":0,
						"path":"rotation"
					}
				},
				{
					"sampler":2,
					"target":{
						"node":0,
						"path":"scale"
					}
				}
			],
			"name":"Iron Bars.001Action",
			"samplers":[
				{
					"input":4,
					"interpolation":"LINEAR",
					"output":5
				},
				{
					"input":4,
					"interpolation":"LINEAR",
					"output":6
				},
				{
					"input":4,
					"interpolation":"LINEAR",
					"output":7
				}
			]
		}
	],
	"materials":[
		{
			"doubleSided":true,
			"name":"Material.001",
			"pbrMetallicRoughness":{
				"baseColorFactor":[
					0.35055580735206604,
					0.35055580735206604,
					0.35055580735206604,
					1
				],
				"roughnessFactor":0.5
			}
		}
	],
	"meshes":[
		{
			"name":"Cube.001",
			"primitives":[
				{
					"attributes":{
						"POSITION":0,
						"NORMAL":1,
						"TEXCOORD_0":2
					},
					"indices":3,
					"material":0
				}
			]
		}
	],
	"accessors":[
		{
			"bufferView":0,
			"componentType":5126,
			"count":696,
			"max":[
				0.04054318740963936,
				2.499999761581421,
				1.3405437469482422
			],
			"min":[
				-0.0405445359647274,
				-0.00811012089252472,
				-1.34054434299469
			],
			"type":"VEC3"
		},
		{
			"bufferView":1,
			"componentType":5126,
			"count":696,
			"type":"VEC3"
		},
		{
			"bufferView":2,
			"componentType":5126,
			"count":696,
			"type":"VEC2"
		},
		{
			"bufferView":3,
			"componentType":5123,
			"count":1176,
			"type":"SCALAR"
		},
		{
			"bufferView":4,
			"componentType":5126,
			"count":1,
			"max":[
				0
			],
			"min":[
				0
			],
			"type":"SCALAR"
		},
		{
			"bufferView":5,
			"componentType":5126,
			"count":1,
			"type":"VEC3"
		},
		{
			"bufferView":6,
			"componentType":5126,
			"count":1,
			"type":"VEC4"
		},
		{
			"bufferView":7,
			"componentType":5126,
			"count":1,
			"type":"VEC3"
		}
	],
	"bufferViews":[
		{
			"buffer":0,
			"byteLength":8352,
			"byteOffset":0,
			"target":34962
		},
		{
			"buffer":0,
			"byteLength":8352,
			"byteOffset":8352,
			"target":34962
		},
		{
			"buffer":0,
			"byteLength":5568,
			"byteOffset":16704,
			"target":34962
		},
		{
			"buffer":0,
			"byteLength":2352,
			"byteOffset":22272,
			"target":34963
		},
		{
			"buffer":0,
			"byteLength":4,
			"byteOffset":24624
		},
		{
			"buffer":0,
			"byteLength":12,
			"byteOffset":24628
		},
		{
			"buffer":0,
			"byteLength":16,
			"byteOffset":24640
		},
		{
			"buffer":0,
			"byteLength":12,
			"byteOffset":24656
		}
	],
	"buffers":[
		{
			"byteLength":24668,
			"uri":"prison_gate.bin"
		}
	]
}
