{
	"asset":{
		"generator":"Khronos glTF Blender I/O v3.6.27",
		"version":"2.0"
	},
	"scene":0,
	"scenes":[
		{
			"name":"Scene",
			"nodes":[
				0
			]
		}
	],
	"nodes":[
		{
			"mesh":0,
			"name":"Cone"
		}
	],
	"materials":[
		{
			"name":"Material.001",
			"pbrMetallicRoughness":{
				"baseColorTexture":{
					"index":0
				},
				"metallicFactor":0,
				"roughnessFactor":0.5
			}
		}
	],
	"meshes":[
		{
			"name":"Cone",
			"primitives":[
				{
					"attributes":{
						"POSITION":0,
						"NORMAL":1,
						"TEXCOORD_0":2
					},
					"indices":3,
					"material":0
				}
			]
		}
	],
	"textures":[
		{
			"sampler":0,
			"source":0
		}
	],
	"images":[
		{
			"mimeType":"image/png",
			"name":"fountain.png.001",
			"uri":"textures/fountain.png"
		}
	],
	"accessors":[
		{
			"bufferView":0,
			"componentType":5126,
			"count":1354,
			"max":[
				1.0595875978469849,
				1.857757329940796,
				1.0595875978469849
			],
			"min":[
				-1.0595875978469849,
				0,
				-1.0595875978469849
			],
			"type":"VEC3"
		},
		{
			"bufferView":1,
			"componentType":5126,
			"count":1354,
			"type":"VEC3"
		},
		{
			"bufferView":2,
			"componentType":5126,
			"count":1354,
			"type":"VEC2"
		},
		{
			"bufferView":3,
			"componentType":5123,
			"count":4824,
			"type":"SCALAR"
		}
	],
	"bufferViews":[
		{
			"buffer":0,
			"byteLength":16248,
			"byteOffset":0,
			"target":34962
		},
		{
			"buffer":0,
			"byteLength":16248,
			"byteOffset":16248,
			"target":34962
		},
		{
			"buffer":0,
			"byteLength":10832,
			"byteOffset":32496,
			"target":34962
		},
		{
			"buffer":0,
			"byteLength":9648,
			"byteOffset":43328,
			"target":34963
		}
	],
	"samplers":[
		{
			"magFilter":9729,
			"minFilter":9987
		}
	],
	"buffers":[
		{
			"byteLength":52976,
			"uri":"fountain.bin"
		}
	]
}
