{
	"asset":{
		"generator":"Khronos glTF Blender I/O v3.6.27",
		"version":"2.0"
	},
	"scene":0,
	"scenes":[
		{
			"name":"Scene",
			"nodes":[
				0
			]
		}
	],
	"nodes":[
		{
			"mesh":0,
			"name":"Cylinder"
		}
	],
	"materials":[
		{
			"doubleSided":true,
			"name":"Material",
			"pbrMetallicRoughness":{
				"baseColorFactor":[
					0.06071966513991356,
					0.06071966513991356,
					0.06071966513991356,
					1
				],
				"metallicFactor":0.1666666716337204,
				"roughnessFactor":0.5
			}
		},
		{
			"doubleSided":true,
			"name":"Material.001",
			"pbrMetallicRoughness":{
				"baseColorFactor":[
					0.0732361450791359,
					0.02919759415090084,
					0.01805538684129715,
					1
				],
				"metallicFactor":0,
				"roughnessFactor":0.7857142686843872
			}
		}
	],
	"meshes":[
		{
			"name":"Cylinder",
			"primitives":[
				{
					"attributes":{
						"POSITION":0,
						"NORMAL":1,
						"TEXCOORD_0":2
					},
					"indices":3,
					"material":0
				},
				{
					"attributes":{
						"POSITION":4,
						"NORMAL":5,
						"TEXCOORD_0":6
					},
					"indices":7,
					"material":1
				}
			]
		}
	],
	"accessors":[
		{
			"bufferView":0,
			"componentType":5126,
			"count":572,
			"max":[
				0.015138241462409496,
				0.45193958282470703,
				0.1164621040225029
			],
			"min":[
				-0.015148403123021126,
				-0.09481437504291534,
				-0.11504985392093658
			],
			"type":"VEC3"
		},
		{
			"bufferView":1,
			"componentType":5126,
			"count":572,
			"type":"VEC3"
		},
		{
			"bufferView":2,
			"componentType":5126,
			"count":572,
			"type":"VEC2"
		},
		{
			"bufferView":3,
			"componentType":5123,
			"count":888,
			"type":"SCALAR"
		},
		{
			"bufferView":4,
			"componentType":5126,
			"count":64,
			"max":[
				0.015124860219657421,
				0.07993584871292114,
				0.020312538370490074
			],
			"min":[
				-0.015135018154978752,
				-0.0463467575609684,
				-0.02031359076499939
			],
			"type":"VEC3"
		},
		{
			"bufferView":5,
			"componentType":5126,
			"count":64,
			"type":"VEC3"
		},
		{
			"bufferView":6,
			"componentType":5126,
			"count":64,
			"type":"VEC2"
		},
		{
			"bufferView":7,
			"componentType":5123,
			"count":96,
			"type":"SCALAR"
		}
	],
	"bufferViews":[
		{
			"buffer":0,
			"byteLength":6864,
			"byteOffset":0,
			"target":34962
		},
		{
			"buffer":0,
			"byteLength":6864,
			"byteOffset":6864,
			"target":34962
		},
		{
			"buffer":0,
			"byteLength":4576,
			"byteOffset":13728,
			"target":34962
		},
		{
			"buffer":0,
			"byteLength":1776,
			"byteOffset":18304,
			"target":34963
		},
		{
			"buffer":0,
			"byteLength":768,
			"byteOffset":20080,
			"target":34962
		},
		{
			"buffer":0,
			"byteLength":768,
			"byteOffset":20848,
			"target":34962
		},
		{
			"buffer":0,
			"byteLength":512,
			"byteOffset":21616,
			"target":34962
		},
		{
			"buffer":0,
			"byteLength":192,
			"byteOffset":22128,
			"target":34963
		}
	],
	"buffers":[
		{
			"byteLength":22320,
			"uri":"broken_sword.bin"
		}
	]
}
