{
	"asset":{
		"generator":"Khronos glTF Blender I/O v3.6.27",
		"version":"2.0"
	},
	"scene":0,
	"scenes":[
		{
			"name":"Scene",
			"nodes":[
				0
			]
		}
	],
	"nodes":[
		{
			"mesh":0,
			"name":"Torus"
		}
	],
	"materials":[
		{
			"doubleSided":true,
			"name":"Material.001",
			"pbrMetallicRoughness":{
				"baseColorFactor":[
					0.13286364078521729,
					0.13286364078521729,
					0.13286364078521729,
					1
				],
				"roughnessFactor":0.32022470235824585
			}
		},
		{
			"doubleSided":true,
			"name":"Material",
			"pbrMetallicRoughness":{
				"baseColorFactor":[
					0,
					0.015452667139470577,
					0.11493556201457977,
					1
				],
				"metallicFactor":0,
				"roughnessFactor":0.06179773807525635
			}
		}
	],
	"meshes":[
		{
			"name":"Torus",
			"primitives":[
				{
					"attributes":{
						"POSITION":0,
						"NORMAL":1,
						"TEXCOORD_0":2
					},
					"indices":3,
					"material":0
				},
				{
					"attributes":{
						"POSITION":4,
						"NORMAL":5,
						"TEXCOORD_0":6
					},
					"indices":7,
					"material":1
				}
			]
		}
	],
	"accessors":[
		{
			"bufferView":0,
			"componentType":5126,
			"count":477,
			"max":[
				0.05388832092285156,
				0.062429819256067276,
				0.021264664828777313
			],
			"min":[
				-0.053888365626335144,
				-0.053933631628751755,
				-0.02126476913690567
			],
			"type":"VEC3"
		},
		{
			"bufferView":1,
			"componentType":5126,
			"count":477,
			"type":"VEC3"
		},
		{
			"bufferView":2,
			"componentType":5126,
			"count":477,
			"type":"VEC2"
		},
		{
			"bufferView":3,
			"componentType":5123,
			"count":1818,
			"type":"SCALAR"
		},
		{
			"bufferView":4,
			"componentType":5126,
			"count":84,
			"max":[
				0.015370145440101624,
				0.06569614261388779,
				0.01536993682384491
			],
			"min":[
				-0.015369821339845657,
				0.0623919703066349,
				-0.01537003368139267
			],
			"type":"VEC3"
		},
		{
			"bufferView":5,
			"componentType":5126,
			"count":84,
			"type":"VEC3"
		},
		{
			"bufferView":6,
			"componentType":5126,
			"count":84,
			"type":"VEC2"
		},
		{
			"bufferView":7,
			"componentType":5123,
			"count":336,
			"type":"SCALAR"
		}
	],
	"bufferViews":[
		{
			"buffer":0,
			"byteLength":5724,
			"byteOffset":0,
			"target":34962
		},
		{
			"buffer":0,
			"byteLength":5724,
			"byteOffset":5724,
			"target":34962
		},
		{
			"buffer":0,
			"byteLength":3816,
			"byteOffset":11448,
			"target":34962
		},
		{
			"buffer":0,
			"byteLength":3636,
			"byteOffset":15264,
			"target":34963
		},
		{
			"buffer":0,
			"byteLength":1008,
			"byteOffset":18900,
			"target":34962
		},
		{
			"buffer":0,
			"byteLength":1008,
			"byteOffset":19908,
			"target":34962
		},
		{
			"buffer":0,
			"byteLength":672,
			"byteOffset":20916,
			"target":34962
		},
		{
			"buffer":0,
			"byteLength":672,
			"byteOffset":21588,
			"target":34963
		}
	],
	"buffers":[
		{
			"byteLength":22260,
			"uri":"sapphire_ring.bin"
		}
	]
}
