{
	"asset":{
		"generator":"Khronos glTF Blender I/O v3.6.27",
		"version":"2.0"
	},
	"scene":0,
	"scenes":[
		{
			"name":"Scene",
			"nodes":[
				0
			]
		}
	],
	"nodes":[
		{
			"mesh":0,
			"name":"Cube.007",
			"scale":[
				0.5600000023841858,
				0.5600000023841858,
				0.5600000023841858
			]
		}
	],
	"materials":[
		{
			"doubleSided":true,
			"name":"Material",
			"pbrMetallicRoughness":{
				"baseColorFactor":[
					0.25979799032211304,
					0.25979799032211304,
					0.25979799032211304,
					1
				],
				"roughnessFactor":0.5
			}
		},
		{
			"doubleSided":true,
			"name":"Material.002",
			"pbrMetallicRoughness":{
				"baseColorFactor":[
					0.024512842297554016,
					0.024512842297554016,
					0.024512842297554016,
					1
				],
				"metallicFactor":0
			}
		},
		{
			"doubleSided":true,
			"name":"Material.003",
			"pbrMetallicRoughness":{
				"baseColorFactor":[
					0.07657934725284576,
					0.07657934725284576,
					0.07657934725284576,
					1
				],
				"roughnessFactor":0.5
			}
		}
	],
	"meshes":[
		{
			"name":"Cube.009",
			"primitives":[
				{
					"attributes":{
						"POSITION":0,
						"NORMAL":1,
						"TEXCOORD_0":2
					},
					"indices":3,
					"material":0
				},
				{
					"attributes":{
						"POSITION":4,
						"NORMAL":5,
						"TEXCOORD_0":6
					},
					"indices":7,
					"material":1
				},
				{
					"attributes":{
						"POSITION":8,
						"NORMAL":9,
						"TEXCOORD_0":10
					},
					"indices":11,
					"material":2
				}
			]
		}
	],
	"accessors":[
		{
			"bufferView":0,
			"componentType":5126,
			"count":386,
			"max":[
				0.03117692470550537,
				0.14171060919761658,
				0.4140426516532898
			],
			"min":[
				-0.03117692470550537,
				-0.1417105793952942,
				0.1306215524673462
			],
			"type":"VEC3"
		},
		{
			"bufferView":1,
			"componentType":5126,
			"count":386,
			"type":"VEC3"
		},
		{
			"bufferView":2,
			"componentType":5126,
			"count":386,
			"type":"VEC2"
		},
		{
			"bufferView":3,
			"componentType":5123,
			"count":756,
			"type":"SCALAR"
		},
		{
			"bufferView":4,
			"componentType":5126,
			"count":194,
			"max":[
				0.03117692470550537,
				0.14171060919761658,
				0.4140426516532898
			],
			"min":[
				-0.03117692470550537,
				-0.1417105793952942,
				0.1306215524673462
			],
			"type":"VEC3"
		},
		{
			"bufferView":5,
			"componentType":5126,
			"count":194,
			"type":"VEC3"
		},
		{
			"bufferView":6,
			"componentType":5126,
			"count":194,
			"type":"VEC2"
		},
		{
			"bufferView":7,
			"componentType":5123,
			"count":384,
			"type":"SCALAR"
		},
		{
			"bufferView":8,
			"componentType":5126,
			"count":40,
			"max":[
				0.06568875908851624,
				0.3463471531867981,
				0.32626956701278687
			],
			"min":[
				-0.0660882294178009,
				-0.047406136989593506,
				-0.11848336458206177
			],
			"type":"VEC3"
		},
		{
			"bufferView":9,
			"componentType":5126,
			"count":40,
			"type":"VEC3"
		},
		{
			"bufferView":10,
			"componentType":5126,
			"count":40,
			"type":"VEC2"
		},
		{
			"bufferView":11,
			"componentType":5123,
			"count":60,
			"type":"SCALAR"
		}
	],
	"bufferViews":[
		{
			"buffer":0,
			"byteLength":4632,
			"byteOffset":0,
			"target":34962
		},
		{
			"buffer":0,
			"byteLength":4632,
			"byteOffset":4632,
			"target":34962
		},
		{
			"buffer":0,
			"byteLength":3088,
			"byteOffset":9264,
			"target":34962
		},
		{
			"buffer":0,
			"byteLength":1512,
			"byteOffset":12352,
			"target":34963
		},
		{
			"buffer":0,
			"byteLength":2328,
			"byteOffset":13864,
			"target":34962
		},
		{
			"buffer":0,
			"byteLength":2328,
			"byteOffset":16192,
			"target":34962
		},
		{
			"buffer":0,
			"byteLength":1552,
			"byteOffset":18520,
			"target":34962
		},
		{
			"buffer":0,
			"byteLength":768,
			"byteOffset":20072,
			"target":34963
		},
		{
			"buffer":0,
			"byteLength":480,
			"byteOffset":20840,
			"target":34962
		},
		{
			"buffer":0,
			"byteLength":480,
			"byteOffset":21320,
			"target":34962
		},
		{
			"buffer":0,
			"byteLength":320,
			"byteOffset":21800,
			"target":34962
		},
		{
			"buffer":0,
			"byteLength":120,
			"byteOffset":22120,
			"target":34963
		}
	],
	"buffers":[
		{
			"byteLength":22240,
			"uri":"cart_wheel.bin"
		}
	]
}
