{
	"asset":{
		"generator":"Khronos glTF Blender I/O v3.6.27",
		"version":"2.0"
	},
	"scene":0,
	"scenes":[
		{
			"name":"Scene",
			"nodes":[
				0
			]
		}
	],
	"nodes":[
		{
			"mesh":0,
			"name":"Cylinder",
			"rotation":[
				0,
				0.7071068286895752,
				0,
				0.7071068286895752
			]
		}
	],
	"materials":[
		{
			"doubleSided":true,
			"name":"Material.006",
			"pbrMetallicRoughness":{
				"baseColorFactor":[
					0,
					0,
					0,
					1
				],
				"metallicFactor":0,
				"roughnessFactor":0.8622047305107117
			}
		},
		{
			"doubleSided":true,
			"name":"Material.004",
			"pbrMetallicRoughness":{
				"baseColorFactor":[
					0.08713973313570023,
					0.08713973313570023,
					0.08713973313570023,
					1
				],
				"roughnessFactor":0.5
			}
		},
		{
			"doubleSided":true,
			"name":"Material.005",
			"pbrMetallicRoughness":{
				"baseColorFactor":[
					0.39311397075653076,
					0.39311397075653076,
					0.39311397075653076,
					1
				],
				"roughnessFactor":0.5
			}
		}
	],
	"meshes":[
		{
			"name":"Cylinder",
			"primitives":[
				{
					"attributes":{
						"POSITION":0,
						"NORMAL":1,
						"TEXCOORD_0":2
					},
					"indices":3,
					"material":0
				},
				{
					"attributes":{
						"POSITION":4,
						"NORMAL":5,
						"TEXCOORD_0":6
					},
					"indices":7,
					"material":1
				},
				{
					"attributes":{
						"POSITION":8,
						"NORMAL":9,
						"TEXCOORD_0":10
					},
					"indices":11,
					"material":2
				}
			]
		}
	],
	"accessors":[
		{
			"bufferView":0,
			"componentType":5126,
			"count":74,
			"max":[
				-0.8087539076805115,
				0.5978387594223022,
				0.19881589710712433
			],
			"min":[
				-1.073253870010376,
				0.2534794211387634,
				-0.1988159567117691
			],
			"type":"VEC3"
		},
		{
			"bufferView":1,
			"componentType":5126,
			"count":74,
			"type":"VEC3"
		},
		{
			"bufferView":2,
			"componentType":5126,
			"count":74,
			"type":"VEC2"
		},
		{
			"bufferView":3,
			"componentType":5123,
			"count":132,
			"type":"SCALAR"
		},
		{
			"bufferView":4,
			"componentType":5126,
			"count":84,
			"max":[
				-0.337622731924057,
				0.9135652780532837,
				0.2499999701976776
			],
			"min":[
				-0.9823334217071533,
				0.24432942271232605,
				-0.2499999701976776
			],
			"type":"VEC3"
		},
		{
			"bufferView":5,
			"componentType":5126,
			"count":84,
			"type":"VEC3"
		},
		{
			"bufferView":6,
			"componentType":5126,
			"count":84,
			"type":"VEC2"
		},
		{
			"bufferView":7,
			"componentType":5123,
			"count":132,
			"type":"SCALAR"
		},
		{
			"bufferView":8,
			"componentType":5126,
			"count":432,
			"max":[
				-0.5783061385154724,
				0.9591682553291321,
				0.13018068671226501
			],
			"min":[
				-0.917525053024292,
				0.879425048828125,
				-0.12895400822162628
			],
			"type":"VEC3"
		},
		{
			"bufferView":9,
			"componentType":5126,
			"count":432,
			"type":"VEC3"
		},
		{
			"bufferView":10,
			"componentType":5126,
			"count":432,
			"type":"VEC2"
		},
		{
			"bufferView":11,
			"componentType":5123,
			"count":720,
			"type":"SCALAR"
		}
	],
	"bufferViews":[
		{
			"buffer":0,
			"byteLength":888,
			"byteOffset":0,
			"target":34962
		},
		{
			"buffer":0,
			"byteLength":888,
			"byteOffset":888,
			"target":34962
		},
		{
			"buffer":0,
			"byteLength":592,
			"byteOffset":1776,
			"target":34962
		},
		{
			"buffer":0,
			"byteLength":264,
			"byteOffset":2368,
			"target":34963
		},
		{
			"buffer":0,
			"byteLength":1008,
			"byteOffset":2632,
			"target":34962
		},
		{
			"buffer":0,
			"byteLength":1008,
			"byteOffset":3640,
			"target":34962
		},
		{
			"buffer":0,
			"byteLength":672,
			"byteOffset":4648,
			"target":34962
		},
		{
			"buffer":0,
			"byteLength":264,
			"byteOffset":5320,
			"target":34963
		},
		{
			"buffer":0,
			"byteLength":5184,
			"byteOffset":5584,
			"target":34962
		},
		{
			"buffer":0,
			"byteLength":5184,
			"byteOffset":10768,
			"target":34962
		},
		{
			"buffer":0,
			"byteLength":3456,
			"byteOffset":15952,
			"target":34962
		},
		{
			"buffer":0,
			"byteLength":1440,
			"byteOffset":19408,
			"target":34963
		}
	],
	"buffers":[
		{
			"byteLength":20848,
			"uri":"cart_engine.bin"
		}
	]
}
