{
	"asset":{
		"generator":"Khronos glTF Blender I/O v3.6.27",
		"version":"2.0"
	},
	"scene":0,
	"scenes":[
		{
			"name":"Scene",
			"nodes":[
				0,
				1,
				2,
				3
			]
		}
	],
	"nodes":[
		{
			"mesh":0,
			"name":"Cube"
		},
		{
			"mesh":1,
			"name":"Cube.001",
			"translation":[
				-0.005520614795386791,
				0,
				0.022082464769482613
			]
		},
		{
			"mesh":2,
			"name":"Cube.002",
			"rotation":[
				0,
				-1,
				0,
				1.6292068494294654e-07
			],
			"translation":[
				-0.09270918369293213,
				0,
				-0.020855659618973732
			]
		},
		{
			"mesh":3,
			"name":"Cylinder",
			"translation":[
				0,
				-0.03517672047019005,
				0
			]
		}
	],
	"materials":[
		{
			"doubleSided":true,
			"name":"Material",
			"pbrMetallicRoughness":{
				"baseColorFactor":[
					0.08713973313570023,
					0.08713973313570023,
					0.08713973313570023,
					1
				],
				"roughnessFactor":0.5
			}
		},
		{
			"doubleSided":true,
			"name":"Material.001",
			"pbrMetallicRoughness":{
				"baseColorFactor":[
					0.39311397075653076,
					0.39311397075653076,
					0.39311397075653076,
					1
				],
				"roughnessFactor":0.5
			}
		},
		{
			"doubleSided":true,
			"name":"Material.002",
			"pbrMetallicRoughness":{
				"baseColorFactor":[
					0,
					0,
					0,
					1
				],
				"metallicFactor":0,
				"roughnessFactor":0.8622047305107117
			}
		}
	],
	"meshes":[
		{
			"name":"Cube",
			"primitives":[
				{
					"attributes":{
						"POSITION":0,
						"NORMAL":1,
						"TEXCOORD_0":2
					},
					"indices":3,
					"material":0
				}
			]
		},
		{
			"name":"Cube.001",
			"primitives":[
				{
					"attributes":{
						"POSITION":4,
						"NORMAL":5,
						"TEXCOORD_0":6
					},
					"indices":7,
					"material":1
				}
			]
		},
		{
			"name":"Cube.002",
			"primitives":[
				{
					"attributes":{
						"POSITION":8,
						"NORMAL":9,
						"TEXCOORD_0":10
					},
					"indices":7,
					"material":1
				}
			]
		},
		{
			"name":"Cylinder",
			"primitives":[
				{
					"attributes":{
						"POSITION":11,
						"NORMAL":12,
						"TEXCOORD_0":13
					},
					"indices":14,
					"material":2
				}
			]
		}
	],
	"accessors":[
		{
			"bufferView":0,
			"componentType":5126,
			"count":84,
			"max":[
				0.3611779510974884,
				0.4527294933795929,
				0.25
			],
			"min":[
				-0.2835327684879303,
				-0.21650636196136475,
				-0.24999994039535522
			],
			"type":"VEC3"
		},
		{
			"bufferView":1,
			"componentType":5126,
			"count":84,
			"type":"VEC3"
		},
		{
			"bufferView":2,
			"componentType":5126,
			"count":84,
			"type":"VEC2"
		},
		{
			"bufferView":3,
			"componentType":5123,
			"count":132,
			"type":"SCALAR"
		},
		{
			"bufferView":4,
			"componentType":5126,
			"count":36,
			"max":[
				-0.1621493250131607,
				0.4983324706554413,
				0.10809825360774994
			],
			"min":[
				-0.21270449459552765,
				0.4185892641544342,
				0.02835501730442047
			],
			"type":"VEC3"
		},
		{
			"bufferView":5,
			"componentType":5126,
			"count":36,
			"type":"VEC3"
		},
		{
			"bufferView":6,
			"componentType":5126,
			"count":36,
			"type":"VEC2"
		},
		{
			"bufferView":7,
			"componentType":5123,
			"count":60,
			"type":"SCALAR"
		},
		{
			"bufferView":8,
			"componentType":5126,
			"count":36,
			"max":[
				-0.1621493250131607,
				0.4983324706554413,
				0.10809825360774994
			],
			"min":[
				-0.21270449459552765,
				0.4185892641544342,
				0.02835501730442047
			],
			"type":"VEC3"
		},
		{
			"bufferView":9,
			"componentType":5126,
			"count":36,
			"type":"VEC3"
		},
		{
			"bufferView":10,
			"componentType":5126,
			"count":36,
			"type":"VEC2"
		},
		{
			"bufferView":11,
			"componentType":5126,
			"count":74,
			"max":[
				-0.10995322465896606,
				0.1721796691417694,
				0.19881592690944672
			],
			"min":[
				-0.37445318698883057,
				-0.17217965424060822,
				-0.19881592690944672
			],
			"type":"VEC3"
		},
		{
			"bufferView":12,
			"componentType":5126,
			"count":74,
			"type":"VEC3"
		},
		{
			"bufferView":13,
			"componentType":5126,
			"count":74,
			"type":"VEC2"
		},
		{
			"bufferView":14,
			"componentType":5123,
			"count":132,
			"type":"SCALAR"
		}
	],
	"bufferViews":[
		{
			"buffer":0,
			"byteLength":1008,
			"byteOffset":0,
			"target":34962
		},
		{
			"buffer":0,
			"byteLength":1008,
			"byteOffset":1008,
			"target":34962
		},
		{
			"buffer":0,
			"byteLength":672,
			"byteOffset":2016,
			"target":34962
		},
		{
			"buffer":0,
			"byteLength":264,
			"byteOffset":2688,
			"target":34963
		},
		{
			"buffer":0,
			"byteLength":432,
			"byteOffset":2952,
			"target":34962
		},
		{
			"buffer":0,
			"byteLength":432,
			"byteOffset":3384,
			"target":34962
		},
		{
			"buffer":0,
			"byteLength":288,
			"byteOffset":3816,
			"target":34962
		},
		{
			"buffer":0,
			"byteLength":120,
			"byteOffset":4104,
			"target":34963
		},
		{
			"buffer":0,
			"byteLength":432,
			"byteOffset":4224,
			"target":34962
		},
		{
			"buffer":0,
			"byteLength":432,
			"byteOffset":4656,
			"target":34962
		},
		{
			"buffer":0,
			"byteLength":288,
			"byteOffset":5088,
			"target":34962
		},
		{
			"buffer":0,
			"byteLength":888,
			"byteOffset":5376,
			"target":34962
		},
		{
			"buffer":0,
			"byteLength":888,
			"byteOffset":6264,
			"target":34962
		},
		{
			"buffer":0,
			"byteLength":592,
			"byteOffset":7152,
			"target":34962
		},
		{
			"buffer":0,
			"byteLength":264,
			"byteOffset":7744,
			"target":34963
		}
	],
	"buffers":[
		{
			"byteLength":8008,
			"uri":"engine_item.bin"
		}
	]
}
