{
	"asset":{
		"generator":"Khronos glTF Blender I/O v3.6.27",
		"version":"2.0"
	},
	"scene":0,
	"scenes":[
		{
			"name":"Scene",
			"nodes":[
				0
			]
		}
	],
	"nodes":[
		{
			"mesh":0,
			"name":"WIKKED",
			"rotation":[
				-0.10487435758113861,
				0,
				0,
				0.9944854974746704
			]
		}
	],
	"materials":[
		{
			"doubleSided":true,
			"name":"Material.006",
			"pbrMetallicRoughness":{
				"baseColorFactor":[
					0.027207592502236366,
					0.027207592502236366,
					0.027207592502236366,
					1
				],
				"metallicFactor":0
			}
		},
		{
			"doubleSided":true,
			"name":"Material.007",
			"pbrMetallicRoughness":{
				"baseColorFactor":[
					0.7483898997306824,
					0.061392642557621,
					0.03547779470682144,
					1
				],
				"metallicFactor":0.516853928565979,
				"roughnessFactor":0
			}
		},
		{
			"doubleSided":true,
			"name":"Material.008",
			"pbrMetallicRoughness":{
				"baseColorFactor":[
					0.8000000715255737,
					0.21387682855129242,
					0.05126991122961044,
					1
				],
				"metallicFactor":0.48876404762268066,
				"roughnessFactor":0
			}
		},
		{
			"doubleSided":true,
			"name":"Material.009",
			"pbrMetallicRoughness":{
				"baseColorFactor":[
					1,
					0.7809546589851379,
					0.07237847149372101,
					1
				],
				"metallicFactor":0.48876404762268066,
				"roughnessFactor":0
			}
		},
		{
			"doubleSided":true,
			"name":"Material.010",
			"pbrMetallicRoughness":{
				"baseColorFactor":[
					0.23353013396263123,
					0.5277079343795776,
					0.04327660799026489,
					1
				],
				"metallicFactor":0.483146071434021,
				"roughnessFactor":0
			}
		},
		{
			"doubleSided":true,
			"name":"Material.011",
			"pbrMetallicRoughness":{
				"baseColorFactor":[
					0.09494823962450027,
					0.47390127182006836,
					0.8000000715255737,
					1
				],
				"metallicFactor":0.516853928565979,
				"roughnessFactor":0
			}
		}
	],
	"meshes":[
		{
			"name":"Plane",
			"primitives":[
				{
					"attributes":{
						"POSITION":0,
						"NORMAL":1,
						"TEXCOORD_0":2
					},
					"indices":3,
					"material":0
				},
				{
					"attributes":{
						"POSITION":4,
						"NORMAL":5,
						"TEXCOORD_0":6
					},
					"indices":7,
					"material":1
				},
				{
					"attributes":{
						"POSITION":8,
						"NORMAL":9,
						"TEXCOORD_0":10
					},
					"indices":11,
					"material":2
				},
				{
					"attributes":{
						"POSITION":12,
						"NORMAL":13,
						"TEXCOORD_0":14
					},
					"indices":15,
					"material":3
				},
				{
					"attributes":{
						"POSITION":16,
						"NORMAL":17,
						"TEXCOORD_0":18
					},
					"indices":11,
					"material":4
				},
				{
					"attributes":{
						"POSITION":19,
						"NORMAL":20,
						"TEXCOORD_0":21
					},
					"indices":11,
					"material":5
				}
			]
		}
	],
	"accessors":[
		{
			"bufferView":0,
			"componentType":5126,
			"count":80,
			"max":[
				0.10259008407592773,
				0.01675422489643097,
				0.08174808323383331
			],
			"min":[
				-0.10259008407592773,
				-0.012728435918688774,
				-0.10643419623374939
			],
			"type":"VEC3"
		},
		{
			"bufferView":1,
			"componentType":5126,
			"count":80,
			"type":"VEC3"
		},
		{
			"bufferView":2,
			"componentType":5126,
			"count":80,
			"type":"VEC2"
		},
		{
			"bufferView":3,
			"componentType":5123,
			"count":384,
			"type":"SCALAR"
		},
		{
			"bufferView":4,
			"componentType":5126,
			"count":20,
			"max":[
				0.04574940353631973,
				0.01020545233041048,
				-0.08567874133586884
			],
			"min":[
				-0.04574940353631973,
				-0.036365676671266556,
				-0.10643420368432999
			],
			"type":"VEC3"
		},
		{
			"bufferView":5,
			"componentType":5126,
			"count":20,
			"type":"VEC3"
		},
		{
			"bufferView":6,
			"componentType":5126,
			"count":20,
			"type":"VEC2"
		},
		{
			"bufferView":7,
			"componentType":5123,
			"count":72,
			"type":"SCALAR"
		},
		{
			"bufferView":8,
			"componentType":5126,
			"count":16,
			"max":[
				0.06608740985393524,
				0.005763016641139984,
				-0.07503526657819748
			],
			"min":[
				-0.06608740985393524,
				-0.03481484577059746,
				-0.09105653315782547
			],
			"type":"VEC3"
		},
		{
			"bufferView":9,
			"componentType":5126,
			"count":16,
			"type":"VEC3"
		},
		{
			"bufferView":10,
			"componentType":5126,
			"count":16,
			"type":"VEC2"
		},
		{
			"bufferView":11,
			"componentType":5123,
			"count":36,
			"type":"SCALAR"
		},
		{
			"bufferView":12,
			"componentType":5126,
			"count":16,
			"max":[
				0.09182736277580261,
				0.005554571747779846,
				-0.06032700464129448
			],
			"min":[
				-0.09182736277580261,
				-0.03286787495017052,
				-0.08190904557704926
			],
			"type":"VEC3"
		},
		{
			"bufferView":13,
			"componentType":5126,
			"count":16,
			"type":"VEC3"
		},
		{
			"bufferView":14,
			"componentType":5126,
			"count":16,
			"type":"VEC2"
		},
		{
			"bufferView":15,
			"componentType":5123,
			"count":36,
			"type":"SCALAR"
		},
		{
			"bufferView":16,
			"componentType":5126,
			"count":16,
			"max":[
				0.09774480760097504,
				0.005604683421552181,
				-0.056907445192337036
			],
			"min":[
				-0.09774480760097504,
				-0.030344679951667786,
				-0.07186663150787354
			],
			"type":"VEC3"
		},
		{
			"bufferView":17,
			"componentType":5126,
			"count":16,
			"type":"VEC3"
		},
		{
			"bufferView":18,
			"componentType":5126,
			"count":16,
			"type":"VEC2"
		},
		{
			"bufferView":19,
			"componentType":5126,
			"count":16,
			"max":[
				0.10232043266296387,
				0.006050252355635166,
				-0.05141337588429451
			],
			"min":[
				-0.10232043266296387,
				-0.028234470635652542,
				-0.06433194130659103
			],
			"type":"VEC3"
		},
		{
			"bufferView":20,
			"componentType":5126,
			"count":16,
			"type":"VEC3"
		},
		{
			"bufferView":21,
			"componentType":5126,
			"count":16,
			"type":"VEC2"
		}
	],
	"bufferViews":[
		{
			"buffer":0,
			"byteLength":960,
			"byteOffset":0,
			"target":34962
		},
		{
			"buffer":0,
			"byteLength":960,
			"byteOffset":960,
			"target":34962
		},
		{
			"buffer":0,
			"byteLength":640,
			"byteOffset":1920,
			"target":34962
		},
		{
			"buffer":0,
			"byteLength":768,
			"byteOffset":2560,
			"target":34963
		},
		{
			"buffer":0,
			"byteLength":240,
			"byteOffset":3328,
			"target":34962
		},
		{
			"buffer":0,
			"byteLength":240,
			"byteOffset":3568,
			"target":34962
		},
		{
			"buffer":0,
			"byteLength":160,
			"byteOffset":3808,
			"target":34962
		},
		{
			"buffer":0,
			"byteLength":144,
			"byteOffset":3968,
			"target":34963
		},
		{
			"buffer":0,
			"byteLength":192,
			"byteOffset":4112,
			"target":34962
		},
		{
			"buffer":0,
			"byteLength":192,
			"byteOffset":4304,
			"target":34962
		},
		{
			"buffer":0,
			"byteLength":128,
			"byteOffset":4496,
			"target":34962
		},
		{
			"buffer":0,
			"byteLength":72,
			"byteOffset":4624,
			"target":34963
		},
		{
			"buffer":0,
			"byteLength":192,
			"byteOffset":4696,
			"target":34962
		},
		{
			"buffer":0,
			"byteLength":192,
			"byteOffset":4888,
			"target":34962
		},
		{
			"buffer":0,
			"byteLength":128,
			"byteOffset":5080,
			"target":34962
		},
		{
			"buffer":0,
			"byteLength":72,
			"byteOffset":5208,
			"target":34963
		},
		{
			"buffer":0,
			"byteLength":192,
			"byteOffset":5280,
			"target":34962
		},
		{
			"buffer":0,
			"byteLength":192,
			"byteOffset":5472,
			"target":34962
		},
		{
			"buffer":0,
			"byteLength":128,
			"byteOffset":5664,
			"target":34962
		},
		{
			"buffer":0,
			"byteLength":192,
			"byteOffset":5792,
			"target":34962
		},
		{
			"buffer":0,
			"byteLength":192,
			"byteOffset":5984,
			"target":34962
		},
		{
			"buffer":0,
			"byteLength":128,
			"byteOffset":6176,
			"target":34962
		}
	],
	"buffers":[
		{
			"byteLength":6304,
			"uri":"glasses_item.bin"
		}
	]
}
