{
	"asset":{
		"generator":"Khronos glTF Blender I/O v3.6.27",
		"version":"2.0"
	},
	"scene":0,
	"scenes":[
		{
			"name":"Scene",
			"nodes":[
				0,
				1
			]
		}
	],
	"nodes":[
		{
			"mesh":0,
			"name":"Cube"
		},
		{
			"mesh":1,
			"name":"Cube.001"
		}
	],
	"materials":[
		{
			"doubleSided":true,
			"name":"Material",
			"pbrMetallicRoughness":{
				"baseColorFactor":[
					0.27142807841300964,
					0.04177553206682205,
					0.028122399002313614,
					1
				],
				"metallicFactor":0.18110238015651703,
				"roughnessFactor":0.6850394010543823
			}
		},
		{
			"doubleSided":true,
			"name":"Material.003",
			"pbrMetallicRoughness":{
				"baseColorFactor":[
					0.023650342598557472,
					0.023650342598557472,
					0.023650342598557472,
					1
				],
				"metallicFactor":0,
				"roughnessFactor":0.09055116772651672
			}
		},
		{
			"doubleSided":true,
			"name":"Material.001",
			"pbrMetallicRoughness":{
				"baseColorFactor":[
					0.007193427998572588,
					0.007193427998572588,
					0.007193427998572588,
					1
				],
				"metallicFactor":0
			}
		},
		{
			"doubleSided":true,
			"name":"Material.002",
			"pbrMetallicRoughness":{
				"baseColorFactor":[
					0.486896812915802,
					0.486896812915802,
					0.486896812915802,
					1
				],
				"roughnessFactor":0.25590550899505615
			}
		}
	],
	"meshes":[
		{
			"name":"Cube",
			"primitives":[
				{
					"attributes":{
						"POSITION":0,
						"NORMAL":1,
						"TEXCOORD_0":2
					},
					"indices":3,
					"material":0
				},
				{
					"attributes":{
						"POSITION":4,
						"NORMAL":5,
						"TEXCOORD_0":6
					},
					"indices":7,
					"material":1
				}
			]
		},
		{
			"name":"Cube.001",
			"primitives":[
				{
					"attributes":{
						"POSITION":8,
						"NORMAL":9,
						"TEXCOORD_0":10
					},
					"indices":11,
					"material":2
				},
				{
					"attributes":{
						"POSITION":12,
						"NORMAL":13,
						"TEXCOORD_0":14
					},
					"indices":15,
					"material":3
				}
			]
		}
	],
	"accessors":[
		{
			"bufferView":0,
			"componentType":5126,
			"count":347,
			"max":[
				0.8126119375228882,
				1.0820419788360596,
				2.0891966819763184
			],
			"min":[
				-0.8126119375228882,
				0.24008691310882568,
				-2.053806781768799
			],
			"type":"VEC3"
		},
		{
			"bufferView":1,
			"componentType":5126,
			"count":347,
			"type":"VEC3"
		},
		{
			"bufferView":2,
			"componentType":5126,
			"count":347,
			"type":"VEC2"
		},
		{
			"bufferView":3,
			"componentType":5123,
			"count":1320,
			"type":"SCALAR"
		},
		{
			"bufferView":4,
			"componentType":5126,
			"count":28,
			"max":[
				0.6479124426841736,
				1.02889084815979,
				1.4113975763320923
			],
			"min":[
				-0.6479124426841736,
				0.6139125823974609,
				-0.5689454078674316
			],
			"type":"VEC3"
		},
		{
			"bufferView":5,
			"componentType":5126,
			"count":28,
			"type":"VEC3"
		},
		{
			"bufferView":6,
			"componentType":5126,
			"count":28,
			"type":"VEC2"
		},
		{
			"bufferView":7,
			"componentType":5123,
			"count":36,
			"type":"SCALAR"
		},
		{
			"bufferView":8,
			"componentType":5126,
			"count":1452,
			"max":[
				0.9132291078567505,
				0.6000000238418579,
				1.6999999284744263
			],
			"min":[
				-0.9132291078567505,
				0,
				-1.5000001192092896
			],
			"type":"VEC3"
		},
		{
			"bufferView":9,
			"componentType":5126,
			"count":1452,
			"type":"VEC3"
		},
		{
			"bufferView":10,
			"componentType":5126,
			"count":1452,
			"type":"VEC2"
		},
		{
			"bufferView":11,
			"componentType":5123,
			"count":2778,
			"type":"SCALAR"
		},
		{
			"bufferView":12,
			"componentType":5126,
			"count":128,
			"max":[
				0.8595238924026489,
				0.4918781518936157,
				1.591878056526184
			],
			"min":[
				-0.8595238924026489,
				0.1081218421459198,
				-1.391878366470337
			],
			"type":"VEC3"
		},
		{
			"bufferView":13,
			"componentType":5126,
			"count":128,
			"type":"VEC3"
		},
		{
			"bufferView":14,
			"componentType":5126,
			"count":128,
			"type":"VEC2"
		},
		{
			"bufferView":15,
			"componentType":5123,
			"count":360,
			"type":"SCALAR"
		}
	],
	"bufferViews":[
		{
			"buffer":0,
			"byteLength":4164,
			"byteOffset":0,
			"target":34962
		},
		{
			"buffer":0,
			"byteLength":4164,
			"byteOffset":4164,
			"target":34962
		},
		{
			"buffer":0,
			"byteLength":2776,
			"byteOffset":8328,
			"target":34962
		},
		{
			"buffer":0,
			"byteLength":2640,
			"byteOffset":11104,
			"target":34963
		},
		{
			"buffer":0,
			"byteLength":336,
			"byteOffset":13744,
			"target":34962
		},
		{
			"buffer":0,
			"byteLength":336,
			"byteOffset":14080,
			"target":34962
		},
		{
			"buffer":0,
			"byteLength":224,
			"byteOffset":14416,
			"target":34962
		},
		{
			"buffer":0,
			"byteLength":72,
			"byteOffset":14640,
			"target":34963
		},
		{
			"buffer":0,
			"byteLength":17424,
			"byteOffset":14712,
			"target":34962
		},
		{
			"buffer":0,
			"byteLength":17424,
			"byteOffset":32136,
			"target":34962
		},
		{
			"buffer":0,
			"byteLength":11616,
			"byteOffset":49560,
			"target":34962
		},
		{
			"buffer":0,
			"byteLength":5556,
			"byteOffset":61176,
			"target":34963
		},
		{
			"buffer":0,
			"byteLength":1536,
			"byteOffset":66732,
			"target":34962
		},
		{
			"buffer":0,
			"byteLength":1536,
			"byteOffset":68268,
			"target":34962
		},
		{
			"buffer":0,
			"byteLength":1024,
			"byteOffset":69804,
			"target":34962
		},
		{
			"buffer":0,
			"byteLength":720,
			"byteOffset":70828,
			"target":34963
		}
	],
	"buffers":[
		{
			"byteLength":71548,
			"uri":"racecar.bin"
		}
	]
}
