{
	"asset":{
		"generator":"Khronos glTF Blender I/O v3.6.27",
		"version":"2.0"
	},
	"scene":0,
	"scenes":[
		{
			"name":"Scene",
			"nodes":[
				0,
				1
			]
		}
	],
	"nodes":[
		{
			"mesh":0,
			"name":"BezierCurve",
			"scale":[
				40,
				40,
				40
			],
			"translation":[
				-3.814697265625e-06,
				0,
				0
			]
		},
		{
			"mesh":1,
			"name":"BezierCurve.002",
			"scale":[
				40,
				40,
				40
			],
			"translation":[
				-3.814697265625e-06,
				0,
				0
			]
		}
	],
	"materials":[
		{
			"doubleSided":true,
			"name":"Material",
			"pbrMetallicRoughness":{
				"baseColorTexture":{
					"index":0
				},
				"metallicFactor":0,
				"metallicRoughnessTexture":{
					"index":1
				}
			}
		},
		{
			"doubleSided":true,
			"name":"Material.001",
			"normalTexture":{
				"index":2
			},
			"pbrMetallicRoughness":{
				"baseColorTexture":{
					"index":3
				},
				"metallicFactor":0,
				"metallicRoughnessTexture":{
					"index":4
				}
			}
		}
	],
	"meshes":[
		{
			"name":"BezierCurve",
			"primitives":[
				{
					"attributes":{
						"POSITION":0,
						"NORMAL":1,
						"TEXCOORD_0":2
					},
					"indices":3,
					"material":0
				}
			]
		},
		{
			"name":"BezierCurve.001",
			"primitives":[
				{
					"attributes":{
						"POSITION":4,
						"NORMAL":5,
						"TEXCOORD_0":6
					},
					"indices":7,
					"material":1
				}
			]
		}
	],
	"textures":[
		{
			"sampler":0,
			"source":0
		},
		{
			"sampler":0,
			"source":1
		},
		{
			"sampler":0,
			"source":2
		},
		{
			"sampler":0,
			"source":3
		},
		{
			"sampler":0,
			"source":4
		}
	],
	"images":[
		{
			"mimeType":"image/png",
			"name":"grass_diffuse.png",
			"uri":"grass_diffuse.png"
		},
		{
			"mimeType":"image/png",
			"name":"grass_roughness.png",
			"uri":"grass_roughness.png"
		},
		{
			"mimeType":"image/png",
			"name":"asphalt_normal.png",
			"uri":"asphalt_normal.png"
		},
		{
			"mimeType":"image/png",
			"name":"asphalt_diffuse.png",
			"uri":"asphalt_diffuse.png"
		},
		{
			"mimeType":"image/png",
			"name":"asphalt_roughness.png",
			"uri":"asphalt_roughness.png"
		}
	],
	"accessors":[
		{
			"bufferView":0,
			"componentType":5126,
			"count":3118,
			"max":[
				3.70485520362854,
				0.438907653093338,
				4.585208892822266
			],
			"min":[
				-14.96458911895752,
				0.025306811556220055,
				-6.514544486999512
			],
			"type":"VEC3"
		},
		{
			"bufferView":1,
			"componentType":5126,
			"count":3118,
			"type":"VEC3"
		},
		{
			"bufferView":2,
			"componentType":5126,
			"count":3118,
			"type":"VEC2"
		},
		{
			"bufferView":3,
			"componentType":5123,
			"count":5034,
			"type":"SCALAR"
		},
		{
			"bufferView":4,
			"componentType":5126,
			"count":1744,
			"max":[
				2.6691362857818604,
				0.14389635622501373,
				3.549337148666382
			],
			"min":[
				-13.931661605834961,
				0.025306811556220055,
				-5.478455543518066
			],
			"type":"VEC3"
		},
		{
			"bufferView":5,
			"componentType":5126,
			"count":1744,
			"type":"VEC3"
		},
		{
			"bufferView":6,
			"componentType":5126,
			"count":1744,
			"type":"VEC2"
		},
		{
			"bufferView":7,
			"componentType":5123,
			"count":7200,
			"type":"SCALAR"
		}
	],
	"bufferViews":[
		{
			"buffer":0,
			"byteLength":37416,
			"byteOffset":0,
			"target":34962
		},
		{
			"buffer":0,
			"byteLength":37416,
			"byteOffset":37416,
			"target":34962
		},
		{
			"buffer":0,
			"byteLength":24944,
			"byteOffset":74832,
			"target":34962
		},
		{
			"buffer":0,
			"byteLength":10068,
			"byteOffset":99776,
			"target":34963
		},
		{
			"buffer":0,
			"byteLength":20928,
			"byteOffset":109844,
			"target":34962
		},
		{
			"buffer":0,
			"byteLength":20928,
			"byteOffset":130772,
			"target":34962
		},
		{
			"buffer":0,
			"byteLength":13952,
			"byteOffset":151700,
			"target":34962
		},
		{
			"buffer":0,
			"byteLength":14400,
			"byteOffset":165652,
			"target":34963
		}
	],
	"samplers":[
		{
			"magFilter":9729,
			"minFilter":9987
		}
	],
	"buffers":[
		{
			"byteLength":180052,
			"uri":"racetrack.bin"
		}
	]
}
