{
	"asset":{
		"generator":"Khronos glTF Blender I/O v3.5.30",
		"version":"2.0"
	},
	"scene":0,
	"scenes":[
		{
			"name":"Scene",
			"nodes":[
				0
			]
		}
	],
	"nodes":[
		{
			"mesh":0,
			"name":"Cylinder.003"
		}
	],
	"materials":[
		{
			"doubleSided":true,
			"name":"Material",
			"normalTexture":{
				"index":0
			},
			"pbrMetallicRoughness":{
				"baseColorTexture":{
					"index":1
				},
				"metallicRoughnessTexture":{
					"index":2
				}
			}
		}
	],
	"meshes":[
		{
			"name":"Cylinder.004",
			"primitives":[
				{
					"attributes":{
						"POSITION":0,
						"TEXCOORD_0":1,
						"NORMAL":2
					},
					"indices":3,
					"material":0
				}
			]
		}
	],
	"textures":[
		{
			"sampler":0,
			"source":0
		},
		{
			"sampler":0,
			"source":1
		},
		{
			"sampler":0,
			"source":2
		}
	],
	"images":[
		{
			"mimeType":"image/png",
			"name":"DefaultMaterial_normal.png",
			"uri":"textures/DefaultMaterial_normal.png"
		},
		{
			"mimeType":"image/png",
			"name":"DefaultMaterial_baseColor.png",
			"uri":"textures/DefaultMaterial_baseColor.png"
		},
		{
			"mimeType":"image/png",
			"name":"DefaultMaterial_occlusionRoughnessMetallic.png",
			"uri":"textures/DefaultMaterial_occlusionRoughnessMetallic.png"
		}
	],
	"accessors":[
		{
			"bufferView":0,
			"componentType":5126,
			"count":3034,
			"max":[
				0.16756102442741394,
				1.184433937072754,
				0.05314375460147858
			],
			"min":[
				-0.16756102442741394,
				-0.377106636762619,
				-0.05314375460147858
			],
			"type":"VEC3"
		},
		{
			"bufferView":1,
			"componentType":5126,
			"count":3034,
			"type":"VEC2"
		},
		{
			"bufferView":2,
			"componentType":5126,
			"count":3034,
			"type":"VEC3"
		},
		{
			"bufferView":3,
			"componentType":5123,
			"count":15723,
			"type":"SCALAR"
		}
	],
	"bufferViews":[
		{
			"buffer":0,
			"byteLength":36408,
			"byteOffset":0,
			"target":34962
		},
		{
			"buffer":0,
			"byteLength":24272,
			"byteOffset":36408,
			"target":34962
		},
		{
			"buffer":0,
			"byteLength":36408,
			"byteOffset":60680,
			"target":34962
		},
		{
			"buffer":0,
			"byteLength":31446,
			"byteOffset":97088,
			"target":34963
		}
	],
	"samplers":[
		{
			"magFilter":9729,
			"minFilter":9987
		}
	],
	"buffers":[
		{
			"byteLength":128536,
			"uri":"zweihander.bin"
		}
	]
}
