{
	"asset":{
		"generator":"Khronos glTF Blender I/O v3.6.27",
		"version":"2.0"
	},
	"scene":0,
	"scenes":[
		{
			"name":"Scene",
			"nodes":[
				0,
				1,
				2,
				3,
				4,
				5,
				6,
				7,
				8,
				9,
				10,
				11
			]
		}
	],
	"nodes":[
		{
			"name":"Object: crate 0",
			"rotation":[
				0,
				-0.02239893563091755,
				0,
				0.9997491240501404
			],
			"translation":[
				1.5,
				0.5,
				-0.5
			]
		},
		{
			"name":"Object: crate 1",
			"rotation":[
				0,
				0.04440672695636749,
				0,
				0.9990135431289673
			],
			"translation":[
				2.5,
				0.5,
				-0.5
			]
		},
		{
			"name":"Object: crate 2",
			"rotation":[
				0,
				0.019196126610040665,
				0,
				0.9998157620429993
			],
			"translation":[
				2.364877223968506,
				1.5,
				-0.555814266204834
			]
		},
		{
			"name":"Object: torch 0",
			"translation":[
				-0.5,
				2,
				-7.5
			]
		},
		{
			"name":"Object: torch 0.001",
			"translation":[
				7.5,
				2,
				-7.5
			]
		},
		{
			"name":"Object: torch 0.002",
			"rotation":[
				0,
				-0.7071068286895752,
				0,
				0.7071068286895752
			],
			"translation":[
				16,
				2,
				-8.5
			]
		},
		{
			"name":"Object: torch 0.003",
			"rotation":[
				0,
				-0.7071068286895752,
				0,
				0.7071068286895752
			],
			"translation":[
				16,
				2,
				-3.5
			]
		},
		{
			"name":"Object: torch 0.004",
			"rotation":[
				0,
				0.7071068286895752,
				0,
				0.7071068286895752
			],
			"translation":[
				-12,
				2,
				-8.5
			]
		},
		{
			"name":"Object: torch 0.005",
			"rotation":[
				0,
				0.7071068286895752,
				0,
				0.7071068286895752
			],
			"translation":[
				-12,
				2,
				-3.5
			]
		},
		{
			"name":"Object: torch 0.006",
			"rotation":[
				0,
				-0.70710688829422,
				0,
				0.7071066498756409
			],
			"translation":[
				-20,
				2,
				-15
			]
		},
		{
			"name":"Object: prison_gate:activatable0 0",
			"rotation":[
				0,
				0.7071068286895752,
				0,
				0.7071068286895752
			],
			"translation":[
				-8.5,
				0,
				-6
			]
		},
		{
			"name":"Object: lever:activatable0 0",
			"translation":[
				-7.5,
				1.5,
				-7.5
			]
		}
	],
	"animations":[
		{
			"channels":[
				{
					"sampler":0,
					"target":{
						"node":4,
						"path":"translation"
					}
				},
				{
					"sampler":1,
					"target":{
						"node":4,
						"path":"rotation"
					}
				},
				{
					"sampler":2,
					"target":{
						"node":4,
						"path":"scale"
					}
				}
			],
			"name":"Object: torch 0.001Action.001",
			"samplers":[
				{
					"input":0,
					"interpolation":"LINEAR",
					"output":1
				},
				{
					"input":0,
					"interpolation":"LINEAR",
					"output":2
				},
				{
					"input":0,
					"interpolation":"LINEAR",
					"output":3
				}
			]
		},
		{
			"channels":[
				{
					"sampler":0,
					"target":{
						"node":5,
						"path":"translation"
					}
				},
				{
					"sampler":1,
					"target":{
						"node":5,
						"path":"rotation"
					}
				},
				{
					"sampler":2,
					"target":{
						"node":5,
						"path":"scale"
					}
				}
			],
			"name":"Object: torch 0.001Action.002",
			"samplers":[
				{
					"input":0,
					"interpolation":"LINEAR",
					"output":4
				},
				{
					"input":0,
					"interpolation":"LINEAR",
					"output":5
				},
				{
					"input":0,
					"interpolation":"LINEAR",
					"output":6
				}
			]
		},
		{
			"channels":[
				{
					"sampler":0,
					"target":{
						"node":6,
						"path":"translation"
					}
				},
				{
					"sampler":1,
					"target":{
						"node":6,
						"path":"rotation"
					}
				},
				{
					"sampler":2,
					"target":{
						"node":6,
						"path":"scale"
					}
				}
			],
			"name":"Object: torch 0.001Action.003",
			"samplers":[
				{
					"input":0,
					"interpolation":"LINEAR",
					"output":7
				},
				{
					"input":0,
					"interpolation":"LINEAR",
					"output":8
				},
				{
					"input":0,
					"interpolation":"LINEAR",
					"output":9
				}
			]
		},
		{
			"channels":[
				{
					"sampler":0,
					"target":{
						"node":7,
						"path":"translation"
					}
				},
				{
					"sampler":1,
					"target":{
						"node":7,
						"path":"rotation"
					}
				},
				{
					"sampler":2,
					"target":{
						"node":7,
						"path":"scale"
					}
				}
			],
			"name":"Object: torch 0.001Action.004",
			"samplers":[
				{
					"input":0,
					"interpolation":"LINEAR",
					"output":10
				},
				{
					"input":0,
					"interpolation":"LINEAR",
					"output":11
				},
				{
					"input":0,
					"interpolation":"LINEAR",
					"output":12
				}
			]
		},
		{
			"channels":[
				{
					"sampler":0,
					"target":{
						"node":8,
						"path":"translation"
					}
				},
				{
					"sampler":1,
					"target":{
						"node":8,
						"path":"rotation"
					}
				},
				{
					"sampler":2,
					"target":{
						"node":8,
						"path":"scale"
					}
				}
			],
			"name":"Object: torch 0.001Action.005",
			"samplers":[
				{
					"input":0,
					"interpolation":"LINEAR",
					"output":13
				},
				{
					"input":0,
					"interpolation":"LINEAR",
					"output":14
				},
				{
					"input":0,
					"interpolation":"LINEAR",
					"output":15
				}
			]
		},
		{
			"channels":[
				{
					"sampler":0,
					"target":{
						"node":9,
						"path":"translation"
					}
				},
				{
					"sampler":1,
					"target":{
						"node":9,
						"path":"rotation"
					}
				},
				{
					"sampler":2,
					"target":{
						"node":9,
						"path":"scale"
					}
				}
			],
			"name":"Object: torch 0.001Action.006",
			"samplers":[
				{
					"input":0,
					"interpolation":"LINEAR",
					"output":16
				},
				{
					"input":0,
					"interpolation":"LINEAR",
					"output":17
				},
				{
					"input":0,
					"interpolation":"LINEAR",
					"output":18
				}
			]
		},
		{
			"channels":[
				{
					"sampler":0,
					"target":{
						"node":10,
						"path":"translation"
					}
				},
				{
					"sampler":1,
					"target":{
						"node":10,
						"path":"rotation"
					}
				},
				{
					"sampler":2,
					"target":{
						"node":10,
						"path":"scale"
					}
				}
			],
			"name":"Object: prison_gate 0Action",
			"samplers":[
				{
					"input":0,
					"interpolation":"LINEAR",
					"output":19
				},
				{
					"input":0,
					"interpolation":"LINEAR",
					"output":20
				},
				{
					"input":0,
					"interpolation":"LINEAR",
					"output":21
				}
			]
		},
		{
			"channels":[
				{
					"sampler":0,
					"target":{
						"node":11,
						"path":"translation"
					}
				},
				{
					"sampler":1,
					"target":{
						"node":11,
						"path":"rotation"
					}
				},
				{
					"sampler":2,
					"target":{
						"node":11,
						"path":"scale"
					}
				}
			],
			"name":"Object: prison_gate 0Action.001",
			"samplers":[
				{
					"input":0,
					"interpolation":"LINEAR",
					"output":22
				},
				{
					"input":0,
					"interpolation":"LINEAR",
					"output":23
				},
				{
					"input":0,
					"interpolation":"LINEAR",
					"output":24
				}
			]
		}
	],
	"accessors":[
		{
			"bufferView":0,
			"componentType":5126,
			"count":1,
			"max":[
				0
			],
			"min":[
				0
			],
			"type":"SCALAR"
		},
		{
			"bufferView":1,
			"componentType":5126,
			"count":1,
			"type":"VEC3"
		},
		{
			"bufferView":2,
			"componentType":5126,
			"count":1,
			"type":"VEC4"
		},
		{
			"bufferView":3,
			"componentType":5126,
			"count":1,
			"type":"VEC3"
		},
		{
			"bufferView":4,
			"componentType":5126,
			"count":1,
			"type":"VEC3"
		},
		{
			"bufferView":5,
			"componentType":5126,
			"count":1,
			"type":"VEC4"
		},
		{
			"bufferView":6,
			"componentType":5126,
			"count":1,
			"type":"VEC3"
		},
		{
			"bufferView":7,
			"componentType":5126,
			"count":1,
			"type":"VEC3"
		},
		{
			"bufferView":8,
			"componentType":5126,
			"count":1,
			"type":"VEC4"
		},
		{
			"bufferView":9,
			"componentType":5126,
			"count":1,
			"type":"VEC3"
		},
		{
			"bufferView":10,
			"componentType":5126,
			"count":1,
			"type":"VEC3"
		},
		{
			"bufferView":11,
			"componentType":5126,
			"count":1,
			"type":"VEC4"
		},
		{
			"bufferView":12,
			"componentType":5126,
			"count":1,
			"type":"VEC3"
		},
		{
			"bufferView":13,
			"componentType":5126,
			"count":1,
			"type":"VEC3"
		},
		{
			"bufferView":14,
			"componentType":5126,
			"count":1,
			"type":"VEC4"
		},
		{
			"bufferView":15,
			"componentType":5126,
			"count":1,
			"type":"VEC3"
		},
		{
			"bufferView":16,
			"componentType":5126,
			"count":1,
			"type":"VEC3"
		},
		{
			"bufferView":17,
			"componentType":5126,
			"count":1,
			"type":"VEC4"
		},
		{
			"bufferView":18,
			"componentType":5126,
			"count":1,
			"type":"VEC3"
		},
		{
			"bufferView":19,
			"componentType":5126,
			"count":1,
			"type":"VEC3"
		},
		{
			"bufferView":20,
			"componentType":5126,
			"count":1,
			"type":"VEC4"
		},
		{
			"bufferView":21,
			"componentType":5126,
			"count":1,
			"type":"VEC3"
		},
		{
			"bufferView":22,
			"componentType":5126,
			"count":1,
			"type":"VEC3"
		},
		{
			"bufferView":23,
			"componentType":5126,
			"count":1,
			"type":"VEC4"
		},
		{
			"bufferView":24,
			"componentType":5126,
			"count":1,
			"type":"VEC3"
		}
	],
	"bufferViews":[
		{
			"buffer":0,
			"byteLength":4,
			"byteOffset":0
		},
		{
			"buffer":0,
			"byteLength":12,
			"byteOffset":4
		},
		{
			"buffer":0,
			"byteLength":16,
			"byteOffset":16
		},
		{
			"buffer":0,
			"byteLength":12,
			"byteOffset":32
		},
		{
			"buffer":0,
			"byteLength":12,
			"byteOffset":44
		},
		{
			"buffer":0,
			"byteLength":16,
			"byteOffset":56
		},
		{
			"buffer":0,
			"byteLength":12,
			"byteOffset":72
		},
		{
			"buffer":0,
			"byteLength":12,
			"byteOffset":84
		},
		{
			"buffer":0,
			"byteLength":16,
			"byteOffset":96
		},
		{
			"buffer":0,
			"byteLength":12,
			"byteOffset":112
		},
		{
			"buffer":0,
			"byteLength":12,
			"byteOffset":124
		},
		{
			"buffer":0,
			"byteLength":16,
			"byteOffset":136
		},
		{
			"buffer":0,
			"byteLength":12,
			"byteOffset":152
		},
		{
			"buffer":0,
			"byteLength":12,
			"byteOffset":164
		},
		{
			"buffer":0,
			"byteLength":16,
			"byteOffset":176
		},
		{
			"buffer":0,
			"byteLength":12,
			"byteOffset":192
		},
		{
			"buffer":0,
			"byteLength":12,
			"byteOffset":204
		},
		{
			"buffer":0,
			"byteLength":16,
			"byteOffset":216
		},
		{
			"buffer":0,
			"byteLength":12,
			"byteOffset":232
		},
		{
			"buffer":0,
			"byteLength":12,
			"byteOffset":244
		},
		{
			"buffer":0,
			"byteLength":16,
			"byteOffset":256
		},
		{
			"buffer":0,
			"byteLength":12,
			"byteOffset":272
		},
		{
			"buffer":0,
			"byteLength":12,
			"byteOffset":284
		},
		{
			"buffer":0,
			"byteLength":16,
			"byteOffset":296
		},
		{
			"buffer":0,
			"byteLength":12,
			"byteOffset":312
		}
	],
	"buffers":[
		{
			"byteLength":324,
			"uri":"prison_level.bin"
		}
	]
}
