{
	"asset":{
		"generator":"Khronos glTF Blender I/O v3.6.27",
		"version":"2.0"
	},
	"scene":0,
	"scenes":[
		{
			"name":"Scene",
			"nodes":[
				0
			]
		}
	],
	"nodes":[
		{
			"mesh":0,
			"name":"Cube"
		}
	],
	"materials":[
		{
			"doubleSided":true,
			"name":"Material",
			"normalTexture":{
				"index":0
			},
			"pbrMetallicRoughness":{
				"baseColorTexture":{
					"index":1
				},
				"metallicFactor":0,
				"metallicRoughnessTexture":{
					"index":2
				}
			}
		},
		{
			"doubleSided":true,
			"name":"Material.001",
			"normalTexture":{
				"index":3
			},
			"pbrMetallicRoughness":{
				"baseColorTexture":{
					"index":4
				},
				"metallicFactor":0,
				"metallicRoughnessTexture":{
					"index":5
				}
			}
		}
	],
	"meshes":[
		{
			"name":"Cube",
			"primitives":[
				{
					"attributes":{
						"POSITION":0,
						"NORMAL":1,
						"TEXCOORD_0":2
					},
					"indices":3,
					"material":0
				},
				{
					"attributes":{
						"POSITION":4,
						"NORMAL":5,
						"TEXCOORD_0":6
					},
					"indices":7,
					"material":1
				}
			]
		}
	],
	"textures":[
		{
			"sampler":0,
			"source":0
		},
		{
			"sampler":0,
			"source":1
		},
		{
			"sampler":0,
			"source":2
		},
		{
			"sampler":0,
			"source":3
		},
		{
			"sampler":0,
			"source":4
		},
		{
			"sampler":0,
			"source":5
		}
	],
	"images":[
		{
			"mimeType":"image/png",
			"name":"pillar_normal.png",
			"uri":"textures/pillar_normal.png"
		},
		{
			"mimeType":"image/png",
			"name":"pillar_diffuse.png",
			"uri":"textures/pillar_diffuse.png"
		},
		{
			"mimeType":"image/png",
			"name":"pillar_roughness.png",
			"uri":"textures/pillar_roughness.png"
		},
		{
			"mimeType":"image/png",
			"name":"marble_normal.png",
			"uri":"../../../texture/materials/marble/marble_normal.png"
		},
		{
			"mimeType":"image/png",
			"name":"marble_diffuse.png",
			"uri":"../../../texture/materials/marble/marble_diffuse.png"
		},
		{
			"mimeType":"image/png",
			"name":"marble_roughness.png",
			"uri":"../../../texture/materials/marble/marble_roughness.png"
		}
	],
	"accessors":[
		{
			"bufferView":0,
			"componentType":5126,
			"count":34,
			"max":[
				0.7920060753822327,
				8.208646774291992,
				0.7920056581497192
			],
			"min":[
				-0.7920060753822327,
				0.7908710837364197,
				-0.7920056581497192
			],
			"type":"VEC3"
		},
		{
			"bufferView":1,
			"componentType":5126,
			"count":34,
			"type":"VEC3"
		},
		{
			"bufferView":2,
			"componentType":5126,
			"count":34,
			"type":"VEC2"
		},
		{
			"bufferView":3,
			"componentType":5123,
			"count":96,
			"type":"SCALAR"
		},
		{
			"bufferView":4,
			"componentType":5126,
			"count":100,
			"max":[
				1.0000004768371582,
				9,
				1
			],
			"min":[
				-1,
				0,
				-1
			],
			"type":"VEC3"
		},
		{
			"bufferView":5,
			"componentType":5126,
			"count":100,
			"type":"VEC3"
		},
		{
			"bufferView":6,
			"componentType":5126,
			"count":100,
			"type":"VEC2"
		},
		{
			"bufferView":7,
			"componentType":5123,
			"count":264,
			"type":"SCALAR"
		}
	],
	"bufferViews":[
		{
			"buffer":0,
			"byteLength":408,
			"byteOffset":0,
			"target":34962
		},
		{
			"buffer":0,
			"byteLength":408,
			"byteOffset":408,
			"target":34962
		},
		{
			"buffer":0,
			"byteLength":272,
			"byteOffset":816,
			"target":34962
		},
		{
			"buffer":0,
			"byteLength":192,
			"byteOffset":1088,
			"target":34963
		},
		{
			"buffer":0,
			"byteLength":1200,
			"byteOffset":1280,
			"target":34962
		},
		{
			"buffer":0,
			"byteLength":1200,
			"byteOffset":2480,
			"target":34962
		},
		{
			"buffer":0,
			"byteLength":800,
			"byteOffset":3680,
			"target":34962
		},
		{
			"buffer":0,
			"byteLength":528,
			"byteOffset":4480,
			"target":34963
		}
	],
	"samplers":[
		{
			"magFilter":9729,
			"minFilter":9987
		}
	],
	"buffers":[
		{
			"byteLength":5008,
			"uri":"pillar.bin"
		}
	]
}
