{
	"asset":{
		"generator":"Khronos glTF Blender I/O v3.6.27",
		"version":"2.0"
	},
	"scene":0,
	"scenes":[
		{
			"name":"Scene",
			"nodes":[
				0
			]
		}
	],
	"nodes":[
		{
			"mesh":0,
			"name":"Door.002"
		}
	],
	"materials":[
		{
			"doubleSided":true,
			"name":"Material",
			"pbrMetallicRoughness":{
				"baseColorTexture":{
					"index":0
				},
				"metallicRoughnessTexture":{
					"index":1
				}
			}
		}
	],
	"meshes":[
		{
			"name":"Cube.004",
			"primitives":[
				{
					"attributes":{
						"POSITION":0,
						"NORMAL":1,
						"TEXCOORD_0":2
					},
					"indices":3,
					"material":0
				}
			]
		}
	],
	"textures":[
		{
			"sampler":0,
			"source":0
		},
		{
			"sampler":0,
			"source":1
		}
	],
	"images":[
		{
			"mimeType":"image/png",
			"name":"materials_diffuse.png",
			"uri":"../../../texture/materials/materials_diffuse.png"
		},
		{
			"mimeType":"image/png",
			"name":"materials_occlusionRoughnessMetallic.png",
			"uri":"../../../texture/materials/materials_occlusionRoughnessMetallic.png"
		}
	],
	"accessors":[
		{
			"bufferView":0,
			"componentType":5126,
			"count":1008,
			"max":[
				0.6840411424636841,
				2.318920850753784,
				0.13037583231925964
			],
			"min":[
				-0.6670469045639038,
				0,
				-0.13063514232635498
			],
			"type":"VEC3"
		},
		{
			"bufferView":1,
			"componentType":5126,
			"count":1008,
			"type":"VEC3"
		},
		{
			"bufferView":2,
			"componentType":5126,
			"count":1008,
			"type":"VEC2"
		},
		{
			"bufferView":3,
			"componentType":5123,
			"count":2784,
			"type":"SCALAR"
		}
	],
	"bufferViews":[
		{
			"buffer":0,
			"byteLength":12096,
			"byteOffset":0,
			"target":34962
		},
		{
			"buffer":0,
			"byteLength":12096,
			"byteOffset":12096,
			"target":34962
		},
		{
			"buffer":0,
			"byteLength":8064,
			"byteOffset":24192,
			"target":34962
		},
		{
			"buffer":0,
			"byteLength":5568,
			"byteOffset":32256,
			"target":34963
		}
	],
	"samplers":[
		{
			"magFilter":9728,
			"minFilter":9984
		}
	],
	"buffers":[
		{
			"byteLength":37824,
			"uri":"door_windowed.bin"
		}
	]
}
