{
	"asset":{
		"generator":"Khronos glTF Blender I/O v3.6.27",
		"version":"2.0"
	},
	"scene":0,
	"scenes":[
		{
			"name":"Scene",
			"nodes":[
				0,
				1
			]
		}
	],
	"nodes":[
		{
			"mesh":0,
			"name":"Door"
		},
		{
			"mesh":1,
			"name":"Door.002"
		}
	],
	"materials":[
		{
			"doubleSided":true,
			"name":"Material.003",
			"pbrMetallicRoughness":{
				"baseColorFactor":[
					0.07015053182840347,
					0.0358077809214592,
					0.017635023221373558,
					1
				],
				"metallicRoughnessTexture":{
					"index":0
				}
			}
		},
		{
			"doubleSided":true,
			"name":"Metal",
			"pbrMetallicRoughness":{
				"baseColorFactor":[
					0.32687658071517944,
					0.26898276805877686,
					0.23968006670475006,
					1
				],
				"roughnessFactor":0.48636364936828613
			}
		}
	],
	"meshes":[
		{
			"name":"Cube.002",
			"primitives":[
				{
					"attributes":{
						"POSITION":0,
						"NORMAL":1,
						"TEXCOORD_0":2
					},
					"indices":3,
					"material":0
				}
			]
		},
		{
			"name":"Cube.004",
			"primitives":[
				{
					"attributes":{
						"POSITION":4,
						"NORMAL":5,
						"TEXCOORD_0":6
					},
					"indices":7,
					"material":1
				}
			]
		}
	],
	"textures":[
		{
			"sampler":0,
			"source":0
		}
	],
	"images":[
		{
			"mimeType":"image/png",
			"name":"door_roughness.png",
			"uri":"textures/door_roughness.png"
		}
	],
	"accessors":[
		{
			"bufferView":0,
			"componentType":5126,
			"count":106,
			"max":[
				0.6670469045639038,
				2.318920850753784,
				0.04602722451090813
			],
			"min":[
				-0.6670469045639038,
				0,
				-0.04735963046550751
			],
			"type":"VEC3"
		},
		{
			"bufferView":1,
			"componentType":5126,
			"count":106,
			"type":"VEC3"
		},
		{
			"bufferView":2,
			"componentType":5126,
			"count":106,
			"type":"VEC2"
		},
		{
			"bufferView":3,
			"componentType":5123,
			"count":276,
			"type":"SCALAR"
		},
		{
			"bufferView":4,
			"componentType":5126,
			"count":2960,
			"max":[
				0.6840411424636841,
				1.7572745084762573,
				0.1317165642976761
			],
			"min":[
				-0.6106754541397095,
				0.6319596767425537,
				-0.1319759041070938
			],
			"type":"VEC3"
		},
		{
			"bufferView":5,
			"componentType":5126,
			"count":2960,
			"type":"VEC3"
		},
		{
			"bufferView":6,
			"componentType":5126,
			"count":2960,
			"type":"VEC2"
		},
		{
			"bufferView":7,
			"componentType":5123,
			"count":14988,
			"type":"SCALAR"
		}
	],
	"bufferViews":[
		{
			"buffer":0,
			"byteLength":1272,
			"byteOffset":0,
			"target":34962
		},
		{
			"buffer":0,
			"byteLength":1272,
			"byteOffset":1272,
			"target":34962
		},
		{
			"buffer":0,
			"byteLength":848,
			"byteOffset":2544,
			"target":34962
		},
		{
			"buffer":0,
			"byteLength":552,
			"byteOffset":3392,
			"target":34963
		},
		{
			"buffer":0,
			"byteLength":35520,
			"byteOffset":3944,
			"target":34962
		},
		{
			"buffer":0,
			"byteLength":35520,
			"byteOffset":39464,
			"target":34962
		},
		{
			"buffer":0,
			"byteLength":23680,
			"byteOffset":74984,
			"target":34962
		},
		{
			"buffer":0,
			"byteLength":29976,
			"byteOffset":98664,
			"target":34963
		}
	],
	"samplers":[
		{
			"magFilter":9729,
			"minFilter":9987
		}
	],
	"buffers":[
		{
			"byteLength":128640,
			"uri":"door_windowed.bin"
		}
	]
}
