{
	"asset":{
		"generator":"Khronos glTF Blender I/O v3.6.27",
		"version":"2.0"
	},
	"scene":0,
	"scenes":[
		{
			"name":"Scene",
			"nodes":[
				0
			]
		}
	],
	"nodes":[
		{
			"mesh":0,
			"name":"Frame"
		}
	],
	"materials":[
		{
			"doubleSided":true,
			"name":"Material.001",
			"pbrMetallicRoughness":{
				"baseColorTexture":{
					"index":0
				},
				"metallicFactor":0,
				"metallicRoughnessTexture":{
					"index":1
				}
			}
		}
	],
	"meshes":[
		{
			"name":"Cube.003",
			"primitives":[
				{
					"attributes":{
						"POSITION":0,
						"NORMAL":1,
						"TEXCOORD_0":2
					},
					"indices":3,
					"material":0
				}
			]
		}
	],
	"textures":[
		{
			"sampler":0,
			"source":0
		},
		{
			"sampler":0,
			"source":1
		}
	],
	"images":[
		{
			"mimeType":"image/png",
			"name":"door_frame_diffuse.png.001",
			"uri":"textures/door_frame_diffuse.png"
		},
		{
			"mimeType":"image/png",
			"name":"door_frame_roughness.png.002",
			"uri":"textures/door_frame_roughness.png"
		}
	],
	"accessors":[
		{
			"bufferView":0,
			"componentType":5126,
			"count":500,
			"max":[
				1.4999998807907104,
				2.999999761581421,
				0.5986285209655762
			],
			"min":[
				-1.4999998807907104,
				-0.00508474837988615,
				-0.5986285209655762
			],
			"type":"VEC3"
		},
		{
			"bufferView":1,
			"componentType":5126,
			"count":500,
			"type":"VEC3"
		},
		{
			"bufferView":2,
			"componentType":5126,
			"count":500,
			"type":"VEC2"
		},
		{
			"bufferView":3,
			"componentType":5123,
			"count":864,
			"type":"SCALAR"
		}
	],
	"bufferViews":[
		{
			"buffer":0,
			"byteLength":6000,
			"byteOffset":0,
			"target":34962
		},
		{
			"buffer":0,
			"byteLength":6000,
			"byteOffset":6000,
			"target":34962
		},
		{
			"buffer":0,
			"byteLength":4000,
			"byteOffset":12000,
			"target":34962
		},
		{
			"buffer":0,
			"byteLength":1728,
			"byteOffset":16000,
			"target":34963
		}
	],
	"samplers":[
		{
			"magFilter":9729,
			"minFilter":9987
		}
	],
	"buffers":[
		{
			"byteLength":17728,
			"uri":"door_frame.bin"
		}
	]
}
