{
	"asset":{
		"generator":"Khronos glTF Blender I/O v3.6.27",
		"version":"2.0"
	},
	"scene":0,
	"scenes":[
		{
			"name":"Scene",
			"nodes":[
				0
			]
		}
	],
	"nodes":[
		{
			"mesh":0,
			"name":"Door"
		}
	],
	"materials":[
		{
			"doubleSided":true,
			"name":"Material.001",
			"pbrMetallicRoughness":{
				"baseColorTexture":{
					"index":0
				},
				"metallicRoughnessTexture":{
					"index":1
				}
			}
		}
	],
	"meshes":[
		{
			"name":"Cube",
			"primitives":[
				{
					"attributes":{
						"POSITION":0,
						"NORMAL":1,
						"TEXCOORD_0":2
					},
					"indices":3,
					"material":0
				}
			]
		}
	],
	"textures":[
		{
			"sampler":0,
			"source":0
		},
		{
			"sampler":0,
			"source":1
		}
	],
	"images":[
		{
			"mimeType":"image/png",
			"name":"door_diffuse.png",
			"uri":"textures/door_diffuse.png"
		},
		{
			"mimeType":"image/png",
			"name":"door_roughness.png.001",
			"uri":"textures/door_roughness.png"
		}
	],
	"accessors":[
		{
			"bufferView":0,
			"componentType":5126,
			"count":3076,
			"max":[
				0.6840512752532959,
				2.318955183029175,
				0.10467620193958282
			],
			"min":[
				-0.6670567989349365,
				0,
				-0.15902018547058105
			],
			"type":"VEC3"
		},
		{
			"bufferView":1,
			"componentType":5126,
			"count":3076,
			"type":"VEC3"
		},
		{
			"bufferView":2,
			"componentType":5126,
			"count":3076,
			"type":"VEC2"
		},
		{
			"bufferView":3,
			"componentType":5123,
			"count":15252,
			"type":"SCALAR"
		}
	],
	"bufferViews":[
		{
			"buffer":0,
			"byteLength":36912,
			"byteOffset":0,
			"target":34962
		},
		{
			"buffer":0,
			"byteLength":36912,
			"byteOffset":36912,
			"target":34962
		},
		{
			"buffer":0,
			"byteLength":24608,
			"byteOffset":73824,
			"target":34962
		},
		{
			"buffer":0,
			"byteLength":30504,
			"byteOffset":98432,
			"target":34963
		}
	],
	"samplers":[
		{
			"magFilter":9729,
			"minFilter":9987
		}
	],
	"buffers":[
		{
			"byteLength":128936,
			"uri":"door.bin"
		}
	]
}
