{
	"asset":{
		"generator":"Khronos glTF Blender I/O v3.6.27",
		"version":"2.0"
	},
	"scene":0,
	"scenes":[
		{
			"name":"Scene",
			"nodes":[
				0
			]
		}
	],
	"nodes":[
		{
			"mesh":0,
			"name":"Door"
		}
	],
	"materials":[
		{
			"doubleSided":true,
			"name":"Material.003",
			"pbrMetallicRoughness":{
				"baseColorTexture":{
					"index":0
				},
				"metallicRoughnessTexture":{
					"index":1
				}
			}
		}
	],
	"meshes":[
		{
			"name":"Cube.002",
			"primitives":[
				{
					"attributes":{
						"POSITION":0,
						"NORMAL":1,
						"TEXCOORD_0":2
					},
					"indices":3,
					"material":0
				}
			]
		}
	],
	"textures":[
		{
			"sampler":0,
			"source":0
		},
		{
			"sampler":0,
			"source":1
		}
	],
	"images":[
		{
			"mimeType":"image/png",
			"name":"door_diffuse.png.001",
			"uri":"textures/door_diffuse.png"
		},
		{
			"mimeType":"image/png",
			"name":"door_roughness.png",
			"uri":"textures/door_roughness.png"
		}
	],
	"accessors":[
		{
			"bufferView":0,
			"componentType":5126,
			"count":3066,
			"max":[
				0.6840411424636841,
				2.318920850753784,
				0.1317165642976761
			],
			"min":[
				-0.6670469045639038,
				0,
				-0.1319759041070938
			],
			"type":"VEC3"
		},
		{
			"bufferView":1,
			"componentType":5126,
			"count":3066,
			"type":"VEC3"
		},
		{
			"bufferView":2,
			"componentType":5126,
			"count":3066,
			"type":"VEC2"
		},
		{
			"bufferView":3,
			"componentType":5123,
			"count":15264,
			"type":"SCALAR"
		}
	],
	"bufferViews":[
		{
			"buffer":0,
			"byteLength":36792,
			"byteOffset":0,
			"target":34962
		},
		{
			"buffer":0,
			"byteLength":36792,
			"byteOffset":36792,
			"target":34962
		},
		{
			"buffer":0,
			"byteLength":24528,
			"byteOffset":73584,
			"target":34962
		},
		{
			"buffer":0,
			"byteLength":30528,
			"byteOffset":98112,
			"target":34963
		}
	],
	"samplers":[
		{
			"magFilter":9729,
			"minFilter":9987
		}
	],
	"buffers":[
		{
			"byteLength":128640,
			"uri":"door_windowed.bin"
		}
	]
}
