{
	"asset":{
		"generator":"Khronos glTF Blender I/O v3.5.30",
		"version":"2.0"
	},
	"scene":0,
	"scenes":[
		{
			"name":"Scene",
			"nodes":[
				0,
				4,
				6
			]
		}
	],
	"nodes":[
		{
			"mesh":0,
			"name":"Frame",
			"scale":[
				2,
				2,
				2
			]
		},
		{
			"name":"Bone"
		},
		{
			"name":"Bone.001",
			"rotation":[
				-2.6692537957728746e-08,
				2.6692537957728746e-08,
				0.7071067690849304,
				0.7071067690849304
			],
			"translation":[
				2.3494582176208496,
				1.6906217336654663,
				-0.04059809073805809
			]
		},
		{
			"name":"Bone.002",
			"rotation":[
				0.5,
				0.5,
				-0.5000000596046448,
				0.5
			],
			"translation":[
				-2.3494582176208496,
				1.6906217336654663,
				-0.04059809073805809
			]
		},
		{
			"mesh":1,
			"name":"Door.002",
			"skin":0
		},
		{
			"mesh":2,
			"name":"Door.005",
			"skin":0
		},
		{
			"children":[
				5,
				1,
				2,
				3
			],
			"name":"Armature"
		}
	],
	"animations":[
		{
			"channels":[
				{
					"sampler":0,
					"target":{
						"node":1,
						"path":"translation"
					}
				},
				{
					"sampler":1,
					"target":{
						"node":1,
						"path":"rotation"
					}
				},
				{
					"sampler":2,
					"target":{
						"node":1,
						"path":"scale"
					}
				},
				{
					"sampler":3,
					"target":{
						"node":2,
						"path":"translation"
					}
				},
				{
					"sampler":4,
					"target":{
						"node":2,
						"path":"rotation"
					}
				},
				{
					"sampler":5,
					"target":{
						"node":2,
						"path":"scale"
					}
				},
				{
					"sampler":6,
					"target":{
						"node":3,
						"path":"translation"
					}
				},
				{
					"sampler":7,
					"target":{
						"node":3,
						"path":"rotation"
					}
				},
				{
					"sampler":8,
					"target":{
						"node":3,
						"path":"scale"
					}
				}
			],
			"name":"default",
			"samplers":[
				{
					"input":28,
					"interpolation":"LINEAR",
					"output":29
				},
				{
					"input":28,
					"interpolation":"LINEAR",
					"output":30
				},
				{
					"input":28,
					"interpolation":"LINEAR",
					"output":31
				},
				{
					"input":28,
					"interpolation":"LINEAR",
					"output":32
				},
				{
					"input":28,
					"interpolation":"LINEAR",
					"output":33
				},
				{
					"input":28,
					"interpolation":"LINEAR",
					"output":34
				},
				{
					"input":28,
					"interpolation":"LINEAR",
					"output":35
				},
				{
					"input":28,
					"interpolation":"LINEAR",
					"output":36
				},
				{
					"input":28,
					"interpolation":"LINEAR",
					"output":37
				}
			]
		}
	],
	"materials":[
		{
			"doubleSided":true,
			"name":"Material.003",
			"pbrMetallicRoughness":{
				"baseColorFactor":[
					0.11927590519189835,
					0.11927590519189835,
					0.11927590519189835,
					1
				],
				"metallicFactor":0
			}
		},
		{
			"doubleSided":true,
			"name":"Material",
			"pbrMetallicRoughness":{
				"baseColorFactor":[
					0.11927590519189835,
					0.059685833752155304,
					0.03878654167056084,
					1
				],
				"metallicFactor":0
			}
		},
		{
			"doubleSided":true,
			"name":"Knob",
			"pbrMetallicRoughness":{
				"baseColorFactor":[
					0.46720191836357117,
					0.46720191836357117,
					0.46720191836357117,
					1
				],
				"roughnessFactor":0.3095237910747528
			}
		}
	],
	"meshes":[
		{
			"name":"Cube.001",
			"primitives":[
				{
					"attributes":{
						"POSITION":0,
						"TEXCOORD_0":1,
						"NORMAL":2
					},
					"indices":3,
					"material":0
				}
			]
		},
		{
			"name":"Cube.003",
			"primitives":[
				{
					"attributes":{
						"POSITION":4,
						"TEXCOORD_0":5,
						"NORMAL":6,
						"JOINTS_0":7,
						"WEIGHTS_0":8
					},
					"indices":9,
					"material":1
				},
				{
					"attributes":{
						"POSITION":10,
						"TEXCOORD_0":11,
						"NORMAL":12,
						"JOINTS_0":13,
						"WEIGHTS_0":14
					},
					"indices":15,
					"material":2
				}
			]
		},
		{
			"name":"Cube.007",
			"primitives":[
				{
					"attributes":{
						"POSITION":17,
						"TEXCOORD_0":18,
						"NORMAL":19,
						"JOINTS_0":20,
						"WEIGHTS_0":21
					},
					"indices":9,
					"material":1
				},
				{
					"attributes":{
						"POSITION":22,
						"TEXCOORD_0":23,
						"NORMAL":24,
						"JOINTS_0":25,
						"WEIGHTS_0":26
					},
					"indices":27,
					"material":2
				}
			]
		}
	],
	"skins":[
		{
			"inverseBindMatrices":16,
			"joints":[
				1,
				2,
				3
			],
			"name":"Armature"
		}
	],
	"accessors":[
		{
			"bufferView":0,
			"componentType":5126,
			"count":440,
			"max":[
				2.1304025650024414,
				4.201769828796387,
				0.3867458999156952
			],
			"min":[
				-2.130404233932495,
				-0.0982292890548706,
				-0.37132376432418823
			],
			"type":"VEC3"
		},
		{
			"bufferView":1,
			"componentType":5126,
			"count":440,
			"type":"VEC2"
		},
		{
			"bufferView":2,
			"componentType":5126,
			"count":440,
			"type":"VEC3"
		},
		{
			"bufferView":3,
			"componentType":5123,
			"count":804,
			"type":"SCALAR"
		},
		{
			"bufferView":4,
			"componentType":5126,
			"count":254,
			"max":[
				0.03172702342271805,
				4.733882904052734,
				0.07412108033895493
			],
			"min":[
				-2.3690478801727295,
				0,
				-0.1643085479736328
			],
			"type":"VEC3"
		},
		{
			"bufferView":5,
			"componentType":5126,
			"count":254,
			"type":"VEC2"
		},
		{
			"bufferView":6,
			"componentType":5126,
			"count":254,
			"type":"VEC3"
		},
		{
			"bufferView":7,
			"componentType":5121,
			"count":254,
			"type":"VEC4"
		},
		{
			"bufferView":8,
			"componentType":5126,
			"count":254,
			"type":"VEC4"
		},
		{
			"bufferView":9,
			"componentType":5123,
			"count":462,
			"type":"SCALAR"
		},
		{
			"bufferView":10,
			"componentType":5126,
			"count":2848,
			"max":[
				0.015484452247619629,
				2.983275890350342,
				0.17660382390022278
			],
			"min":[
				-2.2851197719573975,
				1.0662227869033813,
				-0.2682899534702301
			],
			"type":"VEC3"
		},
		{
			"bufferView":11,
			"componentType":5126,
			"count":2848,
			"type":"VEC2"
		},
		{
			"bufferView":12,
			"componentType":5126,
			"count":2848,
			"type":"VEC3"
		},
		{
			"bufferView":13,
			"componentType":5121,
			"count":2848,
			"type":"VEC4"
		},
		{
			"bufferView":14,
			"componentType":5126,
			"count":2848,
			"type":"VEC4"
		},
		{
			"bufferView":15,
			"componentType":5123,
			"count":14844,
			"type":"SCALAR"
		},
		{
			"bufferView":16,
			"componentType":5126,
			"count":3,
			"type":"MAT4"
		},
		{
			"bufferView":17,
			"componentType":5126,
			"count":254,
			"max":[
				2.37469744682312,
				4.733882904052734,
				0.07412108033895493
			],
			"min":[
				-0.026077434420585632,
				0,
				-0.1643085479736328
			],
			"type":"VEC3"
		},
		{
			"bufferView":18,
			"componentType":5126,
			"count":254,
			"type":"VEC2"
		},
		{
			"bufferView":19,
			"componentType":5126,
			"count":254,
			"type":"VEC3"
		},
		{
			"bufferView":20,
			"componentType":5121,
			"count":254,
			"type":"VEC4"
		},
		{
			"bufferView":21,
			"componentType":5126,
			"count":254,
			"type":"VEC4"
		},
		{
			"bufferView":22,
			"componentType":5126,
			"count":2848,
			"max":[
				2.2851197719573975,
				2.983275890350342,
				0.17660382390022278
			],
			"min":[
				-0.015484452247619629,
				1.0662227869033813,
				-0.2682899534702301
			],
			"type":"VEC3"
		},
		{
			"bufferView":23,
			"componentType":5126,
			"count":2848,
			"type":"VEC2"
		},
		{
			"bufferView":24,
			"componentType":5126,
			"count":2848,
			"type":"VEC3"
		},
		{
			"bufferView":25,
			"componentType":5121,
			"count":2848,
			"type":"VEC4"
		},
		{
			"bufferView":26,
			"componentType":5126,
			"count":2848,
			"type":"VEC4"
		},
		{
			"bufferView":27,
			"componentType":5123,
			"count":14844,
			"type":"SCALAR"
		},
		{
			"bufferView":28,
			"componentType":5126,
			"count":1,
			"max":[
				0
			],
			"min":[
				0
			],
			"type":"SCALAR"
		},
		{
			"bufferView":29,
			"componentType":5126,
			"count":1,
			"type":"VEC3"
		},
		{
			"bufferView":30,
			"componentType":5126,
			"count":1,
			"type":"VEC4"
		},
		{
			"bufferView":31,
			"componentType":5126,
			"count":1,
			"type":"VEC3"
		},
		{
			"bufferView":32,
			"componentType":5126,
			"count":1,
			"type":"VEC3"
		},
		{
			"bufferView":33,
			"componentType":5126,
			"count":1,
			"type":"VEC4"
		},
		{
			"bufferView":34,
			"componentType":5126,
			"count":1,
			"type":"VEC3"
		},
		{
			"bufferView":35,
			"componentType":5126,
			"count":1,
			"type":"VEC3"
		},
		{
			"bufferView":36,
			"componentType":5126,
			"count":1,
			"type":"VEC4"
		},
		{
			"bufferView":37,
			"componentType":5126,
			"count":1,
			"type":"VEC3"
		}
	],
	"bufferViews":[
		{
			"buffer":0,
			"byteLength":5280,
			"byteOffset":0,
			"target":34962
		},
		{
			"buffer":0,
			"byteLength":3520,
			"byteOffset":5280,
			"target":34962
		},
		{
			"buffer":0,
			"byteLength":5280,
			"byteOffset":8800,
			"target":34962
		},
		{
			"buffer":0,
			"byteLength":1608,
			"byteOffset":14080,
			"target":34963
		},
		{
			"buffer":0,
			"byteLength":3048,
			"byteOffset":15688,
			"target":34962
		},
		{
			"buffer":0,
			"byteLength":2032,
			"byteOffset":18736,
			"target":34962
		},
		{
			"buffer":0,
			"byteLength":3048,
			"byteOffset":20768,
			"target":34962
		},
		{
			"buffer":0,
			"byteLength":1016,
			"byteOffset":23816,
			"target":34962
		},
		{
			"buffer":0,
			"byteLength":4064,
			"byteOffset":24832,
			"target":34962
		},
		{
			"buffer":0,
			"byteLength":924,
			"byteOffset":28896,
			"target":34963
		},
		{
			"buffer":0,
			"byteLength":34176,
			"byteOffset":29820,
			"target":34962
		},
		{
			"buffer":0,
			"byteLength":22784,
			"byteOffset":63996,
			"target":34962
		},
		{
			"buffer":0,
			"byteLength":34176,
			"byteOffset":86780,
			"target":34962
		},
		{
			"buffer":0,
			"byteLength":11392,
			"byteOffset":120956,
			"target":34962
		},
		{
			"buffer":0,
			"byteLength":45568,
			"byteOffset":132348,
			"target":34962
		},
		{
			"buffer":0,
			"byteLength":29688,
			"byteOffset":177916,
			"target":34963
		},
		{
			"buffer":0,
			"byteLength":192,
			"byteOffset":207604
		},
		{
			"buffer":0,
			"byteLength":3048,
			"byteOffset":207796,
			"target":34962
		},
		{
			"buffer":0,
			"byteLength":2032,
			"byteOffset":210844,
			"target":34962
		},
		{
			"buffer":0,
			"byteLength":3048,
			"byteOffset":212876,
			"target":34962
		},
		{
			"buffer":0,
			"byteLength":1016,
			"byteOffset":215924,
			"target":34962
		},
		{
			"buffer":0,
			"byteLength":4064,
			"byteOffset":216940,
			"target":34962
		},
		{
			"buffer":0,
			"byteLength":34176,
			"byteOffset":221004,
			"target":34962
		},
		{
			"buffer":0,
			"byteLength":22784,
			"byteOffset":255180,
			"target":34962
		},
		{
			"buffer":0,
			"byteLength":34176,
			"byteOffset":277964,
			"target":34962
		},
		{
			"buffer":0,
			"byteLength":11392,
			"byteOffset":312140,
			"target":34962
		},
		{
			"buffer":0,
			"byteLength":45568,
			"byteOffset":323532,
			"target":34962
		},
		{
			"buffer":0,
			"byteLength":29688,
			"byteOffset":369100,
			"target":34963
		},
		{
			"buffer":0,
			"byteLength":4,
			"byteOffset":398788
		},
		{
			"buffer":0,
			"byteLength":12,
			"byteOffset":398792
		},
		{
			"buffer":0,
			"byteLength":16,
			"byteOffset":398804
		},
		{
			"buffer":0,
			"byteLength":12,
			"byteOffset":398820
		},
		{
			"buffer":0,
			"byteLength":12,
			"byteOffset":398832
		},
		{
			"buffer":0,
			"byteLength":16,
			"byteOffset":398844
		},
		{
			"buffer":0,
			"byteLength":12,
			"byteOffset":398860
		},
		{
			"buffer":0,
			"byteLength":12,
			"byteOffset":398872
		},
		{
			"buffer":0,
			"byteLength":16,
			"byteOffset":398884
		},
		{
			"buffer":0,
			"byteLength":12,
			"byteOffset":398900
		}
	],
	"buffers":[
		{
			"byteLength":398912,
			"uri":"double_door.bin"
		}
	]
}
