{
	"asset":{
		"generator":"Khronos glTF Blender I/O v3.6.27",
		"version":"2.0"
	},
	"scene":0,
	"scenes":[
		{
			"name":"Scene",
			"nodes":[
				5,
				6
			]
		}
	],
	"nodes":[
		{
			"name":"Bone"
		},
		{
			"name":"hingeRight",
			"translation":[
				1.4092199802398682,
				0,
				0
			]
		},
		{
			"name":"hingeLeft",
			"translation":[
				-1.4092199802398682,
				0,
				0
			]
		},
		{
			"mesh":0,
			"name":"Door.002",
			"skin":0
		},
		{
			"mesh":1,
			"name":"Door.005",
			"skin":0
		},
		{
			"children":[
				3,
				4,
				0,
				1,
				2
			],
			"name":"Armature"
		},
		{
			"mesh":2,
			"name":"Frame.001",
			"scale":[
				0.9655644297599792,
				0.9655644297599792,
				0.9655644297599792
			]
		}
	],
	"animations":[
		{
			"channels":[
				{
					"sampler":0,
					"target":{
						"node":0,
						"path":"translation"
					}
				},
				{
					"sampler":1,
					"target":{
						"node":0,
						"path":"rotation"
					}
				},
				{
					"sampler":2,
					"target":{
						"node":0,
						"path":"scale"
					}
				},
				{
					"sampler":3,
					"target":{
						"node":1,
						"path":"translation"
					}
				},
				{
					"sampler":4,
					"target":{
						"node":1,
						"path":"rotation"
					}
				},
				{
					"sampler":5,
					"target":{
						"node":1,
						"path":"scale"
					}
				},
				{
					"sampler":6,
					"target":{
						"node":2,
						"path":"translation"
					}
				},
				{
					"sampler":7,
					"target":{
						"node":2,
						"path":"rotation"
					}
				},
				{
					"sampler":8,
					"target":{
						"node":2,
						"path":"scale"
					}
				}
			],
			"name":"default",
			"samplers":[
				{
					"input":29,
					"interpolation":"LINEAR",
					"output":30
				},
				{
					"input":29,
					"interpolation":"LINEAR",
					"output":31
				},
				{
					"input":29,
					"interpolation":"LINEAR",
					"output":32
				},
				{
					"input":29,
					"interpolation":"LINEAR",
					"output":33
				},
				{
					"input":29,
					"interpolation":"LINEAR",
					"output":34
				},
				{
					"input":29,
					"interpolation":"LINEAR",
					"output":35
				},
				{
					"input":29,
					"interpolation":"LINEAR",
					"output":36
				},
				{
					"input":29,
					"interpolation":"LINEAR",
					"output":37
				},
				{
					"input":29,
					"interpolation":"LINEAR",
					"output":38
				}
			]
		},
		{
			"channels":[
				{
					"sampler":0,
					"target":{
						"node":0,
						"path":"translation"
					}
				},
				{
					"sampler":1,
					"target":{
						"node":0,
						"path":"rotation"
					}
				},
				{
					"sampler":2,
					"target":{
						"node":0,
						"path":"scale"
					}
				},
				{
					"sampler":3,
					"target":{
						"node":1,
						"path":"translation"
					}
				},
				{
					"sampler":4,
					"target":{
						"node":1,
						"path":"rotation"
					}
				},
				{
					"sampler":5,
					"target":{
						"node":1,
						"path":"scale"
					}
				},
				{
					"sampler":6,
					"target":{
						"node":2,
						"path":"translation"
					}
				},
				{
					"sampler":7,
					"target":{
						"node":2,
						"path":"rotation"
					}
				},
				{
					"sampler":8,
					"target":{
						"node":2,
						"path":"scale"
					}
				}
			],
			"name":"open",
			"samplers":[
				{
					"input":39,
					"interpolation":"STEP",
					"output":40
				},
				{
					"input":39,
					"interpolation":"STEP",
					"output":41
				},
				{
					"input":39,
					"interpolation":"STEP",
					"output":42
				},
				{
					"input":39,
					"interpolation":"STEP",
					"output":43
				},
				{
					"input":44,
					"interpolation":"LINEAR",
					"output":45
				},
				{
					"input":39,
					"interpolation":"STEP",
					"output":46
				},
				{
					"input":39,
					"interpolation":"STEP",
					"output":47
				},
				{
					"input":44,
					"interpolation":"LINEAR",
					"output":48
				},
				{
					"input":39,
					"interpolation":"STEP",
					"output":49
				}
			]
		}
	],
	"materials":[
		{
			"doubleSided":true,
			"name":"Material",
			"pbrMetallicRoughness":{
				"baseColorFactor":[
					0.029932228848338127,
					0.009174419566988945,
					0,
					1
				],
				"metallicFactor":0
			}
		},
		{
			"doubleSided":true,
			"name":"Knob",
			"pbrMetallicRoughness":{
				"baseColorFactor":[
					0.12823939323425293,
					0.12823939323425293,
					0.12823939323425293,
					1
				],
				"roughnessFactor":0.6166104078292847
			}
		},
		{
			"doubleSided":true,
			"name":"Material.001",
			"pbrMetallicRoughness":{
				"baseColorFactor":[
					0.145364448428154,
					0.145364448428154,
					0.145364448428154,
					1
				],
				"metallicFactor":0,
				"metallicRoughnessTexture":{
					"index":0
				}
			}
		}
	],
	"meshes":[
		{
			"name":"Cube.003",
			"primitives":[
				{
					"attributes":{
						"POSITION":0,
						"NORMAL":1,
						"TEXCOORD_0":2,
						"JOINTS_0":3,
						"WEIGHTS_0":4
					},
					"indices":5,
					"material":0
				},
				{
					"attributes":{
						"POSITION":6,
						"NORMAL":7,
						"TEXCOORD_0":8,
						"JOINTS_0":9,
						"WEIGHTS_0":10
					},
					"indices":11,
					"material":1
				}
			]
		},
		{
			"name":"Cube.007",
			"primitives":[
				{
					"attributes":{
						"POSITION":13,
						"NORMAL":14,
						"TEXCOORD_0":15,
						"JOINTS_0":16,
						"WEIGHTS_0":17
					},
					"indices":18,
					"material":0
				},
				{
					"attributes":{
						"POSITION":19,
						"NORMAL":20,
						"TEXCOORD_0":21,
						"JOINTS_0":22,
						"WEIGHTS_0":23
					},
					"indices":24,
					"material":1
				}
			]
		},
		{
			"name":"Cube.004",
			"primitives":[
				{
					"attributes":{
						"POSITION":25,
						"NORMAL":26,
						"TEXCOORD_0":27
					},
					"indices":28,
					"material":2
				}
			]
		}
	],
	"textures":[
		{
			"sampler":0,
			"source":0
		}
	],
	"images":[
		{
			"mimeType":"image/png",
			"name":"gate_frame_roughness.png.001",
			"uri":"../exit/gate_frame_roughness.png"
		}
	],
	"skins":[
		{
			"inverseBindMatrices":12,
			"joints":[
				0,
				1,
				2
			],
			"name":"Armature"
		}
	],
	"accessors":[
		{
			"bufferView":0,
			"componentType":5126,
			"count":254,
			"max":[
				0.016652047634124756,
				2.8253509998321533,
				0.038902729749679565
			],
			"min":[
				-1.243403673171997,
				0,
				-0.08623795956373215
			],
			"type":"VEC3"
		},
		{
			"bufferView":1,
			"componentType":5126,
			"count":254,
			"type":"VEC3"
		},
		{
			"bufferView":2,
			"componentType":5126,
			"count":254,
			"type":"VEC2"
		},
		{
			"bufferView":3,
			"componentType":5121,
			"count":254,
			"type":"VEC4"
		},
		{
			"bufferView":4,
			"componentType":5126,
			"count":254,
			"type":"VEC4"
		},
		{
			"bufferView":5,
			"componentType":5123,
			"count":462,
			"type":"SCALAR"
		},
		{
			"bufferView":6,
			"componentType":5126,
			"count":2848,
			"max":[
				0.00812707282602787,
				1.5657836198806763,
				0.09269118309020996
			],
			"min":[
				-1.1993536949157715,
				0.5596110224723816,
				-0.14081299304962158
			],
			"type":"VEC3"
		},
		{
			"bufferView":7,
			"componentType":5126,
			"count":2848,
			"type":"VEC3"
		},
		{
			"bufferView":8,
			"componentType":5126,
			"count":2848,
			"type":"VEC2"
		},
		{
			"bufferView":9,
			"componentType":5121,
			"count":2848,
			"type":"VEC4"
		},
		{
			"bufferView":10,
			"componentType":5126,
			"count":2848,
			"type":"VEC4"
		},
		{
			"bufferView":11,
			"componentType":5123,
			"count":14844,
			"type":"SCALAR"
		},
		{
			"bufferView":12,
			"componentType":5126,
			"count":3,
			"type":"MAT4"
		},
		{
			"bufferView":13,
			"componentType":5126,
			"count":254,
			"max":[
				1.2463688850402832,
				2.8253509998321533,
				0.038902729749679565
			],
			"min":[
				-0.013686839491128922,
				0,
				-0.08623795956373215
			],
			"type":"VEC3"
		},
		{
			"bufferView":14,
			"componentType":5126,
			"count":254,
			"type":"VEC3"
		},
		{
			"bufferView":15,
			"componentType":5126,
			"count":254,
			"type":"VEC2"
		},
		{
			"bufferView":16,
			"componentType":5121,
			"count":254,
			"type":"VEC4"
		},
		{
			"bufferView":17,
			"componentType":5126,
			"count":254,
			"type":"VEC4"
		},
		{
			"bufferView":18,
			"componentType":5123,
			"count":462,
			"type":"SCALAR"
		},
		{
			"bufferView":19,
			"componentType":5126,
			"count":2848,
			"max":[
				1.1993536949157715,
				1.5657836198806763,
				0.09269118309020996
			],
			"min":[
				-0.00812707282602787,
				0.5596110224723816,
				-0.14081299304962158
			],
			"type":"VEC3"
		},
		{
			"bufferView":20,
			"componentType":5126,
			"count":2848,
			"type":"VEC3"
		},
		{
			"bufferView":21,
			"componentType":5126,
			"count":2848,
			"type":"VEC2"
		},
		{
			"bufferView":22,
			"componentType":5121,
			"count":2848,
			"type":"VEC4"
		},
		{
			"bufferView":23,
			"componentType":5126,
			"count":2848,
			"type":"VEC4"
		},
		{
			"bufferView":24,
			"componentType":5123,
			"count":14844,
			"type":"SCALAR"
		},
		{
			"bufferView":25,
			"componentType":5126,
			"count":226,
			"max":[
				1.4714547395706177,
				3.1131656169891357,
				0.13396811485290527
			],
			"min":[
				-1.4714534282684326,
				9.5367431640625e-07,
				-0.18544483184814453
			],
			"type":"VEC3"
		},
		{
			"bufferView":26,
			"componentType":5126,
			"count":226,
			"type":"VEC3"
		},
		{
			"bufferView":27,
			"componentType":5126,
			"count":226,
			"type":"VEC2"
		},
		{
			"bufferView":28,
			"componentType":5123,
			"count":420,
			"type":"SCALAR"
		},
		{
			"bufferView":29,
			"componentType":5126,
			"count":1,
			"max":[
				0
			],
			"min":[
				0
			],
			"type":"SCALAR"
		},
		{
			"bufferView":30,
			"componentType":5126,
			"count":1,
			"type":"VEC3"
		},
		{
			"bufferView":31,
			"componentType":5126,
			"count":1,
			"type":"VEC4"
		},
		{
			"bufferView":32,
			"componentType":5126,
			"count":1,
			"type":"VEC3"
		},
		{
			"bufferView":33,
			"componentType":5126,
			"count":1,
			"type":"VEC3"
		},
		{
			"bufferView":34,
			"componentType":5126,
			"count":1,
			"type":"VEC4"
		},
		{
			"bufferView":35,
			"componentType":5126,
			"count":1,
			"type":"VEC3"
		},
		{
			"bufferView":36,
			"componentType":5126,
			"count":1,
			"type":"VEC3"
		},
		{
			"bufferView":37,
			"componentType":5126,
			"count":1,
			"type":"VEC4"
		},
		{
			"bufferView":38,
			"componentType":5126,
			"count":1,
			"type":"VEC3"
		},
		{
			"bufferView":39,
			"componentType":5126,
			"count":2,
			"max":[
				5
			],
			"min":[
				0
			],
			"type":"SCALAR"
		},
		{
			"bufferView":40,
			"componentType":5126,
			"count":2,
			"type":"VEC3"
		},
		{
			"bufferView":41,
			"componentType":5126,
			"count":2,
			"type":"VEC4"
		},
		{
			"bufferView":42,
			"componentType":5126,
			"count":2,
			"type":"VEC3"
		},
		{
			"bufferView":43,
			"componentType":5126,
			"count":2,
			"type":"VEC3"
		},
		{
			"bufferView":44,
			"componentType":5126,
			"count":121,
			"max":[
				5
			],
			"min":[
				0
			],
			"type":"SCALAR"
		},
		{
			"bufferView":45,
			"componentType":5126,
			"count":121,
			"type":"VEC4"
		},
		{
			"bufferView":46,
			"componentType":5126,
			"count":2,
			"type":"VEC3"
		},
		{
			"bufferView":47,
			"componentType":5126,
			"count":2,
			"type":"VEC3"
		},
		{
			"bufferView":48,
			"componentType":5126,
			"count":121,
			"type":"VEC4"
		},
		{
			"bufferView":49,
			"componentType":5126,
			"count":2,
			"type":"VEC3"
		}
	],
	"bufferViews":[
		{
			"buffer":0,
			"byteLength":3048,
			"byteOffset":0,
			"target":34962
		},
		{
			"buffer":0,
			"byteLength":3048,
			"byteOffset":3048,
			"target":34962
		},
		{
			"buffer":0,
			"byteLength":2032,
			"byteOffset":6096,
			"target":34962
		},
		{
			"buffer":0,
			"byteLength":1016,
			"byteOffset":8128,
			"target":34962
		},
		{
			"buffer":0,
			"byteLength":4064,
			"byteOffset":9144,
			"target":34962
		},
		{
			"buffer":0,
			"byteLength":924,
			"byteOffset":13208,
			"target":34963
		},
		{
			"buffer":0,
			"byteLength":34176,
			"byteOffset":14132,
			"target":34962
		},
		{
			"buffer":0,
			"byteLength":34176,
			"byteOffset":48308,
			"target":34962
		},
		{
			"buffer":0,
			"byteLength":22784,
			"byteOffset":82484,
			"target":34962
		},
		{
			"buffer":0,
			"byteLength":11392,
			"byteOffset":105268,
			"target":34962
		},
		{
			"buffer":0,
			"byteLength":45568,
			"byteOffset":116660,
			"target":34962
		},
		{
			"buffer":0,
			"byteLength":29688,
			"byteOffset":162228,
			"target":34963
		},
		{
			"buffer":0,
			"byteLength":192,
			"byteOffset":191916
		},
		{
			"buffer":0,
			"byteLength":3048,
			"byteOffset":192108,
			"target":34962
		},
		{
			"buffer":0,
			"byteLength":3048,
			"byteOffset":195156,
			"target":34962
		},
		{
			"buffer":0,
			"byteLength":2032,
			"byteOffset":198204,
			"target":34962
		},
		{
			"buffer":0,
			"byteLength":1016,
			"byteOffset":200236,
			"target":34962
		},
		{
			"buffer":0,
			"byteLength":4064,
			"byteOffset":201252,
			"target":34962
		},
		{
			"buffer":0,
			"byteLength":924,
			"byteOffset":205316,
			"target":34963
		},
		{
			"buffer":0,
			"byteLength":34176,
			"byteOffset":206240,
			"target":34962
		},
		{
			"buffer":0,
			"byteLength":34176,
			"byteOffset":240416,
			"target":34962
		},
		{
			"buffer":0,
			"byteLength":22784,
			"byteOffset":274592,
			"target":34962
		},
		{
			"buffer":0,
			"byteLength":11392,
			"byteOffset":297376,
			"target":34962
		},
		{
			"buffer":0,
			"byteLength":45568,
			"byteOffset":308768,
			"target":34962
		},
		{
			"buffer":0,
			"byteLength":29688,
			"byteOffset":354336,
			"target":34963
		},
		{
			"buffer":0,
			"byteLength":2712,
			"byteOffset":384024,
			"target":34962
		},
		{
			"buffer":0,
			"byteLength":2712,
			"byteOffset":386736,
			"target":34962
		},
		{
			"buffer":0,
			"byteLength":1808,
			"byteOffset":389448,
			"target":34962
		},
		{
			"buffer":0,
			"byteLength":840,
			"byteOffset":391256,
			"target":34963
		},
		{
			"buffer":0,
			"byteLength":4,
			"byteOffset":392096
		},
		{
			"buffer":0,
			"byteLength":12,
			"byteOffset":392100
		},
		{
			"buffer":0,
			"byteLength":16,
			"byteOffset":392112
		},
		{
			"buffer":0,
			"byteLength":12,
			"byteOffset":392128
		},
		{
			"buffer":0,
			"byteLength":12,
			"byteOffset":392140
		},
		{
			"buffer":0,
			"byteLength":16,
			"byteOffset":392152
		},
		{
			"buffer":0,
			"byteLength":12,
			"byteOffset":392168
		},
		{
			"buffer":0,
			"byteLength":12,
			"byteOffset":392180
		},
		{
			"buffer":0,
			"byteLength":16,
			"byteOffset":392192
		},
		{
			"buffer":0,
			"byteLength":12,
			"byteOffset":392208
		},
		{
			"buffer":0,
			"byteLength":8,
			"byteOffset":392220
		},
		{
			"buffer":0,
			"byteLength":24,
			"byteOffset":392228
		},
		{
			"buffer":0,
			"byteLength":32,
			"byteOffset":392252
		},
		{
			"buffer":0,
			"byteLength":24,
			"byteOffset":392284
		},
		{
			"buffer":0,
			"byteLength":24,
			"byteOffset":392308
		},
		{
			"buffer":0,
			"byteLength":484,
			"byteOffset":392332
		},
		{
			"buffer":0,
			"byteLength":1936,
			"byteOffset":392816
		},
		{
			"buffer":0,
			"byteLength":24,
			"byteOffset":394752
		},
		{
			"buffer":0,
			"byteLength":24,
			"byteOffset":394776
		},
		{
			"buffer":0,
			"byteLength":1936,
			"byteOffset":394800
		},
		{
			"buffer":0,
			"byteLength":24,
			"byteOffset":396736
		}
	],
	"samplers":[
		{
			"magFilter":9729,
			"minFilter":9987
		}
	],
	"buffers":[
		{
			"byteLength":396760,
			"uri":"double_door.bin"
		}
	]
}
