{
	"asset":{
		"generator":"Khronos glTF Blender I/O v3.6.27",
		"version":"2.0"
	},
	"scene":0,
	"scenes":[
		{
			"name":"Scene",
			"nodes":[
				0
			]
		}
	],
	"nodes":[
		{
			"mesh":0,
			"name":"Cube"
		}
	],
	"materials":[
		{
			"doubleSided":true,
			"name":"Material",
			"pbrMetallicRoughness":{
				"baseColorTexture":{
					"index":0
				},
				"metallicFactor":0
			}
		}
	],
	"meshes":[
		{
			"name":"Cube.004",
			"primitives":[
				{
					"attributes":{
						"POSITION":0,
						"NORMAL":1,
						"TEXCOORD_0":2
					},
					"indices":3,
					"material":0
				}
			]
		}
	],
	"textures":[
		{
			"sampler":0,
			"source":0
		}
	],
	"images":[
		{
			"mimeType":"image/png",
			"name":"bookshelf_diffuse.png",
			"uri":"bookshelf_diffuse.png"
		}
	],
	"accessors":[
		{
			"bufferView":0,
			"componentType":5126,
			"count":11836,
			"max":[
				1.3000004291534424,
				3,
				0.6967761516571045
			],
			"min":[
				-1.2999999523162842,
				1.1920928955078125e-07,
				-0.003224015235900879
			],
			"type":"VEC3"
		},
		{
			"bufferView":1,
			"componentType":5126,
			"count":11836,
			"type":"VEC3"
		},
		{
			"bufferView":2,
			"componentType":5126,
			"count":11836,
			"type":"VEC2"
		},
		{
			"bufferView":3,
			"componentType":5123,
			"count":19836,
			"type":"SCALAR"
		}
	],
	"bufferViews":[
		{
			"buffer":0,
			"byteLength":142032,
			"byteOffset":0,
			"target":34962
		},
		{
			"buffer":0,
			"byteLength":142032,
			"byteOffset":142032,
			"target":34962
		},
		{
			"buffer":0,
			"byteLength":94688,
			"byteOffset":284064,
			"target":34962
		},
		{
			"buffer":0,
			"byteLength":39672,
			"byteOffset":378752,
			"target":34963
		}
	],
	"samplers":[
		{
			"magFilter":9729,
			"minFilter":9987
		}
	],
	"buffers":[
		{
			"byteLength":418424,
			"uri":"bookshelf.bin"
		}
	]
}
