{
	"asset":{
		"generator":"Khronos glTF Blender I/O v3.5.30",
		"version":"2.0"
	},
	"scene":0,
	"scenes":[
		{
			"name":"Scene",
			"nodes":[
				0
			]
		}
	],
	"nodes":[
		{
			"mesh":0,
			"name":"Landscape"
		}
	],
	"materials":[
		{
			"doubleSided":true,
			"name":"Material.001",
			"pbrMetallicRoughness":{
				"baseColorFactor":[
					0.1714409440755844,
					0.2831486165523529,
					0.05951131135225296,
					1
				],
				"metallicFactor":0
			}
		}
	],
	"meshes":[
		{
			"name":"Landscape",
			"primitives":[
				{
					"attributes":{
						"POSITION":0,
						"TEXCOORD_0":1,
						"NORMAL":2
					},
					"indices":3,
					"material":0
				}
			]
		}
	],
	"accessors":[
		{
			"bufferView":0,
			"componentType":5126,
			"count":502681,
			"max":[
				139.37008666992188,
				21.38863754272461,
				139.37008666992188
			],
			"min":[
				-139.37008666992188,
				-32.696720123291016,
				-139.37008666992188
			],
			"type":"VEC3"
		},
		{
			"bufferView":1,
			"componentType":5126,
			"count":502681,
			"type":"VEC2"
		},
		{
			"bufferView":2,
			"componentType":5126,
			"count":502681,
			"type":"VEC3"
		},
		{
			"bufferView":3,
			"componentType":5125,
			"count":3007584,
			"type":"SCALAR"
		}
	],
	"bufferViews":[
		{
			"buffer":0,
			"byteLength":6032172,
			"byteOffset":0,
			"target":34962
		},
		{
			"buffer":0,
			"byteLength":4021448,
			"byteOffset":6032172,
			"target":34962
		},
		{
			"buffer":0,
			"byteLength":6032172,
			"byteOffset":10053620,
			"target":34962
		},
		{
			"buffer":0,
			"byteLength":12030336,
			"byteOffset":16085792,
			"target":34963
		}
	],
	"buffers":[
		{
			"byteLength":28116128,
			"uri":"terrain_collider.bin"
		}
	]
}
