{
	"asset":{
		"generator":"Khronos glTF Blender I/O v3.5.30",
		"version":"2.0"
	},
	"scene":0,
	"scenes":[
		{
			"name":"Scene",
			"nodes":[
				0,
				1
			]
		}
	],
	"nodes":[
		{
			"mesh":0,
			"name":"Terrain"
		},
		{
			"mesh":1,
			"name":"Well",
			"translation":[
				0,
				8.247808456420898,
				0
			]
		}
	],
	"animations":[
		{
			"channels":[
				{
					"sampler":0,
					"target":{
						"node":0,
						"path":"translation"
					}
				},
				{
					"sampler":1,
					"target":{
						"node":0,
						"path":"rotation"
					}
				},
				{
					"sampler":2,
					"target":{
						"node":0,
						"path":"scale"
					}
				}
			],
			"name":"Terrain",
			"samplers":[
				{
					"input":20,
					"interpolation":"LINEAR",
					"output":21
				},
				{
					"input":20,
					"interpolation":"LINEAR",
					"output":22
				},
				{
					"input":20,
					"interpolation":"LINEAR",
					"output":23
				}
			]
		},
		{
			"channels":[
				{
					"sampler":0,
					"target":{
						"node":1,
						"path":"translation"
					}
				},
				{
					"sampler":1,
					"target":{
						"node":1,
						"path":"rotation"
					}
				},
				{
					"sampler":2,
					"target":{
						"node":1,
						"path":"scale"
					}
				}
			],
			"name":"Well",
			"samplers":[
				{
					"input":20,
					"interpolation":"LINEAR",
					"output":24
				},
				{
					"input":20,
					"interpolation":"LINEAR",
					"output":25
				},
				{
					"input":20,
					"interpolation":"LINEAR",
					"output":26
				}
			]
		}
	],
	"materials":[
		{
			"doubleSided":true,
			"name":"Material",
			"pbrMetallicRoughness":{
				"baseColorFactor":[
					0.12927868962287903,
					0.23301498591899872,
					0.05349189043045044,
					1
				],
				"metallicFactor":0,
				"roughnessFactor":0.5
			}
		},
		{
			"doubleSided":true,
			"name":"Material.001",
			"pbrMetallicRoughness":{
				"baseColorFactor":[
					0.12823928892612457,
					0.12823928892612457,
					0.12823928892612457,
					1
				],
				"metallicFactor":0,
				"roughnessFactor":0.5
			}
		},
		{
			"doubleSided":true,
			"name":"Material.002",
			"pbrMetallicRoughness":{
				"baseColorFactor":[
					0.11493169516324997,
					0.10341903567314148,
					0.09067168831825256,
					1
				],
				"metallicFactor":0
			}
		},
		{
			"doubleSided":true,
			"name":"Material.003",
			"pbrMetallicRoughness":{
				"baseColorFactor":[
					0.16793958842754364,
					0.08383354544639587,
					0.04644564539194107,
					1
				],
				"metallicFactor":0,
				"roughnessFactor":0.5
			}
		},
		{
			"doubleSided":true,
			"name":"Material.004",
			"pbrMetallicRoughness":{
				"baseColorFactor":[
					0.031063510105013847,
					0.00909497682005167,
					0.009759503416717052,
					1
				],
				"metallicFactor":0,
				"roughnessFactor":0.5
			}
		}
	],
	"meshes":[
		{
			"name":"Plane",
			"primitives":[
				{
					"attributes":{
						"POSITION":0,
						"TEXCOORD_0":1,
						"NORMAL":2
					},
					"indices":3,
					"material":0
				},
				{
					"attributes":{
						"POSITION":4,
						"TEXCOORD_0":5,
						"NORMAL":6
					},
					"indices":7,
					"material":1
				}
			]
		},
		{
			"name":"Cylinder",
			"primitives":[
				{
					"attributes":{
						"POSITION":8,
						"TEXCOORD_0":9,
						"NORMAL":10
					},
					"indices":11,
					"material":2
				},
				{
					"attributes":{
						"POSITION":12,
						"TEXCOORD_0":13,
						"NORMAL":14
					},
					"indices":15,
					"material":3
				},
				{
					"attributes":{
						"POSITION":16,
						"TEXCOORD_0":17,
						"NORMAL":18
					},
					"indices":19,
					"material":4
				}
			]
		}
	],
	"accessors":[
		{
			"bufferView":0,
			"componentType":5126,
			"count":41,
			"max":[
				26.172502517700195,
				8.464282989501953,
				26.538585662841797
			],
			"min":[
				-22.210121154785156,
				7.14618444442749,
				-24.29437828063965
			],
			"type":"VEC3"
		},
		{
			"bufferView":1,
			"componentType":5126,
			"count":41,
			"type":"VEC2"
		},
		{
			"bufferView":2,
			"componentType":5126,
			"count":41,
			"type":"VEC3"
		},
		{
			"bufferView":3,
			"componentType":5123,
			"count":183,
			"type":"SCALAR"
		},
		{
			"bufferView":4,
			"componentType":5126,
			"count":64,
			"max":[
				26.172502517700195,
				8.464282989501953,
				26.538585662841797
			],
			"min":[
				-22.210121154785156,
				-14.45549488067627,
				-24.29437828063965
			],
			"type":"VEC3"
		},
		{
			"bufferView":5,
			"componentType":5126,
			"count":64,
			"type":"VEC2"
		},
		{
			"bufferView":6,
			"componentType":5126,
			"count":64,
			"type":"VEC3"
		},
		{
			"bufferView":7,
			"componentType":5123,
			"count":96,
			"type":"SCALAR"
		},
		{
			"bufferView":8,
			"componentType":5126,
			"count":162,
			"max":[
				1.7921682596206665,
				-0.2065296769142151,
				1.7921682596206665
			],
			"min":[
				-1.7921682596206665,
				-11.917332649230957,
				-1.7921682596206665
			],
			"type":"VEC3"
		},
		{
			"bufferView":9,
			"componentType":5126,
			"count":162,
			"type":"VEC2"
		},
		{
			"bufferView":10,
			"componentType":5126,
			"count":162,
			"type":"VEC3"
		},
		{
			"bufferView":11,
			"componentType":5123,
			"count":288,
			"type":"SCALAR"
		},
		{
			"bufferView":12,
			"componentType":5126,
			"count":72,
			"max":[
				1.68519926071167,
				2.6509251594543457,
				4.2303032875061035
			],
			"min":[
				-1.5540449619293213,
				-0.9298534393310547,
				-0.9118572473526001
			],
			"type":"VEC3"
		},
		{
			"bufferView":13,
			"componentType":5126,
			"count":72,
			"type":"VEC2"
		},
		{
			"bufferView":14,
			"componentType":5126,
			"count":72,
			"type":"VEC3"
		},
		{
			"bufferView":15,
			"componentType":5123,
			"count":108,
			"type":"SCALAR"
		},
		{
			"bufferView":16,
			"componentType":5126,
			"count":42,
			"max":[
				2.80171275138855,
				3.2879326343536377,
				3.356180191040039
			],
			"min":[
				-2.730111837387085,
				1.7099015712738037,
				-1.6067873239517212
			],
			"type":"VEC3"
		},
		{
			"bufferView":17,
			"componentType":5126,
			"count":42,
			"type":"VEC2"
		},
		{
			"bufferView":18,
			"componentType":5126,
			"count":42,
			"type":"VEC3"
		},
		{
			"bufferView":19,
			"componentType":5123,
			"count":66,
			"type":"SCALAR"
		},
		{
			"bufferView":20,
			"componentType":5126,
			"count":2,
			"max":[
				0.08333333333333333
			],
			"min":[
				0.041666666666666664
			],
			"type":"SCALAR"
		},
		{
			"bufferView":21,
			"componentType":5126,
			"count":2,
			"type":"VEC3"
		},
		{
			"bufferView":22,
			"componentType":5126,
			"count":2,
			"type":"VEC4"
		},
		{
			"bufferView":23,
			"componentType":5126,
			"count":2,
			"type":"VEC3"
		},
		{
			"bufferView":24,
			"componentType":5126,
			"count":2,
			"type":"VEC3"
		},
		{
			"bufferView":25,
			"componentType":5126,
			"count":2,
			"type":"VEC4"
		},
		{
			"bufferView":26,
			"componentType":5126,
			"count":2,
			"type":"VEC3"
		}
	],
	"bufferViews":[
		{
			"buffer":0,
			"byteLength":492,
			"byteOffset":0,
			"target":34962
		},
		{
			"buffer":0,
			"byteLength":328,
			"byteOffset":492,
			"target":34962
		},
		{
			"buffer":0,
			"byteLength":492,
			"byteOffset":820,
			"target":34962
		},
		{
			"buffer":0,
			"byteLength":366,
			"byteOffset":1312,
			"target":34963
		},
		{
			"buffer":0,
			"byteLength":768,
			"byteOffset":1680,
			"target":34962
		},
		{
			"buffer":0,
			"byteLength":512,
			"byteOffset":2448,
			"target":34962
		},
		{
			"buffer":0,
			"byteLength":768,
			"byteOffset":2960,
			"target":34962
		},
		{
			"buffer":0,
			"byteLength":192,
			"byteOffset":3728,
			"target":34963
		},
		{
			"buffer":0,
			"byteLength":1944,
			"byteOffset":3920,
			"target":34962
		},
		{
			"buffer":0,
			"byteLength":1296,
			"byteOffset":5864,
			"target":34962
		},
		{
			"buffer":0,
			"byteLength":1944,
			"byteOffset":7160,
			"target":34962
		},
		{
			"buffer":0,
			"byteLength":576,
			"byteOffset":9104,
			"target":34963
		},
		{
			"buffer":0,
			"byteLength":864,
			"byteOffset":9680,
			"target":34962
		},
		{
			"buffer":0,
			"byteLength":576,
			"byteOffset":10544,
			"target":34962
		},
		{
			"buffer":0,
			"byteLength":864,
			"byteOffset":11120,
			"target":34962
		},
		{
			"buffer":0,
			"byteLength":216,
			"byteOffset":11984,
			"target":34963
		},
		{
			"buffer":0,
			"byteLength":504,
			"byteOffset":12200,
			"target":34962
		},
		{
			"buffer":0,
			"byteLength":336,
			"byteOffset":12704,
			"target":34962
		},
		{
			"buffer":0,
			"byteLength":504,
			"byteOffset":13040,
			"target":34962
		},
		{
			"buffer":0,
			"byteLength":132,
			"byteOffset":13544,
			"target":34963
		},
		{
			"buffer":0,
			"byteLength":8,
			"byteOffset":13676
		},
		{
			"buffer":0,
			"byteLength":24,
			"byteOffset":13684
		},
		{
			"buffer":0,
			"byteLength":32,
			"byteOffset":13708
		},
		{
			"buffer":0,
			"byteLength":24,
			"byteOffset":13740
		},
		{
			"buffer":0,
			"byteLength":24,
			"byteOffset":13764
		},
		{
			"buffer":0,
			"byteLength":32,
			"byteOffset":13788
		},
		{
			"buffer":0,
			"byteLength":24,
			"byteOffset":13820
		}
	],
	"buffers":[
		{
			"byteLength":13844,
			"uri":"terrain.bin"
		}
	]
}
